<?xml version="1.0" encoding="utf-8"?>
<!-- Generator: Adobe Illustrator 17.0.0, SVG Export Plug-In . SVG Version: 6.00 Build 0)  -->
<!DOCTYPE svg PUBLIC "-//W3C//DTD SVG 1.1//EN" "http://www.w3.org/Graphics/SVG/1.1/DTD/svg11.dtd">
<svg version="1.1" id="Layer_1" xmlns="http://www.w3.org/2000/svg" xmlns:xlink="http://www.w3.org/1999/xlink" x="0px" y="0px"
	 width="136.222px" height="115px" viewBox="0 0 136.222 115" enable-background="new 0 0 136.222 115" xml:space="preserve">
<g>
	<g>
		<defs>
			<rect id="SVGID_1141_" x="-159.356" y="189.516" width="130" height="115"/>
		</defs>
		<clipPath id="SVGID_2_">
			<use xlink:href="#SVGID_1141_"  overflow="visible"/>
		</clipPath>
		<g clip-path="url(#SVGID_2_)">
		</g>
	</g>
</g>
<g>
	<defs>
		<rect id="SVGID_1365_" x="0" y="0.058" width="136.507" height="115"/>
	</defs>
	<clipPath id="SVGID_4_">
		<use xlink:href="#SVGID_1365_"  overflow="visible"/>
	</clipPath>
	<g clip-path="url(#SVGID_4_)">
		<g>
			<g>
				<defs>
					<polygon id="SVGID_1367_" points="-0.356,-1.484 -0.356,124.516 80.675,124.516 110.409,-1.484 					"/>
				</defs>
				<clipPath id="SVGID_6_">
					<use xlink:href="#SVGID_1367_"  overflow="visible"/>
				</clipPath>
			</g>
			<g>
				<defs>
					<polygon id="SVGID_1369_" points="-1.356,-0.484 -1.356,117.516 136.22,117.516 136.338,-0.484 					"/>
				</defs>
				<clipPath id="SVGID_8_">
					<use xlink:href="#SVGID_1369_"  overflow="visible"/>
				</clipPath>
				<polygon opacity="0.3" clip-path="url(#SVGID_8_)" fill="#B2E9FF" points="-1.356,-2.484 -1.356,124.516 138.589,124.516 
					137.138,-2.484 				"/>
				<g clip-path="url(#SVGID_8_)">
					<defs>
						<polyline id="SVGID_1371_" points="12.644,124.516 140.643,124.516 140.569,-14.484 12.644,-14.484 						"/>
					</defs>
					<clipPath id="SVGID_10_">
						<use xlink:href="#SVGID_1371_"  overflow="visible"/>
					</clipPath>
				</g>
			</g>
		</g>
		<g>
			<defs>
				<polygon id="SVGID_1373_" points="-1.356,1.516 -1.356,119.516 136.22,119.516 135.735,1.516 				"/>
			</defs>
			<clipPath id="SVGID_12_">
				<use xlink:href="#SVGID_1373_"  overflow="visible"/>
			</clipPath>
		</g>
		<g>
			<defs>
				<polygon id="SVGID_1375_" points="-1.356,-0.484 -1.356,119.516 138.589,119.516 137.138,-0.484 				"/>
			</defs>
			<clipPath id="SVGID_14_">
				<use xlink:href="#SVGID_1375_"  overflow="visible"/>
			</clipPath>
			<g clip-path="url(#SVGID_14_)">
				<path fill="#00608B" d="M27.361,38.266c0.017,1.757,0.048,3.514,0.049,5.272c0.005,11.536,0.003,23.072,0.002,34.608
					c0,0.155-0.015,0.309-0.023,0.464c-1.326,0.003-2.652,0.005-3.978,0.008c-0.013-3.416-0.034-6.832-0.036-10.248
					c-0.005-9.759-0.003-19.517-0.001-29.276c0-0.284,0.023-0.568,0.034-0.852C24.725,38.25,26.043,38.258,27.361,38.266z"/>
				<path fill="#CCCCCC" d="M23.41,78.617c1.326-0.003,2.652-0.006,3.978-0.008c0.003,0.67,0,1.34,0.012,2.009
					c0.007,0.385-0.149,0.563-0.55,0.558c-0.979-0.013-1.959-0.017-2.939,0.003c-0.412,0.008-0.546-0.17-0.534-0.553
					C23.399,79.957,23.401,79.287,23.41,78.617z"/>
				<path fill="#CCCCCC" d="M27.361,38.266c-1.318-0.008-2.636-0.016-3.954-0.024c0.438-1.239,0.788-2.515,1.556-3.611
					c0.293-0.006,0.587-0.013,0.88-0.019C26.49,35.771,26.962,37.003,27.361,38.266z"/>
				<path fill="#0075A9" d="M25.843,34.611c-0.294,0.006-0.587,0.013-0.88,0.019c0.018-0.394,0.238-0.716,0.425-1.222
					C25.569,33.888,25.706,34.249,25.843,34.611z"/>
			</g>
			<g clip-path="url(#SVGID_14_)">
				<path fill="#00608B" d="M16.45,41.525c0.194,1.453,0.4,2.904,0.581,4.358c1.186,9.548,2.368,19.097,3.549,28.646
					c0.016,0.128,0.019,0.258,0.028,0.386c-1.097,0.138-2.195,0.276-3.292,0.415c-0.361-2.826-0.729-5.651-1.081-8.479
					c-1.005-8.077-2.003-16.155-3.002-24.233c-0.029-0.235-0.04-0.472-0.059-0.709C14.267,41.782,15.358,41.654,16.45,41.525z"/>
				<path fill="#CCCCCC" d="M17.316,75.33c1.097-0.138,2.195-0.277,3.292-0.415c0.071,0.554,0.137,1.109,0.216,1.662
					c0.045,0.318-0.066,0.481-0.398,0.518c-0.812,0.09-1.624,0.187-2.432,0.304c-0.34,0.049-0.469-0.085-0.499-0.403
					C17.445,76.44,17.377,75.886,17.316,75.33z"/>
				<path fill="#CCCCCC" d="M16.45,41.525c-1.092,0.128-2.183,0.257-3.275,0.385c0.236-1.07,0.394-2.163,0.918-3.149
					c0.242-0.035,0.484-0.071,0.726-0.106C15.473,39.549,15.99,40.521,16.45,41.525z"/>
				<path fill="#0075A9" d="M14.819,38.656c-0.242,0.035-0.485,0.071-0.726,0.106c-0.025-0.328,0.123-0.617,0.227-1.055
					C14.518,38.085,14.669,38.37,14.819,38.656z"/>
			</g>
			<g clip-path="url(#SVGID_14_)">
				<path fill="#9B9B9B" d="M32.737,56.09c0-7.41,0.046-14.82-0.04-22.228c-0.016-1.431,0.492-1.901,1.779-2.213
					c2.911-0.705,5.894-0.875,8.82-1.363c6.53-1.089,13.011-0.747,19.521-0.163c1.219,0.109,2.468,0.188,3.636,0.519
					c4.264,1.21,8.441,0.386,12.664-0.263c6.064-0.931,12.182-1.193,18.282-0.493c4.182,0.48,8.397,0.823,12.487,1.985
					c0.921,0.261,1.106,0.625,1.106,1.442c-0.007,15.177-0.012,30.354,0.033,45.531c0.004,1.339-0.673,1.348-1.633,1.275
					c-6.416-0.485-12.844-0.697-19.278-0.719c-4.601-0.016-9.195,0.18-13.788,0.414c-0.353,0.018-0.84-0.029-1.032,0.174
					c-1.195,1.267-2.703,0.89-4.156,0.956c-0.858,0.039-1.619,0.054-2.226-0.652c-0.367-0.427-0.881-0.461-1.4-0.489
					c-10.419-0.551-20.836-0.602-31.245,0.204c-3.54,0.274-3.535,0.298-3.534-3.223c0.002-6.899,0.001-13.797,0.001-20.696
					C32.733,56.09,32.735,56.09,32.737,56.09z M108.897,55.808c0.002,0,0.004,0,0.006,0c0-6.747-0.041-13.494,0.035-20.241
					c0.015-1.353-0.41-1.893-1.707-2.089c-1.561-0.235-3.147-0.507-4.631-1.024c-9.951-3.466-19.768-2.932-29.484,0.876
					c-0.987,0.387-1.81,0.353-2.78-0.026c-7.175-2.805-14.55-3.941-22.237-2.695c-3.994,0.647-7.733,2.271-11.721,2.884
					c-1.187,0.182-1.562,0.683-1.558,1.895c0.04,13.596,0.031,27.192,0.005,40.788c-0.002,1.117,0.191,1.68,1.514,1.591
					c4.942-0.332,9.895-0.424,14.846-0.57c9.394-0.276,18.756,0.901,28.171,0.274c9.28-0.618,18.593-0.367,27.879,0.289
					c1.457,0.103,1.698-0.428,1.688-1.712C108.87,69.302,108.897,62.555,108.897,55.808z"/>
				<path fill="#CCCCCC" d="M102.432,53.099c-0.149,0.762-0.691,0.452-1.082,0.36c-2.788-0.655-5.6-1.156-8.459-1.373
					c-5.438-0.414-10.814-0.051-16.126,1.22c-0.599,0.143-1.573,0.637-1.763-0.129c-0.198-0.799,0.904-0.749,1.481-0.883
					c8.248-1.914,16.496-1.956,24.73,0.096C101.667,52.503,102.289,52.411,102.432,53.099z"/>
				<path fill="#CCCCCC" d="M88.59,36.234c-4.163-0.018-8.245,0.599-12.292,1.525c-0.473,0.108-1.228,0.597-1.379-0.268
					c-0.117-0.667,0.67-0.612,1.138-0.726c8.396-2.056,16.794-2.102,25.187,0.005c0.468,0.117,1.372-0.058,1.12,0.829
					c-0.198,0.697-0.873,0.257-1.324,0.151C96.943,36.791,92.803,36.215,88.59,36.234z"/>
				<path fill="#CCCCCC" d="M101.573,66.066c-3.834-0.973-7.664-1.516-11.559-1.631c-4.626-0.136-9.168,0.44-13.662,1.488
					c-0.199,0.046-0.392,0.121-0.592,0.154c-0.361,0.06-0.779,0.108-0.865-0.362c-0.085-0.461,0.32-0.596,0.674-0.672
					c1.597-0.34,3.189-0.713,4.797-0.985c6.942-1.175,13.832-0.847,20.668,0.796c0.248,0.06,0.494,0.128,0.741,0.192
					c0.363,0.094,0.745,0.221,0.624,0.691C102.278,66.208,101.87,66.117,101.573,66.066z"/>
				<path fill="#CCCCCC" d="M88.781,54.003c3.977-0.093,8.113,0.508,12.204,1.45c0.529,0.122,1.55,0.047,1.407,0.817
					c-0.165,0.891-1.042,0.304-1.55,0.186c-8.204-1.904-16.394-1.88-24.584,0.077c-0.455,0.109-1.156,0.518-1.318-0.163
					c-0.187-0.787,0.709-0.733,1.176-0.845C80.198,54.543,84.333,53.948,88.781,54.003z"/>
				<path fill="#CCCCCC" d="M101.51,44.133c-3.661-0.923-7.339-1.429-11.074-1.588c-4.52-0.193-8.96,0.353-13.364,1.303
					c-0.349,0.075-0.689,0.206-1.041,0.25c-0.422,0.053-1.017,0.316-1.134-0.34c-0.092-0.517,0.465-0.586,0.853-0.682
					c8.636-2.133,17.271-2.147,25.904,0.021c0.388,0.098,0.888,0.172,0.728,0.751C102.25,44.325,101.812,44.143,101.51,44.133z"/>
				<path fill="#CCCCCC" d="M88.403,58.194c-4.013-0.055-7.948,0.534-11.85,1.404c-0.299,0.067-0.595,0.157-0.898,0.196
					c-0.306,0.039-0.665,0.044-0.75-0.336c-0.086-0.382,0.231-0.539,0.537-0.61c1.492-0.348,2.976-0.751,4.484-1.006
					c6.942-1.172,13.847-0.906,20.709,0.639c0.349,0.078,0.695,0.177,1.032,0.296c0.352,0.123,0.929,0.097,0.72,0.724
					c-0.155,0.464-0.583,0.303-0.924,0.24c-1.859-0.342-3.715-0.698-5.574-1.038C93.413,58.249,90.908,58.216,88.403,58.194z"/>
				<path fill="#CCCCCC" d="M88.096,38.353c5.1,0.007,9.239,0.543,13.318,1.554c0.423,0.105,1.101,0.086,0.982,0.704
					c-0.148,0.767-0.82,0.395-1.263,0.287c-8.288-2.016-16.571-2.045-24.859,0.007c-0.454,0.112-1.14,0.469-1.333-0.187
					c-0.205-0.696,0.546-0.702,1.015-0.815C80.239,38.871,84.577,38.297,88.096,38.353z"/>
				<path fill="#CCCCCC" d="M88.993,44.61c3.991-0.034,8.177,0.551,12.314,1.519c0.457,0.107,1.223,0.075,1.087,0.779
					c-0.145,0.749-0.849,0.368-1.279,0.262c-8.286-2.037-16.565-2.052-24.851,0.004c-0.444,0.11-1.165,0.418-1.331-0.24
					c-0.18-0.712,0.624-0.684,1.063-0.786C80.181,45.171,84.415,44.564,88.993,44.61z"/>
				<path fill="#E75A0E" d="M68.005,37.459c-0.15,0.653-0.635,0.425-1.072,0.33c-1.496-0.322-2.985-0.684-4.491-0.957
					c-6.948-1.259-13.827-0.845-20.651,0.887c-0.426,0.108-1.095,0.566-1.27-0.213c-0.132-0.59,0.547-0.613,0.974-0.728
					c8.584-2.298,17.164-2.237,25.737,0.054C67.891,37.009,67.999,37.111,68.005,37.459z"/>
				<path fill="#CCCCCC" d="M54.217,50.756c4.211-0.018,8.355,0.518,12.425,1.583c0.486,0.127,1.519-0.05,1.277,0.86
					c-0.194,0.727-1,0.229-1.476,0.109c-6.163-1.562-12.387-1.989-18.693-1.11c-2.075,0.289-4.121,0.719-6.152,1.235
					c-0.353,0.09-0.871,0.429-1.066-0.131c-0.224-0.645,0.387-0.73,0.814-0.844C45.562,51.336,49.852,50.756,54.217,50.756z"/>
				<path fill="#E75A0E" d="M54.067,38.162c4.437,0.124,8.743,0.598,12.957,1.75c0.43,0.117,1.1,0.141,0.972,0.733
					c-0.17,0.788-0.839,0.333-1.263,0.222c-8.283-2.173-16.562-2.179-24.848-0.022c-0.463,0.121-1.138,0.5-1.333-0.157
					c-0.209-0.706,0.585-0.672,1.032-0.796C45.695,38.758,49.902,38.307,54.067,38.162z"/>
				<path fill="#E75A0E" d="M67.503,56.693c-3.06-0.732-5.801-1.301-8.607-1.575c-5.549-0.542-11.012-0.105-16.412,1.242
					c-0.248,0.062-0.497,0.12-0.748,0.166c-0.426,0.078-1.004,0.426-1.192-0.188c-0.208-0.679,0.507-0.621,0.896-0.736
					c2.258-0.668,4.57-1.091,6.904-1.366c6.254-0.735,12.437-0.337,18.532,1.281c0.197,0.052,0.394,0.108,0.59,0.165
					c0.315,0.092,0.615,0.261,0.555,0.62C67.935,56.817,67.526,56.698,67.503,56.693z"/>
				<path fill="#E75A0E" d="M54.561,63.523c4.206,0.032,8.341,0.585,12.401,1.68c0.404,0.109,1.116,0.086,0.996,0.7
					c-0.153,0.776-0.845,0.366-1.266,0.258c-6.301-1.63-12.666-2.095-19.122-1.15c-1.87,0.274-3.711,0.662-5.543,1.119
					c-0.483,0.121-1.269,0.578-1.484-0.108c-0.241-0.772,0.67-0.73,1.15-0.856C45.91,64.061,50.199,63.5,54.561,63.523z"/>
				<path fill="#E75A0E" d="M54.308,57.033c4.2-0.091,8.322,0.554,12.389,1.579c0.481,0.121,1.405,0.055,1.259,0.781
					c-0.161,0.799-0.946,0.299-1.423,0.18c-8.018-2.011-16.037-2.109-24.066-0.081c-0.346,0.087-0.692,0.177-1.044,0.235
					c-0.336,0.055-0.771,0.223-0.904-0.257c-0.132-0.475,0.293-0.594,0.637-0.678c1.435-0.349,2.861-0.763,4.316-1.002
					C48.392,57.312,51.327,56.931,54.308,57.033z"/>
				<path fill="#E75A0E" d="M67.057,44.095c-2.693-0.728-5.451-1.22-8.248-1.513c-5.598-0.585-11.105-0.048-16.549,1.302
					c-0.297,0.074-0.589,0.171-0.89,0.223c-0.35,0.061-0.789,0.147-0.877-0.33c-0.081-0.443,0.319-0.596,0.678-0.672
					c1.945-0.415,3.878-0.919,5.843-1.208c6.697-0.984,13.334-0.619,19.887,1.109c0.148,0.039,0.301,0.062,0.445,0.111
					c0.333,0.114,0.768,0.197,0.637,0.681C67.854,44.275,67.427,44.127,67.057,44.095z"/>
				<path fill="#E75A0E" d="M55.3,44.495c3.24-0.006,7.431,0.55,11.552,1.625c0.445,0.116,1.245,0.056,1.109,0.754
					c-0.141,0.723-0.853,0.366-1.292,0.249c-8.282-2.199-16.556-2.189-24.837,0.006c-0.433,0.115-1.142,0.509-1.329-0.169
					c-0.19-0.686,0.602-0.701,1.051-0.816C45.727,45.078,49.963,44.469,55.3,44.495z"/>
				<path fill="#E75A0E" d="M55.097,60.151c2.594-0.09,5.623,0.364,8.646,0.837c0.458,0.072,1.25,0.03,1.141,0.705
					c-0.112,0.697-0.845,0.366-1.292,0.287c-7.338-1.305-14.614-1.069-21.829,0.824c-0.438,0.115-1.052,0.349-1.197-0.216
					c-0.195-0.762,0.617-0.671,1.037-0.778C45.87,60.722,50.199,60.084,55.097,60.151z"/>
				<path fill="#E75A0E" d="M53.606,66.658c2.297-0.072,4.587,0.057,6.873,0.284c0.435,0.043,1.09-0.064,1.061,0.569
					c-0.036,0.804-0.74,0.507-1.193,0.452c-6.152-0.755-12.212-0.243-18.203,1.277c-0.049,0.013-0.1,0.03-0.15,0.029
					c-0.509-0.007-1.29,0.535-1.442-0.223c-0.141-0.707,0.778-0.676,1.258-0.793C45.685,67.314,49.606,66.682,53.606,66.658z"/>
				<path fill="#CCCCCC" d="M87.978,66.349c0.511-0.001,1.021-0.005,1.531,0c0.409,0.004,0.921-0.027,0.934,0.523
					c0.013,0.576-0.52,0.525-0.916,0.53c-2.657,0.029-5.295,0.244-7.925,0.637c-1.819,0.272-3.621,0.608-5.403,1.056
					c-0.486,0.122-1.12,0.405-1.28-0.291c-0.139-0.608,0.531-0.607,0.959-0.715C79.853,67.091,83.894,66.572,87.978,66.349z"/>
				<path fill="#E75A0E" d="M52.025,47.531c0.005,0,0.463-0.081,0.538,0.371c0.101,0.604-0.439,0.582-0.824,0.621
					c-3.397,0.341-6.758,0.873-10.057,1.776c-0.4,0.11-1.034,0.372-1.172-0.244c-0.132-0.591,0.551-0.654,0.955-0.759
					C44.821,48.427,48.222,47.806,52.025,47.531z"/>
				<path fill="#CCCCCC" d="M84.624,47.734c0.269-0.003,0.733-0.081,0.813,0.355c0.104,0.572-0.427,0.616-0.816,0.658
					c-2.931,0.321-5.838,0.764-8.676,1.594c-0.367,0.107-0.917,0.23-1.038-0.287c-0.122-0.522,0.435-0.617,0.806-0.722
					C78.603,48.513,81.544,47.97,84.624,47.734z"/>
				<path fill="#CCCCCC" d="M84.704,60.787c-0.088,0.468-0.441,0.529-0.803,0.567c-2.687,0.279-5.331,0.781-7.931,1.515
					c-0.409,0.115-0.889,0.221-1.031-0.288c-0.158-0.569,0.413-0.608,0.773-0.721c2.634-0.821,5.362-1.17,8.076-1.586
					C84.207,60.21,84.615,60.251,84.704,60.787z"/>
				<path fill="#CCCCCC" d="M66.962,65.203c-4.06-1.094-8.195-1.648-12.401-1.68c-4.362-0.024-8.651,0.538-12.867,1.642
					c-0.48,0.126-1.392,0.084-1.15,0.856c0.215,0.686,1.001,0.229,1.484,0.108c1.832-0.457,3.673-0.846,5.543-1.119
					c6.456-0.945,12.821-0.48,19.122,1.15c0.421,0.109,1.113,0.518,1.266-0.258C68.078,65.289,67.367,65.312,66.962,65.203z"/>
				<path fill="#CCCCCC" d="M60.479,66.942c-2.285-0.226-4.575-0.356-6.872-0.285c-4.001,0.026-7.922,0.657-11.796,1.596
					c-0.48,0.116-1.4,0.086-1.258,0.792c0.152,0.758,0.933,0.216,1.442,0.223c0.05,0.001,0.101-0.016,0.15-0.029
					c5.991-1.519,12.051-2.032,18.203-1.277c0.454,0.056,1.157,0.352,1.193-0.452C61.569,66.878,60.914,66.985,60.479,66.942z"/>
				<path fill="#CCCCCC" d="M41.763,62.804c7.216-1.893,14.491-2.129,21.829-0.824c0.448,0.08,1.18,0.411,1.292-0.287
					c0.108-0.675-0.683-0.633-1.141-0.705c-3.024-0.473-6.052-0.927-8.646-0.837c-4.898-0.067-9.227,0.571-13.493,1.659
					c-0.42,0.107-1.232,0.016-1.037,0.778C40.71,63.153,41.325,62.919,41.763,62.804z"/>
				<path fill="none" d="M41.598,53.432c2.031-0.516,4.077-0.945,6.152-1.235c6.305-0.879,12.529-0.452,18.693,1.11
					c0.477,0.121,1.282,0.618,1.476-0.109c0.243-0.91-0.79-0.733-1.277-0.86c-4.07-1.065-8.214-1.601-12.424-1.585
					c-4.366,0.001-8.655,0.581-12.872,1.703c-0.427,0.114-1.038,0.199-0.814,0.844C40.727,53.862,41.245,53.522,41.598,53.432z"/>
				<path fill="#CCCCCC" d="M67.465,55.683c-0.196-0.057-0.393-0.113-0.59-0.165c-6.095-1.618-12.278-2.016-18.532-1.281
					c-2.333,0.274-4.646,0.698-6.904,1.366c-0.389,0.115-1.104,0.057-0.896,0.736c0.188,0.614,0.766,0.266,1.192,0.188
					c0.251-0.046,0.5-0.104,0.748-0.166c5.4-1.347,10.863-1.784,16.412-1.242c2.806,0.274,5.547,0.843,8.607,1.575
					c0.023,0.004,0.433,0.123,0.518-0.391C68.08,55.944,67.78,55.775,67.465,55.683z"/>
				<path fill="#CCCCCC" d="M41.792,37.72c6.824-1.732,13.703-2.146,20.651-0.887c1.505,0.273,2.994,0.635,4.491,0.957
					c0.438,0.094,0.923,0.323,1.072-0.33c-0.006-0.348-0.115-0.45-0.772-0.626c-8.574-2.291-17.154-2.352-25.738-0.054
					c-0.427,0.114-1.106,0.138-0.974,0.728C40.696,38.286,41.365,37.829,41.792,37.72z"/>
				<path fill="#CCCCCC" d="M76.297,37.758c4.047-0.926,8.129-1.542,12.293-1.525c4.213-0.018,8.353,0.558,12.448,1.517
					c0.451,0.106,1.126,0.546,1.324-0.152c0.252-0.887-0.652-0.712-1.12-0.829c-8.393-2.107-16.792-2.061-25.187-0.005
					c-0.467,0.114-1.254,0.059-1.138,0.726C75.069,38.356,75.824,37.867,76.297,37.758z"/>
				<path fill="#CCCCCC" d="M67.024,39.912c-4.214-1.152-8.519-1.625-12.957-1.75c-4.165,0.144-8.372,0.595-12.483,1.73
					c-0.448,0.124-1.242,0.09-1.032,0.796c0.195,0.656,0.869,0.277,1.333,0.157c8.286-2.157,16.565-2.151,24.848,0.022
					c0.424,0.111,1.093,0.567,1.263-0.222C68.123,40.053,67.454,40.03,67.024,39.912z"/>
				<path fill="#CCCCCC" d="M41.37,44.107c0.3-0.052,0.593-0.149,0.89-0.223c5.444-1.35,10.951-1.888,16.549-1.302
					c2.797,0.292,5.555,0.785,8.248,1.513c0.371,0.032,0.798,0.18,0.927-0.296c0.131-0.484-0.304-0.567-0.637-0.681
					c-0.144-0.05-0.297-0.072-0.445-0.111c-6.554-1.727-13.19-2.093-19.887-1.109c-1.964,0.289-3.897,0.792-5.843,1.208
					c-0.359,0.076-0.759,0.229-0.678,0.672C40.58,44.255,41.019,44.168,41.37,44.107z"/>
				<path fill="#CCCCCC" d="M52.025,47.531c-3.803,0.275-7.204,0.896-10.559,1.765c-0.404,0.104-1.087,0.168-0.955,0.759
					c0.137,0.616,0.771,0.354,1.172,0.244c3.299-0.904,6.66-1.435,10.057-1.776c0.384-0.039,0.925-0.017,0.824-0.621
					C52.488,47.45,52.03,47.531,52.025,47.531z"/>
				<path fill="#CCCCCC" d="M41.832,47.128c8.281-2.194,16.555-2.205,24.837-0.006c0.44,0.117,1.152,0.474,1.292-0.249
					c0.136-0.698-0.664-0.638-1.109-0.754c-4.121-1.075-8.312-1.631-11.551-1.625c-5.338-0.026-9.573,0.583-13.747,1.648
					c-0.449,0.115-1.241,0.129-1.051,0.816C40.69,47.637,41.399,47.242,41.832,47.128z"/>
				<path fill="#CCCCCC" d="M66.698,58.612c-4.067-1.025-8.189-1.67-12.389-1.579c-2.982-0.102-5.917,0.279-8.836,0.758
					c-1.454,0.238-2.881,0.652-4.316,1.002c-0.344,0.084-0.769,0.203-0.637,0.678c0.133,0.48,0.568,0.312,0.904,0.257
					c0.351-0.058,0.698-0.148,1.044-0.235c8.029-2.028,16.048-1.93,24.066,0.081c0.476,0.119,1.262,0.619,1.423-0.18
					C68.103,58.668,67.178,58.734,66.698,58.612z"/>
				<path fill="#CCCCCC" d="M76.258,56.533c8.19-1.957,16.38-1.981,24.584-0.077c0.508,0.118,1.385,0.705,1.55-0.186
					c0.143-0.771-0.878-0.695-1.407-0.817c-4.091-0.942-8.227-1.543-12.204-1.45c-4.448-0.055-8.583,0.54-12.666,1.522
					c-0.467,0.112-1.363,0.058-1.176,0.845C75.102,57.051,75.803,56.642,76.258,56.533z"/>
				<path fill="#CCCCCC" d="M101.666,58.777c-0.337-0.118-0.683-0.217-1.032-0.296c-6.862-1.545-13.767-1.81-20.709-0.639
					c-1.508,0.255-2.992,0.658-4.484,1.006c-0.306,0.071-0.622,0.228-0.537,0.61c0.085,0.38,0.444,0.375,0.75,0.336
					c0.303-0.038,0.599-0.129,0.898-0.196c3.902-0.87,7.838-1.459,11.85-1.404c2.504,0.022,5.01,0.055,7.486,0.508
					c1.859,0.34,3.715,0.696,5.574,1.038c0.342,0.063,0.769,0.224,0.924-0.24C102.596,58.873,102.018,58.9,101.666,58.777z"/>
				<path fill="#CCCCCC" d="M75.969,62.869c2.6-0.734,5.244-1.237,7.931-1.515c0.363-0.038,0.716-0.099,0.803-0.567
					c-0.089-0.537-0.497-0.578-0.917-0.513c-2.714,0.416-5.443,0.765-8.076,1.586c-0.36,0.112-0.931,0.152-0.773,0.721
					C75.08,63.091,75.56,62.985,75.969,62.869z"/>
				<path fill="#CCCCCC" d="M101.213,52.39c-8.234-2.053-16.482-2.011-24.73-0.096c-0.578,0.134-1.679,0.084-1.481,0.883
					c0.189,0.766,1.164,0.272,1.763,0.129c5.312-1.271,10.688-1.633,16.126-1.22c2.859,0.217,5.671,0.718,8.459,1.373
					c0.391,0.092,0.933,0.402,1.082-0.36C102.289,52.411,101.667,52.503,101.213,52.39z"/>
				<path fill="#CCCCCC" d="M101.775,65.047c-0.247-0.064-0.493-0.132-0.741-0.192c-6.836-1.644-13.726-1.971-20.668-0.796
					c-1.609,0.272-3.201,0.645-4.797,0.985c-0.354,0.075-0.759,0.211-0.674,0.672c0.086,0.469,0.505,0.421,0.865,0.361
					c0.2-0.033,0.394-0.108,0.592-0.154c4.494-1.048,9.036-1.623,13.662-1.488c3.895,0.114,7.725,0.657,11.559,1.631
					c0.297,0.051,0.706,0.143,0.827-0.328C102.52,65.268,102.138,65.14,101.775,65.047z"/>
				<path fill="#CCCCCC" d="M76.031,44.097c0.352-0.044,0.692-0.175,1.041-0.25c4.404-0.95,8.844-1.496,13.364-1.303
					c3.735,0.16,7.414,0.666,11.074,1.588c0.303,0.01,0.741,0.193,0.872-0.286c0.159-0.58-0.34-0.653-0.728-0.751
					c-8.632-2.168-17.268-2.153-25.904-0.021c-0.388,0.096-0.945,0.165-0.853,0.682C75.014,44.413,75.609,44.151,76.031,44.097z"/>
				<path fill="#CCCCCC" d="M76.273,40.905c8.287-2.052,16.57-2.023,24.859-0.007c0.444,0.108,1.115,0.48,1.263-0.287
					c0.119-0.618-0.558-0.599-0.982-0.704c-4.079-1.011-8.218-1.547-13.318-1.554c-3.519-0.056-7.857,0.518-12.141,1.55
					c-0.469,0.113-1.221,0.119-1.015,0.815C75.134,41.374,75.819,41.017,76.273,40.905z"/>
				<path fill="#CCCCCC" d="M101.114,47.171c0.43,0.106,1.134,0.487,1.279-0.262c0.136-0.704-0.63-0.672-1.087-0.779
					c-4.137-0.968-8.322-1.553-12.314-1.519c-4.578-0.047-8.812,0.561-12.998,1.538c-0.439,0.103-1.243,0.075-1.063,0.786
					c0.166,0.658,0.887,0.35,1.331,0.24C84.549,45.119,92.828,45.134,101.114,47.171z"/>
				<path fill="#CCCCCC" d="M89.509,66.35c-0.51-0.005-1.02-0.001-1.532,0c-4.083,0.222-8.125,0.74-12.097,1.739
					c-0.428,0.108-1.098,0.107-0.959,0.715c0.159,0.697,0.794,0.414,1.28,0.291c1.782-0.449,3.584-0.784,5.403-1.056
					c2.63-0.393,5.268-0.608,7.925-0.637c0.396-0.004,0.929,0.046,0.916-0.53C90.431,66.322,89.918,66.354,89.509,66.35z"/>
				<path fill="#CCCCCC" d="M84.624,47.734c-3.08,0.235-6.021,0.778-8.911,1.598c-0.371,0.105-0.928,0.201-0.806,0.722
					c0.121,0.517,0.671,0.394,1.038,0.287c2.839-0.83,5.745-1.273,8.676-1.594c0.389-0.043,0.92-0.086,0.816-0.658
					C85.357,47.653,84.893,47.732,84.624,47.734z"/>
				<path fill="#00608B" d="M70.335,33.305c-7.175-2.805-14.55-3.941-22.237-2.694c-3.994,0.647-7.733,2.271-11.721,2.884
					c-1.187,0.182-1.562,0.683-1.558,1.895c0.04,13.596,0.031,27.192,0.005,40.788c-0.002,1.117,0.191,1.68,1.514,1.591
					c4.942-0.332,9.895-0.424,14.846-0.57c6.904-0.203,13.792,0.377,20.695,0.451v-44.05C71.374,33.617,70.877,33.517,70.335,33.305
					z M41.496,36.78c8.584-2.298,17.164-2.237,25.738,0.054c0.657,0.176,0.766,0.278,0.772,0.626
					c-0.15,0.653-0.635,0.424-1.072,0.33c-1.496-0.322-2.985-0.684-4.491-0.957c-6.948-1.259-13.827-0.845-20.651,0.887
					c-0.427,0.108-1.095,0.566-1.27-0.213C40.39,36.918,41.069,36.894,41.496,36.78z M67.996,40.645
					c-0.17,0.788-0.839,0.333-1.263,0.222c-8.283-2.173-16.562-2.179-24.848-0.022c-0.463,0.121-1.138,0.5-1.333-0.157
					c-0.209-0.706,0.585-0.672,1.032-0.796c4.111-1.135,8.319-1.586,12.483-1.73c4.437,0.124,8.743,0.598,12.957,1.75
					C67.454,40.03,68.123,40.053,67.996,40.645z M41.171,43.105c1.945-0.415,3.878-0.919,5.843-1.208
					c6.697-0.984,13.334-0.619,19.887,1.109c0.148,0.039,0.301,0.062,0.445,0.111c0.333,0.114,0.768,0.197,0.637,0.681
					c-0.129,0.476-0.556,0.328-0.927,0.296c-2.693-0.728-5.451-1.22-8.248-1.513c-5.598-0.585-11.105-0.048-16.549,1.302
					c-0.297,0.074-0.589,0.171-0.89,0.223c-0.35,0.061-0.789,0.147-0.877-0.33C40.412,43.334,40.812,43.182,41.171,43.105z
					 M41.554,46.143c4.173-1.065,8.409-1.674,13.747-1.648c3.24-0.006,7.431,0.55,11.551,1.625c0.445,0.116,1.245,0.056,1.109,0.754
					c-0.141,0.723-0.853,0.366-1.292,0.249c-8.282-2.199-16.556-2.189-24.837,0.006c-0.433,0.115-1.142,0.509-1.329-0.169
					C40.313,46.272,41.104,46.257,41.554,46.143z M51.74,48.522c-3.397,0.341-6.758,0.873-10.057,1.776
					c-0.4,0.11-1.034,0.372-1.172-0.244c-0.132-0.591,0.551-0.654,0.955-0.759c3.355-0.868,6.755-1.489,10.559-1.765
					c0.005,0,0.463-0.081,0.538,0.371C52.664,48.506,52.124,48.484,51.74,48.522z M41.346,52.458
					c4.216-1.122,8.506-1.702,12.872-1.703c4.211-0.017,8.355,0.52,12.424,1.585c0.486,0.127,1.519-0.05,1.277,0.86
					c-0.194,0.727-1,0.229-1.476,0.109c-6.163-1.563-12.387-1.989-18.693-1.11c-2.075,0.289-4.121,0.719-6.152,1.235
					c-0.353,0.09-0.871,0.429-1.066-0.131C40.308,52.657,40.919,52.571,41.346,52.458z M60.347,67.962
					c-6.152-0.755-12.212-0.243-18.203,1.277c-0.049,0.013-0.1,0.03-0.15,0.029c-0.509-0.007-1.29,0.535-1.442-0.223
					c-0.141-0.707,0.778-0.676,1.258-0.792c3.874-0.939,7.795-1.57,11.796-1.596c2.296-0.071,4.586,0.059,6.872,0.285
					c0.435,0.043,1.09-0.064,1.061,0.569C61.504,68.314,60.801,68.018,60.347,67.962z M67.958,65.902
					c-0.153,0.776-0.845,0.366-1.266,0.258c-6.301-1.63-12.666-2.095-19.122-1.15c-1.87,0.274-3.711,0.662-5.543,1.119
					c-0.483,0.12-1.269,0.578-1.484-0.108c-0.241-0.772,0.67-0.73,1.15-0.856c4.217-1.104,8.506-1.665,12.867-1.642
					c4.206,0.032,8.341,0.585,12.401,1.68C67.367,65.312,68.078,65.289,67.958,65.902z M41.603,61.81
					c4.267-1.089,8.595-1.726,13.493-1.659c2.594-0.09,5.623,0.364,8.646,0.837c0.458,0.072,1.25,0.03,1.141,0.705
					c-0.112,0.697-0.845,0.366-1.292,0.287c-7.338-1.305-14.614-1.069-21.829,0.824c-0.438,0.115-1.052,0.349-1.197-0.216
					C40.371,61.826,41.183,61.918,41.603,61.81z M67.957,59.394c-0.161,0.799-0.946,0.299-1.423,0.18
					c-8.018-2.011-16.037-2.109-24.066-0.081c-0.346,0.087-0.692,0.177-1.044,0.235c-0.336,0.055-0.771,0.223-0.904-0.257
					c-0.132-0.475,0.293-0.594,0.637-0.678c1.435-0.349,2.861-0.763,4.316-1.002c2.919-0.478,5.854-0.859,8.836-0.758
					c4.2-0.091,8.322,0.554,12.389,1.579C67.178,58.734,68.103,58.668,67.957,59.394z M68.021,56.303
					c-0.085,0.514-0.495,0.395-0.518,0.391c-3.06-0.732-5.801-1.301-8.607-1.575c-5.549-0.542-11.012-0.104-16.412,1.242
					c-0.248,0.062-0.497,0.12-0.748,0.166c-0.426,0.078-1.004,0.426-1.192-0.188c-0.208-0.679,0.507-0.621,0.896-0.736
					c2.258-0.668,4.57-1.091,6.904-1.366c6.254-0.735,12.437-0.337,18.532,1.281c0.197,0.052,0.394,0.108,0.59,0.165
					C67.78,55.775,68.08,55.944,68.021,56.303z"/>
				<path fill="#0075A9" d="M108.897,55.808c0.002,0,0.004,0,0.006,0c0-6.747-0.041-13.494,0.035-20.24
					c0.015-1.353-0.41-1.893-1.707-2.089c-1.561-0.235-3.147-0.507-4.631-1.024c-9.951-3.466-19.768-2.932-29.484,0.876
					c-0.435,0.171-0.838,0.255-1.237,0.269v44.05c2.489,0.027,4.981-0.011,7.476-0.177c9.28-0.618,18.593-0.367,27.879,0.289
					c1.457,0.103,1.698-0.428,1.688-1.712C108.87,69.302,108.897,62.555,108.897,55.808z M76.056,36.764
					c8.396-2.056,16.794-2.102,25.187,0.005c0.468,0.118,1.372-0.058,1.12,0.829c-0.198,0.697-0.873,0.257-1.324,0.152
					c-4.095-0.959-8.235-1.535-12.448-1.517c-4.164-0.017-8.246,0.599-12.293,1.525c-0.473,0.108-1.228,0.597-1.379-0.268
					C74.802,36.823,75.588,36.878,76.056,36.764z M75.955,39.903c4.283-1.032,8.622-1.606,12.141-1.55
					c5.1,0.007,9.239,0.543,13.318,1.554c0.423,0.105,1.101,0.086,0.982,0.704c-0.148,0.767-0.82,0.395-1.263,0.287
					c-8.288-2.016-16.571-2.045-24.859,0.007c-0.454,0.112-1.14,0.469-1.333-0.187C74.735,40.022,75.486,40.016,75.955,39.903z
					 M75.749,43.075c8.636-2.133,17.271-2.147,25.904,0.021c0.388,0.098,0.888,0.171,0.728,0.751
					c-0.132,0.479-0.57,0.297-0.872,0.286c-3.661-0.923-7.339-1.429-11.074-1.588c-4.52-0.193-8.96,0.353-13.364,1.303
					c-0.349,0.075-0.689,0.206-1.041,0.25c-0.422,0.053-1.017,0.316-1.134-0.34C74.805,43.24,75.362,43.171,75.749,43.075z
					 M76.263,47.175c-0.444,0.11-1.165,0.418-1.331-0.24c-0.18-0.712,0.624-0.684,1.063-0.786c4.186-0.977,8.42-1.585,12.998-1.538
					c3.991-0.034,8.177,0.551,12.314,1.519c0.457,0.107,1.223,0.075,1.087,0.779c-0.145,0.749-0.849,0.368-1.279,0.262
					C92.828,45.134,84.549,45.119,76.263,47.175z M84.621,48.748c-2.931,0.321-5.838,0.764-8.676,1.594
					c-0.367,0.107-0.917,0.23-1.038-0.287c-0.122-0.522,0.435-0.617,0.806-0.722c2.89-0.82,5.831-1.363,8.911-1.598
					c0.269-0.003,0.733-0.081,0.813,0.355C85.541,48.662,85.01,48.705,84.621,48.748z M89.528,67.402
					c-2.657,0.029-5.295,0.244-7.925,0.637c-1.819,0.272-3.62,0.608-5.403,1.056c-0.486,0.122-1.12,0.406-1.28-0.291
					c-0.139-0.608,0.531-0.607,0.959-0.715c3.973-0.999,8.014-1.517,12.097-1.739c0.512-0.002,1.022-0.006,1.532,0
					c0.409,0.004,0.921-0.027,0.934,0.523C90.457,67.449,89.924,67.398,89.528,67.402z M102.399,65.738
					c-0.121,0.47-0.529,0.379-0.827,0.328c-3.834-0.973-7.664-1.516-11.559-1.631c-4.626-0.136-9.168,0.44-13.662,1.488
					c-0.199,0.046-0.392,0.121-0.592,0.154c-0.361,0.06-0.779,0.108-0.865-0.361c-0.085-0.461,0.32-0.596,0.674-0.672
					c1.597-0.34,3.189-0.713,4.797-0.985c6.942-1.175,13.832-0.847,20.668,0.796c0.248,0.06,0.494,0.128,0.741,0.192
					C102.138,65.14,102.52,65.268,102.399,65.738z M75.711,61.86c2.634-0.821,5.362-1.17,8.076-1.586
					c0.42-0.064,0.828-0.023,0.917,0.513c-0.088,0.468-0.441,0.529-0.803,0.567c-2.687,0.279-5.332,0.781-7.931,1.515
					c-0.409,0.115-0.889,0.221-1.031-0.288C74.78,62.012,75.351,61.973,75.711,61.86z M102.387,59.501
					c-0.155,0.464-0.583,0.303-0.924,0.24c-1.859-0.342-3.715-0.698-5.574-1.038c-2.476-0.453-4.981-0.486-7.486-0.508
					c-4.013-0.055-7.948,0.534-11.85,1.404c-0.299,0.067-0.595,0.157-0.898,0.196c-0.306,0.039-0.665,0.044-0.75-0.336
					c-0.086-0.382,0.231-0.539,0.537-0.61c1.492-0.348,2.976-0.751,4.484-1.006c6.942-1.172,13.847-0.906,20.709,0.639
					c0.349,0.078,0.695,0.177,1.032,0.296C102.018,58.9,102.596,58.873,102.387,59.501z M76.115,55.525
					c4.083-0.982,8.218-1.577,12.666-1.522c3.977-0.093,8.113,0.508,12.204,1.45c0.529,0.122,1.55,0.047,1.407,0.817
					c-0.165,0.891-1.042,0.304-1.55,0.186c-8.204-1.904-16.394-1.881-24.584,0.077c-0.455,0.109-1.156,0.518-1.318-0.163
					C74.752,55.583,75.648,55.637,76.115,55.525z M101.35,53.459c-2.788-0.655-5.6-1.156-8.459-1.373
					c-5.438-0.414-10.814-0.052-16.126,1.22c-0.599,0.143-1.573,0.637-1.763-0.129c-0.198-0.799,0.904-0.749,1.481-0.883
					c8.248-1.914,16.496-1.956,24.73,0.096c0.454,0.113,1.076,0.021,1.219,0.709C102.283,53.861,101.741,53.551,101.35,53.459z"/>
			</g>
			<g clip-path="url(#SVGID_14_)">
				
					<rect x="101.423" y="77.321" transform="matrix(0.7155 -0.6987 0.6987 0.7155 -25.9115 102.3512)" fill="#CCCCCC" width="22.553" height="11.331"/>
				
					<rect x="102.351" y="78.6" transform="matrix(0.7155 -0.6987 0.6987 0.7155 -28.0232 101.5172)" fill="#9B9B9B" width="16.537" height="13.124"/>
			</g>
		</g>
	</g>
</g>
</svg>
