<?xml version="1.0" encoding="utf-8"?>
<!-- Generator: Adobe Illustrator 17.0.0, SVG Export Plug-In . SVG Version: 6.00 Build 0)  -->
<!DOCTYPE svg PUBLIC "-//W3C//DTD SVG 1.1//EN" "http://www.w3.org/Graphics/SVG/1.1/DTD/svg11.dtd">
<svg version="1.1" xmlns="http://www.w3.org/2000/svg" xmlns:xlink="http://www.w3.org/1999/xlink" x="0px" y="0px" width="520px"
	 height="205px" viewBox="0 0 520 205" enable-background="new 0 0 520 205" xml:space="preserve">
<g id="Layer_1">
	<g>
		<defs>
			<polygon id="SVGID_2294_" points="1478.5,-1038.5 1478.5,-834.5 1657.637,-834.5 1711.897,-1038.5 			"/>
		</defs>
		<clipPath id="SVGID_2_">
			<use xlink:href="#SVGID_2294_"  overflow="visible"/>
		</clipPath>
		<g clip-path="url(#SVGID_2_)">
			<defs>
				<polygon id="SVGID_2296_" points="1477.933,-1039.492 1477.933,-833.345 1657.689,-833.345 1713.287,-1038.531 				"/>
			</defs>
			<clipPath id="SVGID_4_">
				<use xlink:href="#SVGID_2296_"  overflow="visible"/>
			</clipPath>
			<g clip-path="url(#SVGID_4_)">
				<defs>
					<rect id="SVGID_2298_" x="191.62" y="-2908.665" width="1929.469" height="3801.658"/>
				</defs>
				<clipPath id="SVGID_5_">
					<use xlink:href="#SVGID_2298_"  overflow="visible"/>
				</clipPath>
			</g>
		</g>
		<use xlink:href="#SVGID_2294_"  overflow="visible" fill="none" stroke="#819D2C" stroke-miterlimit="10"/>
	</g>
	<g>
		<g>
			<defs>
				<polygon id="SVGID_2348_" points="583.5,0.5 583.5,204.5 761.502,204.5 817.018,0.5 				"/>
			</defs>
			<clipPath id="SVGID_7_">
				<use xlink:href="#SVGID_2348_"  overflow="visible"/>
			</clipPath>
			<g clip-path="url(#SVGID_7_)">
				<g>
					<defs>
						<polygon id="SVGID_2350_" points="435,-187 435,287 733.519,287 845.224,-187 						"/>
					</defs>
					<clipPath id="SVGID_9_">
						<use xlink:href="#SVGID_2350_"  overflow="visible"/>
					</clipPath>
				</g>
			</g>
			<use xlink:href="#SVGID_2348_"  overflow="visible" fill="none" stroke="#95846F" stroke-miterlimit="10"/>
		</g>
	</g>
	<g>
		<g>
			<defs>
				<polygon id="SVGID_2358_" points="0.5,0.5 0.5,204.5 178.502,204.5 234.018,0.5 				"/>
			</defs>
			<clipPath id="SVGID_10_">
				<use xlink:href="#SVGID_2358_"  overflow="visible"/>
			</clipPath>
			<g clip-path="url(#SVGID_10_)">
				<g>
					<defs>
						<polygon id="SVGID_2360_" points="-148,-187 -148,287 150.519,287 262.224,-187 						"/>
					</defs>
					<clipPath id="SVGID_12_">
						<use xlink:href="#SVGID_2360_"  overflow="visible"/>
					</clipPath>
				</g>
				<polygon fill="#FFF8EF" points="-2,-8 -2,233 185.995,233 242.724,-8 				"/>
				<g>
					<defs>
						<polygon id="SVGID_2362_" points="-2,-8 -2,233 151.268,233 207.996,-8 						"/>
					</defs>
					<clipPath id="SVGID_14_">
						<use xlink:href="#SVGID_2362_"  overflow="visible"/>
					</clipPath>
				</g>
				<g>
					<defs>
						<polygon id="SVGID_2364_" points="-2,-8 -2,233 151.268,233 207.996,-8 						"/>
					</defs>
					<clipPath id="SVGID_15_">
						<use xlink:href="#SVGID_2364_"  overflow="visible"/>
					</clipPath>
				</g>
				<g>
					<defs>
						<polygon id="SVGID_2366_" points="-2,-8 -2,233 185.995,233 242.724,-8 						"/>
					</defs>
					<clipPath id="SVGID_17_">
						<use xlink:href="#SVGID_2366_"  overflow="visible"/>
					</clipPath>
					<g clip-path="url(#SVGID_17_)">
						<g>
							<path id="_x32__3_" fill="#7A6B5A" d="M88.228,131.183c-6.884,0.362-43.297,22.464-48.188,26.268
								c-3.804,2.717-7.065,5.254-10.688,7.971c-3.804,3.08-6.703,5.797-9.964,8.696c-3.623,3.08-15.217,14.674-17.391,19.928
								l7.79,3.442c7.428-11.775,43.116-40.398,50.725-41.667l0.906-0.725c0.725-0.725,0.362-0.543,1.268-1.087
								c7.79-5.616,35.87-18.659,44.022-21.558c1.268-0.906,0.906,1.087,1.268-1.993c1.268-2.355,4.348-7.609,5.072-9.42
								l-5.435,1.63l-2.717,1.087l-1.087,0.362l-5.978,2.536l-5.978,2.536L88.228,131.183z"/>
							<path fill="#7A6B5A" d="M64.315,109.625c2.717,0.181,1.087,0,3.442,1.63c1.812,1.268,1.812,1.268,4.167,1.63l1.63,1.268
								l5.797-1.087v-0.725l3.804-1.268c-1.087-1.449,0.725,0.181-1.63-1.63c-0.181-0.181-1.268-0.725-1.993-1.268l-3.08-1.63
								c-27.717-14.13-64.312-30.797-99.094-38.043c-7.609-2.536-8.152-2.899-12.319,1.993c2.717,1.449,21.196,6.341,26.268,7.971
								c23.37,7.609,39.674,14.493,61.232,24.638c1.993,1.087,3.986,1.993,5.978,3.08c1.087,0.543,1.993,0.906,2.899,1.449
								c0.181,0.181,1.449,0.906,1.63,0.906C64.496,109.625,63.409,108.719,64.315,109.625z"/>
							<path fill="#7A6B5A" d="M69.931,160.53c-12.138,6.884-40.942,31.703-45.833,42.572l7.428,2.355
								c2.899-2.355,8.877-10.145,12.319-13.587c8.877-8.696,38.406-32.427,44.927-32.971l5.254-3.623
								c6.159-3.261,4.167-3.804,7.246-9.058c1.449-2.355,2.174-3.261,3.442-5.435C93.301,145.313,79.714,154.19,69.931,160.53z"/>
							<path fill="#7A6B5A" d="M27.902,104.009c4.891,1.812,14.13,5.616,17.572,9.42c2.174-0.362,1.993,0.906,2.174,0.906
								l6.159,3.08l1.993,1.087l2.717,1.993l1.449-0.543l3.986-1.087l-0.362-0.543l3.623-1.268l0.906-1.087l-4.348-2.355
								l-0.906-0.362l-4.348-2.355c-18.841-12.5-77.174-35.507-96.739-37.5l-2.717,3.804c2.536,2.174,13.949,4.71,18.478,5.978
								C-13.221,86.255,24.46,100.386,27.902,104.009z"/>
							<path fill="#7A6B5A" d="M144.388,193.683c1.268-4.167,22.464-19.928,29.348-24.456c5.254-3.442,29.348-17.572,35.87-17.754
								c4.529-4.71,30.435-9.964,39.312-11.594c3.986-0.725,3.261,0.181,4.348-2.899c-3.985-3.08-28.985,3.986-34.42,5.616
								c-10.87,3.08-21.014,7.246-30.797,11.957c-10.507,4.891-18.116,9.783-26.812,15.58c-2.899,1.993-15.761,11.413-17.029,14.493
								l-0.725,7.428C143.844,194.045,142.576,192.414,144.388,193.683z"/>
							<path fill="#7A6B5A" d="M215.04,155.82c-2.355,1.993-15.036,7.971-19.384,10.688c-14.855,9.058-39.855,28.08-47.283,43.478
								c2.174,0,5.616-0.725,7.79-1.449c3.986-0.906,3.804-1.63,5.616-4.167c2.717-3.804,5.797-7.065,8.514-10.145
								c2.536-2.717,16.123-16.304,20.833-17.21c3.08-5.978,33.696-21.196,43.841-25c9.783-3.623,13.768-2.536,15.217-7.246
								C240.764,144.226,223.554,153.284,215.04,155.82z"/>
							<path fill="#7A6B5A" d="M160.148,155.458c-1.63,1.812-5.978,3.986-8.152,5.254l-1.087,8.152
								c1.63-0.362,17.935-10.326,22.101-12.319c46.196-22.826,77.536-23.007,82.427-25.362l-1.087-2.355
								c-23.913,0.362-52.174,8.333-73.732,17.391C176.272,148.03,162.685,155.096,160.148,155.458z"/>
							<path fill="#7A6B5A" d="M190.764,132.994c-3.442,0.725-27.536,8.696-30.254,11.051l-3.261,6.522
								c-0.543,2.174-1.449,1.087,0.543,1.993c3.442-3.623,37.862-15.761,45.652-17.935c11.956-3.623,26.993-7.246,39.674-8.877
								c9.601-1.268,11.775,0.362,12.681-3.08C250.728,118.139,192.757,130.639,190.764,132.994z"/>
							<path fill="#7A6B5A" d="M89.315,167.596c-0.906,1.449-18.297,13.406-23.37,18.659c-4.891,5.254-16.667,15.399-20.29,22.826
								l8.152,1.63l17.572-18.841l20.29-15.942c2.174-3.986,1.993-5.978,2.536-10.507C91.851,166.146,91.851,166.69,89.315,167.596z
								"/>
							<path fill="#7A6B5A" d="M10.692,127.741c-7.79-7.609-51.268-28.985-63.043-32.065l-1.268,3.804
								c5.978,3.08,14.312,6.703,21.014,9.783c10.145,4.71,29.167,16.304,38.225,22.826c5.254,3.804,10.326,9.058,13.406,8.152
								c0.362-0.181,1.812-1.087,2.355-1.449c0.725-0.543,0.725-0.543,1.268-1.087c0,0,0.362,0,0.362-0.362
								c0.181-0.181,0.362-0.181,0.362-0.362c-1.812-1.63-3.804-3.804-6.159-4.167C15.765,130.82,12.866,128.828,10.692,127.741z"/>
							<path fill="#7A6B5A" d="M22.286,115.241l3.986,1.812l0.362,0.543l3.442,1.449l-0.362,0.543
								c3.442,0.906,5.254,2.536,7.971,4.167l0.362,0.543l3.08,1.63l-0.362,0.543l1.63,0.543l1.812-0.362l0.543-0.181l2.717-1.087
								c0.543,0,1.449-0.181,1.812-0.543c1.449-0.906,0.906-0.543,1.63-1.812c-1.63-0.725-1.449-0.543-3.261-1.812l-3.442-1.63
								l0.362-0.725l-3.442-1.449c-2.899-1.993-8.152-5.072-11.232-6.703l-3.623-1.449l0.181-0.543c-3.08-0.543-1.087,0-1.812-1.087
								c-1.449-0.181-28.08-12.862-32.79-14.674c-7.065-2.899-28.985-11.594-35.87-11.957l-2.174,3.623
								c3.08,2.174,14.13,5.072,18.478,6.884c7.79,2.899,42.029,17.935,48.551,22.283C22.105,114.697,21.743,114.335,22.286,115.241
								z"/>
							<path fill="#7A6B5A" d="M197.829,180.82c-1.087,2.536-15.58,13.949-18.297,20.471c3.08-0.543,12.319-4.71,15.58-6.159
								c4.348-2.355,14.674-18.297,33.514-29.167c2.717-1.812,5.616-3.623,8.514-4.891c3.442-1.63,6.522-2.899,7.246-6.522
								c-11.775,3.985-25.543,11.232-35.507,18.297C204.895,175.748,201.453,179.371,197.829,180.82z"/>
							<path fill="#7A6B5A" d="M-55.431,103.828c0,0.362,0.181,2.174,0.181,2.355c0.906,3.261-0.906-0.543,0.725,1.449
								c37.5,16.123,53.261,34.964,61.413,39.674l5.254-3.623c-4.891-4.71-9.783-8.333-15.217-12.5
								c-9.42-7.065-22.826-14.855-33.514-20.471l-13.768-6.341C-53.076,103.103-53.801,102.922-55.431,103.828z"/>
							<path fill="#7A6B5A" d="M0.366,152.378c-2.899-5.616-18.841-18.478-25.181-22.826c-4.348-3.08-9.058-5.978-13.949-9.058
								c-3.986-2.355-11.957-5.978-14.674-8.152l-3.08-0.725l-0.181,4.71c16.304,6.884,44.203,28.804,51.63,38.587
								C-1.989,153.828-2.533,152.922,0.366,152.378z"/>
							<path fill="#7A6B5A" d="M10.692,114.878c-11.594-5.797-48.007-25.181-59.964-25.906l-1.087,3.08
								c0.725,0.725,27.536,12.138,31.341,13.949c9.601,4.529,21.014,10.688,29.348,16.123l12.138,7.609l6.884,4.529l5.797-2.536
								c0.906-1.449-0.906-0.543,0.725-1.087l-5.978-3.804l-0.181-0.543l-3.261-1.993l-4.167-1.993
								c-1.087-1.63-1.812-1.993-3.804-3.08c-1.993-0.906-0.725,0-2.536-1.268c-0.725-0.362-0.725-0.725-0.906-0.906
								C12.322,116.146,12.866,116.509,10.692,114.878z"/>
							<path fill="#7A6B5A" d="M187.141,109.081c21.196-1.449,40.036-7.065,66.848-5.072c-1.268-4.71-1.63-3.623-7.065-3.804
								c-17.572-0.725-29.891-0.362-47.464,1.268C192.032,102.016,188.953,102.741,187.141,109.081z"/>
							<path fill="#7A6B5A" d="M188.409,119.226c9.239-2.899,22.464-4.71,32.427-5.978c5.616-0.725,11.413-1.268,17.029-1.812
								l15.58-0.725c1.449-0.362,1.087-0.362,1.812-0.725c-0.906-3.623-1.449-2.717-6.159-2.717
								c-21.739,0.181-33.877,1.087-56.159,4.71l-3.804,0.725l-4.348,1.087h-2.536l0.725,0.906c-2.355,1.268-2.174,1.63-3.804,2.899
								l-3.442,2.899c-1.449,1.63,0.181-0.906-1.268,1.993l5.072-0.906c1.63-1.087,0-0.181,1.812-0.906
								c0.181,0,0.906-0.181,1.087-0.362c1.268-0.543,0.725-0.181,1.449-0.906l2.717,0.181L188.409,119.226z"/>
							<path fill="#7A6B5A" d="M198.011,98.574c0.181,0,0.362,0,0.543,0c2.355,0,28.08-2.355,38.587-2.536
								c3.442,0,11.232,1.087,13.949-0.906c-1.812-3.623-5.978-2.717-13.949-2.899l-30.978,0.362
								c-7.065,0.362-6.703,1.993-10.326,5.254L198.011,98.574z"/>
							<path fill="#7A6B5A" d="M78.627,213.972c5.797-10.507,10.145-9.964,10.326-16.304c0.181-2.899,0.181-5.616,0.362-8.514
								c-4.529,1.993-18.297,19.203-20.29,24.094L78.627,213.972z"/>
							<path fill="#7A6B5A" d="M101.453,120.857l2.899-0.906l3.261-1.268l7.609-1.993l4.529-3.623l2.536-7.246l-24.275,7.065
								l-6.703,3.08l-1.449,0.725l-4.167,0.725l-7.246,2.536l0.181,0.725l-2.536,0.543l-0.906,0.725l-2.536,0.543l-3.804,1.812
								l-1.268,0.725l-3.261,1.449l-1.812,0.543l-3.986,1.812c-0.543,0.906,0,0.362-1.268,1.087
								c-0.181,0.181-1.449,0.906-1.812,1.087c-1.812,0.725-2.717,1.087-4.71,1.449l-2.717,1.449
								c-1.268,1.268-15.58,9.058-18.478,10.688c-6.703,3.986-12.319,8.696-18.297,11.775c-0.725,1.63-23.188,18.116-27.174,26.993
								c1.449,1.812,3.986,3.442,6.341,3.986c3.623-2.899,5.435-7.065,12.5-12.5c1.812-1.268,2.536-2.355,4.348-3.804
								c11.957-10.145,25.543-18.478,39.674-26.087c7.246-3.986,14.855-7.246,21.739-11.051c2.717-1.087,5.435-2.355,7.971-3.261
								l5.435-2.899l3.804-1.087l2.717-0.543C91.308,123.574,97.467,122.125,101.453,120.857z"/>
							<path fill="#7A6B5A" d="M175.366,127.922c-3.08,2.174-3.623,0.725-7.065,3.804c-1.268,1.268-4.167,4.891-5.616,6.703
								l18.841-5.978l1.268-0.906l5.254-1.268l3.804-1.268c9.964-1.812,20.471-5.435,31.341-7.428
								c5.797-1.087,11.051-1.812,16.848-2.717l12.862-1.087c4.529-0.725,1.993,0.543,2.899-1.812
								c-1.087-2.174-0.362-1.449-8.152-1.087c-3.08,0.181-5.978,0.362-8.877,0.543c-5.797,0.543-11.594,1.087-17.391,1.993
								c-10.87,1.812-21.92,4.891-32.246,6.522l-1.268,0.181l-4.167,1.268l-1.449,0.725l-3.08,0.725l-0.181,0.181L175.366,127.922z"
								/>
							<g>
								<path fill="#BEE1AD" d="M111.417,215.241c0.906-15.217,0.543-22.826-13.043-34.601l-1.63-1.449
									c-1.63,6.522-3.804,17.754-1.449,23.913C97.83,209.806,104.533,212.161,111.417,215.241z"/>
								<path fill="#BEE1AD" d="M114.677,187.886c4.71-21.739,0.362-23.37-8.877-36.775l-0.725,0.906
									c-2.174,4.71,1.087-2.355-0.543,1.087C98.917,166.871,96.38,182.451,114.677,187.886z"/>
								<path fill="#BEE1AD" d="M117.576,188.429c17.935,1.268,23.188-10.326,27.174-25.362c-7.246,1.268-14.312,3.623-19.384,7.246
									C120.475,173.936,119.025,180.277,117.576,188.429z"/>
								<path fill="#BEE1AD" d="M114.677,215.784c8.696-2.536,12.862-0.543,17.029-7.79c3.986-6.522,2.899-11.232,5.254-17.935
									l0.543-2.717C122.286,192.958,114.315,196.038,114.677,215.784z"/>
								<path fill="#BEE1AD" d="M124.822,162.704c8.333,0,15.399-1.087,19.565-5.616c2.899-3.08,8.152-11.594,9.42-16.667
									C136.417,142.958,128.627,145.675,124.822,162.704z"/>
								<path fill="#BEE1AD" d="M115.946,131.726c-2.717,3.986-5.978,11.232-5.435,17.21c0.725,5.797,6.703,10.87,10.688,12.5
									c5.616-8.333,6.884-19.746,1.63-28.623c-0.725-1.449-1.087-1.63-1.63-3.08c-1.087-2.899,0.181-1.63-2.174-3.623
									l-1.812,2.536C116.851,129.733,116.308,130.82,115.946,131.726z"/>
								<path fill="#BEE1AD" d="M156.887,102.741c5.435,0.725,11.775-0.725,14.493-3.804c3.804-4.167,3.442-10.326,4.167-16.848
									C164.134,84.806,150.185,87.523,156.887,102.741z"/>
								<path fill="#BEE1AD" d="M137.685,103.646c1.268,6.159,3.804,7.79,6.884,10.87c1.812,0.362,0.725-0.181,3.08-0.906
									c1.812-3.804,5.072-6.703,5.072-12.5c-0.181-5.797-2.536-8.333-3.804-13.225l-1.087-1.812
									c-0.725,0.543-0.725,0.543-1.449,1.268l-2.355,2.899C140.945,94.226,138.228,97.668,137.685,103.646z"/>
								<path fill="#BEE1AD" d="M149.46,122.668l-5.072,2.174c-0.362,0.725-5.072,4.348-8.333,12.138l3.442,1.087
									c1.268,0.181,2.899,0.362,4.167,0.362c9.239,0.362,17.21-5.254,18.478-10.326c0.906-0.725,0.543-0.181,1.449-1.087
									c0.725-0.906,0.362-0.543,0.906-1.63c1.63-1.087,1.993-1.993,3.261-3.985h-3.08h-2.355l-6.884,0.362L149.46,122.668z"/>
								<path fill="#BEE1AD" d="M150.909,117.052v0.906l11.232,0.725l2.536-0.906c3.442-0.906,1.993-0.543,4.891-2.355
									c1.087-1.268,1.449-1.087,2.536-2.536c2.899-0.906,1.812-1.812,4.348-3.442l2.717-2.536l-0.181,0.181
									c-1.63-2.899,1.63-1.268-3.442-2.174c-6.884-1.449-18.841-0.543-23.732,7.246c-0.543,0.362-0.362,0-1.449,1.268
									l-1.449,2.717C149.46,116.871,147.105,117.415,150.909,117.052z"/>
								<path fill="#BEE1AD" d="M150.728,86.074l2.174-0.725c0.543-2.717,14.13-16.304,17.029-19.384
									c2.355-2.717,17.391-18.297,16.667-19.746c-2.174-4.167-7.79,4.71-10.507,7.428c-4.529,4.529-5.616,6.522-9.601,10.326
									c-1.812,1.812-2.899,3.261-4.529,5.254l-9.601,10.688C149.46,82.994,150.366,82.27,150.728,86.074z"/>
								<path fill="#BEE1AD" d="M206.344,68.502c1.268-1.812,3.08-4.348,5.616-5.072c3.261-10.326-6.159,0.362-7.971,2.174
									c-1.449,1.449-3.08,2.717-5.072,4.71c-1.993,1.812-3.261,3.442-5.254,5.254c-8.152,8.514-15.036,13.587-17.029,22.826
									C181.887,94.589,199.46,74.842,206.344,68.502z"/>
								<path fill="#BEE1AD" d="M156.344,84.262c0.725,1.268-0.543,1.449,3.986-0.906c5.072-2.355,7.246-5.072,11.775-10.326
									l18.297-19.565c2.174-1.812,5.616-4.167,4.529-7.428c-3.623-0.906-3.804,1.449-5.616,3.442l-14.312,14.855
									C171.561,67.958,160.148,82.089,156.344,84.262z"/>
								<path fill="#BEE1AD" d="M207.974,70.857c-2.174,4.167-11.232,11.957-15.036,15.942
									c-4.167,4.167-11.775,11.051-15.217,15.761l5.254,0.181c1.087-2.536,23.913-25,29.348-30.072
									c4.71-4.529,1.993-7.428-1.63-3.986c-0.906,0.906-0.362,0.543-1.449,1.449C207.974,71.038,209.242,70.313,207.974,70.857z"
									/>
								<path fill="#BEE1AD" d="M125.728,113.791c-0.181,1.268,0.181,0.543-0.362,1.63c-0.181,0-0.362,0.362-0.362,0.181
									c0,0-0.181,0.181-0.362,0.181l-1.268,5.435v-0.181c2.899,0.543,4.348,0.543,4.891,4.167c0.181,1.268,0,2.174-0.362,3.442
									c-0.906,1.993-0.362-0.543-1.449,2.355l6.522,5.254l2.536-4.529c-1.993-3.623-2.536-2.536-2.536-8.333
									c0-11.594-1.993-5.072-2.174-8.877c-0.181-1.812,0.725-0.906,1.63-3.08l1.63-4.529c0-0.181,0.181-0.181,0.181-0.362
									l-0.362-1.812l-1.449-1.268C130.076,107.089,127.721,110.168,125.728,113.791z"/>
								<path fill="#BEE1AD" d="M175.547,72.849c-1.63,3.08-3.442,3.804-4.891,6.884c4.71-0.906,4.891-1.087,7.79-3.623
									c3.986-3.623,13.587-15.399,17.029-17.21l2.355-3.08c5.616-5.797,9.964-9.239,6.522-10.87
									c-1.993-0.725-5.616,3.804-7.246,5.616C194.025,54.552,177.54,72.125,175.547,72.849z"/>
								<path fill="#BEE1AD" d="M203.445,54.734c-3.08,4.891-14.674,16.304-19.746,21.377c-3.261,3.261-4.529,2.899-4.529,9.42
									c0.181,0,0.543-0.543,0.543-0.362l29.529-29.891c0.725-1.087,1.993-2.355,2.174-3.261c0.543-1.812-0.362-2.899-2.355-2.355
									C206.525,50.567,206.706,54.371,203.445,54.734z"/>
								<path fill="#BEE1AD" d="M135.511,131.726l2.355-4.529c-0.906-0.543-1.449,1.087-1.812-4.348c0-2.355,0-4.71,0.181-6.884
									h2.355l-1.087-3.08l-3.261-6.341c0,0.181-0.181,0.181-0.181,0.362l-1.63,4.529c-0.906,2.174-1.812,1.268-1.63,3.08
									c0.181,3.804,2.174-2.717,2.174,8.877C132.974,129.19,133.518,128.103,135.511,131.726z"/>
								<path fill="#BEE1AD" d="M123.011,123.574c0.362,3.623,1.449,5.435,3.442,7.428c1.087-2.899,0.543-0.362,1.449-2.355
									c0.362-1.268,0.543-2.174,0.362-3.442c-0.543-3.623-1.993-3.623-4.891-4.167L123.011,123.574z"/>
								<path fill="#BEE1AD" d="M137.866,127.197l1.63-9.058l-0.906-2.174h-2.355c-0.181,2.174-0.181,4.529-0.181,6.884
									C136.417,128.284,136.96,126.654,137.866,127.197z"/>
							</g>
							<g>
								<path fill="#D7CDAC" d="M94.75,83.176c3.08-11.051-4.529-19.384-12.5-21.739c-22.464-6.341-31.703,27.536-9.964,34.058
									C83.518,98.936,92.395,91.871,94.75,83.176z"/>
								<path fill="#D7CDAC" d="M97.286,67.415l1.449,4.71c6.884-1.449,15.399-5.254,22.283-7.79
									c12.138-4.529,45.652-15.942,54.891-19.928c1.993-0.906,2.899-1.812,4.71-2.717c1.812-0.906,3.623-1.63,5.435-2.355
									c-3.804-1.812-7.428-3.08-11.413-4.348c-6.522-2.355-5.797-2.174-11.594,0.906l-43.478,20.833
									C113.047,60.168,104.351,64.878,97.286,67.415z"/>
								<path fill="#D7CDAC" d="M-6.337,48.755c1.087,1.087,57.971,22.645,62.681,23.37l1.63-4.71
									c-7.065-2.536-38.043-18.116-48.188-23.188c-3.986-1.993-4.348-1.812-8.696,0.362C-1.446,45.857-4.344,46.944-6.337,48.755z
									"/>
								<path fill="#D7CDAC" d="M91.851,60.712l3.08,3.623c3.986-2.717,6.703-5.978,10.87-9.42l15.761-14.13
									c2.174-1.812,3.08-3.261,5.254-5.254c2.355-2.174,9.239-6.884,9.964-9.601l-12.681-1.63
									C120.475,29.915,98.011,53.284,91.851,60.712z"/>
								<path fill="#D7CDAC" d="M100.004,76.11v4.891c2.717,0.725,38.225,3.08,41.667,0.906c2.717-1.812,6.159-5.254,7.609-8.152
									L100.004,76.11z"/>
								<path fill="#D7CDAC" d="M27.359,34.081l32.609,30.254c1.268-1.087,2.536-2.355,3.623-3.623L37.504,31.545
									C33.88,31.545,30.62,32.813,27.359,34.081z"/>
								<path fill="#D7CDAC" d="M84.062,57.632l4.167,1.087c2.717-3.986,15.942-32.246,16.667-35.507h-9.239
									C93.482,32.632,84.786,49.48,84.062,57.632z"/>
								<path fill="#D7CDAC" d="M52.54,27.56c0.362,2.899,12.138,27.717,14.13,30.978l4.529-1.268
									c-1.268-5.072-3.623-10.326-5.254-15.217L60.33,26.654L52.54,27.56z"/>
								<polygon fill="#D7CDAC" points="75.004,56.183 80.076,56.183 81.706,23.936 73.917,24.48 								"/>
								<path fill="#D7CDAC" d="M112.504,97.125c3.623,1.812,4.71,3.261,9.239,2.174c2.536-0.543,6.703-1.268,8.152-2.899
									L98.735,84.987l-1.268,4.167C100.185,91.871,108.337,94.951,112.504,97.125z"/>
								<path fill="#D7CDAC" d="M54.895,81.183l0.362-5.072l-36.232-1.993c4.71,1.993,10.326,4.167,15.399,6.159
									C40.946,82.813,47.286,81.726,54.895,81.183z"/>
								<path fill="#D7CDAC" d="M91.851,95.857c0,0,1.63,2.536,1.812,2.899l5.978,6.522l6.522-1.993
									c-2.536-3.08-8.152-8.514-11.232-10.507L91.851,95.857z"/>
								<path fill="#D7CDAC" d="M84.062,100.386c1.087,1.63-0.725,2.717,7.971,5.978c-0.725-2.355-2.536-6.341-3.804-8.152
									L84.062,100.386z"/>
								<path fill="#D7CDAC" d="M50.909,86.98l6.703,2.717l-1.268-4.71C53.989,85.349,52.54,85.712,50.909,86.98z"/>
							</g>
						</g>
					</g>
				</g>
			</g>
			<use xlink:href="#SVGID_2358_"  overflow="visible" fill="none" stroke="#95846F" stroke-miterlimit="10"/>
		</g>
	</g>
	<text transform="matrix(1 0 0 1 309.395 95.2606)"><tspan x="0" y="0" font-family="'Roboto-Regular'" font-size="18">Agriculture and </tspan><tspan x="0" y="25" font-family="'Roboto-Regular'" font-size="18">Allied Activities</tspan></text>
	<g>
		<g>
			<defs>
				<polygon id="SVGID_2368_" points="0.5,-281.5 0.5,-77.5 178.502,-77.5 234.018,-281.5 				"/>
			</defs>
			<clipPath id="SVGID_19_">
				<use xlink:href="#SVGID_2368_"  overflow="visible"/>
			</clipPath>
			<g clip-path="url(#SVGID_19_)">
				<g>
					<defs>
						<polygon id="SVGID_2370_" points="-148,-469 -148,5 150.519,5 262.224,-469 						"/>
					</defs>
					<clipPath id="SVGID_20_">
						<use xlink:href="#SVGID_2370_"  overflow="visible"/>
					</clipPath>
				</g>
			</g>
			<use xlink:href="#SVGID_2368_"  overflow="visible" fill="none" stroke="#95846F" stroke-miterlimit="10"/>
		</g>
	</g>
</g>
<g id="Layer_2">
</g>
</svg>
