<?xml version="1.0" encoding="utf-8"?>
<!-- Generator: Adobe Illustrator 17.0.0, SVG Export Plug-In . SVG Version: 6.00 Build 0)  -->
<!DOCTYPE svg PUBLIC "-//W3C//DTD SVG 1.1//EN" "http://www.w3.org/Graphics/SVG/1.1/DTD/svg11.dtd">
<svg version="1.1" id="Layer_1" xmlns="http://www.w3.org/2000/svg" xmlns:xlink="http://www.w3.org/1999/xlink" x="0px" y="0px"
	 width="581.238px" height="253.981px" viewBox="0 0 581.238 253.981" enable-background="new 0 0 581.238 253.981"
	 xml:space="preserve">
<rect x="73.289" y="40.691" fill="#FFFFFF" width="428" height="168"/>
<g>
	<defs>
		<polygon id="SVGID_22_" points="-590.711,-280.309 -590.711,-76.309 -407.923,-76.309 -353.486,-280.309 		"/>
	</defs>
	<clipPath id="SVGID_2_">
		<use xlink:href="#SVGID_22_"  overflow="visible"/>
	</clipPath>
	<g clip-path="url(#SVGID_2_)">
	</g>
</g>
<g>
	<defs>
		<polygon id="SVGID_2078_" points="-591.217,18.93 -591.217,224.411 -412.041,224.411 -356.623,19.888 		"/>
	</defs>
	<clipPath id="SVGID_4_">
		<use xlink:href="#SVGID_2078_"  overflow="visible"/>
	</clipPath>
	<g clip-path="url(#SVGID_4_)">
		<defs>
			<rect id="SVGID_2080_" x="-712.695" y="-1844.685" width="1923.24" height="3789.385"/>
		</defs>
		<clipPath id="SVGID_6_">
			<use xlink:href="#SVGID_2080_"  overflow="visible"/>
		</clipPath>
	</g>
</g>
<g>
	<g>
		<polygon opacity="0.3" fill="#7E6B71" points="218.348,40.691 178.711,208.691 337.754,208.691 375.31,40.691 		"/>
		<polygon opacity="0.2" fill="#7E6B71" points="73.289,40.691 73.289,208.691 178.711,208.691 218.348,40.691 		"/>
		<g>
			<defs>
				<polygon id="SVGID_2484_" points="73.289,40.691 73.289,208.691 178.711,208.691 218.348,40.691 				"/>
			</defs>
			<clipPath id="SVGID_8_">
				<use xlink:href="#SVGID_2484_"  overflow="visible"/>
			</clipPath>
			<path clip-path="url(#SVGID_8_)" fill="none" stroke="#7E6B71" stroke-width="3" stroke-miterlimit="10" d="M59.105,178.176
				c0,0,35.808-57.166,146.999-27.641"/>
			<path clip-path="url(#SVGID_8_)" fill="none" stroke="#7E6B71" stroke-width="3" stroke-miterlimit="10" d="M62.139,184.243
				c0,0,35.808-57.166,146.999-27.641"/>
			<path opacity="0.7" clip-path="url(#SVGID_8_)" fill="none" stroke="#7E6B71" stroke-width="3" stroke-miterlimit="10" d="
				M63.655,191.826c0,0,35.808-57.166,146.999-27.641"/>
			<path opacity="0.7" clip-path="url(#SVGID_8_)" fill="none" stroke="#7E6B71" stroke-width="3" stroke-miterlimit="10" d="
				M63.655,200.927c0,0,35.808-57.166,146.999-27.641"/>
			<path opacity="0.5" clip-path="url(#SVGID_8_)" fill="none" stroke="#7E6B71" stroke-width="3" stroke-miterlimit="10" d="
				M60.622,210.027c0,0,35.808-57.166,146.999-27.641"/>
			<path opacity="0.5" clip-path="url(#SVGID_8_)" fill="none" stroke="#7E6B71" stroke-width="3" stroke-miterlimit="10" d="
				M62.139,217.611c0,0,35.808-57.166,146.999-27.641"/>
			<path opacity="0.3" clip-path="url(#SVGID_8_)" fill="none" stroke="#7E6B71" stroke-width="3" stroke-miterlimit="10" d="
				M63.655,225.194c0,0,35.808-57.166,146.999-27.641"/>
			<path opacity="0.3" clip-path="url(#SVGID_8_)" fill="none" stroke="#7E6B71" stroke-width="3" stroke-miterlimit="10" d="
				M65.172,232.778c0,0,35.808-57.166,146.999-27.641"/>
			<path opacity="0.3" clip-path="url(#SVGID_8_)" fill="none" stroke="#7E6B71" stroke-width="3" stroke-miterlimit="10" d="
				M66.689,240.362c0,0,35.808-57.166,146.999-27.641"/>
		</g>
		<circle opacity="0.4" fill="#7E6B71" cx="180.852" cy="65.31" r="9.136"/>
		<g>
			<defs>
				<polygon id="SVGID_2486_" points="218.348,40.691 178.711,208.691 337.754,208.691 375.31,40.691 				"/>
			</defs>
			<clipPath id="SVGID_10_">
				<use xlink:href="#SVGID_2486_"  overflow="visible"/>
			</clipPath>
			<g opacity="0.4" clip-path="url(#SVGID_10_)">
				<rect x="47.289" y="105.691" fill="#7E6B71" width="14" height="29"/>
				<rect x="38.289" y="134.691" fill="#7E6B71" width="46" height="21"/>
				<rect x="71.289" y="105.691" fill="#7E6B71" width="8" height="29"/>
				<polygon fill="#7E6B71" points="38.289,155.691 38.289,181.691 167.289,181.691 167.289,170.691 156.289,170.691 
					156.289,163.691 97.289,163.691 97.289,155.691 				"/>
				<polygon fill="#7E6B71" points="117.189,90.691 113.995,163.691 130.211,163.691 125.972,90.691 				"/>
				<polygon fill="#7E6B71" points="136.576,90.691 133.035,163.691 148.408,163.691 145.319,90.691 				"/>
				<path fill="#7E6B71" d="M139.098,86.579c0,0,2.646-6.616,7.277-6.616c0,0,1.489-4.796,6.616-2.812c0,0,6.12-3.473,8.435,0.331
					c0,0,4.3-2.977,5.789-0.992c0,0,3.97,4.466-1.819,5.458c0,0,0.496,5.293-5.458,4.631c0,0-2.977,4.466-8.27,1.489
					c0,0-0.992,3.535-6.781,1.023c0,0-1.819,1.172-3.473,0.901C139.759,89.721,139.098,86.579,139.098,86.579z"/>
				<path fill="#7E6B71" d="M117.755,87.623c0,0,1.846-4.615,5.077-4.615c0,0,1.038-3.346,4.615-1.961c0,0,4.269-2.423,5.884,0.231
					c0,0,3-2.077,4.038-0.692c0,0,2.769,3.115-1.269,3.807c0,0,0.346,3.692-3.807,3.231c0,0-2.077,3.115-5.769,1.038
					c0,0-0.692,2.466-4.73,0.714c0,0-1.269,0.818-2.423,0.629C118.217,89.815,117.755,87.623,117.755,87.623z"/>
				<rect x="388.289" y="105.691" fill="#7E6B71" width="13" height="29"/>
				<rect x="411.289" y="105.691" fill="#7E6B71" width="8" height="29"/>
				<rect x="381.289" y="134.691" fill="#7E6B71" width="44" height="21"/>
				<polygon fill="#7E6B71" points="381.289,155.691 381.289,181.691 508.289,181.691 508.289,170.691 499.289,170.691 
					499.289,163.691 437.289,163.691 437.289,155.691 				"/>
				<polygon fill="#7E6B71" points="458.449,90.691 455.254,163.691 471.471,163.691 467.231,90.691 				"/>
				<polygon fill="#7E6B71" points="477.835,90.691 474.295,163.691 489.668,163.691 486.579,90.691 				"/>
				<path fill="#7E6B71" d="M480.358,86.579c0,0,2.646-6.616,7.277-6.616c0,0,1.489-4.796,6.616-2.812c0,0,6.12-3.473,8.435,0.331
					c0,0,4.3-2.977,5.789-0.992c0,0,3.97,4.466-1.819,5.458c0,0,0.496,5.293-5.458,4.631c0,0-2.977,4.466-8.27,1.489
					c0,0-0.992,3.535-6.781,1.023c0,0-1.819,1.172-3.473,0.901C481.019,89.721,480.358,86.579,480.358,86.579z"/>
				<path fill="#7E6B71" d="M459.015,87.623c0,0,1.846-4.615,5.077-4.615c0,0,1.038-3.346,4.615-1.961c0,0,4.269-2.423,5.884,0.231
					c0,0,3-2.077,4.038-0.692c0,0,2.769,3.115-1.269,3.807c0,0,0.346,3.692-3.807,3.231c0,0-2.077,3.115-5.769,1.038
					c0,0-0.692,2.466-4.73,0.714c0,0-1.269,0.818-2.423,0.629S459.015,87.623,459.015,87.623z"/>
				<polygon fill="#7E6B71" points="137.289,155.691 137.289,181.691 263.289,181.691 263.289,170.691 252.289,170.691 
					252.289,163.691 193.289,163.691 193.289,155.691 				"/>
				<polygon opacity="0.6" fill="#7E6B71" points="213.23,90.691 210.035,163.691 226.252,163.691 222.012,90.691 				"/>
				<polygon opacity="0.6" fill="#7E6B71" points="232.616,90.691 229.076,163.691 244.449,163.691 241.36,90.691 				"/>
				<path opacity="0.6" fill="#7E6B71" d="M235.139,86.579c0,0,2.646-6.616,7.277-6.616c0,0,1.489-4.796,6.616-2.812
					c0,0,6.12-3.473,8.435,0.331c0,0,4.3-2.977,5.789-0.992c0,0,3.97,4.466-1.819,5.458c0,0,0.496,5.293-5.458,4.631
					c0,0-2.977,4.466-8.27,1.489c0,0-0.992,3.535-6.781,1.023c0,0-1.819,1.172-3.473,0.901
					C235.8,89.721,235.139,86.579,235.139,86.579z"/>
				<path opacity="0.6" fill="#7E6B71" d="M213.796,87.623c0,0,1.846-4.615,5.077-4.615c0,0,1.038-3.346,4.615-1.961
					c0,0,4.269-2.423,5.884,0.231c0,0,3-2.077,4.038-0.692c0,0,2.769,3.115-1.269,3.807c0,0,0.346,3.692-3.807,3.231
					c0,0-2.077,3.115-5.769,1.038c0,0-0.692,2.466-4.73,0.714c0,0-1.269,0.818-2.423,0.629
					C214.258,89.815,213.796,87.623,213.796,87.623z"/>
				<polygon fill="#7E6B71" points="269.721,104.691 255.962,181.691 315.554,181.691 300.545,104.691 				"/>
				<polygon opacity="0.6" fill="#7E6B71" points="287.764,110.691 395.289,110.691 395.289,122.691 381.289,122.691 
					381.289,181.691 298.126,181.691 				"/>
				<rect x="363.289" y="90.691" fill="#7E6B71" width="18" height="20"/>
			</g>
		</g>
		<g>
			<defs>
				<polygon id="SVGID_2488_" points="218.348,40.691 178.711,208.691 337.754,208.691 375.31,40.691 				"/>
			</defs>
			<clipPath id="SVGID_12_">
				<use xlink:href="#SVGID_2488_"  overflow="visible"/>
			</clipPath>
		</g>
		<g>
			<defs>
				<polygon id="SVGID_2490_" points="218.348,40.691 178.711,208.691 337.754,208.691 375.31,40.691 				"/>
			</defs>
			<clipPath id="SVGID_14_">
				<use xlink:href="#SVGID_2490_"  overflow="visible"/>
			</clipPath>
		</g>
		<g>
			<defs>
				<polygon id="SVGID_2492_" points="218.348,40.691 178.711,208.691 337.754,208.691 375.31,40.691 				"/>
			</defs>
			<clipPath id="SVGID_16_">
				<use xlink:href="#SVGID_2492_"  overflow="visible"/>
			</clipPath>
			
				<line clip-path="url(#SVGID_16_)" fill="none" stroke="#7E6B71" stroke-width="2" stroke-miterlimit="10" x1="170.289" y1="184.691" x2="351.289" y2="184.691"/>
			
				<line clip-path="url(#SVGID_16_)" fill="none" stroke="#7E6B71" stroke-width="2" stroke-miterlimit="10" x1="170.289" y1="189.691" x2="351.289" y2="189.691"/>
			
				<line opacity="0.7" clip-path="url(#SVGID_16_)" fill="none" stroke="#7E6B71" stroke-width="2" stroke-miterlimit="10" x1="167.289" y1="193.691" x2="348.289" y2="193.691"/>
			
				<line opacity="0.7" clip-path="url(#SVGID_16_)" fill="none" stroke="#7E6B71" stroke-width="2" stroke-miterlimit="10" x1="164.289" y1="198.691" x2="344.289" y2="198.691"/>
			
				<line opacity="0.5" clip-path="url(#SVGID_16_)" fill="none" stroke="#7E6B71" stroke-width="2" stroke-miterlimit="10" x1="164.289" y1="202.691" x2="344.289" y2="202.691"/>
			
				<line opacity="0.5" clip-path="url(#SVGID_16_)" fill="none" stroke="#7E6B71" stroke-width="2" stroke-miterlimit="10" x1="164.289" y1="207.691" x2="344.289" y2="207.691"/>
		</g>
		<g>
			<defs>
				<polygon id="SVGID_2494_" points="218.348,40.691 178.711,208.691 337.754,208.691 375.31,40.691 				"/>
			</defs>
			<clipPath id="SVGID_17_">
				<use xlink:href="#SVGID_2494_"  overflow="visible"/>
			</clipPath>
			<g clip-path="url(#SVGID_17_)">
				<path fill="#7E6B71" d="M252.079,129.269c0.254,0,0.508-0.254,0.508-0.593c0-0.254-0.339-0.508-0.593-0.508
					c-12.776,1.42-25.418,4.889-38.16,2.607v-7.365h9.566v2.624c0,0.254,0.254,0.508,0.508,0.508s0.508-0.254,0.508-0.508v-3.132
					v-0.085c0-0.254-0.169-0.423-0.339-0.508l0,0c0,0,0,0-0.085,0l-10.243-4.063l-1.524-7.111c0-0.254-0.254-0.423-0.423-0.423
					h-2.116c-0.254,0-0.423,0.169-0.508,0.423l-1.524,7.111l-10.327,4.148l0,0c0,0,0,0-0.085,0l-0.085,0.085c0,0,0,0,0,0.085
					l-0.085,0.085v0.085v0.085l0,0v3.217c0,0.254,0.254,0.508,0.508,0.508s0.508-0.254,0.508-0.508v-2.624h9.566v6.01
					c-3.301-0.847-6.603-1.778-9.904-2.878c0,0,0,0-0.085,0h-0.085h-0.085c0,0,0,0-0.085,0c-7.873,2.624-15.999,4.487-24.21,5.418
					c-0.254,0-0.508,0.254-0.508,0.593c0,0.254,0.254,0.508,0.508,0.508c0,0,0,0,0.085,0c8.296-0.931,16.422-2.794,24.295-5.418
					c3.301,1.1,6.687,2.032,10.074,2.878v0.508l-10.243,4.063l0,0c0,0,0,0-0.085,0l-0.085,0.085c0,0,0,0,0,0.085l-0.085,0.085v0.085
					v0.085l0,0v3.217c0,0.254,0.254,0.508,0.508,0.508s0.508-0.254,0.508-0.508v-2.624h9.566v6.01
					c-3.301-0.847-6.603-1.778-9.904-2.878c0,0,0,0-0.085,0h-0.085h-0.085c0,0,0,0-0.085,0c-7.873,2.624-15.999,4.487-24.21,5.418
					c-0.254,0-0.508,0.254-0.508,0.593c0,0.254,0.254,0.508,0.508,0.508c0,0,0,0,0.085,0c8.296-0.931,16.422-2.794,24.295-5.418
					c3.301,1.1,6.687,2.032,10.074,2.878v0.508l-10.243,4.063l0,0c0,0,0,0-0.085,0l-0.085,0.085c0,0,0,0,0,0.085l-0.085,0.085v0.085
					v0.085l0,0v3.217c0,0.254,0.254,0.508,0.508,0.508s0.508-0.254,0.508-0.508v-2.624h9.566v3.64l-0.847,2.286
					c-3.132-0.762-6.264-1.693-9.312-2.709c0,0,0,0-0.085,0h-0.085h-0.085c0,0,0,0-0.085,0c-7.873,2.624-15.999,4.487-24.21,5.418
					c-0.254,0-0.508,0.254-0.508,0.593c0,0.254,0.254,0.508,0.508,0.508c0,0,0,0,0.085,0c8.296-0.931,16.422-2.794,24.295-5.418
					c3.047,1.016,6.095,1.947,9.227,2.709l-0.254,0.847l-1.1,4.233l-0.508,2.116l-1.608,6.349l-4.233,16.93
					c-0.085,0.254,0.085,0.508,0.254,0.593c0.169,0.085,0.423,0.085,0.593-0.085l10.835-10.327l10.751,10.243
					c0.085,0.085,0.254,0.169,0.339,0.169l0,0c0.254,0,0.508-0.254,0.508-0.508c0-0.085,0-0.169-0.085-0.254l-4.233-16.846l0,0l0,0
					l-1.608-6.349l-0.508-2.116l-0.847-3.386c6.603,1.1,13.29-0.203,19.978-0.203c4.402,0,12.596-2.15,16.997-2.658
					c0.254,0,0.508-0.254,0.508-0.593c0-0.254-0.339-0.508-0.593-0.508c-11.089,1.27-26.14,4.638-37.144,2.776l-1.016-3.894v-3.555
					h9.65v2.624c0,0.254,0.254,0.508,0.508,0.508s0.508-0.254,0.508-0.508v-3.132v-0.085c0-0.254-0.169-0.423-0.339-0.508l0,0
					c0,0,0,0-0.085,0l-6.349-2.54c5.756,0.847,11.597-0.626,17.438-0.626c4.402,0,12.596-2.15,16.997-2.658
					c0.254,0,0.508-0.254,0.508-0.593c0-0.254-0.339-0.508-0.593-0.508c-11.428,1.27-26.817,4.638-38.16,2.607v-7.28h9.566v2.624
					c0,0.254,0.254,0.508,0.508,0.508s0.508-0.254,0.508-0.508v-3.132v-0.085c0-0.254-0.169-0.423-0.339-0.508l0,0c0,0,0,0-0.085,0
					l-6.349-2.54c5.756,0.847,11.597-0.626,17.438-0.626C239.568,131.927,247.762,129.777,252.079,129.269z M219.167,121.549
					l2.032,0.847h-2.032V121.549z M218.152,122.395h-2.032l2.032-0.847V122.395z M213.919,119.432l3.301,1.354l-3.301,1.354V119.432
					z M213.58,155.579l-1.862-1.27l1.354-0.931L213.58,155.579z M214.173,165.567l-2.116-1.947h3.047L214.173,165.567z
					 M216.205,168.953h-4.994v-4.571L216.205,168.953z M210.702,162.52l-3.555-1.524l3.555-1.778l3.555,1.778L210.702,162.52z
					 M210.194,164.298v4.571H205.2L210.194,164.298z M206.3,163.62h3.047l-2.116,1.947L206.3,163.62z M208.078,156.679l0.677-0.423
					c1.27,0.254,2.624,0.593,3.894,0.847l-1.947,0.931L208.078,156.679z M211.803,122.395h-2.286l1.1-0.931L211.803,122.395z
					 M209.602,119.178h2.286l-1.185,0.931L209.602,119.178z M211.803,123.411l-1.1,0.931l-1.1-0.931H211.803z M212.819,124.004
					v2.032l-1.27-1.016L212.819,124.004z M212.48,127.136l-1.778,1.439l-1.778-1.439l1.778-1.439L212.48,127.136z M212.819,128.236
					v2.032l-1.27-1.016L212.819,128.236z M210.702,129.929l0.423,0.339c-0.169-0.085-0.423-0.085-0.677-0.169L210.702,129.929z
					 M212.226,131.538l-1.524,1.27l-1.778-1.439l0.423-0.339C210.279,131.199,211.295,131.368,212.226,131.538z M212.819,132.469
					v2.032l-1.27-1.016L212.819,132.469z M211.803,135.093h-2.286l1.1-0.931L211.803,135.093z M212.819,136.701v2.032l-1.27-1.016
					L212.819,136.701z M211.803,136.109l-1.1,0.931l-1.1-0.931H211.803z M212.48,139.833l-1.778,1.439l-1.778-1.439l1.778-1.439
					L212.48,139.833z M212.819,140.934v2.032l-1.27-1.016L212.819,140.934z M210.702,142.627l0.423,0.339
					c-0.169-0.085-0.423-0.085-0.677-0.169L210.702,142.627z M212.226,144.235l-1.524,1.27l-1.778-1.439l0.423-0.339
					C210.279,143.897,211.295,144.066,212.226,144.235z M212.819,145.166v2.032l-1.27-1.016L212.819,145.166z M211.803,147.791
					h-2.286l1.1-0.931L211.803,147.791z M212.819,149.399v2.032l-1.27-1.016L212.819,149.399z M211.803,148.806l-1.1,0.931
					l-1.1-0.931H211.803z M211.803,152.023h-2.286l1.1-0.931L211.803,152.023z M211.633,153.039l-0.931,0.593l-0.931-0.593H211.633z
					 M212.141,155.833c-0.762-0.169-1.439-0.254-2.201-0.423l0.762-0.508L212.141,155.833z M212.819,121.803l-1.27-1.016l1.27-1.016
					V121.803z M211.633,113.168l0.423,1.947l-0.762-1.354L211.633,113.168z M211.126,111.814l-0.423,0.847l-0.423-0.847H211.126z
					 M209.771,113.168l0.339,0.593l-0.762,1.354L209.771,113.168z M210.702,114.861l1.778,3.301h-3.555L210.702,114.861z
					 M208.586,119.771l1.27,1.016l-1.27,1.016V119.771z M208.586,124.004l1.27,1.016l-1.27,1.016V124.004z M208.586,128.236
					l1.27,1.016l-0.762,0.593c-0.169,0-0.339-0.085-0.508-0.085V128.236z M208.586,132.469l1.27,1.016l-1.27,1.016V132.469z
					 M208.586,136.701l1.27,1.016l-1.27,1.016V136.701z M208.586,140.934l1.27,1.016l-0.762,0.593c-0.169,0-0.339-0.085-0.508-0.085
					V140.934z M208.586,145.166l1.27,1.016l-1.27,1.016V145.166z M208.586,149.399l1.27,1.016l-1.27,1.016V149.399z
					 M208.417,153.378l1.354,0.931l-1.185,0.847c-0.169,0-0.339-0.085-0.508-0.085L208.417,153.378z M202.237,122.395h-2.032
					l2.032-0.847V122.395z M203.338,122.395v-0.847l2.032,0.847H203.338z M204.184,120.787l3.301-1.354v2.709L204.184,120.787z
					 M202.237,135.093h-2.032l2.032-0.847V135.093z M203.338,135.093v-0.847l2.032,0.847H203.338z M204.184,133.485l3.301-1.354
					v2.709L204.184,133.485z M202.237,147.791h-2.032l2.032-0.847V147.791z M203.338,147.791v-0.847l2.032,0.847H203.338z
					 M204.184,146.182l3.301-1.354v2.709L204.184,146.182z M207.316,157.526l2.201,1.1l-2.793,1.354L207.316,157.526z
					 M206.3,161.673l1.947,0.847h-2.116L206.3,161.673z M205.539,164.636l0.593,1.1h-0.847L205.539,164.636z M205.031,166.837h0.847
					l-1.1,1.016L205.031,166.837z M204.099,170.393l1.778,1.693h-2.201L204.099,170.393z M203.422,173.186h1.778l-2.116,1.439
					L203.422,173.186z M207.062,173.186l2.286,2.116h-5.333L207.062,173.186z M200.544,184.699l1.947-7.873l2.878,3.217
					L200.544,184.699z M206.131,179.45l-2.709-3.132h6.01L206.131,179.45z M205.2,169.969h11.089l-5.587,5.079L205.2,169.969z
					 M214.342,173.186l3.132,2.116h-5.333L214.342,173.186z M212.057,176.318h6.01l-2.709,3.132L212.057,176.318z M220.86,184.699
					l-4.825-4.571l2.878-3.217L220.86,184.699z M218.321,174.625l-2.201-1.439h1.778L218.321,174.625z M217.728,172.086h-2.201
					l1.778-1.693L217.728,172.086z M216.628,167.853l-1.185-1.016h0.847L216.628,167.853z M216.12,165.737h-0.847l0.593-1.1
					L216.12,165.737z M215.104,161.673l0.254,0.847h-2.116L215.104,161.673z M214.088,157.526l0.593,2.455l-2.794-1.354
					L214.088,157.526z M219.167,146.944l2.032,0.847h-2.032V146.944z M218.152,146.944v0.847h-2.032L218.152,146.944z
					 M217.22,146.182l-3.301,1.354v-2.709L217.22,146.182z M213.919,132.13l3.301,1.354l-3.301,1.354V132.13z M219.167,134.246
					l2.032,0.847h-2.032V134.246z M218.152,134.246v0.847h-2.032L218.152,134.246z"/>
				<path fill="#7E6B71" d="M357.842,128.132c0.254,0,0.508-0.254,0.508-0.593c0-0.254-0.339-0.508-0.593-0.508
					c-11.428,1.27-57.152,0.847-68.495-1.185v-7.365h9.566v2.624c0,0.254,0.254,0.508,0.508,0.508c0.254,0,0.508-0.254,0.508-0.508
					v-3.132v-0.085c0-0.254-0.169-0.423-0.339-0.508l0,0c0,0,0,0-0.085,0l-10.243-4.063l-1.524-7.111
					c0-0.254-0.254-0.423-0.423-0.423h-2.116c-0.254,0-0.423,0.169-0.508,0.423l-1.524,7.111l-10.327,4.148l0,0c0,0,0,0-0.085,0
					l-0.085,0.085c0,0,0,0,0,0.085l-0.085,0.085v0.085v0.085l0,0v3.217c0,0.254,0.254,0.508,0.508,0.508
					c0.254,0,0.508-0.254,0.508-0.508v-2.624h9.566v6.01c-3.301-0.847-6.603-1.778-9.904-2.878c0,0,0,0-0.085,0h-0.085h-0.085
					c0,0,0,0-0.085,0c-7.873,2.624-15.999,6.003-24.21,6.934c-0.254,0-0.508,0.254-0.508,0.593c0,0.254,0.254,0.508,0.508,0.508
					c0,0,0,0,0.085,0c8.296-0.931,16.422-4.31,24.295-6.934c3.301,1.1,6.687,2.032,10.074,2.878v0.508l-10.243,4.063l0,0
					c0,0,0,0-0.085,0l-0.085,0.085c0,0,0,0,0,0.085l-0.085,0.085v0.085v0.085l0,0v3.217c0,0.254,0.254,0.508,0.508,0.508
					c0.254,0,0.508-0.254,0.508-0.508v-2.624h9.566v6.01c-3.301-0.847-6.603-1.778-9.904-2.878c0,0,0,0-0.085,0h-0.085h-0.085
					c0,0,0,0-0.085,0c-7.873,2.624-15.999,6.003-24.21,6.934c-0.254,0-0.508,0.254-0.508,0.593c0,0.254,0.254,0.508,0.508,0.508
					c0,0,0,0,0.085,0c8.296-0.931,16.422-4.31,24.295-6.934c3.301,1.1,6.687,2.032,10.074,2.878v0.508l-10.243,4.063l0,0
					c0,0,0,0-0.085,0l-0.085,0.085c0,0,0,0,0,0.085l-0.085,0.085v0.085v0.085l0,0v3.217c0,0.254,0.254,0.508,0.508,0.508
					c0.254,0,0.508-0.254,0.508-0.508v-2.624h9.566v3.64l-0.847,2.286c-3.132-0.762-6.264-1.693-9.312-2.709c0,0,0,0-0.085,0h-0.085
					h-0.085c0,0,0,0-0.085,0c-7.873,2.624-15.999,6.003-24.21,6.934c-0.254,0-0.508,0.254-0.508,0.593
					c0,0.254,0.254,0.508,0.508,0.508c0,0,0,0,0.085,0c8.296-0.931,16.422-4.31,24.295-6.934c3.047,1.016,6.095,1.947,9.227,2.709
					l-0.254,0.847l-1.1,4.233l-0.508,2.116l-1.608,6.349l-4.233,16.93c-0.085,0.254,0.085,0.508,0.254,0.593
					c0.169,0.085,0.423,0.085,0.593-0.085l10.835-10.327l10.751,10.243c0.085,0.085,0.254,0.169,0.339,0.169l0,0
					c0.254,0,0.508-0.254,0.508-0.508c0-0.085,0-0.169-0.085-0.254l-4.233-16.846l0,0l0,0l-1.608-6.349l-0.508-2.116l-0.846-3.386
					c6.603,1.1,13.29,1.693,19.978,1.693c4.402,0,42.93-0.254,47.332-0.762c0.254,0,0.508-0.254,0.508-0.593
					c0-0.254-0.339-0.508-0.593-0.508c-11.089,1.27-56.474,0.847-67.479-1.016l-1.016-3.894v-3.555h9.65v2.624
					c0,0.254,0.254,0.508,0.508,0.508c0.254,0,0.508-0.254,0.508-0.508v-3.132v-0.085c0-0.254-0.169-0.423-0.339-0.508l0,0
					c0,0,0,0-0.085,0l-6.349-2.54c5.756,0.847,11.597,1.27,17.438,1.27c4.402,0,42.93-0.254,47.332-0.762
					c0.254,0,0.508-0.254,0.508-0.593c0-0.254-0.339-0.508-0.593-0.508c-11.428,1.27-57.152,0.847-68.495-1.185v-7.28h9.566v2.624
					c0,0.254,0.254,0.508,0.508,0.508c0.254,0,0.508-0.254,0.508-0.508v-3.132v-0.085c0-0.254-0.169-0.423-0.339-0.508l0,0
					c0,0,0,0-0.085,0l-6.349-2.54c5.756,0.847,11.597,1.27,17.438,1.27C314.996,128.894,353.525,128.64,357.842,128.132z
					 M294.595,116.619l2.032,0.847h-2.032V116.619z M293.579,117.466h-2.032l2.032-0.847V117.466z M289.347,114.503l3.301,1.354
					l-3.301,1.354V114.503z M289.008,150.649l-1.862-1.27l1.354-0.931L289.008,150.649z M289.601,160.638l-2.116-1.947h3.047
					L289.601,160.638z M291.632,164.024h-4.994v-4.571L291.632,164.024z M286.13,157.591l-3.555-1.524l3.555-1.778l3.555,1.778
					L286.13,157.591z M285.622,159.368v4.571h-4.994L285.622,159.368z M281.728,158.691h3.047l-2.116,1.947L281.728,158.691z
					 M283.506,151.75l0.677-0.423c1.27,0.254,2.624,0.593,3.894,0.847l-1.947,0.931L283.506,151.75z M287.231,117.466h-2.286
					l1.1-0.931L287.231,117.466z M285.03,114.249h2.286l-1.185,0.931L285.03,114.249z M287.231,118.482l-1.1,0.931l-1.1-0.931
					H287.231z M288.246,119.074v2.032l-1.27-1.016L288.246,119.074z M287.908,122.206l-1.778,1.439l-1.778-1.439l1.778-1.439
					L287.908,122.206z M288.246,123.307v2.032l-1.27-1.016L288.246,123.307z M286.13,125l0.423,0.339
					c-0.169-0.085-0.423-0.085-0.677-0.169L286.13,125z M287.654,126.608l-1.524,1.27l-1.778-1.439l0.423-0.339
					C285.707,126.27,286.723,126.439,287.654,126.608z M288.246,127.539v2.032l-1.27-1.016L288.246,127.539z M287.231,130.164
					h-2.286l1.1-0.931L287.231,130.164z M288.246,131.772v2.032l-1.27-1.016L288.246,131.772z M287.231,131.179l-1.1,0.931
					l-1.1-0.931H287.231z M287.908,134.904l-1.778,1.439l-1.778-1.439l1.778-1.439L287.908,134.904z M288.246,136.004v2.032
					l-1.27-1.016L288.246,136.004z M286.13,137.698l0.423,0.339c-0.169-0.085-0.423-0.085-0.677-0.169L286.13,137.698z
					 M287.654,139.306l-1.524,1.27l-1.778-1.439l0.423-0.339C285.707,138.967,286.723,139.137,287.654,139.306z M288.246,140.237
					v2.032l-1.27-1.016L288.246,140.237z M287.231,142.861h-2.286l1.1-0.931L287.231,142.861z M288.246,144.47v2.032l-1.27-1.016
					L288.246,144.47z M287.231,143.877l-1.1,0.931l-1.1-0.931H287.231z M287.231,147.094h-2.286l1.1-0.931L287.231,147.094z
					 M287.061,148.11l-0.931,0.593l-0.931-0.593H287.061z M287.569,150.903c-0.762-0.169-1.439-0.254-2.201-0.423l0.762-0.508
					L287.569,150.903z M288.246,116.873l-1.27-1.016l1.27-1.016V116.873z M287.061,108.239l0.423,1.947l-0.762-1.354
					L287.061,108.239z M286.553,106.884l-0.423,0.847l-0.423-0.847H286.553z M285.199,108.239l0.339,0.593l-0.762,1.354
					L285.199,108.239z M286.13,109.932l1.778,3.301h-3.555L286.13,109.932z M284.014,114.842l1.27,1.016l-1.27,1.016V114.842z
					 M284.014,119.074l1.27,1.016l-1.27,1.016V119.074z M284.014,123.307l1.27,1.016l-0.762,0.593c-0.169,0-0.339-0.085-0.508-0.085
					V123.307z M284.014,127.539l1.27,1.016l-1.27,1.016V127.539z M284.014,131.772l1.27,1.016l-1.27,1.016V131.772z
					 M284.014,136.004l1.27,1.016l-0.762,0.593c-0.169,0-0.339-0.085-0.508-0.085V136.004z M284.014,140.237l1.27,1.016l-1.27,1.016
					V140.237z M284.014,144.47l1.27,1.016l-1.27,1.016V144.47z M283.845,148.448l1.354,0.931l-1.185,0.847
					c-0.169,0-0.339-0.085-0.508-0.085L283.845,148.448z M277.665,117.466h-2.032l2.032-0.847V117.466z M278.765,117.466v-0.847
					l2.032,0.847H278.765z M279.612,115.857l3.301-1.354v2.709L279.612,115.857z M277.665,130.164h-2.032l2.032-0.847V130.164z
					 M278.765,130.164v-0.847l2.032,0.847H278.765z M279.612,128.555l3.301-1.354v2.709L279.612,128.555z M277.665,142.861h-2.032
					l2.032-0.847V142.861z M278.765,142.861v-0.847l2.032,0.847H278.765z M279.612,141.253l3.301-1.354v2.709L279.612,141.253z
					 M282.744,152.596l2.201,1.1l-2.793,1.354L282.744,152.596z M281.728,156.744l1.947,0.847h-2.116L281.728,156.744z
					 M280.966,159.707l0.593,1.1h-0.847L280.966,159.707z M280.458,161.908h0.847l-1.1,1.016L280.458,161.908z M279.527,165.463
					l1.778,1.693h-2.201L279.527,165.463z M278.85,168.257h1.778l-2.116,1.439L278.85,168.257z M282.49,168.257l2.286,2.116h-5.333
					L282.49,168.257z M275.972,179.769l1.947-7.873l2.878,3.217L275.972,179.769z M281.559,174.521l-2.709-3.132h6.01
					L281.559,174.521z M280.628,165.04h11.089l-5.587,5.079L280.628,165.04z M289.77,168.257l3.132,2.116h-5.333L289.77,168.257z
					 M287.485,171.389h6.01l-2.709,3.132L287.485,171.389z M296.288,179.769l-4.825-4.571l2.878-3.217L296.288,179.769z
					 M293.749,169.696l-2.201-1.439h1.778L293.749,169.696z M293.156,167.156h-2.201l1.778-1.693L293.156,167.156z M292.056,162.924
					l-1.185-1.016h0.846L292.056,162.924z M291.548,160.807h-0.847l0.593-1.1L291.548,160.807z M290.532,156.744l0.254,0.847h-2.116
					L290.532,156.744z M289.516,152.596l0.593,2.455l-2.793-1.354L289.516,152.596z M294.595,142.015l2.032,0.847h-2.032V142.015z
					 M293.579,142.015v0.847h-2.032L293.579,142.015z M292.648,141.253l-3.301,1.354v-2.709L292.648,141.253z M289.347,127.201
					l3.301,1.354l-3.301,1.354V127.201z M294.595,129.317l2.032,0.847h-2.032V129.317z M293.579,129.317v0.847h-2.032
					L293.579,129.317z"/>
			</g>
		</g>
		<g>
			<defs>
				<polygon id="SVGID_2496_" points="501.289,40.691 375.31,40.691 337.754,208.691 501.289,208.691 				"/>
			</defs>
			<clipPath id="SVGID_19_">
				<use xlink:href="#SVGID_2496_"  overflow="visible"/>
			</clipPath>
			<path opacity="0.2" clip-path="url(#SVGID_19_)" fill="#7E6B71" d="M534.241,198.883c0,40.65-44.511,73.604-99.418,73.604
				s-120.137-23.276-111.372-62.97c10.614-48.069,56.814-69.229,111.721-69.229S534.241,158.232,534.241,198.883z"/>
		</g>
		<g>
			<defs>
				<polygon id="SVGID_2498_" points="501.289,40.691 375.31,40.691 337.754,208.691 501.289,208.691 				"/>
			</defs>
			<clipPath id="SVGID_21_">
				<use xlink:href="#SVGID_2498_"  overflow="visible"/>
			</clipPath>
			<polygon opacity="0.4" clip-path="url(#SVGID_21_)" fill="#7E6B71" points="501.289,40.691 375.31,40.691 337.754,208.691 
				501.289,208.691 			"/>
		</g>
		<g>
			<defs>
				<polygon id="SVGID_2500_" points="501.289,40.691 375.31,40.691 337.754,208.691 501.289,208.691 				"/>
			</defs>
			<clipPath id="SVGID_23_">
				<use xlink:href="#SVGID_2500_"  overflow="visible"/>
			</clipPath>
			<path clip-path="url(#SVGID_23_)" fill="#7E6B71" d="M401.554,159.427l-1.297-4.753c0,0,1.707-6.062,0.011-6.45
				c0,0-2.819-16.995-2.726-55.008c0,0,1.418-8.497,0.003-19.746c0,0,0.094,1.182,4.052-3.473c0,0,9.613-3.87,11.687-3.482
				s7.163,0.338,12.063-0.023c0,0,9.424-3.461,10.367-7.34c0,0-13.382,10.474-21.487,4.656c0,0-7.916,1.94-10.555,1.94
				c0,0,9.801-6.594,14.325-6.594l6.031,3.879l2.073-0.776c0,0-6.974-6.206-7.539-4.655c0,0-14.325,0-17.152,4.655
				c0,0-3.581-0.776-2.073-25.213c0,0,2.639-1.939,4.712-4.655l-0.377-2.327c0,0-4.147,0.684-5.089-3.195
				c0,0-2.071-3.177-1.035-10.177h-3.292l-0.95,7.198c0,0-2.594-0.901-2.783-6.083c0,0-3.233-0.584-5.233-3.085v7.065
				c0,0,3.393,2.459,3.393,4.786s-2.777,2.715-6.547-1.552l-0.729,2.715c0,0,8.494,4.655,8.871,14.352c0,0-0.182,17.455-0.748,20.17
				c-0.181-0.212-9.52-4.394-9.232-4.267c0,0-3.391-2.715-6.218-10.085l0.755,6.8c0,0,1.508,3.673,3.205,5.224
				c0,0-3.958,1.552-6.408-1.552c0,0,0.566,5.818,5.843,5.818c0,0,11.309-2.327,11.309,8.533c0,0,0,23.273,0.377,34.134
				c0,0,0.014,42.835-2.009,53.556l-1.296,8.077l17.818-4.638L401.554,159.427z"/>
			<path opacity="0.8" clip-path="url(#SVGID_23_)" fill="#7E6B71" d="M388.909,162.866l-1.012-4.753c0,0,1.332-6.062,0.009-6.45
				c0,0-2.199-16.995-2.127-55.008c0,0,1.106-8.497,0.002-19.746c0,0,0.074,1.182,3.162-3.473c0,0,7.5-3.87,9.117-3.482
				c1.617,0.388,5.588,0.338,9.411-0.023c0,0,7.352-3.461,8.088-7.34c0,0-10.44,10.474-16.763,4.656c0,0-6.176,1.94-8.235,1.94
				c0,0,7.646-6.594,11.176-6.594l4.705,3.879l1.617-0.776c0,0-5.441-6.206-5.882-4.655c0,0-11.176,0-13.381,4.655
				c0,0-2.794-0.776-1.617-25.213c0,0,2.059-1.939,3.676-4.655l-0.294-2.327c0,0-3.235,0.964-3.97-2.915
				c0,0-1.615-3.897-0.808-9.897h-2.569l-0.741,6.918c0,0-1.989-1.042-2.136-6.223c0,0-2.048-0.725-4.048-3.225v7.065
				c0,0,2.612,2.459,2.612,4.786s-2.184,2.715-5.125-1.552l-0.577,2.715c0,0,6.622,4.655,6.917,14.352c0,0-0.144,17.455-0.585,20.17
				c-0.142-0.212-7.428-4.394-7.204-4.267c0,0-2.646-2.715-4.852-10.085l0.589,6.8c0,0,1.177,3.673,2.5,5.224
				c0,0-3.088,1.552-4.999-1.552c0,0,0.441,5.818,4.558,5.818c0,0,8.823-2.327,8.823,8.533c0,0,0,23.273,0.294,34.134
				c0,0,0.011,42.835-1.568,53.556l-1.011,8.077l13.901-4.638L388.909,162.866z"/>
			<path clip-path="url(#SVGID_23_)" fill="#7E6B71" d="M410.339,151.305l1.297-5.441c0,0-1.707-6.913-0.011-7.354
				c0,0,2.819-19.342,2.726-62.586c0,0-1.418-9.671-0.003-22.468c0,0-0.094,1.342-4.052-3.953c0,0-9.613-4.403-11.687-3.962
				s-7.163,0.384-12.063-0.026c0,0-9.424-3.938-10.367-8.351c0,0,13.382,11.915,21.487,5.296c0,0,7.916,2.207,10.555,2.207
				c0,0-9.801-7.501-14.325-7.501l-3.012,0.821l-5.093,2.709c0,0,6.974-7.06,7.539-5.295c0,0,14.325,0,17.152,5.295
				c0,0,3.581-0.883,2.073-28.682c0,0-2.639-2.206-4.712-5.295l0.377-2.648c0,0,4.147,0.694,5.089-3.719
				c0,0,2.071-3.662,1.035-11.662h3.292l0.95,8.273c0,0,2.437-0.983,2.625-6.878c0,0,4.076-0.623,5.076-3.468v8.037
				c0,0-3.235,2.797-3.235,5.445s2.856,3.089,6.626-1.765l0.768,3.089c0,0-8.474,5.295-8.851,16.327c0,0,0.192,19.857,0.757,22.946
				c0.181-0.241,18.625-8.911,18.338-8.766c0,0,3.394-3.089,6.221-11.473l-0.753,7.736c0,0-1.508,4.178-3.204,5.943
				c0,0,3.958,1.765,6.409-1.765c0,0-0.565,6.619-5.843,6.619c0,0-20.409,1.265-20.409,13.62c0,0,0,26.476-0.377,38.832
				c0,0-0.014,48.796,2.009,60.993l1.296,9.255h-17.818L410.339,151.305z"/>
			<g clip-path="url(#SVGID_23_)">
				<path fill="#A39197" d="M451.587,37.639c0,0,7.916,1.997,10.555,1.997c0,0-9.801-6.788-14.325-6.788l-6.031,3.993l-2.073-0.799
					c0,0,6.974-6.389,7.539-4.792c0,0,14.325,0,17.152,4.792c0,0,3.581-0.799,2.073-25.956c0,0-2.639-1.997-4.712-4.792l0.377-2.396
					c0,0,4.147,0.483,5.089-3.51c0,0,2.071-2.698,1.035-10.698h3.292l0.95,7.631c0,0,2.976-0.818,3.165-6.152
					c0,0,3.615-0.491,5.615-3.066v7.273c0,0-3.775,2.532-3.775,4.928S480.1,2.1,483.87-2.293l0.633,2.795
					c0,0-8.542,4.792-8.919,14.775c0,0,0.158,17.97,0.724,20.765c0.181-0.218,9.508-4.524,9.221-4.393c0,0,3.385-2.795,6.212-10.382
					l-0.758,7.001c0,0-1.51,3.781-3.206,5.378c0,0,3.957,1.597,6.407-1.597c0,0-0.566,5.99-5.843,5.99
					c0,0-11.309-2.396-11.309,8.785c0,0,0,8.626-0.082,17.941c0.001-0.001,7.024-6.28,20.721-2.855l2.592,1.513
					c-1.221-0.634-3.441-1.793-8.241-1.513c0,0-12.734-0.194-13.734,10.275v-0.014c0,3.663-0.832,7.101-0.923,9.794
					c0,0-0.37,44.098,1.654,55.136l1.118,8.315l-19.034-4.47l3.2-4.869l1.275-4.894c0,0-1.719-6.241-0.022-6.64
					c0,0,2.814-17.496,2.721-56.63c0,0-1.42-8.748-0.005-20.329c0,0-0.096,1.217-4.054-3.575c0,0-9.614-3.984-11.687-3.584
					c-2.073,0.399-7.163,0.348-12.063-0.024c0,0-9.425-3.563-10.367-7.557C430.1,32.846,443.482,43.629,451.587,37.639z"/>
				<path fill="#A39197" d="M465.238,45.222c0,0,7.916,1.997,10.555,1.997c0,0-9.801-6.788-14.325-6.788l-6.031,3.993l-2.073-0.799
					c0,0,6.974-6.389,7.539-4.792c0,0,14.325,0,17.152,4.792c0,0,3.581-0.799,2.073-25.956c0,0-2.639-1.997-4.712-4.792l0.377-2.396
					c0,0,4.147,0.692,5.089-3.302c0,0,2.07-2.489,1.035-10.489h3.292l0.95,7.423c0,0,3.151-0.922,3.34-6.256
					c0,0,3.79-0.595,5.79-3.17v7.273c0,0-3.949,2.532-3.949,4.928s2.499,2.795,6.268-1.597l0.59,2.795c0,0-8.564,4.792-8.941,14.775
					c0,0,0.147,17.97,0.713,20.765c0.181-0.218,9.503-4.524,9.215-4.393c0,0,3.382-2.795,6.21-10.382l-0.759,7.001
					c0,0-1.51,3.781-3.207,5.378c0,0,3.957,1.597,6.407-1.597c0,0-0.566,5.99-5.844,5.99c0,0-11.309-2.396-11.309,8.785
					c0,0,0,8.626-0.082,17.941c0.001-0.001,7.024-6.28,20.721-2.855l2.592,1.513c-1.221-0.634-3.266-1.793-8.066-1.513
					c0,0-12.559-0.194-13.559,10.275v-0.014c0,3.663-1.007,7.101-1.097,9.794c0,0-0.457,44.098,1.566,55.136l1.075,8.315
					l-19.056-4.47l3.189-4.869l1.27-4.894c0,0-1.721-6.241-0.025-6.64c0,0,2.812-17.496,2.719-56.63c0,0-1.421-8.748-0.006-20.329
					c0,0-0.096,1.217-4.054-3.575c0,0-9.614-3.984-11.687-3.584c-2.073,0.399-7.163,0.348-12.064-0.024
					c0,0-9.425-3.563-10.367-7.557C443.751,40.429,457.133,51.212,465.238,45.222z"/>
				<path fill="#A39197" d="M500.264,63.423c0.438,0.227,0.669,0.391,0.669,0.391L500.264,63.423z"/>
			</g>
			<g opacity="0.8" clip-path="url(#SVGID_23_)">
				<path fill="#7E6B71" d="M445.181,63.606c0,0,0,9.779-0.082,20.339"/>
				<path fill="#7E6B71" d="M446.331,173.562l-13,0.591l-0.893-9.364l1.282-5.548c0,0-1.715-7.075-0.019-7.527
					c0,0,2.815-19.834,2.722-64.199c0,0-1.419-9.917-0.004-23.046c0,0-0.095,1.379-4.053-4.053c0,0-9.614-4.516-11.687-4.063
					c-2.073,0.453-7.163,0.394-12.063-0.027c0,0-9.424-4.04-10.367-8.567c0,0,13.382,12.224,21.487,5.434
					c0,0,7.916,2.264,10.555,2.264c0,0-9.801-7.696-14.325-7.696l-6.031,4.527l-2.073-0.905c0,0,6.974-7.243,7.539-5.432
					c0,0,14.325,0,17.152,5.432c0,0,3.581-0.905,2.073-29.425c0,0-2.639-2.263-4.712-5.432l0.377-2.716c0,0,4.147,1.042,5.089-3.485
					c0,0,2.071-2.633,1.035-11.633h3.292l0.95,8.157c0,0,2.902-1.174,3.091-7.222c0,0,4.541-0.804,5.541-3.723v8.245
					c0,0-3.7,2.87-3.7,5.586s2.623,3.169,6.393-1.811l0.652,3.169c0,0-8.533,5.432-8.91,16.75c0,0,0.163,20.372,0.728,23.54"/>
				<path fill="#7E6B71" d="M468.413,82.424c0.438,0.258,0.669,0.443,0.669,0.443L468.413,82.424z"/>
			</g>
			<path clip-path="url(#SVGID_23_)" fill="#7E6B71" d="M354.549,172.69c0,0,10.643-2.999,15.323,12.001h-5.166
				C364.706,184.691,369.584,177.234,354.549,172.69z"/>
			<path clip-path="url(#SVGID_23_)" fill="#A39197" d="M360.467,189.896l3.071-6.396l1.882-4.753c0,0-2.476-6.062-0.016-6.45
				c0,0,4.089-16.995,3.954-55.008c0,0-2.056-8.497-0.004-19.746c0,0-0.137,1.182-5.878-3.473c0,0-13.943-3.87-16.95-3.482
				s-10.389,0.338-17.496-0.023c0,0-13.669-3.461-15.036-7.34c0,0,19.409,10.474,31.164,4.656c0,0,11.482,1.94,15.309,1.94
				c0,0-14.215-6.594-20.776-6.594l-8.748,3.879l-3.007-0.776c0,0,10.115-6.206,10.935-4.655c0,0,20.776,0,24.877,4.655
				c0,0,5.194-0.776,3.007-25.213c0,0-3.827-1.939-6.834-4.655l0.547-2.327c0,0,6.014,0.648,7.381-3.231
				c0,0,3.003-2.63,1.502-10.213h4.775l1.378,7.234c0,0,3.843-0.883,4.116-6.065c0,0,4.67-0.566,7.67-3.067v7.065
				c0,0-5.001,2.459-5.001,4.786s3.988,2.715,9.455-1.552l1.037,2.715c0,0-12.33,4.655-12.877,14.352c0,0,0.259,17.455,1.079,20.17
				c0.263-0.212,13.805-4.394,13.388-4.267c0,0,4.917-2.715,9.018-10.085l-1.095,6.8c0,0-2.188,3.673-4.648,5.224
				c0,0,5.74,1.552,9.294-1.552c0,0-0.82,5.818-8.475,5.818c0,0-16.402-2.327-16.402,8.533c0,0,0,23.273-0.547,34.134
				c0,0,1.001,55.34,1.001,59.218"/>
			<path opacity="0.8" clip-path="url(#SVGID_23_)" fill="#7E6B71" d="M419.315,181.713c0,0,6.743-1.022,9.709,7.978h-3.273
				C425.751,189.691,428.842,184.734,419.315,181.713z"/>
			<g clip-path="url(#SVGID_23_)">
				<path fill="#A39197" d="M435.713,194.196l-13,0.591l-0.893-9.364l1.282-5.548c0,0-1.715-7.075-0.019-7.527
					c0,0,2.815-19.834,2.722-64.199c0,0-1.419-9.917-0.004-23.046c0,0-0.095,1.379-4.053-4.053c0,0-9.614-4.516-11.687-4.063
					c-2.073,0.453-7.163,0.394-12.063-0.027c0,0-9.424-4.04-10.367-8.567c0,0,13.382,12.224,21.487,5.434
					c0,0,7.916,2.264,10.555,2.264c0,0-9.801-7.696-14.325-7.696l-6.031,4.527l-2.073-0.905c0,0,6.974-7.243,7.539-5.432
					c0,0,14.325,0,17.152,5.432c0,0,3.581-0.905,2.073-29.425c0,0-2.639-2.263-4.712-5.432l0.377-2.716c0,0,4.147,1.225,5.089-3.302
					c0,0,2.07-4.45,1.035-11.45h3.292l0.95,7.974c0,0,3.211-1.266,3.399-7.313c0,0,3.85-0.896,5.85-3.814v8.245
					c0,0-4.009,2.87-4.009,5.586s2.469,3.169,6.239-1.811l0.575,3.169c0,0-8.571,5.432-8.948,16.75c0,0,0.144,20.372,0.709,23.54
					c0.181-0.247,9.501-5.128,9.213-4.98c0,0,3.381-3.169,6.209-11.77l-0.759,7.936c0,0-1.511,4.286-3.207,6.097
					c0,0,3.957,1.811,6.407-1.811c0,0-0.566,6.79-5.844,6.79c0,0-11.309-2.716-11.309,9.959c0,0,0,9.779-0.082,20.339"/>
			</g>
			<g clip-path="url(#SVGID_23_)">
				<path fill="#A39197" d="M459.981,185.598l-13,0.591l-0.893-9.364l1.282-5.548c0,0-1.715-7.075-0.019-7.527
					c0,0,2.815-19.834,2.722-64.199c0,0-1.419-9.917-0.004-23.046c0,0-0.095,1.379-4.053-4.053c0,0-9.614-4.516-11.687-4.063
					s-7.163,0.394-12.063-0.027c0,0-9.425-4.04-10.367-8.567c0,0,13.382,12.224,21.487,5.434c0,0,7.916,2.264,10.555,2.264
					c0,0-9.801-7.696-14.325-7.696l-6.031,4.527l-2.073-0.905c0,0,6.974-7.243,7.539-5.432c0,0,14.325,0,17.152,5.432
					c0,0,3.581-0.905,2.073-29.425c0,0-2.639-2.263-4.712-5.432l0.377-2.716c0,0,4.147,1.024,5.089-3.503
					c0,0,2.07-2.651,1.035-11.651h3.292l0.95,8.175c0,0,3.077-1.165,3.265-7.213c0,0,3.716-0.795,5.716-3.714v8.245
					c0,0-3.875,2.87-3.875,5.586s2.536,3.169,6.306-1.811l0.608,3.169c0,0-8.555,5.432-8.931,16.75c0,0,0.152,20.372,0.718,23.54
					c0.181-0.247,9.505-5.128,9.217-4.98c0,0,3.384-3.169,6.211-11.77l-0.758,7.936c0,0-1.51,4.286-3.206,6.097
					c0,0,3.957,1.811,6.407-1.811c0,0-0.566,6.79-5.844,6.79c0,0-11.309-2.716-11.309,9.959c0,0,0,9.779-0.082,20.339"/>
			</g>
			<g clip-path="url(#SVGID_23_)">
				<path fill="#7E6B71" d="M466.371,163.245l-7.346,0.591l-0.505-9.364l0.725-5.548c0,0-0.969-7.075-0.01-7.527
					c0,0,1.591-19.834,1.538-64.199c0,0-0.802-9.917-0.003-23.046c0,0-0.054,1.379-2.291-4.053c0,0-5.433-4.516-6.604-4.063
					c-1.172,0.453-4.048,0.394-6.817-0.027c0,0-5.326-4.04-5.858-8.567c0,0,7.562,12.224,12.142,5.434c0,0,4.473,2.264,5.965,2.264
					c0,0-5.539-7.696-8.095-7.696l-3.408,4.527l-1.172-0.905c0,0,3.941-7.243,4.26-5.432c0,0,8.095,0,9.692,5.432
					c0,0,2.024-0.905,1.172-29.425c0,0-1.491-2.263-2.663-5.432l0.213-2.716c0,0,2.343,0.7,2.876-3.827c0,0,1.17-2.975,0.585-11.975
					h1.861l0.537,8.499c0,0,1.263-1.003,1.369-7.051c0,0,2.754-0.633,2.754-3.552v8.245c0,0-1.714,2.87-1.714,5.586
					s1.671,3.169,3.801-1.811l0.463,3.169c0,0-4.775,5.432-4.988,16.75c0,0,0.116,20.372,0.435,23.54
					c0.103-0.247,5.386-5.128,5.224-4.98c0,0,1.919-3.169,3.517-11.77l-0.425,7.936c0,0-0.852,4.286-1.81,6.097
					c0,0,2.237,1.811,3.622-1.811c0,0-0.319,6.79-3.302,6.79c0,0-6.39-2.716-6.39,9.959c0,0,0,9.779-0.046,20.339"/>
			</g>
			<path opacity="0.8" clip-path="url(#SVGID_23_)" fill="#7E6B71" d="M413.95,170.016l-0.129-4.913c0,0,1.751-6.118,0.054-6.506
				c0,0-2.797-17.023-2.705-55.036c0,0,1.429-8.511,0.014-19.76c0,0,0.1,1.175,4.058-3.48c0,0,9.616-3.873,11.689-3.485
				s7.164,0.336,12.065-0.025c0,0,9.425-3.462,10.367-7.341c0,0-13.382,10.474-21.487,4.655c0,0-7.916,1.94-10.555,1.94
				c0,0,9.801-6.594,14.325-6.594l3.012,0.722l5.093,2.382c0,0-6.974-6.206-7.539-4.655c0,0-14.325,0-17.152,4.655
				c0,0-3.581-0.776-2.073-25.213c0,0,2.639-1.939,4.712-4.655l-0.377-2.327c0,0-4.147,0.525-5.089-3.354
				c0,0-2.071-2.335-1.035-10.335h-3.292l-0.95,7.357c0,0-2.42-0.822-2.608-6.004c0,0-3.059-0.505-5.059-3.006v7.065
				c0,0,3.218,2.459,3.218,4.786s-2.865,2.715-6.634-1.552l-0.773,2.715c0,0,8.472,4.655,8.849,14.352c0,0-0.193,17.455-0.759,20.17
				c-0.181-0.212-18.626-7.833-18.338-7.706c0,0-3.394-2.715-6.221-10.085l0.753,6.8c0,0,1.508,3.673,3.204,5.224
				c0,0-3.958,1.552-6.409-1.552c0,0,0.565,5.818,5.843,5.818c0,0,20.409,1.112,20.409,11.972c0,0,0,23.273,0.377,34.134
				c0,0,1.913,43.128-0.111,53.849l0.24,8.235l10.686,0.733L413.95,170.016z"/>
			<g opacity="0.7" clip-path="url(#SVGID_23_)">
				<g>
					<path fill="#7E6B71" d="M418.99,48.285c0,0,1.453-3.462,5.122-1.598c0,0,1.131,3.329-5.122,2.13"/>
					<path fill="#7E6B71" d="M417.96,50.498c0,0,3.635-0.941,4.374,3.108c0,0-1.963,2.917-4.798-2.785"/>
					<path fill="#7E6B71" d="M414.926,56.565c0,0,3.635-0.941,4.374,3.108c0,0-1.963,2.917-4.798-2.785"/>
					<path fill="#7E6B71" d="M414.218,58.578c0,0,2.796,2.506-0.166,5.363c0,0-3.516-0.02-0.338-5.538"/>
					<path fill="#7E6B71" d="M417.252,61.611c0,0,2.796,2.506-0.166,5.363c0,0-3.516-0.02-0.338-5.538"/>
					<path fill="#7E6B71" d="M419.342,61.303c0,0,3.541-1.249,4.624,2.722c0,0-1.706,3.074-5.019-2.364"/>
					<path fill="#7E6B71" d="M425.543,53.532c0,0,3.635-0.941,4.374,3.108c0,0-1.963,2.917-4.798-2.785"/>
					<path fill="#7E6B71" d="M424.835,55.544c0,0,2.796,2.506-0.166,5.363c0,0-3.516-0.02-0.338-5.538"/>
					<path fill="#7E6B71" d="M427.869,58.578c0,0,2.796,2.506-0.166,5.363c0,0-3.516-0.02-0.338-5.538"/>
					<path fill="#7E6B71" d="M429.959,58.269c0,0,3.541-1.249,4.624,2.722c0,0-1.706,3.074-5.019-2.364"/>
					<path fill="#7E6B71" d="M430.327,51.87c0,0,1.574-3.409,5.176-1.416c0,0,1.013,3.367-5.194,1.949"/>
					<path fill="#7E6B71" d="M431.436,53.692c0,0,3.71-0.577,4.045,3.526c0,0-2.242,2.708-4.499-3.246"/>
					<path fill="#7E6B71" d="M435.705,53.267c0,0,3.71-0.577,4.045,3.526c0,0-2.242,2.708-4.499-3.246"/>
					<path fill="#7E6B71" d="M436.79,51.453c0,0,1.277-3.531,5.035-1.854c0,0,1.298,3.267-5.008,2.386"/>
					<path fill="#7E6B71" d="M387.761,57.544c0,0-0.449,3.727-4.489,2.94c0,0-2-2.891,4.343-3.452"/>
					<path fill="#7E6B71" d="M386.145,56.151c0,0-3.353,1.69-4.934-2.11c0,0,1.3-3.266,5.279,1.705"/>
					<path fill="#7E6B71" d="M382.215,57.869c0,0-3.353,1.69-4.934-2.11c0,0,1.3-3.266,5.279,1.705"/>
					<path fill="#7E6B71" d="M381.74,59.928c0,0-0.128,3.752-4.221,3.313c0,0-2.24-2.71,4.031-3.811"/>
					<path fill="#7E6B71" d="M385.522,66.01c0,0,1.137,3.578-2.866,4.536c0,0-3.019-1.802,2.521-4.942"/>
					<path fill="#7E6B71" d="M383.474,65.412c0,0-2.35,2.928-5.364,0.126c0,0-0.171-3.512,5.511-0.638"/>
					<path fill="#7E6B71" d="M380.61,68.606c0,0-2.35,2.928-5.364,0.126c0,0-0.171-3.512,5.511-0.638"/>
					<path fill="#7E6B71" d="M381.031,70.676c0,0,1.439,3.468-2.467,4.765c0,0-3.162-1.537,2.088-5.14"/>
					<path fill="#7E6B71" d="M374.905,62.977c0,0,1.137,3.578-2.866,4.536c0,0-3.019-1.802,2.521-4.942"/>
					<path fill="#7E6B71" d="M372.857,62.379c0,0-2.35,2.928-5.364,0.126c0,0-0.171-3.512,5.511-0.638"/>
					<path fill="#7E6B71" d="M369.992,65.572c0,0-2.35,2.928-5.364,0.126c0,0-0.171-3.512,5.511-0.638"/>
					<path fill="#7E6B71" d="M370.414,67.643c0,0,1.439,3.468-2.467,4.765c0,0-3.162-1.537,2.088-5.14"/>
					<path fill="#7E6B71" d="M373.189,69.47c0,0-3.629,0.962-2.289,4.853c0,0,3.141,1.58,2.816-4.78"/>
					<path fill="#7E6B71" d="M375.153,75.008c0,0-1.209,3.555,2.774,4.593c0,0,3.055-1.741-2.421-4.992"/>
					<path fill="#7E6B71" d="M371.663,75.764c0,0-3.698,0.648-2.696,4.639c0,0,2.994,1.843,3.215-4.521"/>
					<path fill="#7E6B71" d="M389.426,53.331c0,0-3.158,2.031-5.127-1.584c0,0,0.952-3.384,5.428,1.145"/>
					<path fill="#7E6B71" d="M389.469,51.198c0,0-3.44-1.505-1.52-5.146c0,0,3.345-1.081,2.053,5.154"/>
					<path fill="#7E6B71" d="M385.639,49.266c0,0-3.44-1.505-1.52-5.146c0,0,3.345-1.081,2.053,5.154"/>
					<path fill="#7E6B71" d="M383.75,50.213c0,0-2.972,2.294-5.244-1.139c0,0,0.659-3.453,5.507,0.675"/>
					<path fill="#7E6B71" d="M382.948,46.97c0,0-3.743,0.295-3.768-3.82c0,0,2.44-2.531,4.241,3.576"/>
					<path fill="#7E6B71" d="M378.457,51.885c0,0-3.67,0.792-4.244-3.283c0,0,2.08-2.834,4.681,2.978"/>
					<path fill="#7E6B71" d="M376.339,46.748c0,0-2.692-2.617,0.384-5.352c0,0,3.512,0.163,0.112,5.547"/>
					<path fill="#7E6B71" d="M374.238,46.972c0,0-3.589,1.104-4.51-2.908c0,0,1.83-3.002,4.919,2.566"/>
					<path fill="#7E6B71" d="M393.181,56.887c0,0,0.013-3.754,4.117-3.442c0,0,2.322,2.64-3.912,3.933"/>
					<path fill="#7E6B71" d="M394.948,58.083c0,0,3.134-2.068,5.145,1.522c0,0-0.912,3.395-5.442-1.08"/>
					<path fill="#7E6B71" d="M398.652,55.92c0,0,3.134-2.068,5.145,1.522c0,0-0.912,3.395-5.442-1.08"/>
					<path fill="#7E6B71" d="M394.335,52.303c0,0-0.308-3.742,3.807-3.781c0,0,2.54,2.431-3.561,4.254"/>
					<path fill="#7E6B71" d="M409.846,52.204c0,0,2.5-2.801-0.761-5.312c0,0-3.492,0.411,0.281,5.541"/>
					<path fill="#7E6B71" d="M406.424,47.827c0,0-0.948-3.633-4.845-2.307c0,0-1.591,3.135,4.769,2.834"/>
					<path fill="#7E6B71" d="M407.941,53.894c0,0-0.948-3.633-4.845-2.307c0,0-1.591,3.135,4.769,2.834"/>
					<path fill="#7E6B71" d="M407.655,46.109c0,0,2.731-2.577-0.304-5.357c0,0-3.514,0.11-0.195,5.544"/>
					<path fill="#7E6B71" d="M410.388,45.811c0,0,3.75-0.185,3.249-4.27c0,0-2.743-2.199-3.75,4.089"/>
					<path fill="#7E6B71" d="M443.303,43.971c0,0,3.706,0.599,4.066-3.501c0,0-2.226-2.721-4.518,3.219"/>
					<path fill="#7E6B71" d="M421.938,50.721c0,0,2.189-3.051,5.35-0.415c0,0,0.36,3.497-5.469,0.934"/>
					<path fill="#7E6B71" d="M419.224,44.33c0,0,0.595-3.707,4.601-2.762c0,0,1.885,2.968-4.475,3.279"/>
					<path fill="#7E6B71" d="M423.476,44.919c0,0,1.877-3.252,5.283-0.941c0,0,0.704,3.444-5.35,1.47"/>
					<path fill="#7E6B71" d="M427.064,47.881c0,0,1.486-2.575,4.184-0.746c0,0,0.558,2.728-4.237,1.164"/>
					<path fill="#7E6B71" d="M440.945,47.32c0,0,1.574-3.409,5.176-1.416c0,0,1.013,3.367-5.194,1.949"/>
					<path fill="#7E6B71" d="M446.322,48.716c0,0,3.71-0.577,4.045,3.526c0,0-2.242,2.708-4.499-3.246"/>
					<path fill="#7E6B71" d="M447.408,46.903c0,0,1.277-3.531,5.035-1.854c0,0,1.298,3.267-5.008,2.386"/>
					<path fill="#7E6B71" d="M432.555,46.171c0,0,2.189-3.051,5.35-0.415c0,0,0.36,3.497-5.469,0.934"/>
					<path fill="#7E6B71" d="M431.446,44.482c0,0,0.35-3.738,4.41-3.058c0,0,2.076,2.838-4.25,3.566"/>
					<path fill="#7E6B71" d="M437.681,43.331c0,0,1.486-2.575,4.184-0.746c0,0,0.558,2.728-4.237,1.164"/>
					<path fill="#7E6B71" d="M375.286,58.995c0,0-3.45,1.482-4.795-2.408c0,0,1.498-3.181,5.165,2.024"/>
					<path fill="#7E6B71" d="M374.857,55.195c0,0-3.693,0.675-4.138-3.417c0,0,2.169-2.767,4.584,3.126"/>
					<path fill="#7E6B71" d="M369.721,58.302c0,0-3.609,1.037-4.455-2.991c0,0,1.885-2.967,4.87,2.657"/>
					<path fill="#7E6B71" d="M369.196,53.679c0,0-2.858,0.821-3.528-2.369c0,0,1.493-2.35,3.857,2.105"/>
				</g>
				<g>
					<path fill="#7E6B71" d="M483.127,48.285c0,0-1.453-3.462-5.122-1.598c0,0-1.131,3.329,5.122,2.13"/>
					<path fill="#7E6B71" d="M484.158,50.498c0,0-3.635-0.941-4.374,3.108c0,0,1.963,2.917,4.798-2.785"/>
					<path fill="#7E6B71" d="M487.191,56.565c0,0-3.635-0.941-4.374,3.108c0,0,1.963,2.917,4.798-2.785"/>
					<path fill="#7E6B71" d="M487.9,58.578c0,0-2.796,2.506,0.166,5.363c0,0,3.516-0.02,0.338-5.538"/>
					<path fill="#7E6B71" d="M484.866,61.611c0,0-2.796,2.506,0.166,5.363c0,0,3.516-0.02,0.338-5.538"/>
					<path fill="#7E6B71" d="M482.776,61.303c0,0-3.541-1.249-4.624,2.722c0,0,1.706,3.074,5.019-2.364"/>
					<path fill="#7E6B71" d="M476.574,53.532c0,0-3.635-0.941-4.374,3.108c0,0,1.963,2.917,4.798-2.785"/>
					<path fill="#7E6B71" d="M477.283,55.544c0,0-2.796,2.506,0.166,5.363c0,0,3.516-0.02,0.338-5.538"/>
					<path fill="#7E6B71" d="M474.249,58.578c0,0-2.796,2.506,0.166,5.363c0,0,3.516-0.02,0.338-5.538"/>
					<path fill="#7E6B71" d="M472.158,58.269c0,0-3.541-1.249-4.624,2.722c0,0,1.706,3.074,5.019-2.364"/>
					<path fill="#7E6B71" d="M471.79,51.87c0,0-1.574-3.409-5.176-1.416c0,0-1.013,3.367,5.194,1.949"/>
					<path fill="#7E6B71" d="M470.682,53.692c0,0-3.71-0.577-4.045,3.526c0,0,2.242,2.708,4.499-3.246"/>
					<path fill="#7E6B71" d="M466.413,53.267c0,0-3.71-0.577-4.045,3.526c0,0,2.242,2.708,4.499-3.246"/>
					<path fill="#7E6B71" d="M465.327,51.453c0,0-1.277-3.531-5.035-1.854c0,0-1.298,3.267,5.008,2.386"/>
					<path fill="#7E6B71" d="M514.357,57.544c0,0,0.449,3.727,4.489,2.94c0,0,2-2.891-4.343-3.452"/>
					<path fill="#7E6B71" d="M515.972,56.151c0,0,3.353,1.69,4.934-2.11c0,0-1.3-3.266-5.279,1.705"/>
					<path fill="#7E6B71" d="M519.903,57.869c0,0,3.353,1.69,4.934-2.11c0,0-1.3-3.266-5.279,1.705"/>
					<path fill="#7E6B71" d="M520.378,59.928c0,0,0.128,3.752,4.221,3.313c0,0,2.24-2.71-4.031-3.811"/>
					<path fill="#7E6B71" d="M516.596,66.01c0,0-1.137,3.578,2.866,4.536c0,0,3.019-1.802-2.521-4.942"/>
					<path fill="#7E6B71" d="M518.644,65.412c0,0,2.35,2.928,5.364,0.126c0,0,0.171-3.512-5.511-0.638"/>
					<path fill="#7E6B71" d="M521.508,68.606c0,0,2.35,2.928,5.364,0.126c0,0,0.171-3.512-5.511-0.638"/>
					<path fill="#7E6B71" d="M521.087,70.676c0,0-1.439,3.468,2.467,4.765c0,0,3.162-1.537-2.088-5.14"/>
					<path fill="#7E6B71" d="M527.213,62.977c0,0-1.137,3.578,2.866,4.536c0,0,3.019-1.802-2.521-4.942"/>
					<path fill="#7E6B71" d="M529.261,62.379c0,0,2.35,2.928,5.364,0.126c0,0,0.171-3.512-5.511-0.638"/>
					<path fill="#7E6B71" d="M532.125,65.572c0,0,2.35,2.928,5.364,0.126c0,0,0.171-3.512-5.511-0.638"/>
					<path fill="#7E6B71" d="M531.704,67.643c0,0-1.439,3.468,2.467,4.765c0,0,3.162-1.537-2.088-5.14"/>
					<path fill="#7E6B71" d="M528.929,69.47c0,0,3.629,0.962,2.289,4.853c0,0-3.141,1.58-2.816-4.78"/>
					<path fill="#7E6B71" d="M526.965,75.008c0,0,1.209,3.555-2.774,4.593c0,0-3.055-1.741,2.421-4.992"/>
					<path fill="#7E6B71" d="M530.455,75.764c0,0,3.698,0.648,2.696,4.639c0,0-2.994,1.843-3.215-4.521"/>
					<path fill="#7E6B71" d="M512.692,53.331c0,0,3.158,2.031,5.127-1.584c0,0-0.952-3.384-5.428,1.145"/>
					<path fill="#7E6B71" d="M512.649,51.198c0,0,3.44-1.505,1.52-5.146c0,0-3.345-1.081-2.053,5.154"/>
					<path fill="#7E6B71" d="M516.479,49.266c0,0,3.44-1.505,1.52-5.146c0,0-3.345-1.081-2.053,5.154"/>
					<path fill="#7E6B71" d="M518.368,50.213c0,0,2.972,2.294,5.244-1.139c0,0-0.659-3.453-5.507,0.675"/>
					<path fill="#7E6B71" d="M519.17,46.97c0,0,3.743,0.295,3.768-3.82c0,0-2.44-2.531-4.241,3.576"/>
					<path fill="#7E6B71" d="M523.66,51.885c0,0,3.67,0.792,4.244-3.283c0,0-2.08-2.834-4.681,2.978"/>
					<path fill="#7E6B71" d="M525.779,46.748c0,0,2.692-2.617-0.384-5.352c0,0-3.512,0.163-0.112,5.547"/>
					<path fill="#7E6B71" d="M527.88,46.972c0,0,3.589,1.104,4.51-2.908c0,0-1.83-3.002-4.919,2.566"/>
					<path fill="#7E6B71" d="M508.936,56.887c0,0-0.013-3.754-4.117-3.442c0,0-2.322,2.64,3.912,3.933"/>
					<path fill="#7E6B71" d="M507.17,58.083c0,0-3.134-2.068-5.145,1.522c0,0,0.912,3.395,5.442-1.08"/>
					<path fill="#7E6B71" d="M503.465,55.92c0,0-3.134-2.068-5.145,1.522c0,0,0.912,3.395,5.442-1.08"/>
					<path fill="#7E6B71" d="M507.783,52.303c0,0,0.308-3.742-3.807-3.781c0,0-2.54,2.431,3.561,4.254"/>
					<path fill="#7E6B71" d="M492.271,52.204c0,0-2.5-2.801,0.761-5.312c0,0,3.492,0.411-0.281,5.541"/>
					<path fill="#7E6B71" d="M495.694,47.827c0,0,0.948-3.633,4.845-2.307c0,0,1.591,3.135-4.769,2.834"/>
					<path fill="#7E6B71" d="M494.177,53.894c0,0,0.948-3.633,4.845-2.307c0,0,1.591,3.135-4.769,2.834"/>
					<path fill="#7E6B71" d="M494.463,46.109c0,0-2.731-2.577,0.304-5.357c0,0,3.514,0.11,0.195,5.544"/>
					<path fill="#7E6B71" d="M491.73,45.811c0,0-3.75-0.185-3.249-4.27c0,0,2.743-2.199,3.75,4.089"/>
					<path fill="#7E6B71" d="M458.815,43.971c0,0-3.706,0.599-4.066-3.501c0,0,2.226-2.721,4.518,3.219"/>
					<path fill="#7E6B71" d="M480.18,50.721c0,0-2.189-3.051-5.35-0.415c0,0-0.36,3.497,5.469,0.934"/>
					<path fill="#7E6B71" d="M482.894,44.33c0,0-0.595-3.707-4.601-2.762c0,0-1.885,2.968,4.475,3.279"/>
					<path fill="#7E6B71" d="M478.642,44.919c0,0-1.877-3.252-5.283-0.941c0,0-0.704,3.444,5.35,1.47"/>
					<path fill="#7E6B71" d="M475.054,47.881c0,0-1.486-2.575-4.184-0.746c0,0-0.558,2.728,4.237,1.164"/>
					<path fill="#7E6B71" d="M395.376,44.329c0,0,3.232-1.91,5.064,1.775c0,0-1.079,3.346-5.382-1.348"/>
					<path fill="#7E6B71" d="M393.228,45.49c0,0,3.478,1.414,1.655,5.104c0,0-3.316,1.168-2.187-5.098"/>
					<path fill="#7E6B71" d="M393.24,60.681c0,0,3.478,1.414,1.655,5.104c0,0-3.316,1.168-2.187-5.098"/>
					<path fill="#7E6B71" d="M392.094,66.118c0,0,0.748,3.679-3.334,4.204c0,0-2.809-2.114,3.034-4.644"/>
					<path fill="#7E6B71" d="M393.955,67.118c0,0,3.586,1.111,2.086,4.944c0,0-3.204,1.448-2.616-4.892"/>
					<path fill="#7E6B71" d="M401.799,65.776c0,0,0.748,3.679-3.334,4.204c0,0-2.809-2.114,3.034-4.644"/>
					<path fill="#7E6B71" d="M402.423,70.021c0,0,0.748,3.679-3.334,4.204c0,0-2.809-2.114,3.034-4.644"/>
					<path fill="#7E6B71" d="M404.284,71.021c0,0,3.586,1.111,2.086,4.944c0,0-3.204,1.448-2.616-4.892"/>
					<path fill="#7E6B71" d="M408.399,66.106c0,0,3.297-1.795,4.998,1.953c0,0-1.196,3.306-5.331-1.537"/>
					<path fill="#7E6B71" d="M408.201,68.23c0,0,3.321,1.752,1.141,5.243c0,0-3.415,0.834-1.672-5.29"/>
					<path fill="#7E6B71" d="M402.354,60.177c0,0,3.577-1.141,4.54,2.86c0,0-1.798,3.021-4.945-2.515"/>
					<path fill="#7E6B71" d="M397.924,41.295c0,0,2.69-2.619,5.34,0.53c0,0-0.259,3.506-5.548-0.04"/>
					<path fill="#7E6B71" d="M407.051,56.44c0,0,3.447-1.489,4.8,2.398c0,0-1.491,3.184-5.169-2.014"/>
					<path fill="#7E6B71" d="M408.162,60.958c0,0,2.73-1.179,3.802,1.899c0,0-1.181,2.522-4.094-1.595"/>
					<path fill="#7E6B71" d="M461.173,47.32c0,0-1.574-3.409-5.176-1.416c0,0-1.013,3.367,5.194,1.949"/>
					<path fill="#7E6B71" d="M455.796,48.716c0,0-3.71-0.577-4.045,3.526c0,0,2.242,2.708,4.499-3.246"/>
					<path fill="#7E6B71" d="M454.71,46.903c0,0-1.277-3.531-5.035-1.854c0,0-1.298,3.267,5.008,2.386"/>
					<path fill="#7E6B71" d="M469.562,46.171c0,0-2.189-3.051-5.35-0.415c0,0-0.36,3.497,5.469,0.934"/>
					<path fill="#7E6B71" d="M470.671,44.482c0,0-0.35-3.738-4.41-3.058c0,0-2.076,2.838,4.25,3.566"/>
					<path fill="#7E6B71" d="M464.436,43.331c0,0-1.486-2.575-4.184-0.746c0,0-0.558,2.728,4.237,1.164"/>
					<path fill="#7E6B71" d="M526.832,58.995c0,0,3.45,1.482,4.795-2.408c0,0-1.498-3.181-5.165,2.024"/>
					<path fill="#7E6B71" d="M527.261,55.195c0,0,3.693,0.675,4.138-3.417c0,0-2.169-2.767-4.584,3.126"/>
					<path fill="#7E6B71" d="M532.397,58.302c0,0,3.609,1.037,4.455-2.991c0,0-1.885-2.967-4.87,2.657"/>
					<path fill="#7E6B71" d="M532.922,53.679c0,0,2.858,0.821,3.528-2.369c0,0-1.493-2.35-3.857,2.105"/>
				</g>
			</g>
		</g>
		<g>
			<path fill="#7E6B71" d="M102.762,106.227c-0.276,0.029-0.547,0.076-0.835,0.034c-0.203-0.034-0.366-0.142-0.549-0.209
				c-0.234,0.204-0.462,0.409-0.723,0.622l-3.428,53.708h10.434l-3.299-51.684C103.734,107.814,103.198,106.988,102.762,106.227z"/>
			<path fill="#7E6B71" d="M113.175,109.467c-2.762-2.955-5.445-5.297-7.588-6.745c0.1-0.809-0.098-1.59-0.537-2.212
				c0.996-2.396,1.941-5.826,2.594-9.811c1.244-7.529,0.951-13.852-0.634-14.107c-1.603-0.269-3.903,5.628-5.137,13.162
				c-0.623,3.79-0.835,7.175-0.706,9.724c-0.946,0.421-1.693,1.248-1.87,2.342c0,0.008,0.002,0.013,0,0.017
				c-2.457,0.718-5.611,2.041-9.024,3.886c-6.712,3.644-11.528,7.751-10.748,9.178c0.768,1.411,6.832-0.384,13.535-4.036
				c3.496-1.891,6.388-3.886,8.317-5.589c0.183,0.067,0.346,0.176,0.549,0.209c0.288,0.042,0.559-0.004,0.835-0.033
				c1.283,2.241,3.404,5.07,6.139,8.001c5.188,5.589,10.372,9.228,11.549,8.131C121.635,120.477,118.388,115.056,113.175,109.467z
				 M102.237,103.594c-0.693-0.112-1.165-0.771-1.052-1.465c0.108-0.692,0.771-1.169,1.468-1.052
				c0.693,0.114,1.169,0.768,1.052,1.461C103.593,103.231,102.937,103.707,102.237,103.594z"/>
		</g>
		<g>
			<path fill="#7E6B71" d="M142.031,106.251c-0.173,0.019-0.344,0.048-0.525,0.022c-0.127-0.022-0.23-0.089-0.345-0.132
				c-0.147,0.128-0.29,0.257-0.454,0.391l-2.155,33.756h6.558l-2.073-32.483C142.641,107.248,142.304,106.729,142.031,106.251z"/>
			<path fill="#7E6B71" d="M148.575,108.287c-1.736-1.858-3.422-3.329-4.769-4.24c0.063-0.509-0.061-0.999-0.337-1.39
				c0.626-1.506,1.22-3.662,1.63-6.166c0.782-4.732,0.598-8.706-0.399-8.866c-1.007-0.169-2.453,3.537-3.229,8.272
				c-0.391,2.382-0.525,4.509-0.444,6.112c-0.594,0.265-1.064,0.785-1.175,1.472c0,0.005,0.001,0.008,0,0.011
				c-1.544,0.451-3.527,1.283-5.671,2.442c-4.218,2.29-7.246,4.871-6.755,5.769c0.483,0.887,4.294-0.241,8.507-2.536
				c2.197-1.189,4.015-2.442,5.227-3.513c0.115,0.042,0.217,0.111,0.345,0.131c0.181,0.026,0.351-0.003,0.525-0.021
				c0.806,1.409,2.139,3.187,3.858,5.028c3.261,3.513,6.519,5.8,7.259,5.11C153.892,115.207,151.851,111.8,148.575,108.287z
				 M141.7,104.596c-0.436-0.07-0.732-0.485-0.661-0.921c0.068-0.435,0.485-0.734,0.923-0.661c0.436,0.071,0.735,0.483,0.661,0.918
				C142.552,104.368,142.141,104.667,141.7,104.596z"/>
		</g>
		<g>
			<path fill="#7E6B71" d="M182.474,128.864c-0.075,0.008-0.148,0.021-0.226,0.009c-0.055-0.009-0.099-0.038-0.148-0.057
				c-0.063,0.055-0.125,0.111-0.196,0.168l-0.928,14.541h2.825l-0.893-13.993C182.737,129.294,182.592,129.07,182.474,128.864z"/>
			<path fill="#7E6B71" d="M185.293,129.741c-0.748-0.8-1.474-1.434-2.054-1.826c0.027-0.219-0.026-0.43-0.145-0.599
				c0.27-0.649,0.525-1.577,0.702-2.656c0.337-2.038,0.258-3.75-0.172-3.819c-0.434-0.073-1.057,1.524-1.391,3.563
				c-0.169,1.026-0.226,1.942-0.191,2.633c-0.256,0.114-0.458,0.338-0.506,0.634c0,0.002,0,0.003,0,0.005
				c-0.665,0.194-1.519,0.553-2.443,1.052c-1.817,0.986-3.121,2.098-2.91,2.485c0.208,0.382,1.85-0.104,3.664-1.093
				c0.946-0.512,1.729-1.052,2.252-1.513c0.05,0.018,0.094,0.048,0.148,0.056c0.078,0.011,0.151-0.001,0.226-0.009
				c0.347,0.607,0.922,1.373,1.662,2.166c1.405,1.513,2.808,2.498,3.127,2.201C187.584,132.722,186.705,131.254,185.293,129.741z
				 M182.332,128.151c-0.188-0.03-0.315-0.209-0.285-0.397c0.029-0.187,0.209-0.316,0.397-0.285
				c0.188,0.031,0.317,0.208,0.285,0.396C182.699,128.053,182.522,128.182,182.332,128.151z"/>
		</g>
	</g>
	<path fill="#7E6B71" d="M376.634,189.258c0,0,7.561-12.961,14.041-9.721c0,0-12.241,6.481-11.161,9.721c0,0,5.4-5.2,8.641-5.12
		c0,0-3.24,2.6-2.16,5.12C387.075,191.778,376.634,189.258,376.634,189.258z"/>
	<path opacity="0.8" fill="#7E6B71" d="M351.515,177.69c0,0,10.643-3.999,15.323,12.001h-5.166
		C361.672,189.691,366.551,182.234,351.515,177.69z"/>
	<path fill="#7E6B71" d="M358.646,182.324c0,0,6.743-1.633,9.709,7.367h-3.273C365.082,189.691,368.173,185.114,358.646,182.324z"/>
	<path fill="#7E6B71" d="M378.972,182.324c0,0-6.743-1.633-9.709,7.367h3.273C372.536,189.691,369.445,185.114,378.972,182.324z"/>
	<path fill="#7E6B71" d="M441.158,186.324c0,0-6.743-1.633-9.709,7.367h3.273C434.722,193.691,431.631,189.114,441.158,186.324z"/>
	<path fill="#7E6B71" d="M438.124,182.611c0,0-6.743-1.92-9.709,11.08h3.273C431.689,193.691,428.598,186.807,438.124,182.611z"/>
	<path fill="#7E6B71" d="M419.315,184.611c0,0,6.743-2.92,9.709,11.08h-3.273C425.751,195.691,428.842,188.807,419.315,184.611z"/>
	<path fill="#7E6B71" d="M416.282,187.713c0,0,6.743-1.022,9.709,7.978h-3.273C422.718,195.691,425.808,190.734,416.282,187.713z"/>
	<path fill="#7E6B71" d="M465.426,176.324c0,0-6.743-2.633-9.709,7.367h3.273C458.99,183.691,455.899,179.114,465.426,176.324z"/>
	<path fill="#7E6B71" d="M462.392,172.611c0,0-6.743-2.92-9.709,11.08h3.273C455.957,183.691,452.866,176.807,462.392,172.611z"/>
	<path fill="#7E6B71" d="M443.583,173.611c0,0,6.743-2.92,9.709,11.08h-3.273C450.019,184.691,453.11,177.807,443.583,173.611z"/>
	<path fill="#7E6B71" d="M398.081,172.713c0,0,6.743-2.022,9.709,7.978h-3.273C404.517,180.691,407.608,175.734,398.081,172.713z"/>
	<path fill="#7E6B71" d="M482.11,153.324c0,0-6.743-1.633-9.709,7.367h3.273C475.674,160.691,472.583,156.114,482.11,153.324z"/>
	<path fill="#7E6B71" d="M479.076,149.611c0,0-6.743-2.92-9.709,11.08h3.273C472.641,160.691,469.55,153.807,479.076,149.611z"/>
	<path fill="#7E6B71" d="M460.267,150.611c0,0,6.743-1.92,9.709,11.08h-3.273C466.703,161.691,469.794,154.807,460.267,150.611z"/>
	<path fill="#7E6B71" d="M457.234,153.713c0,0,6.743-1.022,9.709,7.978h-3.273C463.669,161.691,466.76,156.734,457.234,153.713z"/>
	<path fill="#7E6B71" d="M489.693,168.324c0,0-6.743-1.633-9.709,7.367h3.273C483.258,175.691,480.167,171.114,489.693,168.324z"/>
	<path fill="#7E6B71" d="M486.66,164.611c0,0-6.743-2.92-9.709,11.08h3.273C480.224,175.691,477.133,168.807,486.66,164.611z"/>
	<path fill="#7E6B71" d="M467.851,166.611c0,0,6.743-2.92,9.709,11.08h-3.273C474.286,177.691,477.377,170.807,467.851,166.611z"/>
	<path fill="#7E6B71" d="M464.817,169.713c0,0,6.743-2.022,9.709,7.978h-3.273C471.253,177.691,474.344,172.734,464.817,169.713z"/>
	<path fill="#7E6B71" d="M486.66,166.324c0,0-6.743-1.633-9.709,7.367h3.273C480.224,173.691,477.133,169.114,486.66,166.324z"/>
	<path fill="#7E6B71" d="M416.89,169.611c0,0-6.743-2.92-9.709,11.08h3.273C410.455,180.691,407.364,173.807,416.89,169.611z"/>
	<path fill="#7E6B71" d="M419.924,170.611c0,0-6.743-2.92-9.709,11.08h3.273C413.488,181.691,410.397,174.807,419.924,170.611z"/>
	<path fill="#7E6B71" d="M379.88,161.713c0,0,6.743-1.022,9.709,7.978h-3.273C386.316,169.691,389.407,164.734,379.88,161.713z"/>
	<path fill="#A39197" d="M398.689,158.611c0,0-6.743-2.92-9.709,11.08h3.273C392.254,169.691,389.163,162.807,398.689,158.611z"/>
	<path fill="#A39197" d="M401.723,159.611c0,0-6.743-1.92-9.709,11.08h3.273C395.287,170.691,392.196,163.807,401.723,159.611z"/>
	<path fill="#A39197" d="M408.698,155.713c0,0,6.743-1.022,9.709,7.978h-3.273C415.134,163.691,418.225,158.734,408.698,155.713z"/>
	<path fill="#A39197" d="M427.507,152.611c0,0-6.743-2.92-9.709,11.08h3.273C421.072,163.691,417.981,156.807,427.507,152.611z"/>
	<path fill="#A39197" d="M430.541,153.611c0,0-6.743-1.92-9.709,11.08h3.273C424.105,164.691,421.014,157.807,430.541,153.611z"/>
	<path fill="#7E6B71" d="M464.817,164.611c0,0,6.743-2.92,9.709,11.08h-3.273C471.253,175.691,474.344,168.807,464.817,164.611z"/>
	<path fill="#7E6B71" d="M461.784,167.713c0,0,6.743-1.022,9.709,7.978h-3.273C468.219,175.691,471.31,170.734,461.784,167.713z"/>
</g>
</svg>
