<?xml version="1.0" encoding="utf-8"?>
<!-- Generator: Adobe Illustrator 17.0.0, SVG Export Plug-In . SVG Version: 6.00 Build 0)  -->
<!DOCTYPE svg PUBLIC "-//W3C//DTD SVG 1.1//EN" "http://www.w3.org/Graphics/SVG/1.1/DTD/svg11.dtd">
<svg version="1.1" id="Layer_1" xmlns="http://www.w3.org/2000/svg" xmlns:xlink="http://www.w3.org/1999/xlink" x="0px" y="0px"
	 width="581.238px" height="253.981px" viewBox="0 0 581.238 253.981" enable-background="new 0 0 581.238 253.981"
	 xml:space="preserve">
<g>
	<defs>
		<polygon id="SVGID_22_" points="-590.711,-280.309 -590.711,-76.309 -407.923,-76.309 -353.486,-280.309 		"/>
	</defs>
	<clipPath id="SVGID_2_">
		<use xlink:href="#SVGID_22_"  overflow="visible"/>
	</clipPath>
	<g clip-path="url(#SVGID_2_)">
	</g>
</g>
<g>
	<defs>
		<polygon id="SVGID_2078_" points="-591.217,18.93 -591.217,224.411 -412.041,224.411 -356.623,19.888 		"/>
	</defs>
	<clipPath id="SVGID_4_">
		<use xlink:href="#SVGID_2078_"  overflow="visible"/>
	</clipPath>
	<g clip-path="url(#SVGID_4_)">
		<defs>
			<rect id="SVGID_2080_" x="-712.695" y="-1844.685" width="1923.24" height="3789.385"/>
		</defs>
		<clipPath id="SVGID_6_">
			<use xlink:href="#SVGID_2080_"  overflow="visible"/>
		</clipPath>
	</g>
</g>
<g>
	<ellipse opacity="0.3" fill="#7E6B71" cx="165.971" cy="150.744" rx="12.416" ry="1.933"/>
	<ellipse opacity="0.3" fill="#7E6B71" cx="192.461" cy="149.978" rx="8.906" ry="1.387"/>
	<path fill="#7E6B71" d="M167.498,89.904c0-0.53,0-1.411,0-2.959c0-1.875-1.702-3.495-3.959-3.495c0,0-0.013,0-5.272,0l-0.029-1.645
		c0-0.473-0.385-0.859-0.859-0.859h-2.061V79.89c0.179-0.106,0.327-0.238,0.452-0.4c0.619,0,1.872,0,4.39,0
		c0.294,0.377,0.728,0.639,1.241,0.639c0.874,0,1.586-0.709,1.586-1.586c0-0.878-0.712-1.589-1.586-1.589
		c-0.525,0-0.97,0.277-1.257,0.672c-0.693,0-1.992,0-4.352,0c-0.292-0.395-0.734-0.672-1.261-0.672c-0.523,0-0.97,0.277-1.257,0.672
		c-1.347,0-2.944,0-4.806,0c-0.288-0.395-0.731-0.672-1.254-0.672c-0.877,0-1.587,0.711-1.587,1.588c0,0.877,0.71,1.586,1.587,1.586
		c0.51,0,0.946-0.262,1.233-0.639c0.795,0,2.242,0,4.846,0c0.127,0.166,0.278,0.3,0.46,0.402v1.054h-2.189
		c-0.473,0-0.858,0.386-0.858,0.859v1.645c-0.538,0-7.328,0-11.656,0v5.126c0.151,0,6.439,0,12.376,0
		c0.698,1.401,1.63,2.095,3.028,2.095c1.397,0,2.562-0.694,3.261-2.095c0,0,0,0,2.564,0c0.765,0,1.048,0.492,1.129,1.436
		c-0.224,0.153-0.379,0.401-0.379,0.694c0,0.474,0.385,0.859,0.858,0.859h5.319c0.474,0,0.859-0.385,0.859-0.859
		C168.064,90.334,167.828,90.025,167.498,89.904z"/>
	<polygon opacity="0.2" fill="#7E6B71" points="139.289,50.691 139.289,161.691 208.795,161.691 234.928,50.691 	"/>
	<polygon opacity="0.3" fill="#7E6B71" points="234.928,50.691 208.795,161.845 312.654,162.768 338.415,50.691 	"/>
	<polygon opacity="0.4" fill="#7E6B71" points="420.289,51.691 337.415,51.691 312.654,162.691 420.289,162.691 	"/>
	<polygon fill="#7E6B71" points="165.674,116.87 151.014,116.87 156.511,145.066 165.674,145.066 174.836,145.066 180.333,116.87 	
		"/>
	<path fill="#A39197" d="M180.682,115.644h-15.008h-15.008c-0.193,0-0.349,0.156-0.349,0.349c0,0.193,0.156,0.349,0.349,0.349
		h15.008h15.008c0.193,0,0.349-0.156,0.349-0.349C181.031,115.801,180.875,115.644,180.682,115.644z"/>
	<path fill="#A39197" d="M174.818,145.765h-9.144h-9.145c-0.193,0-0.349,0.156-0.349,0.349c0,0.193,0.156,0.349,0.349,0.349h9.145
		h9.144c0.193,0,0.349-0.156,0.349-0.349C175.167,145.921,175.011,145.765,174.818,145.765z"/>
	<path fill="#A39197" d="M174.818,149.688h-9.144h-9.145c-0.193,0-0.349,0.156-0.349,0.349c0,0.193,0.156,0.349,0.349,0.349h9.145
		h9.144c0.193,0,0.349-0.156,0.349-0.349S175.011,149.688,174.818,149.688z"/>
	<polygon fill="#7E6B71" points="165.674,147.015 156.598,147.015 156.598,149.162 165.674,149.162 174.748,149.162 
		174.748,147.015 	"/>
	<polygon fill="#7E6B71" points="192.042,125.658 181.531,125.658 185.473,145.874 192.042,145.874 198.611,145.874 
		202.552,125.658 	"/>
	<path fill="#A39197" d="M202.802,124.78h-10.761h-10.76c-0.138,0-0.25,0.112-0.25,0.25c0,0.138,0.112,0.25,0.25,0.25h10.76h10.761
		c0.138,0,0.25-0.112,0.25-0.25C203.052,124.892,202.94,124.78,202.802,124.78z"/>
	<path fill="#A39197" d="M198.598,146.375h-6.556h-6.556c-0.138,0-0.25,0.112-0.25,0.25c0,0.138,0.112,0.25,0.25,0.25h6.556h6.556
		c0.138,0,0.25-0.112,0.25-0.25C198.848,146.487,198.736,146.375,198.598,146.375z"/>
	<path fill="#A39197" d="M198.598,149.188h-6.556h-6.556c-0.138,0-0.25,0.112-0.25,0.25c0,0.138,0.112,0.25,0.25,0.25h6.556h6.556
		c0.138,0,0.25-0.112,0.25-0.25S198.736,149.188,198.598,149.188z"/>
	<polygon fill="#7E6B71" points="192.042,147.271 185.535,147.271 185.535,148.811 192.042,148.811 198.548,148.811 
		198.548,147.271 	"/>
	<path fill="#7E6B71" d="M164.448,93.298c0.316,0.632,1.74,3.952,1.74,4.428c0,2.604-3.479,2.604-3.479,0
		C162.71,97.25,164.133,93.772,164.448,93.298z"/>
	<path opacity="0.6" fill="#7E6B71" d="M164.449,101.424c0.202,0.403,1.111,2.523,1.111,2.827c0,1.663-2.221,1.663-2.221,0
		C163.339,103.947,164.247,101.727,164.449,101.424z"/>
	<path opacity="0.3" fill="#7E6B71" d="M164.449,108.249c0.14,0.279,0.769,1.747,0.769,1.958c0,1.152-1.538,1.152-1.538,0
		C163.68,109.997,164.309,108.459,164.449,108.249z"/>
	<g>
		<defs>
			<polygon id="SVGID_2454_" points="236.928,50.691 210.795,161.845 311.525,162.768 336.415,50.691 			"/>
		</defs>
		<clipPath id="SVGID_8_">
			<use xlink:href="#SVGID_2454_"  overflow="visible"/>
		</clipPath>
		<g clip-path="url(#SVGID_8_)">
			<path fill="#FFFFFF" d="M280.315,113.548c0.298,0.207,0.596,0.414,0.918,0.637c0.112-0.182,0.226-0.339,0.312-0.51
				c0.643-1.278,1.702-2.131,2.914-2.808c1.392-0.776,2.916-1.227,4.425-1.709c0.031-0.01,0.064-0.015,0.096-0.02
				c0.569-0.095,0.722,0.052,0.561,0.605c-0.127,0.436-0.291,0.866-0.478,1.28c-0.234,0.519-0.614,0.914-1.128,1.181
				c-0.521,0.271-1.03,0.564-1.546,0.845c-0.626,0.34-1.198,0.741-1.635,1.323c-0.293,0.39-0.629,0.749-0.921,1.161
				c0.132-0.088,0.262-0.179,0.396-0.264c1.444-0.911,2.89-1.818,4.332-2.732c0.303-0.192,0.59-0.409,0.888-0.608
				c0.462-0.309,0.74-0.193,0.854,0.357c0.15,0.722-0.023,1.372-0.512,1.911c-1.013,1.115-2.119,2.122-3.42,2.905
				c-0.386,0.232-0.722,0.555-1.057,0.863c-0.084,0.077-0.136,0.283-0.094,0.386c0.224,0.558,0.099,1.071-0.111,1.599
				c-0.529,1.333-0.949,2.718-1.785,3.907c-1.111,1.581-2.336,3.051-3.932,4.19c-1.179,0.841-2.209,1.86-3.196,2.927
				c-2.06,2.226-4.334,4.204-6.818,5.961c-2.406,1.702-4.725,3.527-7.077,5.304c-3.316,2.504-6.651,4.985-9.931,7.536
				c-1.037,0.807-2.114,0.864-3.259,0.55c-1.052-0.289-2.109-0.62-3.094-1.081c-1.135-0.531-2.2-1.216-3.284-1.853
				c-0.771-0.453-1.208-1.115-1.273-2.037c-0.133-1.901,0.005-3.759,0.704-5.552c0.411-1.054,1.175-1.815,2.039-2.493
				c1.628-1.278,3.445-2.236,5.303-3.125c2.41-1.152,4.962-1.929,7.464-2.838c1.767-0.642,3.527-1.306,5.263-2.025
				c1.713-0.71,3.426-1.437,5.077-2.277c1.519-0.773,2.99-1.653,4.324-2.732c0.739-0.597,1.327-1.306,1.66-2.218
				c0.295-0.806,0.679-1.582,0.943-2.397c0.196-0.605,0.299-1.248,0.379-1.882c0.216-1.693,0.398-3.39,0.592-5.086
				c0.138-1.205,0.478-2.336,1.16-3.357c0.991-1.484,1.937-3.003,3.164-4.309c0.496-0.528,1.059-1.001,1.632-1.445
				c0.432-0.335,0.744-0.184,0.939,0.339c0.161,0.433,0.058,0.806-0.18,1.173c-1.244,1.913-2.32,3.937-3.747,5.73
				c-0.614,0.771-0.911,1.669-1.124,2.714c0.246-0.275,0.455-0.471,0.618-0.699c0.513-0.715,1.013-1.438,1.51-2.164
				c0.464-0.678,1.022-1.233,1.798-1.557c0.721-0.302,1.417-0.663,2.14-0.96c0.931-0.382,1.928-0.431,2.915-0.469
				c0.763-0.03,1.199,0.564,1.75,1.033c-0.275,0.123-0.499,0.224-0.724,0.324c-0.833,0.369-1.684,0.702-2.494,1.115
				c-1.045,0.533-2.071,1.113-2.717,2.16c-0.028,0.046-0.064,0.088-0.101,0.128c-0.401,0.442-0.638,1.107-1.454,0.984
				C280.302,113.492,280.309,113.52,280.315,113.548z"/>
			<path fill="#FFFFFF" d="M251.37,108.632c0.843-0.209,1.673-0.415,2.531-0.627c-0.114-0.566-0.24-1.114-0.332-1.667
				c-0.086-0.514-0.136-1.034-0.201-1.552c-0.071-0.566,0.121-1.021,0.567-1.378c0.654-0.523,1.307-1.048,1.951-1.583
				c0.376-0.312,0.733-0.649,1.104-0.968c0.702-0.605,0.868-1.372,0.597-2.218c-0.204-0.638-0.497-1.248-0.757-1.867
				c-0.05-0.118-0.128-0.225-0.203-0.354c0.675-0.294,1.348-0.546,1.983-0.871c1.199-0.614,2.392-1.241,3.558-1.916
				c1.424-0.824,1.864-2.246,2.138-3.744c0.041-0.224,0.091-0.451,0.089-0.676c-0.003-0.292,0.168-0.366,0.399-0.404
				c1.388-0.231,2.764-0.243,4.138,0.126c1.4,0.376,2.837,0.415,4.278,0.383c0.118-0.003,0.237,0,0.388,0
				c0.01,0.148,0.024,0.297,0.029,0.446c0.024,0.663,0.086,1.329,0.057,1.99c-0.036,0.831,0.199,1.582,0.501,2.334
				c0.365,0.906,0.698,1.825,1.049,2.748c-0.709,0.456-1.453,0.851-1.875,1.692c0.448,0.084,0.768-0.087,1.093-0.214
				c0.333-0.13,0.659-0.28,1.042-0.444c0.147,0.903,0.29,1.786,0.435,2.671c-0.308,0.054-0.599,0.086-0.88,0.159
				c-0.705,0.183-1.027,0.606-0.986,1.329c0.018,0.311,0.02,0.699,0.199,0.902c0.161,0.183,0.554,0.161,0.947,0.254
				c-0.131,0.095-0.253,0.161-0.347,0.257c-1.865,1.903-3.374,4.045-4.237,6.585c-0.472,1.389-0.36,2.747,0.665,3.888
				c0.327,0.363,0.791,0.604,1.195,0.896c0.238,0.172,0.601,0.287,0.69,0.514c0.086,0.218-0.108,0.547-0.181,0.826
				c-0.055,0.21-0.115,0.419-0.146,0.53c0.362,0.436,0.704,0.805,0.989,1.214c0.099,0.142,0.123,0.404,0.066,0.573
				c-0.332,0.999-0.63,2.017-1.069,2.97c-0.654,1.421-1.873,2.119-3.392,2.339c-1.038,0.15-2.034-0.063-3.027-0.324
				c-1.661-0.437-3.32-0.88-4.986-1.295c-1.845-0.459-3.353-1.435-4.629-2.833c-1.033-1.132-2.124-2.21-3.194-3.317
				c-1.268,1.237-2.756,1.035-4.237,0.559c-2.365-0.761-4.212-2.216-5.542-4.325c-0.843-1.337-1.072-2.778-0.79-4.316
				c0.074-0.406,0.139-0.816,0.254-1.211c0.198-0.684,0.668-1.137,1.36-1.271c1.747-0.339,3.443-0.211,5.028,0.687
				c0.735,0.416,1.123,1.1,1.434,1.843C251.199,108.181,251.277,108.394,251.37,108.632z M244.508,110.066
				c0.276-0.549,0.528-1.085,0.811-1.604c0.307-0.563,0.933-1.006,1.663-0.659c0.234,0.111,0.485,0.198,0.738,0.255
				c0.732,0.167,1.065,0.653,1.149,1.362c0.053,0.447,0.033,0.491-0.381,0.659c-0.432,0.176-0.869,0.342-1.291,0.541
				c-0.116,0.055-0.182,0.215-0.27,0.326c0.109,0.078,0.207,0.193,0.328,0.228c0.355,0.102,0.718,0.173,1.078,0.254
				c0.231,0.052,0.342,0.182,0.358,0.431c0.028,0.445,0.095,0.887,0.13,1.332c0.021,0.27,0.157,0.43,0.413,0.468
				c0.214,0.032,0.434,0.045,0.649,0.034c0.608-0.03,1.215-0.08,1.823-0.117c0.246-0.015,0.511-0.021,0.574-0.316
				c0.063-0.301-0.031-0.586-0.342-0.697c-0.384-0.136-0.781-0.256-1.183-0.32c-0.504-0.081-0.779-0.292-0.809-0.806
				c-0.019-0.321,0.057-0.646,0.072-0.97c0.014-0.289,0.023-0.582-0.003-0.869c-0.021-0.236-0.108-0.465-0.148-0.701
				c-0.159-0.949-0.668-1.61-1.579-1.948c-0.752-0.279-1.526-0.341-2.314-0.219c-0.56,0.087-1.062,0.278-1.264,0.881
				C244.444,108.409,244.45,109.228,244.508,110.066z M266.046,99.98c0.202,0.012,0.311,0.044,0.407,0.021
				c0.523-0.123,1.054-0.227,1.561-0.399c0.473-0.16,0.932-0.289,1.428-0.145c0.259,0.076,0.551,0.225,0.767,0
				c0.225-0.235,0.058-0.534-0.02-0.801c-0.015-0.051-0.028-0.118-0.066-0.145c-0.083-0.06-0.192-0.153-0.271-0.137
				C268.509,98.649,267.332,99.314,266.046,99.98z"/>
			<path opacity="0.8" fill="#7E6B71" d="M274.226,134.265c0.971,1.468,1.859,2.844,2.092,4.532
				c0.071-1.357,0.143-2.714,0.213-4.071c0.027-0.533,0.043-1.066,0.08-1.598c0.012-0.169,0.051-0.349,0.126-0.5
				c0.271-0.545,0.553-1.084,0.849-1.616c0.182-0.327,0.455-0.528,0.848-0.59c0.826-0.13,1.647-0.295,2.497-0.451
				c0.059,0.195,0.111,0.368,0.163,0.541c0.183,0.607,0.521,1.114,0.993,1.535c0.221,0.197,0.468,0.232,0.666,0.009
				c0.257-0.29,0.534-0.59,0.692-0.937c0.441-0.965,0.83-1.954,1.23-2.937c0.157-0.386,0.291-0.781,0.456-1.229
				c0.405,1.189,0.756,2.327,1.177,3.438c0.836,2.204,1.635,4.428,2.593,6.58c0.786,1.765,2.039,3.212,3.744,4.194
				c0.917,0.528,1.951,0.727,2.984,0.897c0.06,0.01,0.12,0.02,0.179,0.03c0.005,0.028,0.009,0.055,0.014,0.083
				c-0.389,0.101-0.775,0.214-1.167,0.302c-0.962,0.217-1.895,0.197-2.856-0.125c-0.909-0.305-1.873-0.447-2.872-0.674
				c-0.037,0.814-0.083,1.539-0.102,2.264c-0.084,3.254-0.154,6.508-0.243,9.761c-0.062,2.265-0.29,4.515-0.659,6.751
				c-0.113,0.686-0.184,1.382-0.218,2.076c-0.017,0.346-0.139,0.401-0.447,0.4c-2.363-0.011-4.725-0.005-7.088-0.005
				c-1.535,0-3.07-0.001-4.605-0.001c-0.119,0-0.237,0-0.393,0c-0.046-0.571-0.104-1.12-0.133-1.67
				c-0.083-1.565-0.137-3.132-0.235-4.696c-0.11-1.759-0.216-3.52-0.398-5.272c-0.209-2.012-0.446-4.024-0.77-6.02
				c-0.254-1.565-0.664-3.104-0.995-4.656c-0.186-0.872-0.36-1.746-0.519-2.623c-0.029-0.159-0.015-0.366,0.067-0.498
				C272.844,136.426,273.519,135.377,274.226,134.265z"/>
			<path opacity="0.8" fill="#7E6B71" d="M274.246,163.648c-11.627-0.24-23.232-0.479-34.903-0.72
				c0.086-0.141,0.139-0.23,0.193-0.318c0.646-1.046,1.281-2.098,1.942-3.134c0.568-0.89,0.793-1.874,0.867-2.906
				c0.024-0.335,0.047-0.671,0.075-1.077c0.731,0.202,1.436,0.402,2.143,0.589c1.295,0.343,2.297,1.16,3.279,2.01
				c0.477,0.413,0.951,0.831,1.429,1.242c0.384,0.33,0.694,0.378,1.068,0.023c0.461-0.438,0.935-0.905,1.247-1.449
				c0.723-1.262,1.348-2.579,2.019-3.871c0.877-1.689,1.749-3.381,2.652-5.056c0.169-0.313,0.424-0.65,0.728-0.809
				c2.322-1.216,4.16-3.07,6.196-4.659c2.196-1.713,4.355-3.473,6.522-5.223c0.227-0.183,0.421-0.188,0.649-0.049
				c0.456,0.28,0.77,0.697,0.931,1.184c0.341,1.03,0.677,2.066,0.92,3.122c0.627,2.722,1.22,5.452,1.794,8.186
				c0.344,1.639,0.339,3.311,0.337,4.976c-0.003,2.493-0.041,4.985-0.065,7.478C274.269,163.325,274.256,163.465,274.246,163.648z"
				/>
			<path fill="#FFFFFF" d="M300.424,117.342c-0.879,0.658-1.752,1.27-2.579,1.94c-1.053,0.854-1.877,1.887-2.398,3.164
				c-0.576,1.408-1.265,2.771-1.577,4.276c-0.144,0.695-0.047,1.7,0.184,2.146c0.19-0.609,0.348-1.254,0.591-1.865
				c0.709-1.779,1.828-3.309,3.032-4.773c0.71-0.864,1.495-1.667,2.25-2.495c0.102-0.112,0.222-0.209,0.341-0.304
				c0.585-0.471,1.043-0.525,1.67-0.116c0.72,0.469,1.444,0.96,1.887,1.724c0.707,1.219,0.555,2.474-0.059,3.653
				c-1.066,2.05-2.587,3.737-4.456,5.086c-1.342,0.968-2.807,1.274-4.356,0.465c-0.509-0.266-1.019-0.547-1.482-0.884
				c-2.85-2.074-5.688-4.165-8.524-6.258c-0.078-0.057-0.144-0.22-0.122-0.31c0.27-1.075,0.541-2.15,0.847-3.214
				c0.335-1.167,1.005-2.032,2.122-2.627c0.949-0.506,1.698-1.322,2.306-2.225c0.314-0.467,0.58-0.971,0.825-1.479
				c0.212-0.438,0.279-0.93-0.037-1.338c-0.484-0.624-0.523-1.364-0.639-2.085c-0.116-0.725-0.55-1.117-1.3-1.143
				c-0.183-0.006-0.387-0.008-0.539-0.09c-0.14-0.075-0.297-0.245-0.319-0.392c-0.07-0.467-0.339-0.694-0.765-0.822
				c-0.901-0.271-1.792-0.045-2.686,0.03c-1.239,0.104-2.33,0.675-3.465,1.106c-0.354,0.135-0.703,0.285-1.053,0.427
				c-0.015-0.032-0.034-0.055-0.029-0.063c0.796-1.245,1.523-2.539,2.663-3.528c0.55-0.477,0.57-0.686,0.236-1.332
				c-0.085-0.163-0.18-0.325-0.296-0.467c-0.516-0.627-1.197-0.756-1.844-0.264c-0.568,0.432-1.117,0.913-1.585,1.45
				c-0.935,1.074-1.882,2.15-2.69,3.319c-0.918,1.327-1.6,2.8-1.899,4.404c-0.102,0.548-0.021,1.127-0.056,1.69
				c-0.027,0.428-0.106,0.853-0.169,1.335c-0.804-0.629-1.549-1.211-2.293-1.793c-1.284-1.003-1.639-2.353-1.016-3.876
				c1.532-3.744,4.144-6.518,7.641-8.494c0.482-0.272,0.991-0.497,1.474-0.769c0.203-0.114,0.324-0.064,0.482,0.07
				c2.642,2.251,5.287,4.499,7.933,6.745c3.559,3.021,7.119,6.04,10.678,9.06C299.718,116.735,300.079,117.047,300.424,117.342z"/>
			<path opacity="0.8" fill="#7E6B71" d="M239.369,149.991c-0.626-0.962-1.288-1.904-1.872-2.891
				c-1.437-2.431-1.202-4.841,0.284-7.142c0.978-1.515,2.029-2.991,3.147-4.405c0.542-0.686,1.306-1.2,1.984-1.775
				c0.68-0.576,1.383-1.127,2.067-1.699c0.152-0.127,0.266-0.299,0.397-0.45c-0.017-0.031-0.033-0.062-0.05-0.093
				c-0.15,0.027-0.306,0.037-0.45,0.084c-1.229,0.403-2.345,1.032-3.441,1.704c-0.487,0.298-0.983,0.58-1.475,0.87
				c-0.033-0.019-0.065-0.038-0.098-0.057c0.035-0.168,0.04-0.349,0.109-0.501c0.343-0.763,0.725-1.509,1.051-2.28
				c0.453-1.069,1.269-1.752,2.288-2.214c0.928-0.421,1.869-0.819,2.819-1.187c0.72-0.279,1.461-0.136,2.183,0.037
				c0.507,0.122,1.002,0.29,1.504,0.431c0.141,0.039,0.29,0.053,0.493,0.088c-0.068-0.398-0.297-0.608-0.544-0.794
				c-0.703-0.531-1.517-0.804-2.372-0.935c-0.587-0.09-1.195-0.209-1.766,0.065c-0.675,0.323-1.34,0.67-2,1.023
				c-0.445,0.238-0.873,0.507-1.331,0.742c0.512-1.06,1.051-2.095,1.965-2.876c0.545-0.466,1.146-0.881,1.625-1.407
				c0.748-0.821,1.598-1.024,2.645-0.756c1.318,0.337,2.653,0.63,3.866,1.262c0.963,0.502,1.878,1.096,2.816,1.647
				c1.482,0.87,2.965,1.738,4.447,2.608c0.055,0.032,0.106,0.07,0.16,0.106c-0.019,0.025-0.033,0.054-0.042,0.053
				c-0.568-0.071-1.051,0.16-1.55,0.387c-2.347,1.063-4.695,2.125-7.06,3.149c-1.165,0.505-2.383,0.889-3.549,1.392
				c-1.822,0.787-3.467,1.865-4.906,3.237c-1.613,1.538-2.452,3.481-2.904,5.623c-0.396,1.881-0.342,3.788-0.339,5.692
				c0.001,0.401,0,0.802,0,1.203C239.437,149.95,239.403,149.97,239.369,149.991z"/>
			<path fill="#FFFFFF" d="M291.459,108.52c0.44,0.094,0.884,0.172,1.318,0.286c0.756,0.2,1.542,0.34,2.251,0.652
				c1.628,0.716,3.189,1.563,4.25,3.073c0.261,0.372,0.518,0.758,0.702,1.171c0.621,1.392,1.486,2.626,2.38,3.848
				c0.744,1.016,1.43,2.074,2.144,3.113c0.814,1.183,1.719,2.313,2.423,3.558c0.956,1.69,1.801,3.448,2.613,5.214
				c0.539,1.172,0.966,2.398,1.386,3.619c0.29,0.845,0.41,1.714,0.246,2.631c-0.145,0.809-0.12,1.647-0.2,2.469
				c-0.084,0.858-0.592,1.391-1.378,1.698c-1.806,0.706-3.871,0.261-5.212-1.264c-1.228-1.397-2.313-2.913-3.144-4.592
				c-0.633-1.28-0.721-2.657-0.645-4.045c0.012-0.225,0.287-0.466,0.488-0.647c1.51-1.368,2.572-3.052,3.444-4.867
				c0.252-0.526,0.359-1.089,0.221-1.684c-0.063-0.273-0.057-0.562-0.089-0.842c-0.096-0.84-0.522-1.53-1.089-2.109
				c-1.354-1.382-2.705-2.772-4.132-4.076c-2.571-2.348-5.197-4.634-7.799-6.947c-0.071-0.063-0.135-0.133-0.202-0.199
				C291.443,108.559,291.451,108.54,291.459,108.52z"/>
			<path opacity="0.8" fill="#7E6B71" d="M264.814,124.547c-1.721,1.044-3.209,2.217-3.583,4.358
				c-0.845-0.57-1.657-1.095-2.444-1.655c-0.673-0.479-1.28-1.059-1.982-1.484c-0.87-0.525-1.779-1.011-2.724-1.381
				c-1.76-0.688-3.557-1.28-5.338-1.911c-0.111-0.039-0.223-0.075-0.362-0.121c0.3-0.958,0.595-1.898,0.911-2.904
				c0.827,0.191,1.66,0.316,2.445,0.581c1.16,0.392,2.272,0.929,3.431,1.323c3.075,1.046,6.166,2.048,9.25,3.067
				C264.528,124.456,264.637,124.49,264.814,124.547z"/>
			<path opacity="0.8" fill="#7E6B71" d="M303.904,140.219c-0.528,0-1.001,0.012-1.474-0.003c-0.956-0.029-1.911-0.085-2.868-0.102
				c-0.263-0.004-0.397-0.104-0.492-0.323c-0.299-0.685-0.417-1.41-0.312-2.138c0.155-1.083,0.389-2.155,0.591-3.232
				c0.005-0.029,0.031-0.054,0.045-0.076c0.248,0.614,0.472,1.238,0.747,1.839c0.547,1.196,1.463,2.091,2.455,2.919
				C303.019,139.459,303.437,139.822,303.904,140.219z"/>
			<path fill="none" d="M295.81,142.092c-0.06-0.01-0.119-0.02-0.179-0.03C295.691,142.072,295.75,142.082,295.81,142.092
				c0.005,0.028,0.009,0.055,0.014,0.083h0C295.819,142.147,295.815,142.12,295.81,142.092z"/>
			<path fill="none" d="M303.767,124.691c0.613-1.179,0.765-2.434,0.059-3.653c-0.443-0.764-1.167-1.255-1.887-1.724
				c-0.628-0.409-1.086-0.355-1.67,0.117c-0.118,0.095-0.239,0.192-0.341,0.304c-0.755,0.827-1.54,1.631-2.25,2.495
				c-1.204,1.464-2.324,2.995-3.032,4.773c-0.243,0.611-0.401,1.256-0.592,1.865c-0.231-0.446-0.328-1.451-0.184-2.146
				c0.311-1.504,1.001-2.868,1.577-4.276c0.522-1.276,1.345-2.31,2.398-3.164c0.827-0.67,1.7-1.282,2.579-1.94
				c-0.345-0.295-0.706-0.607-1.07-0.915c-3.559-3.02-7.119-6.039-10.678-9.06c-2.646-2.246-5.291-4.494-7.933-6.745
				c-0.158-0.134-0.279-0.184-0.482-0.07c-0.483,0.271-0.992,0.496-1.474,0.769c-3.497,1.975-6.109,4.75-7.641,8.494
				c-0.623,1.523-0.268,2.873,1.016,3.876c0.745,0.582,1.489,1.164,2.293,1.793c0.063-0.483,0.142-0.907,0.169-1.335
				c0.035-0.563-0.046-1.142,0.056-1.69c0.299-1.604,0.981-3.077,1.899-4.404c0.808-1.168,1.754-2.245,2.69-3.319
				c0.468-0.537,1.016-1.018,1.585-1.45c0.647-0.492,1.328-0.363,1.844,0.264c0.116,0.141,0.212,0.304,0.296,0.467
				c0.334,0.645,0.315,0.854-0.236,1.332c-1.14,0.989-1.867,2.283-2.663,3.528c-0.005,0.008,0.013,0.031,0.029,0.063
				c0.35-0.143,0.698-0.293,1.053-0.427c1.135-0.432,2.226-1.002,3.465-1.106c0.894-0.075,1.785-0.301,2.686-0.03
				c0.426,0.128,0.695,0.355,0.765,0.822c0.022,0.147,0.179,0.317,0.32,0.392c0.152,0.082,0.357,0.083,0.539,0.09
				c0.751,0.027,1.184,0.418,1.3,1.143c0.116,0.722,0.155,1.462,0.639,2.085c0.316,0.408,0.249,0.899,0.037,1.338
				c-0.246,0.508-0.511,1.012-0.825,1.479c-0.608,0.903-1.357,1.719-2.306,2.225c-1.117,0.595-1.787,1.459-2.122,2.627
				c-0.305,1.065-0.576,2.14-0.847,3.214c-0.023,0.09,0.044,0.252,0.122,0.31c2.836,2.093,5.674,4.184,8.524,6.258
				c0.463,0.337,0.973,0.618,1.482,0.884c1.549,0.809,3.014,0.503,4.356-0.465C301.181,128.428,302.701,126.741,303.767,124.691z"/>
			<path fill="none" d="M274.408,151.285c-0.209-2.012-0.446-4.024-0.77-6.02c-0.254-1.565-0.664-3.104-0.995-4.656
				c-0.186-0.872-0.36-1.746-0.519-2.623c-0.014-0.079-0.018-0.169-0.008-0.257c-0.01,0.089-0.007,0.181,0.008,0.26
				c0.16,0.877,0.334,1.755,0.519,2.627c0.331,1.552,0.741,3.099,0.995,4.664c0.324,1.996,0.561,4.024,0.77,6.036
				c0.182,1.752,0.287,3.545,0.398,5.304c0.06,0.951,0.104,1.924,0.147,2.894c-0.044-0.995-0.087-2-0.147-2.957
				C274.695,154.798,274.59,153.037,274.408,151.285z"/>
			<path fill="none" d="M274.061,102.028c0.018,0.311,0.02,0.699,0.199,0.902c0.161,0.183,0.554,0.161,0.947,0.254l0.72-2.644
				c-0.307,0.054-0.599,0.086-0.88,0.159C274.342,100.881,274.02,101.304,274.061,102.028z"/>
			<path fill="none" d="M274.184,94.085c0.182,0.453,0.357,0.909,0.53,1.367C274.541,94.994,274.366,94.538,274.184,94.085z"/>
			<path fill="#A39197" d="M281.925,105.126c0.238-0.366,0.341-0.74,0.18-1.173c-0.195-0.522-0.507-0.673-0.939-0.339
				c-0.574,0.445-1.137,0.917-1.632,1.446c-1.226,1.306-2.173,2.825-3.164,4.309c-0.682,1.021-1.022,2.152-1.16,3.357
				c-0.194,1.696-0.377,3.393-0.592,5.086c-0.081,0.634-0.183,1.277-0.379,1.882c-0.264,0.815-0.648,1.591-0.943,2.397
				c-0.333,0.911-0.921,1.62-1.66,2.218c-1.334,1.079-2.806,1.959-4.324,2.732c-1.651,0.84-3.364,1.567-5.077,2.277
				c-1.736,0.719-3.496,1.383-5.263,2.025c-2.503,0.909-5.054,1.686-7.464,2.838c-1.858,0.889-3.675,1.847-5.303,3.125
				c-0.865,0.679-1.628,1.44-2.039,2.493c-0.699,1.793-0.837,3.651-0.704,5.552c0.064,0.922,0.502,1.584,1.273,2.037
				c1.084,0.637,2.149,1.322,3.284,1.853c0.985,0.461,2.042,0.792,3.094,1.081c1.145,0.314,2.222,0.257,3.259-0.55
				c3.28-2.551,6.614-5.032,9.931-7.536c2.353-1.777,4.672-3.602,7.077-5.304c2.484-1.757,4.758-3.735,6.818-5.961
				c0.987-1.067,2.017-2.086,3.196-2.927c1.596-1.139,2.821-2.609,3.932-4.19c0.836-1.189,1.255-2.574,1.785-3.907
				c0.21-0.528,0.335-1.04,0.111-1.599c-0.041-0.103,0.011-0.309,0.094-0.386c0.334-0.308,0.67-0.63,1.057-0.863
				c1.301-0.783,2.407-1.79,3.42-2.905c0.489-0.538,0.662-1.189,0.512-1.911c-0.114-0.55-0.391-0.666-0.854-0.357
				c-0.298,0.199-0.585,0.417-0.888,0.608c-1.442,0.914-2.888,1.821-4.332,2.732c-0.134,0.084-0.264,0.176-0.396,0.264
				c0.292-0.412,0.628-0.77,0.921-1.161c0.437-0.581,1.008-0.982,1.635-1.323c0.516-0.28,1.025-0.574,1.546-0.845
				c0.514-0.267,0.894-0.662,1.128-1.181c0.187-0.414,0.351-0.844,0.478-1.28c0.161-0.553,0.008-0.7-0.561-0.605
				c-0.032,0.005-0.065,0.01-0.096,0.02c-1.509,0.483-3.033,0.933-4.424,1.709c-1.213,0.677-2.271,1.53-2.914,2.808
				c-0.086,0.171-0.199,0.328-0.312,0.51c-0.321-0.223-0.619-0.43-0.918-0.637c-0.006-0.028-0.013-0.056-0.019-0.085
				c0.816,0.124,1.053-0.542,1.454-0.984c0.036-0.04,0.072-0.082,0.101-0.128c0.645-1.047,1.672-1.627,2.717-2.16
				c0.81-0.413,1.661-0.746,2.494-1.115c0.225-0.1,0.449-0.201,0.724-0.324c-0.551-0.469-0.987-1.063-1.75-1.033
				c-0.987,0.038-1.985,0.087-2.915,0.469c-0.723,0.297-1.419,0.659-2.14,0.96c-0.775,0.325-1.334,0.879-1.798,1.557
				c-0.497,0.726-0.997,1.45-1.51,2.164c-0.164,0.228-0.372,0.424-0.618,0.699c0.213-1.045,0.51-1.943,1.124-2.714
				C279.605,109.063,280.68,107.039,281.925,105.126z"/>
			<path fill="#A39197" d="M275.927,100.539c-0.144-0.886-0.288-1.768-0.435-2.671c-0.003,0.001-0.005,0.002-0.007,0.003
				c0.013,0.052,0.022,0.091,0.024,0.1c-0.002-0.009-0.011-0.048-0.024-0.1c-0.38,0.163-0.703,0.312-1.034,0.441
				c-0.325,0.127-0.645,0.298-1.093,0.213c0.42-0.836,1.156-1.231,1.862-1.684c-0.021-0.081-0.036-0.139-0.036-0.139
				s0.015,0.059,0.036,0.139c0.004-0.003,0.009-0.006,0.013-0.008c-0.005-0.013-0.01-0.025-0.014-0.038
				c-0.17-0.449-0.337-0.897-0.505-1.343c-0.173-0.458-0.347-0.914-0.53-1.367c-0.303-0.752-0.538-1.503-0.501-2.334
				c0.029-0.661-0.033-1.327-0.057-1.99c-0.005-0.149-0.019-0.298-0.029-0.446c-0.151,0-0.27-0.002-0.388,0
				c-1.44,0.032-2.877-0.007-4.278-0.383c-1.374-0.369-2.75-0.357-4.138-0.126c-0.231,0.039-0.402,0.113-0.399,0.404
				c0.003,0.225-0.048,0.452-0.088,0.676c-0.274,1.499-0.714,2.92-2.138,3.744c-1.165,0.675-2.359,1.302-3.557,1.916
				c-0.635,0.325-1.308,0.577-1.983,0.871c0.075,0.13,0.154,0.236,0.203,0.354c0.26,0.62,0.553,1.229,0.757,1.867
				c0.271,0.846,0.105,1.613-0.597,2.218c-0.371,0.32-0.727,0.656-1.104,0.968c-0.644,0.535-1.297,1.06-1.951,1.583
				c-0.447,0.357-0.639,0.812-0.567,1.378c0.065,0.518,0.115,1.038,0.201,1.552c0.092,0.553,0.218,1.1,0.332,1.667
				c-0.858,0.213-1.688,0.418-2.531,0.627c-0.093-0.239-0.171-0.452-0.258-0.66c-0.311-0.744-0.699-1.427-1.434-1.843
				c-1.585-0.898-3.28-1.025-5.028-0.687c-0.692,0.134-1.163,0.586-1.36,1.271c-0.114,0.395-0.179,0.805-0.254,1.211
				c-0.282,1.538-0.052,2.979,0.79,4.315c1.329,2.109,3.177,3.565,5.542,4.325c1.482,0.476,2.97,0.678,4.238-0.559
				c1.069,1.106,2.161,2.185,3.194,3.317c1.276,1.398,2.784,2.373,4.629,2.833c1.666,0.415,3.326,0.858,4.986,1.295
				c0.993,0.261,1.989,0.474,3.027,0.324c1.519-0.219,2.738-0.918,3.392-2.339c0.438-0.953,0.737-1.971,1.069-2.97
				c0.056-0.169,0.032-0.432-0.066-0.573c-0.285-0.409-0.627-0.779-0.989-1.214c0.031-0.112,0.091-0.32,0.146-0.53
				c0.074-0.279,0.267-0.608,0.181-0.826c-0.089-0.226-0.452-0.342-0.69-0.514c-0.405-0.292-0.868-0.532-1.195-0.895
				c-1.026-1.14-1.137-2.499-0.665-3.888c0.863-2.54,2.372-4.681,4.237-6.585c0.093-0.095,0.216-0.161,0.347-0.257"/>
			<path fill="#A39197" d="M309.542,129.435c-0.812-1.766-1.657-3.524-2.613-5.214c-0.704-1.245-1.61-2.375-2.423-3.558
				c-0.714-1.038-1.4-2.096-2.144-3.113c-0.895-1.222-1.76-2.456-2.38-3.848c-0.184-0.413-0.441-0.799-0.702-1.171
				c-1.061-1.51-2.622-2.357-4.25-3.073c-0.709-0.312-1.495-0.452-2.251-0.652c-0.434-0.115-0.878-0.192-1.318-0.286
				c-0.008,0.02-0.016,0.04-0.024,0.059c0.067,0.067,0.132,0.136,0.202,0.199c2.602,2.313,5.229,4.6,7.799,6.947
				c1.428,1.304,2.778,2.694,4.132,4.076c0.568,0.579,0.993,1.269,1.089,2.109c0.032,0.281,0.026,0.569,0.089,0.842
				c0.138,0.594,0.031,1.158-0.221,1.684c-0.872,1.815-1.934,3.499-3.444,4.867c-0.2,0.182-0.475,0.422-0.488,0.647
				c-0.076,1.388,0.012,2.765,0.645,4.045c0.831,1.679,1.916,3.195,3.144,4.592c1.341,1.526,3.406,1.97,5.212,1.264
				c0.786-0.307,1.294-0.84,1.378-1.698c0.08-0.822,0.055-1.661,0.2-2.469c0.164-0.917,0.045-1.786-0.246-2.631
				C310.508,131.832,310.081,130.606,309.542,129.435z"/>
			<path fill="#7E6B71" d="M273.358,98.525c0.448,0.084,0.768-0.087,1.093-0.213c0.331-0.129,0.655-0.278,1.034-0.441
				c-0.056-0.226-0.199-0.773-0.266-1.029C274.514,97.294,273.777,97.69,273.358,98.525z"/>
			<path fill="#7E6B71" d="M307.327,123.483c-1.002-1.448-2.106-2.828-3.129-4.263c-0.35-0.492-0.601-1.057-0.897-1.587
				c-0.905-1.622-1.735-3.293-2.736-4.854c-1.174-1.831-2.937-2.996-4.924-3.83c-1.819-0.763-3.712-1.231-5.669-1.453
				c-0.129-0.015-0.273-0.078-0.371-0.163c-2.617-2.296-5.243-4.584-7.833-6.911c-0.626-0.562-1.293-0.664-2.051-0.525
				c-1.059,0.195-1.977,0.715-2.864,1.296c-0.069,0.045-0.141,0.087-0.259,0.159c0-0.359-0.021-0.672,0.004-0.981
				c0.082-1.007-0.133-1.949-0.489-2.891c-0.584-1.545-1.104-3.116-1.636-4.68c-0.05-0.146-0.042-0.34,0.008-0.489
				c0.846-2.536,0.998-5.064-0.027-7.595c-0.914-2.255-2.625-3.471-4.978-3.873c-1.496-0.256-3.004-0.245-4.491-0.032
				c-2.162,0.31-4.241,0.047-6.316-0.555c-1.323-0.384-2.676-0.427-4.015-0.756c-0.03-0.007-0.055,0.19-0.082,0.19
				c-0.523,0-1.045,0-1.568,0c-0.585,0-1.175-0.048-1.755,0.078c-2.881,0.627-5.575,1.616-8.128,3.074
				c-1.534,0.877-2.984,1.816-4.166,3.151c-1.555,1.756-2.577,3.739-2.968,6.072c-0.145,0.865-0.442,1.688-0.614,2.549
				c-0.209,1.043-0.103,2.091-0.281,3.14c-0.016,0.094,0.197,0.179,0.197,0.273c0,0.305,0,0.61,0,0.915
				c0,0.7-0.005,1.412,0.193,2.096c0.423,1.46,1.006,2.797,1.73,4.124c0.869,1.593,1.67,3.189,2.547,4.778
				c0.951,1.725,2.227,3.164,3.637,4.517c1.502,1.441,3.105,2.74,4.81,3.934c0.15,0.105,0.182,0.192,0.115,0.372
				c-0.324,0.865-0.631,1.738-0.955,2.603c-0.046,0.123-0.149,0.237-0.25,0.325c-1.319,1.15-2.65,2.288-3.965,3.443
				c-1.64,1.44-2.652,3.277-3.356,5.316c-0.657,1.903-1.197,3.837-1.631,5.801c-0.307,1.39-1.064,2.555-1.824,3.726
				c-0.466,0.717-0.618,1.475-1.008,2.237c-0.159,0.31-0.042,0.68-0.042,1.022c0,0.436,0,0.871,0,1.307
				c0,0.607,0.034,1.228,0.25,1.816c0.382,1.043,0.876,1.95,1.609,2.78c1.375,1.556,2.477,3.258,3.45,5.091
				c0.112,0.211,0.119,0.474,0.14,0.717c0.082,0.943,0.136,1.887,0.19,2.833c0.012,0.209-0.016,0.452-0.113,0.63
				c-0.39,0.713-0.776,1.212-1.241,1.875c-0.644,0.917-1.319,2.405-1.381,3.405c0.53,0,1.058,0,1.586,0c6.151,0,12.303,0,18.454,0
				c6.674,0,13.348,0,20.022,0c3.407,0,6.815,0.225,10.222,0.228c0.16,0,0.279,0.116,0.329-0.096c0.669-2.814,1.125-5.605,1.106-8.5
				c-0.013-1.957-0.141-3.886-0.28-5.839c-0.123-1.721,0.043-3.398,0.316-5.089c0.05-0.31,0.108-0.612,0.166-0.94
				c1.54,1.108,3.246,1.032,4.945,0.716c1.536-0.285,3.067-0.639,4.564-1.084c1.691-0.502,3.407-0.646,5.153-0.706
				c1.16-0.04,2.326-0.151,3.47-0.345c2.241-0.379,3.328-1.491,3.766-3.759c0.094-0.489,0.28-0.983,0.28-1.475
				c0-0.551,0-1.103,0-1.654c0-0.938-0.467-2.053-0.808-3.13C310.515,128.975,309.145,126.112,307.327,123.483z M243.826,112.24
				c-0.843-1.337-1.072-2.778-0.79-4.315c0.074-0.406,0.139-0.816,0.254-1.211c0.198-0.684,0.668-1.137,1.36-1.271
				c1.747-0.338,3.443-0.211,5.028,0.687c0.735,0.416,1.123,1.099,1.434,1.843c0.087,0.209,0.165,0.422,0.258,0.66
				c0.843-0.209,1.673-0.414,2.531-0.627c-0.114-0.566-0.24-1.114-0.332-1.667c-0.086-0.514-0.136-1.034-0.201-1.552
				c-0.071-0.566,0.121-1.021,0.567-1.378c0.654-0.523,1.307-1.048,1.951-1.583c0.376-0.312,0.733-0.649,1.104-0.968
				c0.702-0.605,0.868-1.372,0.597-2.218c-0.204-0.638-0.497-1.248-0.757-1.867c-0.05-0.118-0.128-0.225-0.203-0.354
				c0.675-0.294,1.348-0.546,1.983-0.871c1.199-0.614,2.392-1.241,3.557-1.916c1.424-0.824,1.864-2.246,2.138-3.744
				c0.041-0.224,0.091-0.451,0.088-0.676c-0.003-0.292,0.168-0.366,0.399-0.404c1.388-0.231,2.764-0.243,4.138,0.126
				c1.4,0.376,2.837,0.415,4.278,0.383c0.118-0.003,0.237,0,0.388,0c0.01,0.148,0.024,0.297,0.029,0.446
				c0.024,0.663,0.086,1.329,0.057,1.99c-0.037,0.831,0.198,1.582,0.501,2.334c0.182,0.453,0.357,0.909,0.53,1.367
				c0.173,0.458,0.344,0.919,0.519,1.381c-0.004,0.003-0.009,0.006-0.013,0.008c0.067,0.256,0.209,0.803,0.266,1.029
				c0.002-0.001,0.005-0.002,0.007-0.003c0.147,0.903,0.291,1.785,0.435,2.671l-0.72,2.644c-0.131,0.095-0.254,0.161-0.347,0.257
				c-1.865,1.904-3.374,4.045-4.237,6.585c-0.472,1.389-0.36,2.747,0.665,3.888c0.327,0.363,0.791,0.604,1.195,0.895
				c0.238,0.172,0.601,0.287,0.69,0.514c0.086,0.218-0.108,0.547-0.181,0.826c-0.055,0.21-0.115,0.419-0.146,0.53
				c0.362,0.436,0.704,0.805,0.989,1.214c0.099,0.141,0.123,0.404,0.066,0.573c-0.332,0.999-0.63,2.017-1.069,2.97
				c-0.654,1.421-1.873,2.119-3.392,2.339c-1.038,0.15-2.034-0.063-3.027-0.324c-1.661-0.437-3.32-0.88-4.986-1.295
				c-1.845-0.459-3.353-1.435-4.629-2.833c-1.033-1.132-2.124-2.21-3.194-3.317c-1.268,1.237-2.756,1.035-4.238,0.559
				C247.003,115.804,245.156,114.349,243.826,112.24z M277.672,112.87c0.513-0.715,1.013-1.438,1.51-2.164
				c0.464-0.678,1.022-1.233,1.798-1.557c0.721-0.302,1.417-0.663,2.14-0.96c0.931-0.382,1.929-0.431,2.915-0.469
				c0.763-0.03,1.199,0.564,1.75,1.033c-0.275,0.123-0.499,0.224-0.724,0.324c-0.833,0.369-1.684,0.702-2.494,1.115
				c-1.045,0.533-2.071,1.113-2.717,2.16c-0.028,0.046-0.064,0.088-0.101,0.128c-0.401,0.442-0.638,1.107-1.454,0.984
				c0.006,0.028,0.013,0.056,0.019,0.085c0.298,0.207,0.596,0.414,0.918,0.637c0.112-0.182,0.226-0.339,0.312-0.51
				c0.643-1.278,1.702-2.131,2.914-2.808c1.392-0.776,2.916-1.227,4.424-1.709c0.031-0.01,0.064-0.015,0.096-0.02
				c0.569-0.095,0.722,0.052,0.561,0.605c-0.127,0.436-0.291,0.866-0.478,1.28c-0.234,0.519-0.614,0.914-1.128,1.181
				c-0.521,0.271-1.03,0.564-1.546,0.845c-0.626,0.34-1.198,0.741-1.635,1.323c-0.293,0.39-0.629,0.749-0.921,1.161
				c0.132-0.088,0.262-0.179,0.396-0.264c1.444-0.911,2.89-1.818,4.332-2.732c0.303-0.192,0.59-0.409,0.888-0.608
				c0.462-0.309,0.74-0.193,0.854,0.357c0.15,0.722-0.023,1.372-0.512,1.911c-1.013,1.115-2.119,2.122-3.42,2.905
				c-0.386,0.232-0.722,0.555-1.057,0.863c-0.084,0.077-0.136,0.283-0.094,0.386c0.224,0.558,0.099,1.071-0.111,1.599
				c-0.53,1.333-0.949,2.718-1.785,3.907c-1.111,1.581-2.336,3.051-3.932,4.19c-1.179,0.841-2.209,1.86-3.196,2.927
				c-2.06,2.226-4.334,4.204-6.818,5.961c-2.406,1.702-4.725,3.527-7.077,5.304c-3.316,2.504-6.651,4.985-9.931,7.536
				c-1.037,0.807-2.114,0.864-3.259,0.55c-1.052-0.289-2.109-0.62-3.094-1.081c-1.135-0.531-2.2-1.216-3.284-1.853
				c-0.771-0.453-1.208-1.115-1.273-2.037c-0.133-1.901,0.005-3.759,0.704-5.552c0.411-1.054,1.175-1.815,2.039-2.493
				c1.628-1.278,3.445-2.236,5.303-3.125c2.41-1.153,4.962-1.929,7.464-2.838c1.767-0.642,3.527-1.306,5.263-2.025
				c1.713-0.71,3.426-1.437,5.077-2.277c1.519-0.773,2.99-1.653,4.324-2.732c0.739-0.597,1.327-1.306,1.66-2.218
				c0.295-0.806,0.679-1.582,0.943-2.397c0.196-0.605,0.299-1.248,0.379-1.882c0.216-1.693,0.398-3.39,0.592-5.086
				c0.138-1.205,0.478-2.336,1.16-3.357c0.991-1.484,1.937-3.003,3.164-4.309c0.496-0.528,1.059-1.001,1.632-1.446
				c0.432-0.335,0.744-0.184,0.939,0.339c0.161,0.433,0.058,0.806-0.18,1.173c-1.244,1.913-2.319,3.937-3.747,5.73
				c-0.614,0.771-0.911,1.669-1.124,2.714C277.3,113.294,277.509,113.099,277.672,112.87z M261.231,128.905
				c-0.845-0.57-1.657-1.095-2.444-1.655c-0.673-0.479-1.28-1.059-1.982-1.484c-0.87-0.525-1.779-1.011-2.724-1.381
				c-1.759-0.688-3.557-1.28-5.338-1.911c-0.111-0.039-0.223-0.075-0.362-0.121c0.3-0.958,0.595-1.898,0.911-2.904
				c0.827,0.191,1.66,0.316,2.445,0.581c1.16,0.392,2.272,0.929,3.431,1.323c3.075,1.046,6.166,2.048,9.25,3.067
				c0.109,0.036,0.219,0.07,0.396,0.127C263.093,125.591,261.605,126.764,261.231,128.905z M239.719,143.034
				c-0.396,1.881-0.43,3.788-0.43,5.692c0,0.401,0,0.802,0,1.203c0,0.02,0.023,0.041-0.011,0.061
				c-0.626-0.962-1.242-1.904-1.826-2.891c-1.437-2.431-1.179-4.841,0.307-7.142c0.979-1.515,2.041-2.991,3.159-4.405
				c0.542-0.686,1.312-1.2,1.99-1.775c0.68-0.576,1.386-1.127,2.07-1.699c0.152-0.127,0.267-0.299,0.399-0.45
				c-0.016-0.031-0.032-0.062-0.049-0.093c-0.15,0.027-0.306,0.037-0.449,0.084c-1.229,0.402-2.345,1.032-3.441,1.704
				c-0.486,0.298-0.983,0.58-1.475,0.87c-0.033-0.019-0.065-0.038-0.098-0.057c0.035-0.168,0.04-0.349,0.109-0.501
				c0.343-0.763,0.725-1.509,1.051-2.279c0.453-1.069,1.269-1.752,2.288-2.214c0.928-0.421,1.869-0.819,2.819-1.187
				c0.72-0.279,1.461-0.136,2.183,0.037c0.507,0.122,1.002,0.29,1.504,0.431c0.141,0.039,0.29,0.053,0.493,0.088
				c-0.069-0.398-0.297-0.608-0.544-0.794c-0.703-0.531-1.517-0.803-2.372-0.935c-0.587-0.09-1.195-0.209-1.766,0.065
				c-0.675,0.323-1.34,0.67-2,1.023c-0.445,0.238-0.873,0.507-1.331,0.742c0.512-1.06,1.051-2.095,1.965-2.876
				c0.545-0.466,1.146-0.881,1.625-1.407c0.748-0.821,1.598-1.024,2.645-0.756c1.318,0.337,2.653,0.63,3.866,1.262
				c0.963,0.502,1.878,1.096,2.816,1.647c1.482,0.87,2.965,1.738,4.447,2.608c0.055,0.032,0.106,0.07,0.16,0.106
				c-0.019,0.025-0.033,0.054-0.042,0.053c-0.567-0.071-1.051,0.161-1.55,0.387c-2.347,1.063-4.695,2.125-7.06,3.149
				c-1.165,0.505-2.383,0.889-3.549,1.392c-1.822,0.787-3.512,1.865-4.952,3.237C241.055,138.95,240.17,140.893,239.719,143.034z
				 M274.27,163.186c-0.001,0.14-0.014,0.279-0.023,0.462c-11.627-0.24-23.232-0.479-34.903-0.72
				c0.086-0.141,0.139-0.23,0.193-0.318c0.646-1.046,1.281-2.098,1.942-3.134c0.568-0.89,0.793-1.874,0.867-2.906
				c0.024-0.335,0.047-0.671,0.075-1.077c0.731,0.202,1.436,0.402,2.143,0.589c1.295,0.343,2.297,1.16,3.279,2.01
				c0.477,0.413,0.951,0.831,1.429,1.242c0.385,0.33,0.694,0.378,1.068,0.023c0.461-0.438,0.935-0.905,1.247-1.449
				c0.723-1.262,1.348-2.579,2.019-3.871c0.877-1.689,1.749-3.381,2.652-5.056c0.169-0.313,0.425-0.65,0.728-0.809
				c2.322-1.216,4.16-3.07,6.196-4.659c2.196-1.713,4.355-3.473,6.522-5.223c0.227-0.183,0.421-0.188,0.649-0.049
				c0.456,0.28,0.77,0.697,0.931,1.184c0.341,1.03,0.677,2.066,0.92,3.122c0.627,2.722,1.22,5.452,1.794,8.186
				c0.344,1.639,0.339,3.311,0.337,4.976C274.332,158.201,274.294,160.693,274.27,163.186z M295.824,142.175
				c-0.389,0.101-0.775,0.214-1.167,0.302c-0.962,0.217-1.895,0.197-2.856-0.125c-0.909-0.305-1.873-0.446-2.872-0.673
				c-0.037,0.814-0.083,1.541-0.102,2.266c-0.084,3.254-0.154,6.512-0.243,9.765c-0.062,2.265-0.29,4.523-0.659,6.759
				c-0.113,0.686-0.184,1.398-0.218,2.092c-0.017,0.346-0.139,0.433-0.447,0.431c-2.363-0.011-4.725-0.184-7.088-0.184
				c-1.535,0-3.07-0.117-4.605-0.117c-0.119,0-0.237,0-0.393,0c-0.046-1-0.104-1.004-0.133-1.554
				c-0.032-0.607-0.06-1.113-0.088-1.743c-0.044-0.971-0.088-1.883-0.147-2.834c-0.11-1.759-0.216-3.521-0.398-5.273
				c-0.209-2.012-0.446-4.025-0.77-6.021c-0.254-1.565-0.664-3.104-0.995-4.656c-0.186-0.872-0.36-1.747-0.519-2.623
				c-0.014-0.079-0.018-0.17-0.008-0.259c0.01-0.089,0.033-0.174,0.074-0.24c0.654-1.061,1.33-2.109,2.037-3.222
				c0.971,1.468,1.859,2.844,2.092,4.532c0.071-1.357,0.143-2.714,0.213-4.071c0.027-0.533,0.043-1.066,0.08-1.598
				c0.012-0.169,0.051-0.349,0.126-0.5c0.271-0.545,0.553-1.084,0.849-1.616c0.182-0.327,0.455-0.528,0.848-0.59
				c0.826-0.13,1.647-0.295,2.497-0.451c0.059,0.195,0.111,0.368,0.163,0.541c0.183,0.607,0.521,1.114,0.993,1.535
				c0.22,0.197,0.468,0.232,0.666,0.009c0.257-0.29,0.534-0.59,0.692-0.937c0.441-0.965,0.83-1.954,1.23-2.937
				c0.157-0.386,0.291-0.781,0.456-1.229c0.405,1.189,0.756,2.327,1.177,3.438c0.836,2.205,1.635,4.428,2.593,6.58
				c0.786,1.765,2.039,3.212,3.744,4.194c0.917,0.528,1.951,0.727,2.984,0.897c0.06,0.01,0.12,0.02,0.179,0.03
				C295.815,142.12,295.819,142.147,295.824,142.175L295.824,142.175L295.824,142.175z M294.955,130.241
				c-0.509-0.266-1.019-0.547-1.482-0.884c-2.85-2.074-5.688-4.165-8.524-6.258c-0.078-0.057-0.144-0.22-0.122-0.31
				c0.27-1.074,0.541-2.149,0.847-3.214c0.335-1.167,1.005-2.032,2.122-2.627c0.949-0.506,1.698-1.322,2.306-2.225
				c0.314-0.467,0.58-0.971,0.825-1.479c0.212-0.438,0.279-0.93-0.037-1.338c-0.484-0.624-0.524-1.364-0.639-2.085
				c-0.116-0.725-0.55-1.117-1.3-1.143c-0.183-0.007-0.387-0.008-0.539-0.09c-0.14-0.075-0.297-0.245-0.32-0.392
				c-0.07-0.467-0.339-0.694-0.765-0.822c-0.902-0.271-1.792-0.045-2.686,0.03c-1.239,0.104-2.33,0.675-3.465,1.106
				c-0.354,0.135-0.703,0.285-1.053,0.427c-0.015-0.032-0.034-0.055-0.029-0.063c0.796-1.245,1.523-2.539,2.663-3.528
				c0.55-0.477,0.57-0.686,0.236-1.332c-0.084-0.163-0.18-0.325-0.296-0.467c-0.516-0.627-1.197-0.756-1.844-0.264
				c-0.568,0.432-1.117,0.913-1.585,1.45c-0.935,1.074-1.882,2.15-2.69,3.319c-0.918,1.327-1.6,2.8-1.899,4.404
				c-0.102,0.548-0.021,1.127-0.056,1.69c-0.027,0.428-0.106,0.853-0.169,1.335c-0.804-0.629-1.549-1.211-2.293-1.793
				c-1.284-1.003-1.639-2.353-1.016-3.876c1.532-3.744,4.144-6.518,7.641-8.494c0.482-0.272,0.992-0.497,1.474-0.769
				c0.203-0.114,0.324-0.064,0.482,0.07c2.642,2.251,5.287,4.499,7.933,6.745c3.559,3.021,7.119,6.04,10.678,9.06
				c0.364,0.309,0.725,0.62,1.07,0.915c-0.879,0.658-1.752,1.27-2.579,1.94c-1.053,0.854-1.876,1.887-2.398,3.164
				c-0.576,1.408-1.265,2.772-1.577,4.276c-0.144,0.695-0.047,1.699,0.184,2.146c0.191-0.609,0.348-1.254,0.592-1.865
				c0.709-1.779,1.828-3.309,3.032-4.773c0.71-0.864,1.495-1.667,2.25-2.495c0.102-0.112,0.222-0.209,0.341-0.304
				c0.585-0.471,1.043-0.525,1.67-0.117c0.72,0.469,1.444,0.96,1.887,1.724c0.707,1.219,0.555,2.474-0.059,3.653
				c-1.066,2.05-2.587,3.737-4.456,5.086C297.969,130.744,296.504,131.05,294.955,130.241z M302.43,140.216
				c-0.956-0.029-1.912-0.085-2.868-0.102c-0.263-0.004-0.397-0.104-0.492-0.323c-0.299-0.685-0.417-1.411-0.312-2.138
				c0.155-1.083,0.389-2.155,0.591-3.232c0.005-0.029,0.031-0.054,0.045-0.076c0.247,0.614,0.472,1.238,0.747,1.839
				c0.547,1.196,1.463,2.091,2.455,2.919c0.425,0.355,0.843,0.717,1.31,1.115C303.376,140.219,302.902,140.231,302.43,140.216z
				 M311.174,135.685c-0.145,0.809-0.12,1.647-0.2,2.469c-0.084,0.858-0.592,1.391-1.378,1.698
				c-1.806,0.706-3.871,0.261-5.212-1.264c-1.228-1.397-2.313-2.913-3.144-4.592c-0.633-1.28-0.721-2.657-0.645-4.045
				c0.012-0.225,0.287-0.466,0.488-0.647c1.51-1.368,2.572-3.052,3.444-4.867c0.252-0.526,0.359-1.089,0.221-1.684
				c-0.063-0.273-0.057-0.562-0.089-0.842c-0.096-0.84-0.522-1.53-1.089-2.109c-1.354-1.382-2.705-2.772-4.132-4.076
				c-2.571-2.348-5.197-4.634-7.799-6.947c-0.071-0.063-0.135-0.133-0.202-0.199c0.008-0.02,0.016-0.04,0.024-0.059
				c0.44,0.094,0.884,0.172,1.318,0.286c0.756,0.2,1.542,0.34,2.251,0.652c1.628,0.716,3.189,1.563,4.25,3.073
				c0.261,0.372,0.518,0.758,0.702,1.171c0.621,1.392,1.486,2.626,2.38,3.848c0.744,1.016,1.43,2.074,2.144,3.113
				c0.814,1.183,1.719,2.313,2.423,3.558c0.956,1.69,1.801,3.448,2.613,5.214c0.539,1.171,0.966,2.398,1.386,3.619
				C311.218,133.898,311.338,134.767,311.174,135.685z"/>
			<path fill="#90DBE0" d="M275.233,96.834c-0.175-0.462-0.346-0.923-0.519-1.381c0.168,0.446,0.334,0.894,0.505,1.343
				C275.223,96.808,275.228,96.821,275.233,96.834z"/>
			<path fill="#90DBE0" d="M274.226,134.266c0.971,1.468,1.859,2.844,2.092,4.531c0.071-1.357,0.143-2.714,0.213-4.071
				c0.027-0.533,0.043-1.066,0.08-1.598c0.012-0.169,0.051-0.349,0.126-0.5c0.271-0.545,0.553-1.085,0.849-1.616
				c-0.296,0.531-0.578,1.071-0.849,1.616c-0.075,0.151-0.114,0.33-0.126,0.5c-0.038,0.532-0.053,1.065-0.08,1.598
				c-0.07,1.357-0.142,2.714-0.213,4.071c-0.233-1.687-1.121-3.063-2.092-4.531c-0.707,1.113-1.382,2.161-2.037,3.222
				c-0.041,0.066-0.064,0.152-0.074,0.241c0.01-0.089,0.034-0.174,0.074-0.239C272.844,136.428,273.519,135.378,274.226,134.266z"/>
			<path fill="#90DBE0" d="M291.801,142.351c-0.909-0.305-1.873-0.447-2.872-0.674c-0.037,0.814-0.083,1.539-0.102,2.264
				c-0.084,3.254-0.154,6.508-0.243,9.761c-0.062,2.265-0.29,4.515-0.659,6.751c-0.113,0.686-0.184,1.382-0.218,2.076
				c-0.017,0.346-0.139,0.402-0.447,0.4c-2.363-0.011-4.725,0.121-7.088,0.121c2.363,0,4.725-0.069,7.088-0.058
				c0.308,0.002,0.43-0.086,0.447-0.431c0.034-0.694,0.105-1.406,0.218-2.092c0.369-2.237,0.597-4.494,0.659-6.759
				c0.089-3.254,0.159-6.512,0.243-9.765c0.019-0.725,0.064-1.451,0.102-2.266c0.999,0.227,1.963,0.369,2.872,0.673
				c0.961,0.322,1.894,0.342,2.856,0.125c0.392-0.088,0.778-0.201,1.167-0.302l0,0c-0.389,0.101-0.775,0.214-1.167,0.302
				C293.695,142.693,292.762,142.674,291.801,142.351z"/>
			<path fill="#90DBE0" d="M275.041,161.378c-0.033-0.613-0.06-1.239-0.088-1.864C274.981,160.144,275.009,160.772,275.041,161.378z
				"/>
			<path fill="#7E6B71" d="M244.508,110.066c-0.058-0.839-0.064-1.658,0.203-2.454c0.202-0.603,0.703-0.794,1.264-0.881
				c0.788-0.122,1.562-0.06,2.314,0.219c0.91,0.338,1.42,0.999,1.579,1.948c0.039,0.235,0.126,0.465,0.148,0.701
				c0.026,0.288,0.017,0.58,0.003,0.869c-0.015,0.324-0.091,0.649-0.072,0.97c0.03,0.514,0.305,0.725,0.809,0.806
				c0.402,0.064,0.799,0.184,1.183,0.32c0.311,0.11,0.406,0.396,0.342,0.697c-0.062,0.295-0.328,0.301-0.574,0.316
				c-0.608,0.036-1.215,0.086-1.823,0.117c-0.216,0.011-0.436-0.002-0.649-0.034c-0.255-0.039-0.392-0.198-0.413-0.468
				c-0.035-0.445-0.101-0.887-0.13-1.332c-0.016-0.248-0.127-0.378-0.358-0.431c-0.36-0.081-0.724-0.152-1.078-0.254
				c-0.121-0.035-0.219-0.149-0.328-0.228c0.089-0.112,0.155-0.271,0.27-0.326c0.421-0.2,0.859-0.365,1.291-0.541
				c0.413-0.169,0.434-0.213,0.381-0.659c-0.084-0.709-0.416-1.195-1.149-1.362c-0.253-0.058-0.504-0.144-0.738-0.255
				c-0.73-0.347-1.356,0.097-1.663,0.659C245.036,108.981,244.784,109.517,244.508,110.066z"/>
			<path fill="#7E6B71" d="M266.046,99.98c1.286-0.666,2.463-1.331,3.806-1.606c0.079-0.016,0.188,0.078,0.271,0.137
				c0.038,0.027,0.051,0.094,0.066,0.145c0.078,0.267,0.245,0.566,0.02,0.801c-0.216,0.225-0.508,0.076-0.767,0
				c-0.495-0.145-0.955-0.015-1.428,0.145c-0.508,0.171-1.038,0.276-1.561,0.399C266.357,100.024,266.248,99.993,266.046,99.98z"/>
		</g>
	</g>
	<g>
		<defs>
			<polygon id="SVGID_2456_" points="420.289,51.691 338.415,51.691 313.654,162.691 420.289,162.691 			"/>
		</defs>
		<clipPath id="SVGID_10_">
			<use xlink:href="#SVGID_2456_"  overflow="visible"/>
		</clipPath>
		<g clip-path="url(#SVGID_10_)">
			<path fill="#A39197" stroke="#D4D6D6" stroke-miterlimit="10" d="M317.375,79.021c-0.125,0.087-0.197,0.177-0.264,0.173
				c-0.063-0.004-0.12-0.107-0.179-0.167c0.067-0.049,0.129-0.125,0.202-0.136C317.191,78.881,317.26,78.954,317.375,79.021z"/>
			<line fill="#A39197" stroke="#D4D6D6" stroke-miterlimit="10" x1="360.789" y1="117.691" x2="360.789" y2="47.691"/>
			<polygon fill="#A39197" stroke="#D4D6D6" stroke-miterlimit="10" points="391.789,105.445 401.789,107.796 401.789,97.796 
				391.789,95.445 			"/>
			<polygon fill="#A39197" stroke="#D4D6D6" stroke-miterlimit="10" points="391.789,95.445 401.789,97.796 401.789,87.796 
				391.789,85.445 			"/>
			<polygon fill="#A39197" stroke="#D4D6D6" stroke-miterlimit="10" points="391.789,85.445 401.789,87.796 401.789,77.796 
				391.789,75.445 			"/>
			<polygon fill="#A39197" stroke="#D4D6D6" stroke-miterlimit="10" points="381.789,93.094 381.789,103.094 391.789,105.445 
				391.789,95.445 			"/>
			<polygon fill="#A39197" stroke="#D4D6D6" stroke-miterlimit="10" points="371.789,100.744 371.789,110.744 381.789,113.094 
				381.789,103.094 			"/>
			<polygon fill="#A39197" stroke="#D4D6D6" stroke-miterlimit="10" points="360.106,97.997 349.789,100.232 349.789,110.232 
				360.106,107.997 371.789,110.744 371.789,100.744 			"/>
			<polygon fill="#A39197" stroke="#D4D6D6" stroke-miterlimit="10" points="391.789,75.445 401.789,77.796 401.789,67.796 
				391.789,65.445 			"/>
			<polygon fill="#A39197" stroke="#D4D6D6" stroke-miterlimit="10" points="381.789,113.094 391.789,115.445 391.789,105.445 
				381.789,103.094 			"/>
			<polygon fill="#A39197" stroke="#D4D6D6" stroke-miterlimit="10" points="349.789,70.232 349.789,60.232 339.789,62.398 
				339.789,72.398 			"/>
			<polygon fill="#A39197" stroke="#D4D6D6" stroke-miterlimit="10" points="339.789,62.398 329.789,64.564 329.789,74.564 
				339.789,72.398 			"/>
			<polygon fill="#A39197" stroke="#D4D6D6" stroke-miterlimit="10" points="349.789,50.232 339.789,52.398 339.789,62.398 
				349.789,60.232 			"/>
			<polygon fill="#A39197" stroke="#D4D6D6" stroke-miterlimit="10" points="391.789,65.445 391.789,55.445 381.789,53.094 
				381.789,63.094 			"/>
			<polygon fill="#A39197" stroke="#D4D6D6" stroke-miterlimit="10" points="401.789,67.796 401.789,57.796 391.789,55.445 
				391.789,65.445 			"/>
			<polygon fill="#A39197" stroke="#D4D6D6" stroke-miterlimit="10" points="381.789,63.094 381.789,53.094 371.789,50.744 
				371.789,60.744 			"/>
			<polygon fill="#A39197" stroke="#D4D6D6" stroke-miterlimit="10" points="360.106,57.997 371.789,60.744 371.789,50.744 
				360.106,47.997 349.789,50.232 349.789,60.232 			"/>
			<polygon fill="#A39197" stroke="#D4D6D6" stroke-miterlimit="10" points="371.789,80.744 371.789,90.744 381.789,93.094 
				381.789,83.094 			"/>
			<polygon fill="#A39197" stroke="#D4D6D6" stroke-miterlimit="10" points="381.789,83.094 391.789,85.445 391.789,75.445 
				381.789,73.094 			"/>
			<polygon fill="#A39197" stroke="#D4D6D6" stroke-miterlimit="10" points="339.789,72.398 329.789,74.564 329.789,84.564 
				339.789,82.398 			"/>
			<polygon fill="#A39197" stroke="#D4D6D6" stroke-miterlimit="10" points="381.789,93.094 391.789,95.445 391.789,85.445 
				381.789,83.094 			"/>
			<polygon fill="#A39197" stroke="#D4D6D6" stroke-miterlimit="10" points="371.789,100.744 381.789,103.094 381.789,93.094 
				371.789,90.744 			"/>
			<polygon fill="#A39197" stroke="#D4D6D6" stroke-miterlimit="10" points="339.789,102.398 339.789,112.398 349.789,110.232 
				349.789,100.232 			"/>
			<polygon fill="#A39197" stroke="#D4D6D6" stroke-miterlimit="10" points="371.789,90.744 371.789,80.744 360.106,77.997 
				349.789,80.232 349.789,90.232 360.106,87.997 			"/>
			<polygon fill="#A39197" stroke="#D4D6D6" stroke-miterlimit="10" points="360.106,87.997 349.789,90.232 349.789,100.232 
				360.106,97.997 371.789,100.744 371.789,90.744 			"/>
			<polygon fill="#A39197" stroke="#D4D6D6" stroke-miterlimit="10" points="381.789,73.094 371.789,70.744 371.789,80.744 
				381.789,83.094 			"/>
			<polygon fill="#A39197" stroke="#D4D6D6" stroke-miterlimit="10" points="349.789,80.232 339.789,82.398 339.789,92.398 
				349.789,90.232 			"/>
			<polygon fill="#A39197" stroke="#D4D6D6" stroke-miterlimit="10" points="349.789,70.232 339.789,72.398 339.789,82.398 
				349.789,80.232 			"/>
			<polygon fill="#A39197" stroke="#D4D6D6" stroke-miterlimit="10" points="349.789,90.232 339.789,92.398 339.789,102.398 
				349.789,100.232 			"/>
			<polygon fill="#A39197" stroke="#D4D6D6" stroke-miterlimit="10" points="371.789,70.744 371.789,60.744 360.106,57.997 
				349.789,60.232 349.789,70.232 360.106,67.997 			"/>
			<polygon fill="#A39197" stroke="#D4D6D6" stroke-miterlimit="10" points="360.106,77.997 371.789,80.744 371.789,70.744 
				360.106,67.997 349.789,70.232 349.789,80.232 			"/>
			<polygon fill="#A39197" stroke="#D4D6D6" stroke-miterlimit="10" points="381.789,73.094 381.789,63.094 371.789,60.744 
				371.789,70.744 			"/>
			<polygon fill="#A39197" stroke="#D4D6D6" stroke-miterlimit="10" points="391.789,75.445 391.789,65.445 381.789,63.094 
				381.789,73.094 			"/>
			<polygon fill="#A39197" stroke="#D4D6D6" stroke-miterlimit="10" points="381.789,113.094 381.789,123 381.789,113.094 
				371.789,110.744 371.789,120.744 391.789,125.445 391.789,115.445 			"/>
			<polygon fill="#A39197" stroke="#D4D6D6" stroke-miterlimit="10" points="339.789,82.398 329.789,84.564 329.789,94.564 
				339.789,92.398 			"/>
			<polygon fill="#A39197" stroke="#D4D6D6" stroke-miterlimit="10" points="329.789,104.564 314.789,108.014 314.789,118.014 
				329.789,114.564 			"/>
			<polygon fill="#A39197" stroke="#D4D6D6" stroke-miterlimit="10" points="329.789,114.564 314.789,118.014 314.789,128.014 
				329.789,124.564 			"/>
			<polygon fill="#A39197" stroke="#D4D6D6" stroke-miterlimit="10" points="329.789,84.564 314.789,88.014 314.789,98.014 
				329.789,94.564 			"/>
			<polygon fill="#A39197" stroke="#D4D6D6" stroke-miterlimit="10" points="330.789,64.564 315.789,68.014 315.789,78.014 
				330.789,74.564 			"/>
			<polygon fill="#A39197" stroke="#D4D6D6" stroke-miterlimit="10" points="329.789,55 329.789,64.564 339.789,62.398 
				339.789,52.398 314.789,58.014 314.789,68.014 329.789,64.564 			"/>
			<polygon fill="#A39197" stroke="#D4D6D6" stroke-miterlimit="10" points="330.789,74.564 315.789,78.014 315.789,88.014 
				330.789,84.564 			"/>
			<polygon fill="#A39197" stroke="#D4D6D6" stroke-miterlimit="10" points="411.789,80.147 418.789,81.714 418.789,71.714 
				411.789,70.147 			"/>
			<polygon fill="#A39197" stroke="#D4D6D6" stroke-miterlimit="10" points="411.789,60.147 411.789,70.147 418.789,71.714 
				418.789,61.714 			"/>
			<polygon fill="#A39197" stroke="#D4D6D6" stroke-miterlimit="10" points="411.789,90.147 418.789,91.714 418.789,81.714 
				411.789,80.147 			"/>
			<polygon fill="#A39197" stroke="#D4D6D6" stroke-miterlimit="10" points="411.789,120.147 418.789,121.714 418.789,111.714 
				411.789,110.147 			"/>
			<polygon fill="#A39197" stroke="#D4D6D6" stroke-miterlimit="10" points="411.789,130 411.789,120.147 401.789,117.796 
				401.789,127.796 418.789,131.714 418.789,121.714 411.789,120.147 			"/>
			<polygon fill="#A39197" stroke="#D4D6D6" stroke-miterlimit="10" points="411.789,110.147 418.789,111.714 418.789,101.714 
				411.789,100.147 			"/>
			<polygon fill="#A39197" stroke="#D4D6D6" stroke-miterlimit="10" points="411.789,100.147 418.789,101.714 418.789,91.714 
				411.789,90.147 			"/>
			<polygon fill="#A39197" stroke="#D4D6D6" stroke-miterlimit="10" points="329.789,94.564 314.789,98.014 314.789,108.014 
				329.789,104.564 			"/>
			<polygon fill="#A39197" stroke="#D4D6D6" stroke-miterlimit="10" points="391.789,105.445 391.789,115.445 401.789,117.796 
				401.789,107.796 			"/>
			<polygon fill="#A39197" stroke="#D4D6D6" stroke-miterlimit="10" points="339.789,52 339.789,52.398 349.789,50.232 349.789,50 
				349.789,50.232 360.106,47.997 371.789,50.744 371.789,50 371.789,50.744 381.789,53.094 381.789,52 381.789,53.094 
				391.789,55.445 391.789,48 391.789,55.445 401.789,57.796 401.789,48 401.789,57.796 411.789,60.147 411.789,50.147 
				393.452,47.191 314.789,47.191 314.789,58.014 339.789,52.398 			"/>
			<polygon fill="#A39197" stroke="#D4D6D6" stroke-miterlimit="10" points="401.789,117.796 411.789,120.147 411.789,110.147 
				401.789,107.796 			"/>
			<polygon fill="#A39197" stroke="#D4D6D6" stroke-miterlimit="10" points="391.789,125.445 401.789,127.796 401.789,117.796 
				391.789,115.445 			"/>
			<polygon fill="#A39197" stroke="#D4D6D6" stroke-miterlimit="10" points="339.789,92.398 329.789,94.564 329.789,104.564 
				339.789,102.398 			"/>
			<polygon fill="#A39197" stroke="#D4D6D6" stroke-miterlimit="10" points="360.106,107.997 349.789,110.232 349.789,120 
				349.789,110.232 339.789,112.398 339.789,122 339.789,112.398 329.789,114.564 329.789,124.564 360.106,117.997 371.789,120.744 
				371.789,110.744 			"/>
			<polygon fill="#A39197" stroke="#D4D6D6" stroke-miterlimit="10" points="339.789,102.398 329.789,104.564 329.789,114.564 
				339.789,112.398 			"/>
			<polygon fill="#A39197" stroke="#D4D6D6" stroke-miterlimit="10" points="401.789,107.796 411.789,110.147 411.789,100.147 
				401.789,97.796 			"/>
			<polygon fill="#A39197" stroke="#D4D6D6" stroke-miterlimit="10" points="411.789,60.147 418.789,61.714 418.789,51.714 
				411.789,50.147 			"/>
			<polygon fill="#A39197" stroke="#D4D6D6" stroke-miterlimit="10" points="401.789,67.796 411.789,70.147 411.789,60.147 
				401.789,57.796 			"/>
			<polygon fill="#A39197" stroke="#D4D6D6" stroke-miterlimit="10" points="401.789,97.796 411.789,100.147 411.789,90.147 
				401.789,87.796 			"/>
			<polygon fill="#A39197" stroke="#D4D6D6" stroke-miterlimit="10" points="401.789,87.796 411.789,90.147 411.789,80.147 
				401.789,77.796 			"/>
			<polygon fill="#A39197" stroke="#D4D6D6" stroke-miterlimit="10" points="401.789,77.796 411.789,80.147 411.789,70.147 
				401.789,67.796 			"/>
		</g>
	</g>
	<line fill="none" stroke="#D4D6D6" stroke-miterlimit="10" x1="361.789" y1="51.691" x2="361.789" y2="117.691"/>
	<polygon fill="#7E6B71" points="362.207,131.151 356.01,129.02 336.787,134.676 342.884,137.124 	"/>
	<polygon fill="#7E6B71" points="403.94,149.376 395.384,145.725 375.54,152.525 384.138,156.729 	"/>
	<path fill="#90DBE0" d="M384.93,135.779c-5.676-1.848-14.52-1.848-20.196,0c-4.042,1.316-3.515,3.123-4.426,5.089
		c-0.196,0.424-0.908,0.146-1.292,0.279l-10.866,3.737c-1.51,0.519-1.814,1.385-0.643,1.924l6.699,3.082
		c1.288,0.593,3.624,0.593,5.152,0l3.486-1.351l-0.234-0.107c-0.545-0.251-0.403-0.653,0.299-0.895l5.054-1.739
		c0.179-0.061,0.51,0.068,0.601-0.13c0.423-0.914,0.179-1.755,2.059-2.367c2.641-0.86,6.754-0.86,9.395,0
		c0.87,0.283,1.419,0.432,1.784,0.807c1.43-0.274,2.849-0.426,4.021-0.879C391.487,141.042,390.867,137.712,384.93,135.779z"/>
	<path fill="#7E6B71" d="M389.632,133.816c-7.55-2.458-19.313-2.458-26.863,0c-5.376,1.75-4.676,4.154-5.887,6.769
		c-0.261,0.563-0.844,0.13-1.719,0.37l-14.452,4.971c-2.008,0.691-2.413,1.842-0.855,2.559l8.91,4.1c1.713,0.788,4.82,0.788,6.853,0
		l14.577-5.651c0.809-0.314,0.468-0.535,1.45-0.754c1.141-0.254,2.818-0.4,4.737-0.53c-0.22-0.243-0.351-0.506-0.351-0.783
		c0-1.187,2.217-2.149,4.951-2.149c2.726,0,4.251,0.85,4.264,2.032c1.84-0.258,4.225-0.505,5.574-1.025
		C398.355,140.817,397.53,136.387,389.632,133.816z"/>
	<path fill="#A39197" d="M387.752,144.372c-0.486-0.499-0.728-0.555-1.886-0.932c-3.512-1.144-9.482-2.135-12.496,0
		c-2.249,1.593-1.617,1.503-2.296,2.822"/>
</g>
<g>
	<defs>
		<rect id="SVGID_2458_" x="275.33" y="-658.116" width="1920" height="3776"/>
	</defs>
	<clipPath id="SVGID_12_">
		<use xlink:href="#SVGID_2458_"  overflow="visible"/>
	</clipPath>
</g>
</svg>
