<?xml version="1.0" encoding="utf-8"?>
<!-- Generator: Adobe Illustrator 17.0.0, SVG Export Plug-In . SVG Version: 6.00 Build 0)  -->
<!DOCTYPE svg PUBLIC "-//W3C//DTD SVG 1.1//EN" "http://www.w3.org/Graphics/SVG/1.1/DTD/svg11.dtd">
<svg version="1.1" id="Layer_1" xmlns="http://www.w3.org/2000/svg" xmlns:xlink="http://www.w3.org/1999/xlink" x="0px" y="0px"
	 width="520px" height="205px" viewBox="0 0 520 205" enable-background="new 0 0 520 205" xml:space="preserve">
<g>
	<defs>
		<polygon id="SVGID_2306_" points="708.556,137 708.556,341 890.344,341 944.781,137 		"/>
	</defs>
	<clipPath id="SVGID_2_">
		<use xlink:href="#SVGID_2306_"  overflow="visible"/>
	</clipPath>
	<g clip-path="url(#SVGID_2_)">
		<defs>
			<polygon id="SVGID_2308_" points="710.056,137 710.056,343.817 890.397,343.817 946.175,137.964 			"/>
		</defs>
		<clipPath id="SVGID_4_">
			<use xlink:href="#SVGID_2308_"  overflow="visible"/>
		</clipPath>
		<g clip-path="url(#SVGID_4_)">
			<defs>
				<rect id="SVGID_2310_" x="-580.438" y="-1738.249" width="1935.741" height="3814.014"/>
			</defs>
			<clipPath id="SVGID_6_">
				<use xlink:href="#SVGID_2310_"  overflow="visible"/>
			</clipPath>
		</g>
	</g>
</g>
<g>
	<g>
		<defs>
			<polygon id="SVGID_2352_" points="0.056,-0.473 0.056,204.527 178.949,204.527 233.97,0.484 			"/>
		</defs>
		<clipPath id="SVGID_8_">
			<use xlink:href="#SVGID_2352_"  overflow="visible"/>
		</clipPath>
		<g clip-path="url(#SVGID_8_)" enable-background="new    ">
			<g>
				<defs>
					<rect id="SVGID_2354_" x="-0.198" y="-0.586" width="234.097" height="205.159"/>
				</defs>
				<clipPath id="SVGID_10_">
					<use xlink:href="#SVGID_2354_"  overflow="visible"/>
				</clipPath>
				<g clip-path="url(#SVGID_10_)">
					<defs>
						<rect id="SVGID_2356_" x="-0.198" y="-0.586" width="234.097" height="205.159"/>
					</defs>
					<clipPath id="SVGID_12_">
						<use xlink:href="#SVGID_2356_"  overflow="visible"/>
					</clipPath>
					<rect x="-4.925" y="-5.477" clip-path="url(#SVGID_12_)" fill="#DEEBC5" width="242.875" height="215.008"/>
				</g>
				<g clip-path="url(#SVGID_10_)">
					<defs>
						<path id="SVGID_2358_" d="M1.051,203.527h178.138L233.668,1.48L1.051,0.53V203.527z M178.71,205.527H-0.939V-1.477
							l235.206,0.965L178.71,205.527z"/>
					</defs>
					<clipPath id="SVGID_14_">
						<use xlink:href="#SVGID_2358_"  overflow="visible"/>
					</clipPath>
					<g clip-path="url(#SVGID_14_)">
						<defs>
							<rect id="SVGID_2360_" x="-0.198" y="-0.586" width="234.097" height="205.159"/>
						</defs>
						<clipPath id="SVGID_16_">
							<use xlink:href="#SVGID_2360_"  overflow="visible"/>
						</clipPath>
						<rect x="-5.919" y="-6.48" clip-path="url(#SVGID_16_)" fill="#CED8BC" width="245.168" height="217.011"/>
					</g>
				</g>
				<g clip-path="url(#SVGID_10_)">
					<defs>
						<polyline id="SVGID_2362_" points="-1.026,-21.602 -1.026,252.145 172.024,252.145 236.834,-21.602 -1.026,-21.602 						"/>
					</defs>
					<clipPath id="SVGID_17_">
						<use xlink:href="#SVGID_2362_"  overflow="visible"/>
					</clipPath>
					<g clip-path="url(#SVGID_17_)">
						<defs>
							<rect id="SVGID_2364_" x="-0.198" y="-0.586" width="234.097" height="205.159"/>
						</defs>
						<clipPath id="SVGID_19_">
							<use xlink:href="#SVGID_2364_"  overflow="visible"/>
						</clipPath>
						<g clip-path="url(#SVGID_19_)" enable-background="new    ">
							<g>
								<defs>
									<rect id="SVGID_2366_" x="-0.198" y="29.437" width="210.189" height="175.136"/>
								</defs>
								<clipPath id="SVGID_21_">
									<use xlink:href="#SVGID_2366_"  overflow="visible"/>
								</clipPath>
								<g clip-path="url(#SVGID_21_)">
									<defs>
										<path id="SVGID_2368_" d="M5.565,91.973c-2.487,0.224-4.707,0.493-6.592,0.802v5.024
											c4.645,0.76,11.346,1.292,18.994,1.455c-0.29-1.413-0.553-2.878-0.781-4.4c-5.404-0.353-9.045-1.369-9.045-1.369
											C7.242,93.004,6.384,92.501,5.565,91.973"/>
									</defs>
									<clipPath id="SVGID_23_">
										<use xlink:href="#SVGID_2368_"  overflow="visible"/>
									</clipPath>
									<g clip-path="url(#SVGID_23_)">
										<defs>
											<rect id="SVGID_2370_" x="-0.198" y="-0.586" width="234.097" height="205.159"/>
										</defs>
										<clipPath id="SVGID_25_">
											<use xlink:href="#SVGID_2370_"  overflow="visible"/>
										</clipPath>
										<rect x="-6.007" y="86.969" clip-path="url(#SVGID_25_)" fill="#CBDBA6" width="28.956" height="17.288"/>
									</g>
								</g>
								<g clip-path="url(#SVGID_21_)">
									<defs>
										<path id="SVGID_2372_" d="M36.583,131.403c-7.368,1.115-12.008,2.735-12.008,4.543c0,3.169,14.28,5.771,32.518,6.055
											c0.357-0.962,1.111-2.794,2.43-5.093c-0.305,0.002-0.613,0.005-0.925,0.005c-4.598,0-9.746-0.407-15.049-1.581
											C43.549,135.331,40.576,134.365,36.583,131.403"/>
									</defs>
									<clipPath id="SVGID_27_">
										<use xlink:href="#SVGID_2372_"  overflow="visible"/>
									</clipPath>
									<g clip-path="url(#SVGID_27_)">
										<defs>
											<rect id="SVGID_2374_" x="-0.198" y="-0.586" width="234.097" height="205.159"/>
										</defs>
										<clipPath id="SVGID_29_">
											<use xlink:href="#SVGID_2374_"  overflow="visible"/>
										</clipPath>
										<rect x="19.594" y="126.399" clip-path="url(#SVGID_29_)" fill="#CBDBA6" width="44.91" height="20.605"/>
									</g>
								</g>
								<g clip-path="url(#SVGID_21_)">
									<defs>
										<path id="SVGID_2376_" d="M80.787,199.85c-11.76,2.04-19.012,4.831-19.012,7.907c0,6.247,29.84,11.31,66.643,11.31
											c21.298,0,40.263-1.694,52.465-4.333l3.127-13.214c-2.133-0.545-4.538-1.058-7.182-1.534
											c-6.999,3.67-15.512,6.619-24.805,6.619c-4.896,0-10.004-0.819-15.222-2.782c-7.187,3.472-15.235,5.47-23.746,5.588
											c-0.265,0.002-0.531,0.005-0.794,0.005C100.624,209.416,89.782,205.892,80.787,199.85 M142.187,200.844
											C142.187,200.844,142.19,200.841,142.187,200.844c1.89,0.247,3.71,0.365,5.471,0.365
											C145.897,201.209,144.074,201.09,142.187,200.844 M147.742,201.209h-0.064H147.742"/>
									</defs>
									<clipPath id="SVGID_31_">
										<use xlink:href="#SVGID_2376_"  overflow="visible"/>
									</clipPath>
									<g clip-path="url(#SVGID_31_)">
										<defs>
											<rect id="SVGID_2378_" x="-0.198" y="-0.586" width="234.097" height="205.159"/>
										</defs>
										<clipPath id="SVGID_33_">
											<use xlink:href="#SVGID_2378_"  overflow="visible"/>
										</clipPath>
										<rect x="56.794" y="194.846" clip-path="url(#SVGID_33_)" fill="#C2D397" width="132.197" height="29.224"/>
									</g>
								</g>
								<g clip-path="url(#SVGID_21_)">
									<defs>
										<path id="SVGID_2380_" d="M13.254,33.532c-4.382,0-9.811,0.708-14.28,3.472v49.41c1.825,2.012,4.003,3.892,6.592,5.559
											c3.311-0.298,7.093-0.513,11.168-0.624c-0.496-4.496-0.704-9.428-0.553-14.847c0,0,0.962-26.859,33.765-26.872
											c-1.329-5.339-6.098-15.66-23.101-15.66c-0.992,0-2.024,0.037-3.103,0.108c-0.543,1.211-0.99,2.585-1.052,3.904
											l7.13,0.407c-2.988,1.364-5.816,1.847-8.323,1.847c-6.158,0-10.394-2.92-10.394-2.92l8.392,0.481
											c0.01-0.95,0.077-2.38,0.35-3.754C18.422,33.82,16.051,33.532,13.254,33.532"/>
									</defs>
									<clipPath id="SVGID_35_">
										<use xlink:href="#SVGID_2380_"  overflow="visible"/>
									</clipPath>
									<g clip-path="url(#SVGID_35_)">
										<defs>
											<rect id="SVGID_2382_" x="-0.198" y="-0.586" width="234.097" height="205.159"/>
										</defs>
										<clipPath id="SVGID_37_">
											<use xlink:href="#SVGID_2382_"  overflow="visible"/>
										</clipPath>
										<rect x="-6.007" y="28.528" clip-path="url(#SVGID_37_)" fill="#B7CA84" width="60.933" height="68.449"/>
									</g>
								</g>
								<g clip-path="url(#SVGID_21_)">
									<defs>
										<path id="SVGID_2384_" d="M16.733,91.349c-4.075,0.111-7.857,0.326-11.168,0.624c0.818,0.528,1.676,1.031,2.577,1.512
											c0,0,3.641,1.016,9.045,1.369c-0.077-0.51-0.149-1.023-0.218-1.546c-1.619-0.148-3.333-0.382-5.079-0.74
											c0.002,0.003,1.986-0.501,4.898-0.727C16.77,91.677,16.75,91.515,16.733,91.349"/>
									</defs>
									<clipPath id="SVGID_38_">
										<use xlink:href="#SVGID_2384_"  overflow="visible"/>
									</clipPath>
									<g clip-path="url(#SVGID_38_)">
										<defs>
											<rect id="SVGID_2386_" x="-0.198" y="-0.586" width="234.097" height="205.159"/>
										</defs>
										<clipPath id="SVGID_39_">
											<use xlink:href="#SVGID_2386_"  overflow="visible"/>
										</clipPath>
										<rect x="0.585" y="86.345" clip-path="url(#SVGID_39_)" fill="#ACC173" width="21.583" height="13.512"/>
									</g>
								</g>
								<g clip-path="url(#SVGID_21_)">
									<defs>
										<path id="SVGID_2388_" d="M16.788,91.84c-2.912,0.227-4.898,0.727-4.898,0.727c1.746,0.358,3.46,0.592,5.079,0.74
											C16.904,92.824,16.845,92.331,16.788,91.84"/>
									</defs>
									<clipPath id="SVGID_40_">
										<use xlink:href="#SVGID_2388_"  overflow="visible"/>
									</clipPath>
									<g clip-path="url(#SVGID_40_)">
										<defs>
											<rect id="SVGID_2390_" x="-0.198" y="-0.586" width="234.097" height="205.159"/>
										</defs>
										<clipPath id="SVGID_41_">
											<use xlink:href="#SVGID_2390_"  overflow="visible"/>
										</clipPath>
										<rect x="6.909" y="86.836" clip-path="url(#SVGID_41_)" fill="#97AF50" width="15.041" height="11.475"/>
									</g>
								</g>
								<g clip-path="url(#SVGID_21_)">
									<defs>
										<path id="SVGID_2392_" d="M22.943,30.069c-1.82,0-2.688,1.924-3.098,3.975c-0.273,1.374-0.34,2.804-0.35,3.754
											l3.194,0.185c0.062-1.319,0.508-2.693,1.052-3.904c0.937-2.094,2.163-3.699,2.163-3.699L22.943,30.069"/>
									</defs>
									<clipPath id="SVGID_42_">
										<use xlink:href="#SVGID_2392_"  overflow="visible"/>
									</clipPath>
									<g clip-path="url(#SVGID_42_)">
										<defs>
											<rect id="SVGID_2394_" x="-0.198" y="-0.586" width="234.097" height="205.159"/>
										</defs>
										<clipPath id="SVGID_43_">
											<use xlink:href="#SVGID_2394_"  overflow="visible"/>
										</clipPath>
										<rect x="14.515" y="25.065" clip-path="url(#SVGID_43_)" fill="#9DB45A" width="16.37" height="17.922"/>
									</g>
								</g>
								<g clip-path="url(#SVGID_21_)">
									<defs>
										<path id="SVGID_2396_" d="M11.103,37.317c0,0,4.236,2.92,10.394,2.92c2.507,0,5.335-0.483,8.323-1.847l-7.13-0.407
											l-3.194-0.185L11.103,37.317"/>
									</defs>
									<clipPath id="SVGID_44_">
										<use xlink:href="#SVGID_2396_"  overflow="visible"/>
									</clipPath>
									<g clip-path="url(#SVGID_44_)">
										<defs>
											<rect id="SVGID_2398_" x="-0.198" y="-0.586" width="234.097" height="205.159"/>
										</defs>
										<clipPath id="SVGID_45_">
											<use xlink:href="#SVGID_2398_"  overflow="visible"/>
										</clipPath>
										<rect x="6.123" y="32.314" clip-path="url(#SVGID_45_)" fill="#9DB45A" width="28.678" height="12.928"/>
									</g>
								</g>
								<g clip-path="url(#SVGID_21_)">
									<defs>
										<path id="SVGID_2400_" d="M57.926,50.11c0,0,40.36-9.071,43.953,24.743c0,0,8.846,41.785-25.157,59.931
											c0,0-15.758,4.4-33.173,0.548c0,0-28.748-9.344-27.369-58.829C16.18,76.503,17.286,45.436,57.926,50.11"/>
									</defs>
									<clipPath id="SVGID_46_">
										<use xlink:href="#SVGID_2400_"  overflow="visible"/>
									</clipPath>
									<g clip-path="url(#SVGID_46_)">
										<defs>
											<rect id="SVGID_2402_" x="-0.198" y="-0.586" width="234.097" height="205.159"/>
										</defs>
										<clipPath id="SVGID_47_">
											<use xlink:href="#SVGID_2402_"  overflow="visible"/>
										</clipPath>
										<rect x="11.151" y="44" clip-path="url(#SVGID_47_)" fill="#819D2C" width="96.745" height="97.916"/>
									</g>
								</g>
								<g clip-path="url(#SVGID_21_)">
									<defs>
										<path id="SVGID_2404_" d="M60.453,56.689c0.002,0,0.67-12.642-4.905-12.642l-4.238,0.444c0,0,5.575,7.32,4.459,12.864
											L60.453,56.689"/>
									</defs>
									<clipPath id="SVGID_48_">
										<use xlink:href="#SVGID_2404_"  overflow="visible"/>
									</clipPath>
									<g clip-path="url(#SVGID_48_)">
										<defs>
											<rect id="SVGID_2406_" x="-0.198" y="-0.586" width="234.097" height="205.159"/>
										</defs>
										<clipPath id="SVGID_49_">
											<use xlink:href="#SVGID_2406_"  overflow="visible"/>
										</clipPath>
										<rect x="46.329" y="39.044" clip-path="url(#SVGID_49_)" fill="#CBDF8E" width="19.131" height="23.315"/>
									</g>
								</g>
								<g clip-path="url(#SVGID_21_)">
									<defs>
										<path id="SVGID_2408_" d="M72.486,54.423c0.002,0.002-12.003,8.264-26.779,1.532"/>
									</defs>
									<clipPath id="SVGID_51_">
										<use xlink:href="#SVGID_2408_"  overflow="visible"/>
									</clipPath>
									<g clip-path="url(#SVGID_51_)">
										<defs>
											<rect id="SVGID_2410_" x="-0.198" y="-0.586" width="234.097" height="205.159"/>
										</defs>
										<clipPath id="SVGID_53_">
											<use xlink:href="#SVGID_2410_"  overflow="visible"/>
										</clipPath>
										<rect x="40.726" y="49.419" clip-path="url(#SVGID_53_)" fill="#CBDF8E" width="36.741" height="14.181"/>
									</g>
								</g>
								<g clip-path="url(#SVGID_21_)">
									<defs>
										<path id="SVGID_2412_" d="M124.165,196.762c36.241,27.274,71.576-10.785,71.576-10.785
											c30.115-79.091-27.975-82.652-27.975-82.652s-4.323,0.451-9.094,1.238c3.77-0.279,7.996-0.067,12.683,0.895
											c0,0,32.987,9.618,20.445,52.804c0,0.002-12.174,49.99-52.527,42.103l-2.934-52.17L124.165,196.762"/>
									</defs>
									<clipPath id="SVGID_54_">
										<use xlink:href="#SVGID_2412_"  overflow="visible"/>
									</clipPath>
									<g clip-path="url(#SVGID_54_)">
										<defs>
											<rect id="SVGID_2414_" x="-0.198" y="-0.586" width="234.097" height="205.159"/>
										</defs>
										<clipPath id="SVGID_55_">
											<use xlink:href="#SVGID_2414_"  overflow="visible"/>
										</clipPath>
										<rect x="119.184" y="98.321" clip-path="url(#SVGID_55_)" fill="#819D2C" width="90.198" height="113.287"/>
									</g>
								</g>
								<g clip-path="url(#SVGID_21_)">
									<defs>
										<path id="SVGID_2416_" d="M191.8,158.262c12.541-43.186-20.445-52.804-20.445-52.804
											c-4.687-0.962-8.913-1.174-12.683-0.895c-5.831,0.964-12.331,2.437-12.457,4.232l-9.875,39.4l2.934,52.17
											C179.625,208.252,191.8,158.262,191.8,158.262"/>
									</defs>
									<clipPath id="SVGID_56_">
										<use xlink:href="#SVGID_2416_"  overflow="visible"/>
									</clipPath>
									<g clip-path="url(#SVGID_56_)">
										<defs>
											<rect id="SVGID_2418_" x="-0.198" y="-0.586" width="234.097" height="205.159"/>
										</defs>
										<clipPath id="SVGID_57_">
											<use xlink:href="#SVGID_2418_"  overflow="visible"/>
										</clipPath>
										<rect x="131.358" y="99.446" clip-path="url(#SVGID_57_)" fill="#CBDF8E" width="68.267" height="106.767"/>
									</g>
								</g>
								<g clip-path="url(#SVGID_21_)">
									<defs>
										<path id="SVGID_2420_" d="M161.236,110.055c-2.996,0-5.146,0.237-5.146,0.237l-1.667,16.442
											c3.021,2.17,5.865,4.681,8.395,7.579l15.242-19.148C174.827,110.827,166.652,110.055,161.236,110.055"/>
									</defs>
									<clipPath id="SVGID_58_">
										<use xlink:href="#SVGID_2420_"  overflow="visible"/>
									</clipPath>
									<g clip-path="url(#SVGID_58_)">
										<defs>
											<rect id="SVGID_2422_" x="-0.198" y="-0.586" width="234.097" height="205.159"/>
										</defs>
										<clipPath id="SVGID_59_">
											<use xlink:href="#SVGID_2422_"  overflow="visible"/>
										</clipPath>
										<rect x="149.443" y="105.052" clip-path="url(#SVGID_59_)" fill="#A6BE5D" width="33.599" height="34.265"/>
									</g>
								</g>
								<g clip-path="url(#SVGID_21_)">
									<defs>
										<path id="SVGID_2424_" d="M181.674,119.207l-16.998,17.384c0.528,0.695,1.042,1.413,1.535,2.153l0.109-0.01
											c0.26,1.749,0.362,3.038,0.384,4.814c0.01,0.678,0.002,1.351-0.025,2.02l0.094-0.037c0.027-0.668,0.035-1.342,0.027-2.02
											c-0.027-1.776-0.179-3.524-0.439-5.27c0.637,2.232,1.131,4.523,1.481,6.863l21.192-8.444
											C191.334,124.653,181.674,119.207,181.674,119.207"/>
									</defs>
									<clipPath id="SVGID_60_">
										<use xlink:href="#SVGID_2424_"  overflow="visible"/>
									</clipPath>
									<g clip-path="url(#SVGID_60_)">
										<defs>
											<rect id="SVGID_2426_" x="-0.198" y="-0.586" width="234.097" height="205.159"/>
										</defs>
										<clipPath id="SVGID_61_">
											<use xlink:href="#SVGID_2426_"  overflow="visible"/>
										</clipPath>
										<rect x="159.695" y="114.204" clip-path="url(#SVGID_61_)" fill="#A6BE5D" width="34.674" height="36.369"/>
									</g>
								</g>
								<g clip-path="url(#SVGID_21_)">
									<defs>
										<path id="SVGID_2428_" d="M187.207,142.809l-18.836,4.069l-0.298-0.035c0.228,1.953,0.357,3.939,0.387,5.951
											c0.037,2.853-0.139,5.657-0.516,8.402l13.042,7.014C193.149,156.884,187.207,142.809,187.207,142.809 M166.62,146.671
											c-0.298,4.311-1.324,8.4-2.956,12.222l0.055,0.03c1.649-3.828,2.688-7.924,2.993-12.242L166.62,146.671"/>
									</defs>
									<clipPath id="SVGID_62_">
										<use xlink:href="#SVGID_2428_"  overflow="visible"/>
									</clipPath>
									<g clip-path="url(#SVGID_62_)">
										<defs>
											<rect id="SVGID_2430_" x="-0.198" y="-0.586" width="234.097" height="205.159"/>
										</defs>
										<clipPath id="SVGID_63_">
											<use xlink:href="#SVGID_2430_"  overflow="visible"/>
										</clipPath>
										<rect x="158.683" y="137.805" clip-path="url(#SVGID_63_)" fill="#A6BE5D" width="34.956" height="35.41"/>
									</g>
								</g>
								<g clip-path="url(#SVGID_21_)">
									<defs>
										<path id="SVGID_2432_" d="M167.481,164.018c-1.538,8.057-4.824,15.51-9.451,21.952l1.89,2.952
											c8.725-2.57,19.451-18.78,19.451-18.78L167.481,164.018"/>
									</defs>
									<clipPath id="SVGID_64_">
										<use xlink:href="#SVGID_2432_"  overflow="visible"/>
									</clipPath>
									<g clip-path="url(#SVGID_64_)">
										<defs>
											<rect id="SVGID_2434_" x="-0.198" y="-0.586" width="234.097" height="205.159"/>
										</defs>
										<clipPath id="SVGID_65_">
											<use xlink:href="#SVGID_2434_"  overflow="visible"/>
										</clipPath>
										<rect x="153.049" y="159.014" clip-path="url(#SVGID_65_)" fill="#A6BE5D" width="31.302" height="34.911"/>
									</g>
								</g>
								<g clip-path="url(#SVGID_21_)">
									<defs>
										<polyline id="SVGID_2436_" points="134.779,117.173 146.215,108.795 149.25,150.089 134.779,117.173 										"/>
									</defs>
									<clipPath id="SVGID_66_">
										<use xlink:href="#SVGID_2436_"  overflow="visible"/>
									</clipPath>
									<g clip-path="url(#SVGID_66_)">
										<defs>
											<rect id="SVGID_2438_" x="-0.198" y="-0.586" width="234.097" height="205.159"/>
										</defs>
										<clipPath id="SVGID_68_">
											<use xlink:href="#SVGID_2438_"  overflow="visible"/>
										</clipPath>
										<rect x="129.799" y="103.791" clip-path="url(#SVGID_68_)" fill="#CBDF8E" width="24.432" height="51.302"/>
									</g>
								</g>
								<g clip-path="url(#SVGID_21_)">
									<defs>
										<path id="SVGID_2440_" d="M149.672,111.007c-1.029,0-2.133,0.333-3.234,0.858l0.769,10.437
											c1.669,0.875,3.321,1.832,4.935,2.876l-0.186-13.468C151.264,111.219,150.49,111.007,149.672,111.007"/>
									</defs>
									<clipPath id="SVGID_70_">
										<use xlink:href="#SVGID_2440_"  overflow="visible"/>
									</clipPath>
									<g clip-path="url(#SVGID_70_)">
										<defs>
											<rect id="SVGID_2442_" x="-0.198" y="-0.586" width="234.097" height="205.159"/>
										</defs>
										<clipPath id="SVGID_71_">
											<use xlink:href="#SVGID_2442_"  overflow="visible"/>
										</clipPath>
										<rect x="141.457" y="106.004" clip-path="url(#SVGID_71_)" fill="#A6BE5D" width="15.666" height="24.179"/>
									</g>
								</g>
								<g clip-path="url(#SVGID_21_)">
									<defs>
										<path id="SVGID_2444_" d="M146.438,111.866c-3.534,1.694-7.056,5.394-8.087,6.53c2.931,1.078,5.922,2.368,8.856,3.906
											L146.438,111.866"/>
									</defs>
									<clipPath id="SVGID_72_">
										<use xlink:href="#SVGID_2444_"  overflow="visible"/>
									</clipPath>
									<g clip-path="url(#SVGID_72_)">
										<defs>
											<rect id="SVGID_2446_" x="-0.198" y="-0.586" width="234.097" height="205.159"/>
										</defs>
										<clipPath id="SVGID_73_">
											<use xlink:href="#SVGID_2446_"  overflow="visible"/>
										</clipPath>
										<rect x="133.37" y="106.862" clip-path="url(#SVGID_73_)" fill="#A6BE5D" width="18.818" height="20.445"/>
									</g>
								</g>
								<g clip-path="url(#SVGID_21_)">
									<defs>
										<path id="SVGID_2448_" d="M57.085,146.531c0.027,0.651-0.196,1.295-0.136,1.931c0.03,0.284-0.072,0.565-0.042,0.846
											c0.052,0.449,0.045,0.898,0.112,1.342c0.074,0.469,0.124,0.937,0.213,1.403c0.047,0.247,0.079,0.496,0.129,0.742
											c0.144,0.661,0.29,1.317,0.464,1.963l0.037,0.146c5.89,21.379,29.827,35.701,53.353,35.378
											c15.116-0.207,30.621-6.188,41.404-16.077c8.66-7.998,14.255-18.536,14.087-30.655c-0.022-1.776-0.124-3.065-0.384-4.814
											l-0.109,0.01c-16.304-24.425-53.933-25.846-53.933-25.846c-45.885-2.266-55.441,29.843-55.441,29.843
											c-0.002,0.419-0.382,3.29-0.37,3.684L57.085,146.531"/>
									</defs>
									<clipPath id="SVGID_74_">
										<use xlink:href="#SVGID_2448_"  overflow="visible"/>
									</clipPath>
									<g clip-path="url(#SVGID_74_)">
										<defs>
											<rect id="SVGID_2450_" x="-0.198" y="-0.586" width="234.097" height="205.159"/>
										</defs>
										<clipPath id="SVGID_75_">
											<use xlink:href="#SVGID_2450_"  overflow="visible"/>
										</clipPath>
										<rect x="51.487" y="107.781" clip-path="url(#SVGID_75_)" fill="#CBDF8E" width="120.202" height="87.51"/>
									</g>
								</g>
								<g clip-path="url(#SVGID_21_)">
									<defs>
										<path id="SVGID_2452_" d="M56.468,146.222c-0.05,2.205-0.454,5.371-0.414,8.198c0.429,30.825,26,55.415,57.001,54.991
											c31-0.427,55.83-25.789,55.406-56.616c-0.074-5.043-0.776-9.926-2.098-14.553c0.26,1.746,0.412,3.495,0.439,5.27
											c0.166,12.146-5.468,22.696-14.186,30.692c-10.758,9.931-26.258,15.939-41.401,16.146
											c-23.573,0.323-47.529-14.008-53.358-35.447l-0.037-0.143c-0.176-0.649-0.335-1.305-0.474-1.966
											c-0.055-0.244-0.099-0.496-0.146-0.74c-0.089-0.469-0.042-5.051-0.114-5.524L56.468,146.222"/>
									</defs>
									<clipPath id="SVGID_76_">
										<use xlink:href="#SVGID_2452_"  overflow="visible"/>
									</clipPath>
									<g clip-path="url(#SVGID_76_)">
										<defs>
											<rect id="SVGID_2454_" x="-0.198" y="-0.586" width="234.097" height="205.159"/>
										</defs>
										<clipPath id="SVGID_77_">
											<use xlink:href="#SVGID_2454_"  overflow="visible"/>
										</clipPath>
										<rect x="51.07" y="133.238" clip-path="url(#SVGID_77_)" fill="#819D2C" width="122.376" height="81.183"/>
									</g>
								</g>
								<g clip-path="url(#SVGID_21_)">
									<defs>
										<path id="SVGID_2456_" d="M118.178,117.4l-5.149,30.228l0.015,0.962l28.557-22.102
											C135.184,118.616,118.178,117.4,118.178,117.4"/>
									</defs>
									<clipPath id="SVGID_78_">
										<use xlink:href="#SVGID_2456_"  overflow="visible"/>
									</clipPath>
									<g clip-path="url(#SVGID_78_)">
										<defs>
											<rect id="SVGID_2458_" x="-0.198" y="-0.586" width="234.097" height="205.159"/>
										</defs>
										<clipPath id="SVGID_79_">
											<use xlink:href="#SVGID_2458_"  overflow="visible"/>
										</clipPath>
										<rect x="108.049" y="112.396" clip-path="url(#SVGID_79_)" fill="#A6BE5D" width="38.534" height="41.198"/>
									</g>
								</g>
								<g clip-path="url(#SVGID_21_)">
									<defs>
										<path id="SVGID_2460_" d="M143.544,128.392l-27.119,21.36l42.148-4.678C156.462,132.799,143.544,128.392,143.544,128.392"
											/>
									</defs>
									<clipPath id="SVGID_80_">
										<use xlink:href="#SVGID_2460_"  overflow="visible"/>
									</clipPath>
									<g clip-path="url(#SVGID_80_)">
										<defs>
											<rect id="SVGID_2462_" x="-0.198" y="-0.586" width="234.097" height="205.159"/>
										</defs>
										<clipPath id="SVGID_81_">
											<use xlink:href="#SVGID_2462_"  overflow="visible"/>
										</clipPath>
										<rect x="111.444" y="123.388" clip-path="url(#SVGID_81_)" fill="#A6BE5D" width="52.109" height="31.367"/>
									</g>
								</g>
								<g clip-path="url(#SVGID_21_)">
									<defs>
										<path id="SVGID_2464_" d="M158.401,150.141L116.95,152.4l32.258,17.167C158.367,165.101,158.401,150.141,158.401,150.141"
											/>
									</defs>
									<clipPath id="SVGID_82_">
										<use xlink:href="#SVGID_2464_"  overflow="visible"/>
									</clipPath>
									<g clip-path="url(#SVGID_82_)">
										<defs>
											<rect id="SVGID_2466_" x="-0.198" y="-0.586" width="234.097" height="205.159"/>
										</defs>
										<clipPath id="SVGID_83_">
											<use xlink:href="#SVGID_2466_"  overflow="visible"/>
										</clipPath>
										<rect x="111.97" y="145.137" clip-path="url(#SVGID_83_)" fill="#A6BE5D" width="51.413" height="29.434"/>
									</g>
								</g>
								<g clip-path="url(#SVGID_21_)">
									<defs>
										<path id="SVGID_2468_" d="M114.805,155.322l10.585,28.563h0.119c11.594,0,21.789-12.121,21.789-12.121L114.805,155.322"/>
									</defs>
									<clipPath id="SVGID_84_">
										<use xlink:href="#SVGID_2468_"  overflow="visible"/>
									</clipPath>
									<g clip-path="url(#SVGID_84_)">
										<defs>
											<rect id="SVGID_2470_" x="-0.198" y="-0.586" width="234.097" height="205.159"/>
										</defs>
										<clipPath id="SVGID_85_">
											<use xlink:href="#SVGID_2470_"  overflow="visible"/>
										</clipPath>
										<rect x="109.824" y="150.319" clip-path="url(#SVGID_85_)" fill="#A6BE5D" width="42.455" height="38.571"/>
									</g>
								</g>
								<g clip-path="url(#SVGID_21_)">
									<defs>
										<path id="SVGID_2472_" d="M110.713,157.549l-16.857,26.529c4.772,1.84,9.764,2.412,14.136,2.412
											c7.254,0,12.802-1.578,12.802-1.578L110.713,157.549"/>
									</defs>
									<clipPath id="SVGID_86_">
										<use xlink:href="#SVGID_2472_"  overflow="visible"/>
									</clipPath>
									<g clip-path="url(#SVGID_86_)">
										<defs>
											<rect id="SVGID_2474_" x="-0.198" y="-0.586" width="234.097" height="205.159"/>
										</defs>
										<clipPath id="SVGID_87_">
											<use xlink:href="#SVGID_2474_"  overflow="visible"/>
										</clipPath>
										<rect x="88.876" y="152.546" clip-path="url(#SVGID_87_)" fill="#A6BE5D" width="36.9" height="38.949"/>
									</g>
								</g>
								<g clip-path="url(#SVGID_21_)">
									<defs>
										<path id="SVGID_2476_" d="M107.053,156.154l-35.707,13.998c4.236,8.143,17.385,11.584,17.385,11.584L107.053,156.154"/>
									</defs>
									<clipPath id="SVGID_88_">
										<use xlink:href="#SVGID_2476_"  overflow="visible"/>
									</clipPath>
									<g clip-path="url(#SVGID_88_)">
										<defs>
											<rect id="SVGID_2478_" x="-0.198" y="-0.586" width="234.097" height="205.159"/>
										</defs>
										<clipPath id="SVGID_90_">
											<use xlink:href="#SVGID_2478_"  overflow="visible"/>
										</clipPath>
										<rect x="66.365" y="151.15" clip-path="url(#SVGID_90_)" fill="#A6BE5D" width="45.669" height="35.59"/>
									</g>
								</g>
								<g clip-path="url(#SVGID_21_)">
									<defs>
										<path id="SVGID_2480_" d="M66.42,147.542c-5.506,5.384,1.729,19.759,1.729,19.759l37.892-14.272L66.42,147.542"/>
									</defs>
									<clipPath id="SVGID_92_">
										<use xlink:href="#SVGID_2480_"  overflow="visible"/>
									</clipPath>
									<g clip-path="url(#SVGID_92_)">
										<defs>
											<rect id="SVGID_2482_" x="-0.198" y="-0.586" width="234.097" height="205.159"/>
										</defs>
										<clipPath id="SVGID_94_">
											<use xlink:href="#SVGID_2482_"  overflow="visible"/>
										</clipPath>
										<rect x="59.372" y="142.538" clip-path="url(#SVGID_94_)" fill="#A6BE5D" width="51.65" height="29.767"/>
									</g>
								</g>
								<g clip-path="url(#SVGID_21_)">
									<defs>
										<path id="SVGID_2484_" d="M82.401,127.242c-10.934,0-15.054,17.152-15.054,17.152l39.14,5.734l-23.124-22.842
											C83.039,127.257,82.716,127.242,82.401,127.242"/>
									</defs>
									<clipPath id="SVGID_96_">
										<use xlink:href="#SVGID_2484_"  overflow="visible"/>
									</clipPath>
									<g clip-path="url(#SVGID_96_)">
										<defs>
											<rect id="SVGID_2486_" x="-0.198" y="-0.586" width="234.097" height="205.159"/>
										</defs>
										<clipPath id="SVGID_98_">
											<use xlink:href="#SVGID_2486_"  overflow="visible"/>
										</clipPath>
										<rect x="62.367" y="122.239" clip-path="url(#SVGID_98_)" fill="#A6BE5D" width="49.101" height="32.894"/>
									</g>
								</g>
								<g clip-path="url(#SVGID_21_)">
									<defs>
										<path id="SVGID_2488_" d="M104.513,117.96c-10.577,0-17.524,8.314-17.524,8.314l21.899,22.137l4.945-28.292
											C110.505,118.569,107.375,117.96,104.513,117.96"/>
									</defs>
									<clipPath id="SVGID_100_">
										<use xlink:href="#SVGID_2488_"  overflow="visible"/>
									</clipPath>
									<g clip-path="url(#SVGID_100_)">
										<defs>
											<rect id="SVGID_2490_" x="-0.198" y="-0.586" width="234.097" height="205.159"/>
										</defs>
										<clipPath id="SVGID_102_">
											<use xlink:href="#SVGID_2490_"  overflow="visible"/>
										</clipPath>
										<rect x="82.009" y="112.956" clip-path="url(#SVGID_102_)" fill="#A6BE5D" width="36.805" height="40.458"/>
									</g>
								</g>
							</g>
						</g>
					</g>
				</g>
			</g>
		</g>
		
			<use xlink:href="#SVGID_2352_"  overflow="visible" fill-rule="evenodd" clip-rule="evenodd" fill="none" stroke="#819D2C" stroke-miterlimit="10"/>
	</g>
</g>
</svg>
