<?xml version="1.0" encoding="utf-8"?>
<!-- Generator: Adobe Illustrator 17.0.0, SVG Export Plug-In . SVG Version: 6.00 Build 0)  -->
<!DOCTYPE svg PUBLIC "-//W3C//DTD SVG 1.1//EN" "http://www.w3.org/Graphics/SVG/1.1/DTD/svg11.dtd">
<svg version="1.1" id="Layer_1" xmlns="http://www.w3.org/2000/svg" xmlns:xlink="http://www.w3.org/1999/xlink" x="0px" y="0px"
	 width="581.238px" height="253.981px" viewBox="0 0 581.238 253.981" enable-background="new 0 0 581.238 253.981"
	 xml:space="preserve">
<rect x="71.289" y="44.691" fill="#FFFFFF" width="408" height="162"/>
<g>
	<defs>
		<polygon id="SVGID_22_" points="-590.711,-280.309 -590.711,-76.309 -407.923,-76.309 -353.486,-280.309 		"/>
	</defs>
	<clipPath id="SVGID_2_">
		<use xlink:href="#SVGID_22_"  overflow="visible"/>
	</clipPath>
	<g clip-path="url(#SVGID_2_)">
	</g>
</g>
<g>
	<defs>
		<polygon id="SVGID_2078_" points="-591.217,18.93 -591.217,224.411 -412.041,224.411 -356.623,19.888 		"/>
	</defs>
	<clipPath id="SVGID_4_">
		<use xlink:href="#SVGID_2078_"  overflow="visible"/>
	</clipPath>
	<g clip-path="url(#SVGID_4_)">
		<defs>
			<rect id="SVGID_2080_" x="-712.695" y="-1844.685" width="1923.24" height="3789.385"/>
		</defs>
		<clipPath id="SVGID_6_">
			<use xlink:href="#SVGID_2080_"  overflow="visible"/>
		</clipPath>
	</g>
</g>
<g>
	<path fill="#2A4857" d="M111.628,101.584c0-0.767,0-2.044,0-4.287c0-2.716-2.467-5.064-5.736-5.064c0,0-0.019,0-7.639,0
		l-0.042-2.383c0-0.685-0.558-1.244-1.245-1.244h-2.987v-1.53c0.259-0.153,0.473-0.345,0.654-0.58c0.897,0,2.712,0,6.36,0
		c0.426,0.546,1.055,0.925,1.798,0.925c1.267,0,2.297-1.028,2.297-2.297c0-1.272-1.031-2.302-2.298-2.302
		c-0.76,0-1.405,0.401-1.822,0.973c-1.005,0-2.886,0-6.306,0c-0.424-0.572-1.064-0.973-1.827-0.973
		c-0.758,0-1.405,0.401-1.822,0.973c-1.951,0-4.265,0-6.963,0c-0.417-0.572-1.059-0.973-1.818-0.973c-1.271,0-2.3,1.03-2.3,2.301
		c0,1.27,1.029,2.297,2.3,2.297c0.739,0,1.37-0.379,1.786-0.925c1.151,0,3.248,0,7.022,0c0.184,0.24,0.402,0.435,0.666,0.582v1.528
		h-3.171c-0.685,0-1.243,0.559-1.243,1.244v2.383c-0.779,0-10.617,0-16.888,0v7.427c0.219,0,9.33,0,17.931,0
		c1.012,2.03,2.361,3.036,4.388,3.036c2.024,0,3.712-1.005,4.725-3.036c0,0,0,0,3.714,0c1.109,0,1.518,0.713,1.636,2.081
		c-0.325,0.221-0.548,0.58-0.548,1.005c0,0.687,0.558,1.245,1.243,1.245h7.707c0.687,0,1.245-0.558,1.245-1.245
		C112.448,102.206,112.107,101.758,111.628,101.584z"/>
	<polygon opacity="0.2" fill="#90DBE0" points="71.289,44.691 71.289,205.691 171.463,205.691 209.327,44.691 	"/>
	<polygon opacity="0.3" fill="#90DBE0" points="212.224,44.691 174.361,205.691 320.493,205.691 356.37,44.691 	"/>
	<polygon opacity="0.4" fill="#90DBE0" points="479.289,45.691 359.268,45.691 323.391,206.691 479.289,206.691 	"/>
	<polygon fill="#38ADBD" points="108.985,140.653 87.745,140.653 95.71,181.507 108.985,181.507 122.261,181.507 130.225,140.653 	
		"/>
	<path fill="#247A86" d="M130.731,138.878h-21.746H87.24c-0.28,0-0.506,0.227-0.506,0.506c0,0.28,0.226,0.506,0.506,0.506h21.746
		h21.746c0.28,0,0.506-0.226,0.506-0.506C131.236,139.105,131.01,138.878,130.731,138.878z"/>
	<path fill="#247A86" d="M122.234,182.519h-13.249h-13.25c-0.279,0-0.506,0.227-0.506,0.506c0,0.28,0.227,0.506,0.506,0.506h13.25
		h13.249c0.28,0,0.506-0.226,0.506-0.506C122.74,182.745,122.514,182.519,122.234,182.519z"/>
	<path fill="#247A86" d="M122.234,188.204h-13.249h-13.25c-0.279,0-0.506,0.227-0.506,0.506c0,0.28,0.227,0.506,0.506,0.506h13.25
		h13.249c0.28,0,0.506-0.226,0.506-0.506C122.74,188.429,122.514,188.204,122.234,188.204z"/>
	<polygon fill="#38ADBD" points="108.985,184.33 95.836,184.33 95.836,187.442 108.985,187.442 122.133,187.442 122.133,184.33 	"/>
	<polygon fill="#38ADBD" points="147.189,153.387 131.96,153.387 137.671,182.677 147.189,182.677 156.707,182.677 162.417,153.387 
			"/>
	<path fill="#247A86" d="M162.78,152.114h-15.591h-15.591c-0.201,0-0.363,0.162-0.363,0.363c0,0.201,0.162,0.363,0.363,0.363h15.591
		h15.591c0.201,0,0.363-0.162,0.363-0.363C163.142,152.276,162.98,152.114,162.78,152.114z"/>
	<path fill="#247A86" d="M156.688,183.403h-9.499h-9.499c-0.2,0-0.363,0.162-0.363,0.363c0,0.201,0.162,0.363,0.363,0.363h9.499
		h9.499c0.201,0,0.363-0.162,0.363-0.363C157.05,183.565,156.889,183.403,156.688,183.403z"/>
	<path fill="#247A86" d="M156.688,187.478h-9.499h-9.499c-0.2,0-0.363,0.162-0.363,0.363c0,0.201,0.162,0.363,0.363,0.363h9.499
		h9.499c0.201,0,0.363-0.162,0.363-0.363S156.889,187.478,156.688,187.478z"/>
	<polygon fill="#38ADBD" points="147.189,184.701 137.761,184.701 137.761,186.932 147.189,186.932 156.616,186.932 
		156.616,184.701 	"/>
	<path fill="#247A86" d="M107.21,106.501c0.458,0.915,2.521,5.725,2.521,6.415c0,3.773-5.04,3.773-5.04,0
		C104.691,112.226,106.753,107.188,107.21,106.501z"/>
	<path fill="#38ADBD" d="M107.21,118.275c0.293,0.584,1.609,3.655,1.609,4.096c0,2.409-3.218,2.409-3.218,0
		C105.602,121.93,106.918,118.713,107.21,118.275z"/>
	<path fill="#90DBE0" d="M107.21,128.164c0.203,0.405,1.115,2.532,1.115,2.837c0,1.669-2.229,1.669-2.229,0
		C106.096,130.696,107.008,128.468,107.21,128.164z"/>
	<g>
		<defs>
			<polygon id="SVGID_2454_" points="212.224,44.691 174.361,205.691 320.493,205.691 356.37,44.691 			"/>
		</defs>
		<clipPath id="SVGID_8_">
			<use xlink:href="#SVGID_2454_"  overflow="visible"/>
		</clipPath>
		<g clip-path="url(#SVGID_8_)">
			<path fill="#FFFFFF" d="M275.087,135.841c0.432,0.3,0.864,0.6,1.33,0.923c0.163-0.264,0.327-0.491,0.452-0.738
				c0.932-1.851,2.465-3.088,4.223-4.068c2.016-1.125,4.225-1.777,6.411-2.477c0.045-0.014,0.092-0.021,0.139-0.029
				c0.825-0.138,1.046,0.076,0.813,0.877c-0.184,0.632-0.421,1.254-0.692,1.855c-0.34,0.752-0.889,1.324-1.634,1.711
				c-0.755,0.392-1.492,0.818-2.24,1.224c-0.908,0.493-1.735,1.074-2.368,1.916c-0.425,0.566-0.912,1.085-1.335,1.682
				c0.191-0.128,0.379-0.26,0.573-0.382c2.092-1.319,4.187-2.634,6.277-3.958c0.439-0.278,0.854-0.593,1.286-0.882
				c0.67-0.448,1.072-0.28,1.237,0.517c0.218,1.046-0.033,1.988-0.742,2.768c-1.468,1.615-3.07,3.074-4.955,4.209
				c-0.56,0.337-1.046,0.804-1.531,1.25c-0.121,0.112-0.197,0.41-0.137,0.559c0.325,0.809,0.144,1.551-0.16,2.316
				c-0.767,1.931-1.375,3.938-2.586,5.661c-1.61,2.291-3.384,4.421-5.697,6.071c-1.709,1.219-3.201,2.695-4.631,4.241
				c-2.985,3.226-6.28,6.092-9.879,8.637c-3.486,2.466-6.845,5.111-10.254,7.685c-4.805,3.628-9.637,7.222-14.388,10.919
				c-1.502,1.169-3.063,1.252-4.722,0.797c-1.525-0.419-3.056-0.898-4.483-1.566c-1.645-0.77-3.188-1.762-4.759-2.685
				c-1.117-0.656-1.75-1.616-1.844-2.952c-0.193-2.754,0.007-5.446,1.02-8.044c0.596-1.527,1.702-2.629,2.955-3.613
				c2.359-1.851,4.992-3.24,7.683-4.528c3.491-1.67,7.189-2.795,10.815-4.112c2.56-0.93,5.11-1.892,7.626-2.934
				c2.483-1.029,4.964-2.082,7.357-3.299c2.2-1.119,4.332-2.395,6.265-3.958c1.07-0.866,1.922-1.893,2.405-3.213
				c0.427-1.168,0.984-2.292,1.366-3.473c0.284-0.877,0.433-1.808,0.55-2.727c0.313-2.453,0.577-4.912,0.858-7.369
				c0.2-1.746,0.693-3.384,1.681-4.864c1.436-2.15,2.807-4.351,4.584-6.243c0.718-0.765,1.534-1.45,2.365-2.094
				c0.626-0.485,1.078-0.266,1.36,0.491c0.233,0.627,0.084,1.168-0.261,1.699c-1.803,2.772-3.361,5.704-5.429,8.302
				c-0.889,1.117-1.319,2.418-1.628,3.932c0.356-0.399,0.659-0.683,0.896-1.013c0.743-1.035,1.468-2.084,2.187-3.136
				c0.672-0.982,1.481-1.786,2.604-2.256c1.045-0.437,2.053-0.961,3.101-1.392c1.348-0.554,2.794-0.624,4.224-0.68
				c1.106-0.043,1.737,0.818,2.536,1.497c-0.398,0.178-0.723,0.325-1.049,0.469c-1.206,0.535-2.439,1.017-3.613,1.616
				c-1.514,0.773-3.001,1.613-3.936,3.13c-0.041,0.067-0.093,0.128-0.146,0.186c-0.581,0.64-0.924,1.604-2.107,1.425
				C275.068,135.759,275.078,135.8,275.087,135.841z"/>
			<path fill="#FFFFFF" d="M233.149,128.719c1.221-0.303,2.424-0.601,3.667-0.909c-0.166-0.82-0.348-1.614-0.481-2.415
				c-0.124-0.745-0.197-1.499-0.291-2.249c-0.103-0.82,0.175-1.479,0.822-1.996c0.948-0.758,1.893-1.519,2.827-2.294
				c0.546-0.453,1.062-0.94,1.599-1.403c1.017-0.877,1.258-1.988,0.865-3.213c-0.296-0.924-0.721-1.808-1.097-2.706
				c-0.072-0.172-0.185-0.326-0.295-0.514c0.978-0.425,1.953-0.791,2.873-1.262c1.737-0.89,3.466-1.799,5.154-2.776
				c2.064-1.194,2.701-3.254,3.098-5.425c0.059-0.324,0.132-0.653,0.128-0.979c-0.005-0.423,0.243-0.53,0.578-0.586
				c2.011-0.335,4.005-0.351,5.995,0.183c2.029,0.545,4.111,0.601,6.198,0.555c0.171-0.004,0.343,0,0.562,0
				c0.014,0.214,0.034,0.43,0.042,0.647c0.034,0.961,0.124,1.925,0.082,2.883c-0.053,1.204,0.288,2.292,0.727,3.381
				c0.529,1.313,1.011,2.644,1.519,3.982c-1.028,0.66-2.105,1.233-2.716,2.452c0.649,0.122,1.113-0.126,1.584-0.309
				c0.483-0.189,0.954-0.406,1.509-0.644c0.213,1.309,0.421,2.587,0.63,3.87c-0.446,0.078-0.868,0.125-1.275,0.23
				c-1.021,0.265-1.488,0.878-1.428,1.926c0.026,0.451,0.029,1.012,0.289,1.307c0.233,0.265,0.803,0.233,1.373,0.367
				c-0.189,0.138-0.367,0.234-0.502,0.372c-2.702,2.758-4.888,5.861-6.138,9.541c-0.684,2.013-0.522,3.981,0.964,5.633
				c0.473,0.526,1.145,0.875,1.731,1.297c0.345,0.249,0.871,0.416,1,0.744c0.124,0.316-0.156,0.792-0.262,1.197
				c-0.08,0.304-0.167,0.607-0.212,0.768c0.524,0.631,1.02,1.167,1.433,1.76c0.143,0.205,0.178,0.585,0.096,0.831
				c-0.481,1.447-0.913,2.923-1.549,4.303c-0.947,2.058-2.714,3.071-4.915,3.389c-1.503,0.217-2.947-0.091-4.386-0.47
				c-2.406-0.633-4.81-1.275-7.225-1.876c-2.673-0.666-4.859-2.079-6.707-4.104c-1.497-1.64-3.078-3.203-4.627-4.805
				c-1.837,1.792-3.993,1.5-6.14,0.81c-3.427-1.102-6.103-3.21-8.03-6.266c-1.221-1.937-1.554-4.025-1.145-6.253
				c0.108-0.588,0.202-1.182,0.367-1.755c0.287-0.992,0.968-1.647,1.971-1.841c2.532-0.49,4.988-0.306,7.285,0.995
				c1.065,0.603,1.627,1.593,2.078,2.671C232.901,128.064,233.014,128.373,233.149,128.719z M223.207,130.796
				c0.4-0.796,0.765-1.572,1.174-2.325c0.444-0.815,1.352-1.458,2.409-0.955c0.339,0.161,0.703,0.286,1.069,0.37
				c1.061,0.242,1.543,0.946,1.665,1.973c0.077,0.647,0.047,0.711-0.552,0.955c-0.626,0.255-1.26,0.495-1.87,0.784
				c-0.168,0.079-0.263,0.311-0.392,0.473c0.158,0.113,0.3,0.279,0.475,0.33c0.514,0.148,1.04,0.251,1.562,0.369
				c0.335,0.075,0.496,0.264,0.519,0.624c0.041,0.645,0.138,1.285,0.188,1.93c0.03,0.392,0.228,0.623,0.598,0.679
				c0.309,0.047,0.628,0.066,0.941,0.05c0.881-0.044,1.761-0.116,2.641-0.169c0.356-0.021,0.741-0.03,0.831-0.458
				c0.092-0.436-0.045-0.849-0.496-1.009c-0.557-0.198-1.132-0.37-1.714-0.464c-0.73-0.117-1.128-0.423-1.172-1.168
				c-0.027-0.465,0.083-0.936,0.105-1.405c0.02-0.419,0.033-0.843-0.004-1.26c-0.031-0.342-0.157-0.674-0.214-1.016
				c-0.23-1.375-0.968-2.332-2.287-2.822c-1.089-0.405-2.211-0.494-3.352-0.317c-0.811,0.126-1.538,0.403-1.831,1.276
				C223.114,128.394,223.123,129.581,223.207,130.796z M254.413,116.183c0.293,0.018,0.451,0.063,0.59,0.03
				c0.758-0.178,1.527-0.329,2.262-0.578c0.685-0.231,1.351-0.419,2.069-0.209c0.375,0.11,0.799,0.326,1.111,0
				c0.326-0.34,0.084-0.774-0.029-1.161c-0.022-0.074-0.041-0.171-0.096-0.21c-0.12-0.086-0.278-0.222-0.393-0.199
				C257.982,114.254,256.276,115.217,254.413,116.183z"/>
			<path fill="#38ADBD" d="M266.265,165.857c1.407,2.127,2.693,4.121,3.03,6.566c0.103-1.966,0.207-3.932,0.309-5.899
				c0.04-0.772,0.062-1.545,0.116-2.315c0.017-0.245,0.074-0.505,0.182-0.724c0.392-0.789,0.801-1.571,1.23-2.341
				c0.264-0.473,0.659-0.765,1.229-0.855c1.197-0.188,2.386-0.428,3.619-0.653c0.085,0.282,0.16,0.533,0.236,0.784
				c0.266,0.88,0.755,1.614,1.439,2.223c0.319,0.285,0.678,0.336,0.964,0.013c0.373-0.421,0.773-0.855,1.003-1.357
				c0.639-1.398,1.202-2.831,1.782-4.255c0.228-0.559,0.421-1.132,0.66-1.78c0.586,1.723,1.095,3.372,1.706,4.982
				c1.211,3.194,2.369,6.416,3.758,9.533c1.139,2.557,2.955,4.654,5.424,6.076c1.329,0.765,2.826,1.054,4.324,1.3
				c0.087,0.014,0.173,0.029,0.26,0.043c0.007,0.04,0.013,0.08,0.02,0.12c-0.563,0.147-1.123,0.309-1.691,0.437
				c-1.394,0.314-2.746,0.285-4.138-0.182c-1.318-0.442-2.714-0.648-4.162-0.977c-0.054,1.18-0.12,2.229-0.147,3.28
				c-0.122,4.714-0.222,9.429-0.352,14.143c-0.09,3.282-0.42,6.541-0.955,9.782c-0.164,0.994-0.266,2.003-0.316,3.009
				c-0.025,0.501-0.201,0.582-0.648,0.58c-3.423-0.016-6.846-0.008-10.27-0.008c-2.224,0-4.448-0.001-6.672-0.002
				c-0.172,0-0.344,0-0.57,0c-0.067-0.827-0.151-1.623-0.193-2.42c-0.12-2.268-0.198-4.537-0.341-6.804
				c-0.16-2.548-0.313-5.1-0.576-7.639c-0.302-2.915-0.646-5.831-1.116-8.723c-0.368-2.267-0.963-4.497-1.442-6.746
				c-0.269-1.263-0.521-2.53-0.753-3.801c-0.042-0.23-0.021-0.531,0.097-0.721C264.263,168.988,265.241,167.469,266.265,165.857z"/>
			<path fill="#38ADBD" d="M266.294,208.429c-16.845-0.348-33.661-0.695-50.57-1.044c0.124-0.205,0.201-0.333,0.28-0.461
				c0.936-1.515,1.856-3.04,2.813-4.541c0.822-1.29,1.149-2.715,1.257-4.211c0.035-0.486,0.068-0.972,0.109-1.56
				c1.06,0.292,2.08,0.582,3.106,0.854c1.876,0.497,3.327,1.681,4.751,2.912c0.692,0.598,1.377,1.204,2.071,1.8
				c0.557,0.479,1.006,0.548,1.548,0.033c0.668-0.634,1.355-1.311,1.806-2.099c1.047-1.828,1.953-3.737,2.925-5.609
				c1.271-2.447,2.534-4.899,3.843-7.326c0.245-0.454,0.615-0.942,1.054-1.172c3.364-1.762,6.027-4.448,8.978-6.75
				c3.182-2.482,6.31-5.033,9.449-7.568c0.329-0.266,0.611-0.273,0.94-0.071c0.661,0.405,1.115,1.01,1.349,1.716
				c0.494,1.492,0.981,2.994,1.333,4.524c0.909,3.944,1.768,7.899,2.599,11.86c0.498,2.374,0.491,4.797,0.488,7.209
				c-0.005,3.612-0.059,7.223-0.094,10.834C266.326,207.962,266.308,208.165,266.294,208.429z"/>
			<path fill="#FFFFFF" d="M304.223,141.338c-1.274,0.953-2.539,1.84-3.737,2.811c-1.526,1.237-2.719,2.734-3.475,4.584
				c-0.834,2.04-1.833,4.016-2.284,6.195c-0.209,1.007-0.069,2.462,0.266,3.109c0.276-0.882,0.504-1.817,0.857-2.702
				c1.027-2.578,2.649-4.794,4.393-6.916c1.029-1.252,2.166-2.416,3.26-3.615c0.148-0.162,0.322-0.302,0.494-0.441
				c0.847-0.683,1.511-0.761,2.42-0.169c1.044,0.679,2.092,1.391,2.734,2.498c1.024,1.766,0.803,3.584-0.085,5.293
				c-1.545,2.971-3.748,5.415-6.457,7.369c-1.944,1.402-4.067,1.846-6.311,0.674c-0.738-0.386-1.476-0.793-2.147-1.281
				c-4.13-3.005-8.241-6.034-12.351-9.067c-0.113-0.083-0.209-0.319-0.176-0.449c0.392-1.557,0.784-3.114,1.227-4.657
				c0.485-1.691,1.457-2.944,3.075-3.806c1.375-0.733,2.461-1.915,3.341-3.223c0.455-0.677,0.84-1.407,1.195-2.142
				c0.307-0.635,0.405-1.347-0.054-1.938c-0.702-0.904-0.758-1.976-0.926-3.022c-0.169-1.051-0.796-1.618-1.884-1.657
				c-0.265-0.009-0.561-0.011-0.782-0.13c-0.203-0.109-0.431-0.355-0.463-0.568c-0.102-0.677-0.491-1.005-1.109-1.191
				c-1.306-0.392-2.596-0.066-3.892,0.044c-1.795,0.151-3.376,0.978-5.02,1.603c-0.513,0.195-1.018,0.413-1.525,0.619
				c-0.022-0.047-0.049-0.08-0.042-0.091c1.153-1.804,2.207-3.678,3.858-5.111c0.797-0.692,0.826-0.994,0.342-1.929
				c-0.122-0.236-0.261-0.471-0.429-0.676c-0.747-0.909-1.735-1.095-2.671-0.383c-0.823,0.626-1.618,1.322-2.296,2.1
				c-1.355,1.556-2.727,3.116-3.897,4.808c-1.33,1.923-2.318,4.057-2.751,6.381c-0.148,0.793-0.03,1.633-0.081,2.449
				c-0.039,0.62-0.153,1.235-0.245,1.935c-1.165-0.911-2.244-1.754-3.323-2.597c-1.861-1.453-2.375-3.41-1.472-5.616
				c2.22-5.424,6.004-9.445,11.071-12.306c0.699-0.395,1.437-0.72,2.136-1.114c0.294-0.165,0.47-0.093,0.698,0.101
				c3.828,3.262,7.66,6.518,11.494,9.773c5.156,4.377,10.315,8.751,15.471,13.127C303.2,140.459,303.723,140.91,304.223,141.338z"/>
			<path fill="#38ADBD" d="M215.761,188.642c-0.907-1.394-1.866-2.758-2.712-4.189c-2.081-3.522-1.742-7.014,0.411-10.348
				c1.418-2.195,2.94-4.334,4.56-6.383c0.786-0.994,1.892-1.739,2.875-2.572c0.986-0.835,2.004-1.632,2.995-2.462
				c0.22-0.184,0.385-0.433,0.576-0.652c-0.024-0.045-0.048-0.09-0.072-0.135c-0.218,0.039-0.443,0.053-0.652,0.122
				c-1.78,0.583-3.398,1.496-4.986,2.469c-0.705,0.432-1.424,0.841-2.137,1.26c-0.047-0.028-0.095-0.056-0.142-0.083
				c0.05-0.243,0.058-0.505,0.158-0.726c0.497-1.106,1.05-2.187,1.522-3.303c0.656-1.549,1.839-2.538,3.315-3.208
				c1.345-0.61,2.708-1.186,4.085-1.719c1.043-0.404,2.117-0.197,3.162,0.054c0.734,0.176,1.451,0.421,2.179,0.624
				c0.205,0.057,0.42,0.076,0.714,0.127c-0.099-0.577-0.431-0.88-0.788-1.15c-1.018-0.77-2.197-1.164-3.437-1.355
				c-0.85-0.131-1.731-0.303-2.559,0.094c-0.978,0.468-1.942,0.97-2.898,1.483c-0.644,0.345-1.265,0.734-1.928,1.075
				c0.741-1.535,1.523-3.035,2.847-4.166c0.79-0.675,1.66-1.276,2.354-2.038c1.083-1.19,2.316-1.483,3.832-1.095
				c1.91,0.488,3.844,0.913,5.601,1.829c1.396,0.727,2.721,1.588,4.08,2.386c2.147,1.261,4.296,2.519,6.443,3.779
				c0.079,0.047,0.154,0.101,0.232,0.153c-0.028,0.036-0.047,0.078-0.061,0.077c-0.822-0.104-1.523,0.233-2.246,0.56
				c-3.401,1.541-6.803,3.079-10.228,4.563c-1.689,0.731-3.453,1.288-5.142,2.017c-2.64,1.14-5.023,2.702-7.108,4.691
				c-2.336,2.228-3.553,5.044-4.207,8.147c-0.574,2.725-0.496,5.488-0.491,8.247c0.001,0.581,0,1.162,0,1.744
				C215.86,188.583,215.81,188.612,215.761,188.642z"/>
			<path fill="#FFFFFF" d="M291.234,128.555c0.637,0.136,1.281,0.249,1.91,0.415c1.095,0.289,2.234,0.493,3.261,0.944
				c2.359,1.038,4.62,2.265,6.158,4.453c0.379,0.539,0.75,1.099,1.017,1.697c0.899,2.017,2.153,3.804,3.449,5.575
				c1.078,1.472,2.072,3.006,3.107,4.51c1.179,1.714,2.491,3.352,3.511,5.155c1.386,2.449,2.61,4.996,3.786,7.555
				c0.78,1.697,1.4,3.474,2.008,5.244c0.421,1.224,0.594,2.483,0.356,3.812c-0.21,1.172-0.173,2.386-0.29,3.578
				c-0.121,1.244-0.858,2.016-1.996,2.461c-2.616,1.023-5.608,0.378-7.552-1.832c-1.78-2.024-3.352-4.221-4.555-6.654
				c-0.918-1.855-1.044-3.85-0.935-5.861c0.018-0.327,0.416-0.675,0.707-0.938c2.188-1.982,3.727-4.422,4.99-7.052
				c0.366-0.762,0.52-1.578,0.32-2.439c-0.092-0.396-0.083-0.814-0.129-1.22c-0.139-1.217-0.756-2.216-1.578-3.055
				c-1.962-2.002-3.919-4.016-5.987-5.906c-3.724-3.401-7.529-6.715-11.3-10.066c-0.102-0.091-0.195-0.192-0.293-0.289
				C291.211,128.613,291.222,128.584,291.234,128.555z"/>
			<path fill="#38ADBD" d="M252.628,151.777c-2.494,1.512-4.649,3.213-5.191,6.314c-1.225-0.826-2.401-1.586-3.541-2.398
				c-0.974-0.694-1.854-1.534-2.872-2.15c-1.26-0.761-2.578-1.465-3.947-2.001c-2.549-0.997-5.153-1.854-7.735-2.769
				c-0.161-0.057-0.324-0.109-0.524-0.176c0.435-1.388,0.862-2.75,1.32-4.208c1.198,0.277,2.405,0.458,3.543,0.842
				c1.681,0.567,3.291,1.346,4.971,1.917c4.456,1.515,8.933,2.967,13.402,4.444C252.213,151.645,252.372,151.695,252.628,151.777z"
				/>
			<path fill="#FFFFFF" d="M309.264,174.484c-0.765,0-1.451,0.017-2.136-0.004c-1.385-0.042-2.769-0.124-4.155-0.147
				c-0.381-0.006-0.575-0.151-0.713-0.468c-0.433-0.992-0.603-2.044-0.452-3.097c0.225-1.569,0.563-3.123,0.856-4.682
				c0.008-0.042,0.045-0.079,0.065-0.111c0.359,0.89,0.684,1.794,1.082,2.665c0.792,1.733,2.12,3.029,3.557,4.229
				C307.982,173.383,308.588,173.908,309.264,174.484z"/>
			<path fill="none" d="M297.538,177.198c-0.087-0.014-0.173-0.029-0.26-0.043C297.365,177.168,297.451,177.183,297.538,177.198
				c0.007,0.04,0.013,0.08,0.02,0.12h0C297.551,177.278,297.544,177.238,297.538,177.198z"/>
			<path fill="none" d="M309.067,151.985c0.889-1.709,1.109-3.527,0.085-5.293c-0.642-1.107-1.69-1.819-2.734-2.498
				c-0.91-0.592-1.573-0.514-2.42,0.169c-0.172,0.138-0.346,0.278-0.494,0.44c-1.094,1.199-2.231,2.363-3.26,3.615
				c-1.744,2.122-3.367,4.339-4.393,6.916c-0.353,0.885-0.581,1.819-0.857,2.702c-0.335-0.647-0.475-2.102-0.266-3.109
				c0.451-2.179,1.45-4.155,2.284-6.195c0.756-1.849,1.949-3.347,3.475-4.584c1.198-0.971,2.463-1.858,3.737-2.811
				c-0.5-0.428-1.023-0.879-1.55-1.326c-5.157-4.376-10.315-8.75-15.471-13.127c-3.834-3.255-7.667-6.511-11.494-9.772
				c-0.228-0.195-0.405-0.267-0.698-0.102c-0.7,0.393-1.437,0.719-2.136,1.114c-5.066,2.862-8.851,6.882-11.071,12.306
				c-0.903,2.207-0.389,4.163,1.472,5.616c1.079,0.843,2.157,1.686,3.323,2.597c0.091-0.699,0.206-1.314,0.245-1.935
				c0.051-0.815-0.067-1.655,0.081-2.449c0.433-2.325,1.421-4.459,2.751-6.381c1.171-1.693,2.542-3.253,3.897-4.808
				c0.678-0.778,1.473-1.474,2.296-2.101c0.937-0.712,1.924-0.526,2.671,0.383c0.169,0.205,0.307,0.44,0.429,0.676
				c0.484,0.935,0.456,1.238-0.342,1.929c-1.652,1.433-2.705,3.308-3.858,5.111c-0.007,0.011,0.019,0.044,0.042,0.091
				c0.507-0.207,1.012-0.424,1.525-0.619c1.644-0.625,3.225-1.452,5.02-1.603c1.296-0.109,2.586-0.436,3.892-0.044
				c0.618,0.185,1.007,0.514,1.109,1.191c0.032,0.213,0.259,0.459,0.463,0.568c0.221,0.119,0.517,0.121,0.781,0.13
				c1.088,0.039,1.716,0.606,1.884,1.657c0.168,1.046,0.225,2.118,0.926,3.022c0.458,0.591,0.361,1.303,0.054,1.938
				c-0.356,0.735-0.74,1.466-1.196,2.142c-0.88,1.308-1.966,2.49-3.341,3.223c-1.618,0.862-2.59,2.115-3.075,3.806
				c-0.443,1.543-0.835,3.101-1.227,4.657c-0.033,0.13,0.063,0.366,0.176,0.449c4.109,3.033,8.221,6.062,12.351,9.067
				c0.671,0.489,1.409,0.896,2.147,1.281c2.244,1.172,4.367,0.728,6.311-0.674C305.319,157.4,307.522,154.956,309.067,151.985z"/>
			<path fill="none" d="M266.528,190.517c-0.302-2.915-0.646-5.831-1.116-8.723c-0.368-2.267-0.963-4.497-1.442-6.746
				c-0.269-1.263-0.521-2.53-0.753-3.801c-0.021-0.114-0.025-0.245-0.011-0.372c-0.015,0.129-0.01,0.262,0.011,0.377
				c0.232,1.27,0.483,2.543,0.753,3.806c0.48,2.249,1.074,4.491,1.442,6.757c0.47,2.892,0.813,5.83,1.116,8.746
				c0.263,2.539,0.416,5.136,0.576,7.684c0.086,1.378,0.151,2.787,0.214,4.194c-0.063-1.442-0.127-2.897-0.214-4.285
				C266.945,195.607,266.792,193.056,266.528,190.517z"/>
			<path fill="none" d="M266.026,119.149c0.026,0.451,0.029,1.012,0.289,1.307c0.233,0.265,0.803,0.233,1.373,0.367l1.042-3.831
				c-0.446,0.079-0.868,0.125-1.275,0.23C266.433,117.487,265.966,118.101,266.026,119.149z"/>
			<path fill="none" d="M266.204,107.641c0.264,0.656,0.517,1.317,0.767,1.981C266.721,108.958,266.468,108.297,266.204,107.641z"/>
			<path opacity="0.4" fill="#90DBE0" d="M277.419,123.639c0.345-0.53,0.494-1.072,0.261-1.699c-0.282-0.757-0.734-0.976-1.36-0.491
				c-0.831,0.644-1.647,1.329-2.365,2.094c-1.777,1.893-3.148,4.093-4.584,6.243c-0.988,1.48-1.481,3.118-1.681,4.864
				c-0.281,2.457-0.546,4.916-0.858,7.369c-0.117,0.919-0.266,1.85-0.55,2.727c-0.382,1.181-0.939,2.305-1.366,3.473
				c-0.483,1.32-1.335,2.348-2.405,3.213c-1.933,1.563-4.065,2.838-6.265,3.958c-2.393,1.217-4.874,2.271-7.357,3.299
				c-2.515,1.042-5.066,2.004-7.625,2.934c-3.626,1.317-7.323,2.443-10.815,4.112c-2.692,1.287-5.325,2.676-7.683,4.528
				c-1.253,0.983-2.359,2.086-2.955,3.613c-1.013,2.598-1.213,5.29-1.02,8.044c0.093,1.336,0.727,2.295,1.844,2.952
				c1.571,0.923,3.114,1.915,4.759,2.685c1.427,0.668,2.959,1.147,4.483,1.566c1.659,0.455,3.219,0.372,4.722-0.797
				c4.752-3.697,9.583-7.291,14.388-10.919c3.409-2.574,6.768-5.219,10.254-7.685c3.598-2.545,6.894-5.411,9.879-8.637
				c1.43-1.545,2.922-3.022,4.631-4.241c2.313-1.65,4.087-3.78,5.697-6.071c1.211-1.723,1.819-3.73,2.586-5.661
				c0.304-0.765,0.485-1.508,0.16-2.316c-0.06-0.15,0.015-0.448,0.137-0.559c0.485-0.446,0.971-0.913,1.531-1.25
				c1.885-1.135,3.487-2.594,4.955-4.209c0.709-0.78,0.96-1.722,0.742-2.768c-0.166-0.797-0.567-0.965-1.237-0.517
				c-0.432,0.289-0.848,0.604-1.287,0.882c-2.089,1.324-4.184,2.638-6.277,3.958c-0.194,0.122-0.382,0.254-0.573,0.382
				c0.423-0.597,0.91-1.116,1.335-1.681c0.633-0.842,1.461-1.423,2.368-1.916c0.748-0.406,1.485-0.832,2.24-1.224
				c0.745-0.387,1.295-0.959,1.634-1.711c0.271-0.601,0.508-1.222,0.692-1.855c0.233-0.801,0.012-1.015-0.813-0.877
				c-0.047,0.008-0.094,0.015-0.139,0.029c-2.186,0.699-4.394,1.352-6.411,2.477c-1.757,0.98-3.29,2.217-4.223,4.069
				c-0.124,0.247-0.289,0.475-0.452,0.738c-0.465-0.323-0.897-0.623-1.329-0.923c-0.009-0.041-0.019-0.082-0.028-0.123
				c1.183,0.179,1.526-0.785,2.107-1.426c0.053-0.058,0.105-0.119,0.146-0.186c0.935-1.517,2.422-2.357,3.936-3.13
				c1.174-0.599,2.407-1.081,3.613-1.616c0.326-0.145,0.651-0.291,1.049-0.469c-0.799-0.679-1.43-1.54-2.536-1.497
				c-1.43,0.056-2.876,0.126-4.224,0.68c-1.047,0.43-2.056,0.954-3.101,1.392c-1.123,0.47-1.933,1.274-2.604,2.256
				c-0.72,1.052-1.445,2.101-2.187,3.136c-0.237,0.331-0.54,0.614-0.896,1.013c0.308-1.514,0.739-2.815,1.628-3.932
				C274.059,129.343,275.616,126.41,277.419,123.639z"/>
			<path fill="#90DBE0" d="M252.628,151.777c-0.256-0.082-0.415-0.132-0.573-0.184c-4.469-1.477-8.946-2.929-13.402-4.444
				c-1.68-0.571-3.29-1.35-4.971-1.917c-1.138-0.384-2.344-0.565-3.543-0.842c-0.457,1.458-0.885,2.82-1.32,4.208
				c0.2,0.067,0.363,0.119,0.524,0.176c2.581,0.915,5.186,1.772,7.735,2.769c1.369,0.535,2.687,1.239,3.947,2.001
				c1.018,0.615,1.898,1.456,2.872,2.15c1.14,0.811,2.316,1.572,3.541,2.398C247.978,154.99,250.134,153.289,252.628,151.777z"/>
			<path fill="#90DBE0" d="M227.715,165.726c1.689-0.729,3.453-1.286,5.142-2.017c3.426-1.483,6.828-3.022,10.228-4.563
				c0.724-0.328,1.424-0.664,2.246-0.56c0.014,0.002,0.034-0.041,0.061-0.077c-0.078-0.052-0.152-0.107-0.232-0.153
				c-2.148-1.26-4.296-2.518-6.443-3.779c-1.359-0.798-2.684-1.659-4.08-2.386c-1.758-0.915-3.692-1.34-5.601-1.829
				c-1.516-0.388-2.749-0.094-3.832,1.095c-0.694,0.762-1.565,1.363-2.354,2.038c-1.323,1.132-2.106,2.631-2.847,4.166
				c0.662-0.34,1.284-0.729,1.928-1.075c0.956-0.512,1.92-1.014,2.898-1.483c0.827-0.396,1.709-0.224,2.559-0.094
				c1.24,0.191,2.42,0.585,3.437,1.355c0.357,0.27,0.689,0.574,0.788,1.15c-0.294-0.051-0.509-0.07-0.714-0.127
				c-0.728-0.203-1.445-0.448-2.179-0.624c-1.046-0.251-2.119-0.457-3.162-0.054c-1.377,0.533-2.74,1.109-4.085,1.719
				c-1.476,0.67-2.659,1.659-3.315,3.208c-0.472,1.116-1.025,2.197-1.522,3.303c-0.099,0.221-0.108,0.483-0.158,0.726
				c0.048,0.028,0.095,0.055,0.142,0.083c0.713-0.419,1.432-0.828,2.137-1.26c1.588-0.973,3.206-1.886,4.986-2.469
				c0.208-0.068,0.434-0.082,0.652-0.122c0.024,0.045,0.048,0.09,0.072,0.135c-0.191,0.219-0.356,0.468-0.576,0.652
				c-0.991,0.829-2.009,1.626-2.995,2.462c-0.983,0.833-2.089,1.578-2.875,2.572c-1.62,2.049-3.142,4.188-4.56,6.383
				c-2.153,3.334-2.492,6.826-0.411,10.348c0.846,1.431,1.994,2.795,2.902,4.189c0.049-0.029,0.338-0.059,0.338-0.088
				c0-0.581,0-1.162,0-1.744c0-2.759-0.273-5.522,0.301-8.247c0.654-3.103,1.775-5.919,4.112-8.147
				C222.787,168.427,225.075,166.866,227.715,165.726z"/>
			<path opacity="0.4" fill="#90DBE0" d="M268.729,116.992c-0.209-1.283-0.417-2.561-0.63-3.87c-0.004,0.001-0.007,0.003-0.01,0.004
				c0.019,0.075,0.032,0.132,0.035,0.145c-0.002-0.013-0.016-0.07-0.035-0.145c-0.55,0.236-1.019,0.452-1.499,0.639
				c-0.47,0.184-0.935,0.431-1.584,0.309c0.608-1.211,1.675-1.784,2.697-2.439c-0.03-0.117-0.053-0.202-0.053-0.202
				s0.022,0.085,0.053,0.202c0.006-0.004,0.013-0.008,0.019-0.012c-0.007-0.018-0.014-0.037-0.021-0.055
				c-0.247-0.651-0.488-1.3-0.731-1.946c-0.25-0.664-0.503-1.325-0.767-1.981c-0.439-1.089-0.78-2.177-0.727-3.381
				c0.042-0.958-0.048-1.922-0.082-2.883c-0.008-0.216-0.028-0.432-0.042-0.647c-0.219,0-0.391-0.003-0.562,0
				c-2.087,0.046-4.169-0.011-6.198-0.555c-1.99-0.534-3.985-0.517-5.995-0.183c-0.335,0.056-0.583,0.163-0.578,0.586
				c0.004,0.326-0.069,0.655-0.128,0.979c-0.396,2.172-1.034,4.231-3.098,5.425c-1.688,0.977-3.418,1.886-5.154,2.776
				c-0.92,0.471-1.895,0.837-2.873,1.262c0.109,0.188,0.223,0.342,0.295,0.513c0.376,0.898,0.801,1.781,1.097,2.706
				c0.392,1.225,0.152,2.336-0.865,3.213c-0.537,0.463-1.054,0.95-1.599,1.403c-0.934,0.775-1.879,1.537-2.827,2.294
				c-0.647,0.517-0.925,1.176-0.822,1.996c0.094,0.75,0.167,1.504,0.291,2.249c0.133,0.801,0.315,1.594,0.481,2.415
				c-1.243,0.308-2.446,0.606-3.667,0.909c-0.135-0.346-0.247-0.654-0.374-0.957c-0.451-1.078-1.013-2.068-2.078-2.671
				c-2.297-1.3-4.753-1.485-7.285-0.995c-1.003,0.194-1.685,0.85-1.971,1.841c-0.166,0.573-0.26,1.167-0.367,1.755
				c-0.408,2.228-0.076,4.316,1.145,6.253c1.926,3.056,4.603,5.165,8.03,6.267c2.147,0.69,4.303,0.982,6.14-0.81
				c1.549,1.603,3.131,3.166,4.627,4.805c1.848,2.025,4.034,3.438,6.707,4.104c2.414,0.601,4.818,1.243,7.225,1.876
				c1.439,0.379,2.882,0.687,4.386,0.47c2.201-0.318,3.968-1.33,4.915-3.389c0.635-1.38,1.067-2.856,1.549-4.303
				c0.082-0.245,0.047-0.626-0.096-0.831c-0.413-0.593-0.909-1.128-1.433-1.76c0.045-0.162,0.132-0.464,0.212-0.769
				c0.107-0.405,0.386-0.881,0.263-1.197c-0.129-0.328-0.655-0.495-1-0.744c-0.586-0.423-1.258-0.771-1.732-1.297
				c-1.486-1.652-1.648-3.62-0.964-5.633c1.25-3.68,3.437-6.783,6.138-9.541c0.135-0.138,0.313-0.234,0.502-0.372"/>
			<path fill="#90DBE0" d="M263.336,177.856c-0.353-1.53-0.839-3.032-1.333-4.524c-0.234-0.705-0.688-1.31-1.349-1.716
				c-0.329-0.202-0.611-0.195-0.94,0.071c-3.14,2.535-6.268,5.086-9.449,7.568c-2.951,2.302-5.613,4.988-8.978,6.75
				c-0.439,0.23-0.81,0.718-1.054,1.172c-1.309,2.427-2.571,4.879-3.843,7.326c-0.972,1.872-1.878,3.781-2.925,5.609
				c-0.452,0.788-1.138,1.465-1.806,2.099c-0.542,0.515-0.991,0.446-1.548-0.033c-0.694-0.596-1.379-1.202-2.071-1.8
				c-1.423-1.231-2.875-2.415-4.751-2.912c-1.025-0.272-2.046-0.562-3.106-0.854c-0.041,0.588-0.074,1.074-0.109,1.56
				c-0.108,1.496-0.434,2.921-1.257,4.211c-0.957,1.501-1.877,3.026-2.813,4.541c-0.079,0.127-0.155,0.256-0.28,0.461
				c16.909,0.349,33.725,0.696,50.57,1.044c0.014-0.265,0.032-0.467,0.034-0.669c0.035-3.612,0.089-7.223,0.094-10.834
				c0.003-2.412,0.01-4.835-0.488-7.209C265.104,185.755,264.245,181.8,263.336,177.856z"/>
			<path fill="#90DBE0" d="M303.81,168.64c-0.398-0.87-0.723-1.774-1.082-2.665c-0.019,0.032-0.057,0.069-0.065,0.111
				c-0.293,1.56-0.631,3.113-0.856,4.682c-0.151,1.053,0.02,2.105,0.452,3.097c0.138,0.316,0.333,0.461,0.713,0.468
				c1.385,0.023,2.77,0.105,4.155,0.147c0.685,0.021,1.371,0.004,2.136,0.004c-0.676-0.576-1.282-1.101-1.898-1.615
				C305.93,171.669,304.602,170.373,303.81,168.64z"/>
			<path opacity="0.4" fill="#90DBE0" d="M317.434,158.858c-1.177-2.559-2.401-5.106-3.787-7.555
				c-1.02-1.803-2.332-3.441-3.511-5.155c-1.035-1.504-2.029-3.037-3.107-4.51c-1.296-1.771-2.55-3.558-3.449-5.575
				c-0.267-0.598-0.638-1.158-1.017-1.697c-1.538-2.188-3.799-3.415-6.158-4.453c-1.027-0.452-2.166-0.655-3.261-0.944
				c-0.629-0.166-1.273-0.278-1.91-0.415c-0.012,0.029-0.023,0.057-0.035,0.086c0.098,0.096,0.191,0.198,0.293,0.289
				c3.771,3.351,7.576,6.664,11.3,10.066c2.069,1.889,4.025,3.904,5.987,5.906c0.822,0.839,1.439,1.838,1.578,3.055
				c0.047,0.407,0.038,0.825,0.129,1.22c0.2,0.861,0.046,1.678-0.32,2.439c-1.263,2.63-2.802,5.07-4.99,7.052
				c-0.29,0.263-0.689,0.611-0.707,0.938c-0.109,2.012,0.017,4.006,0.935,5.861c1.203,2.433,2.775,4.629,4.555,6.654
				c1.943,2.21,4.935,2.855,7.551,1.832c1.138-0.445,1.875-1.217,1.996-2.461c0.116-1.191,0.079-2.406,0.29-3.578
				c0.238-1.329,0.065-2.588-0.356-3.812C318.833,162.332,318.214,160.556,317.434,158.858z"/>
			<path fill="#90DBE0" d="M297.278,177.154c-1.498-0.246-2.995-0.535-4.324-1.3c-2.47-1.422-4.286-3.519-5.425-6.076
				c-1.388-3.117-2.546-6.339-3.758-9.533c-0.611-1.61-1.119-3.259-1.706-4.982c-0.239,0.648-0.433,1.221-0.66,1.78
				c-0.58,1.424-1.143,2.857-1.782,4.255c-0.229,0.502-0.63,0.936-1.003,1.357c-0.287,0.324-0.645,0.272-0.964-0.013
				c-0.683-0.61-1.173-1.344-1.439-2.224c-0.076-0.251-0.151-0.502-0.236-0.785c-1.233,0.226-2.422,0.465-3.618,0.654
				c-0.57,0.09-0.965,0.382-1.229,0.855c-0.429,0.77-0.838,1.552-1.23,2.341c-0.109,0.218-0.165,0.479-0.182,0.724
				c-0.055,0.771-0.077,1.544-0.116,2.315c-0.102,1.966-0.206,3.933-0.309,5.899c-0.338-2.445-1.623-4.438-3.031-6.565
				c-1.024,1.612-2.003,3.133-2.951,4.67c-0.059,0.095-0.093,0.219-0.108,0.347c-0.014,0.127-0.009,0.258,0.011,0.372
				c0.232,1.27,0.483,2.538,0.753,3.801c0.48,2.249,1.074,4.479,1.442,6.746c0.47,2.892,0.813,5.808,1.116,8.723
				c0.263,2.539,0.416,5.09,0.576,7.639c0.087,1.388,0.15,2.843,0.214,4.285c0.041,0.906,0.08,1.287,0.127,2.175
				c0.042,0.797,0.126,1.076,0.193,2.076c0.226,0,0.398,0,0.57,0c2.224,0,4.448,0.346,6.672,0.346c3.423,0,6.847,0.072,10.27,0.088
				c0.446,0.002,0.623,0.053,0.648-0.448c0.049-1.006,0.152-1.949,0.316-2.943c0.535-3.24,0.865-6.467,0.955-9.749
				c0.129-4.714,0.23-9.412,0.352-14.126c0.027-1.05,0.093-2.092,0.147-3.271c1.448,0.329,2.844,0.539,4.162,0.981
				c1.392,0.467,2.744,0.498,4.138,0.184c0.568-0.128,1.127-0.29,1.691-0.436c-0.006-0.04-0.013-0.08-0.02-0.119
				C297.451,177.183,297.365,177.168,297.278,177.154z"/>
			<path fill="#2A7882" d="M265.007,114.075c0.649,0.122,1.113-0.126,1.584-0.309c0.48-0.187,0.949-0.403,1.499-0.639
				c-0.082-0.328-0.288-1.12-0.385-1.491C266.682,112.291,265.615,112.864,265.007,114.075z"/>
			<path fill="#2A7882" d="M314.224,150.235c-1.451-2.099-3.052-4.098-4.533-6.176c-0.508-0.713-0.87-1.531-1.299-2.3
				c-1.311-2.35-2.514-4.771-3.965-7.032c-1.701-2.652-4.255-4.342-7.135-5.549c-2.635-1.105-5.378-1.784-8.214-2.105
				c-0.187-0.021-0.396-0.112-0.537-0.237c-3.792-3.327-7.597-6.642-11.349-10.014c-0.907-0.815-1.874-0.962-2.971-0.76
				c-1.535,0.282-2.864,1.035-4.149,1.878c-0.1,0.066-0.204,0.126-0.375,0.231c0-0.521-0.031-0.973,0.006-1.421
				c0.119-1.46-0.193-2.825-0.708-4.189c-0.846-2.239-1.599-4.514-2.371-6.781c-0.072-0.212-0.061-0.493,0.011-0.708
				c1.225-3.674,1.446-7.337-0.039-11.004c-1.324-3.267-3.803-5.029-7.212-5.612c-2.168-0.37-4.353-0.355-6.506-0.047
				c-3.132,0.449-6.145,0.068-9.152-0.804c-1.917-0.556-3.877-0.666-5.818-1.143c-0.043-0.011-0.079,0.228-0.119,0.228
				c-0.757,0-1.515,0-2.272,0c-0.848,0-1.702-0.022-2.543,0.161c-4.174,0.908-8.078,2.365-11.776,4.478
				c-2.223,1.27-4.324,2.643-6.036,4.577c-2.253,2.544-3.733,5.424-4.3,8.803c-0.21,1.253-0.64,2.449-0.89,3.697
				c-0.303,1.512,0.07,3.031-0.187,4.551c-0.023,0.136,0.506,0.261,0.506,0.397c0,0.442,0,0.884,0,1.325
				c0,1.014-0.227,2.045,0.06,3.037c0.613,2.115,1.348,4.052,2.397,5.976c1.259,2.309,2.365,4.62,3.635,6.923
				c1.378,2.499,3.199,4.584,5.242,6.544c2.176,2.088,4.485,3.971,6.955,5.7c0.217,0.152,0.257,0.278,0.159,0.538
				c-0.469,1.254-0.918,2.518-1.386,3.772c-0.066,0.178-0.218,0.343-0.365,0.471c-1.912,1.667-3.841,3.316-5.746,4.989
				c-2.376,2.087-3.843,4.748-4.863,7.703c-0.951,2.758-1.735,5.559-2.364,8.405c-0.445,2.013-1.541,3.702-2.644,5.399
				c-0.675,1.039-0.675,2.137-1.241,3.241c-0.23,0.449,0.159,0.985,0.159,1.481c0,0.631,0,1.262,0,1.893
				c0,0.879-0.171,1.779,0.142,2.632c0.554,1.511,1.159,2.825,2.221,4.028c1.993,2.255,3.535,4.721,4.944,7.377
				c0.162,0.305,0.145,0.686,0.176,1.039c0.119,1.366,0.184,2.735,0.262,4.104c0.017,0.303-0.031,0.655-0.171,0.912
				c-0.564,1.033-1.127,1.856-1.802,2.817c-0.933,1.328-1.915,3.032-2.005,5.032c0.767,0,1.532,0,2.297,0c8.912,0,17.825,0,26.737,0
				c9.67,0,19.339,0,29.009,0c4.937,0,9.874,0.227,14.811,0.23c0.231,0,0.404,0.118,0.477-0.189
				c0.97-4.077,1.631-8.146,1.602-12.341c-0.019-2.835-0.204-5.643-0.406-8.473c-0.178-2.493,0.063-4.93,0.458-7.379
				c0.073-0.45,0.157-0.89,0.24-1.365c2.231,1.606,4.703,1.493,7.165,1.036c2.226-0.413,4.443-0.926,6.612-1.571
				c2.451-0.728,4.936-0.936,7.466-1.023c1.68-0.058,3.37-0.219,5.027-0.499c3.247-0.549,5.259-2.16,5.894-5.446
				c0.137-0.708,0.844-1.425,0.844-2.137c0-0.799,0-1.598,0-2.397c0-1.359-1.114-2.975-1.608-4.535
				C319.281,158.193,316.858,154.044,314.224,150.235z M222.219,133.945c-1.221-1.936-1.554-4.025-1.145-6.253
				c0.108-0.588,0.202-1.182,0.367-1.755c0.286-0.992,0.968-1.647,1.971-1.841c2.531-0.49,4.988-0.305,7.285,0.995
				c1.065,0.603,1.627,1.593,2.078,2.671c0.127,0.303,0.239,0.611,0.374,0.957c1.221-0.303,2.424-0.601,3.667-0.909
				c-0.166-0.82-0.348-1.614-0.481-2.415c-0.124-0.745-0.197-1.499-0.291-2.249c-0.103-0.82,0.175-1.479,0.822-1.996
				c0.948-0.757,1.893-1.519,2.827-2.294c0.545-0.453,1.062-0.94,1.599-1.403c1.017-0.877,1.258-1.988,0.865-3.213
				c-0.296-0.924-0.721-1.808-1.097-2.706c-0.072-0.172-0.185-0.326-0.295-0.513c0.978-0.425,1.953-0.791,2.873-1.262
				c1.737-0.889,3.466-1.799,5.154-2.776c2.064-1.194,2.701-3.254,3.098-5.425c0.059-0.324,0.132-0.653,0.128-0.979
				c-0.005-0.423,0.243-0.53,0.578-0.586c2.011-0.334,4.005-0.351,5.995,0.183c2.029,0.545,4.111,0.601,6.198,0.555
				c0.171-0.004,0.343,0,0.562,0c0.014,0.214,0.034,0.43,0.042,0.647c0.034,0.961,0.124,1.925,0.082,2.883
				c-0.053,1.204,0.288,2.292,0.727,3.381c0.264,0.656,0.517,1.317,0.767,1.981c0.25,0.664,0.498,1.332,0.752,2.001
				c-0.006,0.004-0.013,0.008-0.019,0.012c0.097,0.371,0.303,1.163,0.385,1.491c0.004-0.001,0.007-0.003,0.01-0.004
				c0.213,1.309,0.421,2.587,0.63,3.87l-1.042,3.831c-0.189,0.138-0.367,0.234-0.502,0.372c-2.702,2.758-4.888,5.861-6.138,9.541
				c-0.684,2.013-0.522,3.981,0.964,5.633c0.473,0.526,1.145,0.875,1.732,1.297c0.345,0.249,0.871,0.416,1,0.744
				c0.124,0.316-0.156,0.792-0.263,1.197c-0.08,0.304-0.167,0.607-0.212,0.769c0.524,0.631,1.02,1.167,1.433,1.76
				c0.143,0.205,0.178,0.585,0.096,0.831c-0.481,1.447-0.913,2.923-1.549,4.303c-0.947,2.058-2.714,3.071-4.915,3.389
				c-1.503,0.217-2.946-0.091-4.386-0.47c-2.406-0.633-4.81-1.275-7.225-1.876c-2.673-0.666-4.859-2.079-6.707-4.104
				c-1.497-1.64-3.078-3.203-4.627-4.805c-1.837,1.792-3.993,1.5-6.14,0.81C226.822,139.11,224.145,137.001,222.219,133.945z
				 M271.258,134.859c0.743-1.035,1.468-2.084,2.187-3.136c0.672-0.982,1.481-1.786,2.604-2.256
				c1.045-0.437,2.053-0.961,3.101-1.392c1.348-0.554,2.794-0.624,4.224-0.68c1.106-0.043,1.737,0.818,2.536,1.497
				c-0.398,0.178-0.723,0.325-1.049,0.469c-1.206,0.535-2.439,1.017-3.613,1.616c-1.515,0.773-3.001,1.613-3.936,3.13
				c-0.041,0.067-0.093,0.128-0.146,0.186c-0.581,0.64-0.924,1.605-2.107,1.426c0.009,0.041,0.019,0.082,0.028,0.123
				c0.432,0.3,0.864,0.6,1.329,0.923c0.163-0.264,0.328-0.491,0.452-0.738c0.932-1.851,2.466-3.088,4.223-4.069
				c2.016-1.125,4.225-1.777,6.411-2.477c0.045-0.014,0.092-0.021,0.139-0.029c0.825-0.138,1.046,0.076,0.813,0.877
				c-0.184,0.632-0.421,1.254-0.692,1.855c-0.34,0.752-0.889,1.324-1.634,1.711c-0.755,0.392-1.492,0.818-2.24,1.224
				c-0.908,0.493-1.735,1.074-2.368,1.916c-0.425,0.565-0.911,1.085-1.335,1.681c0.191-0.128,0.379-0.26,0.573-0.382
				c2.092-1.319,4.187-2.634,6.277-3.958c0.439-0.278,0.854-0.593,1.287-0.882c0.67-0.448,1.072-0.28,1.237,0.517
				c0.218,1.046-0.033,1.988-0.742,2.768c-1.468,1.615-3.07,3.075-4.955,4.209c-0.56,0.337-1.046,0.804-1.531,1.25
				c-0.121,0.112-0.197,0.41-0.137,0.559c0.325,0.809,0.144,1.551-0.16,2.316c-0.767,1.931-1.375,3.938-2.586,5.661
				c-1.61,2.291-3.384,4.421-5.697,6.071c-1.709,1.219-3.201,2.695-4.631,4.241c-2.985,3.226-6.28,6.092-9.879,8.637
				c-3.486,2.466-6.845,5.111-10.254,7.685c-4.805,3.628-9.637,7.222-14.388,10.919c-1.503,1.169-3.063,1.252-4.722,0.797
				c-1.525-0.419-3.056-0.898-4.483-1.566c-1.645-0.77-3.188-1.762-4.759-2.685c-1.117-0.656-1.75-1.616-1.844-2.952
				c-0.193-2.754,0.007-5.446,1.02-8.044c0.596-1.527,1.702-2.629,2.955-3.613c2.359-1.851,4.992-3.24,7.683-4.528
				c3.491-1.67,7.189-2.795,10.815-4.112c2.56-0.93,5.11-1.892,7.625-2.934c2.483-1.028,4.964-2.081,7.357-3.299
				c2.2-1.119,4.332-2.395,6.265-3.958c1.07-0.866,1.922-1.893,2.405-3.213c0.427-1.168,0.984-2.292,1.366-3.473
				c0.284-0.877,0.433-1.808,0.55-2.727c0.313-2.453,0.577-4.912,0.858-7.369c0.2-1.747,0.693-3.385,1.681-4.864
				c1.436-2.15,2.807-4.351,4.584-6.243c0.718-0.765,1.534-1.45,2.365-2.094c0.626-0.485,1.078-0.266,1.36,0.491
				c0.233,0.627,0.084,1.168-0.261,1.699c-1.803,2.772-3.361,5.704-5.429,8.302c-0.889,1.117-1.319,2.418-1.628,3.932
				C270.718,135.473,271.021,135.19,271.258,134.859z M247.437,158.091c-1.225-0.826-2.401-1.587-3.541-2.398
				c-0.975-0.694-1.854-1.534-2.872-2.15c-1.26-0.761-2.578-1.466-3.947-2.001c-2.549-0.997-5.153-1.854-7.735-2.769
				c-0.161-0.057-0.324-0.109-0.524-0.176c0.435-1.388,0.862-2.75,1.32-4.208c1.198,0.277,2.405,0.458,3.543,0.842
				c1.681,0.567,3.291,1.346,4.971,1.917c4.456,1.515,8.933,2.967,13.402,4.444c0.158,0.052,0.317,0.102,0.573,0.184
				C250.134,153.289,247.978,154.99,247.437,158.091z M216.59,178.563c-0.574,2.725-0.301,5.488-0.301,8.247
				c0,0.581,0,1.162,0,1.744c0,0.029-0.288,0.059-0.338,0.088c-0.907-1.394-1.961-2.758-2.807-4.189
				c-2.081-3.522-1.789-7.014,0.364-10.348c1.418-2.195,2.916-4.334,4.536-6.383c0.786-0.994,1.881-1.739,2.863-2.572
				c0.986-0.835,1.998-1.632,2.989-2.462c0.22-0.184,0.382-0.433,0.573-0.652c-0.024-0.045-0.049-0.09-0.073-0.135
				c-0.218,0.039-0.444,0.053-0.652,0.122c-1.78,0.583-3.398,1.496-4.986,2.469c-0.705,0.432-1.424,0.841-2.137,1.26
				c-0.047-0.028-0.095-0.056-0.143-0.083c0.05-0.243,0.059-0.505,0.158-0.726c0.497-1.106,1.05-2.187,1.522-3.303
				c0.656-1.549,1.839-2.538,3.315-3.208c1.345-0.61,2.708-1.186,4.085-1.719c1.043-0.404,2.117-0.197,3.162,0.054
				c0.734,0.176,1.452,0.421,2.179,0.624c0.205,0.057,0.42,0.076,0.714,0.127c-0.099-0.577-0.431-0.88-0.788-1.15
				c-1.018-0.77-2.197-1.164-3.437-1.355c-0.85-0.131-1.731-0.303-2.559,0.094c-0.978,0.468-1.942,0.97-2.898,1.483
				c-0.644,0.345-1.266,0.734-1.928,1.075c0.741-1.535,1.523-3.035,2.847-4.166c0.79-0.675,1.66-1.276,2.354-2.038
				c1.083-1.19,2.316-1.483,3.832-1.095c1.91,0.488,3.844,0.913,5.601,1.829c1.396,0.727,2.721,1.588,4.08,2.386
				c2.147,1.261,4.296,2.519,6.443,3.779c0.079,0.047,0.154,0.101,0.232,0.153c-0.028,0.036-0.048,0.078-0.061,0.077
				c-0.822-0.103-1.522,0.233-2.246,0.56c-3.401,1.541-6.803,3.079-10.228,4.563c-1.689,0.731-3.453,1.288-5.142,2.017
				c-2.64,1.14-4.928,2.702-7.014,4.691C218.365,172.645,217.244,175.46,216.59,178.563z M266.328,207.76
				c-0.002,0.202-0.02,0.405-0.034,0.669c-16.846-0.348-33.661-0.695-50.57-1.044c0.124-0.205,0.201-0.334,0.28-0.461
				c0.936-1.515,1.856-3.04,2.813-4.541c0.822-1.29,1.149-2.715,1.257-4.211c0.035-0.486,0.068-0.972,0.109-1.56
				c1.06,0.292,2.08,0.582,3.106,0.854c1.876,0.497,3.327,1.681,4.751,2.912c0.692,0.598,1.377,1.204,2.071,1.8
				c0.557,0.479,1.006,0.548,1.548,0.033c0.668-0.634,1.355-1.311,1.806-2.099c1.047-1.828,1.953-3.737,2.925-5.609
				c1.271-2.447,2.534-4.899,3.843-7.326c0.245-0.454,0.615-0.942,1.054-1.172c3.364-1.762,6.027-4.448,8.978-6.75
				c3.182-2.482,6.309-5.033,9.449-7.568c0.329-0.266,0.611-0.273,0.94-0.071c0.661,0.406,1.115,1.011,1.349,1.716
				c0.494,1.492,0.981,2.994,1.333,4.524c0.909,3.944,1.768,7.899,2.599,11.86c0.498,2.374,0.491,4.797,0.488,7.209
				C266.418,200.537,266.364,204.148,266.328,207.76z M297.558,177.318c-0.563,0.147-1.123,0.31-1.691,0.438
				c-1.394,0.314-2.746,0.286-4.138-0.181c-1.318-0.442-2.714-0.646-4.162-0.976c-0.054,1.18-0.12,2.232-0.147,3.283
				c-0.122,4.714-0.223,9.435-0.352,14.148c-0.09,3.282-0.42,6.553-0.955,9.793c-0.164,0.994-0.267,2.025-0.316,3.031
				c-0.025,0.501-0.201,0.627-0.648,0.625c-3.423-0.016-6.846-0.443-10.27-0.443c-2.224,0-4.448-0.346-6.672-0.346
				c-0.172,0-0.344,0-0.57,0c-0.067-1-0.151-1.279-0.193-2.076c-0.047-0.879-0.087-1.525-0.127-2.438
				c-0.063-1.406-0.127-2.684-0.214-4.062c-0.16-2.549-0.313-5.08-0.576-7.618c-0.302-2.915-0.646-5.821-1.116-8.713
				c-0.368-2.267-0.963-4.492-1.442-6.741c-0.269-1.263-0.521-2.528-0.753-3.798c-0.021-0.115-0.026-0.245-0.011-0.373
				c0.014-0.129,0.049-0.251,0.108-0.348c0.948-1.538,1.926-3.056,2.951-4.668c1.407,2.127,2.693,4.121,3.031,6.566
				c0.103-1.966,0.207-3.932,0.309-5.898c0.04-0.772,0.062-1.544,0.116-2.315c0.017-0.245,0.074-0.505,0.182-0.724
				c0.392-0.789,0.801-1.571,1.23-2.341c0.264-0.474,0.659-0.765,1.229-0.855c1.197-0.188,2.386-0.428,3.618-0.654
				c0.085,0.282,0.16,0.534,0.236,0.785c0.266,0.88,0.755,1.614,1.439,2.224c0.319,0.285,0.678,0.336,0.964,0.013
				c0.373-0.421,0.773-0.856,1.003-1.357c0.639-1.398,1.202-2.831,1.782-4.255c0.228-0.559,0.421-1.132,0.66-1.78
				c0.586,1.723,1.095,3.372,1.706,4.982c1.212,3.194,2.369,6.416,3.758,9.533c1.139,2.557,2.955,4.654,5.425,6.076
				c1.329,0.765,2.826,1.054,4.324,1.3c0.087,0.014,0.173,0.029,0.26,0.043C297.544,177.238,297.551,177.278,297.558,177.318
				L297.558,177.318L297.558,177.318z M296.299,160.028c-0.738-0.385-1.476-0.792-2.147-1.281c-4.13-3.005-8.241-6.034-12.351-9.067
				c-0.113-0.083-0.209-0.319-0.176-0.449c0.392-1.557,0.784-3.114,1.227-4.657c0.485-1.692,1.457-2.944,3.075-3.806
				c1.376-0.733,2.461-1.915,3.341-3.223c0.455-0.677,0.84-1.407,1.196-2.142c0.307-0.635,0.405-1.347-0.054-1.938
				c-0.702-0.904-0.759-1.976-0.926-3.022c-0.169-1.051-0.796-1.618-1.884-1.657c-0.265-0.009-0.561-0.011-0.781-0.13
				c-0.203-0.109-0.431-0.355-0.463-0.568c-0.102-0.677-0.491-1.005-1.109-1.191c-1.306-0.392-2.597-0.065-3.892,0.044
				c-1.795,0.151-3.376,0.978-5.02,1.603c-0.513,0.195-1.018,0.413-1.525,0.619c-0.022-0.047-0.049-0.08-0.042-0.091
				c1.153-1.804,2.207-3.679,3.858-5.111c0.797-0.692,0.826-0.994,0.342-1.929c-0.122-0.237-0.26-0.472-0.429-0.676
				c-0.747-0.909-1.735-1.095-2.671-0.383c-0.823,0.626-1.618,1.322-2.296,2.101c-1.355,1.556-2.726,3.116-3.897,4.808
				c-1.33,1.923-2.318,4.057-2.751,6.381c-0.148,0.793-0.03,1.633-0.081,2.449c-0.039,0.62-0.153,1.235-0.245,1.935
				c-1.165-0.911-2.244-1.754-3.323-2.597c-1.861-1.453-2.375-3.409-1.472-5.616c2.22-5.424,6.004-9.444,11.071-12.306
				c0.699-0.395,1.437-0.72,2.136-1.114c0.294-0.165,0.47-0.093,0.698,0.102c3.828,3.262,7.66,6.518,11.494,9.772
				c5.156,4.377,10.315,8.751,15.471,13.127c0.527,0.447,1.05,0.898,1.55,1.326c-1.274,0.953-2.539,1.84-3.737,2.811
				c-1.525,1.237-2.719,2.734-3.475,4.584c-0.834,2.04-1.833,4.016-2.284,6.195c-0.209,1.007-0.069,2.462,0.266,3.109
				c0.276-0.882,0.504-1.817,0.857-2.702c1.027-2.578,2.649-4.795,4.393-6.916c1.029-1.252,2.166-2.416,3.26-3.615
				c0.148-0.162,0.322-0.302,0.494-0.44c0.847-0.683,1.511-0.761,2.42-0.169c1.044,0.679,2.092,1.391,2.734,2.498
				c1.024,1.766,0.804,3.584-0.085,5.293c-1.545,2.971-3.748,5.415-6.457,7.369C300.666,160.756,298.543,161.2,296.299,160.028z
				 M307.128,174.48c-1.385-0.042-2.77-0.124-4.155-0.147c-0.381-0.006-0.575-0.151-0.713-0.468
				c-0.433-0.992-0.604-2.044-0.452-3.097c0.225-1.569,0.563-3.123,0.856-4.682c0.008-0.042,0.045-0.079,0.065-0.111
				c0.359,0.89,0.684,1.794,1.082,2.665c0.792,1.733,2.12,3.029,3.557,4.229c0.616,0.514,1.222,1.039,1.898,1.615
				C308.499,174.484,307.813,174.501,307.128,174.48z M319.798,167.914c-0.21,1.172-0.173,2.386-0.29,3.578
				c-0.121,1.243-0.858,2.016-1.996,2.461c-2.616,1.023-5.608,0.378-7.551-1.832c-1.78-2.024-3.352-4.221-4.555-6.654
				c-0.918-1.855-1.044-3.85-0.935-5.861c0.018-0.327,0.416-0.675,0.707-0.938c2.188-1.982,3.727-4.422,4.99-7.052
				c0.366-0.762,0.52-1.578,0.32-2.439c-0.092-0.395-0.083-0.814-0.129-1.22c-0.139-1.217-0.756-2.216-1.578-3.055
				c-1.962-2.002-3.919-4.016-5.987-5.906c-3.724-3.401-7.529-6.715-11.3-10.066c-0.102-0.091-0.195-0.192-0.293-0.289
				c0.011-0.029,0.023-0.057,0.035-0.086c0.637,0.136,1.28,0.249,1.91,0.415c1.095,0.289,2.234,0.493,3.261,0.944
				c2.359,1.037,4.62,2.265,6.158,4.453c0.379,0.539,0.75,1.099,1.017,1.697c0.899,2.017,2.153,3.804,3.449,5.575
				c1.078,1.472,2.072,3.006,3.107,4.51c1.179,1.714,2.491,3.351,3.511,5.155c1.386,2.449,2.61,4.996,3.787,7.555
				c0.78,1.697,1.4,3.474,2.008,5.244C319.862,165.326,320.036,166.585,319.798,167.914z"/>
			<path fill="#90DBE0" d="M267.723,111.623c-0.254-0.669-0.502-1.337-0.752-2.001c0.243,0.646,0.484,1.295,0.731,1.946
				C267.709,111.587,267.716,111.605,267.723,111.623z"/>
			<path fill="#90DBE0" d="M266.265,165.858c1.407,2.127,2.693,4.12,3.031,6.565c0.103-1.966,0.207-3.933,0.309-5.899
				c0.04-0.772,0.062-1.545,0.116-2.315c0.017-0.245,0.074-0.505,0.182-0.724c0.392-0.789,0.801-1.571,1.23-2.341
				c-0.429,0.77-0.838,1.552-1.23,2.341c-0.109,0.219-0.165,0.479-0.182,0.724c-0.055,0.771-0.077,1.544-0.116,2.315
				c-0.102,1.966-0.206,3.932-0.309,5.899c-0.338-2.445-1.623-4.439-3.031-6.566c-1.024,1.612-2.003,3.131-2.951,4.669
				c-0.059,0.096-0.093,0.221-0.108,0.35c0.015-0.128,0.049-0.252,0.108-0.347C264.263,168.991,265.241,167.47,266.265,165.858z"/>
			<path fill="#90DBE0" d="M291.729,177.573c-1.318-0.442-2.714-0.648-4.162-0.977c-0.054,1.18-0.12,2.229-0.147,3.28
				c-0.122,4.714-0.223,9.429-0.352,14.143c-0.09,3.282-0.42,6.541-0.955,9.782c-0.164,0.994-0.267,2.003-0.316,3.009
				c-0.025,0.501-0.201,0.582-0.648,0.58c-3.423-0.016-6.846,0.175-10.27,0.175c3.423,0,6.847-0.1,10.27-0.083
				c0.446,0.002,0.623-0.124,0.648-0.625c0.049-1.006,0.152-2.037,0.316-3.031c0.535-3.24,0.865-6.511,0.955-9.793
				c0.129-4.714,0.23-9.434,0.352-14.148c0.027-1.05,0.093-2.103,0.147-3.283c1.448,0.329,2.844,0.534,4.162,0.976
				c1.392,0.467,2.744,0.495,4.138,0.181c0.568-0.128,1.127-0.291,1.691-0.438l0,0c-0.563,0.147-1.123,0.309-1.691,0.437
				C294.473,178.069,293.121,178.04,291.729,177.573z"/>
			<path fill="#90DBE0" d="M267.445,205.141c-0.047-0.888-0.086-1.796-0.127-2.701C267.358,203.353,267.399,204.262,267.445,205.141
				z"/>
			<path fill="#2A7882" d="M223.207,130.796c-0.084-1.215-0.093-2.402,0.294-3.556c0.293-0.873,1.019-1.15,1.831-1.276
				c1.142-0.177,2.263-0.087,3.352,0.317c1.319,0.49,2.057,1.447,2.287,2.822c0.057,0.341,0.183,0.673,0.214,1.016
				c0.038,0.417,0.024,0.84,0.004,1.26c-0.022,0.469-0.132,0.941-0.105,1.405c0.044,0.745,0.442,1.05,1.172,1.168
				c0.582,0.093,1.157,0.266,1.714,0.464c0.451,0.16,0.588,0.573,0.496,1.009c-0.09,0.428-0.475,0.437-0.831,0.458
				c-0.881,0.053-1.76,0.125-2.641,0.169c-0.312,0.016-0.631-0.003-0.941-0.05c-0.37-0.056-0.568-0.287-0.598-0.679
				c-0.05-0.644-0.147-1.285-0.188-1.93c-0.023-0.36-0.184-0.548-0.519-0.624c-0.522-0.118-1.049-0.221-1.562-0.369
				c-0.176-0.05-0.318-0.216-0.475-0.33c0.129-0.162,0.224-0.393,0.392-0.473c0.61-0.289,1.244-0.529,1.87-0.784
				c0.599-0.244,0.628-0.308,0.552-0.955c-0.122-1.028-0.603-1.732-1.665-1.973c-0.366-0.083-0.73-0.209-1.069-0.37
				c-1.057-0.502-1.965,0.14-2.409,0.955C223.971,129.223,223.606,130,223.207,130.796z"/>
			<path fill="#2A7882" d="M254.413,116.183c1.863-0.965,3.569-1.929,5.515-2.327c0.114-0.023,0.272,0.113,0.393,0.199
				c0.054,0.039,0.074,0.136,0.096,0.21c0.113,0.387,0.355,0.82,0.029,1.161c-0.312,0.326-0.736,0.11-1.111,0
				c-0.718-0.21-1.383-0.022-2.069,0.209c-0.735,0.248-1.504,0.4-2.262,0.578C254.864,116.246,254.706,116.201,254.413,116.183z"/>
		</g>
	</g>
	<g>
		<defs>
			<polygon id="SVGID_2456_" points="479.289,45.691 359.268,45.691 323.391,206.691 479.289,206.691 			"/>
		</defs>
		<clipPath id="SVGID_10_">
			<use xlink:href="#SVGID_2456_"  overflow="visible"/>
		</clipPath>
		<g clip-path="url(#SVGID_10_)">
			<path fill="#90DBE0" stroke="#D4D6D6" stroke-miterlimit="10" d="M328.783,85.815c-0.18,0.126-0.286,0.256-0.383,0.25
				c-0.091-0.006-0.173-0.156-0.26-0.242c0.097-0.07,0.188-0.182,0.293-0.198C328.516,85.612,328.616,85.718,328.783,85.815z"/>
			<line fill="#90DBE0" stroke="#D4D6D6" stroke-miterlimit="10" x1="393.789" y1="141.691" x2="393.789" y2="40.691"/>
			<polygon fill="#90DBE0" stroke="#D4D6D6" stroke-miterlimit="10" points="438.789,124.101 453.789,127.507 453.789,113.018 
				438.789,109.612 			"/>
			<polygon fill="#90DBE0" stroke="#D4D6D6" stroke-miterlimit="10" points="438.789,109.612 453.789,113.018 453.789,98.529 
				438.789,95.123 			"/>
			<polygon fill="#90DBE0" stroke="#D4D6D6" stroke-miterlimit="10" points="438.789,95.123 453.789,98.529 453.789,84.04 
				438.789,80.634 			"/>
			<polygon fill="#90DBE0" stroke="#D4D6D6" stroke-miterlimit="10" points="424.789,106.206 424.789,120.695 438.789,124.101 
				438.789,109.612 			"/>
			<polygon fill="#90DBE0" stroke="#D4D6D6" stroke-miterlimit="10" points="409.789,117.289 409.789,131.778 424.789,135.184 
				424.789,120.695 			"/>
			<polygon fill="#90DBE0" stroke="#D4D6D6" stroke-miterlimit="10" points="392.799,113.31 377.789,116.547 377.789,131.036 
				392.799,127.798 409.789,131.778 409.789,117.289 			"/>
			<polygon fill="#90DBE0" stroke="#D4D6D6" stroke-miterlimit="10" points="438.789,80.634 453.789,84.04 453.789,69.551 
				438.789,66.145 			"/>
			<polygon fill="#90DBE0" stroke="#D4D6D6" stroke-miterlimit="10" points="424.789,135.184 438.789,138.59 438.789,124.101 
				424.789,120.695 			"/>
			<polygon fill="#90DBE0" stroke="#D4D6D6" stroke-miterlimit="10" points="377.789,73.081 377.789,58.592 363.789,61.73 
				363.789,76.219 			"/>
			<polygon fill="#90DBE0" stroke="#D4D6D6" stroke-miterlimit="10" points="363.789,61.73 348.789,64.868 348.789,79.357 
				363.789,76.219 			"/>
			<polygon fill="#90DBE0" stroke="#D4D6D6" stroke-miterlimit="10" points="377.789,44.103 363.789,47.241 363.789,61.73 
				377.789,58.592 			"/>
			<polygon fill="#90DBE0" stroke="#D4D6D6" stroke-miterlimit="10" points="438.789,66.145 438.789,51.657 424.789,48.251 
				424.789,62.739 			"/>
			<polygon fill="#90DBE0" stroke="#D4D6D6" stroke-miterlimit="10" points="453.789,69.551 453.789,55.062 438.789,51.657 
				438.789,66.145 			"/>
			<polygon fill="#90DBE0" stroke="#D4D6D6" stroke-miterlimit="10" points="424.789,62.739 424.789,48.251 409.789,44.845 
				409.789,59.334 			"/>
			<polygon fill="#90DBE0" stroke="#D4D6D6" stroke-miterlimit="10" points="392.799,55.354 409.789,59.334 409.789,44.845 
				392.799,40.865 377.789,44.103 377.789,58.592 			"/>
			<polygon fill="#90DBE0" stroke="#D4D6D6" stroke-miterlimit="10" points="409.789,88.311 409.789,102.8 424.789,106.206 
				424.789,91.717 			"/>
			<polygon fill="#90DBE0" stroke="#D4D6D6" stroke-miterlimit="10" points="424.789,91.717 438.789,95.123 438.789,80.634 
				424.789,77.228 			"/>
			<polygon fill="#90DBE0" stroke="#D4D6D6" stroke-miterlimit="10" points="363.789,76.219 348.789,79.357 348.789,93.846 
				363.789,90.708 			"/>
			<polygon fill="#90DBE0" stroke="#D4D6D6" stroke-miterlimit="10" points="424.789,106.206 438.789,109.612 438.789,95.123 
				424.789,91.717 			"/>
			<polygon fill="#90DBE0" stroke="#D4D6D6" stroke-miterlimit="10" points="409.789,117.289 424.789,120.695 424.789,106.206 
				409.789,102.8 			"/>
			<polygon fill="#90DBE0" stroke="#D4D6D6" stroke-miterlimit="10" points="363.789,119.685 363.789,134.174 377.789,131.036 
				377.789,116.547 			"/>
			<polygon fill="#90DBE0" stroke="#D4D6D6" stroke-miterlimit="10" points="409.789,102.8 409.789,88.311 392.799,84.332 
				377.789,87.57 377.789,102.058 392.799,98.821 			"/>
			<polygon fill="#90DBE0" stroke="#D4D6D6" stroke-miterlimit="10" points="392.799,98.821 377.789,102.058 377.789,116.547 
				392.799,113.31 409.789,117.289 409.789,102.8 			"/>
			<polygon fill="#90DBE0" stroke="#D4D6D6" stroke-miterlimit="10" points="424.789,77.228 409.789,73.822 409.789,88.311 
				424.789,91.717 			"/>
			<polygon fill="#90DBE0" stroke="#D4D6D6" stroke-miterlimit="10" points="377.789,87.57 363.789,90.708 363.789,105.197 
				377.789,102.058 			"/>
			<polygon fill="#90DBE0" stroke="#D4D6D6" stroke-miterlimit="10" points="377.789,73.081 363.789,76.219 363.789,90.708 
				377.789,87.57 			"/>
			<polygon fill="#90DBE0" stroke="#D4D6D6" stroke-miterlimit="10" points="377.789,102.058 363.789,105.197 363.789,119.685 
				377.789,116.547 			"/>
			<polygon fill="#90DBE0" stroke="#D4D6D6" stroke-miterlimit="10" points="409.789,73.822 409.789,59.334 392.799,55.354 
				377.789,58.592 377.789,73.081 392.799,69.843 			"/>
			<polygon fill="#90DBE0" stroke="#D4D6D6" stroke-miterlimit="10" points="392.799,84.332 409.789,88.311 409.789,73.822 
				392.799,69.843 377.789,73.081 377.789,87.57 			"/>
			<polygon fill="#90DBE0" stroke="#D4D6D6" stroke-miterlimit="10" points="424.789,77.228 424.789,62.739 409.789,59.334 
				409.789,73.822 			"/>
			<polygon fill="#90DBE0" stroke="#D4D6D6" stroke-miterlimit="10" points="438.789,80.634 438.789,66.145 424.789,62.739 
				424.789,77.228 			"/>
			<polygon fill="#90DBE0" stroke="#D4D6D6" stroke-miterlimit="10" points="424.789,135.184 424.789,149.536 424.789,135.184 
				409.789,131.778 409.789,146.267 438.789,153.078 438.789,138.59 			"/>
			<polygon fill="#90DBE0" stroke="#D4D6D6" stroke-miterlimit="10" points="363.789,90.708 348.789,93.846 348.789,108.335 
				363.789,105.197 			"/>
			<polygon fill="#90DBE0" stroke="#D4D6D6" stroke-miterlimit="10" points="348.789,122.824 327.789,127.822 327.789,142.311 
				348.789,137.312 			"/>
			<polygon fill="#90DBE0" stroke="#D4D6D6" stroke-miterlimit="10" points="348.789,137.312 327.789,142.311 327.789,156.8 
				348.789,151.801 			"/>
			<polygon fill="#90DBE0" stroke="#D4D6D6" stroke-miterlimit="10" points="348.789,93.846 327.789,98.844 327.789,113.333 
				348.789,108.335 			"/>
			<polygon fill="#90DBE0" stroke="#D4D6D6" stroke-miterlimit="10" points="350.789,64.868 328.789,69.867 328.789,84.355 
				350.789,79.357 			"/>
			<polygon fill="#90DBE0" stroke="#D4D6D6" stroke-miterlimit="10" points="348.789,51.011 348.789,64.868 363.789,61.73 
				363.789,47.241 327.789,55.378 327.789,69.867 348.789,64.868 			"/>
			<polygon fill="#90DBE0" stroke="#D4D6D6" stroke-miterlimit="10" points="350.789,79.357 328.789,84.355 328.789,98.844 
				350.789,93.846 			"/>
			<polygon fill="#90DBE0" stroke="#D4D6D6" stroke-miterlimit="10" points="467.789,87.446 477.789,89.716 477.789,75.228 
				467.789,72.957 			"/>
			<polygon fill="#90DBE0" stroke="#D4D6D6" stroke-miterlimit="10" points="467.789,58.468 467.789,72.957 477.789,75.228 
				477.789,60.739 			"/>
			<polygon fill="#90DBE0" stroke="#D4D6D6" stroke-miterlimit="10" points="467.789,101.935 477.789,104.205 477.789,89.716 
				467.789,87.446 			"/>
			<polygon fill="#90DBE0" stroke="#D4D6D6" stroke-miterlimit="10" points="467.789,145.401 477.789,147.672 477.789,133.183 
				467.789,130.913 			"/>
			<polygon fill="#90DBE0" stroke="#D4D6D6" stroke-miterlimit="10" points="467.789,159.678 467.789,145.401 453.789,141.995 
				453.789,156.484 477.789,162.161 477.789,147.672 467.789,145.401 			"/>
			<polygon fill="#90DBE0" stroke="#D4D6D6" stroke-miterlimit="10" points="467.789,130.913 477.789,133.183 477.789,118.694 
				467.789,116.424 			"/>
			<polygon fill="#90DBE0" stroke="#D4D6D6" stroke-miterlimit="10" points="467.789,116.424 477.789,118.694 477.789,104.205 
				467.789,101.935 			"/>
			<polygon fill="#90DBE0" stroke="#D4D6D6" stroke-miterlimit="10" points="348.789,108.335 327.789,113.333 327.789,127.822 
				348.789,122.824 			"/>
			<polygon fill="#90DBE0" stroke="#D4D6D6" stroke-miterlimit="10" points="438.789,124.101 438.789,138.59 453.789,141.995 
				453.789,127.507 			"/>
			<polygon fill="#90DBE0" stroke="#D4D6D6" stroke-miterlimit="10" points="363.789,46.665 363.789,47.241 377.789,44.103 
				377.789,43.767 377.789,44.103 392.799,40.865 409.789,44.845 409.789,43.767 409.789,44.845 424.789,48.251 424.789,46.665 
				424.789,48.251 438.789,51.657 438.789,40.869 438.789,51.657 453.789,55.062 453.789,40.869 453.789,55.062 467.789,58.468 
				467.789,43.98 439.009,38.191 327.789,38.191 327.789,55.378 363.789,47.241 			"/>
			<polygon fill="#90DBE0" stroke="#D4D6D6" stroke-miterlimit="10" points="453.789,141.995 467.789,145.401 467.789,130.913 
				453.789,127.507 			"/>
			<polygon fill="#90DBE0" stroke="#D4D6D6" stroke-miterlimit="10" points="438.789,153.078 453.789,156.484 453.789,141.995 
				438.789,138.59 			"/>
			<polygon fill="#90DBE0" stroke="#D4D6D6" stroke-miterlimit="10" points="363.789,105.197 348.789,108.335 348.789,122.824 
				363.789,119.685 			"/>
			<polygon fill="#90DBE0" stroke="#D4D6D6" stroke-miterlimit="10" points="392.799,127.798 377.789,131.036 377.789,145.189 
				377.789,131.036 363.789,134.174 363.789,148.087 363.789,134.174 348.789,137.312 348.789,151.801 392.788,142.287 
				409.789,146.267 409.789,131.778 			"/>
			<polygon fill="#90DBE0" stroke="#D4D6D6" stroke-miterlimit="10" points="363.789,119.685 348.789,122.824 348.789,137.312 
				363.789,134.174 			"/>
			<polygon fill="#90DBE0" stroke="#D4D6D6" stroke-miterlimit="10" points="453.789,127.507 467.789,130.913 467.789,116.424 
				453.789,113.018 			"/>
			<polygon fill="#90DBE0" stroke="#D4D6D6" stroke-miterlimit="10" points="467.789,58.468 477.789,60.739 477.789,46.25 
				467.789,43.98 			"/>
			<polygon fill="#90DBE0" stroke="#D4D6D6" stroke-miterlimit="10" points="453.789,69.551 467.789,72.957 467.789,58.468 
				453.789,55.062 			"/>
			<polygon fill="#90DBE0" stroke="#D4D6D6" stroke-miterlimit="10" points="453.789,113.018 467.789,116.424 467.789,101.935 
				453.789,98.529 			"/>
			<polygon fill="#90DBE0" stroke="#D4D6D6" stroke-miterlimit="10" points="453.789,98.529 467.789,101.935 467.789,87.446 
				453.789,84.04 			"/>
			<polygon fill="#90DBE0" stroke="#D4D6D6" stroke-miterlimit="10" points="453.789,84.04 467.789,87.446 467.789,72.957 
				453.789,69.551 			"/>
		</g>
	</g>
	<line fill="none" stroke="#D4D6D6" stroke-miterlimit="10" x1="393.789" y1="45.691" x2="393.789" y2="141.691"/>
	<polygon fill="#2A7882" points="393.739,161.345 384.761,158.257 356.908,166.452 365.743,170 	"/>
	<polygon fill="#2A7882" points="454.206,187.752 441.809,182.462 413.057,192.313 425.514,198.405 	"/>
	<path fill="#90DBE0" d="M426.661,168.05c-8.224-2.678-21.037-2.678-29.262,0c-5.856,1.907-5.093,4.525-6.412,7.373
		c-0.284,0.614-1.315,0.212-1.872,0.404l-15.743,5.415c-2.187,0.752-2.629,2.007-0.932,2.787l9.706,4.466
		c1.866,0.859,5.251,0.859,7.465,0l5.051-1.958l-0.338-0.156c-0.79-0.363-0.584-0.947,0.433-1.297l7.323-2.519
		c0.259-0.089,0.739,0.098,0.871-0.188c0.613-1.325,0.259-2.543,2.983-3.43c3.826-1.246,9.786-1.246,13.612,0
		c1.261,0.41,2.055,0.626,2.584,1.169c2.072-0.397,4.128-0.618,5.826-1.273C436.163,175.677,435.264,170.851,426.661,168.05z"/>
	<path fill="#2A7882" d="M433.475,165.206c-10.939-3.562-27.982-3.562-38.921,0c-7.789,2.536-6.775,6.019-8.529,9.807
		c-0.378,0.816-1.223,0.188-2.49,0.537l-20.94,7.203c-2.909,1.001-3.497,2.669-1.239,3.708l12.91,5.94
		c2.482,1.142,6.984,1.142,9.93,0l21.12-8.187c1.172-0.454,0.678-0.775,2.101-1.092c1.653-0.368,4.083-0.58,6.864-0.767
		c-0.319-0.352-0.509-0.733-0.509-1.135c0-1.72,3.212-3.114,7.173-3.114c3.95,0,6.159,1.232,6.179,2.945
		c2.666-0.374,6.122-0.732,8.076-1.486C446.114,175.35,444.917,168.932,433.475,165.206z"/>
	<path fill="#38ADBD" d="M430.751,180.501c-0.704-0.723-1.055-0.804-2.732-1.35c-5.089-1.657-13.739-3.094-18.105,0
		c-3.258,2.308-2.344,2.177-3.327,4.088"/>
</g>
</svg>
