<?xml version="1.0" encoding="utf-8"?>
<!-- Generator: Adobe Illustrator 17.0.0, SVG Export Plug-In . SVG Version: 6.00 Build 0)  -->
<!DOCTYPE svg PUBLIC "-//W3C//DTD SVG 1.1//EN" "http://www.w3.org/Graphics/SVG/1.1/DTD/svg11.dtd">
<svg version="1.1" id="Layer_1" xmlns="http://www.w3.org/2000/svg" xmlns:xlink="http://www.w3.org/1999/xlink" x="0px" y="0px"
	 width="581.238px" height="253.981px" viewBox="0 0 581.238 253.981" enable-background="new 0 0 581.238 253.981"
	 xml:space="preserve">
<rect x="31.789" y="21.191" fill="#FFFFFF" stroke="#4D4D4D" stroke-miterlimit="10" width="519" height="203"/>
<g>
	<defs>
		<polygon id="SVGID_2047_" points="-591.217,18.93 -591.217,224.411 -412.041,224.411 -356.623,19.888 		"/>
	</defs>
	<clipPath id="SVGID_2_">
		<use xlink:href="#SVGID_2047_"  overflow="visible"/>
	</clipPath>
	<g clip-path="url(#SVGID_2_)">
		<defs>
			<rect id="SVGID_2049_" x="-712.695" y="-1844.685" width="1923.24" height="3789.385"/>
		</defs>
		<clipPath id="SVGID_4_">
			<use xlink:href="#SVGID_2049_"  overflow="visible"/>
		</clipPath>
	</g>
</g>
<g>
	<defs>
		<polygon id="SVGID_2269_" points="30.289,21.691 30.289,224.691 211.077,224.691 265.514,21.691 		"/>
	</defs>
	<clipPath id="SVGID_6_">
		<use xlink:href="#SVGID_2269_"  overflow="visible"/>
	</clipPath>
</g>
<g>
	<defs>
		<rect id="SVGID_2277_" x="-668.381" y="-2237.426" width="1920" height="3776"/>
	</defs>
	<clipPath id="SVGID_7_">
		<use xlink:href="#SVGID_2277_"  overflow="visible"/>
	</clipPath>
	<g clip-path="url(#SVGID_7_)">
		<defs>
			<polygon id="SVGID_2279_" points="30.706,19.688 30.706,224.529 209.285,224.529 264.518,20.644 			"/>
		</defs>
		<clipPath id="SVGID_8_">
			<use xlink:href="#SVGID_2279_"  overflow="visible"/>
		</clipPath>
		<g clip-path="url(#SVGID_8_)" enable-background="new    ">
			<g>
				<defs>
					<rect id="SVGID_2281_" x="30.45" y="19.575" width="235" height="205"/>
				</defs>
				<clipPath id="SVGID_9_">
					<use xlink:href="#SVGID_2281_"  overflow="visible"/>
				</clipPath>
				<g clip-path="url(#SVGID_9_)">
					<defs>
						<rect id="SVGID_2283_" x="30.45" y="19.575" width="235" height="205"/>
					</defs>
					<clipPath id="SVGID_10_">
						<use xlink:href="#SVGID_2283_"  overflow="visible"/>
					</clipPath>
					<rect x="25.706" y="14.688" clip-path="url(#SVGID_10_)" fill="#DEEBC5" width="243.812" height="214.841"/>
				</g>
				<g clip-path="url(#SVGID_9_)">
					<defs>
						<path id="SVGID_2285_" d="M31.704,223.53h176.817l54.689-201.891L31.704,20.69V223.53z M210.048,225.527H29.707V18.685
							l236.114,0.964L210.048,225.527z"/>
					</defs>
					<clipPath id="SVGID_11_">
						<use xlink:href="#SVGID_2285_"  overflow="visible"/>
					</clipPath>
					<g clip-path="url(#SVGID_11_)">
						<defs>
							<rect id="SVGID_2287_" x="30.45" y="19.575" width="235" height="205"/>
						</defs>
						<clipPath id="SVGID_12_">
							<use xlink:href="#SVGID_2287_"  overflow="visible"/>
						</clipPath>
						<rect x="24.707" y="13.685" clip-path="url(#SVGID_12_)" fill="#CED8BC" width="246.114" height="216.843"/>
					</g>
				</g>
				<g clip-path="url(#SVGID_9_)">
					<defs>
						<polyline id="SVGID_2289_" points="29.619,-1.426 29.619,272.11 203.337,272.11 268.397,-1.426 29.619,-1.426 						"/>
					</defs>
					<clipPath id="SVGID_13_">
						<use xlink:href="#SVGID_2289_"  overflow="visible"/>
					</clipPath>
					<g clip-path="url(#SVGID_13_)">
						<defs>
							<rect id="SVGID_2291_" x="30.45" y="19.575" width="235" height="205"/>
						</defs>
						<clipPath id="SVGID_14_">
							<use xlink:href="#SVGID_2291_"  overflow="visible"/>
						</clipPath>
						<g clip-path="url(#SVGID_14_)" enable-background="new    ">
							<g>
								<defs>
									<rect id="SVGID_2293_" x="30.45" y="49.575" width="211" height="175"/>
								</defs>
								<clipPath id="SVGID_15_">
									<use xlink:href="#SVGID_2293_"  overflow="visible"/>
								</clipPath>
								<g clip-path="url(#SVGID_15_)">
									<defs>
										<path id="SVGID_2295_" d="M36.236,112.062c-2.497,0.224-4.725,0.493-6.617,0.801v5.02
											c4.663,0.759,11.39,1.291,19.068,1.454c-0.291-1.412-0.555-2.876-0.784-4.396c-5.425-0.352-9.08-1.368-9.08-1.368
											C37.919,113.092,37.058,112.59,36.236,112.062"/>
									</defs>
									<clipPath id="SVGID_16_">
										<use xlink:href="#SVGID_2295_"  overflow="visible"/>
									</clipPath>
									<g clip-path="url(#SVGID_16_)">
										<defs>
											<rect id="SVGID_2297_" x="30.45" y="19.575" width="235" height="205"/>
										</defs>
										<clipPath id="SVGID_17_">
											<use xlink:href="#SVGID_2297_"  overflow="visible"/>
										</clipPath>
										<rect x="24.619" y="107.062" clip-path="url(#SVGID_17_)" fill="#CBDBA6" width="29.068" height="17.275"/>
									</g>
								</g>
								<g clip-path="url(#SVGID_15_)">
									<defs>
										<path id="SVGID_2299_" d="M67.373,151.461c-7.397,1.114-12.055,2.733-12.055,4.539c0,3.167,14.335,5.766,32.643,6.05
											c0.359-0.961,1.115-2.792,2.44-5.089c-0.306,0.002-0.615,0.005-0.929,0.005c-4.616,0-9.784-0.407-15.107-1.58
											C74.367,155.387,71.382,154.421,67.373,151.461"/>
									</defs>
									<clipPath id="SVGID_18_">
										<use xlink:href="#SVGID_2299_"  overflow="visible"/>
									</clipPath>
									<g clip-path="url(#SVGID_18_)">
										<defs>
											<rect id="SVGID_2301_" x="30.45" y="19.575" width="235" height="205"/>
										</defs>
										<clipPath id="SVGID_20_">
											<use xlink:href="#SVGID_2301_"  overflow="visible"/>
										</clipPath>
										<rect x="50.319" y="146.461" clip-path="url(#SVGID_20_)" fill="#CBDBA6" width="45.083" height="20.589"/>
									</g>
								</g>
								<g clip-path="url(#SVGID_15_)">
									<defs>
										<path id="SVGID_2303_" d="M111.748,219.855c-11.806,2.038-19.085,4.828-19.085,7.901c0,6.242,29.955,11.301,66.9,11.301
											c21.38,0,40.418-1.693,52.667-4.33l3.139-13.204c-2.141-0.545-4.556-1.057-7.21-1.533
											c-7.026,3.667-15.572,6.614-24.901,6.614c-4.914,0-10.043-0.818-15.281-2.78c-7.215,3.47-15.293,5.466-23.838,5.584
											c-0.266,0.002-0.533,0.005-0.797,0.005C131.662,229.414,120.777,225.893,111.748,219.855 M173.385,220.848
											C173.385,220.848,173.387,220.846,173.385,220.848c1.897,0.246,3.725,0.365,5.492,0.365
											C177.109,221.213,175.279,221.095,173.385,220.848 M178.961,221.213h-0.065H178.961"/>
									</defs>
									<clipPath id="SVGID_22_">
										<use xlink:href="#SVGID_2303_"  overflow="visible"/>
									</clipPath>
									<g clip-path="url(#SVGID_22_)">
										<defs>
											<rect id="SVGID_2305_" x="30.45" y="19.575" width="235" height="205"/>
										</defs>
										<clipPath id="SVGID_23_">
											<use xlink:href="#SVGID_2305_"  overflow="visible"/>
										</clipPath>
										<rect x="87.662" y="214.855" clip-path="url(#SVGID_23_)" fill="#C2D397" width="132.707" height="29.202"/>
									</g>
								</g>
								<g clip-path="url(#SVGID_15_)">
									<defs>
										<path id="SVGID_2307_" d="M43.954,53.666c-4.399,0-9.849,0.707-14.335,3.47v49.372c1.832,2.011,4.018,3.889,6.617,5.555
											c3.324-0.298,7.12-0.513,11.211-0.623c-0.498-4.492-0.707-9.421-0.555-14.835c0,0,0.966-26.839,33.896-26.851
											c-1.334-5.335-6.122-15.648-23.19-15.648c-0.996,0-2.032,0.037-3.114,0.108c-0.545,1.21-0.993,2.583-1.056,3.901
											l7.158,0.407c-3,1.363-5.838,1.846-8.355,1.846c-6.182,0-10.434-2.918-10.434-2.918l8.425,0.48
											c0.01-0.949,0.077-2.378,0.351-3.751C49.142,53.954,46.762,53.666,43.954,53.666"/>
									</defs>
									<clipPath id="SVGID_24_">
										<use xlink:href="#SVGID_2307_"  overflow="visible"/>
									</clipPath>
									<g clip-path="url(#SVGID_24_)">
										<defs>
											<rect id="SVGID_2309_" x="30.45" y="19.575" width="235" height="205"/>
										</defs>
										<clipPath id="SVGID_25_">
											<use xlink:href="#SVGID_2309_"  overflow="visible"/>
										</clipPath>
										<rect x="24.619" y="48.666" clip-path="url(#SVGID_25_)" fill="#B7CA84" width="61.168" height="68.396"/>
									</g>
								</g>
								<g clip-path="url(#SVGID_15_)">
									<defs>
										<path id="SVGID_2311_" d="M47.447,111.439c-4.09,0.111-7.887,0.325-11.211,0.623c0.822,0.527,1.683,1.03,2.587,1.511
											c0,0,3.655,1.015,9.08,1.368c-0.077-0.51-0.149-1.023-0.219-1.545c-1.626-0.148-3.346-0.382-5.099-0.739
											c0.002,0.003,1.994-0.5,4.917-0.727C47.484,111.766,47.464,111.604,47.447,111.439"/>
									</defs>
									<clipPath id="SVGID_26_">
										<use xlink:href="#SVGID_2311_"  overflow="visible"/>
									</clipPath>
									<g clip-path="url(#SVGID_26_)">
										<defs>
											<rect id="SVGID_2313_" x="30.45" y="19.575" width="235" height="205"/>
										</defs>
										<clipPath id="SVGID_27_">
											<use xlink:href="#SVGID_2313_"  overflow="visible"/>
										</clipPath>
										<rect x="31.236" y="106.439" clip-path="url(#SVGID_27_)" fill="#ACC173" width="21.666" height="13.502"/>
									</g>
								</g>
								<g clip-path="url(#SVGID_15_)">
									<defs>
										<path id="SVGID_2315_" d="M47.501,111.929c-2.923,0.227-4.917,0.727-4.917,0.727c1.753,0.357,3.473,0.592,5.099,0.739
											C47.618,112.912,47.559,112.42,47.501,111.929"/>
									</defs>
									<clipPath id="SVGID_28_">
										<use xlink:href="#SVGID_2315_"  overflow="visible"/>
									</clipPath>
									<g clip-path="url(#SVGID_28_)">
										<defs>
											<rect id="SVGID_2317_" x="30.45" y="19.575" width="235" height="205"/>
										</defs>
										<clipPath id="SVGID_29_">
											<use xlink:href="#SVGID_2317_"  overflow="visible"/>
										</clipPath>
										<rect x="37.585" y="106.929" clip-path="url(#SVGID_29_)" fill="#97AF50" width="15.099" height="11.466"/>
									</g>
								</g>
								<g clip-path="url(#SVGID_15_)">
									<defs>
										<path id="SVGID_2319_" d="M53.681,50.206c-1.827,0-2.699,1.922-3.109,3.972c-0.274,1.373-0.341,2.802-0.351,3.751
											l3.207,0.185c0.062-1.318,0.51-2.691,1.056-3.901c0.941-2.092,2.171-3.696,2.171-3.696L53.681,50.206"/>
									</defs>
									<clipPath id="SVGID_30_">
										<use xlink:href="#SVGID_2319_"  overflow="visible"/>
									</clipPath>
									<g clip-path="url(#SVGID_30_)">
										<defs>
											<rect id="SVGID_2321_" x="30.45" y="19.575" width="235" height="205"/>
										</defs>
										<clipPath id="SVGID_31_">
											<use xlink:href="#SVGID_2321_"  overflow="visible"/>
										</clipPath>
										<rect x="45.22" y="45.206" clip-path="url(#SVGID_31_)" fill="#9DB45A" width="16.433" height="17.908"/>
									</g>
								</g>
								<g clip-path="url(#SVGID_15_)">
									<defs>
										<path id="SVGID_2323_" d="M41.795,57.449c0,0,4.252,2.918,10.434,2.918c2.517,0,5.355-0.483,8.355-1.846l-7.158-0.407
											l-3.207-0.185L41.795,57.449"/>
									</defs>
									<clipPath id="SVGID_32_">
										<use xlink:href="#SVGID_2323_"  overflow="visible"/>
									</clipPath>
									<g clip-path="url(#SVGID_32_)">
										<defs>
											<rect id="SVGID_2325_" x="30.45" y="19.575" width="235" height="205"/>
										</defs>
										<clipPath id="SVGID_33_">
											<use xlink:href="#SVGID_2325_"  overflow="visible"/>
										</clipPath>
										<rect x="36.795" y="52.449" clip-path="url(#SVGID_33_)" fill="#9DB45A" width="28.789" height="12.918"/>
									</g>
								</g>
								<g clip-path="url(#SVGID_15_)">
									<defs>
										<path id="SVGID_2327_" d="M88.799,70.231c0,0,40.515-9.064,44.123,24.724c0,0,8.88,41.752-25.254,59.885
											c0,0-15.819,4.396-33.301,0.547c0,0-28.859-9.337-27.475-58.783C46.892,96.604,48.002,65.561,88.799,70.231"/>
									</defs>
									<clipPath id="SVGID_34_">
										<use xlink:href="#SVGID_2327_"  overflow="visible"/>
									</clipPath>
									<g clip-path="url(#SVGID_34_)">
										<defs>
											<rect id="SVGID_2329_" x="30.45" y="19.575" width="235" height="205"/>
										</defs>
										<clipPath id="SVGID_35_">
											<use xlink:href="#SVGID_2329_"  overflow="visible"/>
										</clipPath>
										<rect x="41.843" y="64.126" clip-path="url(#SVGID_35_)" fill="#819D2C" width="97.118" height="97.84"/>
									</g>
								</g>
								<g clip-path="url(#SVGID_15_)">
									<defs>
										<path id="SVGID_2331_" d="M91.336,76.806c0.002,0,0.672-12.632-4.924-12.632l-4.255,0.444c0,0,5.597,7.314,4.476,12.854
											L91.336,76.806"/>
									</defs>
									<clipPath id="SVGID_37_">
										<use xlink:href="#SVGID_2331_"  overflow="visible"/>
									</clipPath>
									<g clip-path="url(#SVGID_37_)">
										<defs>
											<rect id="SVGID_2333_" x="30.45" y="19.575" width="235" height="205"/>
										</defs>
										<clipPath id="SVGID_39_">
											<use xlink:href="#SVGID_2333_"  overflow="visible"/>
										</clipPath>
										<rect x="77.157" y="59.174" clip-path="url(#SVGID_39_)" fill="#CBDF8E" width="19.205" height="23.297"/>
									</g>
								</g>
								<g clip-path="url(#SVGID_15_)">
									<defs>
										<path id="SVGID_2335_" d="M103.415,74.541c0.002,0.002-12.05,8.258-26.883,1.53"/>
									</defs>
									<clipPath id="SVGID_40_">
										<use xlink:href="#SVGID_2335_"  overflow="visible"/>
									</clipPath>
									<g clip-path="url(#SVGID_40_)">
										<defs>
											<rect id="SVGID_2337_" x="30.45" y="19.575" width="235" height="205"/>
										</defs>
										<clipPath id="SVGID_41_">
											<use xlink:href="#SVGID_2337_"  overflow="visible"/>
										</clipPath>
										<rect x="71.532" y="69.541" clip-path="url(#SVGID_41_)" fill="#CBDF8E" width="36.883" height="14.17"/>
									</g>
								</g>
								<g clip-path="url(#SVGID_15_)">
									<defs>
										<path id="SVGID_2339_" d="M155.293,216.77c36.38,27.253,71.852-10.776,71.852-10.776
											c30.231-79.03-28.083-82.588-28.083-82.588s-4.339,0.451-9.129,1.237c3.784-0.278,8.026-0.067,12.732,0.895
											c0,0,33.114,9.611,20.524,52.763c0,0.002-12.221,49.951-52.729,42.07l-2.945-52.13L155.293,216.77"/>
									</defs>
									<clipPath id="SVGID_42_">
										<use xlink:href="#SVGID_2339_"  overflow="visible"/>
									</clipPath>
									<g clip-path="url(#SVGID_42_)">
										<defs>
											<rect id="SVGID_2341_" x="30.45" y="19.575" width="235" height="205"/>
										</defs>
										<clipPath id="SVGID_43_">
											<use xlink:href="#SVGID_2341_"  overflow="visible"/>
										</clipPath>
										<rect x="150.293" y="118.405" clip-path="url(#SVGID_43_)" fill="#819D2C" width="90.546" height="113.2"/>
									</g>
								</g>
								<g clip-path="url(#SVGID_15_)">
									<defs>
										<path id="SVGID_2343_" d="M223.189,178.3c12.59-43.152-20.524-52.763-20.524-52.763
											c-4.705-0.961-8.947-1.173-12.732-0.895c-5.853,0.964-12.378,2.435-12.505,4.229l-9.914,39.369l2.945,52.13
											C210.968,228.251,223.189,178.3,223.189,178.3"/>
									</defs>
									<clipPath id="SVGID_44_">
										<use xlink:href="#SVGID_2343_"  overflow="visible"/>
									</clipPath>
									<g clip-path="url(#SVGID_44_)">
										<defs>
											<rect id="SVGID_2345_" x="30.45" y="19.575" width="235" height="205"/>
										</defs>
										<clipPath id="SVGID_45_">
											<use xlink:href="#SVGID_2345_"  overflow="visible"/>
										</clipPath>
										<rect x="162.514" y="119.529" clip-path="url(#SVGID_45_)" fill="#CBDF8E" width="68.531" height="106.684"/>
									</g>
								</g>
								<g clip-path="url(#SVGID_15_)">
									<defs>
										<path id="SVGID_2347_" d="M192.507,130.13c-3.007,0-5.166,0.237-5.166,0.237l-1.673,16.429
											c3.032,2.169,5.888,4.677,8.427,7.573l15.301-19.133C206.15,130.902,197.945,130.13,192.507,130.13"/>
									</defs>
									<clipPath id="SVGID_46_">
										<use xlink:href="#SVGID_2347_"  overflow="visible"/>
									</clipPath>
									<g clip-path="url(#SVGID_46_)">
										<defs>
											<rect id="SVGID_2349_" x="30.45" y="19.575" width="235" height="205"/>
										</defs>
										<clipPath id="SVGID_47_">
											<use xlink:href="#SVGID_2349_"  overflow="visible"/>
										</clipPath>
										<rect x="180.668" y="125.13" clip-path="url(#SVGID_47_)" fill="#A6BE5D" width="33.728" height="34.239"/>
									</g>
								</g>
								<g clip-path="url(#SVGID_15_)">
									<defs>
										<path id="SVGID_2351_" d="M213.024,139.275l-17.064,17.371c0.53,0.695,1.046,1.412,1.541,2.151l0.11-0.01
											c0.261,1.747,0.364,3.036,0.386,4.81c0.01,0.678,0.002,1.35-0.025,2.018l0.095-0.037c0.027-0.668,0.035-1.341,0.027-2.018
											c-0.027-1.774-0.179-3.521-0.441-5.266c0.64,2.23,1.135,4.52,1.486,6.858l21.273-8.438
											C222.721,144.716,213.024,139.275,213.024,139.275"/>
									</defs>
									<clipPath id="SVGID_48_">
										<use xlink:href="#SVGID_2351_"  overflow="visible"/>
									</clipPath>
									<g clip-path="url(#SVGID_48_)">
										<defs>
											<rect id="SVGID_2353_" x="30.45" y="19.575" width="235" height="205"/>
										</defs>
										<clipPath id="SVGID_49_">
											<use xlink:href="#SVGID_2353_"  overflow="visible"/>
										</clipPath>
										<rect x="190.96" y="134.275" clip-path="url(#SVGID_49_)" fill="#A6BE5D" width="34.808" height="36.341"/>
									</g>
								</g>
								<g clip-path="url(#SVGID_15_)">
									<defs>
										<path id="SVGID_2355_" d="M218.578,162.859l-18.908,4.066l-0.299-0.035c0.229,1.952,0.359,3.935,0.388,5.946
											c0.037,2.851-0.139,5.653-0.518,8.396l13.093,7.008C224.543,176.922,218.578,162.859,218.578,162.859 M197.912,166.718
											c-0.299,4.308-1.329,8.393-2.968,12.213l0.055,0.03c1.656-3.825,2.699-7.918,3.005-12.233L197.912,166.718"/>
									</defs>
									<clipPath id="SVGID_50_">
										<use xlink:href="#SVGID_2355_"  overflow="visible"/>
									</clipPath>
									<g clip-path="url(#SVGID_50_)">
										<defs>
											<rect id="SVGID_2357_" x="30.45" y="19.575" width="235" height="205"/>
										</defs>
										<clipPath id="SVGID_51_">
											<use xlink:href="#SVGID_2357_"  overflow="visible"/>
										</clipPath>
										<rect x="189.945" y="157.859" clip-path="url(#SVGID_51_)" fill="#A6BE5D" width="35.091" height="35.382"/>
									</g>
								</g>
								<g clip-path="url(#SVGID_15_)">
									<defs>
										<path id="SVGID_2359_" d="M198.776,184.051c-1.544,8.051-4.842,15.498-9.488,21.935l1.897,2.95
											c8.758-2.568,19.526-18.766,19.526-18.766L198.776,184.051"/>
									</defs>
									<clipPath id="SVGID_52_">
										<use xlink:href="#SVGID_2359_"  overflow="visible"/>
									</clipPath>
									<g clip-path="url(#SVGID_52_)">
										<defs>
											<rect id="SVGID_2361_" x="30.45" y="19.575" width="235" height="205"/>
										</defs>
										<clipPath id="SVGID_53_">
											<use xlink:href="#SVGID_2361_"  overflow="visible"/>
										</clipPath>
										<rect x="184.288" y="179.051" clip-path="url(#SVGID_53_)" fill="#A6BE5D" width="31.423" height="34.884"/>
									</g>
								</g>
								<g clip-path="url(#SVGID_15_)">
									<defs>
										<polyline id="SVGID_2363_" points="165.948,137.242 177.428,128.871 180.475,170.133 165.948,137.242 										"/>
									</defs>
									<clipPath id="SVGID_54_">
										<use xlink:href="#SVGID_2363_"  overflow="visible"/>
									</clipPath>
									<g clip-path="url(#SVGID_54_)">
										<defs>
											<rect id="SVGID_2365_" x="30.45" y="19.575" width="235" height="205"/>
										</defs>
										<clipPath id="SVGID_55_">
											<use xlink:href="#SVGID_2365_"  overflow="visible"/>
										</clipPath>
										<rect x="160.948" y="123.871" clip-path="url(#SVGID_55_)" fill="#CBDF8E" width="24.527" height="51.262"/>
									</g>
								</g>
								<g clip-path="url(#SVGID_15_)">
									<defs>
										<path id="SVGID_2367_" d="M180.898,131.082c-1.033,0-2.141,0.333-3.246,0.858l0.772,10.429
											c1.675,0.875,3.333,1.831,4.954,2.873l-0.187-13.457C182.497,131.294,181.72,131.082,180.898,131.082"/>
									</defs>
									<clipPath id="SVGID_56_">
										<use xlink:href="#SVGID_2367_"  overflow="visible"/>
									</clipPath>
									<g clip-path="url(#SVGID_56_)">
										<defs>
											<rect id="SVGID_2369_" x="30.45" y="19.575" width="235" height="205"/>
										</defs>
										<clipPath id="SVGID_57_">
											<use xlink:href="#SVGID_2369_"  overflow="visible"/>
										</clipPath>
										<rect x="172.652" y="126.082" clip-path="url(#SVGID_57_)" fill="#A6BE5D" width="15.726" height="24.16"/>
									</g>
								</g>
								<g clip-path="url(#SVGID_15_)">
									<defs>
										<path id="SVGID_2371_" d="M177.652,131.939c-3.548,1.693-7.083,5.389-8.118,6.525c2.943,1.077,5.945,2.366,8.89,3.903
											L177.652,131.939"/>
									</defs>
									<clipPath id="SVGID_59_">
										<use xlink:href="#SVGID_2371_"  overflow="visible"/>
									</clipPath>
									<g clip-path="url(#SVGID_59_)">
										<defs>
											<rect id="SVGID_2373_" x="30.45" y="19.575" width="235" height="205"/>
										</defs>
										<clipPath id="SVGID_61_">
											<use xlink:href="#SVGID_2373_"  overflow="visible"/>
										</clipPath>
										<rect x="164.533" y="126.939" clip-path="url(#SVGID_61_)" fill="#A6BE5D" width="18.89" height="20.429"/>
									</g>
								</g>
								<g clip-path="url(#SVGID_15_)">
									<defs>
										<path id="SVGID_2375_" d="M87.955,166.577c0.027,0.651-0.197,1.294-0.137,1.93c0.03,0.283-0.072,0.564-0.042,0.845
											c0.052,0.449,0.045,0.897,0.112,1.341c0.075,0.468,0.124,0.936,0.214,1.402c0.047,0.246,0.08,0.495,0.129,0.742
											c0.144,0.66,0.291,1.316,0.466,1.962l0.037,0.145c5.913,21.363,29.942,35.673,53.558,35.35
											c15.174-0.207,30.739-6.183,41.564-16.065c8.694-7.992,14.31-18.522,14.141-30.631c-0.022-1.774-0.125-3.063-0.386-4.81
											l-0.11,0.01c-16.367-24.406-54.141-25.826-54.141-25.826c-46.062-2.265-55.655,29.82-55.655,29.82
											c-0.002,0.419-0.383,3.287-0.371,3.682L87.955,166.577"/>
									</defs>
									<clipPath id="SVGID_63_">
										<use xlink:href="#SVGID_2375_"  overflow="visible"/>
									</clipPath>
									<g clip-path="url(#SVGID_63_)">
										<defs>
											<rect id="SVGID_2377_" x="30.45" y="19.575" width="235" height="205"/>
										</defs>
										<clipPath id="SVGID_65_">
											<use xlink:href="#SVGID_2377_"  overflow="visible"/>
										</clipPath>
										<rect x="82.335" y="127.857" clip-path="url(#SVGID_65_)" fill="#CBDF8E" width="120.666" height="87.442"/>
									</g>
								</g>
								<g clip-path="url(#SVGID_15_)">
									<defs>
										<path id="SVGID_2379_" d="M87.335,166.269c-0.05,2.203-0.456,5.367-0.416,8.191c0.431,30.801,26.101,55.373,57.221,54.949
											c31.12-0.426,56.046-25.769,55.62-56.573c-0.075-5.039-0.779-9.919-2.106-14.542c0.261,1.745,0.413,3.492,0.441,5.266
											c0.167,12.137-5.49,22.679-14.24,30.668c-10.8,9.924-26.36,15.927-41.561,16.134
											c-23.663,0.323-47.713-13.997-53.563-35.419l-0.037-0.143c-0.177-0.648-0.336-1.304-0.476-1.964
											c-0.055-0.244-0.1-0.495-0.147-0.739c-0.09-0.468-0.042-5.047-0.115-5.52L87.335,166.269"/>
									</defs>
									<clipPath id="SVGID_67_">
										<use xlink:href="#SVGID_2379_"  overflow="visible"/>
									</clipPath>
									<g clip-path="url(#SVGID_67_)">
										<defs>
											<rect id="SVGID_2381_" x="30.45" y="19.575" width="235" height="205"/>
										</defs>
										<clipPath id="SVGID_69_">
											<use xlink:href="#SVGID_2381_"  overflow="visible"/>
										</clipPath>
										<rect x="81.916" y="153.295" clip-path="url(#SVGID_69_)" fill="#819D2C" width="122.849" height="81.12"/>
									</g>
								</g>
								<g clip-path="url(#SVGID_15_)">
									<defs>
										<path id="SVGID_2383_" d="M149.283,137.469l-5.168,30.205l0.015,0.961l28.668-22.085
											C166.354,138.684,149.283,137.469,149.283,137.469"/>
									</defs>
									<clipPath id="SVGID_71_">
										<use xlink:href="#SVGID_2383_"  overflow="visible"/>
									</clipPath>
									<g clip-path="url(#SVGID_71_)">
										<defs>
											<rect id="SVGID_2385_" x="30.45" y="19.575" width="235" height="205"/>
										</defs>
										<clipPath id="SVGID_73_">
											<use xlink:href="#SVGID_2385_"  overflow="visible"/>
										</clipPath>
										<rect x="139.115" y="132.469" clip-path="url(#SVGID_73_)" fill="#A6BE5D" width="38.683" height="41.166"/>
									</g>
								</g>
								<g clip-path="url(#SVGID_15_)">
									<defs>
										<path id="SVGID_2387_" d="M174.747,148.452l-27.223,21.343l42.31-4.675C187.715,152.856,174.747,148.452,174.747,148.452"
											/>
									</defs>
									<clipPath id="SVGID_75_">
										<use xlink:href="#SVGID_2387_"  overflow="visible"/>
									</clipPath>
									<g clip-path="url(#SVGID_75_)">
										<defs>
											<rect id="SVGID_2389_" x="30.45" y="19.575" width="235" height="205"/>
										</defs>
										<clipPath id="SVGID_77_">
											<use xlink:href="#SVGID_2389_"  overflow="visible"/>
										</clipPath>
										<rect x="142.523" y="143.452" clip-path="url(#SVGID_77_)" fill="#A6BE5D" width="52.31" height="31.343"/>
									</g>
								</g>
								<g clip-path="url(#SVGID_15_)">
									<defs>
										<path id="SVGID_2391_" d="M189.662,170.185l-41.611,2.257l32.382,17.154C189.627,185.133,189.662,170.185,189.662,170.185
											"/>
									</defs>
									<clipPath id="SVGID_79_">
										<use xlink:href="#SVGID_2391_"  overflow="visible"/>
									</clipPath>
									<g clip-path="url(#SVGID_79_)">
										<defs>
											<rect id="SVGID_2393_" x="30.45" y="19.575" width="235" height="205"/>
										</defs>
										<clipPath id="SVGID_81_">
											<use xlink:href="#SVGID_2393_"  overflow="visible"/>
										</clipPath>
										<rect x="143.051" y="165.185" clip-path="url(#SVGID_81_)" fill="#A6BE5D" width="51.611" height="29.411"/>
									</g>
								</g>
								<g clip-path="url(#SVGID_15_)">
									<defs>
										<path id="SVGID_2395_" d="M145.897,175.362l10.626,28.541h0.119c11.639,0,21.874-12.112,21.874-12.112L145.897,175.362"/>
									</defs>
									<clipPath id="SVGID_83_">
										<use xlink:href="#SVGID_2395_"  overflow="visible"/>
									</clipPath>
									<g clip-path="url(#SVGID_83_)">
										<defs>
											<rect id="SVGID_2397_" x="30.45" y="19.575" width="235" height="205"/>
										</defs>
										<clipPath id="SVGID_85_">
											<use xlink:href="#SVGID_2397_"  overflow="visible"/>
										</clipPath>
										<rect x="140.897" y="170.362" clip-path="url(#SVGID_85_)" fill="#A6BE5D" width="42.619" height="38.541"/>
									</g>
								</g>
								<g clip-path="url(#SVGID_15_)">
									<defs>
										<path id="SVGID_2399_" d="M141.789,177.588l-16.922,26.508c4.79,1.838,9.801,2.41,14.191,2.41
											c7.282,0,12.851-1.577,12.851-1.577L141.789,177.588"/>
									</defs>
									<clipPath id="SVGID_87_">
										<use xlink:href="#SVGID_2399_"  overflow="visible"/>
									</clipPath>
									<g clip-path="url(#SVGID_87_)">
										<defs>
											<rect id="SVGID_2401_" x="30.45" y="19.575" width="235" height="205"/>
										</defs>
										<clipPath id="SVGID_89_">
											<use xlink:href="#SVGID_2401_"  overflow="visible"/>
										</clipPath>
										<rect x="119.868" y="172.588" clip-path="url(#SVGID_89_)" fill="#A6BE5D" width="37.042" height="38.918"/>
									</g>
								</g>
								<g clip-path="url(#SVGID_15_)">
									<defs>
										<path id="SVGID_2403_" d="M138.115,176.193L102.27,190.18c4.252,8.137,17.452,11.575,17.452,11.575L138.115,176.193"/>
									</defs>
									<clipPath id="SVGID_91_">
										<use xlink:href="#SVGID_2403_"  overflow="visible"/>
									</clipPath>
									<g clip-path="url(#SVGID_91_)">
										<defs>
											<rect id="SVGID_2405_" x="30.45" y="19.575" width="235" height="205"/>
										</defs>
										<clipPath id="SVGID_93_">
											<use xlink:href="#SVGID_2405_"  overflow="visible"/>
										</clipPath>
										<rect x="97.27" y="171.193" clip-path="url(#SVGID_93_)" fill="#A6BE5D" width="45.845" height="35.562"/>
									</g>
								</g>
								<g clip-path="url(#SVGID_15_)">
									<defs>
										<path id="SVGID_2407_" d="M97.326,167.588c-5.527,5.38,1.735,19.744,1.735,19.744l38.038-14.261L97.326,167.588"/>
									</defs>
									<clipPath id="SVGID_95_">
										<use xlink:href="#SVGID_2407_"  overflow="visible"/>
									</clipPath>
									<g clip-path="url(#SVGID_95_)">
										<defs>
											<rect id="SVGID_2409_" x="30.45" y="19.575" width="235" height="205"/>
										</defs>
										<clipPath id="SVGID_97_">
											<use xlink:href="#SVGID_2409_"  overflow="visible"/>
										</clipPath>
										<rect x="90.25" y="162.587" clip-path="url(#SVGID_97_)" fill="#A6BE5D" width="51.849" height="29.744"/>
									</g>
								</g>
								<g clip-path="url(#SVGID_15_)">
									<defs>
										<path id="SVGID_2411_" d="M113.368,147.304c-10.977,0-15.112,17.139-15.112,17.139l39.291,5.729l-23.213-22.824
											C114.008,147.319,113.685,147.304,113.368,147.304"/>
									</defs>
									<clipPath id="SVGID_99_">
										<use xlink:href="#SVGID_2411_"  overflow="visible"/>
									</clipPath>
									<g clip-path="url(#SVGID_99_)">
										<defs>
											<rect id="SVGID_2413_" x="30.45" y="19.575" width="235" height="205"/>
										</defs>
										<clipPath id="SVGID_101_">
											<use xlink:href="#SVGID_2413_"  overflow="visible"/>
										</clipPath>
										<rect x="93.257" y="142.304" clip-path="url(#SVGID_101_)" fill="#A6BE5D" width="49.291" height="32.869"/>
									</g>
								</g>
								<g clip-path="url(#SVGID_15_)">
									<defs>
										<path id="SVGID_2415_" d="M135.566,138.028c-10.618,0-17.591,8.307-17.591,8.307l21.983,22.119l4.964-28.27
											C141.58,138.637,138.439,138.028,135.566,138.028"/>
									</defs>
									<clipPath id="SVGID_103_">
										<use xlink:href="#SVGID_2415_"  overflow="visible"/>
									</clipPath>
									<g clip-path="url(#SVGID_103_)">
										<defs>
											<rect id="SVGID_2417_" x="30.45" y="19.575" width="235" height="205"/>
										</defs>
										<clipPath id="SVGID_105_">
											<use xlink:href="#SVGID_2417_"  overflow="visible"/>
										</clipPath>
										<rect x="112.974" y="133.028" clip-path="url(#SVGID_105_)" fill="#A6BE5D" width="36.947" height="40.427"/>
									</g>
								</g>
							</g>
						</g>
					</g>
				</g>
			</g>
		</g>
	</g>
</g>
</svg>
