<?xml version="1.0" encoding="utf-8"?>
<!-- Generator: Adobe Illustrator 17.0.0, SVG Export Plug-In . SVG Version: 6.00 Build 0)  -->
<!DOCTYPE svg PUBLIC "-//W3C//DTD SVG 1.1//EN" "http://www.w3.org/Graphics/SVG/1.1/DTD/svg11.dtd">
<svg version="1.1" id="Layer_1" xmlns="http://www.w3.org/2000/svg" xmlns:xlink="http://www.w3.org/1999/xlink" x="0px" y="0px"
	 width="68px" height="68px" viewBox="0 0 68 68" enable-background="new 0 0 68 68" xml:space="preserve">
<g>
	<g>
		<circle fill="#4A4A4A" cx="9.059" cy="18.938" r="2.706"/>
	</g>
	<g>
		<circle fill="#4A4A4A" cx="60.283" cy="18.938" r="2.706"/>
	</g>
	<g>
		<circle fill="#4A4A4A" cx="19.234" cy="10.052" r="2.706"/>
	</g>
	<g>
		<circle fill="#4A4A4A" cx="29.408" cy="6.695" r="2.706"/>
	</g>
	<g>
		<circle fill="#4A4A4A" cx="39.583" cy="6.695" r="2.706"/>
	</g>
	<g>
		<circle fill="#4A4A4A" cx="49.421" cy="10.052" r="2.706"/>
	</g>
	<g>
		<path fill="#0075A9" d="M18.297,16.182c0,14.85,0,29.701,0,44.551c0.606,0.406,1.234,0.782,1.874,1.138
			c0-15.609,0-31.219,0-46.828C19.531,15.4,18.903,15.776,18.297,16.182z"/>
		<g>
			<path fill="#0075A9" d="M17.572,16.376c0,8.394,0,16.787,0,25.181c0,3.874,0,7.748,0,11.622c0,1.937,0,3.874,0,5.811
				c0,2.428-0.056,1.985,1.915,3.128c0.269,0.156,1.407-0.044,1.407-0.441c0-15.609,0-31.218,0-46.828
				c0-0.326-1.168,0.109-1.279,0.173c-0.64,0.354-1.265,0.733-1.874,1.138c-0.607,0.386,0.851,0.206,1.109,0.041
				c0.609-0.405,1.234-0.784,1.874-1.138c-0.426,0.058-0.853,0.116-1.279,0.173c0,15.609,0,31.218,0,46.828
				c0.469-0.147,0.938-0.294,1.407-0.441c-3.005-1.743-1.832-7.752-1.832-10.771c0-3.874,0-7.748,0-11.622
				c0-7.748,0-15.496,0-23.244C19.021,15.753,17.572,15.961,17.572,16.376z"/>
		</g>
	</g>
	<g>
		<path fill="#0075A9" d="M28.478,12.29c0,17.446,0,34.891,0,52.336c0.611,0.133,1.235,0.228,1.861,0.318
			c0-17.658,0-35.315,0-52.973C29.713,12.062,29.089,12.156,28.478,12.29z"/>
		<g>
			<path fill="#0075A9" d="M27.385,12.404c0,17.445,0,34.891,0,52.336c0,0.275,0.153,0.483,0.442,0.533
				c0.62,0.106,1.241,0.212,1.861,0.318c0.458,0.078,1.742-0.058,1.742-0.762c0-17.658,0-35.315,0-52.973
				c0-0.491-0.546-0.637-0.965-0.565c-0.62,0.106-1.241,0.212-1.861,0.318c-1.092,0.187-1.743,1.614-0.255,1.36
				c0.62-0.106,1.241-0.212,1.861-0.318c-0.322-0.188-0.643-0.377-0.965-0.565c0,17.658,0,35.315,0,52.973
				c0.581-0.254,1.162-0.508,1.742-0.762c-3.067-0.525-1.419-21.916-1.419-24.984c0-9.046,0-18.092,0-27.137
				C29.57,11.165,27.385,11.588,27.385,12.404z"/>
		</g>
	</g>
	<g>
		<path fill="#0075A9" d="M38.659,11.905c0,17.702,0,35.404,0,53.105c0.62-0.08,1.241-0.161,1.847-0.282c0-17.514,0-35.028,0-52.542
			C39.9,12.066,39.28,11.985,38.659,11.905z"/>
		<g>
			<path fill="#0075A9" d="M37.573,12.196c0,17.702,0,35.404,0,53.105c0,0.303,0.769,0.21,0.906,0.189
				c0.616-0.094,1.231-0.188,1.847-0.282c0.371-0.057,1.268-0.268,1.268-0.771c0-17.514,0-35.028,0-52.542
				c0-0.156-0.309-0.196-0.397-0.21c-0.616-0.094-1.231-0.188-1.847-0.282c-0.548-0.084-2.533,0.826-1.379,1.002
				c3.068,0.468,1.45,22.361,1.45,25.37c0,9.081,0,18.162,0,27.244c0.423-0.257,0.845-0.514,1.268-0.771
				c-1.182,0.18-0.941-22.827-0.941-25.099c0-9.179,0-18.357,0-27.536C39.746,11.13,37.573,11.483,37.573,12.196z"/>
		</g>
	</g>
	<g>
		<path fill="#0075A9" d="M48.82,14.801c0,15.771,0,31.543,0,47.314c0.644-0.343,1.264-0.722,1.875-1.115
			c0-15.028,0-30.057,0-45.085C50.084,15.523,49.464,15.144,48.82,14.801z"/>
		<g>
			<path fill="#0075A9" d="M48.096,14.995c0,15.771,0,31.543,0,47.314c0,0.352,1.037,0.015,1.155-0.052
				c2.8-1.588,2.169-1.826,2.169-5.372c0-5.227,0-10.454,0-15.682s0-10.454,0-15.682c0-2.614,0-5.227,0-7.841
				c0-2.454,0.073-2.011-1.921-3.142c-0.393-0.223-1.628,0.369-1.357,0.522c3.019,1.712,1.829,7.839,1.829,10.848
				c0,3.92,0,7.841,0,11.761s0,7.841,0,11.761c0,2.799,1.373,10.864-1.581,12.539c0.385-0.017,0.77-0.034,1.155-0.052
				c0-15.771,0-31.543,0-47.314C49.545,14.284,48.096,14.519,48.096,14.995z"/>
		</g>
	</g>
	<g>
		<path fill="#0075A9" d="M60.854,24.477c-0.547-1.013-1.175,0.572-1.844-0.358c0,10.408,0,19.543,0,29.951
			c0.668-0.93,1.297-1.889,1.844-2.903C60.854,42.694,60.854,32.949,60.854,24.477z"/>
		<g>
			<path fill="#0075A9" d="M61.533,24.216c-0.824-0.484-1.181-0.081-1.934-0.405c-0.308-0.132-1.312,0.07-1.312,0.502
				c0,9.984,0,19.967,0,29.951c0,0.392,1.258-0.031,1.387-0.222c2.58-3.787,1.905-7.34,1.905-11.872c0-5.962,0-11.925,0-17.887
				c0-0.321-1.449-0.086-1.449,0.388c0,4.145,0,8.289,0,12.434c0,5.197,1.286,12.488-1.782,16.992
				c0.462-0.074,0.925-0.148,1.387-0.222c0-9.984,0-19.967,0-29.951c-0.437,0.167-0.875,0.334-1.312,0.502
				c0.527,0.227,1.362,0.081,1.753,0.311C60.564,24.966,61.805,24.376,61.533,24.216z"/>
		</g>
	</g>
	<g>
		<path fill="#0075A9" d="M8.137,24.477c0.547-1.013,1.175,0.572,1.844-0.358c0,10.408,0,19.543,0,29.951
			c-0.668-0.93-1.297-1.889-1.844-2.903C8.137,42.694,8.137,32.949,8.137,24.477z"/>
		<g>
			<path fill="#0075A9" d="M8.567,24.618c0.02-0.012,0.698,0.095,0.835,0.059c-0.489,0.131-0.145,7.903-0.145,9.098
				c0,6.829,0,13.659,0,20.488c0.483-0.129,0.966-0.259,1.449-0.388c-2.737-4.018-1.844-8.762-1.844-13.518
				c0-5.358,0-10.717,0-16.075c0-0.321-1.449-0.086-1.449,0.388c0,4.752,0,9.504,0,14.256c0,2.406,0,4.812,0,7.218
				c0,3.412-0.113,5.247,1.844,8.119c0.241,0.354,1.449,0.063,1.449-0.388c0-9.984,0-19.967,0-29.951
				c0-0.303-0.88-0.068-0.989-0.022C9.072,24.18,8.5,23.869,7.707,24.335C6.871,24.827,8.182,24.845,8.567,24.618z"/>
		</g>
	</g>
</g>
</svg>
