<?xml version="1.0" encoding="utf-8"?>
<!-- Generator: Adobe Illustrator 17.0.0, SVG Export Plug-In . SVG Version: 6.00 Build 0)  -->
<!DOCTYPE svg PUBLIC "-//W3C//DTD SVG 1.1//EN" "http://www.w3.org/Graphics/SVG/1.1/DTD/svg11.dtd">
<svg version="1.1" id="Layer_1" xmlns="http://www.w3.org/2000/svg" xmlns:xlink="http://www.w3.org/1999/xlink" x="0px" y="0px"
	 width="581.238px" height="253.981px" viewBox="0 0 581.238 253.981" enable-background="new 0 0 581.238 253.981"
	 xml:space="preserve">
<rect x="31.789" y="21.191" fill="#FFFFFF" stroke="#4D4D4D" stroke-miterlimit="10" width="519" height="203"/>
<g>
	<defs>
		<polygon id="SVGID_1_" points="30.289,18.691 30.289,237.691 168.181,237.691 219.64,18.691 		"/>
	</defs>
	<clipPath id="SVGID_2_">
		<use xlink:href="#SVGID_1_"  overflow="visible"/>
	</clipPath>
</g>
<g>
	<defs>
		<polygon id="SVGID_2049_" points="-591.217,18.93 -591.217,224.411 -412.041,224.411 -356.623,19.888 		"/>
	</defs>
	<clipPath id="SVGID_4_">
		<use xlink:href="#SVGID_2049_"  overflow="visible"/>
	</clipPath>
	<g clip-path="url(#SVGID_4_)">
		<defs>
			<rect id="SVGID_2051_" x="-712.695" y="-1844.685" width="1923.24" height="3789.385"/>
		</defs>
		<clipPath id="SVGID_6_">
			<use xlink:href="#SVGID_2051_"  overflow="visible"/>
		</clipPath>
	</g>
</g>
<g>
	<defs>
		<polygon id="SVGID_2271_" points="30.289,20.691 30.289,224.691 212.077,224.691 266.514,20.691 		"/>
	</defs>
	<clipPath id="SVGID_8_">
		<use xlink:href="#SVGID_2271_"  overflow="visible"/>
	</clipPath>
	<polygon clip-path="url(#SVGID_8_)" fill="#DEEBC5" points="31.289,17.691 31.289,236.691 208.563,236.691 267.899,17.691 	"/>
	<g clip-path="url(#SVGID_8_)">
		<defs>
			<polygon id="SVGID_2273_" points="54.289,-3.309 54.289,236.691 207.746,236.691 271.837,-3.309 			"/>
		</defs>
		<clipPath id="SVGID_9_">
			<use xlink:href="#SVGID_2273_"  overflow="visible"/>
		</clipPath>
		<path fill="#819D2C" d="M255.467,136.527l-21.026-44.681v-0.809c1.82-0.404,3.235-2.022,3.235-4.044
			c0-2.022-1.415-3.639-3.235-4.044v-1.617c3.235-0.404,5.863-3.235,5.863-6.672c0-1.213-0.404-2.426-1.011-3.437
			c-1.011-2.022-3.235-3.437-5.661-3.437c-2.426,0-4.448,1.415-5.661,3.235c-0.404,0.809-0.809,1.617-1.011,2.426
			c-5.459-1.415-10.311-4.246-15.568-7.48c-8.694-5.257-19.207-11.726-36.594-13.141c-0.202-0.404-0.404-0.607-0.607-1.011
			c0.809-1.617,1.213-3.841,1.213-6.874c0-5.054-2.83-13.141-5.054-15.77c-0.607-0.607-1.415-1.011-2.224-1.011
			s-1.617,0.404-2.224,1.011c-2.224,2.628-5.054,10.715-5.054,15.77c0,2.83,0.404,5.054,1.213,6.874
			c-0.202,0.202-0.404,0.607-0.607,1.011c-20.622,1.213-30.731,8.087-39.222,13.748c-4.448,3.033-8.289,5.661-12.939,6.874
			c-0.202-0.809-0.404-1.617-1.011-2.426c-1.213-2.022-3.235-3.235-5.661-3.235c-2.426,0-4.65,1.415-5.661,3.437
			c-0.607,1.011-1.011,2.224-1.011,3.437c0,3.437,2.426,6.065,5.661,6.672v1.617c-1.82,0.404-3.235,2.022-3.235,4.044
			c0,2.022,1.415,3.639,3.235,4.044v0.809L80.99,136.527h-6.874c0,8.087,12.939,14.557,28.911,14.557s28.911-6.47,28.911-14.557
			h-7.48l-20.824-44.681v-0.809c1.82-0.404,3.235-2.022,3.235-4.044c0-2.022-1.415-3.639-3.235-4.044v-1.617
			c0.809,0,1.617-0.202,2.224-0.607c8.491-0.809,14.152-4.65,20.218-8.694c8.087-5.459,16.983-11.524,35.785-12.737
			c0.202,0.607,0.607,1.011,1.011,1.415c-1.213,2.628-1.82,5.863-1.82,9.704c0,5.459,1.415,10.109,3.639,12.535v99.575
			c-2.224,1.213-3.639,3.639-3.639,6.267c0,1.82,0.607,3.639,1.82,4.852c-1.213,2.628-1.82,5.863-1.82,9.704
			c0,1.415,0.202,2.83,0.404,4.246c-12.737,1.617-22.037,7.278-22.037,14.152l0,0c-4.044,0-7.278,3.235-7.278,7.278l0,0h-1.82
			c-3.033,0-5.459,1.617-5.459,3.639l0,0c0,2.022,2.426,3.639,5.459,3.639h9.098h28.911h29.113h9.098
			c3.033,0,5.459-1.617,5.459-3.639l0,0c0-2.022-2.426-3.639-5.459-3.639h-1.82l0,0c0-4.044-3.235-7.278-7.278-7.278l0,0
			c0-6.874-9.502-12.535-22.037-14.152c0.202-1.415,0.404-2.83,0.404-4.246c0-3.639-0.607-7.076-1.82-9.704
			c1.213-1.213,1.82-3.033,1.82-4.852c0-2.628-1.415-5.054-3.639-6.267V83.153c2.224-2.426,3.639-7.278,3.639-12.535
			c0-3.639-0.607-7.076-1.82-9.704c0.404-0.404,0.607-0.809,1.011-1.415c15.568,1.213,25.07,7.076,33.359,12.131
			c7.076,4.246,13.748,8.491,22.644,9.098c0.607,0.404,1.415,0.607,2.022,0.607v1.617c-1.82,0.404-3.235,2.022-3.235,4.044
			c0,2.022,1.415,3.639,3.235,4.044v0.809l-21.228,44.681h-7.278c0,8.087,12.939,14.557,28.911,14.557s28.911-6.47,28.911-14.557
			H255.467L255.467,136.527z M102.016,95.485v41.042H82.809L102.016,95.485z M122.84,136.527h-19.207V95.485L122.84,136.527z
			 M105.251,86.994c0,1.011-0.607,2.022-1.617,2.224v-0.404h-1.617v0.404c-1.011-0.404-1.617-1.213-1.617-2.224
			c0-1.415,1.011-2.426,2.426-2.426S105.251,85.781,105.251,86.994z M253.647,136.527h-19.207V95.485L253.647,136.527z
			 M231.206,86.994c0-1.415,1.011-2.426,2.426-2.426s2.426,1.011,2.426,2.426c0,1.011-0.607,2.022-1.617,2.224v-0.404h-1.617v0.404
			C231.812,89.016,231.206,88.005,231.206,86.994z M232.823,95.485v41.042h-19.207L232.823,95.485z"/>
	</g>
</g>
</svg>
