<?xml version="1.0" encoding="utf-8"?>
<!-- Generator: Adobe Illustrator 17.0.0, SVG Export Plug-In . SVG Version: 6.00 Build 0)  -->
<!DOCTYPE svg PUBLIC "-//W3C//DTD SVG 1.1//EN" "http://www.w3.org/Graphics/SVG/1.1/DTD/svg11.dtd">
<svg version="1.1" id="Layer_1" xmlns="http://www.w3.org/2000/svg" xmlns:xlink="http://www.w3.org/1999/xlink" x="0px" y="0px"
	 width="581.238px" height="253.981px" viewBox="0 0 581.238 253.981" enable-background="new 0 0 581.238 253.981"
	 xml:space="preserve">
<rect x="29.789" y="21.191" fill="#FFFFFF" stroke="#4D4D4D" stroke-miterlimit="10" width="519" height="203"/>
<g>
	<defs>
		<polygon id="SVGID_1_" points="29.289,20.691 29.289,224.691 212.077,224.691 266.514,20.691 		"/>
	</defs>
	<clipPath id="SVGID_2_">
		<use xlink:href="#SVGID_1_"  overflow="visible"/>
	</clipPath>
	<g clip-path="url(#SVGID_2_)">
		<polygon fill="#DEEBC5" points="26.289,224.691 220.278,224.691 267.05,14.691 26.289,14.691 		"/>
		<g>
			<g>
				<path fill="#A6C93E" d="M87.614,161.406c-0.898-0.072-1.796-0.163-2.696-0.214c-5.363-0.304-10.701-0.825-15.932-2.086
					c-2.18-0.525-4.302-1.294-6.452-1.944c-0.6-0.181-0.915-0.543-1.061-1.177c-1.134-4.915-1.39-9.859-0.562-14.845
					c0.445-2.679,1.279-5.224,2.736-7.533c1.674-2.654,4.008-4.508,6.964-5.548c3.758-1.322,7.419-2.839,10.724-5.105
					c0.657-0.45,1.284-0.944,2.007-1.479c5.844,5.735,11.773,5.752,17.647-0.027c2.028,1.71,4.197,3.033,6.518,4.084
					c1.912,0.866,3.853,1.685,5.832,2.381c4.387,1.544,7.276,4.543,8.882,8.846c1.843,4.936,1.973,10.029,1.327,15.181
					c-0.164,1.311-0.484,2.602-0.681,3.91c-0.116,0.773-0.562,1.122-1.254,1.386c-3.295,1.259-6.695,2.135-10.173,2.648
					c-3.181,0.469-6.384,0.794-9.584,1.13c-1.505,0.158-3.022,0.19-4.533,0.286c-0.206,0.013-0.41,0.069-0.615,0.105
					C93.676,161.406,90.645,161.406,87.614,161.406z"/>
				<path fill="#A6C93E" d="M90.898,82.344c1.505,0.454,3.035,0.839,4.51,1.377c2.755,1.005,5.349,2.334,7.652,4.179
					c2.149,1.722,3.227,3.952,3.044,6.715c-0.133,2.011-0.348,4.017-0.56,6.021c-0.046,0.433-0.039,0.769,0.355,1.038
					c0.711,0.485,0.751,1.242,0.68,1.984c-0.174,1.814-0.646,3.526-1.547,5.149c-0.498,0.898-0.644,1.986-0.991,2.973
					c-1.379,3.93-3.435,7.378-6.967,9.782c-3.01,2.05-6.743,2.054-9.783,0.032c-2.909-1.935-4.965-4.573-6.354-7.73
					c-0.606-1.377-0.985-2.852-1.503-4.27c-0.186-0.508-0.479-0.977-0.717-1.466c-0.776-1.591-1.211-3.262-1.185-5.042
					c0.008-0.553,0.152-1.038,0.626-1.376c0.41-0.293,0.417-0.669,0.374-1.151c-0.203-2.258-0.433-4.519-0.483-6.783
					c-0.054-2.438,1.066-4.453,2.676-6.215c2.009-2.199,4.446-3.764,7.213-4.828c0.427-0.164,0.879-0.261,1.32-0.389
					C89.803,82.344,90.35,82.344,90.898,82.344z"/>
			</g>
			<g>
				<path fill="#819D2C" d="M170.856,160.979c-0.898-0.072-1.796-0.163-2.696-0.214c-5.363-0.304-10.701-0.825-15.932-2.086
					c-2.18-0.525-4.302-1.294-6.452-1.944c-0.6-0.181-0.915-0.543-1.061-1.177c-1.134-4.915-1.39-9.859-0.562-14.845
					c0.445-2.679,1.279-5.224,2.736-7.533c1.674-2.654,4.008-4.508,6.964-5.548c3.758-1.322,7.419-2.839,10.724-5.105
					c0.657-0.45,1.284-0.944,2.007-1.479c5.844,5.735,11.773,5.752,17.647-0.027c2.028,1.71,4.197,3.033,6.518,4.084
					c1.912,0.866,3.853,1.685,5.832,2.381c4.387,1.544,7.276,4.543,8.882,8.846c1.843,4.936,1.973,10.029,1.327,15.181
					c-0.164,1.311-0.484,2.602-0.681,3.91c-0.116,0.773-0.562,1.122-1.254,1.386c-3.295,1.259-6.695,2.135-10.173,2.648
					c-3.181,0.469-6.384,0.794-9.584,1.13c-1.505,0.158-3.022,0.19-4.533,0.286c-0.206,0.013-0.41,0.069-0.615,0.105
					C176.919,160.979,173.887,160.979,170.856,160.979z"/>
				<path fill="#819D2C" d="M174.14,81.918c1.505,0.454,3.035,0.839,4.51,1.377c2.755,1.005,5.349,2.334,7.652,4.179
					c2.149,1.722,3.227,3.952,3.044,6.715c-0.133,2.011-0.348,4.017-0.56,6.021c-0.046,0.433-0.039,0.769,0.355,1.038
					c0.711,0.485,0.751,1.242,0.68,1.984c-0.174,1.814-0.646,3.526-1.547,5.149c-0.498,0.898-0.644,1.986-0.991,2.973
					c-1.379,3.93-3.435,7.378-6.967,9.782c-3.01,2.05-6.743,2.054-9.783,0.032c-2.909-1.935-4.965-4.573-6.354-7.73
					c-0.606-1.377-0.985-2.852-1.503-4.27c-0.186-0.508-0.479-0.977-0.717-1.466c-0.776-1.591-1.211-3.262-1.185-5.042
					c0.008-0.553,0.152-1.038,0.626-1.376c0.41-0.293,0.417-0.669,0.374-1.151c-0.203-2.258-0.433-4.519-0.483-6.783
					c-0.054-2.438,1.066-4.453,2.676-6.215c2.009-2.199,4.446-3.764,7.213-4.828c0.427-0.164,0.879-0.261,1.32-0.389
					C173.045,81.918,173.593,81.918,174.14,81.918z"/>
			</g>
			<path fill="#819D2C" d="M140.862,141.304c0.579-3.49,1.666-6.805,3.564-9.813c2.181-3.457,5.222-5.873,9.071-7.228
				c0.231-0.081,0.457-0.173,0.688-0.255c-0.578-0.287-1.177-0.553-1.818-0.779c-1.979-0.696-3.92-1.515-5.832-2.381
				c-2.321-1.051-4.49-2.374-6.518-4.083c-5.874,5.779-11.803,5.762-17.647,0.027c-0.722,0.534-1.349,1.028-2.007,1.479
				c-2.944,2.018-6.176,3.43-9.501,4.651c1.505,0.638,3.021,1.251,4.56,1.793c5.466,1.923,9.065,5.66,11.067,11.022
				c2.296,6.15,2.459,12.48,1.654,18.899c-0.087,0.694-0.217,0.056-0.348,2.056c2.647,0,5.294,0,7.941,0
				c0.205,0,0.409-0.077,0.615-0.09c1.471-0.094,2.949-0.132,4.414-0.273C140.046,151.387,140.033,146.302,140.862,141.304z"/>
			<path fill="#819D2C" d="M118.463,104.911c0.518,1.418,0.897,2.893,1.503,4.27c1.389,3.158,3.445,5.795,6.354,7.73
				c3.04,2.022,6.773,2.018,9.783-0.032c3.532-2.405,5.588-5.852,6.967-9.782c0.346-0.988,0.493-2.076,0.991-2.973
				c0.901-1.623,1.373-3.335,1.547-5.149c0.071-0.741,0.031-1.499-0.68-1.984c-0.395-0.269-0.401-0.605-0.355-1.038
				c0.212-2.005,0.427-4.011,0.56-6.021c0.183-2.763-0.895-4.993-3.044-6.715c-2.303-1.845-4.897-2.659-7.652-3.663
				c-1.475-0.538-3.005-0.862-4.51-0.862c-0.547,0-1.095,0-1.642,0c-0.441,0-0.893-0.291-1.32-0.127
				c-2.767,1.064-5.204,2.371-7.213,4.57c-1.61,1.762-2.73,3.649-2.676,6.086c0.05,2.264,0.28,4.461,0.483,6.719
				c0.043,0.482,0.037,0.826-0.374,1.119c-0.474,0.338-0.618,0.807-0.626,1.36c-0.025,1.78,0.41,3.443,1.185,5.034
				C117.985,103.943,118.277,104.403,118.463,104.911z"/>
		</g>
	</g>
</g>
<g>
	<defs>
		<polygon id="SVGID_16_" points="-590.711,-280.309 -590.711,-76.309 -407.923,-76.309 -353.486,-280.309 		"/>
	</defs>
	<clipPath id="SVGID_4_">
		<use xlink:href="#SVGID_16_"  overflow="visible"/>
	</clipPath>
	<g clip-path="url(#SVGID_4_)">
	</g>
</g>
<g>
	<defs>
		<polygon id="SVGID_2072_" points="-591.217,18.93 -591.217,224.411 -412.041,224.411 -356.623,19.888 		"/>
	</defs>
	<clipPath id="SVGID_6_">
		<use xlink:href="#SVGID_2072_"  overflow="visible"/>
	</clipPath>
	<g clip-path="url(#SVGID_6_)">
		<defs>
			<rect id="SVGID_2074_" x="-712.695" y="-1844.685" width="1923.24" height="3789.385"/>
		</defs>
		<clipPath id="SVGID_8_">
			<use xlink:href="#SVGID_2074_"  overflow="visible"/>
		</clipPath>
	</g>
</g>
</svg>
