<?xml version="1.0" encoding="utf-8"?>
<!-- Generator: Adobe Illustrator 17.0.0, SVG Export Plug-In . SVG Version: 6.00 Build 0)  -->
<!DOCTYPE svg PUBLIC "-//W3C//DTD SVG 1.1//EN" "http://www.w3.org/Graphics/SVG/1.1/DTD/svg11.dtd">
<svg version="1.1" xmlns="http://www.w3.org/2000/svg" xmlns:xlink="http://www.w3.org/1999/xlink" x="0px" y="0px" width="520px"
	 height="205px" viewBox="0 0 520 205" enable-background="new 0 0 520 205" xml:space="preserve">
<g id="Layer_1">
	<g>
		<g>
			<defs>
				<polygon id="SVGID_55_" points="1,-2 1,217 139.095,217 190.554,-2 				"/>
			</defs>
			<clipPath id="SVGID_2_">
				<use xlink:href="#SVGID_55_"  overflow="visible"/>
			</clipPath>
		</g>
		<g>
			<defs>
				<polygon id="SVGID_57_" points="0.5,0.5 0.5,204.5 180.991,204.5 235.428,0.5 				"/>
			</defs>
			<clipPath id="SVGID_4_">
				<use xlink:href="#SVGID_57_"  overflow="visible"/>
			</clipPath>
			<polygon clip-path="url(#SVGID_4_)" fill="#DEEBC5" points="0,-3 0,216 177.478,216 236.813,-3 			"/>
			<g clip-path="url(#SVGID_4_)">
				<defs>
					<polygon id="SVGID_59_" points="25,-24 25,216 178.66,216 242.751,-24 					"/>
				</defs>
				<clipPath id="SVGID_5_">
					<use xlink:href="#SVGID_59_"  overflow="visible"/>
				</clipPath>
				<path fill="#7A6B5A" d="M226.381,115.777l-21.026-44.681v-0.809c1.82-0.404,3.235-2.022,3.235-4.044s-1.415-3.639-3.235-4.044
					v-1.617c3.235-0.404,5.863-3.235,5.863-6.672c0-1.213-0.404-2.426-1.011-3.437c-1.011-2.022-3.235-3.437-5.661-3.437
					c-2.426,0-4.448,1.415-5.661,3.235c-0.404,0.809-0.809,1.617-1.011,2.426c-5.459-1.415-10.311-4.246-15.568-7.48
					c-8.694-5.257-19.207-11.726-36.594-13.141c-0.202-0.404-0.404-0.607-0.607-1.011c0.809-1.617,1.213-3.841,1.213-6.874
					c0-5.054-2.83-13.141-5.054-15.77c-0.607-0.607-1.415-1.011-2.224-1.011s-1.617,0.404-2.224,1.011
					c-2.224,2.628-5.054,10.715-5.054,15.77c0,2.83,0.404,5.054,1.213,6.874c-0.202,0.202-0.404,0.607-0.607,1.011
					c-20.622,1.213-30.731,8.087-39.222,13.748c-4.448,3.033-8.289,5.661-12.939,6.874c-0.202-0.809-0.404-1.617-1.011-2.426
					c-1.213-2.022-3.235-3.235-5.661-3.235c-2.426,0-4.65,1.415-5.661,3.437c-0.607,1.011-1.011,2.224-1.011,3.437
					c0,3.437,2.426,6.065,5.661,6.672V62.2c-1.82,0.404-3.235,2.022-3.235,4.044s1.415,3.639,3.235,4.044v0.809l-20.622,44.681
					H45.03c0,8.087,12.939,14.557,28.911,14.557s28.911-6.47,28.911-14.557h-7.48L74.547,71.096v-0.809
					c1.82-0.404,3.235-2.022,3.235-4.044s-1.415-3.639-3.235-4.044v-1.617c0.809,0,1.617-0.202,2.224-0.607
					c8.491-0.809,14.152-4.65,20.218-8.694c8.087-5.459,16.983-11.524,35.785-12.737c0.202,0.607,0.607,1.011,1.011,1.415
					c-1.213,2.628-1.82,5.863-1.82,9.704c0,5.459,1.415,10.109,3.639,12.535v99.575c-2.224,1.213-3.639,3.639-3.639,6.267
					c0,1.82,0.607,3.639,1.82,4.852c-1.213,2.628-1.82,5.863-1.82,9.704c0,1.415,0.202,2.83,0.404,4.246
					c-12.737,1.617-22.037,7.278-22.037,14.152l0,0c-4.044,0-7.278,3.235-7.278,7.278l0,0h-1.82c-3.033,0-5.459,1.617-5.459,3.639
					l0,0c0,2.022,2.426,3.639,5.459,3.639h9.098h28.911h29.113h9.098c3.033,0,5.459-1.617,5.459-3.639l0,0
					c0-2.022-2.426-3.639-5.459-3.639h-1.82l0,0c0-4.044-3.235-7.278-7.278-7.278l0,0c0-6.874-9.502-12.535-22.037-14.152
					c0.202-1.415,0.404-2.83,0.404-4.246c0-3.639-0.607-7.076-1.82-9.704c1.213-1.213,1.82-3.033,1.82-4.852
					c0-2.628-1.415-5.054-3.639-6.267V62.403c2.224-2.426,3.639-7.278,3.639-12.535c0-3.639-0.607-7.076-1.82-9.704
					c0.404-0.404,0.607-0.809,1.011-1.415c15.568,1.213,25.07,7.076,33.359,12.131c7.076,4.246,13.748,8.491,22.644,9.098
					c0.607,0.404,1.415,0.607,2.022,0.607V62.2c-1.82,0.404-3.235,2.022-3.235,4.044s1.415,3.639,3.235,4.044v0.809l-21.228,44.681
					h-7.278c0,8.087,12.939,14.557,28.911,14.557s28.911-6.47,28.911-14.557L226.381,115.777L226.381,115.777z M72.93,74.735v41.042
					H53.723L72.93,74.735z M93.754,115.777H74.547V74.735L93.754,115.777z M76.165,66.244c0,1.011-0.607,2.022-1.617,2.224v-0.404
					H72.93v0.404c-1.011-0.404-1.617-1.213-1.617-2.224c0-1.415,1.011-2.426,2.426-2.426S76.165,65.031,76.165,66.244z
					 M224.562,115.777h-19.207V74.735L224.562,115.777z M202.12,66.244c0-1.415,1.011-2.426,2.426-2.426s2.426,1.011,2.426,2.426
					c0,1.011-0.607,2.022-1.617,2.224v-0.404h-1.617v0.404C202.727,68.266,202.12,67.255,202.12,66.244z M203.738,74.735v41.042
					h-19.207L203.738,74.735z"/>
			</g>
			<use xlink:href="#SVGID_57_"  overflow="visible" fill="none" stroke="#95846F" stroke-miterlimit="10"/>
		</g>
	</g>
	<g>
		<g>
			<defs>
				<polygon id="SVGID_2284_" points="-198.5,274.5 -198.5,478.5 -20.498,478.5 35.018,274.5 				"/>
			</defs>
			<clipPath id="SVGID_7_">
				<use xlink:href="#SVGID_2284_"  overflow="visible"/>
			</clipPath>
			<g clip-path="url(#SVGID_7_)">
				<g>
					<defs>
						<polygon id="SVGID_2286_" points="-347,87 -347,561 -48.481,561 63.224,87 						"/>
					</defs>
					<clipPath id="SVGID_9_">
						<use xlink:href="#SVGID_2286_"  overflow="visible"/>
					</clipPath>
				</g>
			</g>
			<use xlink:href="#SVGID_2284_"  overflow="visible" fill="none" stroke="#95846F" stroke-miterlimit="10"/>
		</g>
	</g>
	<g>
		<defs>
			<polygon id="SVGID_2294_" points="41.5,-522.5 41.5,-318.5 220.637,-318.5 274.897,-522.5 			"/>
		</defs>
		<clipPath id="SVGID_10_">
			<use xlink:href="#SVGID_2294_"  overflow="visible"/>
		</clipPath>
		<g clip-path="url(#SVGID_10_)">
			<defs>
				<polygon id="SVGID_2296_" points="40.933,-523.492 40.933,-317.345 220.689,-317.345 276.287,-522.531 				"/>
			</defs>
			<clipPath id="SVGID_12_">
				<use xlink:href="#SVGID_2296_"  overflow="visible"/>
			</clipPath>
			<g clip-path="url(#SVGID_12_)">
				<defs>
					<rect id="SVGID_2298_" x="-1245.38" y="-2392.665" width="1929.469" height="3801.658"/>
				</defs>
				<clipPath id="SVGID_14_">
					<use xlink:href="#SVGID_2298_"  overflow="visible"/>
				</clipPath>
			</g>
		</g>
		<use xlink:href="#SVGID_2294_"  overflow="visible" fill="none" stroke="#819D2C" stroke-miterlimit="10"/>
	</g>
	<text transform="matrix(1 0 0 1 298.207 107.7603)" font-family="'Roboto-Regular'" font-size="18">Social Welfare</text>
</g>
<g id="Layer_2">
</g>
</svg>
