<?xml version="1.0" encoding="utf-8"?>
<!-- Generator: Adobe Illustrator 17.0.0, SVG Export Plug-In . SVG Version: 6.00 Build 0)  -->
<!DOCTYPE svg PUBLIC "-//W3C//DTD SVG 1.1//EN" "http://www.w3.org/Graphics/SVG/1.1/DTD/svg11.dtd">
<svg version="1.1" id="Layer_1" xmlns="http://www.w3.org/2000/svg" xmlns:xlink="http://www.w3.org/1999/xlink" x="0px" y="0px"
	 width="520px" height="205px" viewBox="0 0 520 205" enable-background="new 0 0 520 205" xml:space="preserve">
<g>
	<defs>
		<polygon id="SVGID_1_" points="0.5,0.5 0.5,204.5 183.314,204.5 237.61,0.5 		"/>
	</defs>
	<clipPath id="SVGID_2_">
		<use xlink:href="#SVGID_1_"  overflow="visible"/>
	</clipPath>
	<g clip-path="url(#SVGID_2_)">
		<polygon fill="#DEEBC5" points="0,-4 0,207 189.278,207 238.728,-4 		"/>
		<g>
			<defs>
				<polygon id="SVGID_3_" points="0,-4 0,207 189.278,207 238.728,-4 				"/>
			</defs>
			<clipPath id="SVGID_4_">
				<use xlink:href="#SVGID_3_"  overflow="visible"/>
			</clipPath>
			<g clip-path="url(#SVGID_4_)">
				<path fill="#CBDF8E" d="M31.279,181c0,0,1.467,24.305,34.419,35.032L58.744,181H31.279z"/>
				<path fill="#819D2C" d="M55.226,96.504c0,0-2.248,73.63-18.079,78.849s4.007,16.064,9.04,9.404
					c5.033-6.66-3.27,11.76-9.955,8.592c0,0,8.763,9.031,19.259-4.954l-8.633,16.924c0,0,14.636,15.202,22.692,7.071
					c8.056-8.131,10.303-100.062,10.303-100.062L55.226,96.504z"/>
				<path fill="#CBDF8E" d="M74.494,131.626c0,0-13.375,53.131-23.358,58.458c0,0,21.418-11.461,24.75-50.216
					S74.494,131.626,74.494,131.626z"/>
				<path fill="#A6C93E" d="M69.549,123.145c0,0,7.914,17.723,0,33.905c0,0-20.458,52.872,0,59.72c0,0,49.229,17.92,68.918,2.123
					c6.041-4.847,15.804-49.28,5.256-71.694c-9.018-19.163-38.213-14.546-38.213-14.546l-23.27-17.984l-7.464-7.314l-1.267-5.988
					L69.549,123.145z"/>
				<linearGradient id="SVGID_5_" gradientUnits="userSpaceOnUse" x1="111.7046" y1="216.7701" x2="111.7046" y2="132.653">
					<stop  offset="0" style="stop-color:#A6C93E;stop-opacity:0"/>
					<stop  offset="1" style="stop-color:#819D2C"/>
				</linearGradient>
				<path fill="url(#SVGID_5_)" d="M145.985,216.77c0,0-8.052-15.797,2.3-35.446c0,0,4.942-44.693-22.451-47.39
					c0,0-20.688-9.247-43.594,21.961c0,0-20.743,37.373,6.931,54.326"/>
				<path fill="#CBDF8E" d="M147.611,160.235l0.786,6.72c0,0-18.899,6.153-19.666,7.756c0,0,0.383,3.02,8.052,0
					c0,0-10.487,4.069-14.953,10.046c-2.199,2.942,5.48,10.437,13.284,6.199l19.224-14.713c0,0,3.503-23.276-8.116-26.038
					C143.4,149.534,147.611,160.235,147.611,160.235z"/>
				<path fill="#FDDEEA" d="M128.348,149.73c0,0-11.049,4.238-16.643,2.312c0,0,8.435-2.312,8.322-5.009
					c0,0-2.797-5.16-21.968,5.511c0,0-30.048,4.488-34.475,5.474l5.965-34.873l-17.883-2.697c0,0-3.834,38.529-2.3,50.858
					c0,0,14.993,5.394,50.438-9.247c0,0,33.528,11.944,35.829-8.862C135.633,153.198,131.906,148.559,128.348,149.73z"/>
				<path fill="#A6C93E" d="M69.549,125.057c0,0-7.975,0.115-10.706-1.911c0,0-7.194-2.626-7.434,0
					c-0.239,2.626-2.833-35.382,14.443-32.749c0,0,12.288,1.248,5.838,24.74L69.549,125.057z"/>
				<path fill="#819D2C" d="M100.234,94.976c0,0,5.776-2.759,11.235,3.131c2.413,2.603,4.764,6.896,6.527,13.864
					c0,0,17.637,10.403,0,20.42c0,0-37.706,17.396-40.258-8.476l-3.451-18.494c0,0-1.917-15.026-8.435-15.026l16.388-3.853
					L100.234,94.976z"/>
				<path fill="#A6C93E" d="M105.158,94.462c0,0,1.719,25.885-7.1,23.958c0,0,10.331,0.897,13.409-9.377
					C114.545,98.77,105.158,94.462,105.158,94.462z"/>
				<path fill="#CBDF8E" d="M108.794,127.769c0,0-40.641-15.44-31.543-40.213l-7.702,1.303
					C69.549,88.859,83.873,125.842,108.794,127.769z"/>
				<path fill="#A6C93E" d="M100.811,94.758c-1.791,2.769,6.518,17.944-6.935,11.222c0,0,14.932,6.548,11.283-11.518
					C105.158,94.462,101.405,93.84,100.811,94.758z"/>
				<path fill="#CBDF8E" d="M82.24,86.928c0,0,1.098,25.771,20.152,22.133c0,0-17.019,10.191-25.141-21.505L82.24,86.928z"/>
				<path fill="#CBDF8E" d="M88.834,153.519c5.263-0.602,9.224-0.975,9.224-0.975c19.17-10.671,21.968-5.511,21.968-5.511
					c0.113,2.697-8.322,5.009-8.322,5.009c5.594,1.926,16.643-2.312,16.643-2.312c3.558-1.171,7.285,3.468,7.285,3.468
					c-2.3,20.805-35.829,8.862-35.829,8.862c-35.445,14.641-50.438,9.247-50.438,9.247c-1.534-12.329,2.3-50.858,2.3-50.858
					l17.883,2.697l-1.734,9.508l-4.231,25.365"/>
				<path fill="#A6C93E" d="M58.376,163.156l9.439-30.503l-4.231,25.365c2.792-1.656,15.675-3.404,25.25-4.499l2.14,2.125
					L58.376,163.156z"/>
				<path fill="#819D2C" d="M91.769,149.165c0.614,0,1.189,0.468,1.679,1.281c-0.951,1.576-1.588,4.448-1.588,7.732
					s0.637,6.156,1.588,7.732c-0.491,0.813-1.065,1.281-1.679,1.281c-1.804,0-3.267-4.035-3.267-9.013
					S89.964,149.165,91.769,149.165z"/>
				<path fill="#A6C93E" d="M93.448,150.446c0.491-0.813,1.065-1.281,1.679-1.281s1.189,0.468,1.679,1.281
					c-0.951,1.576-1.588,4.448-1.588,7.732s0.637,6.156,1.588,7.732c-0.491,0.813-1.065,1.281-1.679,1.281s-1.189-0.468-1.679-1.281
					c-0.951-1.576-1.588-4.448-1.588-7.732S92.497,152.022,93.448,150.446z"/>
				<path fill="#819D2C" d="M96.471,150.446c0.491-0.813,1.065-1.281,1.679-1.281c0.614,0,1.189,0.468,1.679,1.281
					c-0.951,1.576-1.588,4.448-1.588,7.732s0.637,6.156,1.588,7.732c-0.491,0.813-1.065,1.281-1.679,1.281
					c-0.614,0-1.189-0.468-1.679-1.281c-0.951-1.576-1.588-4.448-1.588-7.732S95.52,152.022,96.471,150.446z"/>
				<path fill="#819D2C" d="M159.221,175.658c-0.469,0.398-1.209,0.413-2.106,0.111c-0.286-1.82-1.645-4.427-3.754-6.935
					c-2.109-2.508-4.441-4.289-6.179-4.875c-0.147-0.939-0.01-1.67,0.46-2.068c1.378-1.17,5.087,0.963,8.285,4.765
					S160.599,174.488,159.221,175.658z"/>
				<path fill="#A6C93E" d="M157.115,175.769c0.147,0.939,0.01,1.67-0.46,2.068c-0.469,0.398-1.209,0.413-2.106,0.111
					c-0.286-1.82-1.645-4.427-3.754-6.935c-2.109-2.508-4.441-4.289-6.179-4.875c-0.147-0.939-0.01-1.67,0.46-2.068
					c0.469-0.398,1.209-0.413,2.106-0.111c1.739,0.586,4.07,2.367,6.179,4.875C155.47,171.341,156.829,173.948,157.115,175.769z"/>
				<path fill="#819D2C" d="M154.806,177.729c0.147,0.939,0.01,1.67-0.46,2.068c-0.469,0.398-1.209,0.413-2.106,0.111
					c-0.286-1.82-1.645-4.427-3.754-6.935c-2.109-2.508-4.441-4.289-6.179-4.875c-0.147-0.939-0.01-1.67,0.46-2.068
					c0.469-0.398,1.209-0.413,2.106-0.111c1.739,0.586,4.07,2.367,6.179,4.875C153.161,173.302,154.52,175.909,154.806,177.729z"/>
				<path fill="#A6C93E" d="M110.678,100.028c0,0,4.628,21.191-2.498,23.117c0,0,9.145-6.537,8.446-15.791
					s-11.468-12.893-11.468-12.893L110.678,100.028z"/>
				<path fill="#819D2C" d="M115.303,10.448c0,0,38.729,31.823,22.242,42.997l-2.298-13.933c0,0-1.234,23.979-9.435,27.611
					c0,0,9.689-8.109,2.661-26.944c0,0-31.948,13.821-40.383,13.821h-5.867l11.652,10.446l-8.823,18.012l-2.83,8.475
					c0,0-1.185,11.117,5.6,11.3c0,0-21.204,5.776-10.468-21.816c0,0-5.751,3.834-7.668,0.752c0,0,6.135-2.245,6.135-12.686
					c0,0-10.352,6.969-12.269-0.005c0,0,8.435-0.37,9.969-4.636c1.534-4.266-17.637-17.367-7.285-28.155
					c0,0,7.285-8.862,11.119,1.541C77.355,37.227,78.487,4.476,115.303,10.448z"/>
				<path fill="#CBDF8E" d="M127.581,39.538c0,0,9.969-1.926,2.684,19.65c0,0-4.048,8.392-5.751,13.1
					c-1.581,4.37-11.886,14.256-11.886,14.256s-6.518,6.935-13.803-7.706c0,0-6.901-10.347-6.901-14.998s-1.917-11.972-1.917-11.972
					S99.495,52.932,127.581,39.538z"/>
				<path fill="#CBDF8E" d="M105.51,79.993L97.675,90.01c0,0,10.735,17.723,0,17.338c0,0-16.87-4.038-15.336-19.164
					c0,0,9.585-19.365,7.668-27.456c0,0-6.332,9.247-7.767-9.247c0,0,5.85-11.587,7.767,0.385"/>
				<path fill="#819D2C" d="M124.692,59.552c0,0,4.972-2.953,6.103-1.817l-0.791,1.476
					C130.003,59.211,128.534,58.757,124.692,59.552z"/>
				<path fill="#819D2C" d="M119.38,57.493c0,0-2.712-6.204-12.883-4.274c0,0,10.742,1.095,11.075,4.292
					c0.027,0.254,0.84,0.578,0.84,0.578S118.363,58.823,119.38,57.493z"/>
				<path fill="#A6C93E" d="M111.629,46.564c0,0-8.527,9.906-13.57,10.227c0,0-2.335,20.013,3.082,25.617
					c0,0-6.373-1.441-10.037-20.493l-1.096-10.047l13.853-2.575L111.629,46.564z"/>
			</g>
		</g>
		<path fill="#819D2C" d="M117.996,111.972c0,0,23.519,13.891-6.908,23.059C111.087,135.031,130.321,125.812,117.996,111.972z"/>
	</g>
	<use xlink:href="#SVGID_1_"  overflow="visible" fill="none" stroke="#819D2C" stroke-miterlimit="10"/>
</g>
<g>
	<defs>
		<polygon id="SVGID_2418_" points="598.5,354.5 598.5,558.5 777.637,558.5 831.897,354.5 		"/>
	</defs>
	<clipPath id="SVGID_7_">
		<use xlink:href="#SVGID_2418_"  overflow="visible"/>
	</clipPath>
	<g clip-path="url(#SVGID_7_)">
		<defs>
			<polygon id="SVGID_2420_" points="597.933,353.508 597.933,559.655 777.689,559.655 833.287,354.469 			"/>
		</defs>
		<clipPath id="SVGID_9_">
			<use xlink:href="#SVGID_2420_"  overflow="visible"/>
		</clipPath>
		<g clip-path="url(#SVGID_9_)">
			<defs>
				<rect id="SVGID_2422_" x="-688.38" y="-1515.665" width="1929.469" height="3801.658"/>
			</defs>
			<clipPath id="SVGID_11_">
				<use xlink:href="#SVGID_2422_"  overflow="visible"/>
			</clipPath>
		</g>
	</g>
	<use xlink:href="#SVGID_2418_"  overflow="visible" fill="none" stroke="#819D2C" stroke-miterlimit="10"/>
</g>
</svg>
