<?xml version="1.0" encoding="utf-8"?>
<!-- Generator: Adobe Illustrator 17.0.0, SVG Export Plug-In . SVG Version: 6.00 Build 0)  -->
<!DOCTYPE svg PUBLIC "-//W3C//DTD SVG 1.1//EN" "http://www.w3.org/Graphics/SVG/1.1/DTD/svg11.dtd">
<svg version="1.1" id="Layer_1" xmlns="http://www.w3.org/2000/svg" xmlns:xlink="http://www.w3.org/1999/xlink" x="0px" y="0px"
	 width="581.238px" height="253.981px" viewBox="0 0 581.238 253.981" enable-background="new 0 0 581.238 253.981"
	 xml:space="preserve">
<rect x="29.789" y="21.191" fill="#FFFFFF" stroke="#4D4D4D" stroke-miterlimit="10" width="519" height="203"/>
<g>
	<defs>
		<polygon id="SVGID_1_" points="29.289,20.691 29.289,224.691 212.077,224.691 266.514,20.691 		"/>
	</defs>
	<clipPath id="SVGID_2_">
		<use xlink:href="#SVGID_1_"  overflow="visible"/>
	</clipPath>
	<g clip-path="url(#SVGID_2_)">
		<g>
			<defs>
				<polygon id="SVGID_3_" points="-120.711,-166.309 -120.711,307.691 178.166,307.691 289.701,-166.309 				"/>
			</defs>
			<clipPath id="SVGID_4_">
				<use xlink:href="#SVGID_3_"  overflow="visible"/>
			</clipPath>
		</g>
		<polygon fill="#DEEBC5" points="26.289,13.691 26.289,253.691 213.588,253.691 270.23,13.691 		"/>
		<g>
			<defs>
				<polygon id="SVGID_5_" points="26.289,13.691 26.289,253.691 178.913,253.691 235.555,13.691 				"/>
			</defs>
			<clipPath id="SVGID_6_">
				<use xlink:href="#SVGID_5_"  overflow="visible"/>
			</clipPath>
		</g>
		<g>
			<defs>
				<polygon id="SVGID_7_" points="26.289,13.691 26.289,253.691 178.913,253.691 235.555,13.691 				"/>
			</defs>
			<clipPath id="SVGID_8_">
				<use xlink:href="#SVGID_7_"  overflow="visible"/>
			</clipPath>
		</g>
		<g>
			<defs>
				<polygon id="SVGID_9_" points="26.289,13.691 26.289,253.691 213.588,253.691 270.23,13.691 				"/>
			</defs>
			<clipPath id="SVGID_10_">
				<use xlink:href="#SVGID_9_"  overflow="visible"/>
			</clipPath>
			<g clip-path="url(#SVGID_10_)">
				<path fill="#FFFFFF" d="M74.304,75.785c2.644,0.043,4.065,1.69,5.244,3.452c4.429,6.618,8.757,13.304,13.143,19.951
					c0.676,1.024,1.459,1.978,2.183,2.971c0.749,1.027,0.593,1.522-0.744,1.947c-3.387,1.076-6.726,2.313-10.043,3.592
					c-0.91,0.351-1.756,0.985-2.491,1.645c-1.479,1.327-2.754,1.29-4.296-0.005c-4.207-3.532-8.576-6.872-12.756-10.435
					c-2.972-2.533-5.741-5.304-8.602-7.968c-0.336-0.313-0.631-0.712-1.025-0.916c-1.728-0.897-1.673-2.044-0.577-3.402
					c3.176-3.936,6.541-7.551,11.846-8.631C68.927,77.428,71.6,76.53,74.304,75.785z"/>
				<path fill="#FFFFFF" d="M96.753,101.44c-1.089-1.517-1.906-2.575-2.639-3.688c-4.302-6.532-8.527-13.115-12.905-19.596
					c-1.488-2.203-1.512-4.153,0.029-6.225c3.81-5.121,8.219-9.585,13.961-12.542c2.84-1.463,5.459,0.173,6.031,3.354
					c0.609,3.389,1.546,6.721,2.398,10.063c0.924,3.625,1.367,7.514,3.034,10.768c1.643,3.205,1.956,4.808-2.034,5.51
					c-0.145,0.025-0.359,1.862,0.052,2.404c1.007,1.325,1.453,2.354-0.054,3.569c-1.419,1.143-2.568,0.686-3.626-0.54
					C97.97,95.521,98.186,98.531,96.753,101.44z"/>
				<path fill="#CBDF8E" d="M93.671,169.547c-0.312,0.598-0.385,0.82-0.523,0.989c-2.666,3.266-2.674,3.272,0.47,6.067
					c1.165,1.036,2.338,2.066,3.563,3.029c1.143,0.898,1.166,1.701,0.079,2.664c-1.575,1.395-3.027,2.936-4.66,4.256
					c-1.572,1.27-2.22,2.382-0.27,3.858c0.364,0.275,0.45,0.917,0.846,1.79c-0.913-0.092-1.485-0.076-2.017-0.213
					c-7.782-1.999-15.551-4.046-23.341-6.011c-1.87-0.472-2.929-1.371-2.645-3.415c0.011-0.076,0-0.156-0.002-0.234
					c-0.139-4.866-0.116-4.783,4.629-6.119c7.49-2.108,14.945-4.341,22.418-6.509C92.565,169.598,92.95,169.618,93.671,169.547z"/>
				<path fill="#CBDF8E" d="M113.957,173.142c-0.625,0-1.251-0.018-1.875,0.004c-1.521,0.052-2.116-0.738-2.039-2.18
					c0.091-1.711,0.063-3.437,0.31-5.125c0.089-0.608,0.844-1.62,1.26-1.602c3.947,0.166,5.813-3.049,8.347-5.068
					c2.678-2.133,5.258-4.447,7.571-6.967c3.616-3.94,6.972-8.12,10.436-12.199c0.151-0.178,0.313-0.358,0.417-0.564
					c0.594-1.182,0.631-3.217,2.538-2.758c1.987,0.479,3.868,1.52,5.658,2.552c0.242,0.139-0.052,1.875-0.557,2.503
					c-1.117,1.388-2.657,2.435-3.783,3.818c-1.245,1.529-2.159,3.323-3.335,4.914c-0.904,1.223-1.812,2.572-3.03,3.413
					c-4.942,3.414-9.973,6.703-15.038,9.933c-2.059,1.313-2.093,3.325-2.296,5.333C118.136,173.125,117.855,173.385,113.957,173.142
					z"/>
				<path fill="#CBDF8E" d="M116.302,121.349c4.131-0.255,4.526,0.081,5.054,3.572c0.225,1.486-0.34,1.895-1.773,1.944
					c-9.271,0.323-15.585-4.408-20.569-11.672c-1.007-1.468-2.649-2.49-3.926-3.788c-0.705-0.717-1.26-1.581-1.882-2.379
					c0.883-0.241,1.753-0.567,2.652-0.697c0.681-0.098,1.511,0.291,2.068,0.027c0.562-0.265,1.08-1.017,1.234-1.649
					c0.19-0.782-0.295-1.8,0.034-2.455c0.283-0.562,1.299-1.008,1.99-1.006c0.338,0.001,0.979,1.158,0.938,1.753
					c-0.062,0.892-0.577,1.763-0.948,2.622c-1.199,2.775-0.89,4.747,1.544,6.612c2.839,2.175,5.789,4.244,8.876,6.039
					C112.922,121.046,114.718,121.015,116.302,121.349z"/>
				<path fill="#FFFFFF" d="M57.964,79.949c-0.222,0.444-0.346,0.99-0.683,1.317c-1.88,1.827-3.882,3.532-5.705,5.412
					c-1.658,1.71-1.499,2.418,0.547,3.828c1.727,1.191,3.493,2.325,5.202,3.541c0.357,0.254,0.539,0.753,0.802,1.139
					c-0.165,0.202-0.331,0.403-0.496,0.605c-1.745-1.133-3.498-2.254-5.231-3.406c-0.45-0.299-0.828-0.704-1.25-1.047
					c-4.731-3.851-4.758-2.768-0.217-7.356c1.839-1.858,4.214-3.185,6.345-4.754C57.508,79.467,57.736,79.708,57.964,79.949z"/>
				<path fill="#FFFFFF" d="M77.448,113.249c-6.342-5.3-12.683-10.6-19.025-15.9c0.165-0.205,0.331-0.41,0.496-0.614
					c6.875,4.612,13.041,10.102,19.058,15.777C77.801,112.757,77.624,113.003,77.448,113.249z"/>
				<path fill="#FFFFFF" d="M103.755,66.004c-0.186-0.289-0.514-0.567-0.538-0.869c-0.237-3.1-0.944-5.98-3.303-8.25
					c-0.125-0.121,0.475-1.443,0.768-1.455c0.568-0.023,1.565,0.382,1.674,0.796c0.833,3.164,1.494,6.373,2.209,9.569
					C104.295,65.864,104.025,65.934,103.755,66.004z"/>
				<path fill="#CBDF8E" d="M163.607,108.379c-1.415-4.545-2.85-9.097-6.247-12.683c-1.421-1.501-2.897-1.857-4.808-0.804
					c-0.718,0.395-1.778,0.204-2.683,0.217c-1.43,0.02-3.046-1.489-3.529-1.396c-2.892,0.553-2.361-1.499-2.438-2.837
					c-0.104-1.79-1.044-2.083-2.482-1.887c-2.707,0.368-5.436,0.634-8.102,1.198c-0.906,0.191-2.156,1.004-2.381,1.783
					c-1.05,3.638-1.797,7.363-2.652,11.057c-0.313,9.636,7.891,17.701,16.599,18.347c5.909,0.438,10.964-2.017,15.771-5.011
					C165.178,113.545,165.174,113.412,163.607,108.379z M143.487,113.966c-2.818,0.165-5.578-0.993-7.399-2.887
					C137.909,112.973,140.67,114.13,143.487,113.966c0.312-0.024,0.64-0.01,0.957-0.019
					C144.127,113.956,143.799,113.942,143.487,113.966z"/>
				<path fill="none" d="M94.873,102.159c-0.724-0.993-1.507-1.946-2.183-2.971c-4.386-6.648-8.714-13.333-13.143-19.951
					c-1.179-1.762-2.599-3.409-5.244-3.452c-2.704,0.745-5.377,1.643-8.119,2.201c-5.306,1.08-8.67,4.695-11.846,8.631
					c-1.096,1.358-1.15,2.505,0.577,3.402c0.394,0.205,0.688,0.603,1.025,0.916c2.86,2.664,5.63,5.435,8.602,7.968
					c4.18,3.562,8.549,6.902,12.756,10.434c1.543,1.295,2.817,1.332,4.296,0.005c0.736-0.66,1.581-1.295,2.491-1.645
					c3.318-1.279,6.656-2.516,10.043-3.592C95.466,103.681,95.623,103.186,94.873,102.159z"/>
				<path fill="none" d="M140.589,180.667c-1.533-2.455-4.561-3.612-7.325-2.588c-0.384,0.142-0.799,1.482-0.561,1.824
					c2.961,4.255,5.946,8.5,9.135,12.584c1.255,1.607,1.246,2.703-0.285,3.889c-2.169,1.68-3.305,4.599-6.364,5.242
					c-0.414,0.087-0.713,0.724-1.065,1.106c0.031,0.262,0.062,0.523,0.093,0.785c1.09,0.124,2.195,0.43,3.267,0.339
					c3.19-0.27,6.374-1.039,9.549-0.98c4.901,0.091,6.883-1.089,3.354-6.586C147.066,191.11,143.843,185.878,140.589,180.667z"/>
				<path fill="none" d="M116.302,121.349c-1.584-0.334-3.38-0.303-4.709-1.076c-3.087-1.795-6.037-3.864-8.877-6.039
					c-2.434-1.865-2.742-3.836-1.544-6.612c0.371-0.859,0.886-1.73,0.948-2.622c0.041-0.595-0.6-1.752-0.938-1.753
					c-0.69-0.002-1.707,0.444-1.99,1.006c-0.329,0.654,0.156,1.672-0.034,2.455c-0.153,0.632-0.672,1.384-1.234,1.649
					c-0.558,0.263-1.387-0.126-2.068-0.027c-0.899,0.13-1.769,0.455-2.652,0.697c0.622,0.798,1.177,1.662,1.882,2.379
					c1.277,1.299,2.918,2.32,3.926,3.788c4.984,7.263,11.298,11.994,20.569,11.672c1.433-0.05,1.998-0.458,1.773-1.944
					C120.827,121.43,120.433,121.093,116.302,121.349z"/>
				<path fill="none" d="M125.422,100.675c0.318-2.295,1.205-4.507,1.62-6.795c0.114-0.628-0.746-2.034-0.829-2.009
					c-2.521,0.777-5.001,1.687-7.867,2.713c1.651,1.763,2.764,2.951,4.275,4.564c-4.17,0.795-7.646,1.526-11.15,2.086
					c-1.166,0.186-1.536-0.537-0.932-1.627c0.351-0.634,0.645-1.3,1.201-2.434c-1.763,0.142-2.832,0.194-3.894,0.32
					c-2.735,0.324-3.478,1.739-3.262,4.512c0.162,2.088-0.077,4.375-0.815,6.316c-0.664,1.746-0.53,2.852,0.871,3.829
					c2.238,1.562,4.572,2.986,6.8,4.561c2.53,1.789,5.45,1.332,8.163,1.192c1.218-0.063,2.33-1.791,3.532-2.708
					c0.865-0.659,1.728-1.42,2.721-1.787c1.563-0.578,1.644-1.453,0.954-2.701C125.062,107.541,124.947,104.104,125.422,100.675z"/>
				<path fill="none" d="M58.423,97.349c6.342,5.3,12.683,10.6,19.025,15.9c0.176-0.246,0.353-0.492,0.529-0.738
					c-6.017-5.675-12.184-11.165-19.058-15.777C58.754,96.939,58.588,97.144,58.423,97.349z"/>
				<path fill="none" d="M110.347,164.37c-0.784,0.601-2.058,3.132-2.058,3.294v0.039c0,7.341,5.585,4.978,5.585,4.978
					c2.027,0.184,3.588-1.546,4.171-3.325c0.007-0.071,0.308-0.134,0.316-0.208c0.119-1.176-1.071-2.349,0.929-3.387v-0.024
					l-0.052,0.009c0.314-0.728,0.78-1.391,1.627-1.931c5.065-3.23,10.082-6.519,15.024-9.933c1.218-0.841,2.118-2.19,3.023-3.413
					c1.176-1.591,2.086-3.386,3.332-4.914c1.126-1.382,2.663-2.43,3.781-3.818c0.505-0.627,0.797-2.363,0.556-2.503
					c-1.79-1.033-3.671-2.074-5.659-2.552c-1.906-0.459-1.943,1.577-2.538,2.758c-0.104,0.206-0.266,0.386-0.417,0.564
					c-3.464,4.08-6.819,8.259-10.436,12.199c-2.313,2.52-4.894,4.833-7.571,6.967c-2.533,2.018-4.4,5.234-8.347,5.068
					c-0.061,0.003-0.593,0.019-0.65,0.043C110.917,164.303,110.395,164.336,110.347,164.37z"/>
				<path fill="none" d="M92.517,175.607c-1.1-1.029-1.494-1.611-1.235-2.401v0v0c0.209-0.637,0.837-1.41,1.866-2.671
					c0.138-0.169,0.211-0.391,0.523-0.988c-0.721,0.071-1.106,0.05-1.455,0.152c-7.473,2.168-14.928,4.401-22.418,6.509
					c-4.745,1.335-4.768,1.253-4.629,6.119c0.002,0.078,0.013,0.158,0.002,0.234c-0.283,2.043,0.775,2.943,2.645,3.415
					c7.79,1.965,15.559,4.012,23.341,6.011c0.533,0.137,1.104,0.122,2.017,0.213c-0.396-0.873-0.482-1.515-0.846-1.79
					c-1.95-1.475-1.302-2.587,0.27-3.858c1.633-1.32,3.085-2.861,4.66-4.256c1.087-0.963,1.064-1.765-0.079-2.664
					c-1.224-0.963-2.398-1.993-3.563-3.029C93.192,176.224,92.829,175.899,92.517,175.607L92.517,175.607L92.517,175.607z"/>
				<path fill="none" d="M163.607,108.379c-1.415-4.546-2.85-9.098-6.246-12.683c-1.421-1.501-2.897-1.857-4.808-0.804
					c-0.718,0.395-1.778,0.204-2.683,0.217c-1.43,0.019-3.046-1.489-3.529-1.397c-2.892,0.553-2.361-1.499-2.438-2.836
					c-0.103-1.79-1.044-2.083-2.482-1.887c-2.707,0.368-5.436,0.634-8.102,1.198c-0.906,0.192-2.156,1.004-2.381,1.783
					c-1.05,3.638-1.797,7.363-2.652,11.057c-0.313,9.635,7.891,17.701,16.599,18.347c5.909,0.438,10.964-2.017,15.771-5.011
					C165.178,113.545,165.174,113.412,163.607,108.379z"/>
				<path fill="none" d="M57.326,94.046c-1.709-1.215-3.476-2.35-5.202-3.541c-2.046-1.411-2.205-2.118-0.547-3.828
					c1.823-1.88,3.824-3.586,5.705-5.412c0.336-0.327,0.461-0.872,0.683-1.317c-0.228-0.241-0.456-0.481-0.684-0.722
					c-2.131,1.569-4.506,2.896-6.345,4.754c-4.541,4.589-4.515,3.506,0.217,7.356c0.422,0.343,0.8,0.748,1.25,1.047
					c1.732,1.152,3.485,2.274,5.231,3.406c0.165-0.202,0.331-0.403,0.496-0.605C57.865,94.799,57.683,94.3,57.326,94.046z"/>
				<path fill="none" d="M103.218,65.135c0.023,0.302,0.351,0.58,0.537,0.869c0.27-0.07,0.54-0.14,0.81-0.21
					c-0.715-3.195-1.376-6.404-2.209-9.568c-0.109-0.414-1.106-0.82-1.674-0.796c-0.293,0.012-0.893,1.335-0.768,1.455
					C102.273,59.155,102.98,62.035,103.218,65.135z"/>
				<path fill="none" d="M94.114,97.752c0.733,1.113,1.55,2.171,2.639,3.689c1.433-2.909,1.217-5.919,4.248-6.925
					c1.058,1.226,2.206,1.683,3.626,0.54c1.508-1.214,1.061-2.243,0.054-3.569c-0.411-0.542-0.197-2.378-0.052-2.404
					c3.99-0.702,3.677-2.304,2.034-5.51c-1.668-3.254-2.11-7.143-3.034-10.768c-0.852-3.342-1.789-6.674-2.398-10.063
					c-0.572-3.181-3.191-4.817-6.031-3.354c-5.742,2.957-10.151,7.421-13.961,12.542c-1.541,2.072-1.517,4.022-0.029,6.225
					C85.587,84.636,89.812,91.22,94.114,97.752z"/>
				<path fill="none" d="M167.432,128.575c1.567-0.201,3.74,0.506,2.957-2.117c-0.756-2.529-1.699-5.037-2.876-7.397
					c-1.503-3.016-1.638-2.945-4.279-0.81c-0.302,0.244-0.622,0.493-0.975,0.64c-1.826,0.762-1.754,1.928-0.808,3.366
					c0.943,1.434,1.956,2.844,2.707,4.378C164.924,128.199,165.92,128.974,167.432,128.575z"/>
				<path d="M92.517,175.607l-1.235-2.401C91.023,173.996,91.417,174.579,92.517,175.607z"/>
				<path fill="#AC8833" d="M118.517,169.356c0.563-1.72,0.651-3.47,0.657-3.595c-0.444,1.038-0.516,2.211-0.635,3.387
					C118.532,169.222,118.524,169.285,118.517,169.356z"/>
				<path d="M110.179,167.682c0,0.008,0,0.014,0,0.014l0.002-0.031L110.179,167.682z"/>
				<path d="M111.293,164.37c0.048-0.035,0.097-0.068,0.142-0.089C111.386,164.303,111.339,164.335,111.293,164.37z"/>
				<polygon points="119.174,165.762 119.18,165.747 119.175,165.738 				"/>
				<polygon points="91.282,173.207 91.282,173.206 91.282,173.206 				"/>
				<polygon points="92.517,175.608 92.517,175.608 92.517,175.607 				"/>
				<path d="M111.293,164.37c-0.402,0.288-0.872,0.998-0.941,1.47c-0.088,0.603-0.135,1.213-0.171,1.824
					C110.2,167.503,110.509,164.972,111.293,164.37z"/>
				<path d="M111.612,164.238c-0.054-0.002-0.114,0.014-0.177,0.043C111.492,164.257,111.551,164.241,111.612,164.238z"/>
				<path fill="#A6C93E" d="M118.517,169.356c-0.582,1.779-1.671,3.509-3.698,3.325c0,0-4.63,1.575-5.697-1.878
					c0.1-1.03-0.834-2.074-0.834-3.1c0,0,0-0.014,0-0.021l0.947-0.017c0.036-0.611,0.556-1.22,0.644-1.824
					c0.069-0.473,0.775-1.183,1.177-1.47c0.046-0.035,0.211-0.068,0.26-0.089c0.063-0.029,0.182-0.046,0.236-0.043l2.707-0.371
					c0,0-1.852-0.72-3.702-2.144c-2.352,1.231-4.597,1.849-7.369,2.653c-1.948,0.565-4.076,0.91-5.986,1.357
					c-3.213,3.765-6.163,7.582-6.163,7.582l0.269,1.162l0.503,1.058l0.704,0.93l36.251-0.021c0,0-6.889-6.761-9.593-10.684
					l0.093-0.052"/>
				<path d="M166.253,164.609"/>
				<path fill="none" d="M133.477,178.021c-0.765,0.71-0.775,1.882-0.775,1.882c2.961,4.255,5.946,8.5,9.135,12.584
					c1.255,1.607,1.246,2.703-0.285,3.889c-2.169,1.68-3.305,4.599-6.364,5.242c-0.414,0.087-0.713,0.724-1.065,1.106
					c0.031,0.262,0.062,0.523,0.093,0.785c1.09,0.124,2.195,0.43,3.267,0.339c3.19-0.27,6.374-1.039,9.549-0.98
					c4.901,0.091,6.883-1.089,3.354-6.586c-3.319-5.171-6.542-10.403-9.797-15.614c-0.309-0.495-0.692-0.921-1.108-1.303
					c-1.014-0.677-1.878-1.14-2.611-1.435C135.78,177.639,134.614,177.647,133.477,178.021z"/>
				<polygon points="110.359,161.923 110.345,161.93 110.347,161.931 110.348,161.93 				"/>
				<path fill="#AC8833" d="M111.612,164.238c0.542,0.023,1.041-0.023,1.512-0.116l-0.109-0.087L111.612,164.238z"/>
				<path d="M136.869,177.928c-1.79-0.72-2.81-0.448-3.392,0.093C134.614,177.647,135.78,177.639,136.869,177.928z"/>
				<path d="M111.209,161.318c-0.28,0.239-0.562,0.452-0.85,0.605c0.151-0.079,0.303-0.161,0.454-0.237
					C110.968,161.608,111.096,161.477,111.209,161.318z"/>
				<path d="M139.48,179.363c-0.75-0.689-1.644-1.178-2.611-1.435C137.602,178.223,138.466,178.687,139.48,179.363z"/>
				<path d="M133.477,178.021c-0.071,0.023-0.143,0.032-0.214,0.058c-0.384,0.142-0.799,1.482-0.561,1.824
					C132.702,179.903,132.712,178.731,133.477,178.021z"/>
				<path fill="#CBDF8E" d="M94.873,102.159c-0.724-0.993-1.507-1.946-2.183-2.971c-4.386-6.648-8.714-13.333-13.143-19.951
					c-1.179-1.762-2.599-3.409-5.244-3.452c-2.704,0.745-5.377,1.643-8.119,2.201c-5.306,1.08-8.67,4.695-11.846,8.631
					c-1.096,1.358-1.15,2.505,0.577,3.402c0.394,0.205,0.688,0.603,1.025,0.916c2.86,2.664,5.63,5.435,8.602,7.968
					c4.18,3.562,8.549,6.902,12.756,10.434c1.543,1.295,2.817,1.332,4.296,0.005c0.736-0.66,1.581-1.295,2.491-1.645
					c3.318-1.279,6.656-2.516,10.043-3.592C95.466,103.681,95.623,103.186,94.873,102.159z"/>
				<path fill="#CBDF8E" d="M104.68,91.486c-0.411-0.542,0.603-1.513,0.715-1.608c3.132-2.629,2.91-3.1,1.267-6.306
					c-1.668-3.254-2.11-7.143-3.034-10.768c-0.852-3.342-1.789-6.674-2.398-10.063c-0.572-3.181-3.191-4.817-6.031-3.354
					c-5.742,2.957-10.151,7.421-13.961,12.542c-1.541,2.072-1.517,4.022-0.029,6.225c4.378,6.48,8.603,13.064,12.905,19.595
					c0.733,1.113,1.55,2.171,2.639,3.689c1.433-2.909,2.19-4.137,4.248-6.925"/>
				<path fill="#AC8833" d="M113.928,163.903c0,0-1.733-0.549-3.582-1.972c-3.06,1.616,0.391,0.283,0.391,0.283l2.277,1.821
					L113.928,163.903L113.928,163.903z"/>
				<polygon points="113.928,163.903 113.928,163.903 113.928,163.903 				"/>
				<path fill="#745719" d="M275.213,164.132 M624.256,164.616c0.007-0.297,0.044-0.61,0.15-0.899
					c0.306-0.834,1.059-1.933,1.771-2.062c0.649-0.118,1.773,1.779,2.22,2.499c0.304,0.489,0.591,0.537,0.867,2.537h2.188
					c-0.414-2-0.738-3.108-1.047-4.128c-0.697-2.302,1.03-5.768,4.103-7.19c2.516-1.164,5.252-2.144,7.942-2.87
					c0.565-0.152,1.581,0.216,2.002,0.731c1.871,2.287,3.652,4.589,5.358,7.003c0.728,1.029,0.262,1.735-0.989,1.921
					c-0.154,0.023-0.313-0.004-0.467,0.02c-1.237,0.191-2.472,1.415-3.708,1.609c0.389,0.625,0.777,0.905,1.166,2.905h27.171
					c0.345-2,0.789-0.22,1.339-0.237c0.625-0.019,1.127-1.763,1.54,0.237h41.179c0,0,3.782,1.554,5.629,4.649
					c-0.603-1.514-1.34-3.517-2.181-4.963c-1.146-1.971-2.805-3.366-5.375-3.295c-8.051,0.223-16.108,0.103-24.163,0.153
					c-0.554,0.003-1.386-0.255-1.59-0.629c-0.221-0.407,0.032-1.213,0.272-1.739c0.415-0.911,1.307-1.727,1.429-2.648
					c0.82-6.183,1.863-12.374,0.681-18.644c-1.54-8.17-5.124-15.316-10.587-21.551c-0.743-0.847-1.087-1.747,0.077-2.592
					c3.022-2.194,5.873-4.681,9.084-6.549c6.414-3.733,10.156-11.216,8.758-18.637c-0.084-0.444,0.153-0.556,0.188-0.556
					c1.262,0,2.232,0,3.203,0c-0.482,0-0.851-3.237-1.499-4.448c-0.288-0.538-1.191-1.003-1.72-1.455
					c-0.576-0.492-1.1-1.215-1.548-1.828c-1.834-2.512-3.41-5.324-5.481-7.616c-5.637-6.238-12.729-9.401-21.165-8.227
					c-8.622,1.2-15.818,4.802-19.313,13.515c-0.202,0.503-0.473,0.994-0.815,1.413c-3.245,3.973-5.151,8.49-5.889,13.572
					c-0.916,6.306,0.149,12.087,4.048,17.238c0.527,0.697,0.989,1.442,1.481,2.165c-0.071,0.272-0.143,0.543-0.215,0.814
					c-5.083,0.424-10.161,0.941-15.251,1.231c-2.634,0.15-5.298-0.265-7.936-0.149c-9.126,0.401-18.246,0.929-27.37,1.392
					c-1.482,0.075-3.024-0.168-4.432,0.175c-0.869,0.212-1.535,1.255-2.293,1.924c0.718,0.795,1.302,2.012,2.184,2.292
					c1.526,0.486,3.235,0.453,4.872,0.522c1.583,0.067,2.654,0.454,2.91,2.322c0.091,0.665,1.099,1.651,1.763,1.715
					c3.091,0.298,6.207,0.361,9.317,0.421c0.672,0.013,1.468-0.166,2.007-0.543c1.744-1.219,3.444-1.106,5.297-0.292
					c0.841,0.369,1.815,0.535,2.742,0.594c7.631,0.482,15.264,0.941,22.9,1.347c1.452,0.077,2.85-0.027,3.422,1.733
					c0.556,1.708,1.317,3.301-0.206,5.022c-6.121,6.916-11.827,14.234-19.507,19.597c-0.188,0.131-0.389,0.309-0.476,0.511
					c-1.436,3.348-4.252,4.81-7.548,5.791 M683.29,161.028c-2.052,0.167-4.135-0.073-6.203-0.055
					c-4.055,0.034-8.11,0.092-12.163,0.197c-2.962,0.077-5.924,0.35-8.882,0.311c-0.849-0.011-2.013-0.592-2.464-1.283
					c-0.998-1.528-1.594-3.313-2.442-4.948c-0.3-0.579-0.766-1.162-1.307-1.506c-1.082-0.689-1.825-1.574-0.81-2.612
					c0.907-0.928,2.105-2.086,3.616-0.663c0.416,0.392,0.918,0.693,1.776,1.328c-0.324-3.567-0.035-3.766,3.563-3.389
					c0.205,0.7,0.211,1.569,0.575,1.763c0.535,0.283,1.343,0.179,2.004,0.065c0.931-0.162,1.859-0.764,2.746-0.687
					c3.127,0.273,6.241,0.716,9.346,1.187c0.734,0.111,1.415,0.579,2.117,0.893c1.7,0.761,3.099,1.752,5.381,1.246
					c2.107-0.467,4.56,0.465,6.819,0.967c0.486,0.108,1.083,0.985,1.136,1.554C688.355,158.173,686.171,160.793,683.29,161.028z
					 M680.873,121.449c3.733,5.154,6,10.946,8.041,16.944c1.031,3.029,0.874,5.858,0.832,8.818c-0.026,1.811-0.891,2.847-2.81,2.461
					c-3.614-0.728-7.198-1.616-10.822-2.29c-2.591-0.481-5.218-0.831-7.845-1.038c-2.45-0.193-4.922-0.09-7.382-0.187
					c-0.473-0.019-1.317-0.341-1.331-0.563c-0.053-0.886-0.184-2.187,0.323-2.615c2.586-2.185,5.278-4.271,8.106-6.129
					c1.35-0.887,3.083-1.192,4.643-1.761c0.049,0.125,0.097,0.25,0.146,0.374c0.468,0,1.003,0.143,1.388-0.036
					c0.491-0.229,0.86-0.718,1.281-1.095c-0.403-0.395-0.813-1.133-1.208-1.125c-1.465,0.03-2.982,0.119-4.373,0.539
					c-1.54,0.465-2.914,1.489-4.457,1.932c-0.889,0.255-2.064,0.054-2.938-0.333c-0.886-0.392-1.598-1.226-2.32-1.935
					c-4.36-4.286-4.513-4.594,0.863-8.811c2.715-2.129,5.818-3.985,9.641-3.494c0.382,0.049,0.914-0.24,1.218-0.535
					C675.394,117.14,677.925,117.38,680.873,121.449z M648.276,103.778c-1.946-9.444,1.154-17.413,7.555-24.183
					c1.258-1.33,3.493-1.974,5.397-2.39c1.874-0.41,2.527,0.713,2.093,2.569c-0.158,0.675,0.101,1.447,0.17,2.175
					c0.62-0.299,1.242-0.595,1.859-0.899c0.45-0.221,0.896-0.453,1.506-0.763c-0.112,1.68-0.195,2.928-0.279,4.177
					c1.119-0.345,2.303-0.556,3.34-1.067c1.701-0.837,3.102-0.336,4.635,0.463c1.785,0.929,3.645,1.781,5.563,2.368
					c1.809,0.553,1.604,1.359,0.735,2.526c-2.633,3.535-2.622,4.994-0.301,8.537c1.105,1.686,2.628,3.289,1.347,5.747
					c-0.279,0.535,1.007,1.885,1.571,2.86c0.632-0.483,1.213-1.068,1.911-1.419c0.733-0.368,1.578-0.51,2.375-0.751
					c0.027,0.829,0.427,2.017,0.025,2.435c-7.75,8.081-16.555,13.933-28.669,9.832C653.488,114.091,649.54,109.914,648.276,103.778z
					 M641.134,124.928c-1.718-0.054-3.439-0.012-5.159-0.012c-0.029,0.17-0.058,0.339-0.087,0.509
					c-4.976-0.894-9.934-1.917-14.937-2.611c-1.726-0.239-3.562,0.455-5.356,0.523c-2.533,0.096-5.074,0.03-7.609-0.054
					c-0.173-0.006-0.562-0.959-0.443-1.084c0.79-0.833,1.665-2.188,2.562-2.227c10.282-0.442,20.574-0.626,30.859-1.001
					c3.069-0.112,2.255,1.993,2.473,3.646C643.68,124.457,642.775,124.979,641.134,124.928z M649.358,125.264
					c-2.362,0.39-3.251-0.716-3.355-2.895c-0.041-0.849-0.437-1.716-0.328-2.528c0.089-0.661,0.555-1.625,1.086-1.817
					c3.776-1.371,7.578-2.184,11.349,0.18c1.293,0.811,2.745,1.368,4.491,2.22c-3.151,2.61-5.932,4.913-8.885,7.358
					c-0.14-0.118-0.639-0.331-0.768-0.681C652.299,125.348,650.926,125.005,649.358,125.264z M642.568,147.28
					c3.941-4.523,7.909-9.022,11.852-13.542c0.908-1.041,1.763-1.145,2.747-0.106c1.069,1.128,2.3,2.124,3.228,3.353
					c0.344,0.457,0.331,1.669-0.034,2.1c-3.108,3.661-6.47,6.907-11.565,7.765c-2.208,0.371-4.293,1.472-6.435,2.242
					c-0.136-0.219-0.271-0.438-0.407-0.657C642.155,148.047,642.289,147.6,642.568,147.28z"/>
				<path fill="#819D2C" d="M141.552,196.375c1.531-1.186,1.54-2.282,0.285-3.889c-3.189-4.084-6.174-8.329-9.135-12.584
					l-0.739-0.74l-4.472-3.472H92.517c0.312,0,0.675,0.574,1.101,0.953c1.165,1.036,2.339,2.045,3.563,3.008
					c1.143,0.898,1.166,1.691,0.079,2.654c-1.575,1.395-3.027,2.931-4.66,4.25c-1.572,1.27-2.22,2.38-0.27,3.855
					c0.363,0.275,0.45,0.916,0.846,1.789c-0.913-0.091-1.484-0.077-2.017-0.214c-7.782-1.999-15.551-4.046-23.341-6.011
					c-1.87-0.472-2.928-1.371-2.645-3.415c0.01-0.076,0-0.156-0.002-0.234c-0.139-4.866-0.116-4.784,4.629-6.119
					c7.49-2.108,14.945-4.341,22.418-6.509c0.349-0.101,0.733-0.081,1.455-0.152c-0.312,0.598-0.385,0.82-0.523,0.989
					c-1.029,1.26-1.657,2.034-1.866,2.671c0,0,2.713-3.707,5.926-7.472c-2.229,0.522-4.415,1.178-6.636,1.755
					c-5.893,1.533-11.804,3.004-17.671,4.634c-5.856,1.628-11.657,3.455-17.501,5.128c-3.967,1.136-7.972,2.14-11.946,3.256
					c-0.459,0.129-0.823,0.595-1.231,0.905c0.399,0.419,0.741,0.927,1.214,1.229c0.368,0.235,0.905,0.194,1.358,0.309
					c4.832,1.225,9.666,2.443,14.492,3.693c2.263,0.586,4.501,1.265,6.764,1.853c4.383,1.138,8.794,2.177,13.161,3.372
					c9.928,2.716,17.705,4.649,28.271,4.014c8.344-0.501,18.854,0.25,27.222,0.189c0.624-0.004,3.156-0.01,3.781,0.189"/>
				<path fill="#754C24" d="M137.483,203.844c-1.072,0.091-2.177-0.213-3.267-0.337"/>
				<path fill="#754C24" d="M156.798,196.685c3.672,0.047,7.346-0.07,11.02-0.096c14.387-0.099,28.774-0.207,43.161-0.276
					c26.434-0.128,52.869-0.259,79.303-0.339c73.755-0.223,147.51-0.362,221.264-0.65c45.05-0.176,90.098-0.567,135.148-0.84
					c0.847-0.005,1.696,0.264,3.153,0.507c-2.362,2.422-4.73,3.032-7.289,3.463c-1.078,0.182-2.03,1.11-3.039,1.699
					c0.738,1.096,1.312,2.953,2.242,3.152c3.615,0.775,7.339,1.329,11.031,1.377c3.395,0.044,6.792-0.824,10.204-1.003
					c3.964-0.208,6.141-3.193,4.612-6.825c-0.666-1.581-0.215-2.077,1.378-2.297c1-0.138,2.518-0.511,2.797-1.191
					c1.143-2.792,2.203-5.647,2.735-8.605c0.736-4.093,0.72-6.07-0.121-12.07h-23.711c3.219,6,6.438,10.565,9.625,15.887
					c1.671,2.79,3.277,5.606,4.765,8.496c1.162,2.258,0.474,3.472-2.01,4.042c-0.076,0.017-0.153,0.032-0.23,0.039
					c-4.575,0.428-9.145,0.931-13.728,1.228c-1.293,0.084-2.627-0.447-3.942-0.695c-0.035-0.239-0.069-0.478-0.104-0.716
					c0.49-0.425,0.948-0.896,1.475-1.268c2.645-1.871,5.311-3.712,7.964-5.573c1.364-0.957,1.259-2.024,0.187-3.13
					c-3.148-3.247-6.38-6.376-9.431-9.711c-2.611-2.854-5.208-5.6-7.751-8.6H151.971c-0.786,2-1.256,0.556-1.256,0.556l10.648,6.676
					l-21.783-0.484c-0.034-0.023-0.066-0.047-0.1-0.07c0.416,0.382,0.799,0.806,1.108,1.301c3.255,5.212,6.478,10.442,9.797,15.613"
					/>
				<path d="M168.684,165.992c14.827-0.104,29.653,0.699,44.48,0.699h-56.695l-7.994,6h3.497c2.647,0,9.041-3.972,14.522-7.483
					C167.371,165.351,168.034,165.996,168.684,165.992z"/>
				<path fill="#A6C93E" d="M162.65,165.171c-5.481,3.511-8.031,7.52-10.678,7.52h485.535c-1.551-3-3.086-2.572-4.578-4.398
					c-0.616-0.754-1.085-1.602-1.475-1.602h-2.188c0.703,0,1.322,1.594,1.859,2.956c0.199,0.504-0.349,1.36-0.655,1.392
					c-1.809,0.193-3.66-0.042-5.469-0.224c-0.404-0.041-0.895-1.232-0.999-1.879c-0.118-0.737,0.153-0.563,0.34-1.981
					c0-0.189-0.097-0.264-0.097-0.264H210.289"/>
				<path d="M92.599,186.551"/>
				<path fill="none" d="M58.423,97.349c6.342,5.3,12.683,10.6,19.025,15.9c0.176-0.246,0.353-0.492,0.529-0.738
					c-6.017-5.675-12.184-11.165-19.058-15.777C58.754,96.939,58.588,97.144,58.423,97.349z"/>
				<path fill="none" d="M94.873,102.159c-0.724-0.993-1.507-1.946-2.183-2.971c-4.386-6.648-8.714-13.333-13.143-19.951
					c-1.179-1.762-2.599-3.409-5.244-3.452c-2.704,0.745-5.377,1.643-8.119,2.201c-5.306,1.08-8.67,4.695-11.846,8.631
					c-1.096,1.358-1.15,2.505,0.577,3.402c0.394,0.205,0.688,0.603,1.025,0.916c2.86,2.664,5.63,5.435,8.602,7.968
					c4.18,3.562,8.549,6.902,12.756,10.434c1.543,1.295,2.817,1.332,4.296,0.005c0.736-0.66,1.581-1.295,2.491-1.645
					c3.318-1.279,6.656-2.516,10.043-3.592C95.466,103.681,95.623,103.186,94.873,102.159z"/>
				<path fill="none" d="M57.326,94.046c-1.709-1.215-3.476-2.35-5.202-3.541c-2.046-1.411-2.205-2.118-0.547-3.828
					c1.823-1.88,3.824-3.586,5.705-5.412c0.336-0.327,0.461-0.872,0.683-1.317c-0.228-0.241-0.456-0.481-0.684-0.722
					c-2.131,1.569-4.506,2.896-6.345,4.754c-4.541,4.589-4.515,3.506,0.217,7.356c0.422,0.343,0.8,0.748,1.25,1.047
					c1.732,1.152,3.485,2.274,5.231,3.406c0.165-0.202,0.331-0.403,0.496-0.605C57.865,94.799,57.683,94.3,57.326,94.046z"/>
				<path fill="none" d="M94.114,97.752c0.733,1.113,1.55,2.171,2.639,3.689c1.433-2.909,1.217-5.919,4.248-6.925
					c1.058,1.226,2.206,1.683,3.626,0.54c1.508-1.214,1.061-2.243,0.054-3.569c-0.411-0.542-0.197-2.378-0.052-2.404
					c3.99-0.702,3.677-2.304,2.034-5.51c-1.668-3.254-2.11-7.143-3.034-10.768c-0.852-3.342-1.789-6.674-2.398-10.063
					c-0.572-3.181-3.191-4.817-6.031-3.354c-5.742,2.957-10.151,7.421-13.961,12.542c-1.541,2.072-1.517,4.022-0.029,6.225
					C85.587,84.636,89.812,91.22,94.114,97.752z"/>
				<path fill="none" d="M116.302,121.349c-1.584-0.334-3.38-0.303-4.709-1.076c-3.087-1.795-6.037-3.864-8.877-6.039
					c-2.434-1.865-2.742-3.836-1.544-6.612c0.371-0.859,0.886-1.73,0.948-2.622c0.041-0.595-0.6-1.752-0.938-1.753
					c-0.69-0.002-1.707,0.444-1.99,1.006c-0.329,0.654,0.156,1.672-0.034,2.455c-0.153,0.632-0.672,1.384-1.234,1.649
					c-0.558,0.263-1.387-0.126-2.068-0.027c-0.899,0.13-1.769,0.455-2.652,0.697c0.622,0.798,1.177,1.662,1.882,2.379
					c1.277,1.299,2.918,2.32,3.926,3.788c4.984,7.263,11.298,11.994,20.569,11.672c1.433-0.05,1.998-0.458,1.773-1.944
					C120.827,121.43,120.433,121.093,116.302,121.349z"/>
				<path fill="none" d="M103.218,65.135c0.023,0.302,0.351,0.58,0.537,0.869c0.27-0.07,0.54-0.14,0.81-0.21
					c-0.715-3.195-1.376-6.404-2.209-9.568c-0.109-0.414-1.106-0.82-1.674-0.796c-0.293,0.012-0.893,1.335-0.768,1.455
					C102.273,59.155,102.98,62.035,103.218,65.135z"/>
				<path fill="none" d="M167.513,119.061c-1.503-3.016-1.638-2.945-4.279-0.81c-0.302,0.244-0.622,0.493-0.975,0.64
					c-1.826,0.762-1.754,1.928-0.808,3.366c0.943,1.434,1.956,2.844,2.707,4.378c0.766,1.564,1.762,2.34,3.274,1.941
					c1.567-0.201,3.74,0.506,2.957-2.117C169.633,123.929,168.689,121.421,167.513,119.061z"/>
				<path fill="none" d="M125.422,100.675c0.318-2.295,1.205-4.507,1.62-6.795c0.114-0.628-0.746-2.034-0.829-2.009
					c-2.521,0.777-5.001,1.687-7.867,2.713c1.651,1.763,2.764,2.951,4.275,4.564c-4.17,0.795-7.646,1.526-11.15,2.086
					c-1.166,0.186-1.536-0.537-0.932-1.627c0.351-0.634,0.645-1.3,1.201-2.434c-1.763,0.142-2.832,0.194-3.894,0.32
					c-2.735,0.324-3.478,1.739-3.262,4.512c0.162,2.088-0.077,4.375-0.815,6.316c-0.664,1.746-0.53,2.852,0.871,3.829
					c2.238,1.562,4.572,2.986,6.8,4.561c2.53,1.789,5.45,1.332,8.163,1.192c1.218-0.063,2.33-1.791,3.532-2.708
					c0.865-0.659,1.728-1.42,2.721-1.787c1.563-0.578,1.644-1.453,0.954-2.701C125.062,107.541,124.947,104.104,125.422,100.675z"/>
				<path fill="none" d="M163.607,108.379c-1.415-4.546-2.85-9.098-6.246-12.683c-1.421-1.501-2.897-1.857-4.808-0.804
					c-0.718,0.395-1.778,0.204-2.683,0.217c-1.43,0.019-3.046-1.489-3.529-1.397c-2.892,0.553-2.361-1.499-2.438-2.836
					c-0.103-1.79-1.044-2.083-2.482-1.887c-2.707,0.368-5.436,0.634-8.102,1.198c-0.906,0.192-2.156,1.004-2.381,1.783
					c-1.05,3.638-1.797,7.363-2.652,11.057c-0.313,9.635,7.891,17.701,16.599,18.347c5.909,0.438,10.964-2.017,15.771-5.011
					C165.178,113.545,165.174,113.412,163.607,108.379z"/>
				<path d="M110.359,161.767c0.035-0.018,0.071-0.027,0.106-0.033c-0.039-0.041-0.078-0.071-0.117-0.114
					C110.352,161.625,110.355,161.769,110.359,161.767z"/>
				<path d="M133.477,178.021L133.477,178.021c-0.071,0.019-0.143,0.032-0.214,0.058
					C133.334,178.053,133.406,178.044,133.477,178.021z"/>
				<polygon points="110.347,161.619 110.348,161.62 110.348,161.619 				"/>
				<path fill="#95B533" d="M637.506,172.691H134.829l10.539,16.63l505.001-0.561c-1.729-2.407-3.448-4.57-5.112-6.389
					C642.646,179.518,640.049,175.691,637.506,172.691z"/>
				<path fill="#95B533" d="M128.768,176.445l-36.251,0.021l5.54,6.112l-6.539,6.112h45.916c-1.601-5-2.635-5.348-4.196-7.591
					l-1.073-1.657L128.768,176.445z"/>
				<path d="M133.861,177.917l-0.067-0.126c-0.116,0.07-0.224,0.145-0.316,0.231C133.605,177.986,133.732,177.95,133.861,177.917z"
					/>
				<path fill="#819D2C" d="M111.127,92.981c1.664-3.91-0.907-6.28-1.763-9.789c-0.761-3.118,0.922-3.697,3.051-4.199
					c-0.091-0.274-0.176-0.553-0.256-0.832c-2.342-8.244-4.607-16.511-6.832-24.787c-0.455-1.692-1.226-2.267-3.023-1.925
					c-11.292,2.146-18.812,9.033-23.639,19.055c-1.146,2.38-2.353,3.111-4.896,3.146C62.581,73.804,52.892,77.4,45.718,86.489
					c-1.271,1.61-0.864,2.483,0.548,3.641c4.36,3.572,9.163,6.496,13.166,10.643c5.121,5.306,11.106,9.775,16.692,14.635
					c1.04,0.904,1.811,1.092,3.015,0.086c2.333-1.948,4.838-3.694,7.312-5.467c2.008-1.44,2.725-1.182,4.209,0.788
					c0.869,1.153,2.066,2.063,3.141,3.055c0.74,0.683,1.635,1.228,2.264,1.996c1.814,2.217,3.364,4.668,5.316,6.749
					c3.5,3.731,7.67,6.134,12.973,6.769c4.096,0.49,8.514-0.526,12.27,2.086c0.231,0.16,0.638,0.221,0.911,0.144
					c2.727-0.775,3.743,1.018,4.605,3.034c0.521,1.22,1.122,2.425,1.46,3.697c0.227,0.853,0.445,2.182-0.007,2.657
					c-1.748,1.837-3.514,4.25-5.735,4.923c-4.669,1.415-8.377,4.053-11.711,7.266c-0.015,0.039-2.252,5.827-4.939,8.128
					c-0.113,0.16-0.241,0.29-0.396,0.368c-0.115,0.058-0.232,0.03-0.348,0.048c1.803,1.877,3.725,2.171,3.725,2.171
					c2.475-0.855,3.789-3.236,5.768-4.813c2.678-2.133,5.258-4.408,7.571-6.928c3.616-3.94,6.972-8.1,10.436-12.18
					c0.151-0.178,0.313-0.348,0.417-0.554c0.594-1.182,0.631-3.213,2.537-2.753c1.987,0.479,3.868,1.522,5.658,2.555
					c0.242,0.139-0.052,1.877-0.557,2.504c-1.117,1.388-2.656,2.436-3.783,3.819c-1.245,1.529-2.159,3.324-3.335,4.915
					c-0.904,1.223-1.812,2.572-3.03,3.413c-4.942,3.414-9.973,6.703-15.038,9.933c-0.848,0.54-1.341,1.203-1.656,1.931
					c1.935,4.033,8.31,9.861,8.31,9.861l4.472,3.513l0.739,0.782c-0.238-0.341,0.178-1.681,0.561-1.824
					c0.071-0.026,0.143-0.039,0.214-0.058c0.092-0.086,0.201-0.161,0.316-0.231c0.614-0.367,1.57-0.467,3.076,0.138
					c0.967,0.257,1.861,0.746,2.611,1.435c0.034,0.023,0.066,0.042,0.1,0.065l21.783,0.474l-10.648-6.696
					c0,0,8.671-4.005,15.779-8.558c-0.082-0.013-0.155-0.027-0.241-0.04c1.476-2.218,3.039-3.939,3.887-5.961
					c2.215-5.276,2.078-10.719,0.46-16.159c-1.166-2.332-2.218-4.716-3.119-7.168c-1.069-2.909-2.568-5.644-3.416-8.63
					c-0.026-0.09-0.012-0.166-0.019-0.25c-0.74-1.457-1.694-2.813-2.596-4.185c-0.945-1.437-1.018-2.604,0.808-3.366
					c0.353-0.147,0.673-0.396,0.975-0.64c1.166-0.942,1.834-1.453,2.356-1.503c0.63-0.476,1.658-0.406,1.85,0.577
					c0.638,3.283,2.501,6.966,4.805,9.398c0.585,0.617,0.392,1.825-0.531,2.012c-1.192,0.241-2.24,0.2-3.356-0.204
					c-0.315,0.002-0.631,0.006-0.927,0.044c-0.061,0.016-0.109,0.001-0.169,0.014c0.801,2.046,1.766,4.041,2.54,6.092
					c0.301,0.797,0.638,1.572,0.959,2.356c0.231-0.157,0.47-0.312,0.79-0.453c0.058-0.025,0.075-0.134,0.12-0.197
					c0.042-0.06,0.072-0.1,0.112-0.157c-0.037-0.306,0.031-0.633,0.264-0.932c0.253-0.324,0.621-0.57,0.744-0.973
					c0.349-1.152,1.968-1.144,2.321,0c0.334,1.084,0.748,2.096,1.397,2.996c0.2,0.053,0.392,0.077,0.564,0.053
					c1.846-0.252,3.657-0.798,5.462-1.299c1.581-0.439,2.318-1.198,1.126-2.867c-0.695-0.973-1.083-2.166-1.823-3.705
					c1.466,0.112,2.441,0.191,3.416,0.259c1.457,0.102,2.155-0.257,1.332-1.871c-0.957-1.876-1.734-3.843-2.683-5.722
					c-0.364-0.72-0.988-1.309-1.493-1.958c-0.26,0.302-0.545,0.589-0.815,0.885c-1.005,2.779-2.532,5.604-4.936,3.469
					c-1.694-1.503-2.004-4.806-3.093-6.733c-0.834-1.475-1.545-2.887-1.977-4.531c-0.424-1.617,0.163-3.519,0.258-5.134
					c0.025-0.432,0.24-0.73,0.522-0.921c0.399-1.231,1.221-2.338,1.768-3.539c5.004-10.978,1.184-26.659-12.507-30.567
					c-8.393-2.396-15.849-0.267-22.512,4.96c-2.721,2.134-5.198,4.407-8.899,4.75c-2.24,0.208-4.432,0.923-6.648,1.399
					c-2.381,0.512-4.765,1.013-7.764,1.65c0.525-1.624,0.854-2.618,1.167-3.617c0.322-1.027,0.31-2.277-1.098-1.692
					c-0.44,0.183-0.805,0.263-1.139,0.301c-1.059,0.244-3.697,0.248-2.722,2.337c0.329,0.705,0.52,1.449,0.795,2.172
					c0.731,1.919,1.475,3.711,1.418,5.787c-0.058,2.119-1.57,4.526-2.217,6.529c-0.389,1.207-0.773,2.313-1.584,3.247
					c0.187,0.233,0.523,0.353,1.045,0.27c3.504-0.56,6.98-1.291,11.15-2.086c-1.511-1.613-2.624-2.801-4.275-4.564
					c2.866-1.026,5.346-1.936,7.867-2.713c0.083-0.025,0.943,1.381,0.829,2.009c-0.416,2.288-1.302,4.5-1.62,6.795
					c-0.476,3.429-0.36,6.866,1.389,10.032c0.69,1.248,0.609,2.123-0.954,2.701c-0.993,0.367-1.856,1.128-2.721,1.787
					c-1.203,0.916-2.314,2.645-3.532,2.708c-2.713,0.14-5.634,0.597-8.163-1.192c-2.228-1.575-4.562-2.999-6.8-4.561
					c-1.4-0.977-1.534-2.083-0.871-3.829c0.737-1.941,0.977-4.228,0.814-6.316c-0.216-2.774,2.016-3.379,3.476-5.715 M81.238,71.931
					c3.81-5.121,8.219-9.585,13.961-12.543c2.84-1.463,5.459,0.173,6.031,3.354c0.609,3.389,1.546,6.721,2.398,10.063
					c0.924,3.625,1.367,7.514,3.034,10.768c1.643,3.205,2.021,3.833-1.569,6.381c-0.12,0.085-2.099,2.361-4.093,4.561
					c-2.37,2.944-2.815,4.016-4.248,6.925c-1.089-1.517-1.906-2.575-2.639-3.689c-4.302-6.532-8.527-13.115-12.905-19.595
					C79.721,75.953,79.697,74.003,81.238,71.931z M84.086,107.698c-0.91,0.351-1.756,0.985-2.491,1.645
					c-1.479,1.327-2.754,1.29-4.296-0.005c-4.207-3.532-8.576-6.872-12.756-10.435c-2.972-2.533-5.741-5.304-8.602-7.968
					c-0.336-0.313-0.631-0.711-1.025-0.916c-1.728-0.897-1.673-2.044-0.577-3.402c3.176-3.936,6.541-7.551,11.846-8.631
					c2.742-0.558,5.415-1.457,8.119-2.201c2.644,0.043,4.065,1.69,5.244,3.452c4.429,6.618,8.757,13.304,13.143,19.951
					c0.676,1.025,1.458,1.978,2.183,2.971c0.75,1.027,0.593,1.522-0.744,1.947C90.742,105.181,87.403,106.419,84.086,107.698z
					 M119.583,126.865c-9.271,0.323-15.585-4.408-20.569-11.672c-1.008-1.468-2.649-2.49-3.926-3.788
					c-0.705-0.717-1.26-1.581-1.882-2.379c0.882-0.242,1.753-0.567,2.651-0.697c0.681-0.098,1.511,0.291,2.069,0.027
					c0.562-0.265,1.081-1.017,1.234-1.649c0.19-0.782-0.295-1.801,0.034-2.455c0.283-0.562,1.299-1.008,1.99-1.006
					c0.338,0.001,0.979,1.158,0.938,1.753c-0.062,0.892-0.578,1.763-0.948,2.622c-1.199,2.775-0.89,4.747,1.544,6.612
					c2.839,2.175,5.789,4.244,8.877,6.039c1.329,0.773,3.125,0.742,4.709,1.076c4.131-0.255,4.526,0.081,5.054,3.572
					C121.581,126.407,121.016,126.815,119.583,126.865z M160.655,116.362c-4.807,2.994-9.861,5.449-15.771,5.011
					c-8.708-0.646-16.912-8.712-16.599-18.347c0.855-3.694,1.602-7.42,2.652-11.057c0.225-0.779,1.475-1.592,2.381-1.783
					c2.666-0.563,5.396-0.83,8.102-1.198c1.438-0.196,2.378,0.097,2.482,1.887c0.077,1.337-0.454,3.389,2.438,2.836
					c0.484-0.092,2.099,1.416,3.529,1.397c0.905-0.012,1.965,0.179,2.683-0.217c1.911-1.053,3.387-0.697,4.808,0.804
					c3.396,3.586,4.831,8.138,6.247,12.684C165.174,113.412,165.178,113.545,160.655,116.362z"/>
				<polygon fill="#A6C93E" points="91.518,188.691 138.749,188.691 143.413,196.558 94.675,196.06 				"/>
				<path fill="#FFFFFF" d="M137.433,186.6c0.068,0.094,0.138,0.187,0.206,0.281l0.843-0.281H137.433z"/>
				<path fill="#745719" d="M136.983,187.099l3.139,3.139c-0.838-1.112-1.666-2.23-2.483-3.358L136.983,187.099z"/>
				<path fill="#A6C93E" d="M650.369,188.501l-505.001,0.301c1.249,2.407,4.146,5.619,5.406,8.026l504.729-3.513
					c0,0-0.29,0.013-0.816-0.662C653.257,190.82,651.81,190.908,650.369,188.501z"/>
				<path fill="#CBDF8E" d="M150.385,196.281c-0.785-1.223-1.553-2.457-2.328-3.686c-1.261-1.996-2.523-3.991-3.772-5.995
					c-1.232-1.978-2.463-3.957-3.697-5.933c-1.423-2.279-4.201-3.543-6.795-2.876l-2.436,0.856l6.282,8.235
					c0.817,1.128,1.645,2.246,2.483,3.358c0.567,0.753,1.134,1.505,1.715,2.248c1.255,1.607,1.246,2.703-0.285,3.889
					c-2.169,1.68-3.305,4.599-6.364,5.242c-0.414,0.087-0.713,0.724-1.065,1.106c0.031,0.262,0.062,0.523,0.093,0.785
					c1.09,0.124,2.195,0.43,3.267,0.339c3.19-0.27,6.374-1.039,9.549-0.98C151.933,202.958,153.915,201.779,150.385,196.281z"/>
				<path fill="none" stroke="#819D2C" stroke-miterlimit="10" d="M142.944,99.342c0,0-2.14-5.502-8.253-3.974"/>
				<path fill="none" stroke="#819D2C" stroke-miterlimit="10" d="M157.097,107.05c0,0-1.453-5.722-7.708-4.95"/>
			</g>
		</g>
	</g>
</g>
<g>
	<defs>
		<polygon id="SVGID_2057_" points="-591.217,18.93 -591.217,224.411 -412.041,224.411 -356.623,19.888 		"/>
	</defs>
	<clipPath id="SVGID_12_">
		<use xlink:href="#SVGID_2057_"  overflow="visible"/>
	</clipPath>
	<g clip-path="url(#SVGID_12_)">
		<defs>
			<rect id="SVGID_2059_" x="-712.695" y="-1844.685" width="1923.24" height="3789.385"/>
		</defs>
		<clipPath id="SVGID_14_">
			<use xlink:href="#SVGID_2059_"  overflow="visible"/>
		</clipPath>
	</g>
</g>
</svg>
