<?xml version="1.0" encoding="utf-8"?>
<!-- Generator: Adobe Illustrator 17.0.0, SVG Export Plug-In . SVG Version: 6.00 Build 0)  -->
<!DOCTYPE svg PUBLIC "-//W3C//DTD SVG 1.1//EN" "http://www.w3.org/Graphics/SVG/1.1/DTD/svg11.dtd">
<svg version="1.1" xmlns="http://www.w3.org/2000/svg" xmlns:xlink="http://www.w3.org/1999/xlink" x="0px" y="0px" width="520px"
	 height="205px" viewBox="0 0 520 205" enable-background="new 0 0 520 205" xml:space="preserve">
<g id="Layer_1">
	<g>
		<defs>
			<polygon id="SVGID_2294_" points="1218.5,-472.5 1218.5,-268.5 1397.637,-268.5 1451.897,-472.5 			"/>
		</defs>
		<clipPath id="SVGID_2_">
			<use xlink:href="#SVGID_2294_"  overflow="visible"/>
		</clipPath>
		<g clip-path="url(#SVGID_2_)">
			<defs>
				<polygon id="SVGID_2296_" points="1217.933,-473.492 1217.933,-267.345 1397.689,-267.345 1453.287,-472.531 				"/>
			</defs>
			<clipPath id="SVGID_4_">
				<use xlink:href="#SVGID_2296_"  overflow="visible"/>
			</clipPath>
			<g clip-path="url(#SVGID_4_)">
				<defs>
					<rect id="SVGID_2298_" x="-68.38" y="-2342.665" width="1929.469" height="3801.658"/>
				</defs>
				<clipPath id="SVGID_5_">
					<use xlink:href="#SVGID_2298_"  overflow="visible"/>
				</clipPath>
			</g>
		</g>
		<use xlink:href="#SVGID_2294_"  overflow="visible" fill="none" stroke="#819D2C" stroke-miterlimit="10"/>
	</g>
	<g>
		<defs>
			<polygon id="SVGID_2334_" points="0,1 0,204 181.373,204 237.523,1 			"/>
		</defs>
		<use xlink:href="#SVGID_2334_"  overflow="visible" fill="#DEEBC5"/>
		<clipPath id="SVGID_7_">
			<use xlink:href="#SVGID_2334_"  overflow="visible"/>
		</clipPath>
	</g>
	<g>
		<defs>
			<polygon id="SVGID_2336_" points="0.5,0.5 0.5,204.5 181.768,204.5 237.422,0.5 			"/>
		</defs>
		<clipPath id="SVGID_9_">
			<use xlink:href="#SVGID_2336_"  overflow="visible"/>
		</clipPath>
		<g clip-path="url(#SVGID_9_)">
			<polygon fill="#FFF8EF" points="-2.914,156.319 -2.201,189.364 220.575,219.26 249.714,207.119 249.553,169.134 			"/>
			<polygon fill="#D7CDAC" points="29.327,153.281 24.798,160 85.135,160 80.054,134.506 43.68,144.089 			"/>
			<polygon fill="#D7CDAC" points="104.507,117.957 106.255,160.752 105.942,163.219 176.043,166.454 147.09,84.455 
				117.591,101.314 			"/>
			<polygon fill="#7A6B5A" points="249.635,-4.907 248.524,66.315 242.797,75.467 228.252,99.714 227.323,107.186 223,136.028 
				223,168.879 223,177.505 188.741,177.774 171.484,134.043 174.919,61.323 210.602,18.566 237.731,-12.17 247.101,-15.002 			"/>
			<polygon fill="#D7CDAC" points="210.403,173.573 222.197,173.241 228.241,185.532 203.084,186.834 202.148,174.001 			"/>
			<polygon fill="#7A6B5A" points="117.591,102.468 91.987,124.472 80.054,186.504 105.546,185.052 107.801,171.909 
				112.628,155.104 117.591,142.71 122.179,130.819 128.772,120.792 134.096,116.71 141.55,113.161 127.085,102.867 			"/>
			<polygon fill="#7A6B5A" points="98,183.434 98,193.677 111,193.407 111,183.434 108.285,181.817 97.561,181.644 			"/>
			<path fill="#7A6B5A" d="M90.948,186.172c0,0,6.206,0.828,8.305,3.828h3.132C102.386,190,102.74,185.289,90.948,186.172z"/>
			<path fill="#D7CDAC" d="M84.433,181.21L102,181.817v8.625c0,0-6.003-8.169-16.396-0.27L84.433,181.21z"/>
			<polygon fill="#7A6B5A" points="69.827,136.998 52.367,151.681 46.142,186 64.651,186 66.687,178.289 72.06,160.5 
				78.269,151.427 77.433,140.741 			"/>
			<path fill="#C8B398" d="M112.584,98.925c0,0-66.584,62.45-113.584,60.791v1.617c0,0,10.126-6.563,11.877,22.1l5.742-0.268
				c0,0,11.638-31.623,19.137-27.814c7.499,3.81,7.718,28.649,7.718,28.649h1.708c0,0,16.113-48.827,24.868-44.896
				c0,0,9.005,0.423,6.125,42.619l4.169-0.041c0,0,13.091-78.47,41.374-76.025c28.283,2.444,49.921,68.869,49.921,68.869
				l15.413-0.639c0,0-14.003-46.023,15.063-111.292s47.708-71.604,47.708-71.604l-0.397-19.311
				C249.425-28.322,133.429,87.002,112.584,98.925z"/>
			<path fill="none" stroke="#000000" stroke-miterlimit="10" d="M104.743,181.577"/>
			<polygon fill="#C8B398" points="58.104,217.015 6.964,188.986 1.494,189.147 24.832,212.818 27.463,215.668 28.576,217.928 			
				"/>
			<polygon fill="#C8B398" points="47.19,211.411 58.404,217.993 170.545,217.583 18.302,188.599 7.088,188.953 			"/>
			<path fill="none" stroke="#000000" stroke-miterlimit="10" d="M34.834,72.754"/>
			<polygon fill="#7A6B5A" points="10.139,183.522 16,183.165 16,189 10.744,189 			"/>
			<polyline fill="#D7CDAC" points="16.724,183.165 20.177,181.817 19.908,187.747 16.52,188.825 			"/>
			<path fill="none" stroke="#000000" stroke-miterlimit="10" d="M173.166,171.909"/>
			<polygon fill="#7A6B5A" points="245.034,218.408 18.021,188.555 18.021,188.555 170.545,218.696 			"/>
			<polygon fill="#7A6B5A" points="0.026,189 14.627,213.665 16.673,217 29.072,217 1.544,189 			"/>
			<polygon fill="#7A6B5A" points="128.349,-4.823 150.912,48.678 154.859,43.895 154.943,44.05 133.033,-0.79 			"/>
			<polygon fill="#95846F" points="114.28,47.782 115.884,67.612 124.098,60.242 121.658,42.557 			"/>
			<polygon fill="#D7CDAC" points="107.142,52.837 107.801,74.863 115.884,67.612 114.28,47.782 			"/>
			<polygon fill="#C8B398" points="121.658,42.557 124.098,60.242 131.673,53.446 128.322,37.837 			"/>
			<polygon fill="#C8B398" points="112.93,31.099 106.623,35.516 107.142,52.837 114.28,47.782 			"/>
			<polygon fill="#D7CDAC" points="135.231,32.944 142.196,28.012 136.528,14.571 130.593,18.727 			"/>
			<polygon fill="#7A6B5A" points="139.6,46.334 147.09,39.615 142.196,28.012 135.231,32.944 			"/>
			<polygon fill="#D7CDAC" points="128.322,37.837 131.673,53.446 139.6,46.334 135.231,32.944 			"/>
			<polygon fill="#D7CDAC" points="112.93,31.099 114.28,47.782 121.658,42.557 119.447,26.534 			"/>
			<polygon fill="#D7CDAC" points="111.934,18.785 106.255,23.197 106.623,35.516 112.93,31.099 			"/>
			<polygon fill="#D7CDAC" points="130.593,18.727 136.528,14.571 131.797,3.354 126.835,7.208 			"/>
			<polygon fill="#D7CDAC" points="128.322,37.837 135.231,32.944 130.593,18.727 125.052,22.608 			"/>
			<polygon fill="#95846F" points="119.447,26.534 121.658,42.557 128.322,37.837 125.052,22.608 			"/>
			<polygon fill="#7A6B5A" points="119.447,26.534 117.754,14.264 111.934,18.785 112.93,31.099 			"/>
			<polygon fill="#D7CDAC" points="125.052,22.608 122.474,10.597 117.754,14.264 119.447,26.534 			"/>
			<polygon fill="#7A6B5A" points="130.593,18.727 126.835,7.208 122.474,10.597 125.052,22.608 			"/>
			<path fill="#D7CDAC" d="M131.673,53.446l3.549,16.529c2.94-3.314,5.882-6.743,8.75-10.239L139.6,46.334L131.673,53.446z"/>
			<path fill="#D7CDAC" d="M100.267,81.623l-0.903,24.543c0,0,3.569-3.179,9.12-8.502l-0.683-22.801L100.267,81.623z"/>
			<polygon fill="#95846F" points="107.142,52.837 101.17,57.066 100.267,81.623 107.801,74.863 			"/>
			<path fill="#C8B398" d="M107.801,74.863l0.683,22.801c2.643-2.535,5.736-5.556,9.107-8.952l-1.707-21.1L107.801,74.863z"/>
			<polygon fill="#7A6B5A" points="106.623,35.516 101.84,38.866 101.17,57.066 107.142,52.837 			"/>
			<path fill="#D7CDAC" d="M147.09,39.615l-7.49,6.72l4.372,13.402c2.596-3.164,5.131-6.381,7.548-9.615L147.09,39.615z"/>
			<path fill="#D7CDAC" d="M115.884,67.612l1.707,21.1c2.877-2.898,5.956-6.069,9.133-9.444l-2.625-19.026L115.884,67.612z"/>
			<path fill="#7A6B5A" d="M124.098,60.242l2.625,19.026c2.782-2.956,5.638-6.069,8.498-9.292l-3.549-16.529L124.098,60.242z"/>
			<polygon fill="#D7CDAC" points="131.797,3.354 128.349,-4.823 124.019,-1.423 126.835,7.208 			"/>
			<polygon fill="#D7CDAC" points="122.474,10.597 120.488,1.349 116.413,4.549 117.754,14.264 			"/>
			<polygon fill="#D7CDAC" points="106.255,23.197 102.303,26.267 101.84,38.866 106.623,35.516 			"/>
			<polygon fill="#95846F" points="117.754,14.264 116.413,4.549 111.119,8.707 111.934,18.785 			"/>
			<polygon fill="#D7CDAC" points="126.835,7.208 124.019,-1.423 120.488,1.349 122.474,10.597 			"/>
			<polygon fill="#7A6B5A" points="111.934,18.785 111.119,8.707 105.942,12.772 106.255,23.197 			"/>
			<polygon fill="#D7CDAC" points="105.942,12.772 102.706,15.313 102.303,26.267 106.255,23.197 			"/>
			<polygon fill="#D7CDAC" points="133.033,-0.79 134.238,1.675 154.943,44.399 159.421,38.586 132.838,-12.703 			"/>
			<polygon fill="#C8B398" points="152.87,1.243 160.426,12.827 166.331,8.208 158.403,-2.373 			"/>
			<polygon fill="#D7CDAC" points="166.331,8.208 171.653,4.044 163.637,-5.794 158.403,-2.373 			"/>
			<polygon opacity="0.4" fill="#819D2C" points="158.403,-2.373 150.343,-13.132 145.47,-10.102 152.87,1.243 			"/>
			<polygon fill="#D7CDAC" points="145.47,-10.102 140.546,-7.041 147.369,4.839 152.87,1.243 			"/>
			<polygon fill="#95846F" points="147.369,4.839 154.583,17.398 160.426,12.827 152.87,1.243 			"/>
			<polygon fill="#95846F" points="171.653,4.044 166.331,8.208 175.004,19.785 179.782,14.02 			"/>
			<polygon fill="#95846F" points="150.212,20.818 159.421,38.586 163.752,33.361 154.583,17.398 			"/>
			<polygon fill="#D7CDAC" points="154.583,17.398 163.752,33.361 169.386,26.564 160.426,12.827 			"/>
			<polygon fill="#7A6B5A" points="160.426,12.827 169.386,26.564 175.004,19.785 166.331,8.208 			"/>
			<polygon fill="#D7CDAC" points="147.369,4.839 143.306,7.494 150.212,20.818 154.583,17.398 			"/>
			<polygon fill="#95846F" points="140.546,-7.041 136.936,-4.796 143.306,7.494 147.369,4.839 			"/>
			<polygon fill="#C8B398" points="84.988,27.817 62.494,134.043 77.725,123.145 89.872,32.235 85.287,26.431 			"/>
			<path fill="#95846F" d="M65.933,63.244c1.752-0.47,3.604-0.862,5.514-1.119l2.229-11.177c-1.794,0.368-3.556,0.857-5.219,1.403
				L65.933,63.244z"/>
			<path fill="#7A6B5A" d="M63.096,75.488c1.882-0.393,3.861-0.725,5.874-0.942l2.477-12.421c-1.91,0.257-3.762,0.649-5.514,1.119
				L63.096,75.488z"/>
			<path fill="#C8B398" d="M59.814,89.649c1.939-0.282,4.033-0.488,6.26-0.583l2.896-14.521c-2.013,0.217-3.992,0.549-5.874,0.942
				L59.814,89.649z"/>
			<path fill="#D7CDAC" d="M71.316,40.013l-2.859,12.338c1.663-0.546,3.424-1.034,5.219-1.403L76.24,38.09
				C74.51,38.64,72.854,39.302,71.316,40.013z"/>
			<path fill="#7A6B5A" d="M76.24,38.09l2.07-10.378c-1.718,0.672-3.306,1.546-4.716,2.471l-2.278,9.83
				C72.854,39.302,74.51,38.64,76.24,38.09z"/>
			<path fill="#7A6B5A" d="M73.676,50.948c2.204-0.452,4.452-0.715,6.621-0.663l2.839-13.598c-2.366,0.186-4.691,0.701-6.896,1.402
				L73.676,50.948z"/>
			<path fill="#95846F" d="M83.136,36.687l1.852-8.87l0.299-1.386c-2.466-0.089-4.823,0.438-6.977,1.281L76.24,38.09
				C78.445,37.388,80.77,36.873,83.136,36.687z"/>
			<path fill="#D7CDAC" d="M59.814,89.649c-1.929,0.28-3.712,0.629-5.313,1.009l-3.897,14.946c1.776-0.383,3.703-0.74,5.754-1.038
				L59.814,89.649z"/>
			<path fill="#95846F" d="M56.358,104.566c2.133-0.309,4.398-0.554,6.764-0.694l2.953-14.805c-2.227,0.095-4.321,0.301-6.26,0.583
				L56.358,104.566z"/>
			<path fill="#D7CDAC" d="M65.933,63.244c-1.661,0.446-3.231,0.961-4.673,1.495L58.14,76.702c1.531-0.429,3.2-0.848,4.955-1.214
				L65.933,63.244z"/>
			<path fill="#95846F" d="M71.316,40.013c-1.519,0.702-2.921,1.447-4.175,2.171l-3.077,11.799c1.336-0.553,2.818-1.116,4.392-1.632
				L71.316,40.013z"/>
			<path fill="#D7CDAC" d="M68.457,52.351c-1.574,0.517-3.056,1.079-4.392,1.632L61.26,64.739c1.442-0.534,3.012-1.049,4.673-1.495
				L68.457,52.351z"/>
			<path fill="#C8B398" d="M50.604,105.604l-4.497,17.244c1.877-0.321,3.944-0.601,6.202-0.81l4.049-17.472
				C54.307,104.863,52.379,105.221,50.604,105.604z"/>
			<path fill="#95846F" d="M63.096,75.488c-1.755,0.366-3.424,0.785-4.955,1.214l-3.639,13.956c1.602-0.38,3.384-0.729,5.313-1.009
				L63.096,75.488z"/>
			<path fill="#D7CDAC" d="M71.316,40.013l2.278-9.83c-1.668,1.095-3.083,2.26-4.17,3.249l-2.282,8.751
				C68.395,41.46,69.797,40.715,71.316,40.013z"/>
			<path fill="#7A6B5A" d="M52.309,122.038c2.237-0.206,4.66-0.339,7.264-0.373l3.549-17.794c-2.365,0.141-4.631,0.385-6.764,0.694
				L52.309,122.038z"/>
			<path fill="#7A6B5A" d="M59.573,121.665l-3.071,15.4c2.014-1.239,4.187-2.602,6.532-4.101l2.339-11.204
				C63.349,121.67,61.416,121.642,59.573,121.665z"/>
			<path fill="#95846F" d="M63.121,103.871l-3.549,17.794c1.843-0.024,3.777,0.005,5.8,0.095l3.759-18.005
				C67.073,103.71,65.064,103.756,63.121,103.871z"/>
			<path fill="#D7CDAC" d="M66.074,89.066l-2.953,14.805c1.943-0.116,3.952-0.162,6.011-0.116l3.058-14.646
				C70.059,88.987,68.017,88.984,66.074,89.066z"/>
			<path fill="#D7CDAC" d="M52.309,122.038l-4.703,20.295c2.553-1.442,5.496-3.177,8.895-5.268l3.071-15.4
				C56.969,121.698,54.546,121.831,52.309,122.038z"/>
			<path fill="#D7CDAC" d="M73.676,50.948l-2.229,11.177c2.096-0.282,4.26-0.4,6.435-0.276l2.415-11.564
				C78.128,50.233,75.88,50.496,73.676,50.948z"/>
			<path fill="#C8B398" d="M46.107,122.847l-6.133,23.52c2.042-0.983,4.552-2.294,7.632-4.035l4.703-20.295
				C50.051,122.246,47.984,122.526,46.107,122.847z"/>
			<path fill="#95846F" d="M68.97,74.546l-2.896,14.521c1.943-0.083,3.985-0.079,6.116,0.043L75.282,74.3
				C73.192,74.218,71.063,74.319,68.97,74.546z"/>
			<path fill="#D7CDAC" d="M69.423,33.432c-1.525,1.388-2.404,2.43-2.404,2.43l-2.522,7.946c0.776-0.507,1.662-1.058,2.644-1.625
				L69.423,33.432z"/>
			<path fill="#C8B398" d="M71.447,62.125L68.97,74.546c2.094-0.226,4.222-0.328,6.313-0.245l2.6-12.452
				C75.707,61.725,73.543,61.843,71.447,62.125z"/>
			<path fill="#C8B398" d="M61.26,64.739c-1.448,0.536-2.766,1.092-3.917,1.615L53.612,78.11c1.29-0.441,2.823-0.93,4.529-1.408
				L61.26,64.739z"/>
			<path fill="#D7CDAC" d="M64.065,53.983c-1.226,0.508-2.325,1.004-3.255,1.447l-3.467,10.925c1.151-0.524,2.469-1.079,3.917-1.615
				L64.065,53.983z"/>
			<path fill="#C8B398" d="M67.141,42.184c-0.981,0.567-1.868,1.118-2.644,1.625L60.81,55.43c0.93-0.443,2.029-0.939,3.255-1.447
				L67.141,42.184z"/>
			<path fill="#7A6B5A" d="M54.501,90.658c-2.107,0.5-3.909,1.049-5.364,1.551l-4.755,14.982c1.758-0.52,3.853-1.077,6.221-1.587
				L54.501,90.658z"/>
			<path fill="#D7CDAC" d="M50.604,105.604c-2.368,0.511-4.464,1.067-6.221,1.587l-5.484,17.281c1.947-0.56,4.361-1.138,7.209-1.625
				L50.604,105.604z"/>
			<path fill="#95846F" d="M38.898,124.472l-7.788,24.54c0,0,0.745,1.264,8.864-2.645l6.133-23.52
				C43.259,123.335,40.845,123.912,38.898,124.472z"/>
			<path fill="#D7CDAC" d="M58.14,76.702c-1.706,0.478-3.239,0.967-4.529,1.408l-4.474,14.099c1.455-0.502,3.257-1.051,5.364-1.551
				L58.14,76.702z"/>
			<path fill="none" stroke="#000000" stroke-miterlimit="10" d="M16.791,183.165"/>
			<path fill="#95846F" d="M16.791,183.165l3.386-1.348c0,0,7.013-22.246,12.825-26.714
				C29.795,156.801,23.798,163.566,16.791,183.165z"/>
			<path fill="#95846F" d="M45.264,183.187l4.292-0.022c0,0,9.309-40.544,20.493-44.479
				C70.049,138.686,63.494,131.254,45.264,183.187z"/>
			<path fill="#95846F" d="M92.195,137.065c0,0-5.905,15.22-12.276,44.749L85.152,182h0.135c0,0,9.201-51.48,21.42-66.185
				c9.14-10.999,16.221-10.242,19.429-9.246C120.959,104.803,105.21,102.168,92.195,137.065z"/>
			<path fill="#95846F" d="M189.82,90.658c0,0-12.354,56.052-2.725,83.219l7.135,0.124c-7.187-96.445,11.011-109.69,44.226-161.229
				C239.151,11.694,250,0.689,250,0.689v-11.319C250-10.631,212.436,18.988,189.82,90.658z"/>
			<path fill="#95846F" d="M63.034,184h3.312c3.04-17,10.044-28.077,10.044-28.077l-0.344-2.899
				C72.527,153.074,63.034,184,63.034,184z"/>
			<polygon fill="#7A6B5A" points="42,184.189 42,190 49,190 49,183.165 43.075,183.187 			"/>
			<path fill="#A6C93E" d="M58.712,183.434"/>
			<polygon fill="#7A6B5A" points="59.26,184 62,184 62,190.981 58,190.442 58,184 			"/>
			<path fill="#D7CDAC" d="M49.22,184l0.303,4.487c0,0,3.478-4.476,10.478-0.47V184H49.22z"/>
			<polygon fill="#C8B398" points="62,184 66.807,184 66,184.259 66,191 62,191 			"/>
			<polygon fill="#7A6B5A" points="75.631,181 74,183.165 74,193 86.293,193 86.14,183.227 85.219,181 			"/>
			<path fill="#DEEBC5" d="M85.227,181.548"/>
			<path fill="#95846F" d="M132.046,116.941c-15.48,7.849-27.538,64.838-27.538,64.838l3.197,0.038c0,0,9.825-43.591,18.4-55.032
				c0,0,8.452-11.159,13.745-11.056l-2.19-2.105L132.046,116.941z"/>
			<path fill="#95846F" d="M247.663,62.626C211.381,105.856,222.033,173,222.033,173h5.991c0,0-10.544-64.046,21.69-101.326
				L247.663,62.626z"/>
			<polygon fill="#D7CDAC" points="221.674,173.241 228.024,173.192 233.474,184.258 227.64,185.678 			"/>
			<path fill="#7A6B5A" d="M204.81,180.253c0,0,2.25,0.747,2.25,3.747h4.33c0,0-0.298-3.785-3.917-4.805
				C203.854,178.175,204.81,180.253,204.81,180.253z"/>
			<path fill="#C8B398" d="M198.23,173.877l12.148-0.553l1.012,10.245c0,0-3.436-8.292-7.834,0
				C199.157,191.861,198.23,173.877,198.23,173.877z"/>
			<polygon fill="#D7CDAC" points="186.278,173.932 198.614,174 201.861,176.491 206.066,193 191.217,193 			"/>
			<polygon fill="#7A6B5A" points="171,174.642 166.349,178.219 169.129,193 192.411,193 189.08,177.705 186.664,173.842 
				171,174.507 			"/>
			<path fill="#C8B398" d="M35.958,72.754l-30.25,83.158c8.968,1.999,24.71-4.009,24.71-4.009l22.681-71.666
				C48.944,73.671,35.958,72.754,35.958,72.754z"/>
			<path fill="#7A6B5A" d="M131.829,71.759C48.405,165.266,1,154.931,1,154.931v4.788c0,0,39.727,2.527,102.408-50.044
				C166.089,57.104,249.857-28.324,249.857-28.324l-30.024-8.114C219.834-36.438,155.041,45.742,131.829,71.759z"/>
			<path fill="#7A6B5A" d="M23.886,79.803l-2.323,6.98c1.862-0.214,3.766-0.328,5.561-0.27l2.612-7.311
				C27.815,79.247,25.821,79.475,23.886,79.803z"/>
			<path fill="#D7CDAC" d="M21.563,86.783l-2.538,7.627c1.691-0.094,3.448-0.055,5.215,0.176l2.884-8.073
				C25.329,86.455,23.425,86.569,21.563,86.783z"/>
			<path fill="#C8B398" d="M10.03,121.441c1.451,0.126,2.936,0.323,4.394,0.618l3.575-10.004c-1.52-0.374-3.085-0.569-4.632-0.641
				L10.03,121.441z"/>
			<path fill="#7A6B5A" d="M23.886,79.803l1.97-5.922c-1.709,0.419-3.462,0.995-5.112,1.776l-1.675,5.164
				C20.568,80.446,22.204,80.088,23.886,79.803z"/>
			<path fill="#7A6B5A" d="M13.366,111.414c1.547,0.071,3.112,0.267,4.632,0.641l3.218-9.008c-1.61-0.268-3.285-0.373-4.942-0.373
				L13.366,111.414z"/>
			<path fill="#C8B398" d="M29.736,79.203l2.252-6.302c-1.743,0.147-3.896,0.432-6.131,0.981l-1.97,5.922
				C25.821,79.475,27.815,79.247,29.736,79.203z"/>
			<path fill="#D7CDAC" d="M33.58,79.409l2.378-6.655c0,0-1.606-0.053-3.97,0.147l-2.252,6.302
				C31.07,79.172,32.365,79.231,33.58,79.409z"/>
			<path fill="#D7CDAC" d="M29.736,79.203l-2.612,7.311c1.335,0.043,2.606,0.185,3.754,0.456l2.701-7.56
				C32.365,79.231,31.07,79.172,29.736,79.203z"/>
			<path fill="#95846F" d="M19.025,94.41l-2.75,8.265c1.656,0,3.331,0.105,4.942,0.373l3.023-8.462
				C22.473,94.355,20.716,94.316,19.025,94.41z"/>
			<path fill="#C8B398" d="M13.366,111.414l2.909-8.74c-1.493,0-2.969,0.086-4.367,0.224l-2.79,8.6
				C10.478,111.388,11.912,111.347,13.366,111.414z"/>
			<path fill="#D7CDAC" d="M16.275,102.674l2.75-8.265c-1.592,0.089-3.122,0.292-4.544,0.556l-2.573,7.932
				C13.306,102.76,14.782,102.674,16.275,102.674z"/>
			<path fill="#7A6B5A" d="M21.563,86.783c-1.624,0.186-3.209,0.445-4.662,0.723l-2.42,7.46c1.423-0.264,2.952-0.467,4.544-0.556
				L21.563,86.783z"/>
			<path fill="#95846F" d="M6.334,132.546c1.333,0.235,2.685,0.547,3.999,0.962l4.09-11.449c-1.458-0.295-2.943-0.493-4.394-0.618
				L6.334,132.546z"/>
			<path fill="#C8B398" d="M23.886,79.803c-1.682,0.285-3.318,0.643-4.816,1.018l-2.169,6.685c1.453-0.278,3.039-0.537,4.662-0.723
				L23.886,79.803z"/>
			<path fill="#95846F" d="M2.45,132.05l-3.65,11.251c1.201,0.191,2.466,0.412,3.734,0.664l3.801-11.42
				C5,132.311,3.685,132.152,2.45,132.05z"/>
			<path fill="#95846F" d="M13.366,111.414c-1.454-0.067-2.888-0.026-4.249,0.084l-3.164,9.753c1.286,0.011,2.664,0.067,4.076,0.189
				L13.366,111.414z"/>
			<path fill="#7A6B5A" d="M2.534,143.966c1.27,0.253,2.542,0.537,3.757,0.855l4.042-11.313c-1.314-0.415-2.666-0.728-3.999-0.962
				L2.534,143.966z"/>
			<path fill="#C8B398" d="M10.03,121.441c-1.412-0.122-2.791-0.178-4.076-0.189L2.45,132.05c1.235,0.101,2.55,0.26,3.885,0.495
				L10.03,121.441z"/>
			<path fill="#D7CDAC" d="M16.901,87.506c-1.304,0.249-2.498,0.512-3.506,0.753l-2.548,7.553c1.091-0.306,2.314-0.601,3.634-0.846
				L16.901,87.506z"/>
			<path fill="#D7CDAC" d="M20.745,75.657c-1.428,0.677-2.78,1.506-3.954,2.532l-1.212,3.593c1.027-0.308,2.206-0.64,3.491-0.962
				L20.745,75.657z"/>
			<path fill="#C8B398" d="M10.333,133.508c1.187,0.375,2.341,0.835,3.42,1.394l4.243-11.876c-1.145-0.403-2.348-0.72-3.572-0.967
				L10.333,133.508z"/>
			<path fill="#D7CDAC" d="M6.291,144.821c1.261,0.33,2.459,0.696,3.525,1.099l3.937-11.018c-1.079-0.56-2.233-1.019-3.42-1.394
				L6.291,144.821z"/>
			<path fill="#7A6B5A" d="M2.478,155.494c1.407,0.413,2.727,0.613,3.769,0.418l3.57-9.991c-1.067-0.404-2.264-0.769-3.525-1.099
				L2.478,155.494z"/>
			<path fill="#D7CDAC" d="M21.216,103.048c1.248,0.208,2.452,0.517,3.581,0.941l3.082-8.625c-1.204-0.365-2.423-0.619-3.64-0.778
				L21.216,103.048z"/>
			<path fill="#C8B398" d="M27.124,86.513l-2.884,8.073c1.216,0.159,2.435,0.412,3.64,0.778l2.999-8.394
				C29.731,86.698,28.459,86.556,27.124,86.513z"/>
			<path fill="#D7CDAC" d="M17.998,112.055c1.199,0.295,2.368,0.7,3.474,1.241l3.326-9.308c-1.129-0.424-2.333-0.734-3.581-0.941
				L17.998,112.055z"/>
			<path fill="#C8B398" d="M2.534,143.966l-3.411,10.251c1.112,0.503,2.259,0.955,3.355,1.277l3.813-10.673
				C5.076,144.503,3.804,144.219,2.534,143.966z"/>
			<path fill="#D7CDAC" d="M14.424,122.059c1.224,0.248,2.427,0.565,3.572,0.967l3.477-9.73c-1.107-0.541-2.275-0.947-3.474-1.241
				L14.424,122.059z"/>
			<path fill="#D7CDAC" d="M11.907,102.898c-1.288,0.127-2.506,0.296-3.613,0.478l-2.899,8.594c1.133-0.195,2.392-0.364,3.722-0.472
				L11.907,102.898z"/>
			<path fill="#C8B398" d="M14.481,94.966c-1.32,0.245-2.543,0.54-3.634,0.846l-2.552,7.564c1.106-0.182,2.325-0.351,3.613-0.478
				L14.481,94.966z"/>
			<path fill="#C8B398" d="M19.07,80.821c-1.284,0.322-2.464,0.653-3.491,0.962l-2.185,6.476c1.009-0.241,2.202-0.504,3.506-0.753
				L19.07,80.821z"/>
			<path fill="#C8B398" d="M5.953,121.251l3.164-9.753c-1.329,0.108-2.588,0.277-3.722,0.472l-3.158,9.362
				C3.324,121.276,4.584,121.239,5.953,121.251z"/>
			<path fill="#D7CDAC" d="M5.953,121.251c-1.369-0.012-2.629,0.025-3.716,0.08l-1.812,5.371l-1.72,5.182
				c1.094,0.009,2.369,0.053,3.744,0.166L5.953,121.251z"/>
			<path fill="#7A6B5A" d="M-1.2,143.302l-2.998,9.243c0.994,0.548,2.136,1.137,3.321,1.673l3.411-10.251
				C1.266,143.713,0.001,143.492-1.2,143.302z"/>
			<path fill="#C8B398" d="M2.45,132.05c-1.375-0.113-2.649-0.157-3.744-0.166l-3.613,10.886c1.098,0.141,2.362,0.317,3.707,0.53
				L2.45,132.05z"/>
		</g>
		<use xlink:href="#SVGID_2336_"  overflow="visible" fill="none" stroke="#7A6B5A" stroke-miterlimit="10"/>
	</g>
	<text transform="matrix(1 0 0 1 307.7607 107.7601)" font-family="'Roboto-Regular'" font-size="18">Public Works</text>
	<g>
		<g>
			<defs>
				<polygon id="SVGID_2368_" points="-259.5,284.5 -259.5,488.5 -81.498,488.5 -25.982,284.5 				"/>
			</defs>
			<clipPath id="SVGID_10_">
				<use xlink:href="#SVGID_2368_"  overflow="visible"/>
			</clipPath>
			<g clip-path="url(#SVGID_10_)">
				<g>
					<defs>
						<polygon id="SVGID_2370_" points="-408,97 -408,571 -109.481,571 2.224,97 						"/>
					</defs>
					<clipPath id="SVGID_12_">
						<use xlink:href="#SVGID_2370_"  overflow="visible"/>
					</clipPath>
				</g>
			</g>
			<use xlink:href="#SVGID_2368_"  overflow="visible" fill="none" stroke="#95846F" stroke-miterlimit="10"/>
		</g>
	</g>
	<g>
		<g>
			<defs>
				<polygon id="SVGID_2408_" points="323,278 323,482 501.502,482 557.018,278 				"/>
			</defs>
			<use xlink:href="#SVGID_2408_"  overflow="visible" fill="#D7CDAC"/>
			<clipPath id="SVGID_14_">
				<use xlink:href="#SVGID_2408_"  overflow="visible"/>
			</clipPath>
			<g clip-path="url(#SVGID_14_)">
				<g>
					<defs>
						<polygon id="SVGID_2410_" points="175,90 175,564 473.519,564 585.224,90 						"/>
					</defs>
					<clipPath id="SVGID_15_">
						<use xlink:href="#SVGID_2410_"  overflow="visible"/>
					</clipPath>
				</g>
			</g>
		</g>
	</g>
</g>
<g id="Layer_2">
</g>
</svg>
