<?xml version="1.0" encoding="utf-8"?>
<!-- Generator: Adobe Illustrator 17.0.0, SVG Export Plug-In . SVG Version: 6.00 Build 0)  -->
<!DOCTYPE svg PUBLIC "-//W3C//DTD SVG 1.1//EN" "http://www.w3.org/Graphics/SVG/1.1/DTD/svg11.dtd">
<svg version="1.1" id="Layer_1" xmlns="http://www.w3.org/2000/svg" xmlns:xlink="http://www.w3.org/1999/xlink" x="0px" y="0px"
	 width="581.238px" height="253.981px" viewBox="0 0 581.238 253.981" enable-background="new 0 0 581.238 253.981"
	 xml:space="preserve">
<rect x="106.289" y="38.691" fill="#FFFFFF" width="409" height="161"/>
<g>
	<defs>
		<polygon id="SVGID_22_" points="-590.711,-280.309 -590.711,-76.309 -407.923,-76.309 -353.486,-280.309 		"/>
	</defs>
	<clipPath id="SVGID_2_">
		<use xlink:href="#SVGID_22_"  overflow="visible"/>
	</clipPath>
	<g clip-path="url(#SVGID_2_)">
	</g>
</g>
<g>
	<defs>
		<polygon id="SVGID_2078_" points="-591.217,18.93 -591.217,224.411 -412.041,224.411 -356.623,19.888 		"/>
	</defs>
	<clipPath id="SVGID_4_">
		<use xlink:href="#SVGID_2078_"  overflow="visible"/>
	</clipPath>
	<g clip-path="url(#SVGID_4_)">
		<defs>
			<rect id="SVGID_2080_" x="-712.695" y="-1844.685" width="1923.24" height="3789.385"/>
		</defs>
		<clipPath id="SVGID_6_">
			<use xlink:href="#SVGID_2080_"  overflow="visible"/>
		</clipPath>
	</g>
</g>
<g>
	<ellipse opacity="0.3" fill="#507282" cx="328.687" cy="175.742" rx="19.213" ry="1.39"/>
	<path fill="#A39197" d="M450.777,142.325c0.394,4.933,0.032,6.611,0.295,11.555h37.586c0.09-5.344,0.255-10.681,0.503-16.007
		c-0.861-19.74-0.538-39.524-0.515-59.356c0.001-0.935,0.089-1.81,0.229-2.646c0.019-5.111,0.012-10.223,0.013-15.335
		c0-1.149,0-2.299,0-3.666h-38.221c-0.049,0.953-0.14,1.923-0.141,2.893c-0.011,9.763-0.038,19.526,0.016,29.288
		c0.008,0.108,0.027,0.209,0.033,0.319c0.75,12.914,0.506,25.798-0.265,38.658C450.157,131.727,451.061,138.64,450.777,142.325z
		 M482.563,65.365c-0.552,0.292-1.099,0.826-1.656,0.838c-3.737,0.075-7.476,0.039-11.215,0.039v-0.008
		c-3.739,0-7.477,0.028-11.215-0.034c-0.504-0.008-1-0.469-1.5-0.721c0.505-0.332,1.007-0.948,1.515-0.952
		c7.477-0.061,14.954-0.059,22.431-0.002C481.472,64.528,482.017,65.072,482.563,65.365z M482.586,73.13
		c-0.686,0.318-1.367,0.893-2.06,0.911c-3.588,0.093-7.179,0.043-10.769,0.043v0.008c-3.512,0-7.025,0.055-10.535-0.043
		c-0.769-0.022-1.524-0.593-2.285-0.911c0.723-0.375,1.444-1.069,2.171-1.077c7.179-0.081,14.36-0.076,21.539,0.002
		C481.296,72.07,481.94,72.758,482.586,73.13z M482.633,80.784c-0.663,0.369-1.318,1.036-1.99,1.056
		c-3.661,0.105-7.327,0.05-10.991,0.05v-0.012c-3.586,0-7.175,0.067-10.757-0.06c-0.678-0.024-1.331-0.821-1.996-1.261
		c0.657-0.361,1.311-1.031,1.971-1.037c7.25-0.072,14.501-0.075,21.75,0.019C481.296,79.547,481.962,80.35,482.633,80.784z
		 M456.934,141.973c0.65-0.356,1.297-1.014,1.95-1.02c7.259-0.073,14.52-0.073,21.779,0.004c0.637,0.007,1.267,0.699,1.9,1.072
		c-0.611,0.318-1.216,0.896-1.833,0.91c-3.667,0.087-7.337,0.043-11.006,0.047c-3.591,0-7.183,0.052-10.772-0.046
		C458.273,142.922,457.607,142.311,456.934,141.973z M456.912,134.32c0.587-0.338,1.171-0.963,1.761-0.969
		c7.416-0.072,14.833-0.079,22.249-0.013c0.566,0.005,1.127,0.68,1.69,1.043c-0.545,0.306-1.086,0.866-1.637,0.877
		c-3.746,0.078-7.494,0.041-11.241,0.041v-0.027c-3.669,0-7.339,0.043-11.007-0.043C458.116,135.216,457.517,134.638,456.912,134.32
		z M482.57,126.681c-0.532,0.314-1.06,0.888-1.598,0.899c-3.656,0.08-7.315,0.042-10.973,0.042c-3.813,0-7.627,0.036-11.44-0.04
		c-0.548-0.011-1.087-0.555-1.629-0.852c0.491-0.364,0.98-1.04,1.474-1.044c7.548-0.069,15.098-0.07,22.646-0.007
		C481.559,125.684,482.063,126.332,482.57,126.681z M480.989,120.044c-7.416,0.061-14.833,0.063-22.25-0.004
		c-0.603-0.005-1.201-0.619-1.802-0.95c0.604-0.322,1.203-0.908,1.813-0.923c3.667-0.087,7.338-0.043,11.007-0.043v0.012
		c3.747,0,7.496-0.038,11.241,0.043c0.528,0.012,1.045,0.609,1.567,0.935C482.041,119.438,481.517,120.039,480.989,120.044z
		 M456.92,111.237c0.5-0.354,0.998-1.013,1.501-1.018c7.549-0.065,15.098-0.063,22.646,0.002c0.509,0.004,1.014,0.644,1.52,0.988
		c-0.536,0.395-1.063,1.116-1.608,1.131c-3.655,0.102-7.314,0.053-10.972,0.053v-0.012c-3.813,0-7.628,0.046-11.439-0.051
		C458.011,112.316,457.47,111.619,456.92,111.237z M480.613,104.367c-7.251,0.059-14.503,0.064-21.754,0.009
		c-0.638-0.005-1.272-0.539-1.907-0.828c0.606-0.312,1.206-0.88,1.818-0.894c3.663-0.085,7.329-0.042,10.993-0.039
		c3.587,0,7.175-0.051,10.759,0.044c0.685,0.018,1.356,0.61,2.033,0.937C481.908,103.865,481.262,104.362,480.613,104.367z
		 M456.915,95.773c0.57-0.368,1.137-1.05,1.71-1.055c7.408-0.069,14.818-0.065,22.226,0.007c0.585,0.006,1.165,0.653,1.747,1.003
		c-0.607,0.41-1.206,1.155-1.824,1.174c-3.662,0.112-7.33,0.055-10.995,0.055v-0.014c-3.665,0-7.332,0.055-10.995-0.052
		C458.152,96.871,457.538,96.162,456.915,95.773z M456.884,88.251c0.619-0.411,1.235-1.174,1.858-1.181
		c7.33-0.076,14.662-0.068,21.992,0.021c0.63,0.008,1.251,0.748,1.876,1.147c-0.62,0.403-1.231,1.135-1.862,1.155
		c-3.663,0.111-7.33,0.054-10.995,0.052c-3.666,0-7.333,0.056-10.995-0.054C458.124,89.372,457.509,88.649,456.884,88.251z"/>
	<polygon opacity="0.3" fill="#7E6B71" points="244.966,38.691 207.073,199.691 359.119,199.691 395.023,38.691 	"/>
	<polygon opacity="0.2" fill="#7E6B71" points="106.289,38.691 106.289,199.691 207.073,199.691 244.966,38.691 	"/>
	<polygon opacity="0.4" fill="#7E6B71" points="515.289,38.691 395.023,38.691 359.119,199.691 515.289,199.691 	"/>
	<g>
		<defs>
			<polygon id="SVGID_2454_" points="106.289,38.691 106.289,199.691 207.073,199.691 244.966,38.691 			"/>
		</defs>
		<clipPath id="SVGID_8_">
			<use xlink:href="#SVGID_2454_"  overflow="visible"/>
		</clipPath>
		<path opacity="0.3" clip-path="url(#SVGID_8_)" fill="#7E6B71" d="M48.094,156.495c-0.007-13.104-0.001-26.208-0.03-39.312
			c-0.01-4.566-0.113-9.131-0.163-13.697c-0.017-1.571-0.003-3.144-0.003-5.04c8.137,0,16.185,0,24.378,0
			c0-19.647,0-38.974,0-58.541c5.38,0,10.617,0,16.014,0c0,6.353,0,12.65,0,19.253c1.183,0,2.208,0.021,3.233-0.004
			c2.372-0.058,4.746-0.082,7.117-0.242c0.771-0.052,1.058,0.556,1.033,2.396c-0.038,2.726,0.031,5.459,0.006,8.187
			c-0.014,1.485,0.223,2.003,0.841,2c6.006-0.032,12.012-0.031,18.018,0.001c0.591,0.003,0.739-0.59,0.772-1.895
			c0.141-5.753,0.157-5.806,2.605-5.788c6.374,0.047,12.747,0.152,19.121,0.216c0.392,0.004,0.785-0.149,1.33-0.259
			c0,5.688,0,11.097,0,16.841c1.389,0,2.637-0.003,3.885,0.001c1.557,0.005,3.115-0.055,4.671,0.057
			c0.782,0.057,1.03-0.655,1.023-2.454c-0.029-7.043-0.013-14.088-0.014-21.131c0-1.224,0-2.448,0-3.904c6.088,0,12.069,0,18.154,0
			c0.023,1.015,0.067,2.048,0.067,3.081c0.006,11.27,0.025,22.541-0.011,33.81c-0.007,2.215,0.216,3.039,1.232,3.027
			c7.934-0.096,15.868-0.056,23.802-0.027c0.651,0.002,1.156-0.045,1.214-2.1c0.016-0.555,0.516-1.478,0.794-1.48
			c5.147-0.037,10.293,0.078,15.44,0.082c3.78,0.003,7.56-0.138,11.34-0.142c0.806-0.001,0.764-1.179,0.764-2.453
			c-0.001-8.805-0.011-17.61,0.017-26.414c0.004-1.167,0.207-2.33,0.318-3.495c1.38-3.294,2.76-6.589,4.14-9.884
			c0.389-0.196,0.777-0.556,1.166-0.563c4.224-0.073,8.448-0.037,12.672-0.164c0.893-0.027,1.126,0.689,1.115,2.724
			c-0.042,8.007,0.005,16.017-0.032,24.024c-0.009,1.959,0.251,2.606,1.079,2.575c2.704-0.102,5.41-0.09,8.115-0.013
			c0.732,0.021,0.964-0.547,0.944-2.282c-0.049-4.221,0.002-8.448-0.034-12.671c-0.014-1.609,0.123-2.373,0.908-2.363
			c7.556,0.102,15.112,0.117,22.669,0.171c0.284,0.002,0.568,0.148,0.991,0.265c0,5.909-0.001,11.696,0,17.482
			c0.001,10.384,0,20.769,0.006,31.153c0.009,16.324,0.022,32.648,0.034,48.972C201.921,156.495,125.007,156.495,48.094,156.495z
			 M222.733,112.362c-0.428-0.078-0.754-0.185-1.081-0.19c-6.175-0.091-12.351-0.181-18.526-0.244
			c-1.629-0.017-1.734,0.338-1.419,4.687c6.972,0,13.971,0,21.026,0C222.733,115.064,222.733,113.866,222.733,112.362z
			 M201.575,99.984c0.454,0.055,0.885,0.155,1.316,0.152c6.147-0.049,12.293-0.112,18.44-0.17c1.602-0.015,1.683-0.268,1.271-4.277
			c-6.982,0-13.982,0-21.027,0C201.575,97.294,201.575,98.502,201.575,99.984z M201.624,149.466c7.117,0,14.096,0,21.062,0
			c0.204-4.116,0.204-4.113-1.36-4.113c-6.114,0.001-12.229,0-18.343,0c-0.432,0-0.864,0-1.359,0
			C201.624,146.912,201.624,148.1,201.624,149.466z M201.566,132.638c7.1,0,14.12,0,21.132,0c0-1.33,0-2.338,0-3.491
			c-0.401-0.066-0.726-0.166-1.052-0.166c-6.3-0.012-12.599-0.018-18.899-0.012C201.453,128.97,201.368,129.254,201.566,132.638z
			 M60.666,108.349c0-0.019,0-0.039,0-0.058c2.815,0,5.629-0.017,8.444,0.013c0.629,0.007,1.202-0.204,0.973-2.085
			c-0.079-0.646-0.585-1.411-0.899-1.42c-5.405-0.151-10.811-0.194-16.216-0.249c-0.258-0.003-0.612-0.122-0.753,0.213
			c-0.288,0.686-0.461,1.644-0.682,2.49c0.267,0.365,0.533,1.04,0.803,1.048C55.111,108.379,57.889,108.349,60.666,108.349z
			 M51.698,145.289c-0.3,2.447-0.009,3.321,1.023,3.305c5.44-0.084,10.88-0.038,16.32-0.055c0.492-0.002,1.073,0.348,1.089-1.658
			c0.018-2.172-0.611-1.81-1.141-1.81c-5.292-0.005-10.584,0.007-15.876,0.031C52.643,145.104,52.172,145.223,51.698,145.289z
			 M172.998,115.452c-0.329,2.31,0.049,2.955,0.93,2.948c5.741-0.046,11.481-0.047,17.222-0.001c1.026,0.008,1.243-0.92,0.853-2.948
			C185.629,115.452,179.308,115.452,172.998,115.452z M173.023,105.372c-0.322,2.194-0.04,2.84,0.707,2.837
			c5.849-0.028,11.698-0.018,17.546-0.021c0.074,0,0.17,0.061,0.218-0.025c0.225-0.406,0.437-0.854,0.654-1.287
			c-0.231-0.5-0.441-1.083-0.703-1.466c-0.134-0.197-0.361-0.038-0.546-0.038c-5.516,0-11.031,0-16.547,0
			C173.912,105.372,173.472,105.372,173.023,105.372z M51.65,121.718c0.459,0.054,0.788,0.126,1.117,0.126
			c5.405,0.006,10.811,0.01,16.216-0.011c0.515-0.002,1.151,0.453,1.15-1.76c-0.001-2.185-0.617-1.779-1.145-1.78
			c-5.405-0.01-10.811-0.006-16.216,0.005c-0.358,0.001-0.715,0.093-1.121,0.149C51.65,119.592,51.65,120.518,51.65,121.718z
			 M69.995,134.87c0.313-2.379-0.012-3.164-0.919-3.155c-5.485,0.055-10.97,0.066-16.456,0.02c-1.008-0.009-1.233,0.933-0.884,3.136
			C57.822,134.87,63.886,134.87,69.995,134.87z M192.082,145.105c-0.1-0.129-0.132-0.204-0.163-0.204
			c-6.104-0.037-12.208-0.085-18.312-0.043c-0.24,0.002-0.48,0.863-0.72,1.324c0.285,0.45,0.57,1.289,0.857,1.293
			c5.846,0.078,11.692,0.042,17.539,0.084C192.037,147.564,192.307,146.931,192.082,145.105z M192.033,128.098
			c0.266-1.937,0.038-2.612-0.674-2.609c-5.892,0.027-11.784,0.028-17.676,0.015c-0.799-0.002-0.972,0.832-0.661,2.593
			C179.349,128.098,185.676,128.098,192.033,128.098z M192.03,138.115c0.394-2.661-0.231-2.694-0.935-2.691
			c-5.672,0.021-11.344,0.013-17.017,0.016c-0.185,0-0.408-0.138-0.548,0.055c-0.242,0.334-0.432,0.878-0.643,1.333
			c0.214,0.426,0.409,1.132,0.646,1.221c0.506,0.191,1.034,0.066,1.553,0.066C180.718,138.115,186.349,138.115,192.03,138.115z
			 M275.77,142.139c-0.902,0-1.709,0.002-2.517,0c-3.171-0.01-3.171-0.011-2.812,7.64c0.004,0.084,0.027,0.163,0.081,0.474
			c1.707,0,3.454,0,5.249,0C275.77,147.535,275.77,144.96,275.77,142.139z M257.106,150.239c1.832,0,3.625,0,5.43,0
			c0-2.792,0-5.357,0-8.093c-0.955,0-1.806,0-2.656,0c-3.178,0-3.178,0-2.859,7.606
			C257.024,149.836,257.048,149.915,257.106,150.239z M257.047,131.66c0,2.682,0,5.08,0,7.788c1.725,0,3.378,0.041,5.028-0.056
			c0.188-0.011,0.516-0.768,0.528-1.216c0.056-2.138,0.025-4.29,0.025-6.516C260.693,131.66,258.932,131.66,257.047,131.66z
			 M262.583,109.59c-1.707,0-3.364-0.05-5.018,0.066c-0.2,0.014-0.532,0.891-0.557,1.431c-0.076,1.653-0.07,3.345-0.01,5.004
			c0.017,0.48,0.32,1.28,0.498,1.291c1.687,0.099,3.376,0.059,5.086,0.059C262.583,114.662,262.583,112.314,262.583,109.59z
			 M262.59,87.618c-1.877,0-3.701,0-5.526,0c0,2.63,0,5.036,0,7.459c1.89,0,3.682,0,5.526,0
			C262.59,92.517,262.59,90.171,262.59,87.618z M262.584,65.669c-1.925,0-3.713,0-5.604,0c0,2.292-0.031,4.38,0.023,6.456
			c0.013,0.479,0.313,1.301,0.489,1.311c1.683,0.1,3.367,0.06,5.093,0.06C262.584,70.697,262.584,68.28,262.584,65.669z
			 M275.783,65.486c-1.666,0-3.253-0.032-4.838,0.041c-0.194,0.009-0.545,0.566-0.549,0.891c-0.029,2.094-0.002,4.198,0.061,6.289
			c0.009,0.29,0.319,0.75,0.492,0.756c1.581,0.059,3.163,0.035,4.834,0.035C275.783,70.711,275.783,68.218,275.783,65.486z
			 M262.637,128.319c0-2.196,0.05-4.128-0.03-6.031c-0.025-0.588-0.393-1.541-0.618-1.563c-1.439-0.146-2.882-0.148-4.321-0.015
			c-0.239,0.022-0.641,0.898-0.664,1.45c-0.081,1.977-0.032,3.984-0.032,6.159C258.89,128.319,260.678,128.319,262.637,128.319z
			 M256.984,98.678c0,2.215-0.032,4.222,0.023,6.215c0.014,0.488,0.309,1.324,0.482,1.334c1.682,0.101,3.365,0.061,5.056,0.061
			c0-2.786,0-5.173,0-7.609C260.656,98.678,258.868,98.678,256.984,98.678z M275.862,106.319c0-2.329,0.041-4.254-0.025-6.159
			c-0.02-0.574-0.329-1.548-0.516-1.563c-1.613-0.125-3.229-0.072-4.938-0.072c0,2.315-0.049,4.247,0.029,6.149
			c0.024,0.589,0.386,1.552,0.606,1.572C272.567,106.383,274.119,106.319,275.862,106.319z M273.029,117.463
			c3.031,0.009,3.03,0.009,2.849-5.842c-0.003-0.087,0.011-0.213-0.008-0.257c-0.269-0.609-0.531-1.685-0.818-1.726
			c-1.288-0.183-2.587-0.177-3.874,0.017c-0.28,0.042-0.735,1.086-0.765,1.756c-0.272,6.038-0.25,6.043,2.285,6.052
			C272.807,117.463,272.918,117.463,273.029,117.463z M275.644,120.639c-1.319,0-2.645,0-3.971,0c-0.222,0-0.483-0.167-0.658,0.05
			c-0.244,0.302-0.57,0.832-0.611,1.37c-0.432,5.731-0.149,6.495,2.259,6.434c0.148-0.004,0.296,0.006,0.445,0.008
			c3.079,0.048,3.079,0.048,2.681-7.235C275.785,121.185,275.755,121.112,275.644,120.639z M273.135,139.468
			c0-0.009,0-0.018,0-0.026c0.7,0,1.402,0.085,2.098-0.05c0.217-0.042,0.564-0.621,0.593-1.052c0.109-1.627,0.185-3.312,0.117-4.938
			c-0.028-0.659-0.447-1.716-0.706-1.749c-1.396-0.175-2.798-0.154-4.195-0.014c-0.228,0.023-0.602,0.924-0.635,1.506
			c-0.347,6.172-0.272,6.342,2.287,6.325C272.84,139.468,272.987,139.468,273.135,139.468z M275.841,95.134
			c0-2.221,0.039-4.303-0.029-6.364c-0.016-0.486-0.391-1.276-0.609-1.294c-1.398-0.109-2.8-0.099-4.198,0.032
			c-0.212,0.02-0.571,0.847-0.588,1.351c-0.068,2.051-0.028,4.122-0.028,6.275C272.279,95.134,273.993,95.134,275.841,95.134z
			 M264.022,142.141c0,2.347,0.022,4.424-0.008,6.497c-0.02,1.383,0.228,1.867,0.785,1.842c1.255-0.058,2.511-0.112,3.766-0.033
			c0.757,0.048,0.815-1.147,0.681-2.235c-0.247-2.008,0.752-5.27-0.655-5.925C267.175,141.627,265.662,142.141,264.022,142.141z
			 M264.094,73.517c1.561,0,3.031,0.056,4.5-0.06c0.224-0.018,0.61-0.8,0.625-1.282c0.069-2.143,0.03-4.305,0.03-6.553
			c-1.808,0-3.452,0-5.154,0C264.094,68.274,264.094,70.765,264.094,73.517z M264.17,128.501c1.067,0,2.1,0.038,3.132-0.008
			c2.13-0.094,1.891,0.966,1.991-4.568c0.049-2.706-0.293-3.728-1.423-3.304c-0.397,0.149-0.813,0.021-1.22,0.02
			C263.679,120.639,263.608,120.85,264.17,128.501z M264.244,117.463c1.421,0,2.891,0.067,4.358-0.071
			c0.227-0.021,0.598-0.929,0.633-1.517c0.359-6.074,0.253-6.327-2.3-6.326c-0.074,0-0.147,0-0.221,0
			c-3.047,0.006-3.047,0.006-2.64,7.263C264.078,116.892,264.111,116.962,264.244,117.463z M264.211,106.182
			c0.266,0.047,0.555,0.138,0.845,0.141c1.182,0.013,2.367,0.083,3.545-0.077c0.232-0.031,0.602-0.933,0.637-1.523
			c0.353-5.997,0.242-6.265-2.231-6.251c-0.111,0.001-0.222,0.002-0.332,0.002c-2.95,0.022-2.95,0.022-2.604,7.141
			C264.075,105.695,264.107,105.766,264.211,106.182z M269.148,87.409c-0.861,0-1.668,0.002-2.475,0
			c-2.972-0.008-3.02,0.12-2.598,7.162c0.01,0.164,0.064,0.314,0.149,0.709c0.722,0,1.495,0,2.268,0
			C269.561,95.279,269.561,95.279,269.148,87.409z M264.066,139.445c1.598,0,3.067,0.033,4.536-0.037
			c0.207-0.01,0.58-0.499,0.588-0.807c0.052-2.09,0.04-4.193,0.007-6.288c-0.004-0.248-0.257-0.676-0.396-0.681
			c-1.568-0.049-3.136-0.031-4.736-0.031C264.066,134.313,264.066,136.655,264.066,139.445z M257.119,84.106
			c1.829,0,3.617,0,5.425,0c0-2.583,0-4.966,0-7.552c-1.014,0-1.932,0-2.849,0c-3.022-0.001-3.022-0.001-2.665,7.171
			C257.033,83.803,257.063,83.873,257.119,84.106z M275.855,76.58c-1.742,0-3.356-0.042-4.967,0.061
			c-0.172,0.011-0.459,0.834-0.478,1.328c-0.062,1.563-0.08,3.167,0.007,4.716c0.033,0.583,0.396,1.491,0.621,1.513
			c1.399,0.139,2.803,0.126,4.203,0.005c0.211-0.018,0.569-0.839,0.586-1.341C275.895,80.882,275.855,78.882,275.855,76.58z
			 M139.562,132.067c-1.74,0-3.414,0-5.096,0c0,2.576,0,4.895,0,7.307c1.738,0,3.383,0,5.096,0
			C139.562,136.926,139.562,134.669,139.562,132.067z M122.111,132.042c-0.052,0.525-0.1,0.779-0.1,1.032
			c0.007,7.956-0.433,6.342,2.501,6.444c2.832,0.099,2.833,0.023,2.572-6.758c-0.006-0.169-0.048-0.33-0.107-0.718
			C125.402,132.042,123.792,132.042,122.111,132.042z M121.915,108.817c1.087,0,1.972-0.072,2.854,0.014
			c2.332,0.227,2.296,0.249,2.444-5.359c0.047-1.764-0.173-2.528-0.882-2.461c-1.398,0.131-2.794,0.321-4.279,0.496
			C122.007,103.92,121.965,106.159,121.915,108.817z M269.212,76.705c-1.751,0-3.394,0-5.118,0c0,2.484,0,4.881,0,7.345
			c1.732,0,3.398,0,5.118,0C269.212,81.562,269.212,79.314,269.212,76.705z M128.168,132.02c0,2.095-0.05,4.021,0.03,5.916
			c0.024,0.576,0.399,1.495,0.63,1.523c1.219,0.149,2.444,0.119,3.664,0.007c0.203-0.019,0.553-0.72,0.565-1.15
			c0.06-2.058,0.027-4.132,0.027-6.296C131.363,132.02,129.825,132.02,128.168,132.02z M122.16,142.088
			c-0.617,7.343-0.465,7.808,2.402,7.793c0.074,0,0.148-0.001,0.222-0.001c2.54-0.012,2.558-0.016,2.297-6.062
			c-0.027-0.625-0.432-1.624-0.678-1.653C125.006,142.005,123.605,142.088,122.16,142.088z M122.088,87.5
			c0.022,0.255,0.044,0.51,0.065,0.765c1.465,0,2.932,0.068,4.395-0.074c0.218-0.021,0.618-1.076,0.598-1.576
			c-0.271-6.793,0.73-6.076-2.455-6.123c-0.037-0.001-0.074,0.001-0.111,0.001c-2.819,0.013-2.819,0.013-2.543,6.782
			C122.041,87.354,122.07,87.425,122.088,87.5z M134.438,149.752c1.785,0,3.435,0,5.12,0c0-2.538,0-4.941,0-7.465
			c-1.748,0-3.418,0-5.12,0C134.438,144.832,134.438,147.161,134.438,149.752z M134.413,87.829c1.788,0,3.43,0,5.118,0
			c0-2.466,0-4.757,0-7.231c-1.768,0-3.439,0-5.118,0C134.413,83.046,134.413,85.294,134.413,87.829z M122.064,111.532
			c-0.054,2.177-0.152,4.008-0.113,5.822c0.012,0.559,0.39,1.512,0.614,1.535c1.254,0.131,2.513,0.107,3.767-0.049
			c0.265-0.033,0.71-0.784,0.733-1.29c0.086-1.955,0.035-3.943,0.035-6.019C125.336,111.532,123.757,111.532,122.064,111.532z
			 M126.999,129.153c0.396-7.562,0.396-7.562-2.53-7.561c-0.074,0-0.148,0-0.222,0c-2.433-0.005-2.433-0.005-2.256,5.705
			c0.003,0.087-0.014,0.211,0.005,0.258c0.214,0.539,0.425,1.504,0.652,1.527C124.079,129.222,125.514,129.153,126.999,129.153z
			 M134.379,70.367c0,2.158-0.052,3.999,0.031,5.805c0.026,0.573,0.405,1.479,0.637,1.505c1.288,0.145,2.582,0.126,3.871,0.008
			c0.237-0.022,0.647-0.719,0.663-1.167c0.072-2.036,0.032-4.094,0.032-6.151C137.783,70.367,136.17,70.367,134.379,70.367z
			 M139.497,111.608c-1.708,0-3.35,0-5.024,0c0,2.46,0,4.749,0,7.298c0.938,0,1.779,0.002,2.621,0
			C139.993,118.898,139.993,118.897,139.497,111.608z M122.155,98.502c1.292,0,2.579-0.012,3.866,0.005
			c0.74,0.01,1.081-0.568,1.128-2.585c0.124-5.282,0.147-5.351-2.092-4.964c-0.147,0.025-0.295,0.026-0.443,0.033
			c-2.833,0.135-2.833,0.135-2.574,6.966C122.044,98.035,122.071,98.107,122.155,98.502z M139.435,90.994
			c-1.187,0-2.361,0.003-3.535-0.001c-1.516-0.005-1.526-0.007-1.516,3.518c0.011,4.231-0.264,3.864,1.674,3.865
			c0.369,0,0.738,0.001,1.107,0.001c2.709-0.002,2.709-0.002,2.428-6.508C139.586,91.706,139.537,91.551,139.435,90.994z
			 M124.472,77.758c2.785-0.01,2.785-0.01,2.638-5.624c-0.002-0.088,0.016-0.211-0.002-0.258c-0.21-0.548-0.416-1.523-0.642-1.551
			c-1.256-0.154-2.519-0.157-3.775-0.012c-0.242,0.028-0.631,0.88-0.671,1.46c-0.377,5.51-0.188,5.995,2.118,5.987
			C124.249,77.76,124.36,77.76,124.472,77.758z M134.444,108.76c1.571,0,3.08,0.044,4.586-0.054c0.197-0.013,0.539-0.733,0.553-1.17
			c0.06-1.967,0.026-3.951,0.026-5.979c-1.818,0-3.463,0-5.165,0C134.444,103.987,134.444,106.219,134.444,108.76z M134.431,128.981
			c1.778,0,3.419,0,5.182,0c0-2.158,0.026-4.152-0.021-6.136c-0.01-0.422-0.277-1.153-0.432-1.161
			c-1.569-0.087-3.138-0.053-4.73-0.053C134.431,124.279,134.431,126.524,134.431,128.981z M128.175,88.015
			c1.105,0,2.089,0.094,3.067-0.033c0.641-0.084,1.595,0.004,1.834-0.87c0.321-1.177,0.148-3.224,0.063-4.861
			c-0.033-0.623-0.4-1.606-0.633-1.636c-1.246-0.162-2.498-0.128-3.746-0.019c-0.201,0.017-0.544,0.725-0.558,1.162
			C128.14,83.655,128.175,85.571,128.175,88.015z M128.165,149.647c1.748,0,3.308,0,4.861,0c0-2.586,0-4.915,0-7.37
			c-1.637,0-3.196,0-4.861,0c0,1.24,0,2.271,0,3.302C128.165,146.874,128.165,148.169,128.165,149.647z M128.183,108.826
			c1.046,0,1.926,0.038,2.806-0.007c2.413-0.123,2.085,0.933,2.11-5.305c0.001-0.351,0.035-0.763-0.029-1.038
			c-0.095-0.407-0.261-1.016-0.402-1.023c-1.489-0.074-2.978-0.046-4.485-0.046C128.183,104.049,128.183,106.217,128.183,108.826z
			 M128.111,91.048c0,1.944,0.034,3.509-0.009,5.062c-0.05,1.808,0.239,2.564,1.017,2.461c1.066-0.141,2.139-0.049,3.202-0.249
			c0.269-0.051,0.694-0.761,0.733-1.297c0.104-1.444,0.089-2.971,0.015-4.435c-0.028-0.557-0.342-1.456-0.537-1.474
			C131.142,90.988,129.75,91.048,128.111,91.048z M128.289,77.947c1.143,0,2.242,0.062,3.34-0.015
			c1.471-0.104,1.531-0.307,1.482-3.818c-0.055-3.885-0.055-3.885-1.705-3.878c-0.222,0.001-0.443,0-0.665-0.001
			C127.902,70.227,127.902,70.227,128.289,77.947z M128.229,118.855c1.477,0,2.903,0.038,4.328-0.048
			c0.178-0.011,0.49-0.658,0.5-1.043c0.05-2.043,0.024-4.097,0.024-6.145c-1.725,0-3.257,0-4.851,0
			C128.229,114.026,128.229,116.254,128.229,118.855z M128.425,129.145c1.271,0,2.596-0.042,3.919,0.019
			c0.592,0.028,0.731-0.609,0.763-1.896c0.14-5.686,0.156-5.684-2.263-5.68c-0.037,0-0.074,0-0.111,0
			c-2.9,0.004-2.9,0.005-2.507,6.998C128.231,128.658,128.272,128.719,128.425,129.145z M234.217,81.471
			c1.886,0,3.772,0.056,5.657-0.058c0.297-0.018,0.586-0.81,0.879-1.243c-0.286-0.459-0.571-1.312-0.859-1.318
			c-3.771-0.086-7.543-0.082-11.314,0.013c-0.272,0.007-0.541,0.901-0.811,1.383c0.264,0.407,0.524,1.152,0.792,1.166
			C230.445,81.516,232.332,81.468,234.217,81.471z M234.232,89.987c1.817,0,3.634,0.035,5.45-0.026
			c0.416-0.014,1.121,0.581,1.017-1.326c-0.029-0.527-0.628-1.245-0.968-1.253c-3.67-0.088-7.341-0.086-11.011,0.013
			c-0.316,0.008-0.628,0.883-0.942,1.355c0.335,0.412,0.666,1.158,1.005,1.18C230.598,90.049,232.415,89.986,234.232,89.987z
			 M234.227,150.622c0,0.004,0,0.008,0,0.012c1.849,0,3.698,0.067,5.545-0.062c0.328-0.023,0.646-0.859,0.969-1.32
			c-0.324-0.363-0.648-1.037-0.974-1.043c-3.697-0.073-7.394-0.071-11.091,0.012c-0.302,0.007-0.601,0.757-0.902,1.162
			c0.302,0.413,0.601,1.165,0.908,1.183C230.529,150.678,232.379,150.622,234.227,150.622z M234.299,98.46c0,0.003,0,0.007,0,0.01
			c1.847,0,3.695,0.053,5.541-0.053c0.306-0.018,0.606-0.734,0.908-1.127c-0.313-0.483-0.624-1.377-0.939-1.386
			c-3.731-0.101-7.463-0.098-11.194-0.014c-0.283,0.006-0.562,0.845-0.843,1.297c0.291,0.424,0.579,1.198,0.874,1.216
			C230.529,98.515,232.414,98.46,234.299,98.46z M234.325,70.309c0,0.005,0,0.01,0,0.015c-1.885,0-3.77-0.056-5.653,0.058
			c-0.298,0.018-0.587,0.8-0.88,1.229c0.293,0.445,0.585,1.27,0.881,1.277c3.732,0.088,7.464,0.089,11.196,0
			c0.296-0.007,0.589-0.84,0.883-1.29c-0.294-0.43-0.585-1.212-0.884-1.231C238.021,70.251,236.173,70.309,234.325,70.309z
			 M161.067,79.824c0-0.004,0-0.009,0-0.013c1.703,0,3.408,0.072,5.109-0.064c0.322-0.026,0.632-0.874,0.948-1.343
			c-0.312-0.385-0.623-1.097-0.936-1.104c-3.443-0.077-6.888-0.08-10.331,0.02c-0.321,0.009-0.637,0.864-0.956,1.327
			c0.315,0.392,0.626,1.104,0.945,1.124C157.586,79.883,159.327,79.824,161.067,79.824z M161.018,87.871
			c1.741,0,3.483,0.06,5.222-0.057c0.301-0.02,0.594-0.79,0.89-1.214c-0.294-0.438-0.587-1.251-0.882-1.258
			c-3.482-0.081-6.964-0.073-10.446,0.022c-0.299,0.008-0.594,0.796-0.891,1.222c0.295,0.429,0.585,1.209,0.884,1.23
			C157.536,87.933,159.277,87.873,161.018,87.871z M101.947,138.475c0.94,0,1.813,0.012,2.687-0.003
			c2.088-0.035,1.801,0.476,1.825-4.349c0.002-0.35,0.053-0.788-0.016-1.032c-0.142-0.502-0.343-1.268-0.529-1.284
			c-1.311-0.111-2.625-0.059-3.966-0.059C101.947,134.153,101.947,136.126,101.947,138.475z M106.371,120.537
			c0.043-0.573,0.074-0.827,0.08-1.085c0.13-5.731,0.13-5.731-2.24-5.715c-2.498,0.016-2.499,0.017-2.304,6.018
			c0.008,0.237,0.08,0.463,0.138,0.783C103.468,120.537,104.887,120.537,106.371,120.537z M102.049,129.659
			c0.816,0,1.62,0.001,2.424,0c0.442-0.001,0.897,0.143,1.321-0.064c0.246-0.119,0.591-0.729,0.638-1.248
			c0.428-4.709,0.09-5.665-1.906-5.661c-0.11,0-0.221,0-0.331,0c-2.517,0.006-2.517,0.006-2.287,6.064
			C101.913,128.915,101.956,129.071,102.049,129.659z M101.952,105.583c0,2.268,0,4.329,0,6.431c1.534,0,2.988,0,4.413,0
			c0-2.287,0-4.34,0-6.431C104.836,105.583,103.411,105.583,101.952,105.583z M117.041,129.788c0-2.608,0-4.771,0-7.07
			c-1.298,0-2.435-0.066-3.569,0.052c-0.243,0.025-0.628,0.624-0.679,1.116c-0.139,1.339-0.21,2.782-0.151,4.144
			c0.028,0.632,0.41,1.645,0.651,1.678C114.533,129.88,115.779,129.788,117.041,129.788z M117.055,120.539
			c0.079-1.735,0.165-3.277,0.216-4.826c0.048-1.447-0.148-2.325-0.873-2.201c-0.99,0.168-1.989,0.087-2.977,0.289
			c-0.235,0.048-0.617,0.758-0.636,1.23c-0.074,1.861-0.03,3.748-0.03,5.509C114.316,120.539,115.665,120.539,117.055,120.539z
			 M112.809,138.436c1.309,0,2.52,0.055,3.729-0.055c0.2-0.018,0.512-0.684,0.563-1.173c0.471-4.516-0.004-5.798-1.914-5.52
			c-0.621,0.09-1.256-0.265-1.871-0.103c-0.236,0.062-0.599,0.968-0.615,1.535C112.656,134.762,112.757,136.426,112.809,138.436z
			 M111.743,129.542c0-2.434,0-4.493,0-6.837c-1.258,0-2.43-0.07-3.598,0.061c-0.222,0.025-0.591,0.806-0.612,1.305
			c-0.075,1.774-0.029,3.578-0.029,5.471C109.035,129.542,110.381,129.542,111.743,129.542z M117.051,105.578
			c-1.407,0-2.788,0-4.241,0c0,2.197,0,4.251,0,6.659c0.673,0,1.288,0.003,1.903-0.001
			C117.298,112.221,117.298,112.22,117.051,105.578z M111.648,120.522c0.553-6.393,0.428-6.788-2.105-6.794
			c-0.479-0.001-0.972-0.144-1.431,0.083c-0.235,0.116-0.562,0.868-0.585,1.397c-0.075,1.704-0.028,3.439-0.028,5.314
			C108.98,120.522,110.32,120.522,111.648,120.522z M111.733,105.577c-1.42,0-2.767,0-4.167,0c0,2.257,0,4.31,0,6.496
			c1.421,0,2.768,0,4.167,0C111.733,109.847,111.733,107.789,111.733,105.577z M107.548,138.523c1.256,0,2.494,0.033,3.73-0.04
			c0.167-0.01,0.463-0.54,0.469-0.853c0.03-1.737,0.098-3.553-0.092-5.181c-0.058-0.494-0.892-0.479-1.371-0.693
			c-0.072-0.032-0.146-0.073-0.219-0.066C107.134,131.983,107.465,130.43,107.548,138.523z M106.273,87.877c-1.39,0-2.835,0-4.337,0
			c0,2.072,0,3.95,0,6.213c0.824,0,1.584,0.001,2.345,0c2.449-0.005,2.452-0.012,2.112-5.852
			C106.389,88.165,106.351,88.105,106.273,87.877z M101.882,96.464c0,1.879-0.04,3.452,0.024,5c0.02,0.477,0.319,1.255,0.5,1.27
			c1.318,0.109,2.638,0.059,4.049,0.059c0-1.886,0.052-3.38-0.027-4.834c-0.029-0.545-0.354-1.407-0.556-1.428
			C104.586,96.4,103.296,96.464,101.882,96.464z M101.919,147.368c0.843,0,1.573-0.003,2.303,0.001
			c2.427,0.01,2.428,0.011,2.193-5.706c-0.006-0.147-0.076-0.279-0.128-0.462c-1.438,0-2.885,0-4.367,0
			C101.919,143.234,101.919,145.05,101.919,147.368z M101.982,78.782c-0.317,6.4-0.317,6.4,2.136,6.394
			c0.184,0,0.369-0.003,0.553-0.004c1.931-0.017,2.059-0.33,1.766-4.906c-0.035-0.549-0.355-1.398-0.555-1.418
			C104.603,78.718,103.322,78.782,101.982,78.782z M234.333,104.504c-1.886,0-3.773-0.053-5.658,0.054
			c-0.303,0.017-0.599,0.753-0.899,1.157c0.283,0.443,0.564,1.264,0.849,1.27c3.735,0.084,7.471,0.081,11.206-0.001
			c0.305-0.007,0.607-0.753,0.91-1.156c-0.324-0.44-0.643-1.239-0.972-1.262C237.959,104.442,236.146,104.507,234.333,104.504z
			 M234.34,139.622c-1.885,0-3.771-0.054-5.655,0.054c-0.304,0.017-0.602,0.753-0.902,1.157c0.282,0.343,0.564,0.979,0.848,0.984
			c3.733,0.067,7.467,0.073,11.2-0.004c0.304-0.006,0.605-0.73,0.907-1.121c-0.321-0.358-0.64-1.008-0.964-1.026
			C237.963,139.567,236.152,139.619,234.34,139.622z M234.209,124.219c1.853,0,3.706,0.051,5.558-0.049
			c0.321-0.017,0.635-0.675,0.952-1.037c-0.301-0.327-0.602-0.933-0.904-0.938c-3.705-0.059-7.411-0.052-11.117,0.018
			c-0.297,0.006-0.593,0.599-0.889,0.92c0.317,0.362,0.632,1.02,0.953,1.038C230.577,124.272,232.393,124.22,234.209,124.219z
			 M112.81,147.15c1.457,0,2.841,0,4.253,0c0-2.107,0-3.993,0-6.08c-1.465,0-2.851,0-4.253,0
			C112.81,143.108,112.81,145.082,112.81,147.15z M112.803,96.579c0,2.159,0,4.054,0,6.019c1.464,0,2.847,0,4.259,0
			c0-2.098,0-3.98,0-6.019C115.626,96.579,114.269,96.579,112.803,96.579z M117.129,94.081c0-1.926,0.04-3.42-0.021-4.89
			c-0.022-0.521-0.284-1.393-0.447-1.408c-1.276-0.117-2.555-0.065-3.913-0.065c0,1.879-0.064,3.383,0.031,4.829
			c0.038,0.579,0.418,1.434,0.658,1.465C114.61,94.165,115.79,94.081,117.129,94.081z M111.736,78.763
			c-1.211,0-2.312,0.062-3.41-0.024c-0.628-0.049-0.874,0.539-0.84,1.984c0.025,1.048-0.042,2.128,0.044,3.14
			c0.042,0.495,0.335,1.221,0.524,1.238c1.203,0.113,2.409,0.057,3.682,0.057C111.736,82.956,111.736,81.068,111.736,78.763z
			 M107.54,93.889c1.473,0,2.815,0,4.167,0c0-2.144,0-4.088,0-5.963c-1.447,0-2.788,0-4.167,0
			C107.54,89.98,107.54,91.795,107.54,93.889z M117.05,85.016c0-2.111,0-4.053,0-6.256c-0.758,0-1.416,0.002-2.075,0
			c-2.445-0.011-2.445-0.011-2.16,5.772c0.007,0.145,0.08,0.272,0.146,0.485C114.291,85.016,115.642,85.016,117.05,85.016z
			 M111.698,141.208c-1.414,0-2.759,0-4.11,0c0,2.1,0,3.972,0,6.153c0.715,0,1.338-0.002,1.96,0
			C112.035,147.373,112.035,147.374,111.698,141.208z M111.7,96.625c-1.401,0-2.743,0-4.214,0c0,1.312-0.01,2.426,0.003,3.539
			c0.009,0.765,0.049,1.528,0.088,2.639c0.7,0,1.35-0.001,1.999,0C112.03,102.806,112.03,102.806,111.7,96.625z M160.898,112.312
			c0-0.004,0-0.009,0-0.013c1.811,0,3.623,0.049,5.433-0.054c0.265-0.015,0.522-0.758,0.783-1.164
			c-0.238-0.377-0.474-1.079-0.713-1.084c-3.585-0.069-7.171-0.067-10.756,0.002c-0.242,0.005-0.481,0.685-0.722,1.052
			c0.254,0.42,0.505,1.189,0.764,1.205C157.423,112.363,159.16,112.312,160.898,112.312z M161.016,118.414c0,0.004,0,0.009,0,0.013
			c-1.78,0-3.56-0.041-5.339,0.046c-0.251,0.012-0.496,0.648-0.744,0.996c0.25,0.345,0.498,0.985,0.749,0.989
			c3.523,0.065,7.045,0.067,10.568-0.004c0.286-0.006,0.571-0.659,0.856-1.012c-0.287-0.343-0.571-0.967-0.861-0.983
			C164.503,118.368,162.759,118.414,161.016,118.414z M161.017,71.512c0,0.003,0,0.006,0,0.008c1.668,0,3.337,0.059,5.004-0.046
			c0.365-0.023,0.724-0.632,1.086-0.97c-0.344-0.4-0.686-1.138-1.031-1.147c-3.41-0.086-6.82-0.081-10.23,0.002
			c-0.309,0.007-0.614,0.741-0.921,1.137c0.326,0.339,0.649,0.951,0.979,0.97C157.606,71.565,159.312,71.512,161.017,71.512z
			 M160.902,128.53c1.811,0,3.623,0.038,5.434-0.042c0.26-0.011,0.516-0.591,0.774-0.908c-0.233-0.387-0.465-1.107-0.7-1.112
			c-3.585-0.073-7.171-0.075-10.756-0.007c-0.242,0.005-0.481,0.695-0.722,1.067c0.253,0.334,0.503,0.945,0.759,0.958
			C157.427,128.571,159.165,128.53,160.902,128.53z M161.006,95.87c0-0.005,0-0.01,0-0.015c1.741,0,3.483,0.059,5.222-0.056
			c0.3-0.02,0.592-0.774,0.888-1.189c-0.271-0.392-0.54-1.118-0.812-1.124c-3.519-0.073-7.038-0.069-10.557,0.007
			c-0.278,0.006-0.553,0.696-0.83,1.068c0.289,0.436,0.573,1.23,0.866,1.25C157.523,95.93,159.265,95.87,161.006,95.87z
			 M161.032,144.892c1.706,0,3.412,0.055,5.116-0.049c0.323-0.02,0.639-0.67,0.959-1.03c-0.309-0.379-0.616-1.08-0.926-1.087
			c-3.448-0.078-6.897-0.078-10.345,0.004c-0.302,0.007-0.602,0.744-0.903,1.142c0.29,0.338,0.578,0.954,0.871,0.969
			C157.547,144.934,159.29,144.888,161.032,144.892z M80.47,149.083c-1.667,0-3.334-0.043-5,0.046
			c-0.249,0.013-0.493,0.643-0.739,0.987c0.239,0.364,0.477,1.039,0.718,1.044c3.296,0.067,6.593,0.064,9.89-0.008
			c0.251-0.006,0.499-0.665,0.749-1.02c-0.243-0.35-0.482-0.99-0.728-1.003C83.73,149.037,82.1,149.081,80.47,149.083z
			 M80.421,88.777c0,0.003,0,0.007,0,0.011c-1.591,0-3.183-0.061-4.772,0.053c-0.308,0.022-0.608,0.728-0.911,1.119
			c0.286,0.352,0.57,1.005,0.857,1.011c3.218,0.074,6.437,0.076,9.656,0.003c0.287-0.006,0.571-0.667,0.856-1.024
			c-0.304-0.391-0.605-1.098-0.914-1.12C83.603,88.715,82.011,88.777,80.421,88.777z M80.488,118.761c0-0.006,0-0.013,0-0.019
			c-1.631,0-3.263-0.05-4.894,0.047c-0.29,0.017-0.573,0.648-0.859,0.995c0.297,0.425,0.591,1.21,0.89,1.218
			c3.225,0.092,6.451,0.09,9.677,0.012c0.27-0.007,0.536-0.747,0.804-1.147c-0.278-0.369-0.554-1.038-0.836-1.056
			C83.678,118.708,82.083,118.761,80.488,118.761z M80.368,98.46c1.631,0,3.263,0.051,4.893-0.048
			c0.287-0.017,0.567-0.66,0.851-1.014c-0.264-0.395-0.527-1.128-0.794-1.134c-3.262-0.08-6.524-0.081-9.786-0.003
			c-0.266,0.006-0.528,0.744-0.793,1.141c0.282,0.352,0.561,0.99,0.847,1.008C77.179,98.509,78.774,98.458,80.368,98.46z
			 M80.349,135.803c1.661,0,3.323,0.042,4.983-0.044c0.258-0.013,0.511-0.606,0.767-0.931c-0.258-0.323-0.514-0.922-0.773-0.927
			c-3.248-0.062-6.496-0.059-9.744-0.001c-0.274,0.005-0.546,0.518-0.819,0.795c0.275,0.37,0.547,1.041,0.826,1.059
			C77.174,135.858,78.762,135.805,80.349,135.803z M80.506,126.148c0,0.008,0,0.016,0,0.024c-1.668,0-3.336-0.042-5.004,0.044
			c-0.258,0.013-0.511,0.618-0.767,0.949c0.255,0.431,0.509,1.232,0.766,1.238c3.262,0.083,6.524,0.079,9.785-0.002
			c0.275-0.007,0.547-0.73,0.821-1.12c-0.273-0.378-0.543-1.065-0.821-1.083C83.695,126.094,82.1,126.148,80.506,126.148z
			 M80.364,105.837c0,0.005,0,0.011,0,0.016c1.594,0,3.188,0.059,4.781-0.049c0.324-0.022,0.641-0.67,0.962-1.029
			c-0.304-0.397-0.606-1.13-0.912-1.139c-3.187-0.086-6.375-0.086-9.562-0.004c-0.3,0.008-0.597,0.735-0.896,1.128
			c0.319,0.359,0.635,1.005,0.958,1.028C77.25,105.896,78.808,105.837,80.364,105.837z M80.379,53.067
			c1.631,0,3.263,0.05,4.893-0.049c0.279-0.017,0.551-0.671,0.827-1.031c-0.248-0.358-0.495-1.021-0.744-1.026
			c-3.299-0.066-6.599-0.064-9.898,0.013c-0.242,0.006-0.481,0.715-0.721,1.096c0.249,0.334,0.496,0.943,0.749,0.957
			C77.116,53.114,78.747,53.072,80.379,53.067z M80.472,73.43c-1.666,0-3.331-0.042-4.996,0.046
			c-0.246,0.013-0.487,0.637-0.73,0.978c0.225,0.316,0.448,0.903,0.674,0.907c3.331,0.06,6.662,0.061,9.992,0.004
			c0.227-0.004,0.452-0.578,0.678-0.887c-0.244-0.347-0.486-0.979-0.733-0.993C83.729,73.393,82.1,73.437,80.472,73.43z
			 M80.415,45.254c0,0.014,0,0.027,0,0.041c1.591,0,3.182,0.047,4.772-0.041c0.304-0.017,0.603-0.568,0.905-0.873
			c-0.285-0.336-0.568-0.958-0.854-0.965c-3.219-0.07-6.438-0.071-9.657-0.001c-0.282,0.006-0.561,0.64-0.842,0.983
			c0.301,0.285,0.6,0.802,0.903,0.818C77.233,45.298,78.824,45.254,80.415,45.254z M161.028,136.706c0-0.009,0-0.019,0-0.028
			c1.743,0,3.486,0.046,5.228-0.045c0.29-0.015,0.575-0.631,0.862-0.969c-0.279-0.36-0.556-1.026-0.836-1.032
			c-3.522-0.077-7.045-0.084-10.568-0.014c-0.269,0.005-0.535,0.724-0.803,1.111c0.259,0.326,0.516,0.922,0.777,0.934
			C157.468,136.746,159.248,136.706,161.028,136.706z M240.812,114.583c-0.069-0.349-0.137-0.699-0.206-1.048
			c-4.105,0-8.21-0.012-12.314,0.043c-0.171,0.002-0.341,0.628-0.511,0.963c0.213,0.331,0.425,0.948,0.639,0.951
			c3.852,0.059,7.705,0.064,11.557,0.004C240.256,115.491,240.534,114.9,240.812,114.583z M227.739,53.615
			c0.027,0.261,0.055,0.522,0.082,0.782c0.135,0.104,0.27,0.298,0.405,0.299c3.968,0.036,7.936,0.065,11.903,0.039
			c0.201-0.001,0.401-0.496,0.602-0.761c-0.253-0.339-0.505-0.968-0.76-0.973c-3.819-0.063-7.639-0.057-11.459-0.017
			C228.254,52.988,227.997,53.396,227.739,53.615z M234.168,63.587c0-0.003,0-0.006,0-0.008c1.887,0,3.774,0.041,5.66-0.042
			c0.295-0.013,0.586-0.59,0.878-0.906c-0.302-0.295-0.602-0.843-0.905-0.847c-3.736-0.057-7.473-0.052-11.21,0.001
			c-0.268,0.004-0.534,0.508-0.801,0.779c0.276,0.341,0.549,0.965,0.828,0.978C230.468,63.63,232.319,63.587,234.168,63.587z
			 M240.7,132.732c0.025-0.332,0.05-0.663,0.075-0.995c-0.337-0.216-0.674-0.616-1.012-0.62c-3.67-0.045-7.34-0.054-11.01,0.017
			c-0.319,0.006-0.635,0.652-0.953,1c0.313,0.258,0.626,0.735,0.94,0.74c3.633,0.053,7.266,0.04,10.899,0.028
			C239.992,132.9,240.346,132.791,240.7,132.732z M161.048,63.159c0-0.003,0-0.006,0-0.009c1.776,0,3.552,0.03,5.327-0.036
			c0.239-0.009,0.475-0.5,0.713-0.768c-0.24-0.353-0.479-1.01-0.719-1.014c-3.551-0.065-7.103-0.063-10.654-0.002
			c-0.261,0.004-0.52,0.583-0.779,0.895c0.262,0.311,0.522,0.88,0.786,0.892C157.496,63.198,159.272,63.159,161.048,63.159z
			 M161.014,101.897c-1.704,0-3.408-0.054-5.11,0.047c-0.325,0.019-0.644,0.65-0.966,0.998c0.307,0.286,0.614,0.815,0.922,0.821
			c3.444,0.063,6.889,0.068,10.333,0.009c0.303-0.005,0.604-0.574,0.906-0.882c-0.288-0.332-0.573-0.937-0.863-0.952
			C164.496,101.849,162.755,101.894,161.014,101.897z M86.076,60.263c0.025-0.28,0.05-0.56,0.075-0.841
			c-0.313-0.241-0.625-0.687-0.938-0.692c-3.187-0.049-6.374-0.052-9.56,0.019c-0.294,0.007-0.587,0.613-0.88,0.941
			c0.307,0.276,0.613,0.787,0.92,0.792c3.15,0.05,6.299,0.024,9.449-0.002C85.453,60.478,85.765,60.339,86.076,60.263z
			 M80.386,67.858c1.628,0,3.257,0.04,4.884-0.039c0.272-0.013,0.54-0.541,0.81-0.831c-0.252-0.328-0.503-0.936-0.756-0.941
			c-3.256-0.066-6.513-0.065-9.769-0.009c-0.268,0.005-0.535,0.538-0.802,0.825c0.287,0.33,0.57,0.929,0.86,0.946
			C77.203,67.904,78.795,67.855,80.386,67.858z M80.356,113.247c1.664,0,3.329,0.042,4.993-0.045
			c0.247-0.013,0.487-0.634,0.731-0.973c-0.238-0.268-0.476-0.765-0.715-0.769c-3.292-0.052-6.584-0.057-9.876,0.008
			c-0.243,0.005-0.485,0.635-0.727,0.975c0.237,0.268,0.472,0.758,0.711,0.768C77.101,113.279,78.729,113.246,80.356,113.247z
			 M86.263,82.717c-0.973-1.642-10.76-1.611-11.649,0C78.546,82.717,82.297,82.717,86.263,82.717z M86.035,141.926
			c-3.744,0-7.488,0-11.39,0C75.424,143.345,85.054,143.549,86.035,141.926z M148.079,139.083c0.104-0.287,0.208-0.573,0.313-0.86
			c-0.155-1.585-0.105-3.932-0.518-4.557c-0.499-0.755-1.485-0.495-2.069,0.214c-0.281,0.341-0.336,3.745-0.127,3.988
			C146.39,138.698,147.266,138.74,148.079,139.083z M148.58,138.497c0.127,0.226,0.253,0.452,0.38,0.678
			c0.779-0.4,1.639-0.471,2.292-1.379c0.226-0.314,0.128-3.642-0.152-3.961c-0.6-0.683-1.631-0.976-2.078-0.164
			C148.602,134.433,148.706,136.824,148.58,138.497z M148.465,91.629c-0.23-2.606-0.155-4.982-0.594-5.805
			c-0.43-0.804-1.526-0.546-2.057,0.26c-0.317,0.481-0.356,3.9-0.092,4.269C146.371,91.26,147.268,91.166,148.465,91.629z
			 M151.217,85.807c-2.712-0.625-2.789-1.032-2.402,5.166C151.32,91.911,151.528,91.483,151.217,85.807z M148.436,121.174
			c0.258,2.465,0.225,4.818,0.636,5.395c0.513,0.722,1.489,0.421,2.068-0.312c0.275-0.348,0.29-3.776,0.084-3.993
			C150.511,121.513,149.65,121.56,148.436,121.174z M148.481,121.203c-1.207,0.376-2.063,0.323-2.772,1.065
			c-0.205,0.215-0.192,3.629,0.081,3.976c0.579,0.734,1.552,1.047,2.064,0.328C148.263,125.997,148.228,123.642,148.481,121.203z
			 M148.439,151.183c-0.224-2.434-0.165-4.794-0.563-5.37c-0.51-0.737-1.453-0.398-2.076,0.227c-0.238,0.239-0.297,3.541-0.11,3.744
			C146.415,150.569,147.271,150.669,148.439,151.183z M148.713,151.097c0.959-0.392,1.811-0.432,2.516-1.219
			c0.206-0.23,0.149-3.6-0.06-3.784c-0.739-0.65-1.595-0.543-2.455-0.733C148.713,147.413,148.713,148.88,148.713,151.097z
			 M150.347,109.918c-0.942,0.163-1.704-0.55-1.721,2.284c-0.016,2.551,0.532,2.649,1.302,2.524
			c0.652-0.106,1.418,0.583,1.429-2.227C151.367,110.008,150.851,109.744,150.347,109.918z M149.984,102.77
			c0.701,0.094,1.394,0.403,1.377-2.44c-0.015-2.437-0.468-2.666-1.276-2.576c-0.774,0.086-1.487-0.348-1.464,2.651
			C148.64,103.063,149.22,102.898,149.984,102.77z M146.978,102.777c0.741,0.204,1.325,0.174,1.323-2.555
			c-0.002-2.941-0.75-2.327-1.458-2.459c-0.832-0.155-1.268,0.244-1.276,2.627C145.559,103.026,146.178,102.932,146.978,102.777z
			 M145.443,109.59c0.204,2.255,0.182,4.494,0.478,4.765c0.626,0.573,1.452,0.379,2.123-0.089c0.184-0.128,0.263-3.317,0.13-3.433
			C147.437,110.186,146.619,110.051,145.443,109.59z M144.894,133.571c-2.297-0.657-2.502-0.106-2.002,5.015
			c0.663,0,1.326,0,2.002,0C144.894,136.78,144.894,135.239,144.894,133.571z M142.808,91.065c0.683,0,1.354,0,2.039,0
			c0-1.895,0-3.644,0-5.407c-0.722,0-1.337,0-2.039,0C142.808,87.396,142.808,89.014,142.808,91.065z M244.924,105.24
			c-0.344,4.018-0.295,4.173,1.179,4.174c0.222,0,0.447-0.043,0.667,0.006c0.663,0.148,0.918-0.506,0.925-2.116
			c0.007-1.68-0.305-2.151-0.942-2.08C246.134,105.294,245.513,105.24,244.924,105.24z M142.648,121.623
			c0.115,1.872,0.03,3.758,0.377,4.901c0.204,0.669,1.443,0.678,1.609,0.061c0.341-1.265,0.272-3.151,0.384-4.963
			C144.171,121.623,143.555,121.623,142.648,121.623z M142.702,150.585c0.84,0,1.478,0,2.316,0c-0.102-1.79,0.009-3.741-0.349-4.764
			c-0.243-0.693-1.449-0.637-1.682,0.079C142.641,146.961,142.776,148.905,142.702,150.585z M247.908,109.737
			c1.12-0.429,1.953-0.655,2.749-1.189c0.085-0.057,0.024-2.75-0.083-2.799c-0.739-0.334-1.53-0.547-2.253-0.2
			C248.119,105.646,248.089,107.759,247.908,109.737z M246.115,117.156c0.004-0.05,0.008-0.099,0.012-0.149c0.183,0,0.367,0,0.55,0
			c0.529-0.001,1.027,0.077,1.015-1.823c-0.011-1.707-0.367-2.057-0.97-1.979c-0.439,0.057-0.884-0.072-1.317,0.053
			c-0.215,0.062-0.553,0.438-0.584,0.797c-0.071,0.804-0.119,2.116,0.066,2.44C245.197,117.037,245.696,116.968,246.115,117.156z
			 M244.862,137.943c-0.186,3.802-0.186,3.803,1.228,3.8c0.258,0,0.518-0.066,0.773-0.006c0.638,0.151,0.95-0.634,0.788-1.977
			c-0.087-0.721-0.471-1.61-0.772-1.737C246.244,137.757,245.576,137.943,244.862,137.943z M246.2,149.597c0,0.007,0,0.014,0,0.02
			c0.184,0,0.368-0.018,0.552,0.003c0.529,0.063,0.934-0.084,0.942-1.752c0.008-1.742-0.385-2.027-0.98-1.953
			c-0.477,0.059-0.98-0.174-1.425,0.12c-0.229,0.151-0.493,1.174-0.49,1.797c0.003,0.593,0.285,1.388,0.532,1.703
			C245.559,149.826,245.905,149.597,246.2,149.597z M244.815,81.045c0,1.371,0,2.301,0,3.576c0.782,0,1.517,0.134,2.233-0.077
			c0.234-0.069,0.614-1.109,0.584-1.579c-0.045-0.699-0.366-1.735-0.623-1.833C246.332,80.874,245.626,81.045,244.815,81.045z
			 M142.673,97.911c0.084,1.776-0.056,3.921,0.267,4.439c0.474,0.76,1.278,0.357,2.027,0.461c-0.036-1.946-0.063-3.375-0.091-4.9
			C144.14,97.911,143.528,97.911,142.673,97.911z M144.85,114.402c0-1.487,0-2.835,0-4.302c-0.707,0-1.321,0-1.92,0
			C142.399,114.499,142.733,115.256,144.85,114.402z M247.611,130.158c-0.992,0-1.86,0-2.763,0c0,1.172,0,2.153,0,3.209
			c0.96,0,1.832,0,2.763,0C247.611,132.26,247.611,131.331,247.611,130.158z M252.493,109.418c0.696-0.03,1.371,0.413,1.377-2.049
			c0.004-2.144-0.495-2.208-1.143-2.131c-0.603,0.072-1.28-0.445-1.28,2.054C251.447,109.438,251.923,109.556,252.493,109.418z
			 M250.816,116.842c-0.128-1.383-0.15-3.208-0.332-3.302c-0.697-0.361-1.467-0.403-2.16-0.031
			c-0.198,0.106-0.223,2.015-0.351,3.333C248.975,116.842,249.766,116.842,250.816,116.842z M247.943,84.623
			c0.875,0,1.53,0.071,2.18-0.042c0.202-0.035,0.519-0.502,0.555-0.89c0.065-0.709-0.004-2.143-0.081-2.168
			c-0.75-0.246-1.524-0.441-2.265-0.204C248.167,81.371,248.102,83.182,247.943,84.623z M247.985,149.096
			c0.092,0.273,0.184,0.546,0.276,0.819c0.808-0.366,1.622-0.681,2.412-1.203c0.058-0.039-0.013-2.262-0.1-2.293
			c-0.741-0.27-1.511-0.455-2.244-0.208C248.16,146.267,248.096,148.087,247.985,149.096z M248.247,137.666
			c-0.102,0.291-0.204,0.583-0.307,0.874c0.148,1.04,0.228,2.862,0.457,2.973c0.691,0.338,1.448,0.126,2.156-0.176
			c0.108-0.046,0.181-2.479,0.12-2.519C249.88,138.298,249.06,138.011,248.247,137.666z M248.111,133.324c0.887,0,1.709,0,2.518,0
			c0.188-3.61-0.414-4.256-2.518-2.896C248.111,131.345,248.111,132.279,248.111,133.324z M244.808,92.693
			c0.852,0,1.588,0.134,2.306-0.082c0.216-0.065,0.527-1.102,0.527-1.693c0-0.595-0.311-1.64-0.526-1.7
			c-0.745-0.212-1.508-0.082-2.307-0.082C244.808,90.466,244.808,91.389,244.808,92.693z M244.79,100.394c1.009,0,1.904,0,2.786,0
			c0.171-3.51-0.698-4.321-2.786-2.791C244.79,98.438,244.79,99.299,244.79,100.394z M244.894,121.616
			c-0.309,2.433-0.06,3.451,0.882,3.244c0.438-0.097,0.898,0.124,1.316-0.114c0.229-0.131,0.568-0.973,0.544-1.395
			c-0.035-0.625-0.326-1.59-0.548-1.656C246.372,121.483,245.638,121.616,244.894,121.616z M253.91,117.564
			c-0.137-1.927-0.118-3.859-0.313-3.991c-0.599-0.405-1.292-0.258-1.921,0.022c-0.12,0.054-0.232,2.416-0.147,2.495
			C252.161,116.679,252.844,116.961,253.91,117.564z M89.899,116.583c-0.092,0.265-0.185,0.531-0.277,0.796
			c0.139,0.974,0.216,2.683,0.429,2.784c0.613,0.29,1.289,0.035,1.916-0.283c0.093-0.047,0.136-2.271,0.062-2.321
			C91.337,117.089,90.613,116.873,89.899,116.583z M252.562,149.6c0.677,0.01,1.32,0.4,1.29-1.902
			c-0.027-2.102-0.621-1.82-1.155-1.749c-0.523,0.07-1.229-0.63-1.238,1.782C251.45,150.082,252.112,149.544,252.562,149.6z
			 M90.893,87.028c-0.446,0.149-1.205-0.665-1.195,1.913c0.008,2.084,0.562,1.946,1.114,1.883c0.566-0.064,1.314,0.615,1.301-1.937
			C92.103,86.819,91.566,86.98,90.893,87.028z M89.556,94.726c0.203,1.41,0.264,3.059,0.499,3.213
			c0.569,0.372,1.252,0.295,1.818-0.133c0.189-0.143,0.161-1.902,0.243-3.08C91.23,94.726,90.549,94.726,89.556,94.726z
			 M92.19,64.891c-0.106-0.278-0.212-0.557-0.318-0.835c-0.708,0.36-1.427,0.648-2.108,1.196c-0.067,0.054,0.02,2.408,0.161,2.491
			c0.588,0.346,1.267,0.558,1.822,0.142C92.002,67.693,92.048,65.937,92.19,64.891z M251.611,138.036
			c-0.285,3.953,0.096,4.496,2.127,3.301c0-1.06,0-2.134,0-3.301C252.979,138.036,252.323,138.036,251.611,138.036z M92.562,90.666
			c0.806,0,1.517,0,2.263,0c0-1.284,0-2.417,0-3.433c-0.817,0-1.525,0-2.263,0C92.562,88.407,92.562,89.34,92.562,90.666z
			 M92.572,97.963c0.812,0,1.551,0,2.373,0c-0.025-1.243-0.045-2.233-0.064-3.176c-0.841,0-1.554,0-2.309,0
			C92.572,95.864,92.572,96.718,92.572,97.963z M95.39,87.138c-0.235,3.894,0.065,4.342,2.085,3.31c0-1.039,0-2.105,0-3.294
			c-0.4-0.067-0.725-0.163-1.05-0.165C96.1,86.987,95.775,87.079,95.39,87.138z M253.769,130.244
			c-2.246-0.744-2.401-0.524-2.183,3.104c0.701,0,1.413,0,2.183,0C253.769,132.251,253.769,131.33,253.769,130.244z M91.851,135.438
			c0.108-0.298,0.215-0.596,0.323-0.894c-0.154-0.938-0.244-2.553-0.476-2.679c-0.577-0.313-1.228-0.051-1.826,0.247
			c-0.103,0.051-0.174,2.038-0.116,2.083C90.438,134.725,91.148,135.055,91.851,135.438z M252.857,85.184
			c0.327-0.731,0.86-1.354,0.94-2.215c0.209-2.227-0.567-1.983-1.142-1.928c-0.501,0.048-1.162-0.529-1.199,1.673
			C251.418,85.038,252.079,84.619,252.857,85.184z M89.619,127.181c0.075,0.248,0.15,0.495,0.225,0.743
			c0.726-0.238,1.458-0.427,2.169-0.821c0.051-0.028,0.017-2.231-0.084-2.285c-0.594-0.313-1.244-0.555-1.822-0.248
			C89.874,124.694,89.777,126.268,89.619,127.181z M248.079,92.711c0.731,0,1.364,0.176,1.965-0.081
			c0.265-0.113,0.643-1.109,0.641-1.7c-0.001-0.597-0.38-1.596-0.644-1.702c-0.628-0.252-1.286-0.081-1.963-0.081
			C248.079,90.512,248.079,91.38,248.079,92.711z M248.08,100.384c0.873,0,1.719,0,2.651,0c-0.024-1.152-0.042-2.074-0.062-3.055
			c-0.916,0-1.734,0-2.588,0C248.08,98.426,248.08,99.289,248.08,100.384z M94.852,64.551c-0.801,0-1.511,0-2.207,0
			c-0.238,3.824,0.065,4.257,2.207,3.239C94.852,66.821,94.852,65.819,94.852,64.551z M92.597,134.972c0.782,0,1.499,0,2.25,0
			c0-1.115,0-2.105,0-3.116c-0.796,0-1.508,0-2.25,0C92.597,132.98,92.597,133.899,92.597,134.972z M92.465,127.613
			c0.912,0,1.623,0,2.52,0c-0.106-1.155-0.125-2.821-0.289-2.906c-0.619-0.322-1.303-0.32-1.924-0.002
			C92.606,124.79,92.581,126.426,92.465,127.613z M248.204,121.604c-0.376,2.52-0.063,3.461,0.905,3.24
			c0.327-0.075,0.694,0.191,0.978-0.081c0.26-0.249,0.594-1.01,0.597-1.553c0.003-0.53-0.349-1.445-0.588-1.533
			C249.493,121.456,248.866,121.604,248.204,121.604z M92.622,116.947c0,1.196,0,2.184,0,3.126c2.158,0.975,2.459,0.537,2.144-3.126
			C94.096,116.947,93.411,116.947,92.622,116.947z M97.488,64.087c-0.817,0.351-1.509,0.543-2.159,1.043
			c-0.097,0.075-0.076,2.278,0.028,2.349c0.66,0.448,1.359,0.573,2.13,0.833C97.488,66.78,97.488,65.778,97.488,64.087z
			 M97.498,116.571c-0.816,0.268-1.494,0.389-2.137,0.817c-0.092,0.061-0.09,2.289,0.006,2.352c0.665,0.441,1.366,0.576,2.131,0.835
			C97.498,119.069,97.498,118.133,97.498,116.571z M97.437,127.42c0.224-3.261-0.163-3.77-2.043-2.687
			C95.153,127.944,95.542,128.455,97.437,127.42z M97.697,98.431c-0.195-1.724-0.228-3.458-0.437-3.587
			c-0.569-0.352-1.225-0.163-1.814,0.155c-0.11,0.059-0.155,2.466-0.082,2.514C96.03,97.947,96.729,98.1,97.697,98.431z
			 M97.482,135.131c0-1.313,0-2.227,0-3.106c-2.036-1.001-2.352-0.558-2.065,2.901c0.234,0.065,0.484,0.175,0.735,0.196
			C96.552,135.156,96.953,135.131,97.482,135.131z M253.695,92.605c0.259-3.687-0.183-4.247-2.12-3.032c0,0.984,0,1.967,0,3.032
			C252.334,92.605,252.993,92.605,253.695,92.605z M90.963,151.309c0.497-1.156,1.04-1.819,1.085-2.637
			c0.132-2.368-0.721-1.569-1.234-1.665c-0.542-0.101-1.27-0.251-1.053,1.8C89.849,149.643,90.406,150.201,90.963,151.309z
			 M253.746,100.455c0-1.047,0-2.034,0-2.997c-2.062-1.041-2.396-0.582-2.119,2.997
			C252.259,100.455,252.907,100.455,253.746,100.455z M92.066,112.491c-0.045-1.028-0.013-2.761-0.143-2.833
			c-0.682-0.377-1.405-0.332-2.098-0.432C89.661,112.884,89.661,112.884,92.066,112.491z M252.675,125.794
			c0.514-1.169,1.064-1.821,1.111-2.639c0.128-2.189-0.677-1.516-1.156-1.529c-0.484-0.013-1.288-0.595-1.114,1.603
			C251.58,124.051,252.136,124.654,252.675,125.794z M90.993,71.531c-0.546,1.003-1.145,1.541-1.226,2.367
			c-0.192,1.941,0.549,1.653,1.022,1.581c0.509-0.077,1.355,0.741,1.262-1.607C92.022,73.146,91.468,72.537,90.993,71.531z
			 M90.822,83.892c0.546-0.985,1.159-1.524,1.232-2.334c0.169-1.899-0.565-1.646-1.038-1.546c-0.493,0.104-1.352-0.827-1.252,1.56
			C89.795,82.3,90.35,82.902,90.822,83.892z M93.773,83.987c0.503-1.134,1.056-1.784,1.104-2.602
			c0.12-2.059-0.658-1.376-1.095-1.378c-0.481-0.002-1.286-0.659-1.199,1.469C92.614,82.242,93.222,82.876,93.773,83.987z
			 M94.983,72.635c-0.965,0-1.673,0-2.605,0c0.201,1.18,0.284,2.554,0.48,2.652c0.592,0.295,1.242,0.265,1.836-0.028
			C94.848,75.183,94.877,73.679,94.983,72.635z M92.378,150.192c1.005,0,1.713,0,2.623,0c-0.118-1.178-0.134-2.794-0.319-2.911
			c-0.578-0.366-1.244-0.399-1.824-0.064C92.646,147.34,92.578,148.863,92.378,150.192z M97.452,112.41c0-1.105,0-2.086,0-3.153
			c-0.614,0-1.129-0.017-1.643,0.011c-0.139,0.007-0.276,0.15-0.398,0.221C95.157,112.868,95.299,113.075,97.452,112.41z
			 M94.699,112.937c0.092-0.262,0.183-0.525,0.275-0.787c-0.095-0.924-0.149-2.598-0.293-2.644c-0.663-0.208-1.356-0.03-2.025,0.22
			c-0.072,0.027-0.132,2.034-0.064,2.084C93.278,112.31,93.992,112.593,94.699,112.937z M97.63,80.507
			c-0.078-0.237-0.155-0.473-0.233-0.71c-0.686,0.25-1.378,0.452-2.051,0.836c-0.057,0.033-0.039,1.836,0.022,1.864
			c0.595,0.272,1.219,0.553,1.805,0.35C97.369,82.778,97.48,81.326,97.63,80.507z M97.415,150.326
			c0.33-2.621,0.032-3.646-0.96-3.354c-0.547,0.161-1.413-0.358-1.155,1.914C95.641,151.897,96.69,149.677,97.415,150.326z
			 M92.585,105.306c0.85,0,1.561,0,2.274,0c0-1.039,0-1.876,0-2.823c-0.777,0-1.494,0-2.274,0
			C92.585,103.467,92.585,104.301,92.585,105.306z M95.181,72.489c0.147,1.191,0.203,2.672,0.36,2.735
			c0.598,0.242,1.24,0.154,1.838-0.133c0.11-0.053,0.091-1.609,0.138-2.602C96.725,72.489,96.103,72.489,95.181,72.489z
			 M89.78,105.476c0.607,0,1.167,0.175,1.691-0.078c0.243-0.117,0.52-1.014,0.576-1.658c0.031-0.352-0.347-1.231-0.577-1.319
			c-0.531-0.201-1.085-0.064-1.69-0.064C89.78,103.489,89.78,104.313,89.78,105.476z M90.948,143.292
			c0.499-0.941,1.065-1.473,1.116-2.205c0.15-2.17-0.639-1.627-1.125-1.583c-0.467,0.042-1.289-0.755-1.165,1.462
			C89.816,141.73,90.43,142.314,90.948,143.292z M95.252,102.449c0.05,1.203,0.087,2.074,0.121,2.884c0.803,0,1.448,0,2.096,0
			c0-1.068,0-1.961,0-2.884C96.736,102.449,96.086,102.449,95.252,102.449z M92.593,142.236c0.851,0,1.567,0,2.343,0
			c-0.034-1.012-0.059-1.771-0.086-2.579c-0.784,0-1.499,0-2.257,0C92.593,140.601,92.593,141.345,92.593,142.236z M97.496,139.269
			c-0.773,0.26-1.474,0.459-2.161,0.814c-0.042,0.022-0.019,1.829,0.052,1.862c0.684,0.319,1.384,0.436,2.108,0.618
			C97.496,141.282,97.496,140.524,97.496,139.269z"/>
		<g clip-path="url(#SVGID_8_)">
			<rect x="162.289" y="141.691" fill="#A39197" width="5" height="17"/>
			<polygon opacity="0.3" fill="#7E6B71" points="77.373,153.378 67.289,160.931 67.289,177.542 79.806,183.678 96.358,190.081 
				118.943,183.018 118.506,171.484 109.008,160.931 106.062,155.911 84.941,147.839 			"/>
			<polygon opacity="0.3" fill="#7E6B71" points="85.407,126.882 104.992,128.835 104.941,140.852 94.847,145.78 86.305,139.756 
				84.889,126.066 			"/>
			<polygon opacity="0.1" fill="#0A3542" points="327.707,115.342 328.836,109.691 331.483,109.691 332.648,109.691 
				332.897,105.691 334.289,105.691 334.289,107.447 336.089,108.2 336.872,105.691 339.636,105.691 339.62,110.043 
				341.627,109.003 344.289,108.105 344.289,105.691 343.713,105.691 346.004,101.665 351.289,103.424 351.289,121.685 
				335.077,123.999 			"/>
			<line fill="none" stroke="#7895A4" stroke-miterlimit="10" x1="332.648" y1="108.542" x2="336.791" y2="114.053"/>
			<line fill="none" stroke="#7895A4" stroke-miterlimit="10" x1="339.621" y1="110.056" x2="347.809" y2="119.628"/>
			<line fill="none" stroke="#7895A4" stroke-miterlimit="10" x1="341.349" y1="108.542" x2="348.648" y2="119.207"/>
			<line fill="none" stroke="#7895A4" stroke-miterlimit="10" x1="341.966" y1="105.804" x2="349.319" y2="118.947"/>
			<line fill="none" stroke="#7895A4" stroke-miterlimit="10" x1="344.303" y1="104.101" x2="349.935" y2="117.304"/>
			<path fill="#0A3542" d="M265.289,126.614l6.696-3.286c0,0,22.871,2.42,25.194,4.861l-31.891,2.075V126.614z"/>
			<polygon fill="#7E6B71" points="269.169,141.691 267.422,183.913 294.876,195.76 293.212,149.213 294.876,141.691 			"/>
			<polygon fill="#7895A4" points="268.289,183.494 292.772,189.59 290.861,195.55 268.289,188.693 			"/>
			<polygon opacity="0.7" fill="#507282" points="267.422,146.691 273.289,146.691 273.289,189.59 265.114,188.798 			"/>
			<polygon opacity="0.1" fill="#0A3542" points="305.451,127.796 351.289,118.136 351.289,207.113 305.62,200.724 			"/>
			<polygon opacity="0.2" fill="#507282" points="310.842,174.468 309.289,157.564 309.289,155.09 311.289,148.915 311.289,145.78 
				311.289,141.793 311.289,141.691 321.583,141.691 330.48,139.691 334.395,139.691 335.289,139.691 335.289,149.614 
				335.289,157.145 335.289,162.756 335.289,177.405 335.289,204.375 310.664,201.706 			"/>
			<path fill="#507282" d="M321.012,200.724c0,0,8.923-11.618,2.027-27.389c0,0-3.293-0.308,2.615-10.71l1.267-5.061l1.936,1.272
				l-3.923,13.23c0,0,6.357,5.339,6.087,8.9c0,0-1.623,15.859-2.705,19.758S321.012,200.724,321.012,200.724z"/>
			<path fill="#507282" d="M304.51,199.027c0,0,6.915-6.127,6.679-16.789c0,0,6.305-14.244,6.305-23.656
				c0,0,3.246,7.886-4.599,23.402c0,0-0.925,16.877-5.873,18.741C302.076,202.588,304.51,199.027,304.51,199.027z"/>
			<path fill="#507282" d="M328.318,162.625c0,0,4.981-1.156,7.155-0.892c0,0,7.787,1.059,10.102,0.892c0,0,1.684,0.889-1.193,0.889
				c0,0-8.629-1.316-10.242-0.889c0,0-6.103,0.559-6.173,0.889C327.967,163.514,327.125,163.847,328.318,162.625z"/>
			<path fill="#507282" d="M327.193,164.447c0,0,3.422-1.384,5.614-1.395c0,0,5.752,0.472,7.857,0.698c0,0,4.63,0.774,6.594,0.698
				c0,0,2.666,0.254,0,0.913l-3.999-0.396c0,0,1.193,0.858,2.175,0.858c0,0,0.702,0.594-0.912,0.594l-2.245-1.682l-9.05-1.179
				l-6.457,2.314L327.193,164.447z"/>
			<path fill="#507282" d="M327.796,166.501c0,0,1.913-1.23,3.948-1.296l8.81,0.605l6.369,0.352l1.115,0.863l-0.569,0.665h-2.009
				l-5.988-0.998l1.052,0.72l-2.917-0.722h-1.466l-3.966-0.224l-4.911,1.294L327.796,166.501z"/>
			<path fill="#507282" d="M327.796,169.239c0,0,1.913-1.23,3.948-1.296l8.81,0.605l6.369,0.352l1.115-0.506l-0.569-0.704h-2.009
				l-5.988,0.371l1.052,0.536l-2.917-0.907h-1.466l-3.966,0.645l-4.911,1.729L327.796,169.239z"/>
			<path fill="#507282" d="M327.796,171.977c0,0,1.913-1.23,3.948-1.296l8.81,0.605l6.369,0.352l1.115,0.125l-0.569-0.073h-2.009
				l-5.988-0.26l1.052,0.851l-2.917-0.591h-1.466l-3.966,0.014l-4.911,1.413L327.796,171.977z"/>
			<path fill="#7895A4" d="M335.077,140.852c0,0,12.212-6.024,16.212-2.373v61.516l-14.997-1.095L335.077,140.852z"/>
			<path fill="#7895A4" d="M316.924,200.724l1.237-14.238c0,0,5.268-11.596,4.878-14.54c0,0,1.574,6.024-3.047,14.389l-1.831,14.929
				L316.924,200.724z"/>
			<path fill="#7895A4" d="M313.235,197.691l1.747-13.451c0,0,5.847-10.225,6.03-13.952c0,0,2.4,2.722-4.088,13.702l-1.553,13.702
				H313.235z"/>
			<path fill="#7895A4" d="M317.312,200.691l1.747-13.582c0,0,5.847-10.291,6.03-14.017c0,0,2.4,2.82-4.088,13.8l-1.553,13.8
				H317.312z"/>
			<path fill="#7895A4" d="M303.63,190.305l12.022-8.957c0,0,12.158-3.639,15.093-6.15c0,0-0.85,3.985-13.699,7.42l-11.908,9.108
				L303.63,190.305z"/>
			<path fill="#7895A4" d="M285.864,112.717l12.036-6.912l15.336,1.095c0,0,1.359,1.278,0,1.643l-15.142-1.095l-11.453,6.428
				L285.864,112.717z"/>
			<polygon fill="#507282" points="287.999,112.356 293.047,119.207 301.444,117.527 302.559,117.304 298.716,105.863 
				297.637,106.516 			"/>
			<polygon fill="#0A3542" points="316.341,114.053 311.928,106.806 297.637,106.516 300.256,116.576 			"/>
			<polygon fill="#7895A4" points="297.637,128.173 292.464,116.576 301.006,114.842 306.662,123.712 307.671,127.131 			"/>
			<polygon fill="#507282" points="300.068,115.854 315.528,112.717 322.359,122.202 304.306,126.035 			"/>
			<polygon fill="#7895A4" points="300.256,122.748 307.671,127.131 314.21,125.726 305.577,121.138 303.912,123.328 			"/>
			<polygon fill="#0A3542" points="306.662,121.653 314.078,126.035 320.616,124.63 311.983,120.042 310.318,122.233 			"/>
			<polygon fill="#7895A4" points="313.068,120.557 320.484,124.94 327.023,123.535 318.389,118.947 316.724,121.138 			"/>
			<polygon fill="#7895A4" points="325.378,116.691 333.878,121.895 340.417,120.644 331.03,114.41 330.395,116.691 			"/>
			<polygon fill="#0A3542" points="318.389,118.947 326.2,123.712 334.011,121.892 325.378,117.304 323.712,119.495 			"/>
			<polygon fill="#0A3542" points="331.201,115.114 340.417,120.797 348.038,120.042 337.608,112.356 336.142,114.793 			"/>
			<polygon opacity="0.3" fill="#7E6B71" points="352.783,207.223 201.395,169.706 201.008,172.066 194.032,169.208 
				191.514,168.201 188.994,167.735 183.171,168.201 180.649,166.416 179.051,164.734 176.289,163.555 176.289,163.197 
				158.377,157.828 151.169,152.899 152.806,155.911 152.796,157.141 81.87,185.087 59.627,179.144 47.876,199.447 			"/>
			<polygon opacity="0.3" fill="#7E6B71" points="204.287,123.039 176.289,130.264 176.289,163.197 176.289,163.555 
				179.051,164.734 180.869,166.416 183.281,168.201 189.049,167.735 191.542,168.201 194.045,169.208 201.015,172.066 
				201.398,169.706 205.601,145.415 			"/>
			<path fill="#A39197" d="M200.613,141.691l-2.324,23.043v2.403l-0.667,10.952l3.549,1.095c0,0,5.434-8.328,9.118-3.418
				c3.684,4.91,2.002-34.075,2.002-34.075H200.613z"/>
			<polygon fill="#507282" points="231.289,120.59 231.289,127.161 245.667,128.173 257.03,123.039 243.868,114.842 			"/>
			<polygon fill="#7E6B71" points="219.289,122.78 219.289,126.066 231.289,129.169 231.289,118.399 			"/>
			<polyline fill="#A39197" points="205.289,141.691 205.289,123.876 232.092,125.691 235.974,125.691 220.833,137.378 
				215.009,144.317 204.616,142.73 			"/>
			<polygon fill="#7E6B71" points="211.289,140.852 211.289,130.447 221.201,126.796 224.139,130.264 258.513,121.138 
				263.289,151.035 263.289,189.042 245.232,183.494 233.871,187.404 217.931,185.449 211.289,175.672 211.289,142.495 			"/>
			<polygon fill="#507282" points="258.289,121.138 258.289,142.495 256.251,150.344 258.289,162.026 258.289,187.399 
				268.289,191.232 268.289,148.518 284.792,147.788 288.289,148.518 288.289,159.471 288.289,170.423 288.289,181.375 
				288.289,189.59 288.289,194.518 303.965,200.724 306.853,127.709 293.041,128.397 270.098,129.534 272.06,123.328 
				268.342,123.996 264.015,124.788 			"/>
			<path opacity="0.2" fill="#0A3542" d="M243.157,114.842l-10.39,7.043l0.466,5.533
				C233.233,127.418,239.72,116.704,243.157,114.842z"/>
			<polygon opacity="0.2" fill="#0A3542" points="242.146,115.257 254.337,122.128 254.961,121.962 243.157,114.842 			"/>
			<polygon fill="#A39197" points="214.815,124.94 232.883,122.652 243.157,114.842 219.959,119.376 			"/>
			<polygon opacity="0.2" fill="#0A3542" points="223.289,124.971 223.289,126.614 226.289,126.882 226.289,124.302 
				223.289,124.472 			"/>
			<polygon fill="#7E6B71" points="187.174,135.503 188.427,148.523 176.289,147.552 176.289,146.397 176.289,136.471 			"/>
			<polygon fill="#7E6B71" points="176.289,157.691 189.967,157.691 189.78,149.514 179.042,146.691 177.737,146.691 
				176.289,146.691 176.289,155.09 			"/>
			<path fill="#507282" d="M176.573,165.01"/>
			<polygon opacity="0.3" fill="#7E6B71" points="52.334,116.295 66.214,110.031 67.475,110.691 68.289,110.691 68.289,113.471 
				71.765,113.373 73.556,115.114 77.289,114.842 77.289,115.409 77.289,115.409 77.289,118.691 80.482,118.691 81.064,118.691 
				86.289,118.691 86.289,121.138 86.289,121.13 86.289,122.691 90.964,122.691 92.711,122.691 87.082,127.921 			"/>
			<path opacity="0.3" fill="none" stroke="#507282" stroke-miterlimit="10" d="M209.768,163.304c0,0,2.524,2.19,6.018,0
				c0,0,0.726-0.634,1.535-1.297c0.756-0.62,1.584-1.265,1.959-1.441l4.465-2.738l3.688-0.055"/>
			<path opacity="0.3" fill="none" stroke="#507282" stroke-miterlimit="10" d="M216.512,162.722c0,0,2.186,0.608,3.447,0.608
				c1.262,0,3.785-0.647,3.785-0.647l1.747,0.628l1.941,1.329l2.718-0.448h1.747l2.329,0.393"/>
			<path opacity="0.3" fill="none" stroke="#507282" stroke-miterlimit="10" d="M255.588,124.346c0,0-1.988,0.749-1.613,3.185
				c0,0,0.185,0.554,0.365,1.16c0.168,0.566,0.332,1.178,0.337,1.423l0.442,3.098l-0.956,1.967"/>
			<path opacity="0.3" fill="none" stroke="#507282" stroke-miterlimit="10" d="M254.129,128.072c0,0-0.95,0.994-1.288,1.662
				s-0.627,2.177-0.627,2.177l-0.844,0.757l-1.132,0.753l-0.277,1.641l-0.468,0.925l-1.043,1.046"/>
			<polygon fill="#7E6B71" points="116.006,119.891 134.351,123.039 135.807,124.94 134.642,138.114 119.015,135.503 			"/>
			<path fill="none" stroke="#7E6B71" stroke-miterlimit="10" d="M104.285,81.277c0,0,9.94,17.855,32.686,15.815"/>
			<path fill="none" stroke="#7E6B71" stroke-miterlimit="10" d="M138.136,97.884c-13.527,22.156-35.069,18.397-35.069,18.397
				s-0.841,12.508-14.095,11.892"/>
			<path fill="none" stroke="#507282" stroke-miterlimit="10" d="M52.528,76.124c0,0,5.859,17.804,19.995,25.716
				s34.748,22.462,34.748,22.462"/>
			<polygon fill="#A39197" points="102.921,121.475 102.078,137.691 110.289,137.691 110.289,121.138 106.742,118.766 			"/>
			<polygon fill="#A39197" points="109.7,123.006 115.957,118.992 127.386,123.776 126.768,136.982 118.918,139.691 109.6,139.691 
							"/>
			<g>
				<polygon fill="#A39197" points="95.623,137.691 101.447,137.691 104.941,137.691 110.765,137.691 112.091,135.691 
					113.677,135.691 116.589,135.691 118.918,135.691 120.435,134.839 122.182,132.402 123.152,134.691 126.489,134.691 
					131.73,134.691 137.554,134.691 140.466,134.691 140.289,134.625 140.289,137.691 144.289,137.691 144.289,143.042 
					144.289,144.685 144.289,148.518 144.289,150.161 147.289,151.256 147.289,155.09 147.289,161.113 147.289,162.756 
					145.289,168.842 145.289,172.066 134.796,181.691 118.918,181.691 118.892,178.521 118.883,177.24 				"/>
				<rect x="120.289" y="179.691" fill="#7E6B71" width="14" height="2"/>
				<rect x="122.289" y="171.691" fill="#A39197" width="13" height="5"/>
				<rect x="125.289" y="167.691" fill="#A39197" width="13" height="3"/>
				<rect x="129.289" y="157.691" fill="#7E6B71" width="9" height="3"/>
				<rect x="120.289" y="146.691" fill="#A39197" width="9" height="1"/>
				<rect x="122.289" y="148.691" fill="#A39197" width="10" height="5"/>
				<rect x="132.289" y="139.691" fill="#A39197" width="6" height="2"/>
				<rect x="135.493" y="146.691" fill="#A39197" width="7.619" height="0"/>
				<rect x="109.289" y="137.691" fill="#7E6B71" width="11" height="4"/>
				<rect x="107.289" y="141.691" fill="#A39197" width="9" height="5"/>
				<polygon fill="#7E6B71" points="124.839,167.494 127.654,164.691 141.048,164.691 138.136,167.493 				"/>
				<polygon fill="#7E6B71" points="121.927,172.958 124.742,170.691 138.136,170.691 135.807,172.951 				"/>
				<polygon fill="#7E6B71" points="119.015,178.97 121.83,176.691 135.807,176.691 134.642,178.957 				"/>
			</g>
			<path fill="#A39197" d="M88.052,153.447c0,0,4.659,6.936,10.677,7.667c0,0,3.494,4.746,6.212,12.96c0,0,2.918,5.111,9.712,5.111
				c0,0,5.636-1.46,5.636-7.119v-7.119c0,0,4.265-3.833,4.362-8.214c0,0-5.05-5.093-14.95-8.214l-23.887-13.015l-8.267-2.866
				c0,0-2.9,1.35,0.012,2.866C77.558,135.503,82.035,152.352,88.052,153.447z"/>
			<path fill="#A39197" d="M65.289,166.316l22.447,3.742c0,0,1.395,16.246,5.277,18.984l-27.724-7.94V166.316z"/>
			<path opacity="0.5" fill="#0A3542" d="M91.076,155.09c0,0,5.642,7.428,13.865,5.476c0,0-7.195,3.521-14.317-4.061
				S91.076,155.09,91.076,155.09z"/>
			<path fill="#7E6B71" d="M99.811,161.661c0,0,5.642,7.428,13.865,5.476c0,0-7.195,3.521-14.317-4.061
				S99.811,161.661,99.811,161.661z"/>
			<path fill="#7E6B71" d="M122.995,155.187c0,0,1.033,7.892-9.027,11.951c0,0,7.791-0.274,10.871-9.309L122.995,155.187z"/>
			<path fill="#7E6B71" d="M120.602,167.137c0,0-1.333,3.727-4.595,3.833c0,0,2.776,0.762,4.595-1.643c1.82-2.405,0-3.012,0-3.012"
				/>
			<path fill="#7E6B71" d="M120.602,170.423c0,0-1.333,3.727-4.595,3.833c0,0,2.776,0.762,4.595-1.643c1.82-2.405,0-3.012,0-3.012"
				/>
			<path fill="#A39197" d="M94.847,143.042c0,0-0.776,21.357-6.794,24.643l-22.13-4.016l-2.524-23.913L94.847,143.042z"/>
			<path fill="#7E6B71" d="M65.289,137.018c0,0,22.13,7.667,36.107,4.381c0,0,3.893,6.936-36.107-0.548V137.018z"/>
			<path fill="#7E6B71" d="M71.358,140.588c0,0,4.571,6.625,2.257,14.502"/>
			<path fill="#7E6B71" d="M91.076,143.042c0,0,3.876,8.585-2.104,16.155"/>
			<path fill="#7E6B71" d="M88.052,143.042c0,0,3.904,3.015,1.255,10.679"/>
			<path fill="#7E6B71" d="M84,169.373c0,0-2.601,8.377,2.447,12.584"/>
			<path fill="#7E6B71" d="M79.123,168.201c0,0-1.354,6.219,0.776,9.889"/>
			<polygon opacity="0.3" fill="#7E6B71" points="65.772,127.309 86.289,134.28 86.289,141.947 63.386,137.018 			"/>
			<polygon fill="#A39197" points="52.528,115.691 62.428,115.691 86.289,125.592 86.289,137.018 83.288,133.362 80.288,130.691 
				77.57,130.691 74.658,129.364 70.29,128.691 67.67,128.691 66.505,127.843 65.922,120.014 			"/>
			<path fill="#7E6B71" d="M48.289,113.562l19.008,4.792l-0.586,9.797l0.578,2.426v2.609l0.063,18.071l0.937,3.833v7.667
				l1.146,15.333c0,0,0.719,2.738,1.495,4.198l-0.854,1.46l-11.443,3.651l-0.052,5.294l-10.292,6.754V113.562z"/>
			<path fill="none" stroke="#7E6B71" stroke-miterlimit="10" d="M120.602,123.039c0,0,9.381-2.516,13.749-6.516
				c0,0,21.519,13.273,38.98,6.516c0,0,1.683,2.361,7.784,1.264"/>
			<path fill="none" stroke="#7895A4" stroke-miterlimit="10" d="M67.093,112.535c0,0,9.151,1.518,10.519-2.695
				c0,0,13.357,23.218,27.38,24.441"/>
			<line fill="none" stroke="#A39197" stroke-miterlimit="10" x1="133.789" y1="115.691" x2="133.789" y2="122.691"/>
			<line fill="none" stroke="#A39197" stroke-miterlimit="10" x1="173.789" y1="122.691" x2="173.789" y2="129.691"/>
			<line fill="none" stroke="#7895A4" stroke-miterlimit="10" x1="77.789" y1="110.691" x2="77.789" y2="115.691"/>
			<line fill="none" stroke="#7895A4" stroke-miterlimit="10" x1="104.789" y1="115.691" x2="104.789" y2="122.691"/>
			<path fill="#7E6B71" d="M197.424,183.264c0,0-1.815-14.035,10.571-9.063c0,0,5.157,6.637,5.157,9.883
				C213.153,184.084,211.024,186.967,197.424,183.264z"/>
			<path opacity="0.3" fill="#7E6B71" d="M204.946,187.277c0,0-2.694-20.834,15.693-13.454c0,0,7.656,9.853,7.656,14.671
				C228.294,188.494,225.134,192.774,204.946,187.277z"/>
			<path fill="#7E6B71" d="M225.908,188.152c0,0-0.801-6.199,4.669-4.003c0,0,2.278,2.931,2.278,4.365
				C232.855,188.514,231.914,189.787,225.908,188.152z"/>
			<path fill="#7E6B71" d="M77.57,135.503l47.023,22.995l0.247-1.766L77.57,132.637C77.57,132.637,75.731,134.604,77.57,135.503z"/>
			<path fill="#7E6B71" d="M152.696,161.693c0,0,5.09,10.241,15.142,11.452c0,0,15.75,8.292,8.736,13.187
				c-7.014,4.895-2.602,15.242,0,15.853c2.602,0.611,33.195,0.272,33.195,0.272s-18.028-6.143-19.988-18.779
				s-11.958-12.569-16.41-13.205c-4.452-0.636-14.148-2.36-20.674-11.892"/>
			<polygon fill="#A39197" points="195.289,115.114 195.289,126.614 216.278,126.066 216.823,115.8 208.123,110.628 			"/>
			<polygon fill="#7E6B71" points="195.616,125.592 182.289,129.899 182.289,118.947 195.982,115.8 			"/>
			<path fill="#A39197" d="M176.289,137.691h7.272h2.912h2.329l1.591-2h3.65h4.077h1.747c0,0,3.557,0.955,4.077-2.074
				s0.343-10.91,0.343-10.91l-27.999,7.557V137.691z"/>
			<polygon fill="#7E6B71" points="177.737,119.768 198.12,115.8 207.345,110.628 184.245,115.8 			"/>
			<path fill="#7E6B71" d="M135.946,135.439l1.095-37.587c0,0,0.007-1.193,0.219-2.022c0.248-0.968,0.93-1.439,1.638,1.066
				c0.08,0.284,0.391,0.623,0.391,0.988v37.491L135.946,135.439z"/>
			<rect x="153.289" y="137.691" fill="#A39197" width="10" height="20"/>
			<path opacity="0.3" fill="#7E6B71" d="M158.289,137.691v19.589l5,2.738V143.59l1,0.189v4.192l1,4.929v1.643l-1,5.476v0.548
				c0,0,3.573,2.008,6.485,1.825l5.515,0.012v-0.712h1V132.09l-1.929-1.033"/>
			<polygon fill="#7E6B71" points="152.696,139.209 168.614,131.98 176.573,130.995 175.408,138.114 			"/>
			<polygon fill="#7E6B71" points="140.466,133.215 144.348,129.691 147.289,129.691 147.289,133.185 151.065,135.503 
				153.289,137.018 153.289,139.756 153.289,141.691 155.289,141.691 155.289,145.233 155.289,155.09 155.289,167.691 
				153.289,167.691 153.289,172.066 148.037,170.691 144.542,170.691 			"/>
		</g>
	</g>
	<path fill="#7E6B71" d="M458.537,130.784c-0.77-12.306-1.014-24.634-0.265-36.992c0.006-0.105,0.025-0.202,0.033-0.305
		c0.054-9.341,0.028-18.684,0.016-28.026c-0.001-0.928-0.093-1.856-0.141-2.768h-38.221c0,1.308,0,2.408,0,3.508
		c0.001,4.891-0.006,9.783,0.013,14.674c0.139,0.8,0.227,1.637,0.228,2.532c0.024,18.977,0.346,37.908-0.515,56.798
		c0.249,5.097,0.413,10.203,0.503,15.317h37.586c0.263-4.731-0.099-6.337,0.295-11.057
		C457.787,140.938,458.691,134.323,458.537,130.784z M427.925,70.016c7.477-0.055,14.954-0.056,22.431,0.002
		c0.507,0.004,1.01,0.594,1.515,0.911c-0.5,0.241-0.997,0.682-1.5,0.69c-3.738,0.059-7.477,0.032-11.215,0.032v0.008
		c-3.739,0-7.478,0.034-11.215-0.037c-0.557-0.011-1.104-0.522-1.656-0.802C426.831,70.54,427.376,70.02,427.925,70.016z
		 M428.201,77.23c7.179-0.075,14.36-0.079,21.539-0.002c0.727,0.008,1.447,0.671,2.171,1.03c-0.761,0.304-1.517,0.851-2.285,0.872
		c-3.509,0.095-7.023,0.042-10.535,0.042v-0.008c-3.59,0-7.181,0.047-10.769-0.041c-0.693-0.017-1.374-0.567-2.06-0.872
		C426.908,77.895,427.551,77.236,428.201,77.23z M428.227,84.383c7.249-0.09,14.501-0.087,21.75-0.018
		c0.66,0.006,1.314,0.647,1.971,0.992c-0.665,0.421-1.318,1.184-1.996,1.207c-3.582,0.122-7.171,0.057-10.757,0.057v0.012
		c-3.664,0-7.33,0.053-10.991-0.048c-0.672-0.018-1.327-0.657-1.99-1.01C426.885,85.16,427.552,84.392,428.227,84.383z
		 M449.895,145.053c-3.589,0.093-7.181,0.044-10.772,0.044c-3.669-0.004-7.339,0.038-11.006-0.045
		c-0.617-0.014-1.223-0.567-1.833-0.871c0.633-0.357,1.264-1.019,1.9-1.026c7.259-0.074,14.52-0.074,21.779-0.004
		c0.653,0.006,1.3,0.636,1.95,0.977C451.241,144.451,450.575,145.035,449.895,145.053z M450.12,137.675
		c-3.667,0.082-7.338,0.041-11.007,0.041v0.025c-3.747,0-7.495,0.036-11.241-0.039c-0.551-0.011-1.091-0.547-1.637-0.839
		c0.563-0.348,1.124-0.994,1.69-0.999c7.416-0.063,14.833-0.056,22.249,0.013c0.59,0.005,1.174,0.604,1.761,0.927
		C451.331,137.108,450.731,137.661,450.12,137.675z M427.797,128.536c7.548-0.061,15.098-0.059,22.646,0.007
		c0.494,0.004,0.983,0.651,1.474,0.999c-0.543,0.285-1.082,0.805-1.629,0.816c-3.812,0.072-7.626,0.038-11.44,0.038
		c-3.658,0-7.316,0.037-10.973-0.04c-0.538-0.011-1.065-0.56-1.598-0.861C426.784,129.161,427.288,128.54,427.797,128.536z
		 M426.281,122.254c0.522-0.312,1.039-0.884,1.567-0.895c3.746-0.078,7.494-0.042,11.241-0.042v-0.012
		c3.669,0,7.34-0.042,11.007,0.041c0.611,0.014,1.209,0.575,1.813,0.883c-0.6,0.317-1.199,0.904-1.802,0.909
		c-7.416,0.064-14.833,0.062-22.25,0.003C427.33,123.139,426.806,122.564,426.281,122.254z M450.279,115.762
		c-3.811,0.093-7.626,0.049-11.439,0.049v0.012c-3.658,0-7.317,0.047-10.972-0.051c-0.545-0.014-1.073-0.705-1.608-1.083
		c0.507-0.329,1.011-0.941,1.52-0.945c7.549-0.063,15.098-0.064,22.646-0.002c0.503,0.004,1.001,0.635,1.501,0.974
		C451.378,115.081,450.836,115.749,450.279,115.762z M426.293,107.405c0.677-0.313,1.348-0.879,2.033-0.897
		c3.584-0.091,7.172-0.043,10.759-0.043c3.665-0.003,7.33-0.044,10.993,0.037c0.612,0.013,1.212,0.557,1.818,0.856
		c-0.636,0.276-1.27,0.787-1.907,0.792c-7.251,0.053-14.503,0.048-21.754-0.008C427.585,108.137,426.94,107.662,426.293,107.405z
		 M450.063,100.986c-3.663,0.103-7.33,0.05-10.995,0.05v0.013c-3.666,0-7.333,0.054-10.995-0.053
		c-0.618-0.018-1.216-0.731-1.824-1.123c0.582-0.334,1.162-0.954,1.747-0.959c7.408-0.069,14.818-0.073,22.226-0.007
		c0.573,0.005,1.14,0.658,1.71,1.01C451.309,100.291,450.695,100.969,450.063,100.986z M450.089,93.811
		c-3.663,0.105-7.33,0.051-10.995,0.051c-3.666,0.002-7.333,0.056-10.995-0.05c-0.63-0.018-1.242-0.719-1.862-1.105
		c0.625-0.383,1.247-1.091,1.876-1.098c7.33-0.085,14.662-0.092,21.992-0.02c0.623,0.006,1.239,0.736,1.858,1.13
		C451.339,93.101,450.723,93.793,450.089,93.811z"/>
	<rect x="503.289" y="132.691" opacity="0.4" fill="#7E6B71" width="2" height="19"/>
	<g>
		<defs>
			<polygon id="SVGID_2456_" points="395.767,38.691 357.874,199.691 515.289,199.691 515.289,38.691 			"/>
		</defs>
		<clipPath id="SVGID_10_">
			<use xlink:href="#SVGID_2456_"  overflow="visible"/>
		</clipPath>
		<path clip-path="url(#SVGID_10_)" fill="#B2A3A8" d="M372.286,154.736c0-1.113,0-2.032,0-2.952
			c-0.004-19.813-0.008-39.627-0.011-59.44c0-3.057,0.004-3.058,3.072-3.059c12.315-0.004,24.631-0.006,36.946-0.009
			c2.948-0.001,5.896,0,9.053,0c0,21.914,0,43.61,0,65.46C405.12,154.736,388.937,154.736,372.286,154.736z M396.142,116.585
			c0-2.116,0.093-4.135-0.066-6.135c-0.039-0.494-0.849-1.24-1.385-1.318c-1.297-0.19-2.663-0.188-3.958,0.015
			c-0.526,0.082-1.277,0.836-1.353,1.366c-0.84,5.899-0.32,6.442,5.614,6.218C395.223,116.721,395.451,116.674,396.142,116.585z
			 M389.144,96.103c0.018,3.761,0.018,3.761,3.647,3.738c3.681-0.023,3.681-0.023,3.666-3.803c-0.014-3.527-0.014-3.527-3.442-3.517
			C389.127,92.531,389.127,92.531,389.144,96.103z M403.933,112.872c-0.007,0-0.014,0-0.02,0c0-0.856,0.122-1.737-0.045-2.56
			c-0.101-0.498-0.627-1.265-1.001-1.289c-1.464-0.094-3.717-0.494-4.247,0.245c-0.933,1.301-0.955,3.344-1.079,5.096
			c-0.06,0.85,0.268,2.268,0.837,2.533c3.175,1.479,5.549-0.133,5.556-3.559C403.933,113.183,403.933,113.027,403.933,112.872z
			 M396.134,133.97c0-1.899,0.015-3.594-0.009-5.289c-0.007-0.527-0.118-1.053-0.224-1.933c-1.667,0-3.302-0.154-4.881,0.076
			c-0.631,0.092-1.562,0.976-1.639,1.589c-0.685,5.52-0.458,5.728,4.998,5.645C394.84,134.051,395.3,134.013,396.134,133.97z
			 M382.15,116.752c1.704,0,3.242,0.05,4.774-0.032c0.442-0.024,1.226-0.411,1.237-0.659c0.091-2.08,0.066-4.167-0.007-6.249
			c-0.008-0.24-0.482-0.572-0.801-0.677c-3.532-1.156-5.211,0.08-5.203,3.793C382.152,114.088,382.15,115.247,382.15,116.752z
			 M411.291,116.725c0-1.409,0.032-2.556-0.006-3.701c-0.151-4.572,1.018-4.065-4.273-4.123c-1.24-0.014-2.109,0.409-1.856,1.707
			c0.398,2.038-1.309,4.533,1.276,6.1c0.059,0.036,0.153,0.017,0.23,0.017C408.117,116.725,409.57,116.725,411.291,116.725z
			 M418.923,116.656c0-1.402,0-2.557,0-3.713c0-1.209,0-2.418,0-3.857c-1.914,0-3.458-0.077-4.986,0.048
			c-0.443,0.036-1.181,0.631-1.201,1.001c-0.115,2.14-0.056,4.289-0.056,6.52C414.885,116.656,416.73,116.656,418.923,116.656z
			 M395.812,144.59c-1.71,0-3.422-0.088-5.115,0.055c-0.483,0.041-1.263,0.72-1.3,1.159c-0.15,1.751-0.062,3.522-0.062,5.224
			c6.606,1.068,7.156,0.583,6.756-5.615C396.081,145.265,395.995,145.121,395.812,144.59z M382.151,93.048
			c0,1.809-0.039,3.579,0.032,5.344c0.015,0.365,0.404,0.99,0.68,1.024c1.536,0.192,3.092,0.323,4.635,0.273
			c0.365-0.012,0.939-0.755,1.022-1.231c0.865-4.974-0.036-5.975-4.982-5.662C383.164,92.82,382.795,92.929,382.151,93.048z
			 M412.916,92.909c-0.576,7.729-1.075,6.784,5.55,6.497c0.067-0.003,0.132-0.077,0.548-0.337c0-1.612,0.065-3.453-0.05-5.283
			c-0.026-0.411-0.675-1.109-1.047-1.116C416.242,92.64,414.563,92.812,412.916,92.909z M418.928,133.613
			c0-0.807-0.002-1.649,0-2.491c0.01-4.629-0.223-4.869-4.805-4.223c-0.537,0.076-1.333,0.789-1.408,1.296
			c-0.817,5.54,0.094,6.426,5.672,5.734C418.456,133.92,418.517,133.856,418.928,133.613z M380.389,116.699
			c0-1.271-0.019-2.416,0.003-3.56c0.102-5.167,0.197-3.742-4.344-4.113c-0.417-0.034-1.281,0.742-1.289,1.155
			c-0.044,2.131,0.123,4.266,0.211,6.277c0.461,0.147,0.607,0.234,0.754,0.235C377.194,116.703,378.663,116.699,380.389,116.699z
			 M382.146,134.06c1.834,0,3.226,0.048,4.611-0.027c0.476-0.026,1.331-0.337,1.342-0.554c0.106-1.997,0.286-4.045-0.102-5.969
			c-0.088-0.438-2.284-0.467-3.514-0.656c-1.811-0.279-2.53,0.473-2.365,2.324C382.253,130.693,382.146,132.23,382.146,134.06z
			 M405.361,130.442c0.01,3.684,0.01,3.685,3.668,3.624c0.39-0.007,0.84,0.099,1.155-0.059c0.415-0.209,1.009-0.612,1.03-0.961
			c0.102-1.71,0.083-3.433-0.001-5.145c-0.017-0.348-0.428-0.849-0.772-0.982C407.333,125.719,405.352,127.115,405.361,130.442z
			 M411.269,96.139c0.017-1.759,0.537-3.645-2.505-3.444c-3.401,0.225-3.415,0.016-3.404,3.482c0.002,0.702-0.095,1.426,0.048,2.098
			c0.095,0.447,0.449,1.036,0.836,1.191C409.251,100.671,411.272,99.302,411.269,96.139z M403.439,133.908c0-2.388,0-4.613,0-6.928
			c-1.952,0-3.71,0-5.627,0c0,2.36,0,4.568,0,6.928C399.717,133.908,401.477,133.908,403.439,133.908z M403.582,92.941
			c-0.702-0.086-1.08-0.164-1.46-0.174c-4.568-0.12-4.453-0.112-4.654,4.466c-0.091,2.084,0.556,2.694,2.581,2.642
			c3.505-0.091,3.51,0.016,3.532-3.305C403.588,95.423,403.582,94.276,403.582,92.941z M411.291,147.489
			c0.158-1.561,0.235-3.227-2.729-2.969c-3.196,0.278-3.215,0.062-3.219,3.592c-0.003,3.229-0.003,3.229,2.84,3.225
			C411.289,151.332,411.289,151.332,411.291,147.489z M418.903,144.592c-1.726,0-3.181,0.051-4.63-0.016
			c-1.22-0.056-1.572,0.471-1.645,1.639c-0.31,4.955,0.331,5.684,4.916,5.067c0.494-0.066,1.261-0.706,1.297-1.13
			C418.989,148.404,418.903,146.636,418.903,144.592z M382.145,151.195c2.156,0,3.973,0,6.126,0c0-1.875,0.086-3.635-0.06-5.374
			c-0.037-0.441-0.773-1.107-1.262-1.181c-4.513-0.679-4.832-0.371-4.804,4.184C382.149,149.513,382.145,150.202,382.145,151.195z
			 M380.395,130.508c0-0.702,0.165-1.459-0.048-2.089c-0.198-0.588-0.797-1.471-1.221-1.472c-1.389-0.003-3.81,0.032-3.978,0.601
			c-0.529,1.79-0.25,3.831-0.174,5.771c0.01,0.254,0.629,0.62,1.016,0.704C379.535,134.793,380.396,134.092,380.395,130.508z
			 M374.717,99.083c5.36,1.247,5.733,0.931,5.695-3.794c-0.021-2.545-0.453-2.848-3.023-2.743c-1.942,0.079-2.813,0.902-2.72,2.845
			C374.732,96.687,374.442,99.019,374.717,99.083z M403.42,151.51c0-2.636,0-4.696,0-7.117c-2.004,0.228-4.721-0.187-5.384,0.791
			c-0.901,1.329-0.896,4.154-0.013,5.514C398.65,151.662,401.372,151.267,403.42,151.51z M380.405,147.244
			c0.039-1.02,0.53-2.984-2.59-2.719c-2.959,0.252-2.979,0.051-2.983,3.109c-0.001,0.851-0.082,1.719,0.064,2.545
			c0.073,0.414,0.508,0.967,0.895,1.089C378.92,152.257,380.421,151.182,380.405,147.244z"/>
		<rect x="520.289" y="139.691" clip-path="url(#SVGID_10_)" fill="#0A3542" width="1" height="14"/>
		<path clip-path="url(#SVGID_10_)" fill="#7E6B71" d="M518.46,140.77c0,0,1.148,3.7,7.648-1.109c0,0,7.379,0.347,2.488-6.862
			c0,0,4.255-6.74-1.815-7.129c0,0,3.446-5.22-0.94-5.258c0,0,2.578-3.982-1.654-4.223c0,0-5.318-5.81-7.62-0.175
			c0,0-3.577-1.556-4.466,3.039c0,0-8.542,3.78-2.923,12.343c0,0-2.84,4.978,3.604,5.762
			C512.782,137.158,512.038,142.064,518.46,140.77z"/>
		<path opacity="0.3" clip-path="url(#SVGID_10_)" fill="#7E6B71" d="M358.171,148.102c0,0,22.974,6.183,73.124,6.504
			c0,0,56.725-4.662,90.735-3.499l-12.455,67.584H368.321l-23.626-2.19L358.171,148.102z"/>
		<path clip-path="url(#SVGID_10_)" fill="#7E6B71" d="M500.901,139.037c0,0-2.341,3.087-6.812-3.649c0,0-7.056-2.19,0-7.299
			c0,0-1.703-7.787,4.136-6.083c0,0-1.46-6.082,2.676-4.622c0,0-1.066-4.623,2.995-3.406c0,0,6.98-3.649,7.224,2.433
			c0,0,3.893-0.243,3.163,4.379c0,0,6.742,6.466-1.46,12.6c0,0,0.973,5.648-5.353,4.188
			C507.47,137.577,506.497,142.443,500.901,139.037z"/>
	</g>
	<g>
		<path fill="#7E6B71" d="M485.673,152.721c-0.197-0.433-0.325-0.807-0.524-1.138c-1.14-1.896-3.566-1.927-4.512,0.036
			c-0.506,1.051-1.14,1.284-2.196,1.262c-2.95-0.061-5.903-0.04-8.854-0.013c-0.839,0.008-1.37-0.12-1.583-1.113
			c-0.246-1.147-1.238-1.581-2.336-1.609c-1.113-0.029-2,0.381-2.344,1.563c-0.076,0.263-0.122,0.587-0.302,0.755
			c-0.221,0.207-0.585,0.412-0.853,0.374c-0.241-0.035-0.611-0.39-0.622-0.618c-0.063-1.373-0.095-2.754-0.004-4.124
			c0.021-0.314,0.526-0.796,0.867-0.856c1.779-0.309,3.586-0.458,5.364-0.771c0.556-0.098,1.178-0.422,1.553-0.838
			c1.075-1.192,2.016-2.504,3.064-3.722c0.21-0.245,0.659-0.397,1-0.399c3.699-0.028,7.399-0.033,11.097,0.004
			c0.352,0.004,0.827,0.244,1.03,0.528c1.744,2.443,2.683,5.114,2.292,8.181C487.638,151.58,487.134,152.295,485.673,152.721z
			 M486.292,146.507c-0.357-1.317-0.681-2.439-0.962-3.572c-0.18-0.725-0.608-1.041-1.344-1.034c-1.06,0.01-2.12-0.02-3.181-0.022
			c-3.651-0.007-3.651-0.006-3.517,3.625c0.003,0.078-0.034,0.189,0.005,0.23c0.251,0.266,0.514,0.733,0.78,0.738
			C480.737,146.529,483.402,146.507,486.292,146.507z M469.391,146.51c1.951,0,3.668,0.021,5.383-0.005
			c2.191-0.034,2.17,0.491,2.141-2.13c-0.031-2.822,0.347-2.448-2.554-2.45c-0.593,0-1.413,0.023-1.738,0.385
			C471.508,143.551,470.567,144.947,469.391,146.51z"/>
		<path fill="#7E6B71" d="M465.599,155.107c-1.325-0.005-2.064-0.785-2.036-2.147c0.024-1.166,0.828-1.966,1.988-1.979
			c1.26-0.014,2.246,0.885,2.252,2.054C467.81,154.228,466.87,155.112,465.599,155.107z M465.607,151.556
			c-0.921-0.01-1.112,1.15-1.107,1.558c0.005,0.349,0.675,0.983,1.014,0.96c0.434-0.03,1.091-0.543,1.167-0.94
			C466.748,152.783,466.531,151.566,465.607,151.556z"/>
		<path fill="#7E6B71" d="M484.915,152.982c0.032,1.147-0.978,2.152-2.168,2.157c-1.169,0.005-1.949-0.782-1.987-2.002
			c-0.039-1.257,0.76-2.134,1.954-2.144C483.894,150.983,484.884,151.879,484.915,152.982z M484.047,153.311
			c0.076-0.15-0.013-0.335-0.02-0.503c-0.46-0.242-0.941-0.703-1.374-0.662c-0.389,0.037-1.091,0.472-1.085,0.97
			c0.006,0.532,0.762,0.968,1.184,1.007C483.155,154.161,483.811,153.779,484.047,153.311z"/>
	</g>
	<g>
		<defs>
			<polygon id="SVGID_2458_" points="244.966,38.691 207.073,199.691 359.119,199.691 395.023,38.691 			"/>
		</defs>
		<clipPath id="SVGID_12_">
			<use xlink:href="#SVGID_2458_"  overflow="visible"/>
		</clipPath>
		<g clip-path="url(#SVGID_12_)">
			<path opacity="0.3" fill="#7E6B71" d="M217.321,162.007c0,0,57.334-7.571,72.156-2.042c0,0,42.216-8.815,48.741-10.99
				l31.894,0.624l-16.588,68.617c0,0-46.23,3.988-58.492,2.538c-12.261-1.45-59.387-3.988-65.73-3.988
				c-6.344,0-29.363-0.725-29.363-0.725L217.321,162.007z"/>
			<g>
				<g>
					<rect x="245.289" y="49.691" fill="#7E6B71" width="2" height="124"/>
				</g>
				<g>
					<rect x="248.289" y="49.691" fill="#7E6B71" width="1" height="124"/>
				</g>
				<g>
					<rect x="251.289" y="49.691" fill="#7E6B71" width="3" height="124"/>
				</g>
				<g>
					<rect x="255.289" y="49.691" fill="#7E6B71" width="2" height="124"/>
				</g>
				<g>
					<rect x="259.289" y="49.691" fill="#7E6B71" width="3" height="124"/>
				</g>
				<g>
					<rect x="264.289" y="49.691" fill="#7E6B71" width="1" height="124"/>
				</g>
				<g>
					<rect x="268.289" y="49.691" fill="#7E6B71" width="4" height="124"/>
				</g>
				<g>
					<rect x="274.289" y="49.691" fill="#7E6B71" width="2" height="124"/>
				</g>
				<g>
					<rect x="244.289" y="52.691" fill="#7E6B71" width="33" height="2"/>
				</g>
				<g>
					<rect x="244.289" y="61.691" fill="#7E6B71" width="33" height="1"/>
				</g>
				<g>
					<rect x="244.289" y="68.691" fill="#7E6B71" width="33" height="2"/>
				</g>
				<g>
					<rect x="244.289" y="72.691" fill="#7E6B71" width="33" height="3"/>
				</g>
				<g>
					<rect x="244.289" y="95.691" fill="#7E6B71" width="33" height="1"/>
				</g>
				<g>
					<rect x="244.289" y="101.691" fill="#7E6B71" width="33" height="3"/>
				</g>
				<g>
					<rect x="244.289" y="106.691" fill="#7E6B71" width="33" height="2"/>
				</g>
				<g>
					<rect x="244.289" y="115.691" fill="#7E6B71" width="33" height="1"/>
				</g>
				<g>
					<rect x="244.289" y="120.691" fill="#7E6B71" width="33" height="2"/>
				</g>
				<g>
					<rect x="244.289" y="128.691" fill="#7E6B71" width="33" height="1"/>
				</g>
				<g>
					<rect x="244.289" y="135.691" fill="#7E6B71" width="33" height="2"/>
				</g>
				<g>
					<rect x="244.289" y="141.691" fill="#7E6B71" width="33" height="2"/>
				</g>
				<g>
					<rect x="244.289" y="148.691" fill="#7E6B71" width="33" height="1"/>
				</g>
				<g>
					<rect x="244.289" y="81.691" fill="#7E6B71" width="33" height="1"/>
				</g>
				<g>
					<rect x="244.289" y="87.691" fill="#7E6B71" width="33" height="2"/>
				</g>
				<g>
					<rect x="257.289" y="54.691" fill="#7E6B71" width="10" height="113"/>
				</g>
			</g>
			<g>
				<g>
					
						<rect x="334.975" y="37.306" transform="matrix(0.9998 0.0196 -0.0196 0.9998 1.9003 -6.5627)" fill="#B2A3A8" width="2.9" height="113.1"/>
				</g>
				<g>
					
						<rect x="339.324" y="37.391" transform="matrix(0.9998 0.0196 -0.0196 0.9998 1.9027 -6.6478)" fill="#B2A3A8" width="2.9" height="113.1"/>
				</g>
				<g>
					
						<rect x="343.673" y="37.476" transform="matrix(0.9998 0.0196 -0.0196 0.9998 1.9052 -6.7328)" fill="#B2A3A8" width="2.9" height="113.1"/>
				</g>
				<g>
					
						<rect x="348.022" y="37.561" transform="matrix(0.9998 0.0196 -0.0196 0.9998 1.9077 -6.8179)" fill="#B2A3A8" width="2.9" height="113.1"/>
				</g>
				<g>
					
						<rect x="355.271" y="37.689" transform="matrix(0.9998 0.0196 -0.0196 0.9998 1.9115 -6.9455)" fill="#B2A3A8" width="1.45" height="113.1"/>
				</g>
				<g>
					
						<rect x="361.07" y="37.817" transform="matrix(0.9998 0.0196 -0.0196 0.9998 1.9152 -7.073)" fill="#B2A3A8" width="2.9" height="113.1"/>
				</g>
				<g>
					
						<rect x="368.318" y="37.944" transform="matrix(0.9998 0.0196 -0.0196 0.9998 1.919 -7.2006)" fill="#B2A3A8" width="1.45" height="113.1"/>
				</g>
				<g>
					
						<rect x="374.117" y="38.072" transform="matrix(0.9998 0.0196 -0.0196 0.9998 1.9227 -7.3282)" fill="#B2A3A8" width="2.9" height="113.1"/>
				</g>
				<g>
					
						<rect x="334.556" y="40.599" transform="matrix(0.9998 0.0196 -0.0196 0.9998 0.8766 -6.9758)" fill="#B2A3A8" width="44.95" height="1.45"/>
				</g>
				<g>
					
						<rect x="334.414" y="47.848" transform="matrix(0.9998 0.0196 -0.0196 0.9998 1.0184 -6.9717)" fill="#B2A3A8" width="44.95" height="1.45"/>
				</g>
				<g>
					
						<rect x="334.272" y="55.097" transform="matrix(0.9998 0.0196 -0.0196 0.9998 1.1602 -6.9675)" fill="#B2A3A8" width="44.95" height="1.45"/>
				</g>
				<g>
					
						<rect x="334.187" y="59.446" transform="matrix(0.9998 0.0196 -0.0196 0.9998 1.2452 -6.965)" fill="#B2A3A8" width="44.95" height="1.45"/>
				</g>
				<g>
					
						<rect x="333.819" y="78.292" transform="matrix(0.9998 0.0196 -0.0196 0.9998 1.6138 -6.9542)" fill="#B2A3A8" width="44.95" height="1.45"/>
				</g>
				<g>
					
						<rect x="333.677" y="85.541" transform="matrix(0.9998 0.0196 -0.0196 0.9998 1.7556 -6.95)" fill="#B2A3A8" width="44.95" height="1.45"/>
				</g>
				<g>
					
						<rect x="333.592" y="89.89" transform="matrix(0.9998 0.0196 -0.0196 0.9998 1.8406 -6.9475)" fill="#B2A3A8" width="44.95" height="1.45"/>
				</g>
				<g>
					
						<rect x="333.45" y="97.139" transform="matrix(0.9998 0.0196 -0.0196 0.9998 1.9824 -6.9434)" fill="#B2A3A8" width="44.95" height="1.45"/>
				</g>
				<g>
					
						<rect x="333.337" y="102.938" transform="matrix(0.9998 0.0196 -0.0196 0.9998 2.0958 -6.9401)" fill="#B2A3A8" width="44.95" height="1.45"/>
				</g>
				<g>
					
						<rect x="333.223" y="108.736" transform="matrix(0.9998 0.0196 -0.0196 0.9998 2.2092 -6.9367)" fill="#B2A3A8" width="44.95" height="1.45"/>
				</g>
				<g>
					
						<rect x="333.081" y="115.985" transform="matrix(0.9998 0.0196 -0.0196 0.9998 2.3509 -6.9326)" fill="#B2A3A8" width="44.95" height="1.45"/>
				</g>
				<g>
					
						<rect x="332.968" y="121.784" transform="matrix(0.9998 0.0196 -0.0196 0.9998 2.4644 -6.9292)" fill="#B2A3A8" width="44.95" height="1.45"/>
				</g>
				<g>
					
						<rect x="332.854" y="127.583" transform="matrix(0.9998 0.0196 -0.0196 0.9998 2.5778 -6.9259)" fill="#B2A3A8" width="44.95" height="1.45"/>
				</g>
				<g>
					
						<rect x="334.046" y="66.694" transform="matrix(0.9998 0.0196 -0.0196 0.9998 1.387 -6.9609)" fill="#B2A3A8" width="44.95" height="1.45"/>
				</g>
				<g>
					
						<rect x="333.932" y="72.493" transform="matrix(0.9998 0.0196 -0.0196 0.9998 1.5004 -6.9575)" fill="#B2A3A8" width="44.95" height="1.45"/>
				</g>
				<g>
					
						<rect x="350.935" y="42.082" transform="matrix(0.9998 0.0196 -0.0196 0.9998 1.8986 -6.9884)" fill="#B2A3A8" width="14.5" height="102.95"/>
				</g>
			</g>
			<line fill="#507282" x1="333.55" y1="71.711" x2="331.776" y2="75.989"/>
			<g>
				<g>
					<path fill="#7E6B71" d="M329.184,70.421l-50.886-4.505l3.401-4.04l0.281,0.029l44.528,4.5L329.184,70.421z M280.439,65.033
						l46.618,4.127l-1.16-1.741l-43.745-4.421L280.439,65.033z"/>
				</g>
				<g>
					<path fill="#7E6B71" d="M335.168,160.691h-6.879v-104h4.189L335.168,160.691z M329.289,158.691h4.782l-2.635-101h-2.147
						V158.691z"/>
				</g>
				<polygon fill="#7E6B71" points="344.289,70.749 332.174,68.677 332.194,70.749 344.289,73.147 				"/>
				<g>
					<polygon fill="#7E6B71" points="305.289,82.691 297.769,82.691 295.775,80.08 295.804,80.345 295.174,79.455 296.692,79.537 
						301.238,74.285 301.473,67.809 302.541,67.856 302.31,74.268 302.413,74.635 298.105,79.691 306.681,79.691 307.457,79.704 
						307.416,80.751 297.078,80.129 298.371,81.691 305.289,81.691 					"/>
				</g>
				<line fill="#7E6B71" x1="301.472" y1="74.345" x2="306.282" y2="80.196"/>
				<polygon fill="#7E6B71" points="306.186,82.691 297.313,82.691 295.098,79.691 307.888,79.691 				"/>
				<g>
					
						<rect x="313.41" y="45.425" transform="matrix(0.2079 0.9781 -0.9781 0.2079 308.2507 -258.834)" fill="#7E6B71" width="1.07" height="30.98"/>
				</g>
				<g>
					
						<rect x="329.662" y="64.335" transform="matrix(0.7014 0.7127 -0.7127 0.7014 146.9922 -221.1681)" fill="#7E6B71" width="15.652" height="1.069"/>
				</g>
				<g>
					<polygon fill="#7E6B71" points="327.802,154.026 327.536,152.99 332.151,151.803 327.398,150.579 333.188,147.658 
						326.731,142.596 332.636,139.015 326.778,134.071 332.565,130.256 326.652,126.512 332.437,123.025 326.688,119.405 
						332.515,115.496 326.786,111.433 332.074,107.126 327.125,104.128 332.124,99.47 327.142,96.383 331.575,93.343 
						326.797,88.741 331.588,85.847 326.891,80.631 331.246,77.183 327.428,72.388 331.165,68.001 327.14,65.806 331.187,62.73 
						327.743,59.286 328.499,58.53 332.81,62.84 329.102,65.658 332.833,67.692 328.813,72.411 332.751,77.357 328.447,80.763 
						333.248,86.094 328.541,88.937 333.261,93.483 329.099,96.337 333.876,99.299 328.889,103.946 333.925,106.996 
						328.551,111.375 334.398,115.521 328.65,119.375 334.476,123.044 328.686,126.535 334.535,130.237 328.56,134.176 
						334.464,139.157 328.607,142.709 333.717,145.933 329.54,150.027 334.944,152.188 					"/>
				</g>
				<g>
					<polygon fill="#7E6B71" points="318.106,69.482 315.748,66.969 314.651,68.603 312.21,66.844 310.797,68.597 308.004,66.355 
						306.807,68.114 304.9,65.96 303.526,67.511 300.942,65.882 299.347,68.232 297.738,65.599 296.106,67.197 294.396,65.339 
						292.464,67.064 291.841,65.085 289.726,66.94 288.254,64.465 286.317,66.169 285.15,64.225 282.94,66.131 280.964,63.376 
						281.832,62.754 283.127,64.558 285.414,62.586 286.573,64.519 288.514,62.811 289.988,65.288 292.37,63.2 292.987,65.164 
						294.469,63.84 296.146,65.662 297.95,63.895 299.394,66.258 300.638,64.426 303.328,66.122 304.9,64.348 306.696,66.376 
						307.771,64.797 310.634,67.095 312.013,65.384 314.379,67.089 315.609,65.259 318.059,67.87 319.522,66.115 322.391,67.925 
						323.625,65.745 326.238,68.713 325.435,69.419 323.815,67.579 322.769,69.428 319.743,67.518 					"/>
				</g>
				<g>
					<polygon fill="#7E6B71" points="343.804,72.742 342.257,71.519 339.831,72.423 338.423,70.464 336.143,71.543 334.8,70.4 
						333.31,70.949 332.941,69.946 335.018,69.181 336.31,70.281 338.772,69.117 340.222,71.136 342.448,70.305 344.468,71.903 
											"/>
				</g>
			</g>
			<g opacity="0.5">
				<g>
					<path fill="#B2A3A8" d="M281.191,53.682l47.419-5.05l0.299-0.033l3.622,4.533l-54.19,5.054L281.191,53.682z M328.425,49.858
						l-46.585,4.96l-1.235,1.953l49.645-4.63L328.425,49.858z"/>
				</g>
				<g>
					<path fill="#B2A3A8" d="M274.832,41.691h6.457v117h-9.321L274.832,41.691z M278.289,42.691h-2.347l-2.806,115h5.153V42.691z"/>
				</g>
				<polygon fill="#B2A3A8" points="262.289,58.555 275.173,56.229 275.161,58.555 262.289,61.245 				"/>
				<g>
					<polygon fill="#B2A3A8" points="305.289,72.691 311.795,72.691 313.918,69.393 313.887,69.506 314.558,68.414 312.942,68.46 
						308.1,62.545 307.851,55.267 306.713,55.314 306.959,62.505 306.849,62.968 311.438,68.691 302.304,68.691 301.477,68.653 
						301.521,69.803 312.531,69.522 311.153,71.691 305.289,71.691 					"/>
				</g>
				<line fill="#B2A3A8" x1="307.851" y1="62.589" x2="302.73" y2="69.153"/>
				<polygon fill="#B2A3A8" points="302.832,72.691 312.28,72.691 314.64,68.691 301.019,68.691 				"/>
				<g>
					<polygon fill="#B2A3A8" points="310.584,51.729 310.821,50.555 278.553,43.313 278.317,44.487 					"/>
				</g>
				<g>
					<polygon fill="#B2A3A8" points="264.057,58.636 275.748,46.12 274.937,45.279 263.245,57.795 					"/>
				</g>
				<g>
					<polygon fill="#B2A3A8" points="279.812,151.99 280.095,150.828 275.181,149.496 280.242,148.122 274.076,144.846 
						280.953,139.166 274.664,135.148 280.902,129.601 274.74,125.32 281.036,121.12 274.875,117.207 280.998,113.145 
						274.793,108.76 280.894,104.201 275.262,99.369 280.532,96.005 275.21,90.779 280.514,87.315 275.794,83.905 280.882,78.741 
						275.78,75.494 280.782,69.642 276.144,65.774 280.21,60.394 276.23,55.471 280.517,53.008 276.207,49.557 279.875,45.693 
						279.07,44.845 274.478,49.681 278.428,52.842 274.455,55.124 278.735,60.42 274.541,65.968 279.124,69.79 274.012,75.771 
						279.025,78.961 273.998,84.062 278.431,87.264 273.344,90.587 278.654,95.801 273.291,99.223 279.014,104.136 272.788,108.788 
						278.909,113.112 272.705,117.228 278.87,121.146 272.641,125.299 279.004,129.718 272.718,135.307 278.954,139.293 
						273.513,142.91 277.961,147.503 272.206,149.928 					"/>
				</g>
				<g>
					<polygon fill="#B2A3A8" points="290.138,57.133 292.649,54.313 293.817,56.147 296.416,54.173 297.921,56.14 300.895,53.624 
						302.17,55.597 304.201,53.182 305.664,54.921 308.416,53.094 310.114,55.73 311.828,52.776 313.566,54.569 315.387,52.484 
						317.444,54.42 318.107,52.2 320.36,54.28 321.928,51.504 323.991,53.416 325.233,51.234 327.587,53.373 329.692,50.282 
						328.767,49.584 327.388,51.608 324.952,49.395 323.717,51.565 321.651,49.648 320.082,52.427 317.545,50.084 316.887,52.288 
						315.31,50.802 313.524,52.846 311.602,50.864 310.064,53.515 308.739,51.46 305.875,53.363 304.201,51.373 302.288,53.648 
						301.143,51.876 298.094,54.455 296.626,52.535 294.106,54.448 292.797,52.394 290.188,55.324 288.629,53.355 285.575,55.385 
						284.26,52.94 281.477,56.27 282.333,57.062 284.058,54.997 285.172,57.072 288.394,54.93 					"/>
				</g>
				<g>
					<polygon fill="#B2A3A8" points="262.77,60.791 264.418,59.418 267.002,60.432 268.501,58.235 270.929,59.445 272.359,58.163 
						273.946,58.778 274.339,57.653 272.128,56.795 270.751,58.03 268.129,56.723 266.585,58.989 264.215,58.056 262.064,59.849 
											"/>
				</g>
			</g>
			<g>
				<polygon fill="#B2A3A8" points="280.768,166.116 283.595,154.008 284.025,143.374 288.758,148.783 286.299,155.852 
					281.639,167.346 				"/>
				<line fill="none" stroke="#7E6B71" stroke-miterlimit="10" x1="288.758" y1="136.183" x2="310.64" y2="144.084"/>
				<path fill="#7E6B71" d="M345.289,149.034c0,0-1-0.435-1,1.347v4.31h0.401l-0.216-4.639l0.816,0.083V149.034z"/>
				<polygon fill="#7E6B71" points="321.41,162.536 323.793,164.691 333.226,164.691 335.779,162.126 				"/>
				<rect x="311.289" y="164.691" fill="#7E6B71" width="1" height="6"/>
				<polygon fill="#7E6B71" points="311.936,166.691 313.574,166.691 314.205,168.691 311.439,168.691 				"/>
				<polygon fill="#7E6B71" points="314.635,148.353 319.627,154.069 320.044,152.84 315.434,147.734 				"/>
				<polygon fill="#7E6B71" points="315.987,146.202 320.351,152.045 324.039,149.582 318.712,144.972 				"/>
				<polygon fill="#B2A3A8" points="333.226,154.691 347.289,154.691 347.289,163.292 321.078,163.719 320.591,159.205 				"/>
				<path fill="#A39197" d="M319.245,162.305c0,0-2.95-12.354,5.04-13.768c0,0,9.281-3.749,9.896,7.868L319.245,162.305z"/>
				<path fill="#B2A3A8" d="M314.289,164.691v6.79l0.581-0.385c0,0,0.524-5.163,4.936-3.749c0,0,2.992,0.983,2.746,3.626
					l12.595-0.246c0,0,0.715-5.251,4.219-4.083c0,0,3.002,0.047,3.063,4.047h4.86v-2.486v-1.514h-3v-2H314.289z"/>
				<circle fill="#7E6B71" cx="318.712" cy="170.972" r="4.712"/>
				<circle fill="#7E6B71" cx="338.365" cy="170.972" r="4.712"/>
				<path fill="#7E6B71" d="M281.611,165.242c0,0-6.783,2.981-6.906,5.87c0,0-0.882,4.579,5.264,4.579h7.402
					c0,0-7.894-4.866-4.636-8.923L281.611,165.242z"/>
				<path fill="#7E6B71" d="M285.123,146.367c0,0-3.622-2.726-0.18-6.598l4.587-4.621l1.759,0.85v2.728c0,0-4.982,2.124-1.841,5.262
					l-0.529,5.94L285.123,146.367z"/>
				<path fill="#A39197" d="M288.328,139.133c0,0,14.076,4.303,20.529,4.241c0,0,12.477-1.782,10.572,1.537
					c0,0-2.274,5.716-11.002,3.688l-20.775-5.225C287.652,143.374,284.611,139.742,288.328,139.133z"/>
			</g>
			<path fill="#7E6B71" d="M219.59,180.932c0,0,3.213-4.356,5.951-4.551c0,0,8.548-5.973,10.113-6.049
				c1.564-0.076,6.202-3.641,6.202-3.641h3.215l7.25-1.473l7.25,1.337l7.25,4.528l4.154,5.326l7.323,4.281h8.823l1.637,1H216.07
				h-5.8l6.164-3.908l4.498-0.533l3.324,0.32l3.129,1.236"/>
			<polygon fill="#A39197" points="268.062,187.691 272,186.743 274.924,185.691 276.971,185.691 283.458,186.691 287.371,187.691 
							"/>
		</g>
	</g>
</g>
</svg>
