<?xml version="1.0" encoding="utf-8"?>
<!-- Generator: Adobe Illustrator 17.0.0, SVG Export Plug-In . SVG Version: 6.00 Build 0)  -->
<!DOCTYPE svg PUBLIC "-//W3C//DTD SVG 1.1//EN" "http://www.w3.org/Graphics/SVG/1.1/DTD/svg11.dtd">
<svg version="1.1" id="Layer_1" xmlns="http://www.w3.org/2000/svg" xmlns:xlink="http://www.w3.org/1999/xlink" x="0px" y="0px"
	 width="581.238px" height="253.981px" viewBox="0 0 581.238 253.981" enable-background="new 0 0 581.238 253.981"
	 xml:space="preserve">
<rect x="102.289" y="39.691" fill="#FFFFFF" width="360" height="142"/>
<g>
	<defs>
		<polygon id="SVGID_22_" points="-590.711,-280.309 -590.711,-76.309 -407.923,-76.309 -353.486,-280.309 		"/>
	</defs>
	<clipPath id="SVGID_2_">
		<use xlink:href="#SVGID_22_"  overflow="visible"/>
	</clipPath>
	<g clip-path="url(#SVGID_2_)">
	</g>
</g>
<g>
	<defs>
		<polygon id="SVGID_2078_" points="-591.217,18.93 -591.217,224.411 -412.041,224.411 -356.623,19.888 		"/>
	</defs>
	<clipPath id="SVGID_4_">
		<use xlink:href="#SVGID_2078_"  overflow="visible"/>
	</clipPath>
	<g clip-path="url(#SVGID_4_)">
		<defs>
			<rect id="SVGID_2080_" x="-712.695" y="-1844.685" width="1923.24" height="3789.385"/>
		</defs>
		<clipPath id="SVGID_6_">
			<use xlink:href="#SVGID_2080_"  overflow="visible"/>
		</clipPath>
	</g>
</g>
<g>
	<ellipse opacity="0.4" fill="#7E6B71" cx="287.566" cy="173.121" rx="35.527" ry="2.837"/>
	<polygon opacity="0.3" fill="#7E6B71" points="223.978,39.691 190.654,181.691 324.367,181.691 355.942,39.691 	"/>
	<polygon opacity="0.2" fill="#7E6B71" points="102.289,39.691 102.289,181.691 190.654,181.691 223.978,39.691 	"/>
	<g>
		<defs>
			<polygon id="SVGID_2454_" points="462.289,39.691 355.942,39.691 324.367,181.691 462.289,181.691 			"/>
		</defs>
		<clipPath id="SVGID_8_">
			<use xlink:href="#SVGID_2454_"  overflow="visible"/>
		</clipPath>
		<path opacity="0.4" clip-path="url(#SVGID_8_)" fill="#7E6B71" d="M313.916,128.194l20.746-11.503h6.724h3.826l8.181-32.542
			c0,0,3.973-1.055,7.997-0.013c4.023,1.043,4.598-12.786,12.423-20.971l14.283-16.018c0,0,15.748,2.181,18.872,9.517
			c0,0,18.932,22.044,20.914,25.711c0,0,11.015-5.24,12.752-2.62s12.286,16.828,12.286,16.828l11.004,3.608l7.86,1.572
			l32.487,17.816l27.247,29.343l-45.587,38.251l-86.614,14.672l-68.486-10.48l-29.343-7.126L313.916,128.194z"/>
	</g>
	<polygon opacity="0.4" fill="#7E6B71" points="462.289,39.691 355.942,39.691 324.367,181.691 462.289,181.691 	"/>
	<g>
		<defs>
			<polygon id="SVGID_2456_" points="102.289,39.691 102.289,181.691 190.654,181.691 223.978,39.691 			"/>
		</defs>
		<clipPath id="SVGID_10_">
			<use xlink:href="#SVGID_2456_"  overflow="visible"/>
		</clipPath>
	</g>
	<g>
		<defs>
			<line id="SVGID_2458_" x1="226.528" y1="40.085" x2="193.205" y2="181.629"/>
		</defs>
		<clipPath id="SVGID_12_">
			<use xlink:href="#SVGID_2458_"  overflow="visible"/>
		</clipPath>
	</g>
	<g>
		<defs>
			<line id="SVGID_2460_" x1="226.528" y1="40.085" x2="193.205" y2="181.629"/>
		</defs>
		<clipPath id="SVGID_14_">
			<use xlink:href="#SVGID_2460_"  overflow="visible"/>
		</clipPath>
	</g>
	<g>
		<defs>
			<polygon id="SVGID_2462_" points="226.528,39.691 193.205,181.691 324.367,181.691 355.942,39.691 			"/>
		</defs>
		<clipPath id="SVGID_16_">
			<use xlink:href="#SVGID_2462_"  overflow="visible"/>
		</clipPath>
	</g>
	<g>
		<defs>
			<polygon id="SVGID_2464_" points="226.528,39.691 193.205,181.691 324.367,181.691 355.942,39.691 			"/>
		</defs>
		<clipPath id="SVGID_17_">
			<use xlink:href="#SVGID_2464_"  overflow="visible"/>
		</clipPath>
	</g>
	<g>
		<defs>
			<polygon id="SVGID_2466_" points="226.528,39.691 193.205,181.691 324.367,181.691 355.942,39.691 			"/>
		</defs>
		<clipPath id="SVGID_19_">
			<use xlink:href="#SVGID_2466_"  overflow="visible"/>
		</clipPath>
	</g>
	<g>
		<rect x="268.289" y="156.691" fill="#A39197" width="41" height="8"/>
		<rect x="258.289" y="164.691" fill="#7E6B71" width="61" height="6"/>
	</g>
	<g>
		<defs>
			<polygon id="SVGID_2468_" points="223.978,39.691 190.654,181.691 324.367,181.691 355.942,39.691 			"/>
		</defs>
		<clipPath id="SVGID_21_">
			<use xlink:href="#SVGID_2468_"  overflow="visible"/>
		</clipPath>
		<g clip-path="url(#SVGID_21_)">
			<path fill="#7E6B71" d="M244.669,82.148c-2.72,2.093-6.624,1.586-8.717-1.135l0,0c-2.095-2.723-1.588-6.624,1.132-8.719
				l19.294-14.852c2.72-2.097,6.625-1.588,8.719,1.133l0,0c2.095,2.72,1.587,6.623-1.135,8.717L244.669,82.148z"/>
			<path fill="#7E6B71" d="M259.873,107.455l-60.014,46.203c-4.083,3.145-9.322,3.179-12.466-0.902l0,0
				c-3.142-4.08-1.766-9.137,2.314-12.281l60.017-46.204L259.873,107.455z"/>
			
				<rect x="254.317" y="67.234" transform="matrix(-0.6101 -0.7923 0.7923 -0.6101 352.3851 332.7859)" fill="#A39197" width="7.511" height="24.913"/>
			<path fill="#7E6B71" d="M270.212,115.325c-2.72,2.095-3.228,5.997-1.133,8.717l0,0c2.096,2.724,5.998,3.23,8.718,1.135
				l19.294-14.855c2.721-2.093,3.228-5.996,1.132-8.716l0,0c-2.095-2.723-5.997-3.23-8.717-1.135L270.212,115.325z"/>
			
				<rect x="272.255" y="90.536" transform="matrix(0.6103 0.7922 -0.7922 0.6103 189.1535 -178.5131)" fill="#A39197" width="7.512" height="24.912"/>
			
				<rect x="254.591" y="82.887" transform="matrix(-0.7924 0.6101 -0.6101 -0.7924 534.3689 0.7992)" opacity="0.8" fill="#7E6B71" width="24.914" height="16.908"/>
		</g>
	</g>
	<g>
		<defs>
			<polygon id="SVGID_2470_" points="102.289,39.691 102.289,181.691 190.654,181.691 223.978,39.691 			"/>
		</defs>
		<clipPath id="SVGID_23_">
			<use xlink:href="#SVGID_2470_"  overflow="visible"/>
		</clipPath>
		<path fill="#7E6B71" d="M221.278,122.208l-12.464-26.487v-0.479c1.079-0.24,1.918-1.198,1.918-2.397
			c0-1.198-0.839-2.157-1.918-2.397V89.49c1.918-0.24,3.476-1.918,3.476-3.955c0-0.719-0.24-1.438-0.599-2.037
			c-0.599-1.198-1.918-2.037-3.356-2.037s-2.637,0.839-3.356,1.918c-0.24,0.479-0.479,0.959-0.599,1.438
			c-3.236-0.839-6.112-2.517-9.228-4.434c-5.154-3.116-11.386-6.951-21.693-7.79c-0.12-0.24-0.24-0.36-0.36-0.599
			c0.479-0.959,0.719-2.277,0.719-4.075c0-2.996-1.678-7.79-2.996-9.348c-0.36-0.36-0.839-0.599-1.318-0.599
			c-0.479,0-0.959,0.24-1.318,0.599c-1.318,1.558-2.996,6.352-2.996,9.348c0,1.678,0.24,2.996,0.719,4.075
			c-0.12,0.12-0.24,0.36-0.36,0.599c-12.225,0.719-18.217,4.794-23.251,8.15c-2.637,1.798-4.914,3.356-7.67,4.075
			c-0.12-0.479-0.24-0.959-0.599-1.438c-0.719-1.198-1.918-1.918-3.356-1.918s-2.757,0.839-3.356,2.037
			c-0.36,0.599-0.599,1.318-0.599,2.037c0,2.037,1.438,3.595,3.356,3.955v0.959c-1.079,0.24-1.918,1.198-1.918,2.397
			c0,1.198,0.839,2.157,1.918,2.397v0.479l-12.225,26.487h-4.075c0,4.794,7.67,8.629,17.138,8.629s17.138-3.835,17.138-8.629h-4.434
			l-12.344-26.487v-0.479c1.079-0.24,1.918-1.198,1.918-2.397c0-1.198-0.839-2.157-1.918-2.397V89.49c0.479,0,0.959-0.12,1.318-0.36
			c5.034-0.479,8.389-2.757,11.985-5.154c4.794-3.236,10.067-6.831,21.213-7.55c0.12,0.36,0.36,0.599,0.599,0.839
			c-0.719,1.558-1.079,3.476-1.079,5.753c0,3.236,0.839,5.992,2.157,7.431v59.028c-1.318,0.719-2.157,2.157-2.157,3.715
			c0,1.079,0.36,2.157,1.079,2.876c-0.719,1.558-1.079,3.476-1.079,5.753c0,0.839,0.12,1.678,0.24,2.517
			c-7.55,0.959-13.064,4.315-13.064,8.389l0,0c-2.397,0-4.315,1.918-4.315,4.315l0,0h-1.079c-1.798,0-3.236,0.959-3.236,2.157l0,0
			c0,1.198,1.438,2.157,3.236,2.157h5.393h17.138h17.258h5.393c1.798,0,3.236-0.959,3.236-2.157l0,0
			c0-1.198-1.438-2.157-3.236-2.157h-1.079l0,0c0-2.397-1.918-4.315-4.315-4.315l0,0c0-4.075-5.633-7.431-13.064-8.389
			c0.12-0.839,0.24-1.678,0.24-2.517c0-2.157-0.36-4.195-1.079-5.753c0.719-0.719,1.079-1.798,1.079-2.876
			c0-1.558-0.839-2.996-2.157-3.715V90.568c1.318-1.438,2.157-4.315,2.157-7.431c0-2.157-0.36-4.195-1.079-5.753
			c0.24-0.24,0.36-0.479,0.599-0.839c9.228,0.719,14.861,4.195,19.775,7.191c4.195,2.517,8.15,5.034,13.423,5.393
			c0.36,0.24,0.839,0.36,1.198,0.36v0.959c-1.079,0.24-1.918,1.198-1.918,2.397c0,1.198,0.839,2.157,1.918,2.397v0.479
			l-12.584,26.487h-4.315c0,4.794,7.67,8.629,17.138,8.629s17.138-3.835,17.138-8.629H221.278L221.278,122.208z M130.313,97.879
			v24.329h-11.386L130.313,97.879z M142.657,122.208h-11.386V97.879L142.657,122.208z M132.23,92.845
			c0,0.599-0.36,1.198-0.959,1.318v-0.24h-0.959v0.24c-0.599-0.24-0.959-0.719-0.959-1.318c0-0.839,0.599-1.438,1.438-1.438
			S132.23,92.126,132.23,92.845z M220.199,122.208h-11.386V97.879L220.199,122.208z M206.896,92.845
			c0-0.839,0.599-1.438,1.438-1.438s1.438,0.599,1.438,1.438c0,0.599-0.36,1.198-0.959,1.318v-0.24h-0.959v0.24
			C207.256,94.044,206.896,93.445,206.896,92.845z M207.855,97.879v24.329h-11.386L207.855,97.879z"/>
	</g>
	<g>
		<defs>
			<polygon id="SVGID_2472_" points="462.289,39.691 355.942,39.691 324.367,181.691 462.289,181.691 			"/>
		</defs>
		<clipPath id="SVGID_25_">
			<use xlink:href="#SVGID_2472_"  overflow="visible"/>
		</clipPath>
		<g clip-path="url(#SVGID_25_)">
			<path fill="#847E7C" d="M362.749,117.495"/>
			<path opacity="0.5" fill="#7E6B71" d="M362.824,120.82c0,0,0.945-32.151,22.51-35.201c0,0,22.06-3.468,26.145,16.529
				c0,0,1.045,7.891,5.433,12.522c0,0,3.263,3.652,1.64,11.366c0,0-4.288,13.459-5.398,16.145c0,0-11.398,19.296-21.466,17.271
				c0,0-8.901,0.208-15.089-6.74c0,0-6.019-4.669-7.919-9.776c0.001,0.002-3.193-8.934-3.845-11.551
				C364.139,128.598,363.347,127.594,362.824,120.82z"/>
			<path fill="#7E6B71" d="M368.705,110.981c0,0,12.657-8.811,18.023,0.716c0,0,0.258,1.072-1.873,0.367
				c0,0-4.216-4.347-9.943-2.061c0,0-6.033,0.986-6.177,1.24"/>
			<path fill="#7E6B71" d="M396.448,112.57c0,0,3.488-3.921,7.939-3.517s0.115,0.071,0.115,0.071s4.798-0.173,9.649,4.405
				c0,0-5.529-2.827-7.597-2.805c0,0-6.428-0.275-8.84,2.373C397.714,113.096,396.404,114.164,396.448,112.57z"/>
			<g>
				<g>
					<path fill="#7E6B71" d="M383.093,129.273c-0.997,1.622-0.096,2.548,1.583,2.692c0.158,0.013,0.516,0.041,0.617-0.131
						c0.773-1.317,3.758,1.448,4.779,1.655c1.495,0.303,3.305,0.096,4.442-1.053c1.228-1.24,7.586-0.575,4.421-3.832
						c-0.213-0.22-1.121-0.068-0.966,0.092c2.375,2.444-0.966,2.139-2.511,2.477c-0.674,0.147-1.272,0.565-1.775,1.015
						c-2.376,2.123-3.204,1.01-4.668-0.022c-0.931-0.656-2.833-1.315-4.011-0.892c-0.258,0.092-0.484,0.194-0.658,0.414
						c-0.692,0.878-0.673-1.346-0.659-1.435c0.045-0.288,0.214-0.606,0.369-0.858C384.205,129.15,383.246,129.024,383.093,129.273
						L383.093,129.273z"/>
				</g>
			</g>
			<path fill="none" stroke="#7E6B71" stroke-miterlimit="10" d="M382.486,130.627c0,0-3.195,4.889,2.133,5.705
				c0,0,3.464-0.217,2.643-3.902"/>
			<path fill="#7E6B71" d="M389.201,132.991c0,0,1.89,3.455,4.001,0.476l0.849-0.531c0,0,0.529,3.966-2.846,3.822
				c0,0-3.791-0.553-2.739-4.051L389.201,132.991z"/>
			<path fill="#7E6B71" d="M395.753,132.17c0,0,0.662,2.857,3.42,1.915c0,0,2.484-1.195,1.43-4.049c0,0,0.016-1.219-2.358-1.758
				c0,0,2.533,0.243,2.934,1.828c0,0,0.788,2.054-0.94,4.108c0,0-1.113,1.412-3.486,0.561c0,0-1.648-1.509-1.398-2.681
				c0.25-1.172,0.499-0.201,0.499-0.201L395.753,132.17z"/>
			<path fill="#847E7C" d="M420.501,91.932c0,0,0.057,0.339,0.136,0.921C424.078,103.526,420.501,91.932,420.501,91.932z"/>
			<path fill="#7E6B71" d="M424.084,110.224c-2.8-3.27-3.038-8.092-3.038-8.092c0.25-3.705-0.177-7.562-0.41-9.279
				c-0.134-0.416-0.275-0.854-0.431-1.339c-4.161-12.944-14.12-16.361-14.12-16.361c-12.205-5.687-17.844-0.957-17.844-0.957
				c-10.718-3.088-20.356,10.792-20.356,10.792c-10.209,11.1-5.34,38.708-5.34,38.708l0.551-0.04
				c-0.096-0.821-0.188-1.747-0.272-2.835c0,0,0.945-32.152,22.51-35.201c0,0,22.06-3.468,26.145,16.529
				c0,0,1.045,7.891,5.433,12.522c0,0,1.335,1.507,1.87,4.612c-0.364-4.915,2.982-5.18,2.982-5.18
				c2.941-0.614,2.05-3.529,2.05-3.529S426.884,113.495,424.084,110.224z"/>
			<path opacity="0.7" fill="#7E6B71" d="M410.616,145.374l-0.954,1.956c-4.15,5.559-11.35,13.456-17.974,12.123
				c0,0-8.901,0.208-15.089-6.74c0,0-2.043-1.59-4.125-3.924c0.685,1.534,2.011,5.133,1.455,9.031
				c-0.737,5.167,0.648,0.108,0.648,0.108s28.431,27.581,28.232,30.235l10.333-22.221
				C413.141,165.942,407.133,158.126,410.616,145.374z"/>
			<path fill="none" stroke="#7E6B71" stroke-miterlimit="10" d="M373.998,155.479c0,0-3.944,5.876,18.167,4.999
				c0,0,21.689,1.219,16.91-5.251"/>
			<g>
				<g>
					<path fill="#7E6B71" d="M355.301,115.11c-1.04,1.383-1.782,3.206-1.52,4.951c0.22,1.465,1.41,2.547,2.837,2.592
						c1.205,0.038,2.447-0.198,3.411-0.957c1.782-1.403,1.034-4.254,0.45-6.029c-0.099-0.3-1.068-0.101-0.991,0.133
						c0.887,2.697,1.126,6.685-2.75,6.427c-1.437-0.096-2.102-2.13-2.01-3.471c0.088-1.286,0.775-2.647,1.543-3.668
						C356.406,114.908,355.485,114.866,355.301,115.11L355.301,115.11z"/>
				</g>
			</g>
			<path fill="#7E6B71" d="M361.72,112.508"/>
			<path fill="none" stroke="#7E6B71" stroke-miterlimit="10" d="M421.354,115.814c0,0-3.9,8.455,5.286,6.801
				c0,0,3.83-3.726-1.056-6.8"/>
			<path opacity="0.2" fill="#7E6B71" d="M403.019,186.159c0,0-15.743-20.85-31.114-29.258c0,0-10.359-1.244-9.821,5.121
				l21.746,20.314L403.019,186.159z"/>
			<path opacity="0.5" fill="#847E7C" d="M362.083,162.022c0.01,0.122,0.017,0.241,0.035,0.368c0,0-0.021,0.005-0.055,0.013
				c3.601,4.162,12.493,14.033,20.511,19.683l1.255,0.25L362.083,162.022z"/>
			<path fill="#A39197" d="M382.575,181.691c-8.018-6-16.91-15.323-20.511-19.485c-0.383,0.09-2.714,0.582-3.392,1.718
				l13.802,17.767H382.575z"/>
			<path fill="#C2BEBB" d="M358.532,164.582c-0.064,0.223-0.07,0.485,0.017,0.744c0,0-6.744,5.365,3.514,16.365h7.145
				C365.043,177.691,360.748,168.15,358.532,164.582z"/>
			<path fill="#7E6B71" d="M358.671,164.221c-0.06,0.101-0.108,0.206-0.139,0.316c2.216,3.568,6.511,12.916,10.676,17.624
				l3.265-0.075L358.671,164.221z"/>
			<path opacity="0.2" fill="#7E6B71" d="M425.18,168.546c-5.889-9.531-11.918-2.68-11.918-2.68l-0.167,0.319l-10.575,22.593
				l16.56,3.176C418.999,186.582,423.536,173.207,425.18,168.546z"/>
			<path opacity="0.2" fill="#7E6B71" d="M455.563,188.304l-4.599-7.77c-13.658-19.978-15.881-9.429-15.881-9.429
				c-6.762-9.916-8.844-0.667-8.844-0.667c-0.1-0.199-0.201-0.378-0.302-0.566c0.237,5.743,0.293,18.198-3.289,22.767l30.978,5.942
				L455.563,188.304z"/>
			<path fill="#C6BFBD" d="M425.937,169.872c-0.252-0.471-0.504-0.917-0.757-1.326c-1.644,4.661-6.181,18.036-6.099,23.409
				l3.568,0.684C426.23,188.07,426.174,175.615,425.937,169.872z"/>
			<path fill="#A39197" d="M434.039,169.761c0,0,12.328,17.927,7.983,28.556c-4.345,10.629-12.654-29.258-15.027-29.19
				C424.623,169.195,430.774,161.885,434.039,169.761z"/>
			<path fill="#7E6B71" d="M356.61,120.251"/>
			<g>
				<path fill="none" d="M360.67,121.042l-2.551,1.805C359.143,122.165,360.006,121.541,360.67,121.042z"/>
				<path opacity="0.6" fill="#7E6B71" d="M364.668,130.785c0,0-1.898-9.032-2.607-10.829c0,0-0.025,0.02-0.038,0.031l-0.639-9.042
					c0,0-7.351-0.153-3.897,10.464l0.631,1.438l2.551-1.805c-0.664,0.499-1.527,1.123-2.551,1.805l1.522,4.834
					c0,0,1.081,0.629,2.022,3.262C361.663,130.943,363.83,136.844,364.668,130.785z"/>
			</g>
			<g>
				<path fill="none" d="M423.211,122.97l-1.838-0.553C421.85,122.664,422.452,122.856,423.211,122.97z"/>
				<path opacity="0.6" fill="#7E6B71" d="M426.915,121.957c-0.441-7.257-4.116-8.133-4.116-8.133
					c-1.372-0.83-7.623-0.228-2.863,0.799l-1.465,2.773l0.356,3.955c-0.119,1.295-0.508,5.148-1.091,7.059
					c0,0-1.439,4.746-2.214,6.812c0,0,3.57,3.31,3.53-1.52c0,0,7.237-3.246,7.06-9.858l0.01,0.003l-0.009-0.044 M421.373,122.416
					l1.838,0.553C422.452,122.856,421.85,122.664,421.373,122.416z"/>
			</g>
			<path fill="#A39197" d="M356.846,168.817c0,0-9.566,1.874-5.458,12.874h13.258C364.646,181.691,359.411,182.496,356.846,168.817z
				"/>
		</g>
	</g>
</g>
</svg>
