<?xml version="1.0" encoding="utf-8"?>
<!-- Generator: Adobe Illustrator 17.0.0, SVG Export Plug-In . SVG Version: 6.00 Build 0)  -->
<!DOCTYPE svg PUBLIC "-//W3C//DTD SVG 1.1//EN" "http://www.w3.org/Graphics/SVG/1.1/DTD/svg11.dtd">
<svg version="1.1" id="Layer_1" xmlns="http://www.w3.org/2000/svg" xmlns:xlink="http://www.w3.org/1999/xlink" x="0px" y="0px"
	 width="581.238px" height="253.981px" viewBox="0 0 581.238 253.981" enable-background="new 0 0 581.238 253.981"
	 xml:space="preserve">
<rect x="78.289" y="42.691" fill="#FFFFFF" width="397" height="156"/>
<g>
	<defs>
		<polygon id="SVGID_22_" points="-590.711,-280.309 -590.711,-76.309 -407.923,-76.309 -353.486,-280.309 		"/>
	</defs>
	<clipPath id="SVGID_2_">
		<use xlink:href="#SVGID_22_"  overflow="visible"/>
	</clipPath>
	<g clip-path="url(#SVGID_2_)">
	</g>
</g>
<g>
	<defs>
		<polygon id="SVGID_2078_" points="-591.217,18.93 -591.217,224.411 -412.041,224.411 -356.623,19.888 		"/>
	</defs>
	<clipPath id="SVGID_4_">
		<use xlink:href="#SVGID_2078_"  overflow="visible"/>
	</clipPath>
	<g clip-path="url(#SVGID_4_)">
		<defs>
			<rect id="SVGID_2080_" x="-712.695" y="-1844.685" width="1923.24" height="3789.385"/>
		</defs>
		<clipPath id="SVGID_6_">
			<use xlink:href="#SVGID_2080_"  overflow="visible"/>
		</clipPath>
	</g>
</g>
<g>
	<polygon opacity="0.3" fill="#7E6B71" points="212.795,42.691 176.042,198.691 323.515,198.691 358.339,42.691 	"/>
	<polygon opacity="0.2" fill="#7E6B71" points="78.289,42.691 78.289,198.691 176.042,198.691 212.795,42.691 	"/>
	<polygon opacity="0.4" fill="#7E6B71" points="475.289,42.691 358.339,42.691 323.515,198.691 475.289,198.691 	"/>
	<g>
		<defs>
			<polygon id="SVGID_2454_" points="78.289,42.691 78.289,198.691 176.042,198.691 212.795,42.691 			"/>
		</defs>
		<clipPath id="SVGID_8_">
			<use xlink:href="#SVGID_2454_"  overflow="visible"/>
		</clipPath>
	</g>
	<path fill="#7E6B71" d="M307.048,199.281c-23.893,0-47.787,0-71.68,0c1.105-0.806,2.258-1.556,3.309-2.427
		c5.405-4.481,7.565-10.908,4.48-17.726c-0.245,0.02-0.514,0.023-0.777,0.067c-4.195,0.695-8.39,1.385-12.582,2.097
		c-3.282,0.558-6.499,0.579-9.498-1.138c-3.627-2.076-4.913-4.135-3.943-7.732c0.321-1.19,0.552-2.405,0.812-3.612
		c0.22-1.021,0.101-1.93-0.639-2.776c-0.764-0.874-1.423-1.847-2.075-2.812c-1.714-2.537-2.287-5.212-1.14-8.19
		c0.385-1,0.462-2.141,0.543-3.228c0.106-1.423-0.011-1.48-1.422-1.875c-2.343-0.656-4.697-1.276-6.65-2.863
		c-0.888-0.722-1.198-1.6-0.841-2.642c0.432-1.261,0.847-2.555,1.492-3.711c2.554-4.578,5.037-9.209,7.874-13.609
		c1.258-1.951,1.556-3.364,0.255-5.359c-1.587-2.433-2.25-5.233-1.818-8.167c0.474-3.218,0.885-6.459,1.619-9.621
		c1.237-5.33,3.313-10.373,5.776-15.257c1.495-2.964,3.363-5.677,5.745-7.969c5.527-5.319,12.317-8.08,19.766-9.372
		c2.461-0.427,4.951-0.684,7.428-1.018c2.884,0,5.767,0,8.651,0c0.437,0.068,0.871,0.154,1.31,0.203
		c2.897,0.322,5.826,0.464,8.685,0.986c7.759,1.417,14.471,5.039,20.225,10.357c5.087,4.701,8.966,10.298,11.823,16.639
		c3.039,6.746,3.822,13.726,2.845,21.004c-0.945,7.046-2.937,13.77-6.467,19.925c-3.064,5.344-6.502,10.474-9.781,15.694
		c-1.572,2.503-3.168,5.024-3.52,8.027c-0.452,3.861,0.397,7.58,1.697,11.186c2.396,6.654,6.354,12.351,11.097,17.512
		C302.007,194.442,304.575,196.818,307.048,199.281z M281.33,117.812c1.344-2.03,2.608-3.972,3.924-5.877
		c0.123-0.178,0.592-0.221,0.872-0.17c1.169,0.214,2.328,0.489,3.592,0.763c0.495-2.155,0.986-4.216,1.413-6.289
		c0.035-0.172-0.322-0.558-0.56-0.628c-0.919-0.269-1.858-0.479-2.801-0.651c-0.592-0.108-0.705-0.42-0.785-0.978
		c-0.271-1.893-0.594-3.783-1.001-5.651c-0.135-0.617-0.059-0.924,0.48-1.238c1.02-0.594,2-1.259,3.021-1.91
		c-1.136-1.836-2.211-3.546-3.254-5.275c-0.273-0.453-0.529-0.546-0.986-0.252c-1.034,0.666-2.091,1.296-2.992,1.851
		c-2.068-1.483-4.032-2.891-6.1-4.373c0.234-0.978,0.5-2.109,0.778-3.236c0.117-0.476,0.167-0.85-0.49-0.989
		c-1.744-0.371-3.476-0.792-5.212-1.202c-0.622-0.147-1.039-0.081-1.145,0.696c-0.111,0.812-0.39,1.6-0.513,2.412
		c-0.111,0.734-0.421,0.968-1.196,1.049c-1.797,0.188-3.595,0.48-5.351,0.902c-0.747,0.179-1.105,0.12-1.475-0.544
		c-0.559-1.002-1.214-1.95-1.838-2.937c-2.033,1.28-3.932,2.476-5.873,3.698c0.682,1.091,1.255,2.063,1.887,2.996
		c0.338,0.499,0.333,0.809-0.072,1.327c-1.175,1.502-2.271,3.07-3.324,4.661c-0.342,0.516-0.631,0.7-1.235,0.542
		c-1.119-0.294-2.256-0.517-3.496-0.793c-0.504,2.149-1.011,4.24-1.455,6.344c-0.033,0.158,0.353,0.529,0.601,0.598
		c0.956,0.267,1.952,0.396,2.895,0.699c0.305,0.098,0.639,0.541,0.706,0.877c0.378,1.905,0.656,3.83,1.022,5.738
		c0.104,0.54,0.092,0.868-0.454,1.17c-1.038,0.575-2.023,1.247-3.106,1.927c1.261,2.016,2.455,3.926,3.683,5.889
		c1.106-0.689,2.132-1.366,3.199-1.966c0.248-0.139,0.732-0.152,0.952,0.001c1.679,1.166,3.333,2.37,4.957,3.612
		c0.249,0.19,0.456,0.661,0.413,0.964c-0.145,1.015-0.437,2.008-0.613,3.02c-0.039,0.223,0.126,0.672,0.273,0.708
		c2.084,0.508,4.18,0.962,6.339,1.444c0.125-0.606,0.207-1.11,0.335-1.601c0.225-0.859,0.267-1.894,0.793-2.501
		c0.353-0.408,1.41-0.205,2.152-0.276c0.034-0.003,0.068-0.009,0.102-0.016c1.631-0.322,3.262-0.644,4.916-0.971
		c0.726,1.138,1.475,2.312,2.285,3.583c1.994-1.241,3.896-2.425,5.878-3.659C282.671,119.994,281.939,118.803,281.33,117.812z
		 M264.361,129.089c-0.847,1.325-1.611,2.52-2.394,3.746c0.788,0.562,1.837,0.927,2.076,1.586c0.256,0.708-0.262,1.689-0.417,2.555
		c-0.084,0.472-0.039,0.98-0.196,1.421c-0.112,0.314-0.417,0.676-0.719,0.782c-0.632,0.222-1.319,0.29-2.099,0.445
		c0.326,1.474,0.633,2.862,0.947,4.277c0.361-0.025,0.633-0.023,0.899-0.065c1.848-0.293,1.676-0.155,2.888,1.32
		c1.282,1.56,1.981,2.879-0.008,4.471c1.403,0.905,2.616,1.688,3.837,2.476c0.184-0.231,0.277-0.332,0.352-0.444
		c1.199-1.789,1.195-1.776,3.218-1.296c0.496,0.118,1.019,0.173,1.529,0.171c0.805-0.003,1.268,0.252,1.326,1.148
		c0.036,0.557,0.275,1.101,0.435,1.693c0.949-0.18,1.791-0.316,2.622-0.501c1.941-0.432,1.788-0.079,1.319-2.063
		c-0.188-0.795-0.111-1.283,0.721-1.595c0.503-0.189,0.961-0.528,1.401-0.852c1.573-1.158,1.559-1.153,3.302-0.172
		c0.235,0.132,0.77,0.177,0.862,0.047c0.761-1.076,1.45-2.202,2.173-3.332c-0.283-0.218-0.47-0.366-0.661-0.507
		c-1.563-1.155-1.333-1.132-1.146-3.053c0.199-2.047,0.715-3.418,3.191-3.142c-0.354-1.603-0.662-2.992-0.987-4.464
		c-0.757,0.143-1.42,0.323-2.094,0.372c-0.31,0.022-0.773-0.117-0.936-0.347c-0.785-1.11-1.492-2.276-2.255-3.466
		c0.422-0.707,0.873-1.462,1.376-2.305c-1.248-0.814-2.439-1.59-3.683-2.401c-0.455,0.666-0.794,1.267-1.241,1.77
		c-0.211,0.237-0.652,0.437-0.954,0.396c-1.114-0.151-2.22-0.38-3.313-0.647c-0.296-0.072-0.655-0.329-0.773-0.595
		c-0.296-0.668-0.277-1.731-0.747-1.997c-0.512-0.29-1.431,0.139-2.173,0.254c-0.034,0.005-0.067,0.013-0.101,0.021
		c-2.138,0.525-1.98,0.076-1.463,2.241c0.157,0.657,0.087,1.037-0.578,1.392c-0.898,0.48-1.732,1.1-2.528,1.74
		c-0.459,0.368-0.813,0.41-1.275,0.081C265.548,129.856,264.979,129.499,264.361,129.089z"/>
	<path opacity="0.7" fill="#A39197" d="M281.33,117.812c0.609,0.991,1.341,2.182,2.14,3.482c-1.982,1.234-3.884,2.418-5.878,3.659
		c-0.811-1.271-1.56-2.446-2.285-3.583c-1.654,0.327-3.285,0.649-4.916,0.971c-0.034,0.007-0.068,0.012-0.102,0.016
		c-0.742,0.071-1.799-0.131-2.152,0.276c-0.526,0.608-0.568,1.642-0.793,2.501c-0.128,0.491-0.21,0.995-0.335,1.601
		c-2.159-0.482-4.255-0.936-6.339-1.444c-0.146-0.036-0.311-0.485-0.273-0.708c0.176-1.012,0.468-2.005,0.613-3.02
		c0.043-0.303-0.165-0.774-0.413-0.964c-1.624-1.242-3.278-2.445-4.957-3.612c-0.22-0.153-0.704-0.14-0.952-0.001
		c-1.068,0.601-2.093,1.277-3.199,1.966c-1.228-1.963-2.422-3.873-3.683-5.889c1.083-0.68,2.068-1.352,3.106-1.927
		c0.546-0.302,0.558-0.63,0.454-1.17c-0.366-1.908-0.644-3.833-1.022-5.738c-0.067-0.336-0.4-0.779-0.706-0.877
		c-0.942-0.303-1.939-0.432-2.895-0.699c-0.248-0.069-0.634-0.441-0.601-0.598c0.444-2.104,0.951-4.194,1.455-6.344
		c1.24,0.277,2.377,0.5,3.496,0.793c0.604,0.159,0.893-0.025,1.235-0.542c1.053-1.591,2.149-3.159,3.324-4.661
		c0.405-0.518,0.41-0.827,0.072-1.327c-0.632-0.932-1.205-1.905-1.887-2.996c1.941-1.222,3.84-2.418,5.873-3.698
		c0.624,0.987,1.278,1.935,1.838,2.937c0.37,0.663,0.728,0.723,1.475,0.544c1.756-0.422,3.554-0.714,5.351-0.902
		c0.774-0.081,1.084-0.316,1.196-1.049c0.123-0.811,0.402-1.6,0.513-2.412c0.106-0.777,0.523-0.843,1.145-0.696
		c1.735,0.41,3.468,0.831,5.212,1.202c0.657,0.14,0.607,0.513,0.49,0.989c-0.278,1.128-0.543,2.258-0.778,3.236
		c2.068,1.483,4.032,2.891,6.1,4.373c0.901-0.555,1.958-1.185,2.992-1.851c0.457-0.294,0.713-0.201,0.986,0.252
		c1.044,1.728,2.118,3.439,3.254,5.275c-1.021,0.651-2.001,1.316-3.021,1.91c-0.539,0.314-0.614,0.621-0.48,1.238
		c0.407,1.868,0.73,3.758,1.001,5.651c0.08,0.559,0.193,0.87,0.785,0.978c0.943,0.172,1.882,0.383,2.801,0.651
		c0.238,0.07,0.595,0.456,0.56,0.628c-0.427,2.073-0.918,4.134-1.413,6.289c-1.264-0.274-2.423-0.549-3.592-0.763
		c-0.28-0.051-0.749-0.008-0.872,0.17C283.938,113.841,282.674,115.782,281.33,117.812z M268.615,91.695
		c-6.837,0.024-12.512,5.646-12.422,12.446c0.093,7.029,5.524,12.479,12.538,12.45c6.857-0.028,12.354-5.508,12.357-12.511
		C281.089,97.241,275.459,91.67,268.615,91.695z"/>
	<path opacity="0.5" fill="#C4B8BD" d="M264.361,129.089c0.618,0.41,1.187,0.767,1.734,1.156c0.462,0.329,0.817,0.287,1.275-0.081
		c0.797-0.64,1.63-1.26,2.528-1.74c0.665-0.355,0.735-0.735,0.578-1.392c-0.517-2.165-0.676-1.716,1.463-2.241
		c0.033-0.008,0.067-0.016,0.101-0.021c0.742-0.116,1.661-0.544,2.173-0.254c0.469,0.266,0.451,1.329,0.747,1.997
		c0.118,0.266,0.477,0.523,0.773,0.595c1.093,0.267,2.199,0.496,3.313,0.647c0.302,0.041,0.743-0.159,0.954-0.396
		c0.447-0.503,0.786-1.103,1.241-1.77c1.244,0.811,2.435,1.587,3.683,2.401c-0.504,0.843-0.954,1.598-1.376,2.305
		c0.763,1.19,1.47,2.356,2.255,3.466c0.163,0.23,0.626,0.37,0.936,0.347c0.673-0.049,1.337-0.229,2.094-0.372
		c0.326,1.472,0.633,2.861,0.987,4.464c-2.476-0.275-2.991,1.095-3.191,3.142c-0.187,1.92-0.417,1.898,1.146,3.053
		c0.191,0.142,0.378,0.29,0.661,0.507c-0.723,1.13-1.412,2.257-2.173,3.332c-0.092,0.13-0.627,0.085-0.862-0.047
		c-1.742-0.982-1.728-0.987-3.302,0.172c-0.44,0.324-0.897,0.663-1.401,0.852c-0.832,0.312-0.908,0.8-0.721,1.595
		c0.469,1.984,0.622,1.631-1.319,2.063c-0.831,0.185-1.673,0.321-2.622,0.501c-0.159-0.592-0.398-1.136-0.435-1.693
		c-0.058-0.896-0.521-1.151-1.326-1.148c-0.51,0.002-1.033-0.053-1.529-0.171c-2.023-0.481-2.02-0.493-3.218,1.296
		c-0.075,0.112-0.168,0.213-0.352,0.444c-1.221-0.788-2.435-1.571-3.837-2.476c1.989-1.592,1.29-2.911,0.008-4.471
		c-1.212-1.475-1.04-1.613-2.888-1.32c-0.265,0.042-0.538,0.04-0.899,0.065c-0.313-1.415-0.62-2.803-0.947-4.277
		c0.78-0.154,1.467-0.222,2.099-0.445c0.301-0.106,0.607-0.468,0.719-0.782c0.157-0.44,0.112-0.949,0.196-1.421
		c0.155-0.866,0.673-1.847,0.417-2.555c-0.238-0.658-1.288-1.023-2.076-1.586C262.75,131.609,263.514,130.414,264.361,129.089z
		 M267.217,138.913c0.04,4.448,3.569,7.939,8.007,7.92c4.487-0.019,8.014-3.596,7.958-8.07c-0.056-4.419-3.639-7.918-8.056-7.867
		C270.68,130.948,267.177,134.499,267.217,138.913z"/>
	<path fill="#7E6B71" d="M268.615,91.695c6.844-0.024,12.474,5.547,12.472,12.385c-0.002,7.003-5.5,12.483-12.357,12.511
		c-7.013,0.028-12.445-5.421-12.538-12.45C256.103,97.34,261.778,91.719,268.615,91.695z"/>
	<path fill="#7E6B71" d="M267.217,138.913c-0.04-4.414,3.463-7.966,7.908-8.017c4.417-0.051,8,3.448,8.056,7.867
		c0.057,4.473-3.47,8.05-7.958,8.07C270.786,146.852,267.257,143.362,267.217,138.913z"/>
	<path opacity="0.26" fill="#FFFFFF" d="M241.145,123.892c0.442,0.293,0.848,0.548,1.239,0.826c0.33,0.235,0.583,0.205,0.911-0.058
		c0.569-0.457,1.165-0.9,1.806-1.243c0.475-0.254,0.525-0.525,0.413-0.994c-0.37-1.546-0.483-1.226,1.045-1.601
		c0.024-0.006,0.048-0.011,0.072-0.015c0.53-0.083,1.186-0.389,1.552-0.182c0.335,0.19,0.322,0.949,0.533,1.426
		c0.084,0.19,0.341,0.374,0.552,0.425c0.78,0.191,1.571,0.354,2.366,0.462c0.216,0.029,0.531-0.113,0.681-0.283
		c0.32-0.359,0.561-0.788,0.887-1.264c0.889,0.58,1.739,1.134,2.631,1.715c-0.36,0.602-0.682,1.141-0.983,1.646
		c0.545,0.85,1.05,1.683,1.611,2.476c0.116,0.164,0.447,0.264,0.668,0.248c0.481-0.035,0.955-0.163,1.495-0.266
		c0.233,1.051,0.452,2.044,0.705,3.189c-1.769-0.197-2.137,0.782-2.279,2.245c-0.134,1.372-0.298,1.356,0.818,2.18
		c0.137,0.101,0.27,0.207,0.472,0.362c-0.516,0.807-1.009,1.612-1.552,2.38c-0.066,0.093-0.448,0.061-0.616-0.034
		c-1.244-0.701-1.235-0.705-2.358,0.123c-0.314,0.231-0.641,0.474-1,0.609c-0.594,0.223-0.649,0.572-0.515,1.14
		c0.335,1.417,0.444,1.165-0.942,1.474c-0.594,0.132-1.195,0.23-1.873,0.358c-0.114-0.423-0.285-0.811-0.31-1.209
		c-0.041-0.64-0.372-0.822-0.947-0.82c-0.365,0.001-0.738-0.038-1.092-0.122c-1.445-0.343-1.443-0.352-2.299,0.926
		c-0.054,0.08-0.12,0.152-0.251,0.317c-0.872-0.563-1.739-1.122-2.741-1.768c1.421-1.137,0.921-2.079,0.006-3.193
		c-0.866-1.054-0.743-1.152-2.063-0.943c-0.189,0.03-0.384,0.029-0.642,0.047c-0.224-1.011-0.443-2.002-0.676-3.055
		c0.557-0.11,1.048-0.159,1.499-0.318c0.215-0.076,0.433-0.334,0.513-0.559c0.112-0.315,0.08-0.678,0.14-1.015
		c0.111-0.619,0.481-1.32,0.298-1.825c-0.17-0.47-0.92-0.731-1.483-1.133C239.994,125.692,240.54,124.838,241.145,123.892z"/>
	<path fill="#7E6B71" d="M243.185,130.909c-0.028-3.153,2.474-5.69,5.649-5.727c3.155-0.036,5.715,2.463,5.755,5.619
		c0.04,3.195-2.479,5.75-5.684,5.764C245.735,136.58,243.214,134.086,243.185,130.909z"/>
	<g>
		<defs>
			<polygon id="SVGID_2456_" points="78.289,42.691 78.289,198.691 176.042,198.691 212.795,42.691 			"/>
		</defs>
		<clipPath id="SVGID_10_">
			<use xlink:href="#SVGID_2456_"  overflow="visible"/>
		</clipPath>
		<g clip-path="url(#SVGID_10_)">
			<path opacity="0.7" fill="#A39197" d="M79.36,108.723c8.582-2.082,13.832-8.05,17.918-15.371c0.08-0.143,0.177-0.335,0.143-0.472
				c-2.836-11.305,8.025-15.574,12.203-23.25c1.5-2.757,2.233-4.109-0.467-6.026c-1.9-1.348-3.687-2.86-5.483-4.348
				c-1.157-0.958-2.489-1.992-1.96-3.724c0.62-2.031,2.512-1.869,4.163-1.978c0.497-0.033,1,0.005,1.5,0.014
				c18.164,0.32,36.328,0.677,54.492,0.928c3.16,0.044,5.773,1,8.251,2.946c14.29,11.217,28.658,22.336,42.961,33.536
				c1.618,1.267,4.166,2.4,3.036,5.064c-0.961,2.266-3.442,1.653-5.36,1.623c-18.165-0.285-36.329-0.646-54.494-0.958
				c-2.552-0.044-4.982-0.363-7.074-1.995c-7.096-5.536-14.201-11.06-21.294-16.598c-0.651-0.508-1.34-1.027-1.287-2.375
				c3.066-1.138,6.409-0.758,9.65-0.891c7.16-0.292,14.327-0.394,21.49-0.607c2.158-0.064,4.833,0.136,4.811-2.951
				c-0.02-2.753-2.516-2.73-4.512-2.717c-11.832,0.08-23.678,0.183-35.45,1.431c-9.187,0.974-14.094,7.113-13.87,16.586
				c0.033,1.376-0.037,2.864-1.011,3.771c-3.94,3.668-4.553,8.762-6.034,13.482c-1.159,3.694-2.574,7.238-5.331,10.061
				c-5.024,5.144-9.647,5.064-14.47-0.169c-1.007-1.092-2.122-2.085-3.187-3.123C78.915,109.981,79.137,109.352,79.36,108.723z"/>
			<path opacity="0.7" fill="#A39197" d="M142.3,121.54c-9.817-3.322-19.047-8.125-26.678-15.661
				c-2.921-2.884-5.005-5.583-1.337-9.684c2.291-2.561,2.465-6.134,1.179-9.488c-0.934-2.435-0.738-4.79,1.255-6.384
				c2.389-1.912,3.967,0.595,5.541,1.786c6.636,5.02,13.377,9.936,19.669,15.365c4.982,4.298,10.342,6.062,16.873,5.873
				c8.475-0.244,16.971,0.166,25.457,0.381c5.461,0.138,5.931,0.841,4.362,5.885c-0.296,0.953-0.645,1.89-0.975,2.833
				c-4.391,12.538-7.837,14.888-21.309,14.327C158.114,126.429,150.196,124.576,142.3,121.54z"/>
		</g>
		<g clip-path="url(#SVGID_10_)">
			<path fill="#7E6B71" d="M110.313,183.882c-15.877,0-31.755,0.003-47.632-0.002c-3.345-0.001-3.41-0.068-3.411-3.387
				c-0.004-22.439-0.004-44.878,0-67.317c0.001-3.32,0.065-3.388,3.41-3.388c31.674-0.004,63.348-0.004,95.022,0
				c3.375,0,3.383,0.015,3.383,3.266c0.003,22.52,0.003,45.04,0,67.56c0,3.252-0.009,3.266-3.383,3.267
				C141.906,183.884,126.11,183.882,110.313,183.882z M110.102,179.615c14.418,0,28.836,0.004,43.254-0.003
				c3.398-0.002,3.407-0.018,3.407-3.268c0.003-19.683,0.003-39.366,0-59.049c0-3.214-0.01-3.238-3.192-3.239
				c-28.836-0.007-57.672-0.007-86.508,0c-3.505,0.001-3.524,0.029-3.525,3.51c-0.005,19.521-0.005,39.042,0,58.563
				c0.001,3.453,0.022,3.48,3.553,3.482C81.428,179.619,95.765,179.614,110.102,179.615z"/>
			<path fill="#7E6B71" d="M133.163,174.73c0-3.441-0.062-6.883,0.025-10.322c0.045-1.796-0.378-3.13-1.79-4.448
				c-3.789-3.537-3.719-9.391-0.084-13.028c3.499-3.501,9.332-3.536,12.927-0.079c3.696,3.554,3.849,9.438,0.095,13.008
				c-1.449,1.378-1.98,2.756-1.897,4.657c0.113,2.582,0.05,5.173,0.011,7.759c-0.011,0.762,0.266,1.623-0.649,2.423
				c-0.994-1.273-1.996-2.509-2.942-3.786c-0.73-0.985-1.363-0.952-2.075,0.009c-0.991,1.338-2.021,2.647-3.034,3.969
				C133.555,174.838,133.359,174.784,133.163,174.73z"/>
			<path fill="#7E6B71" d="M109.136,126.854c-11.423,0-22.845,0-34.268-0.001c-0.729,0-1.46,0.013-2.187-0.029
				c-1.067-0.06-1.986-0.422-1.925-1.685c0.055-1.149,0.995-1.355,1.928-1.42c0.646-0.045,1.295-0.037,1.943-0.037
				c23.007-0.002,46.015-0.014,69.022,0.029c1.391,0.003,3.69-0.718,3.763,1.439c0.082,2.45-2.327,1.663-3.765,1.67
				C132.143,126.88,120.639,126.854,109.136,126.854z"/>
			<path fill="#7E6B71" d="M106.982,137.693c-8.584,0-17.168,0.001-25.753-0.002c-0.728,0-1.46,0.003-2.184-0.06
				c-0.925-0.08-1.533-0.559-1.481-1.557c0.045-0.858,0.592-1.301,1.424-1.36c0.645-0.046,1.295-0.044,1.942-0.044
				c17.492-0.002,34.985-0.002,52.477-0.001c0.486,0,0.972,0.003,1.458,0.013c0.989,0.021,1.836,0.35,1.86,1.464
				c0.025,1.125-0.816,1.479-1.805,1.516c-0.728,0.027-1.457,0.03-2.186,0.03C124.15,137.693,115.566,137.693,106.982,137.693z"/>
			<path fill="#7E6B71" d="M97.451,152.857c4.927,0,9.854-0.018,14.781,0.014c1.088,0.007,2.554-0.192,2.638,1.394
				c0.091,1.715-1.383,1.74-2.604,1.742c-9.935,0.018-19.87,0.018-29.805-0.001c-1.121-0.002-2.436,0.047-2.475-1.595
				c-0.041-1.757,1.367-1.531,2.441-1.538C87.435,152.837,92.443,152.857,97.451,152.857z"/>
			<path fill="#7E6B71" d="M97.215,166.575c-4.932,0-9.864,0.02-14.796-0.016c-1.082-0.008-2.469,0.185-2.445-1.558
				c0.023-1.684,1.354-1.573,2.464-1.575c9.945-0.019,19.89-0.018,29.835-0.001c1.214,0.002,2.696-0.035,2.605,1.719
				c-0.083,1.595-1.533,1.412-2.625,1.419C107.241,166.592,102.228,166.575,97.215,166.575z"/>
			<rect x="61.996" y="112.284" opacity="0.5" fill="#C4B8BD" width="95.253" height="68.737"/>
		</g>
	</g>
	<g>
		<g opacity="0.7">
			<path fill="#A39197" d="M369.743,152.472c-0.669-0.054-1.337-0.121-2.007-0.159c-3.993-0.226-7.968-0.615-11.862-1.553
				c-1.623-0.391-3.203-0.964-4.804-1.447c-0.447-0.135-0.681-0.404-0.79-0.877c-0.844-3.66-1.035-7.341-0.418-11.053
				c0.331-1.995,0.952-3.889,2.037-5.609c1.247-1.976,2.984-3.357,5.185-4.131c2.798-0.985,5.524-2.114,7.985-3.801
				c0.489-0.335,0.956-0.703,1.494-1.101c4.351,4.27,8.765,4.283,13.139-0.02c1.51,1.273,3.125,2.258,4.853,3.04
				c1.423,0.645,2.869,1.254,4.342,1.773c3.267,1.149,5.417,3.382,6.613,6.586c1.372,3.675,1.469,7.467,0.988,11.303
				c-0.122,0.976-0.361,1.937-0.507,2.911c-0.086,0.576-0.418,0.835-0.934,1.032c-2.454,0.937-4.984,1.59-7.574,1.971
				c-2.368,0.349-4.754,0.591-7.135,0.841c-1.12,0.118-2.25,0.141-3.375,0.213c-0.154,0.01-0.305,0.051-0.458,0.078
				C374.257,152.472,372,152.472,369.743,152.472z"/>
			<path fill="#A39197" d="M372.188,93.607c1.121,0.338,2.26,0.625,3.358,1.025c2.051,0.748,3.983,1.737,5.697,3.111
				c1.6,1.282,2.402,2.943,2.266,5c-0.099,1.497-0.259,2.991-0.417,4.483c-0.034,0.322-0.029,0.573,0.265,0.773
				c0.529,0.361,0.559,0.925,0.506,1.477c-0.129,1.351-0.481,2.625-1.152,3.834c-0.371,0.668-0.48,1.478-0.738,2.214
				c-1.026,2.926-2.558,5.493-5.187,7.283c-2.241,1.526-5.021,1.529-7.284,0.024c-2.166-1.441-3.697-3.405-4.731-5.756
				c-0.451-1.025-0.734-2.124-1.119-3.179c-0.138-0.378-0.356-0.727-0.534-1.091c-0.578-1.185-0.901-2.429-0.883-3.754
				c0.006-0.412,0.113-0.773,0.466-1.025c0.305-0.218,0.31-0.498,0.278-0.857c-0.151-1.681-0.323-3.365-0.36-5.051
				c-0.04-1.815,0.794-3.315,1.992-4.627c1.496-1.637,3.31-2.802,5.37-3.595c0.318-0.122,0.655-0.194,0.983-0.289
				C371.373,93.607,371.78,93.607,372.188,93.607z"/>
		</g>
		<g>
			<path fill="#7E6B71" d="M431.72,152.154c-0.669-0.054-1.337-0.121-2.007-0.159c-3.993-0.226-7.968-0.615-11.862-1.553
				c-1.623-0.391-3.203-0.964-4.804-1.447c-0.447-0.135-0.681-0.404-0.79-0.877c-0.844-3.66-1.035-7.341-0.418-11.053
				c0.331-1.995,0.952-3.889,2.037-5.609c1.247-1.976,2.984-3.357,5.185-4.131c2.798-0.985,5.524-2.114,7.985-3.801
				c0.489-0.335,0.956-0.703,1.494-1.101c4.351,4.27,8.765,4.283,13.139-0.02c1.51,1.273,3.125,2.258,4.853,3.04
				c1.423,0.645,2.869,1.254,4.342,1.773c3.267,1.149,5.417,3.382,6.613,6.586c1.372,3.675,1.469,7.467,0.988,11.303
				c-0.122,0.976-0.361,1.937-0.507,2.911c-0.086,0.576-0.418,0.835-0.934,1.032c-2.454,0.937-4.984,1.59-7.574,1.971
				c-2.368,0.349-4.754,0.591-7.135,0.841c-1.12,0.118-2.25,0.141-3.375,0.213c-0.154,0.01-0.305,0.051-0.458,0.078
				C436.234,152.154,433.977,152.154,431.72,152.154z"/>
			<path fill="#7E6B71" d="M434.165,93.29c1.121,0.338,2.26,0.625,3.358,1.025c2.051,0.748,3.983,1.737,5.697,3.111
				c1.6,1.282,2.402,2.943,2.266,5c-0.099,1.497-0.259,2.991-0.417,4.483c-0.034,0.322-0.029,0.573,0.265,0.773
				c0.529,0.361,0.559,0.925,0.506,1.477c-0.129,1.351-0.481,2.625-1.152,3.834c-0.371,0.668-0.48,1.478-0.738,2.214
				c-1.026,2.926-2.558,5.493-5.187,7.283c-2.241,1.526-5.021,1.529-7.284,0.024c-2.166-1.441-3.697-3.405-4.731-5.756
				c-0.451-1.025-0.734-2.124-1.119-3.179c-0.138-0.378-0.356-0.727-0.534-1.091c-0.578-1.185-0.901-2.429-0.882-3.754
				c0.006-0.412,0.113-0.773,0.466-1.025c0.305-0.218,0.31-0.498,0.278-0.857c-0.151-1.681-0.323-3.365-0.36-5.051
				c-0.04-1.815,0.794-3.315,1.992-4.627c1.496-1.637,3.31-2.802,5.37-3.595c0.318-0.122,0.655-0.194,0.983-0.289
				C433.35,93.29,433.758,93.29,434.165,93.29z"/>
		</g>
		<path fill="#7E6B71" d="M409.389,137.505c0.431-2.598,1.24-5.067,2.653-7.306c1.624-2.574,3.888-4.372,6.754-5.381
			c0.172-0.061,0.341-0.129,0.512-0.19c-0.43-0.214-0.876-0.412-1.354-0.58c-1.473-0.518-2.919-1.128-4.342-1.773
			c-1.728-0.782-3.343-1.767-4.853-3.04c-4.373,4.302-8.788,4.29-13.139,0.02c-0.538,0.398-1.005,0.766-1.494,1.101
			c-2.192,1.503-4.598,2.554-7.074,3.463c1.121,0.475,2.249,0.931,3.395,1.335c4.07,1.432,6.749,4.214,8.24,8.206
			c1.709,4.579,1.831,8.657,1.231,13.436c-0.065,0.517-0.162-0.105-0.259,0.895c1.971,0,3.941,0,5.912,0
			c0.153,0,0.304,0.578,0.458,0.568c1.096-0.07,2.195,0.219,3.287,0.114C408.781,144.695,408.771,141.226,409.389,137.505z"/>
		<path fill="#7E6B71" d="M392.711,110.409c0.385,1.056,0.668,2.154,1.119,3.179c1.034,2.351,2.565,4.315,4.731,5.756
			c2.263,1.505,5.043,1.502,7.284-0.024c2.629-1.79,4.161-4.357,5.187-7.283c0.258-0.735,0.367-1.545,0.738-2.214
			c0.671-1.208,1.023-2.483,1.152-3.834c0.053-0.552,0.023-1.116-0.506-1.477c-0.294-0.201-0.299-0.451-0.264-0.773
			c0.158-1.493,0.318-2.986,0.417-4.483c0.136-2.057-0.667-3.718-2.266-5c-1.714-1.374-3.646-2.078-5.697-2.826
			c-1.098-0.4-2.237-0.74-3.358-0.74c-0.408,0-0.815,0-1.222,0c-0.328,0-0.665-0.118-0.983,0.004
			c-2.06,0.792-3.875,1.815-5.37,3.452c-1.199,1.312-2.033,2.741-1.992,4.556c0.037,1.686,0.209,3.334,0.36,5.015
			c0.032,0.359,0.027,0.621-0.278,0.839c-0.353,0.252-0.46,0.604-0.466,1.016c-0.019,1.325,0.305,2.565,0.882,3.75
			C392.355,109.687,392.573,110.031,392.711,110.409z"/>
	</g>
</g>
</svg>
