<?xml version="1.0" encoding="utf-8"?>
<!-- Generator: Adobe Illustrator 17.0.0, SVG Export Plug-In . SVG Version: 6.00 Build 0)  -->
<!DOCTYPE svg PUBLIC "-//W3C//DTD SVG 1.1//EN" "http://www.w3.org/Graphics/SVG/1.1/DTD/svg11.dtd">
<svg version="1.1" id="Layer_1" xmlns="http://www.w3.org/2000/svg" xmlns:xlink="http://www.w3.org/1999/xlink" x="0px" y="0px"
	 width="581.238px" height="253.981px" viewBox="0 0 581.238 253.981" enable-background="new 0 0 581.238 253.981"
	 xml:space="preserve">
<rect x="78.289" y="36.691" fill="#FFFFFF" width="389" height="153"/>
<g>
	<defs>
		<polygon id="SVGID_22_" points="-590.711,-280.309 -590.711,-76.309 -407.923,-76.309 -353.486,-280.309 		"/>
	</defs>
	<clipPath id="SVGID_2_">
		<use xlink:href="#SVGID_22_"  overflow="visible"/>
	</clipPath>
	<g clip-path="url(#SVGID_2_)">
	</g>
</g>
<g>
	<defs>
		<polygon id="SVGID_2078_" points="-591.217,18.93 -591.217,224.411 -412.041,224.411 -356.623,19.888 		"/>
	</defs>
	<clipPath id="SVGID_4_">
		<use xlink:href="#SVGID_2078_"  overflow="visible"/>
	</clipPath>
	<g clip-path="url(#SVGID_4_)">
		<defs>
			<rect id="SVGID_2080_" x="-712.695" y="-1844.685" width="1923.24" height="3789.385"/>
		</defs>
		<clipPath id="SVGID_6_">
			<use xlink:href="#SVGID_2080_"  overflow="visible"/>
		</clipPath>
	</g>
</g>
<g>
	<polygon opacity="0.3" fill="#FFC9D3" points="212.628,36.691 176.595,189.691 315.662,189.691 349.804,36.691 	"/>
	<ellipse opacity="0.5" fill="#E2608F" cx="397.858" cy="180.835" rx="30.83" ry="4.46"/>
	<polygon opacity="0.1" fill="#FFB1BE" points="78.289,36.691 78.289,189.691 173.837,189.691 209.87,36.691 	"/>
	<polygon opacity="0.4" fill="#FFC9D3" points="467.289,36.691 352.562,36.691 318.42,189.691 467.289,189.691 	"/>
	<g>
		<defs>
			<polygon id="SVGID_2454_" points="78.289,36.691 78.289,189.691 173.837,189.691 209.87,36.691 			"/>
		</defs>
		<clipPath id="SVGID_8_">
			<use xlink:href="#SVGID_2454_"  overflow="visible"/>
		</clipPath>
		<g clip-path="url(#SVGID_8_)">
			<path fill="#A39197" d="M83.527,170.691c0,0,1.069,17.624,25.08,25.402l-5.068-25.402H83.527z"/>
			<path fill="#FFC9D3" d="M100.977,109.769c0,0-1.638,53.39-13.174,57.175s2.92,11.648,6.587,6.819
				c3.667-4.829-2.383,8.527-7.254,6.231c0,0,6.385,6.549,14.033-3.592l-6.29,12.272c0,0,10.665,11.023,16.535,5.127
				c5.87-5.896,7.508-72.557,7.508-72.557L100.977,109.769z"/>
			<path fill="#A39197" d="M115.016,135.236c0,0-9.746,38.526-17.021,42.389c0,0,15.607-8.311,18.035-36.412
				C118.458,113.111,115.016,135.236,115.016,135.236z"/>
			<path fill="#FFB1BE" d="M111.413,129.086c0,0,5.767,12.851,0,24.585c0,0-14.907,38.338,0,43.304c0,0,35.872,12.994,50.219,1.54
				c4.402-3.514,11.516-35.734,3.83-51.987c-6.571-13.895-27.845-10.547-27.845-10.547l-16.956-13.041l-5.439-5.304l-0.357-1.401
				L111.413,129.086z"/>
			<linearGradient id="SVGID_10_" gradientUnits="userSpaceOnUse" x1="142.131" y1="196.9755" x2="142.131" y2="135.9807">
				<stop  offset="0" style="stop-color:#E2608F;stop-opacity:0"/>
				<stop  offset="1" style="stop-color:#FF99A7"/>
			</linearGradient>
			<path fill="url(#SVGID_10_)" d="M167.11,196.976c0,0-5.867-11.455,1.676-25.703c0,0,3.601-32.408-16.359-34.364
				c0,0-15.075-6.705-31.766,15.925c0,0-15.115,27.1,5.051,39.392"/>
			<path fill="#DBD9D6" d="M168.295,155.981l0.573,4.873c0,0-13.772,4.462-14.33,5.624c0,0,0.279,2.19,5.867,0
				c0,0-7.641,2.951-10.896,7.284c-1.602,2.133,3.993,7.568,9.68,4.495l14.008-10.668c0,0,2.553-16.878-5.914-18.881
				C165.226,148.222,168.295,155.981,168.295,155.981z"/>
			<path fill="#FDDEEA" d="M154.259,148.364c0,0-8.051,3.073-12.128,1.676c0,0,6.146-1.676,6.064-3.632
				c0,0-2.038-3.742-16.007,3.996c0,0-22.931,2.15-25.434,4.106l4.66-25.424l-13.031-1.956c0,0-2.794,27.938-1.676,36.878
				c0,0,10.925,3.911,36.753-6.705c0,0,24.431,8.661,26.107-6.426C159.567,150.878,156.851,147.514,154.259,148.364z"/>
			<path fill="#A39197" d="M111.413,130.472c0,0-5.811,0.084-7.801-1.386c0,0-5.242-1.904-5.417,0
				c-0.174,1.904-2.065-25.656,10.524-23.747c0,0,8.954,0.905,4.254,17.94L111.413,130.472z"/>
			<path fill="#FFC9D3" d="M133.773,108.661c0,0,4.209-2,8.187,2.271c1.758,1.888,3.471,5.001,4.756,10.053
				c0,0,12.851,7.543,0,14.807c0,0-27.475,12.614-29.335-6.146l-2.514-13.41c0,0-1.397-10.896-6.146-10.896l11.941-2.794
				L133.773,108.661z"/>
			<path fill="#A39197" d="M137.361,108.287c0,0,1.252,18.769-5.173,17.372c0,0,7.528,0.65,9.771-6.799
				C144.201,111.412,137.361,108.287,137.361,108.287z"/>
			<path fill="#A39197" d="M140.01,132.439c0,0-29.614-11.196-22.984-29.159l-5.613,0.945
				C111.413,104.225,121.851,131.042,140.01,132.439z"/>
			<path fill="#A39197" d="M134.193,108.502c-1.305,2.008,4.75,13.011-5.054,8.137c0,0,10.881,4.748,8.222-8.352
				C137.361,108.287,134.626,107.837,134.193,108.502z"/>
			<path fill="#A39197" d="M120.661,102.825c0,0,0.8,18.687,14.684,16.049c0,0-12.402,7.39-18.32-15.594L120.661,102.825z"/>
			<path fill="#A39197" d="M144.753,47.368c0,0,28.22,23.076,16.207,31.178l-1.675-10.103c0,0-0.899,17.387-6.875,20.021
				c0,0,7.06-6.508,1.939-20.166c0,0-23.28,9.393-29.426,9.393h-4.275l8.491,8.203l-6.429,13.375l-2.062,6.302
				c0,0-0.864,8.14,4.08,8.272c0,0-15.451,4.227-7.628-15.78c0,0-4.191,2.8-5.588,0.565c0,0,4.47-1.618,4.47-9.189
				c0,0-7.543,5.058-8.94,0.001c0,0,6.146-0.266,7.264-3.359c1.118-3.093-12.851-12.592-5.308-20.415c0,0,5.308-6.426,8.102,1.118
				C117.101,66.785,117.927,43.037,144.753,47.368z"/>
			<path fill="#DBD9D6" d="M153.7,68.461c0,0,7.264-1.397,1.956,14.248c0,0-2.95,6.086-4.191,9.499
				c-1.152,3.169-8.661,10.337-8.661,10.337s-4.749,5.029-10.058-5.588c0,0-5.029-7.503-5.029-10.875s-1.397-8.681-1.397-8.681
				S134.104,78.794,153.7,68.461z"/>
			<path fill="#DBD9D6" d="M137.617,97.796l-5.709,7.264c0,0,7.823,12.851,0,12.572c0,0-12.293-2.928-11.175-13.896
				c0,0,6.984-14.042,5.588-19.909c0,0-4.614,6.705-5.659-6.705c0,0,4.263-8.402,5.659,0.279"/>
			<path fill="#DBD9D6" d="M98.383,127.131l13.031,1.956l-1.264,6.894l-6.878,22.118l23.754-5.447l-1.56-1.541
				c3.835-0.436,6.721-0.707,6.721-0.707c13.969-7.738,16.007-3.996,16.007-3.996c0.083,1.956-6.064,3.632-6.064,3.632
				c4.076,1.397,12.128-1.676,12.128-1.676c2.593-0.849,5.308,2.514,5.308,2.514c-1.676,15.086-26.107,6.426-26.107,6.426
				c-25.828,10.616-36.753,6.705-36.753,6.705C95.589,155.069,98.383,127.131,98.383,127.131z"/>
			<path opacity="0.1" fill="#E2608F" d="M103.272,158.099l6.878-22.118l-3.396,18.529c1.615-1.262,11.736-2.605,18.713-3.399
				l1.56,1.541L103.272,158.099z"/>
			<path fill="#FA7C89" d="M127.604,147.954c0.448,0,0.866,0.34,1.224,0.929c-0.693,1.143-1.157,3.226-1.157,5.606
				c0,2.381,0.464,4.464,1.157,5.606c-0.358,0.59-0.776,0.929-1.224,0.929c-1.315,0-2.381-2.926-2.381-6.536
				C125.223,150.88,126.289,147.954,127.604,147.954z"/>
			<path fill="#A39197" d="M128.828,148.883c0.358-0.59,0.776-0.929,1.224-0.929s0.866,0.34,1.224,0.929
				c-0.693,1.143-1.157,3.226-1.157,5.606c0,2.381,0.464,4.464,1.157,5.606c-0.358,0.59-0.776,0.929-1.224,0.929
				s-0.866-0.34-1.224-0.929c-0.693-1.143-1.157-3.226-1.157-5.606C127.671,152.108,128.135,150.025,128.828,148.883z"/>
			<path fill="#FA7C89" d="M131.031,148.883c0.358-0.59,0.776-0.929,1.224-0.929s0.866,0.34,1.224,0.929
				c-0.693,1.143-1.157,3.226-1.157,5.606c0,2.381,0.464,4.464,1.157,5.606c-0.358,0.59-0.776,0.929-1.224,0.929
				s-0.866-0.34-1.224-0.929c-0.693-1.143-1.157-3.226-1.157-5.606C129.874,152.108,130.337,150.025,131.031,148.883z"/>
			<path fill="#FA7C89" d="M176.755,167.164c-0.342,0.289-0.881,0.3-1.534,0.08c-0.208-1.32-1.198-3.21-2.735-5.029
				c-1.537-1.818-3.236-3.11-4.503-3.535c-0.107-0.681-0.007-1.211,0.335-1.5c1.004-0.849,3.707,0.698,6.037,3.455
				S177.759,166.316,176.755,167.164z"/>
			<path fill="#A39197" d="M175.22,167.245c0.107,0.681,0.007,1.211-0.335,1.5c-0.342,0.289-0.881,0.3-1.534,0.08
				c-0.208-1.32-1.198-3.21-2.735-5.029c-1.537-1.818-3.236-3.11-4.503-3.535c-0.107-0.681-0.007-1.211,0.335-1.5
				c0.342-0.289,0.881-0.3,1.534-0.08c1.267,0.425,2.966,1.717,4.503,3.535C174.022,164.034,175.012,165.925,175.22,167.245z"/>
			<path fill="#FA7C89" d="M173.538,168.666c0.107,0.681,0.007,1.211-0.335,1.5c-0.342,0.289-0.881,0.3-1.534,0.08
				c-0.208-1.32-1.198-3.21-2.735-5.029c-1.537-1.818-3.236-3.11-4.503-3.535c-0.107-0.681-0.007-1.211,0.335-1.5
				c0.342-0.289,0.881-0.3,1.534-0.08c1.267,0.425,2.966,1.717,4.503,3.535C172.339,165.456,173.33,167.346,173.538,168.666z"/>
			<path fill="#FFB1BE" d="M151.594,82.974c0,0,3.623-2.141,4.447-1.318l-0.576,1.071C155.465,82.727,154.394,82.397,151.594,82.974
				z"/>
			<path fill="#FFB1BE" d="M147.724,81.481c0,0-1.976-4.499-9.388-3.099c0,0,7.827,0.794,8.07,3.112
				c0.019,0.184,0.612,0.419,0.612,0.419S146.983,82.445,147.724,81.481z"/>
			<path opacity="0.1" fill="#E2608F" d="M141.681,74.015c0,0-5.819,6.725-9.494,6.957c0,0-1.701,14.512,2.246,18.575
				c0,0-4.644-1.045-7.314-14.86l-0.464-7.314l10.173-4.528L141.681,74.015z"/>
			<path fill="#A39197" d="M141.383,112.324c0,0,3.373,15.366-1.82,16.763c0,0,6.664-4.74,6.154-11.45
				c-0.509-6.71-8.356-9.349-8.356-9.349L141.383,112.324z"/>
		</g>
	</g>
	<path opacity="0.1" fill="#E2608F" d="M146.715,120.984c0,0,17.137,10.073-5.034,16.721
		C141.681,137.705,155.697,131.02,146.715,120.984z"/>
	<path fill="#FDDEEA" d="M382.986,69.573c0,0-3.656,16.422,0.608,18.434l11.844,5.701l2.144-8.887c0,0-9.211-4.527-10.576-4.36
		c0,0,0.512-8.174,0.171-9.285C386.835,70.065,382.986,69.573,382.986,69.573z"/>
	<path fill="#FDDEEA" d="M420.269,87.429c0,0,6.823-0.703,9.723,16.249c0,0,0.853,11.251-8.87,14.437
		c-9.723,3.186-2.357-9.532-2.357-9.532L420.269,87.429z"/>
	<path fill="#FDDEEA" d="M388.223,133.166c0,0-3.777,8.834-3.094,16.044c0,0-3.412,14.924-1.535,20.625c0,0-2.717,4.527-2.467,5.701
		c0,0-4.527,1.844-4.868,1.844s-2.559,6.707,15.864,2.683c0,0,2.388-9.893,1.365-18.277c0,0,2.047-2.012,1.194-9.055
		c0,0,4.776-1.174,4.776-15.091S388.223,133.166,388.223,133.166z"/>
	<path fill="#FDDEEA" d="M406.622,136.131c0,0-0.621,15.259,2.845,17.942c0,0-0.116,5.533,3.807,6.372c0,0-1.023,20.178,0,20.904
		c1.023,0.726,8.359,2.068,8.7-2.292c0,0,1.876-17.103,0-19.954c0,0-0.171-20.625-2.047-24.314
		C418.051,131.101,406.622,136.131,406.622,136.131z"/>
	<path fill="#FDDEEA" d="M413.315,176.374c0,0-7.793,2.739,0,4.975"/>
	<path fill="#FFB1BE" d="M392.464,85.194c9.65-3.094,24.88-4.695,31.033,3.354c0,0-2.06,25.655,0,34.71
		c0,0,2.571,10.564-3.058,15.427c0,0-34.969,12.408-34.287-13.917C386.152,124.766,390.7,85.759,392.464,85.194z"/>
	<path opacity="0.1" fill="#E2608F" d="M385.247,144.284c0,0-0.106,6.101,2.482,7.646c0,0-1.607,0.18-2.6-2.719
		C384.136,146.311,385.247,144.284,385.247,144.284z"/>
	<path opacity="0.1" fill="#E2608F" d="M407.832,152.705c0,0,3.849,4.735,6.823,4.25c0,0-1.113,1.173-3.74-0.405
		S407.832,152.705,407.832,152.705z"/>
	<path opacity="0.1" fill="#E2608F" d="M394.682,152.732c0,0-3.804,3.073-4.506,2.961c0,0,4.099-0.459,4.648-1.479
		C395.372,153.193,394.682,152.732,394.682,152.732z"/>
	<path fill="#FDDEEA" d="M409.863,56.315c0,0-17.911-0.671-13.817,21.631c0,0,2.303,2.782,5.739,5.084
		c5.727,3.837,14.603,6.339,21.213-7.6C422.998,75.431,427.433,57.992,409.863,56.315z"/>
	<path opacity="0.5" fill="#FFB1BE" d="M409.863,56.315c0,0-0.582-0.02-1.503,0.073c-4.217,0.426-15.675,3.253-12.315,21.557
		c0,0,2.303,2.782,5.739,5.084c4.396,2.945,10.646,5.094,16.304-0.364c1.713-1.653,3.373-3.995,4.909-7.235
		C422.998,75.431,427.433,57.992,409.863,56.315z"/>
	<path opacity="0.2" fill="#FDDEEA" d="M391.039,93.708c0,0-3.572,19.494,6.542,24.216c0,0-7.93,6.029-8.763-13.964L391.039,93.708z
		"/>
	<path opacity="0.2" fill="#FDDEEA" d="M388.819,107.621c0,0,0.755,14.441,8.612,13.772c0,0-4.443,3.754-10.159-5.511
		L388.819,107.621z"/>
	<path opacity="0.2" fill="#FDDEEA" d="M422.722,102.592c0,0,1.393,10.935-6.631,11.124c0,0,6.653,5.048,6.576,1.503
		C422.589,111.674,422.722,102.592,422.722,102.592z"/>
	<g>
		<defs>
			<polygon id="SVGID_2457_" points="467.289,36.691 352.562,36.691 318.42,189.691 467.289,189.691 			"/>
		</defs>
		<clipPath id="SVGID_12_">
			<use xlink:href="#SVGID_2457_"  overflow="visible"/>
		</clipPath>
		<path clip-path="url(#SVGID_12_)" fill="#DBD9D6" d="M370.971,35.691l8.188,18.78c0,0,0,9.977,1.023,11.821
			c0,0,1.194,4.821-2.047,7.001c0,0,3.753,2.159,5.117-4.884c0,0,6.246,1.666,3.89,9.547c0,0,7.88-0.341,1.227-17.276l-3.923-6.71
			l-0.682-18.28H370.971z"/>
	</g>
	<g>
		<defs>
			<polygon id="SVGID_2459_" points="212.628,36.691 176.595,189.691 315.662,189.691 349.804,36.691 			"/>
		</defs>
		<clipPath id="SVGID_14_">
			<use xlink:href="#SVGID_2459_"  overflow="visible"/>
		</clipPath>
		<g clip-path="url(#SVGID_14_)">
			<circle opacity="0.6" fill="#F9CFE1" cx="263.384" cy="105.564" r="6.689"/>
			<circle opacity="0.6" fill="#F9CFE1" cx="263.384" cy="105.564" r="11.531"/>
			<circle opacity="0.6" fill="#F9CFE1" cx="263.384" cy="105.564" r="17.463"/>
			<circle opacity="0.6" fill="#F9CFE1" cx="263.384" cy="105.564" r="25.374"/>
			<circle opacity="0.6" fill="#FFDDE2" cx="263.384" cy="105.564" r="34.38"/>
			<circle opacity="0.6" fill="#FFDDE2" cx="263.384" cy="105.564" r="42.867"/>
			<circle opacity="0.6" fill="#FFDDE2" cx="263.384" cy="105.564" r="51.017"/>
			<circle opacity="0.6" fill="#FFDDE2" cx="263.384" cy="105.564" r="60.727"/>
			<circle opacity="0.6" fill="#FFDDE2" cx="263.384" cy="105.564" r="71.558"/>
			<circle opacity="0.6" fill="#FFDDE2" cx="263.384" cy="105.564" r="84.428"/>
		</g>
	</g>
	<path fill="#A39197" d="M295.801,116.691c0,0,26.934,38.61,0,60.75c-4.42,3.633-21.935,6.23-21.935-6.416
		c0-19.174-8.085-51.983-8.085-51.983l5.601-9.208l23.299,6.858H295.801z"/>
	<path fill="#FDDEEA" d="M280.119,97.633c-4.481-0.672-11.425,6.327-11.425,6.327s-8.657,11.057-6.274,12.604
		c2.384,1.547,21.508,6.832,29.797,6.384c0.385-0.021,0.751-0.061,1.1-0.12c7.169-1.202,7.861-9.961,7.861-9.961"/>
	<path fill="#A39197" d="M256.314,96.094c1.706-7.77,2.274-20.467-3.601-24.446c0,0-9.206-8.855-14.642-6.189
		c-2.342-0.123-16.13,0.772-21.417,37.997c0,0,1.389,8.797,3.241,0c1.852-8.797,0.231,11.806,0.231,11.806s1.193-0.895,2.277-3.468
		c-0.319,1.957-0.394,3.95,0.27,5.088c1.62,2.778,15.414-5.03,15.414-5.03l-7.338-17.768c0,0-2.081-5.76-0.776-11.634
		c0.599-2.696,6.472-10.373,6.472-10.373c3.536,2.756,11.526,8.712,14.739,8.858l-5.292,30.297c0,0,16.004,4.344,12.613,0.621
		C254.409,107.357,254.609,103.864,256.314,96.094z"/>
	<path fill="#FDDEEA" d="M239.572,68.732c0,0-17.828,13.729-8.823,29.862c2.824,5.06,21.555,13.195,20.629-12.269
		s0.029-0.953,0.029-0.953S252.073,74.519,239.572,68.732z"/>
	<path fill="#A39197" d="M237.289,72.076c0,0,8.328,9.031,14.317,8.858c5.989-0.174,0.019-6.009,0.019-6.009l-7.806-6.193
		l-6.53-2.082V72.076z"/>
	<path fill="#FDDEEA" d="M234.289,99.691v12.161c0,0,7,7.575,15,0V94.691"/>
	<path fill="#FFB1BE" d="M233.41,111.852c0,0,8.146,7.436,14.961,0c0,0,24.551,5.041,29.089,9.016c0,0-3.203,2.64-3.203,6.378
		c0,0-6.407,4.271,3.203,16.55c0,0,6.674,23.491,5.606,29.364c0,0-33.12,5.606-43.254,10.411c0,0-10.841,2.669-5.416-10.678
		L233.41,111.852z"/>
	<path opacity="0.5" fill="#FDDEEA" d="M290.324,129.584c0,0,11.13,3.721,13.595,3.497c0,0,0.89,2.185,1.648,6.855
		C305.567,139.935,296.167,136.08,290.324,129.584z"/>
	<path opacity="0.5" fill="#FDDEEA" d="M291.425,134.064c0,0,13.715,8.289,15.483,12.994l0.052,7.445
		C306.959,154.503,308.675,148.626,291.425,134.064z"/>
	<path opacity="0.5" fill="#FDDEEA" d="M293.069,133.577c0,0,13.074,4.602,13.074,7.542c0,0,0.801,4.438,0.371,5.145
		S298.65,134.877,293.069,133.577z"/>
	<path opacity="0.5" fill="#FDDEEA" d="M279.931,137.244c0,0,6.038,15.5,15.099,15.5c0,0-10.116-6.891-12.197-17.026
		C280.751,125.582,279.931,137.244,279.931,137.244z"/>
	<path opacity="0.5" fill="#FDDEEA" d="M284.276,133.691c0,0,7.044,7.782,8.389,7.782c1.344,0-1.767,1.214-8.389-3.891
		c-6.621-5.105-2.813-3.891-2.813-3.891H284.276z"/>
	<path fill="#FFB1BE" d="M275.639,113.091c-0.072-1.553,3.184-3.924,4.735-4.033c3.722-0.26,13.73,4.444,12.599,7.999
		c-0.989,3.108-9.907,1.327-13.041,0.422C278.457,117.054,275.71,114.624,275.639,113.091z"/>
	<path opacity="0.5" fill="#FDDEEA" d="M281.591,121.882l8.833-0.215c0,0,4.929-5.176,6.721-4.188l4.033-4.613
		c0,0-0.224,10.564-10.753,10.099"/>
	<path fill="#E2608F" d="M233.618,111.852c0,0-18.356,0.712-5.409,15.127c0,0,4.545,16.817,5.409,18.152
		c0,0,6.415-2.669,7.377-6.674c0,0-0.281-17.885,4.211-15.75L233.618,111.852z"/>
	<path fill="#A39197" d="M246.79,113.269c0,0,23.045,12.715,25.396,18.308c0,0,2.212-8.612,5.274-10.709
		c0,0-20.296-8.001-29.089-9.016C247.844,111.791,246.79,113.269,246.79,113.269z"/>
	<path fill="#FDDEEA" d="M242.838,123.888c0.74-1.256,3.786,2.486,5.739,3.382c0,0,10.324-18.824,12.788-18.222
		c0,0,4.641-12.035,11.138-3.592c0,0,3.135,3.235-3.36,7.235h-4.621c0,0-8.372,25.179-17.334,28.763c0,0-5.834-3.154-6.182-5.141
		C240.52,133.538,241.239,126.603,242.838,123.888z"/>
	<path fill="#FDDEEA" d="M279.931,129.893c-6.703-1.591-10.341-4.705-10.341-4.705c5.072-5.041-0.672-9.97-0.672-9.97
		c-6.721-1.233-6.497,11.986-6.497,11.986c10.081,16.354,22.179,8.289,22.179,8.289c6.049-5.601-7.14-14.626-7.14-14.626
		s-3.603,3.144-3.593,7.194"/>
	<path fill="#A39197" d="M273.866,128.062c0,0,2.576-2.071,5.559,0.487c2.983,2.558,1.822,1.77,1.822,1.77l-3.835-1.134
		L273.866,128.062z"/>
	<path fill="#A39197" d="M233.618,111.852c0,0-0.585,0.024-1.465,0.142c-4.074,0.545-14.592,3.129-3.944,14.985
		c0,0,4.545,16.817,5.409,18.152c0,0,2.211-0.931,4.244-2.802c0.032,0.072,0.066,0.148,0.097,0.218
		c1.378-1.092,2.648-2.48,3.035-4.09c0,0-0.007-0.449-0.001-1.194v0l0,0c0.032-3.964,0.43-16.353,4.212-14.556L233.618,111.852z
		 M230.11,115.093c-0.96,3.453,1.154,10.663,3.649,17.31C230.601,127.044,228.987,118.786,230.11,115.093z"/>
	<path opacity="0.1" fill="#E2608F" d="M231.966,100.098c0,0,5.3,7.392,14.824,1.694c9.524-5.698-13.056,7.332-13.915,8.307
		C232.016,111.073,231.966,100.098,231.966,100.098z"/>
	<path opacity="0.5" fill="#FDDEEA" d="M279.931,97.611c0,0-24.177,14.168-8.96,20.313c0,0-19.625-3.072,3.931-18.798"/>
	<path fill="#FFB1BE" d="M236.893,85.576c0,0-4.048-2.203-6.333,0C230.56,85.576,232.769,84.839,236.893,85.576z"/>
	<path fill="#FFB1BE" d="M247.924,85.576c0,0-4.048-2.203-6.333,0C241.591,85.576,243.8,84.839,247.924,85.576z"/>
	<g>
		<defs>
			<polygon id="SVGID_2461_" points="212.628,36.691 176.595,189.691 315.662,189.691 349.804,36.691 			"/>
		</defs>
		<clipPath id="SVGID_16_">
			<use xlink:href="#SVGID_2461_"  overflow="visible"/>
		</clipPath>
		<path clip-path="url(#SVGID_16_)" fill="#A39197" d="M236.287,176.778c0,0,1.455,7.164,0.522,13.451s26.48,0.962,26.48,0.962
			v-21.632l1.415,21.632l15.458,2.105c0,0,6.686-23.223-2.587-30.881S236.287,176.778,236.287,176.778z"/>
	</g>
	<g>
		<path fill="#FF99A7" d="M386.532,47.991c0.099,0.383-0.099,0.817-0.525,1.254c-1.132-0.341-3.02-0.278-5.06,0.249
			c-2.04,0.527-3.722,1.385-4.548,2.232c-0.584-0.176-0.968-0.46-1.067-0.843c-0.291-1.127,1.981-2.687,5.073-3.486
			C383.498,46.599,386.241,46.865,386.532,47.991z"/>
		<path fill="#A39197" d="M386.007,49.245c0.584,0.176,0.968,0.46,1.067,0.843s-0.099,0.817-0.525,1.254
			c-1.132-0.341-3.02-0.278-5.06,0.249c-2.04,0.527-3.722,1.385-4.548,2.232c-0.584-0.176-0.968-0.46-1.067-0.843
			c-0.099-0.383,0.099-0.817,0.525-1.254c0.826-0.847,2.508-1.705,4.548-2.232C382.987,48.967,384.874,48.904,386.007,49.245z"/>
		<path fill="#FF99A7" d="M386.494,51.133c0.584,0.176,0.968,0.46,1.067,0.843c0.099,0.383-0.099,0.817-0.525,1.254
			c-1.132-0.341-3.02-0.278-5.06,0.249c-2.04,0.527-3.722,1.385-4.548,2.232c-0.584-0.176-0.968-0.46-1.067-0.843
			c-0.099-0.383,0.099-0.817,0.525-1.254c0.826-0.847,2.508-1.705,4.548-2.232C383.474,50.855,385.362,50.792,386.494,51.133z"/>
	</g>
</g>
</svg>
