<?xml version="1.0" encoding="utf-8"?>
<!-- Generator: Adobe Illustrator 17.0.0, SVG Export Plug-In . SVG Version: 6.00 Build 0)  -->
<!DOCTYPE svg PUBLIC "-//W3C//DTD SVG 1.1//EN" "http://www.w3.org/Graphics/SVG/1.1/DTD/svg11.dtd">
<svg version="1.1" id="Layer_1" xmlns="http://www.w3.org/2000/svg" xmlns:xlink="http://www.w3.org/1999/xlink" x="0px" y="0px"
	 width="136.222px" height="115px" viewBox="0 0 136.222 115" enable-background="new 0 0 136.222 115" xml:space="preserve">
<g>
	<g>
		<defs>
			<rect id="SVGID_1141_" x="-159.356" y="189.516" width="130" height="115"/>
		</defs>
		<clipPath id="SVGID_2_">
			<use xlink:href="#SVGID_1141_"  overflow="visible"/>
		</clipPath>
		<g clip-path="url(#SVGID_2_)">
		</g>
	</g>
</g>
<g>
	<defs>
		<rect id="SVGID_1389_" x="0" y="0" width="136.507" height="115.058"/>
	</defs>
	<clipPath id="SVGID_4_">
		<use xlink:href="#SVGID_1389_"  overflow="visible"/>
	</clipPath>
	<g clip-path="url(#SVGID_4_)">
		<g>
			<g>
				<defs>
					<polygon id="SVGID_1391_" points="-0.356,-1.484 -0.356,124.516 80.675,124.516 110.409,-1.484 					"/>
				</defs>
				<clipPath id="SVGID_6_">
					<use xlink:href="#SVGID_1391_"  overflow="visible"/>
				</clipPath>
			</g>
			<g>
				<defs>
					<polygon id="SVGID_1393_" points="-1.356,-0.484 -1.356,117.516 136.22,117.516 136.338,-0.484 					"/>
				</defs>
				<clipPath id="SVGID_8_">
					<use xlink:href="#SVGID_1393_"  overflow="visible"/>
				</clipPath>
				<polygon opacity="0.3" clip-path="url(#SVGID_8_)" fill="#B2E9FF" points="-1.356,-2.484 -1.356,124.516 138.589,124.516 
					137.138,-2.484 				"/>
				<g clip-path="url(#SVGID_8_)">
					<defs>
						<polyline id="SVGID_1395_" points="12.644,124.516 140.643,124.516 140.569,-14.484 12.644,-14.484 						"/>
					</defs>
					<clipPath id="SVGID_10_">
						<use xlink:href="#SVGID_1395_"  overflow="visible"/>
					</clipPath>
				</g>
			</g>
		</g>
		<g>
			<defs>
				<polygon id="SVGID_1397_" points="-1.356,1.516 -1.356,119.516 136.22,119.516 135.735,1.516 				"/>
			</defs>
			<clipPath id="SVGID_12_">
				<use xlink:href="#SVGID_1397_"  overflow="visible"/>
			</clipPath>
		</g>
		<g>
			<defs>
				<polygon id="SVGID_1399_" points="-1.356,-0.484 -1.356,119.516 138.589,119.516 137.138,-0.484 				"/>
			</defs>
			<clipPath id="SVGID_14_">
				<use xlink:href="#SVGID_1399_"  overflow="visible"/>
			</clipPath>
			<g clip-path="url(#SVGID_14_)">
				<ellipse opacity="0.5" fill="#CCCCCC" cx="52.993" cy="95.558" rx="39.136" ry="5.648"/>
				<g>
					<path fill="#9B9B9B" d="M56.171,52.485c0,0,11.999,3.475,31.282,2.726c0,0,34.535-3.725,41.234,5.999
						c0,0,5.083,0.934,3.503,2.491c-1.58,1.557-9.284,7.16-10.62,12.274c-1.336,5.114-34.226,19.588-56.931,12.685
						S56.171,52.485,56.171,52.485z"/>
					<path opacity="0.4" fill="#CCCCCC" d="M69.784,58.09c0,0,4.385,9.269,3.209,12.711s5.039,6.19,4.856,7.864s2.106,2.418,2.461,0
						s1.843-0.223,3.466-0.542c1.623-0.319,37.25-16.767,41.111-15.917s-2.254-2.241-2.254-2.241s-5.794-4.621-24.381-4.27
						s-27.561,0.822-27.561,0.822S69.248,56.3,69.784,58.09z"/>
				</g>
				<g>
					<path fill="#9B9B9B" d="M49.435,34.979c0,0,11.999,3.475,31.282,2.726c0,0,34.535-3.725,41.234,5.999
						c0,0,5.083,0.934,3.503,2.491c-1.58,1.557-9.284,7.16-10.62,12.274c-1.336,5.114-34.226,19.588-56.931,12.685
						C35.197,64.251,49.435,34.979,49.435,34.979z"/>
					<path opacity="0.4" fill="#CCCCCC" d="M63.048,40.584c0,0,4.385,9.269,3.209,12.711s5.039,6.19,4.856,7.864
						c-0.183,1.674,2.106,2.418,2.461,0c0.356-2.418,1.843-0.223,3.466-0.542s37.25-16.767,41.111-15.917
						c3.861,0.851-2.254-2.241-2.254-2.241s-5.794-4.621-24.381-4.27s-27.561,0.822-27.561,0.822S62.512,38.794,63.048,40.584z"/>
				</g>
				<g>
					<path fill="#8CC63F" d="M81.837,70.774l0.871,1.037C82.481,71.491,82.189,71.144,81.837,70.774z"/>
					<path fill="#8CC63F" d="M82.735,75.404l0.441,0.383C83.034,75.629,82.887,75.499,82.735,75.404z"/>
					<path fill="#00608B" d="M86.065,85.828c0,0-0.136-1.159-0.414-2.708c0.009,0.059,0.155,1.013,0.24,1.542
						c0.011,0.019,0.021,0.041,0.028,0.095c0.057,0.419,0.028,0.255-0.028-0.095c-0.203-0.354-0.983,5.247-0.983,5.247
						c-0.745-2.689,0.74-6.793,0.742-6.798c-0.446-2.484-1.258-5.966-2.471-7.321c-1.065,0.45-2.43,7.321-2.43,7.321
						c-0.543-4.632,1.628-7.321,1.628-7.321l0.359-0.386c0,0,1.749-1.053-0.011-3.568c-2.725,5.527-8.908,6.345-8.908,6.345
						c3.185-0.372,7.935-7.422,7.965-7.467c-0.064-0.066-0.116-0.129-0.185-0.197c0,0,3.732-14.896-2.515-21.836L49.791,54.61
						l-22.523-2.151c0,0-3.555,4.594-1.714,15.019c0,0-0.231,0.963-0.231,1.865v0c0,0,2.534,4.805,6.875,7.943
						c0,0-5.795-3.238-7.187-6.549c0,0-0.887,0.109-0.536,2.497l0.564,2.823l-0.134-0.652c0,0,2.735,1.731,2.735,6.661
						c0,0-0.87-4.773-2.605-6.01c0,0-2.76,5.212-2.847,9.013l-5.433,3.692c0,0-0.876,5.104,7.448,3.475c0,0,0.789-0.869,5.783,1.412
						c0,0,13.845,2.063,20.504-0.434c0,0,5.082-1.086,10.515,0c0,0,19.453,0.977,21.03-0.76c0,0,8.5,1.303,8.5-3.149
						C90.533,89.303,87.642,87.131,86.065,85.828z"/>
					<path fill="#8CC63F" d="M81.783,70.71l-0.003,0.004c0.02,0.02,0.037,0.04,0.057,0.06L81.783,70.71z"/>
					<path fill="#8CC63F" d="M82.726,71.833l-0.018-0.021c0.006,0.008,0.01,0.016,0.016,0.024
						C82.725,71.835,82.725,71.834,82.726,71.833z"/>
					<path fill="#0075A9" d="M73.816,78.181c0,0,6.183-0.817,8.908-6.345c-0.006-0.008-0.01-0.016-0.016-0.024l-0.871-1.037
						c-0.019-0.02-0.037-0.04-0.057-0.06C81.751,70.759,77.001,77.808,73.816,78.181z"/>
					<polygon fill="#8CC63F" points="83.179,75.79 83.176,75.787 83.179,75.791 					"/>
					<path fill="#0075A9" d="M80.748,83.111c0,0,1.365-6.87,2.43-7.321c-0.001-0.001-0.002-0.002-0.003-0.003l-0.441-0.383
						l-0.359,0.386C82.376,75.79,80.206,78.48,80.748,83.111z"/>
					<path fill="#8CC63F" d="M24.991,70.735c0.069-0.255,0.165-0.811,0.255-1.393L24.991,70.735z"/>
					<path fill="#0075A9" d="M32.197,77.284c-4.34-3.138-6.875-7.943-6.875-7.943v0c0,0.581-0.205,1.137-0.274,1.393
						C26.441,74.046,32.197,77.284,32.197,77.284z"/>
					<path fill="#0075A9" d="M27.638,82.065c0-4.93-2.736-6.661-2.736-6.661l0.131,0.652C26.769,77.292,27.638,82.065,27.638,82.065
						z"/>
					<polygon fill="#8CC63F" points="85.65,83.111 85.649,83.112 85.651,83.12 					"/>
					<path fill="#0075A9" d="M84.908,89.909c0,0,0.78-5.6,0.983-5.247c-0.085-0.529-0.231-1.484-0.24-1.542
						c-0.001-0.003-0.001-0.006-0.002-0.009C85.648,83.117,84.163,87.22,84.908,89.909z"/>
					<path fill="#8CC63F" d="M85.919,84.758c-0.007-0.054-0.018-0.077-0.028-0.095C85.947,85.013,85.976,85.176,85.919,84.758z"/>
					<path opacity="0.4" fill="#8CC63F" d="M68.054,37.697"/>
					<path fill="#9B9B9B" d="M70.717,27.772c0,0-5.3-2.356-7.396-0.618c0,0-1.311-3.533-5.093-0.414
						c-0.652,0.137-1.071,0.285-1.071,0.285c-0.232,0.045-0.446,0.177-0.636,0.353c-0.641,0.592-1.029,1.686-1.029,1.686
						c-0.897-0.664-3.341,0.599-3.341,0.599c-0.173-1.64-1.957-1.925-1.957-1.925c-0.748-1.64-1.899-0.856-1.899-0.856
						c-0.058,0.357-2.014,0.784-2.014,0.784c-0.46,0.071-1.496,2.211-1.496,2.211l-1.266-0.813
						c-2.877-1.241-1.266,1.598-1.266,1.598l-1.899,0.927l-2.474-0.214c-0.345-0.642-2.417,1.64-2.417,1.64
						c-1.381-1.925-2.014,1.284-2.014,1.284l-1.293,0.424c-5.321,5.915,2.616,14.337,2.616,14.337
						c5.179,5.063,9.84,3.423,9.84,3.423c13.708,9.977,12.66-6.347,12.66-6.347c17.06,3.325,20.157-17.073,20.157-17.073
						S74.086,25.838,70.717,27.772z"/>
					<g>
						<path opacity="0.4" fill="#CCCCCC" d="M59.532,38.279l-1.75-0.964C58.325,37.7,58.915,38.018,59.532,38.279z"/>
						<ellipse opacity="0.4" fill="#CCCCCC" cx="37.786" cy="32.813" rx="0.514" ry="0.356"/>
						<ellipse opacity="0.4" fill="#CCCCCC" cx="39.203" cy="34.697" rx="0.205" ry="0.56"/>
						<ellipse opacity="0.4" fill="#CCCCCC" cx="42.654" cy="35.283" rx="0.575" ry="0.28"/>
						<path opacity="0.4" fill="#CCCCCC" d="M43.172,36.602c0.054,0.139-0.134,0.391-0.42,0.562
							c-0.286,0.171-0.562,0.197-0.616,0.058c-0.054-0.139,0.134-0.391,0.42-0.562C42.842,36.488,43.118,36.463,43.172,36.602z"/>
						<path opacity="0.4" fill="#CCCCCC" d="M46.465,37.208c-0.052,0.141-0.328,0.122-0.617-0.042s-0.481-0.41-0.429-0.551
							c0.052-0.141,0.328-0.122,0.617,0.042C46.324,36.821,46.516,37.068,46.465,37.208z"/>
						<path opacity="0.4" fill="#CCCCCC" d="M45.15,35.579c-0.052,0.141-0.328,0.122-0.617-0.042
							c-0.289-0.164-0.481-0.41-0.429-0.551c0.052-0.141,0.328-0.122,0.617,0.042C45.009,35.191,45.202,35.438,45.15,35.579z"/>
						<path opacity="0.4" fill="#CCCCCC" d="M46.511,32.934c-0.017,0.153-0.285,0.235-0.6,0.182s-0.557-0.22-0.54-0.373
							c0.017-0.153,0.285-0.235,0.6-0.182S46.528,32.781,46.511,32.934z"/>
						<path opacity="0.4" fill="#CCCCCC" d="M44.159,37.901c0.065,0.132-0.182,0.466-0.551,0.745
							c-0.37,0.279-0.722,0.399-0.787,0.267c-0.065-0.132,0.182-0.466,0.551-0.745C43.742,37.888,44.094,37.769,44.159,37.901z"/>
						<path opacity="0.4" fill="#CCCCCC" d="M40.215,36.271c0.065,0.132-0.182,0.466-0.551,0.745
							c-0.37,0.279-0.722,0.399-0.787,0.267s0.182-0.466,0.551-0.745C39.797,36.259,40.15,36.139,40.215,36.271z"/>
						<path opacity="0.4" fill="#CCCCCC" d="M41.489,38.986c-0.075,0.124-0.416-0.035-0.764-0.355
							c-0.347-0.32-0.568-0.68-0.494-0.805c0.075-0.124,0.416,0.035,0.764,0.355C41.342,38.502,41.564,38.862,41.489,38.986z"/>
						<path opacity="0.4" fill="#CCCCCC" d="M41.637,39.349c-0.016,0.153-0.378,0.221-0.807,0.15s-0.764-0.252-0.747-0.405
							c0.016-0.153,0.378-0.221,0.807-0.15C41.319,39.014,41.654,39.195,41.637,39.349z"/>
						<path opacity="0.4" fill="#CCCCCC" d="M39.665,36.09c-0.016,0.153-0.378,0.221-0.807,0.15s-0.764-0.252-0.747-0.405
							c0.016-0.153,0.378-0.221,0.807-0.15C39.347,35.755,39.681,35.937,39.665,36.09z"/>
						<path opacity="0.4" fill="#CCCCCC" d="M38.868,36.212c0.073,0.126-0.154,0.481-0.506,0.793s-0.696,0.463-0.769,0.337
							c-0.073-0.126,0.154-0.481,0.506-0.793C38.451,36.237,38.795,36.086,38.868,36.212z"/>
						<path opacity="0.4" fill="#CCCCCC" d="M38.718,37.646c0.098,0.096-0.041,0.515-0.311,0.935s-0.567,0.683-0.664,0.586
							c-0.098-0.096,0.041-0.515,0.311-0.935C38.323,37.812,38.62,37.55,38.718,37.646z"/>
						<path opacity="0.4" fill="#CCCCCC" d="M35.209,44.01c0.117,0.052,0.094,0.504-0.053,1.009s-0.361,0.871-0.478,0.819
							c-0.117-0.052-0.094-0.504,0.053-1.009S35.092,43.957,35.209,44.01z"/>
						<path opacity="0.4" fill="#CCCCCC" d="M36.524,44.824c0.117,0.052,0.094,0.504-0.053,1.009
							c-0.147,0.505-0.361,0.871-0.478,0.819c-0.117-0.052-0.094-0.504,0.053-1.009S36.406,44.772,36.524,44.824z"/>
						<path opacity="0.4" fill="#CCCCCC" d="M39.576,44.458c0.06,0.136-0.199,0.454-0.579,0.712c-0.38,0.257-0.736,0.356-0.796,0.22
							c-0.06-0.136,0.199-0.454,0.579-0.712C39.159,44.421,39.516,44.322,39.576,44.458z"/>
						<path opacity="0.4" fill="#CCCCCC" d="M37.604,43.643c0.06,0.136-0.199,0.454-0.579,0.712c-0.38,0.257-0.736,0.356-0.796,0.22
							s0.199-0.454,0.579-0.712C37.187,43.606,37.544,43.507,37.604,43.643z"/>
						<path opacity="0.4" fill="#CCCCCC" d="M35.219,41.57c0.117,0.054,0.088,0.505-0.063,1.008
							c-0.152,0.502-0.37,0.866-0.487,0.811c-0.117-0.054-0.088-0.505,0.063-1.008C34.884,41.879,35.102,41.516,35.219,41.57z"/>
						<path opacity="0.4" fill="#CCCCCC" d="M36.291,42.324c0.125,0.006,0.211,0.446,0.193,0.982s-0.134,0.965-0.259,0.959
							c-0.125-0.006-0.211-0.446-0.193-0.982C36.051,42.747,36.167,42.318,36.291,42.324z"/>
						<path opacity="0.4" fill="#CCCCCC" d="M34.319,43.953c0.125,0.006,0.211,0.446,0.193,0.982
							c-0.018,0.536-0.134,0.965-0.259,0.959c-0.125-0.006-0.211-0.446-0.193-0.982C34.079,44.376,34.194,43.947,34.319,43.953z"/>
						<path opacity="0.4" fill="#CCCCCC" d="M38.357,46.52c0.004,0.155-0.343,0.295-0.776,0.313
							c-0.433,0.018-0.787-0.092-0.791-0.247s0.343-0.295,0.776-0.313C37.998,46.255,38.352,46.366,38.357,46.52z"/>
						<path opacity="0.4" fill="#CCCCCC" d="M39.63,47.055c0.04,0.146-0.26,0.405-0.669,0.578c-0.41,0.173-0.775,0.194-0.815,0.047
							s0.26-0.405,0.669-0.578C39.225,46.93,39.59,46.909,39.63,47.055z"/>
						<path opacity="0.4" fill="#CCCCCC" d="M38.987,48.439c-0.033,0.149-0.398,0.155-0.816,0.013
							c-0.417-0.142-0.729-0.378-0.696-0.527c0.033-0.149,0.398-0.155,0.816-0.013C38.708,48.054,39.02,48.29,38.987,48.439z"/>
						<path opacity="0.4" fill="#CCCCCC" d="M38.329,45.181c-0.033,0.149-0.398,0.155-0.816,0.013
							c-0.417-0.142-0.729-0.378-0.696-0.527c0.033-0.149,0.398-0.155,0.816-0.013C38.05,44.796,38.362,45.032,38.329,45.181z"/>
						<path opacity="0.4" fill="#CCCCCC" d="M39.671,45.706c0.004,0.155-0.343,0.295-0.776,0.313s-0.787-0.092-0.791-0.247
							s0.343-0.295,0.776-0.313C39.313,45.44,39.667,45.551,39.671,45.706z"/>
						<path opacity="0.4" fill="#CCCCCC" d="M40.329,43.262c0.004,0.155-0.343,0.295-0.776,0.313
							c-0.433,0.018-0.787-0.092-0.791-0.247s0.343-0.295,0.776-0.313S40.325,43.107,40.329,43.262z"/>
						<path opacity="0.4" fill="#CCCCCC" d="M40.293,40.56c0.037,0.148-0.267,0.397-0.68,0.558s-0.778,0.171-0.815,0.023
							c-0.037-0.148,0.267-0.397,0.68-0.558C39.891,40.423,40.256,40.412,40.293,40.56z"/>
						<path opacity="0.4" fill="#CCCCCC" d="M34.955,36.271c0.065,0.132-0.182,0.466-0.551,0.745
							c-0.37,0.279-0.722,0.399-0.787,0.267s0.182-0.466,0.551-0.745C34.538,36.259,34.89,36.139,34.955,36.271z"/>
						<path opacity="0.4" fill="#CCCCCC" d="M36.23,38.986c-0.075,0.124-0.416-0.035-0.764-0.355
							c-0.347-0.32-0.568-0.68-0.494-0.805c0.075-0.124,0.416,0.035,0.764,0.355C36.083,38.502,36.304,38.862,36.23,38.986z"/>
						<path opacity="0.4" fill="#CCCCCC" d="M36.378,39.349c-0.016,0.153-0.378,0.221-0.807,0.15s-0.764-0.252-0.747-0.405
							c0.016-0.153,0.378-0.221,0.807-0.15C36.06,39.014,36.394,39.195,36.378,39.349z"/>
						<path opacity="0.4" fill="#CCCCCC" d="M34.406,36.09c-0.016,0.153-0.378,0.221-0.807,0.15s-0.764-0.252-0.747-0.405
							c0.016-0.153,0.378-0.221,0.807-0.15S34.422,35.937,34.406,36.09z"/>
						<path opacity="0.4" fill="#CCCCCC" d="M33.609,36.212c0.073,0.126-0.154,0.481-0.506,0.793
							c-0.352,0.312-0.696,0.463-0.769,0.337c-0.073-0.126,0.154-0.481,0.506-0.793C33.192,36.237,33.536,36.086,33.609,36.212z"/>
						<path opacity="0.4" fill="#CCCCCC" d="M33.459,37.646c0.098,0.096-0.041,0.515-0.311,0.935s-0.567,0.683-0.664,0.586
							c-0.098-0.096,0.041-0.515,0.311-0.935C33.064,37.812,33.361,37.55,33.459,37.646z"/>
						<path opacity="0.4" fill="#CCCCCC" d="M35.034,40.56c0.037,0.148-0.267,0.397-0.68,0.558s-0.778,0.171-0.815,0.023
							c-0.037-0.148,0.267-0.397,0.68-0.558C34.632,40.423,34.997,40.412,35.034,40.56z"/>
						<path opacity="0.4" fill="#CCCCCC" d="M43.501,32.198c0.065,0.132-0.182,0.466-0.551,0.745
							c-0.37,0.279-0.722,0.399-0.787,0.267c-0.065-0.132,0.182-0.466,0.551-0.745C43.084,32.185,43.436,32.066,43.501,32.198z"/>
						<path opacity="0.4" fill="#CCCCCC" d="M44.776,34.913c-0.075,0.124-0.416-0.035-0.764-0.355
							c-0.347-0.32-0.568-0.68-0.494-0.805c0.075-0.124,0.416,0.035,0.764,0.355C44.629,34.429,44.85,34.789,44.776,34.913z"/>
						<path opacity="0.4" fill="#CCCCCC" d="M44.924,35.275c-0.016,0.153-0.378,0.221-0.807,0.15s-0.764-0.252-0.747-0.405
							c0.016-0.153,0.378-0.221,0.807-0.15C44.606,34.941,44.941,35.122,44.924,35.275z"/>
						<path opacity="0.4" fill="#CCCCCC" d="M42.952,32.017c-0.016,0.153-0.378,0.221-0.807,0.15
							c-0.429-0.07-0.764-0.252-0.747-0.405c0.016-0.153,0.378-0.221,0.807-0.15S42.968,31.863,42.952,32.017z"/>
						<path opacity="0.4" fill="#CCCCCC" d="M42.155,32.139c0.073,0.126-0.154,0.481-0.506,0.793
							c-0.352,0.312-0.696,0.463-0.769,0.337c-0.073-0.126,0.154-0.481,0.506-0.793C41.738,32.164,42.082,32.013,42.155,32.139z"/>
						<path opacity="0.4" fill="#CCCCCC" d="M42.005,33.573c0.098,0.096-0.041,0.515-0.311,0.935s-0.567,0.683-0.664,0.586
							c-0.098-0.096,0.041-0.515,0.311-0.935C41.61,33.739,41.907,33.477,42.005,33.573z"/>
						<path opacity="0.4" fill="#CCCCCC" d="M43.58,36.487c0.037,0.148-0.267,0.397-0.68,0.558c-0.413,0.16-0.778,0.171-0.815,0.023
							c-0.037-0.148,0.267-0.397,0.68-0.558C43.178,36.349,43.543,36.339,43.58,36.487z"/>
						<path opacity="0.4" fill="#CCCCCC" d="M40.863,43.004c-0.067,0.13-0.417,0.001-0.782-0.288
							c-0.364-0.289-0.605-0.63-0.538-0.76s0.417-0.001,0.782,0.288S40.93,42.874,40.863,43.004z"/>
						<path opacity="0.4" fill="#CCCCCC" d="M46.779,36.487c-0.067,0.13-0.417,0.001-0.782-0.288
							c-0.364-0.289-0.605-0.63-0.538-0.76c0.067-0.13,0.417-0.001,0.782,0.288C46.606,36.016,46.847,36.356,46.779,36.487z"/>
						<path opacity="0.4" fill="#CCCCCC" d="M47.603,36.722c-0.098-0.096,0.042-0.515,0.312-0.934
							c0.27-0.419,0.568-0.681,0.665-0.585c0.098,0.096-0.042,0.515-0.312,0.934S47.701,36.818,47.603,36.722z"/>
						<path opacity="0.4" fill="#CCCCCC" d="M47.966,36.83c-0.007-0.154,0.338-0.303,0.77-0.333
							c0.432-0.029,0.788,0.072,0.795,0.227c0.007,0.154-0.338,0.303-0.77,0.333S47.973,36.985,47.966,36.83z"/>
						<path opacity="0.4" fill="#CCCCCC" d="M67.031,37.645c-0.007-0.154,0.338-0.303,0.77-0.333
							c0.432-0.029,0.788,0.072,0.795,0.227c0.007,0.154-0.338,0.303-0.77,0.333C67.394,37.901,67.038,37.799,67.031,37.645z"/>
						<path opacity="0.4" fill="#CCCCCC" d="M67.688,36.83c-0.007-0.154,0.338-0.303,0.77-0.333
							c0.432-0.029,0.788,0.072,0.795,0.227c0.007,0.154-0.338,0.303-0.77,0.333C68.051,37.086,67.695,36.985,67.688,36.83z"/>
						<path opacity="0.4" fill="#CCCCCC" d="M45.994,35.201c-0.007-0.154,0.338-0.303,0.77-0.333
							c0.432-0.029,0.788,0.072,0.795,0.227s-0.338,0.303-0.77,0.333C46.357,35.457,46.001,35.355,45.994,35.201z"/>
						<path opacity="0.4" fill="#CCCCCC" d="M45.994,38.46c-0.007-0.154,0.338-0.303,0.77-0.333s0.788,0.072,0.795,0.227
							s-0.338,0.303-0.77,0.333C46.357,38.715,46.001,38.614,45.994,38.46z"/>
						<path opacity="0.4" fill="#CCCCCC" d="M44.022,39.274c-0.007-0.154,0.338-0.303,0.77-0.333s0.788,0.072,0.795,0.227
							s-0.338,0.303-0.77,0.333C44.385,39.53,44.029,39.429,44.022,39.274z"/>
						<path opacity="0.4" fill="#CCCCCC" d="M38.291,41.276c0.05,0.142-0.231,0.431-0.628,0.645s-0.759,0.274-0.809,0.132
							s0.231-0.431,0.628-0.645C37.879,41.194,38.242,41.135,38.291,41.276z"/>
						<path opacity="0.4" fill="#CCCCCC" d="M38.949,42.091c0.05,0.142-0.231,0.431-0.628,0.645
							c-0.397,0.215-0.759,0.274-0.809,0.132c-0.05-0.142,0.231-0.431,0.628-0.645C38.537,42.008,38.899,41.949,38.949,42.091z"/>
						<ellipse opacity="0.4" fill="#CCCCCC" cx="50.934" cy="31.184" rx="0.514" ry="0.356"/>
						<ellipse opacity="0.4" fill="#CCCCCC" cx="52.351" cy="33.068" rx="0.205" ry="0.56"/>
						<ellipse opacity="0.4" fill="#CCCCCC" cx="55.802" cy="33.653" rx="0.575" ry="0.28"/>
						<path opacity="0.4" fill="#CCCCCC" d="M56.32,34.973c0.054,0.139-0.134,0.391-0.42,0.562
							c-0.286,0.171-0.562,0.197-0.616,0.058c-0.054-0.139,0.134-0.391,0.42-0.562C55.99,34.859,56.266,34.833,56.32,34.973z"/>
						<path opacity="0.4" fill="#CCCCCC" d="M59.612,35.579c-0.052,0.141-0.328,0.122-0.617-0.042
							c-0.289-0.164-0.481-0.41-0.429-0.551c0.052-0.141,0.328-0.122,0.617,0.042S59.664,35.438,59.612,35.579z"/>
						<path opacity="0.4" fill="#CCCCCC" d="M58.298,33.95c-0.052,0.141-0.328,0.122-0.617-0.042
							c-0.289-0.164-0.481-0.41-0.429-0.551c0.052-0.141,0.328-0.122,0.617,0.042C58.157,33.562,58.35,33.809,58.298,33.95z"/>
						<path opacity="0.4" fill="#CCCCCC" d="M59.659,31.304c-0.017,0.153-0.285,0.235-0.6,0.182c-0.315-0.053-0.557-0.22-0.54-0.373
							c0.017-0.153,0.285-0.235,0.6-0.182C59.434,30.984,59.676,31.151,59.659,31.304z"/>
						<path opacity="0.4" fill="#CCCCCC" d="M57.307,36.271c0.065,0.132-0.182,0.466-0.551,0.745
							c-0.37,0.279-0.722,0.399-0.787,0.267s0.182-0.466,0.551-0.745C56.89,36.259,57.242,36.139,57.307,36.271z"/>
						<path opacity="0.4" fill="#CCCCCC" d="M53.362,34.642c0.065,0.132-0.182,0.466-0.551,0.745
							c-0.37,0.279-0.722,0.399-0.787,0.267c-0.065-0.132,0.182-0.466,0.551-0.745C52.945,34.629,53.297,34.51,53.362,34.642z"/>
						<path opacity="0.4" fill="#CCCCCC" d="M54.637,37.357c-0.075,0.124-0.416-0.035-0.764-0.355
							c-0.347-0.32-0.568-0.68-0.494-0.805c0.075-0.124,0.416,0.035,0.764,0.355C54.49,36.873,54.711,37.233,54.637,37.357z"/>
						<path opacity="0.4" fill="#CCCCCC" d="M54.785,37.719c-0.016,0.153-0.378,0.221-0.807,0.15
							c-0.429-0.07-0.764-0.252-0.747-0.405c0.016-0.153,0.378-0.221,0.807-0.15C54.467,37.385,54.801,37.566,54.785,37.719z"/>
						<path opacity="0.4" fill="#CCCCCC" d="M52.813,34.461c-0.016,0.153-0.378,0.221-0.807,0.15
							c-0.429-0.07-0.764-0.252-0.747-0.405c0.016-0.153,0.378-0.221,0.807-0.15C52.495,34.126,52.829,34.307,52.813,34.461z"/>
						<path opacity="0.4" fill="#CCCCCC" d="M52.016,34.583c0.073,0.126-0.154,0.481-0.506,0.793
							c-0.352,0.312-0.696,0.463-0.769,0.337c-0.073-0.126,0.154-0.481,0.506-0.793C51.599,34.608,51.943,34.457,52.016,34.583z"/>
						<path opacity="0.4" fill="#CCCCCC" d="M51.866,36.017c0.098,0.096-0.041,0.515-0.311,0.935
							c-0.269,0.42-0.567,0.683-0.664,0.586s0.041-0.515,0.311-0.935C51.471,36.183,51.768,35.92,51.866,36.017z"/>
						<path opacity="0.4" fill="#CCCCCC" d="M44.973,31.019c-0.098-0.096,0.042-0.515,0.312-0.934s0.568-0.681,0.665-0.585
							c0.098,0.096-0.042,0.515-0.312,0.934C45.369,30.854,45.071,31.116,44.973,31.019z"/>
						<path opacity="0.4" fill="#CCCCCC" d="M45.337,31.128c-0.007-0.154,0.338-0.303,0.77-0.333
							c0.432-0.029,0.788,0.072,0.795,0.227c0.007,0.154-0.338,0.303-0.77,0.333S45.344,31.282,45.337,31.128z"/>
						<path opacity="0.4" fill="#CCCCCC" d="M50.733,28.939c0.065,0.132-0.182,0.466-0.551,0.745s-0.722,0.399-0.787,0.267
							s0.182-0.466,0.551-0.745S50.668,28.807,50.733,28.939z"/>
						<path opacity="0.4" fill="#CCCCCC" d="M49.386,28.88c0.073,0.126-0.154,0.481-0.506,0.793
							c-0.352,0.312-0.696,0.463-0.769,0.337c-0.073-0.126,0.154-0.481,0.506-0.793C48.969,28.905,49.314,28.754,49.386,28.88z"/>
						<path opacity="0.4" fill="#CCCCCC" d="M49.237,30.314c0.098,0.096-0.041,0.515-0.311,0.935
							c-0.269,0.42-0.567,0.683-0.664,0.586c-0.098-0.096,0.041-0.515,0.311-0.935C48.841,30.48,49.139,30.218,49.237,30.314z"/>
						<path opacity="0.4" fill="#CCCCCC" d="M58.568,30.297c0.056-0.138-0.211-0.446-0.597-0.689
							c-0.386-0.243-0.745-0.328-0.801-0.19c-0.056,0.138,0.211,0.446,0.597,0.689C58.152,30.35,58.511,30.435,58.568,30.297z"/>
						<path opacity="0.4" fill="#CCCCCC" d="M58.273,30.582c-0.046-0.144-0.409-0.102-0.812,0.094
							c-0.403,0.196-0.693,0.471-0.647,0.615c0.046,0.144,0.409,0.102,0.812-0.094C58.029,31.002,58.319,30.726,58.273,30.582z"/>
						<path opacity="0.4" fill="#CCCCCC" d="M52.631,31.368c-0.015,0.154,0.321,0.33,0.751,0.394c0.43,0.064,0.79-0.008,0.805-0.162
							c0.015-0.154-0.321-0.33-0.751-0.394C53.007,31.142,52.646,31.214,52.631,31.368z"/>
						<path opacity="0.4" fill="#CCCCCC" d="M53.836,30.621c-0.024,0.152,0.301,0.358,0.726,0.461
							c0.425,0.103,0.789,0.063,0.813-0.089s-0.301-0.358-0.726-0.461C54.224,30.43,53.86,30.469,53.836,30.621z"/>
						<path opacity="0.4" fill="#CCCCCC" d="M54.453,31.849c-0.057,0.138,0.21,0.447,0.596,0.691
							c0.386,0.244,0.744,0.329,0.801,0.191s-0.21-0.447-0.596-0.691C54.868,31.797,54.51,31.711,54.453,31.849z"/>
						<path opacity="0.4" fill="#CCCCCC" d="M48.357,42.381c0.117,0.052,0.094,0.504-0.053,1.009
							c-0.147,0.505-0.361,0.871-0.478,0.819s-0.094-0.504,0.053-1.009C48.026,42.695,48.24,42.328,48.357,42.381z"/>
						<path opacity="0.4" fill="#CCCCCC" d="M49.672,43.195c0.117,0.052,0.094,0.504-0.053,1.009
							c-0.147,0.505-0.361,0.871-0.478,0.819s-0.094-0.504,0.053-1.009S49.554,43.143,49.672,43.195z"/>
						<path opacity="0.4" fill="#CCCCCC" d="M52.724,42.828c0.06,0.136-0.199,0.454-0.579,0.712c-0.38,0.257-0.736,0.356-0.796,0.22
							c-0.06-0.136,0.199-0.454,0.579-0.712C52.307,42.791,52.664,42.693,52.724,42.828z"/>
						<path opacity="0.4" fill="#CCCCCC" d="M50.751,42.014c0.06,0.136-0.199,0.454-0.579,0.712c-0.38,0.257-0.736,0.356-0.796,0.22
							c-0.06-0.136,0.199-0.454,0.579-0.712C50.335,41.977,50.692,41.878,50.751,42.014z"/>
						<path opacity="0.4" fill="#CCCCCC" d="M48.367,39.941c0.117,0.054,0.088,0.505-0.063,1.008
							c-0.152,0.502-0.37,0.866-0.487,0.811c-0.117-0.054-0.088-0.505,0.063-1.008C48.032,40.25,48.25,39.887,48.367,39.941z"/>
						<path opacity="0.4" fill="#CCCCCC" d="M49.439,40.695c0.125,0.006,0.211,0.446,0.193,0.982
							c-0.018,0.536-0.134,0.965-0.259,0.959c-0.125-0.006-0.211-0.446-0.193-0.982S49.315,40.688,49.439,40.695z"/>
						<path opacity="0.4" fill="#CCCCCC" d="M47.467,42.324c0.125,0.006,0.211,0.446,0.193,0.982
							c-0.018,0.536-0.134,0.965-0.259,0.959c-0.125-0.006-0.211-0.446-0.193-0.982C47.227,42.747,47.342,42.318,47.467,42.324z"/>
						<path opacity="0.4" fill="#CCCCCC" d="M51.477,43.551c-0.033,0.149-0.398,0.155-0.816,0.013
							c-0.417-0.142-0.729-0.378-0.696-0.527c0.033-0.149,0.398-0.155,0.816-0.013C51.198,43.166,51.51,43.402,51.477,43.551z"/>
						<path opacity="0.4" fill="#CCCCCC" d="M52.819,44.076c0.004,0.155-0.343,0.295-0.776,0.313s-0.787-0.092-0.791-0.247
							c-0.004-0.155,0.343-0.295,0.776-0.313S52.815,43.922,52.819,44.076z"/>
						<path opacity="0.4" fill="#CCCCCC" d="M53.477,41.632c0.004,0.155-0.343,0.295-0.776,0.313s-0.787-0.092-0.791-0.247
							s0.343-0.295,0.776-0.313C53.118,41.367,53.472,41.478,53.477,41.632z"/>
						<path opacity="0.4" fill="#CCCCCC" d="M53.441,38.931c0.037,0.148-0.267,0.397-0.68,0.558
							c-0.413,0.16-0.778,0.171-0.815,0.023c-0.037-0.148,0.267-0.397,0.68-0.558C53.039,38.793,53.404,38.783,53.441,38.931z"/>
						<path opacity="0.4" fill="#CCCCCC" d="M54.011,41.375c-0.067,0.13-0.417,0.001-0.782-0.288
							c-0.364-0.289-0.605-0.63-0.538-0.76c0.067-0.13,0.417-0.001,0.782,0.288C53.837,40.904,54.078,41.244,54.011,41.375z"/>
						<path opacity="0.4" fill="#CCCCCC" d="M59.927,34.857c-0.067,0.13-0.417,0.001-0.782-0.288
							c-0.364-0.289-0.605-0.63-0.538-0.76c0.067-0.13,0.417-0.001,0.782,0.288C59.754,34.387,59.995,34.727,59.927,34.857z"/>
						<path opacity="0.4" fill="#CCCCCC" d="M59.142,33.572c-0.007-0.154,0.338-0.303,0.77-0.333
							c0.432-0.029,0.788,0.072,0.795,0.227c0.007,0.154-0.338,0.303-0.77,0.333C59.505,33.828,59.149,33.726,59.142,33.572z"/>
						<path opacity="0.4" fill="#CCCCCC" d="M59.142,36.83c-0.007-0.154,0.338-0.303,0.77-0.333
							c0.432-0.029,0.788,0.072,0.795,0.227c0.007,0.154-0.338,0.303-0.77,0.333S59.149,36.985,59.142,36.83z"/>
						<path opacity="0.4" fill="#CCCCCC" d="M57.17,37.645c-0.007-0.154,0.338-0.303,0.77-0.333
							c0.432-0.029,0.788,0.072,0.795,0.227c0.007,0.154-0.338,0.303-0.77,0.333S57.177,37.799,57.17,37.645z"/>
						<path opacity="0.4" fill="#CCCCCC" d="M51.439,39.647c0.05,0.142-0.231,0.431-0.628,0.645
							c-0.397,0.215-0.759,0.274-0.809,0.132c-0.05-0.142,0.231-0.431,0.628-0.645S51.389,39.505,51.439,39.647z"/>
						<path opacity="0.4" fill="#CCCCCC" d="M52.097,40.462c0.05,0.142-0.231,0.431-0.628,0.645
							c-0.397,0.215-0.759,0.274-0.809,0.132c-0.05-0.142,0.231-0.431,0.628-0.645C51.685,40.379,52.047,40.32,52.097,40.462z"/>
						<path opacity="0.4" fill="#CCCCCC" d="M41.783,45.639c0.117,0.052,0.094,0.504-0.053,1.009
							c-0.147,0.505-0.361,0.871-0.478,0.819s-0.094-0.504,0.053-1.009C41.452,45.953,41.666,45.587,41.783,45.639z"/>
						<path opacity="0.4" fill="#CCCCCC" d="M43.098,46.454c0.117,0.052,0.094,0.504-0.053,1.009s-0.361,0.871-0.478,0.819
							s-0.094-0.504,0.053-1.009C42.766,46.768,42.98,46.401,43.098,46.454z"/>
						<path opacity="0.4" fill="#CCCCCC" d="M46.15,46.087c0.06,0.136-0.199,0.454-0.579,0.712c-0.38,0.257-0.736,0.356-0.796,0.22
							c-0.06-0.136,0.199-0.454,0.579-0.712C45.733,46.05,46.09,45.951,46.15,46.087z"/>
						<path opacity="0.4" fill="#CCCCCC" d="M44.178,45.272c0.06,0.136-0.199,0.454-0.579,0.712c-0.38,0.257-0.736,0.356-0.796,0.22
							c-0.06-0.136,0.199-0.454,0.579-0.712C43.761,45.235,44.118,45.137,44.178,45.272z"/>
						<path opacity="0.4" fill="#CCCCCC" d="M41.793,43.2c0.117,0.054,0.088,0.505-0.063,1.008c-0.152,0.502-0.37,0.866-0.487,0.811
							c-0.117-0.054-0.088-0.505,0.063-1.008C41.458,43.508,41.676,43.145,41.793,43.2z"/>
						<path opacity="0.4" fill="#CCCCCC" d="M42.865,43.953c0.125,0.006,0.211,0.446,0.193,0.982
							c-0.018,0.536-0.134,0.965-0.259,0.959c-0.125-0.006-0.211-0.446-0.193-0.982C42.625,44.376,42.741,43.947,42.865,43.953z"/>
						<path opacity="0.4" fill="#CCCCCC" d="M40.893,45.583c0.125,0.006,0.211,0.446,0.193,0.982
							c-0.018,0.536-0.134,0.965-0.259,0.959c-0.125-0.006-0.211-0.446-0.193-0.982C40.653,46.005,40.768,45.576,40.893,45.583z"/>
						<path opacity="0.4" fill="#CCCCCC" d="M44.903,46.81c-0.033,0.149-0.398,0.155-0.816,0.013
							c-0.417-0.142-0.729-0.378-0.696-0.527c0.033-0.149,0.398-0.155,0.816-0.013S44.936,46.661,44.903,46.81z"/>
						<path opacity="0.4" fill="#CCCCCC" d="M46.245,47.335c0.004,0.155-0.343,0.295-0.776,0.313
							c-0.433,0.018-0.787-0.092-0.791-0.247s0.343-0.295,0.776-0.313S46.241,47.18,46.245,47.335z"/>
						<path opacity="0.4" fill="#CCCCCC" d="M46.903,44.891c0.004,0.155-0.343,0.295-0.776,0.313s-0.787-0.092-0.791-0.247
							s0.343-0.295,0.776-0.313C46.544,44.626,46.898,44.736,46.903,44.891z"/>
						<path opacity="0.4" fill="#CCCCCC" d="M47.437,44.633c-0.067,0.13-0.417,0.001-0.782-0.288
							c-0.364-0.289-0.605-0.63-0.538-0.76c0.067-0.13,0.417-0.001,0.782,0.288C47.263,44.163,47.504,44.503,47.437,44.633z"/>
						<path opacity="0.4" fill="#CCCCCC" d="M45.523,43.72c0.05,0.142-0.231,0.431-0.628,0.645
							c-0.397,0.215-0.759,0.274-0.809,0.132c-0.05-0.142,0.231-0.431,0.628-0.645C45.111,43.638,45.473,43.579,45.523,43.72z"/>
						<path opacity="0.4" fill="#CCCCCC" d="M41.783,41.566c0.117,0.052,0.094,0.504-0.053,1.009
							c-0.147,0.505-0.361,0.871-0.478,0.819s-0.094-0.504,0.053-1.009C41.452,41.88,41.666,41.513,41.783,41.566z"/>
						<path opacity="0.4" fill="#CCCCCC" d="M43.098,42.381c0.117,0.052,0.094,0.504-0.053,1.009s-0.361,0.871-0.478,0.819
							s-0.094-0.504,0.053-1.009C42.766,42.695,42.98,42.328,43.098,42.381z"/>
						<path opacity="0.4" fill="#CCCCCC" d="M46.15,42.014c0.06,0.136-0.199,0.454-0.579,0.712c-0.38,0.257-0.736,0.356-0.796,0.22
							c-0.06-0.136,0.199-0.454,0.579-0.712C45.733,41.977,46.09,41.878,46.15,42.014z"/>
						<path opacity="0.4" fill="#CCCCCC" d="M44.178,41.199c0.06,0.136-0.199,0.454-0.579,0.712c-0.38,0.257-0.736,0.356-0.796,0.22
							c-0.06-0.136,0.199-0.454,0.579-0.712C43.761,41.162,44.118,41.063,44.178,41.199z"/>
						<path opacity="0.4" fill="#CCCCCC" d="M41.793,39.126c0.117,0.054,0.088,0.505-0.063,1.008
							c-0.152,0.502-0.37,0.866-0.487,0.811c-0.117-0.054-0.088-0.505,0.063-1.008C41.458,39.435,41.676,39.072,41.793,39.126z"/>
						<path opacity="0.4" fill="#CCCCCC" d="M42.865,39.88c0.125,0.006,0.211,0.446,0.193,0.982
							c-0.018,0.536-0.134,0.965-0.259,0.959c-0.125-0.006-0.211-0.446-0.193-0.982C42.625,40.303,42.741,39.874,42.865,39.88z"/>
						<path opacity="0.4" fill="#CCCCCC" d="M40.893,41.509c0.125,0.006,0.211,0.446,0.193,0.982s-0.134,0.965-0.259,0.959
							c-0.125-0.006-0.211-0.446-0.193-0.982C40.653,41.932,40.768,41.503,40.893,41.509z"/>
						<path opacity="0.4" fill="#CCCCCC" d="M44.903,42.737c-0.033,0.149-0.398,0.155-0.816,0.013
							c-0.417-0.142-0.729-0.378-0.696-0.527c0.033-0.149,0.398-0.155,0.816-0.013S44.936,42.588,44.903,42.737z"/>
						<path opacity="0.4" fill="#CCCCCC" d="M46.245,43.262c0.004,0.155-0.343,0.295-0.776,0.313
							c-0.433,0.018-0.787-0.092-0.791-0.247s0.343-0.295,0.776-0.313S46.241,43.107,46.245,43.262z"/>
						<path opacity="0.4" fill="#CCCCCC" d="M46.903,40.818c0.004,0.155-0.343,0.295-0.776,0.313s-0.787-0.092-0.791-0.247
							s0.343-0.295,0.776-0.313C46.544,40.552,46.898,40.663,46.903,40.818z"/>
						<path opacity="0.4" fill="#CCCCCC" d="M47.437,40.56c-0.067,0.13-0.417,0.001-0.782-0.288c-0.364-0.289-0.605-0.63-0.538-0.76
							c0.067-0.13,0.417-0.001,0.782,0.288C47.263,40.089,47.504,40.43,47.437,40.56z"/>
						<path opacity="0.4" fill="#CCCCCC" d="M45.523,39.647c0.05,0.142-0.231,0.431-0.628,0.645
							c-0.397,0.215-0.759,0.274-0.809,0.132c-0.05-0.142,0.231-0.431,0.628-0.645C45.111,39.564,45.473,39.505,45.523,39.647z"/>
						<path opacity="0.4" fill="#CCCCCC" d="M58.787,40.751c-0.117,0.052-0.094,0.504,0.053,1.009
							c0.147,0.505,0.361,0.871,0.478,0.819s0.094-0.504-0.053-1.009C59.119,41.066,58.905,40.699,58.787,40.751z"/>
						<path opacity="0.4" fill="#CCCCCC" d="M57.473,41.566c-0.117,0.052-0.094,0.504,0.053,1.009
							c0.147,0.505,0.361,0.871,0.478,0.819s0.094-0.504-0.053-1.009C57.804,41.88,57.59,41.513,57.473,41.566z"/>
						<path opacity="0.4" fill="#CCCCCC" d="M54.421,41.199c-0.06,0.136,0.199,0.454,0.579,0.712c0.38,0.257,0.736,0.356,0.796,0.22
							c0.06-0.136-0.199-0.454-0.579-0.712C54.837,41.162,54.481,41.063,54.421,41.199z"/>
						<path opacity="0.4" fill="#CCCCCC" d="M56.393,40.385c-0.06,0.136,0.199,0.454,0.579,0.712c0.38,0.257,0.736,0.356,0.796,0.22
							c0.06-0.136-0.199-0.454-0.579-0.712C56.809,40.347,56.453,40.249,56.393,40.385z"/>
						<path opacity="0.4" fill="#CCCCCC" d="M58.778,38.312c-0.117,0.054-0.088,0.505,0.063,1.008
							c0.152,0.502,0.37,0.866,0.487,0.811c0.117-0.054,0.088-0.505-0.063-1.008S58.895,38.257,58.778,38.312z"/>
						<path opacity="0.4" fill="#CCCCCC" d="M57.705,39.065c-0.125,0.006-0.211,0.446-0.193,0.982
							c0.018,0.536,0.134,0.965,0.259,0.959c0.125-0.006,0.211-0.446,0.193-0.982C57.946,39.488,57.83,39.059,57.705,39.065z"/>
						<path opacity="0.4" fill="#CCCCCC" d="M59.677,40.695c-0.125,0.006-0.211,0.446-0.193,0.982
							c0.018,0.536,0.134,0.965,0.259,0.959c0.125-0.006,0.211-0.446,0.193-0.982S59.802,40.688,59.677,40.695z"/>
						<path opacity="0.4" fill="#CCCCCC" d="M55.667,41.922c0.033,0.149,0.398,0.155,0.816,0.013
							c0.417-0.142,0.729-0.378,0.696-0.527c-0.033-0.149-0.398-0.155-0.816-0.013C55.946,41.537,55.634,41.773,55.667,41.922z"/>
						<path opacity="0.4" fill="#CCCCCC" d="M54.325,42.447c-0.004,0.155,0.343,0.295,0.776,0.313
							c0.433,0.018,0.787-0.092,0.791-0.247s-0.343-0.295-0.776-0.313S54.329,42.292,54.325,42.447z"/>
						<path opacity="0.4" fill="#CCCCCC" d="M53.668,40.003c-0.004,0.155,0.343,0.295,0.776,0.313s0.787-0.092,0.791-0.247
							c0.004-0.155-0.343-0.295-0.776-0.313S53.672,39.848,53.668,40.003z"/>
						<path opacity="0.4" fill="#CCCCCC" d="M53.134,39.745c0.067,0.13,0.417,0.001,0.782-0.288c0.364-0.289,0.605-0.63,0.538-0.76
							s-0.417-0.001-0.782,0.288C53.307,39.275,53.066,39.615,53.134,39.745z"/>
						<path opacity="0.4" fill="#CCCCCC" d="M55.048,38.832c-0.05,0.142,0.231,0.431,0.628,0.645
							c0.397,0.215,0.759,0.274,0.809,0.132c0.05-0.142-0.231-0.431-0.628-0.645C55.46,38.75,55.098,38.691,55.048,38.832z"/>
						<path opacity="0.4" fill="#CCCCCC" d="M50.476,47.716c-0.06,0.136,0.199,0.454,0.579,0.712c0.38,0.257,0.736,0.356,0.796,0.22
							c0.06-0.136-0.199-0.454-0.579-0.712C50.893,47.679,50.536,47.581,50.476,47.716z"/>
						<path opacity="0.4" fill="#CCCCCC" d="M52.861,45.644c-0.117,0.054-0.088,0.505,0.063,1.008s0.37,0.866,0.487,0.811
							c0.117-0.054,0.088-0.505-0.063-1.008S52.978,45.589,52.861,45.644z"/>
						<path opacity="0.4" fill="#CCCCCC" d="M51.789,46.397c-0.125,0.006-0.211,0.446-0.193,0.982
							c0.018,0.536,0.134,0.965,0.259,0.959c0.125-0.006,0.211-0.446,0.193-0.982C52.029,46.82,51.913,46.391,51.789,46.397z"/>
						<path opacity="0.4" fill="#CCCCCC" d="M47.751,47.335c-0.004,0.155,0.343,0.295,0.776,0.313
							c0.433,0.018,0.787-0.092,0.791-0.247s-0.343-0.295-0.776-0.313S47.755,47.18,47.751,47.335z"/>
						<path opacity="0.4" fill="#CCCCCC" d="M47.217,47.077c0.067,0.13,0.417,0.001,0.782-0.288c0.364-0.289,0.605-0.63,0.538-0.76
							s-0.417-0.001-0.782,0.288S47.15,46.947,47.217,47.077z"/>
						<path opacity="0.4" fill="#CCCCCC" d="M49.131,46.164c-0.05,0.142,0.231,0.431,0.628,0.645
							c0.397,0.215,0.759,0.274,0.809,0.132c0.05-0.142-0.231-0.431-0.628-0.645C49.543,46.082,49.181,46.022,49.131,46.164z"/>
						<path opacity="0.4" fill="#CCCCCC" d="M63.196,28.455c-0.054,0.139,0.134,0.391,0.42,0.562
							c0.286,0.171,0.562,0.197,0.616,0.058c0.054-0.139-0.134-0.391-0.42-0.562C63.526,28.342,63.25,28.316,63.196,28.455z"/>
						<path opacity="0.4" fill="#CCCCCC" d="M59.904,29.062c0.052,0.141,0.328,0.122,0.617-0.042
							c0.289-0.164,0.481-0.41,0.429-0.551c-0.052-0.141-0.328-0.122-0.617,0.042C60.044,28.674,59.852,28.921,59.904,29.062z"/>
						<path opacity="0.4" fill="#CCCCCC" d="M61.218,27.432c0.052,0.141,0.328,0.122,0.617-0.042
							c0.289-0.164,0.481-0.41,0.429-0.551s-0.328-0.122-0.617,0.042C61.359,27.045,61.167,27.292,61.218,27.432z"/>
						<path opacity="0.4" fill="#CCCCCC" d="M62.209,29.754c-0.065,0.132,0.182,0.466,0.551,0.745
							c0.37,0.279,0.722,0.399,0.787,0.267s-0.182-0.466-0.551-0.745S62.274,29.622,62.209,29.754z"/>
						<path opacity="0.4" fill="#CCCCCC" d="M64.879,30.84c0.075,0.124,0.416-0.035,0.764-0.355c0.347-0.32,0.568-0.68,0.494-0.805
							c-0.075-0.124-0.416,0.035-0.764,0.355C65.026,30.356,64.805,30.716,64.879,30.84z"/>
						<path opacity="0.4" fill="#CCCCCC" d="M64.731,31.202c0.016,0.153,0.378,0.221,0.807,0.15c0.429-0.07,0.764-0.252,0.747-0.405
							s-0.378-0.221-0.807-0.15C65.049,30.867,64.715,31.049,64.731,31.202z"/>
						<path opacity="0.4" fill="#CCCCCC" d="M69.844,36.678c-0.117,0.052-0.094,0.504,0.053,1.009
							c0.147,0.505,0.361,0.871,0.478,0.819s0.094-0.504-0.053-1.009C70.176,36.992,69.962,36.626,69.844,36.678z"/>
						<path opacity="0.4" fill="#CCCCCC" d="M66.792,36.311c-0.06,0.136,0.199,0.454,0.579,0.712c0.38,0.257,0.736,0.356,0.796,0.22
							c0.06-0.136-0.2-0.454-0.579-0.712C67.209,36.274,66.852,36.176,66.792,36.311z"/>
						<path opacity="0.4" fill="#CCCCCC" d="M68.765,35.497c-0.06,0.136,0.199,0.454,0.579,0.712c0.38,0.257,0.736,0.356,0.796,0.22
							c0.06-0.136-0.2-0.454-0.579-0.712C69.181,35.459,68.825,35.361,68.765,35.497z"/>
						<path opacity="0.4" fill="#CCCCCC" d="M71.149,33.424c-0.117,0.054-0.088,0.505,0.063,1.008
							c0.152,0.502,0.37,0.866,0.487,0.811c0.117-0.054,0.088-0.505-0.063-1.008C71.484,33.733,71.266,33.369,71.149,33.424z"/>
						<path opacity="0.4" fill="#CCCCCC" d="M70.077,34.177c-0.125,0.006-0.211,0.446-0.193,0.982s0.134,0.965,0.259,0.959
							c0.125-0.006,0.211-0.446,0.193-0.982C70.317,34.6,70.202,34.171,70.077,34.177z"/>
						<path opacity="0.4" fill="#CCCCCC" d="M68.039,37.034c0.033,0.149,0.398,0.155,0.816,0.013
							c0.417-0.142,0.729-0.378,0.696-0.527c-0.033-0.149-0.398-0.155-0.816-0.013C68.318,36.649,68.006,36.885,68.039,37.034z"/>
						<path opacity="0.4" fill="#CCCCCC" d="M66.697,37.559c-0.004,0.155,0.343,0.295,0.776,0.313s0.787-0.092,0.791-0.247
							s-0.343-0.295-0.776-0.313C67.055,37.294,66.701,37.404,66.697,37.559z"/>
						<path opacity="0.4" fill="#CCCCCC" d="M72.934,32.886c0.123-0.027,0.283,0.38,0.358,0.908
							c0.075,0.528,0.036,0.978-0.087,1.005c-0.123,0.027-0.283-0.38-0.358-0.908S72.811,32.912,72.934,32.886z"/>
						<path opacity="0.4" fill="#CCCCCC" d="M75.438,30.692c0.106,0.081,0.009,0.517-0.218,0.974
							c-0.227,0.457-0.497,0.761-0.603,0.68s-0.009-0.517,0.218-0.974C75.061,30.915,75.331,30.611,75.438,30.692z"/>
						<path opacity="0.4" fill="#CCCCCC" d="M73.399,31.196c0.106,0.081,0.009,0.517-0.218,0.974
							c-0.227,0.457-0.497,0.761-0.603,0.68c-0.106-0.081-0.009-0.517,0.218-0.974C73.023,31.42,73.293,31.115,73.399,31.196z"/>
						<path opacity="0.4" fill="#CCCCCC" d="M70.499,30.862c0.123-0.025,0.279,0.385,0.348,0.914
							c0.069,0.53,0.025,0.979-0.098,1.004c-0.123,0.025-0.279-0.385-0.348-0.914S70.375,30.886,70.499,30.862z"/>
						<path opacity="0.4" fill="#CCCCCC" d="M71.732,30.857c0.111-0.071,0.362,0.258,0.561,0.734c0.199,0.477,0.27,0.92,0.159,0.991
							c-0.111,0.071-0.362-0.258-0.561-0.734C71.692,31.372,71.621,30.928,71.732,30.857z"/>
						<path opacity="0.4" fill="#CCCCCC" d="M74.644,32.086c0.031,0.15-0.284,0.379-0.703,0.513c-0.419,0.133-0.784,0.12-0.815-0.03
							c-0.031-0.15,0.284-0.379,0.703-0.513S74.613,31.936,74.644,32.086z"/>
						<path opacity="0.4" fill="#CCCCCC" d="M61.289,33.424c-0.117,0.054-0.088,0.505,0.063,1.008
							c0.152,0.502,0.37,0.866,0.487,0.811c0.117-0.054,0.088-0.505-0.063-1.008C61.623,33.733,61.405,33.369,61.289,33.424z"/>
						<path opacity="0.4" fill="#CCCCCC" d="M63.073,32.886c0.123-0.027,0.283,0.38,0.358,0.908
							c0.075,0.528,0.036,0.978-0.087,1.005c-0.123,0.027-0.283-0.38-0.358-0.908S62.95,32.912,63.073,32.886z"/>
						<path opacity="0.4" fill="#CCCCCC" d="M63.538,31.196c0.106,0.081,0.009,0.517-0.218,0.974
							c-0.227,0.457-0.497,0.761-0.603,0.68s-0.009-0.517,0.218-0.974C63.162,31.42,63.432,31.115,63.538,31.196z"/>
						<path opacity="0.4" fill="#CCCCCC" d="M60.638,30.862c0.123-0.025,0.279,0.385,0.348,0.914
							c0.069,0.53,0.025,0.979-0.098,1.004c-0.123,0.025-0.279-0.385-0.348-0.914S60.514,30.886,60.638,30.862z"/>
						<path opacity="0.4" fill="#CCCCCC" d="M61.871,30.857c0.111-0.071,0.362,0.258,0.561,0.734c0.199,0.477,0.27,0.92,0.159,0.991
							c-0.111,0.071-0.362-0.258-0.561-0.734C61.831,31.372,61.76,30.928,61.871,30.857z"/>
						<path opacity="0.4" fill="#CCCCCC" d="M64.783,32.086c0.031,0.15-0.284,0.379-0.703,0.513c-0.419,0.133-0.784,0.12-0.815-0.03
							c-0.031-0.15,0.284-0.379,0.703-0.513C64.387,31.923,64.752,31.936,64.783,32.086z"/>
						<path opacity="0.4" fill="#CCCCCC" d="M76.02,31.717c0.066,0.132-0.18,0.467-0.548,0.748c-0.368,0.282-0.72,0.403-0.786,0.272
							c-0.066-0.132,0.18-0.467,0.548-0.748C75.603,31.707,75.954,31.585,76.02,31.717z"/>
						<path opacity="0.4" fill="#CCCCCC" d="M66.039,35.115c-0.004,0.155,0.343,0.295,0.776,0.313
							c0.433,0.018,0.787-0.092,0.791-0.247c0.004-0.155-0.343-0.295-0.776-0.313S66.044,34.96,66.039,35.115z"/>
						<path opacity="0.4" fill="#CCCCCC" d="M66.075,32.413c-0.037,0.148,0.267,0.397,0.68,0.558
							c0.413,0.16,0.778,0.171,0.815,0.023c0.037-0.148-0.267-0.397-0.68-0.558C66.477,32.276,66.112,32.266,66.075,32.413z"/>
						<path opacity="0.4" fill="#CCCCCC" d="M65.505,34.857c0.067,0.13,0.417,0.001,0.782-0.288c0.364-0.289,0.605-0.63,0.538-0.76
							s-0.417-0.001-0.782,0.288C65.679,34.387,65.438,34.727,65.505,34.857z"/>
						<path opacity="0.4" fill="#CCCCCC" d="M59.589,28.34c0.067,0.13,0.417,0.001,0.782-0.288c0.364-0.289,0.605-0.63,0.538-0.76
							c-0.067-0.13-0.417-0.001-0.782,0.288S59.522,28.21,59.589,28.34z"/>
						<path opacity="0.4" fill="#CCCCCC" d="M68.077,33.13c-0.05,0.142,0.231,0.431,0.628,0.645s0.759,0.274,0.809,0.132
							s-0.231-0.431-0.628-0.645C68.489,33.047,68.127,32.988,68.077,33.13z"/>
						<path opacity="0.4" fill="#CCCCCC" d="M67.419,33.944c-0.05,0.142,0.231,0.431,0.628,0.645
							c0.397,0.215,0.759,0.274,0.809,0.132c0.05-0.142-0.231-0.431-0.628-0.645S67.469,33.803,67.419,33.944z"/>
						<path opacity="0.4" fill="#CCCCCC" d="M69.84,31.438c-0.109-0.075-0.323,0.142-0.478,0.486s-0.192,0.684-0.083,0.759
							s0.323-0.142,0.478-0.486C69.912,31.853,69.949,31.514,69.84,31.438z"/>
						<path opacity="0.4" fill="#CCCCCC" d="M70.781,29.053c-0.116,0.056-0.118,0.399-0.003,0.766
							c0.115,0.367,0.302,0.619,0.418,0.564c0.116-0.056,0.118-0.399,0.003-0.766C71.085,29.249,70.898,28.997,70.781,29.053z"/>
						<path opacity="0.4" fill="#CCCCCC" d="M68.852,30.141c-0.102-0.088-0.386,0.197-0.633,0.638s-0.364,0.869-0.262,0.957
							c0.102,0.088,0.386-0.197,0.633-0.638S68.955,30.229,68.852,30.141z"/>
						<path opacity="0.4" fill="#CCCCCC" d="M67.82,33.379c-0.104,0.085,0.003,0.517,0.241,0.966s0.514,0.743,0.619,0.659
							c0.104-0.085-0.003-0.517-0.241-0.966S67.924,33.294,67.82,33.379z"/>
						<path opacity="0.4" fill="#CCCCCC" d="M67.536,33.174c-0.124,0.011-0.2,0.454-0.169,0.989c0.031,0.535,0.158,0.96,0.282,0.948
							s0.2-0.454,0.169-0.989C67.787,33.588,67.661,33.163,67.536,33.174z"/>
						<path opacity="0.4" fill="#CCCCCC" d="M62.822,39.175c-0.035-0.148-0.4-0.146-0.816,0.005s-0.723,0.394-0.688,0.543
							s0.4,0.146,0.816-0.005C62.549,39.567,62.858,39.324,62.822,39.175z"/>
						<path opacity="0.4" fill="#CCCCCC" d="M63.299,35.422c-0.106-0.082-0.378,0.22-0.608,0.674c-0.23,0.455-0.33,0.89-0.225,0.972
							s0.378-0.22,0.608-0.674C63.304,35.939,63.404,35.504,63.299,35.422z"/>
						<path opacity="0.4" fill="#CCCCCC" d="M63.838,37.91c-0.106-0.082-0.378,0.22-0.608,0.674c-0.23,0.455-0.33,0.89-0.225,0.972
							s0.378-0.22,0.608-0.674C63.843,38.427,63.944,37.992,63.838,37.91z"/>
						<path opacity="0.4" fill="#CCCCCC" d="M65.366,40.983c-0.037-0.148-0.402-0.139-0.816,0.019
							c-0.414,0.158-0.719,0.406-0.682,0.554s0.402,0.139,0.816-0.019C65.098,41.378,65.403,41.131,65.366,40.983z"/>
						
							<ellipse transform="matrix(0.9998 0.0215 -0.0215 0.9998 0.8653 -1.3665)" opacity="0.4" fill="#CCCCCC" cx="64.039" cy="39.594" rx="0.784" ry="0.28"/>
						<path opacity="0.4" fill="#CCCCCC" d="M62.642,36.921c-0.122,0.032-0.148,0.483-0.059,1.008s0.261,0.924,0.383,0.892
							c0.122-0.032,0.148-0.483,0.059-1.008C62.936,37.288,62.765,36.889,62.642,36.921z"/>
						<path opacity="0.4" fill="#CCCCCC" d="M62.299,35.229c-0.124-0.014-0.258,0.407-0.298,0.941
							c-0.04,0.534,0.028,0.979,0.152,0.993s0.258-0.407,0.298-0.941C62.492,35.688,62.423,35.244,62.299,35.229z"/>
						<path opacity="0.4" fill="#CCCCCC" d="M64.307,34.561c-0.124-0.014-0.258,0.407-0.298,0.941
							c-0.04,0.534,0.028,0.979,0.152,0.993c0.124,0.014,0.258-0.407,0.298-0.941C64.499,35.02,64.431,34.575,64.307,34.561z"/>
						<path opacity="0.4" fill="#CCCCCC" d="M66.481,34.765c-0.117-0.055-0.336,0.307-0.49,0.808s-0.184,0.952-0.067,1.007
							s0.336-0.307,0.49-0.808S66.598,34.82,66.481,34.765z"/>
						<path opacity="0.4" fill="#CCCCCC" d="M64.546,33.916c-0.109,0.076-0.026,0.516,0.186,0.984
							c0.212,0.468,0.471,0.786,0.58,0.71c0.109-0.076,0.026-0.516-0.186-0.984C64.915,34.158,64.655,33.84,64.546,33.916z"/>
						<path opacity="0.4" fill="#CCCCCC" d="M65.785,37.199c-0.111-0.07-0.361,0.26-0.557,0.738s-0.266,0.922-0.154,0.993
							s0.361-0.26,0.557-0.738C65.827,37.714,65.897,37.269,65.785,37.199z"/>
						<path opacity="0.4" fill="#CCCCCC" d="M65.168,36.337c-0.111-0.07-0.361,0.26-0.557,0.738
							c-0.196,0.478-0.266,0.922-0.154,0.993s0.361-0.26,0.557-0.738S65.279,36.408,65.168,36.337z"/>
					</g>
					<path fill="#0075A9" d="M77.429,29.065l-1.617,3.881c0,0-1.051,3.8-6.659,8.144c0,0-11.041,4.452-11.216,3.583
						c0,0-7.185,5.538-10.865,3.583c0,0-2.015,2.932-2.015,3.583c0,0-1.753,0.217-7.623-3.366c0,0-5.608-0.109-6.659-9.013
						c0,0,0.749-2.722,1.382-4.738c-1.907,1.202-5.529,3.788-5.851,6.258c0,0-2.541,5.755-0.438,8.578c0,0,3.768,9.664,9.902,10.533
						c0,0,2.191,2.172,6.659,2.389c4.469,0.217,5.783-3.04,5.783-3.04s3.33,0.652,6.835-0.109L78.178,48.8
						c0,0,2.015,0.977,2.716-4.995C80.895,43.806,82.832,35.433,77.429,29.065z"/>
				</g>
			</g>
		</g>
	</g>
</g>
</svg>
