<?xml version="1.0" encoding="utf-8"?>
<!-- Generator: Adobe Illustrator 17.0.0, SVG Export Plug-In . SVG Version: 6.00 Build 0)  -->
<!DOCTYPE svg PUBLIC "-//W3C//DTD SVG 1.1//EN" "http://www.w3.org/Graphics/SVG/1.1/DTD/svg11.dtd">
<svg version="1.1" id="Layer_1" xmlns="http://www.w3.org/2000/svg" xmlns:xlink="http://www.w3.org/1999/xlink" x="0px" y="0px"
	 width="581.238px" height="253.981px" viewBox="0 0 581.238 253.981" enable-background="new 0 0 581.238 253.981"
	 xml:space="preserve">
<rect x="97.289" y="40.691" fill="#FFFFFF" width="374" height="147"/>
<g>
	<defs>
		<polygon id="SVGID_22_" points="-590.711,-280.309 -590.711,-76.309 -407.923,-76.309 -353.486,-280.309 		"/>
	</defs>
	<clipPath id="SVGID_2_">
		<use xlink:href="#SVGID_22_"  overflow="visible"/>
	</clipPath>
	<g clip-path="url(#SVGID_2_)">
	</g>
</g>
<g>
	<defs>
		<polygon id="SVGID_2078_" points="-591.217,18.93 -591.217,224.411 -412.041,224.411 -356.623,19.888 		"/>
	</defs>
	<clipPath id="SVGID_4_">
		<use xlink:href="#SVGID_2078_"  overflow="visible"/>
	</clipPath>
	<g clip-path="url(#SVGID_4_)">
		<defs>
			<rect id="SVGID_2080_" x="-712.695" y="-1844.685" width="1923.24" height="3789.385"/>
		</defs>
		<clipPath id="SVGID_6_">
			<use xlink:href="#SVGID_2080_"  overflow="visible"/>
		</clipPath>
	</g>
</g>
<g>
	<path opacity="0.4" fill="#EA6A66" d="M131.968,67.745c2.478,0,4.857,0,7.362,0c0,1.03,0,1.948,0,2.866
		c0,1.257-0.024,2.514,0.01,3.77c0.016,0.59-0.197,0.786-0.777,0.778c-1.825-0.025-3.65-0.008-5.476-0.008c-0.324,0-0.647,0-1.077,0
		c0,2.701,0,5.319,0,8c-2.632,0-5.158,0-7.759,0c0-2.645,0-5.238,0-7.935c-0.381-0.025-0.694-0.061-1.008-0.062
		c-1.975-0.006-3.95-0.023-5.925,0.008c-0.624,0.01-0.828-0.19-0.818-0.821c0.033-2.147,0.013-4.296,0.013-6.552
		c2.581,0,5.078,0,7.677,0c0-2.54,0-4.975,0-7.476c2.627,0,5.15,0,7.778,0C131.968,62.758,131.968,65.194,131.968,67.745z"/>
	<polygon opacity="0.3" fill="#E76763" points="226.51,40.691 191.85,187.691 325.62,187.691 358.461,40.691 	"/>
	<polygon opacity="0.2" fill="#D6725F" points="97.289,40.691 97.289,187.691 189.197,187.691 223.858,40.691 	"/>
	<polygon opacity="0.4" fill="#EA6A66" points="471.289,40.691 361.114,40.691 328.272,187.691 471.289,187.691 	"/>
	<g>
		<defs>
			<polygon id="SVGID_2454_" points="97.289,40.691 97.289,187.691 189.197,187.691 223.858,40.691 			"/>
		</defs>
		<clipPath id="SVGID_8_">
			<use xlink:href="#SVGID_2454_"  overflow="visible"/>
		</clipPath>
	</g>
	<g>
		<defs>
			<polygon id="SVGID_2456_" points="226.51,40.691 191.85,187.691 325.62,187.691 358.461,40.691 			"/>
		</defs>
		<clipPath id="SVGID_10_">
			<use xlink:href="#SVGID_2456_"  overflow="visible"/>
		</clipPath>
		<path opacity="0.2" clip-path="url(#SVGID_10_)" fill="#D6725F" d="M342.026,51.89c-1.33-3.101-3.416-5.191-6.198-6.214
			c-2.38-0.874-4.851-0.787-6.848-0.432c-0.802-0.936-1.995-1.542-3.346-1.542c-2.412,0-4.364,1.897-4.364,4.242
			c0,2.341,1.952,4.238,4.364,4.238c2.268,0,4.105-1.677,4.325-3.817c1.454-0.218,3.132-0.247,4.695,0.324
			c1.894,0.695,3.342,2.188,4.308,4.438c5.238,12.207-4.731,53.43-7.064,62.637c-0.981,0.324-1.698,1.2-1.698,2.26
			c0,13.917-9.306,25.239-20.744,25.239c-11.438,0-20.742-11.322-20.742-25.239c0-0.915-0.545-1.685-1.319-2.094
			c-2.253-8.873-12.379-50.52-7.104-62.803c0.964-2.244,2.407-3.736,4.295-4.433c1.599-0.592,3.312-0.554,4.78-0.322
			c0.224,2.138,2.061,3.811,4.323,3.811c2.412,0,4.366-1.897,4.366-4.238c0-2.345-1.954-4.242-4.366-4.242
			c-1.358,0-2.553,0.612-3.352,1.555c-2.01-0.363-4.505-0.463-6.91,0.421c-2.784,1.021-4.868,3.111-6.2,6.212
			c-5.738,13.363,4.603,55.69,6.948,64.843c-0.254,0.38-0.44,0.807-0.44,1.295c0,15.363,9.911,28.052,22.647,29.837
			c-1.875,10.334,3.096,20.44,3.346,20.936c7.667,14.616,8.588,28.502,2.529,38.099c-4.485,7.103-12.453,11.015-22.44,11.015
			c-23.979,0-41.115-34.256-41.299-34.453c-0.286-0.307-3.97-4.234-8.629-8.36c1.225-2.138,1.926-4.593,1.926-7.208
			c0-8.207-6.88-14.882-15.335-14.882c-8.453,0-15.331,6.675-15.331,14.882c0,8.209,6.878,14.888,15.331,14.888
			c3.968,0,7.577-1.484,10.303-3.892c3.406,3.035,6.437,6.092,8.028,7.798c0.753,0.822,18.748,36.059,45.006,36.059
			c11.784,0,21.26-4.73,26.684-13.321c6.987-11.063,6.134-26.671-2.32-42.782c-0.049-0.102-4.759-9.643-2.762-18.66
			c13.264-1.181,23.757-14.147,23.757-29.957c0-0.332-0.071-0.648-0.195-0.934C337.119,108.803,347.843,65.444,342.026,51.89z
			 M226.481,181.172c-7.538,0-13.672-5.957-13.672-13.278c0-7.316,6.134-13.273,13.672-13.273c7.541,0,13.676,5.955,13.676,13.273
			c0,2.198-0.562,4.269-1.539,6.096c-0.782-0.67-1.584-1.341-2.397-1.993c0.562-1.258,0.883-2.642,0.883-4.103
			c0-5.691-4.755-10.309-10.623-10.309c-5.864,0-10.619,4.618-10.619,10.309c0,5.697,4.755,10.314,10.619,10.314
			c2.559,0,4.877-0.913,6.711-2.379c0.791,0.639,1.576,1.308,2.356,1.98C233.13,179.893,229.961,181.172,226.481,181.172z
			 M226.481,161.163c-3.823,0-6.933,3.018-6.933,6.729c0,3.713,3.111,6.735,6.933,6.735c1.377,0,2.651-0.403,3.733-1.077
			c0.306,0.218,0.614,0.444,0.921,0.675c-1.315,0.915-2.916,1.467-4.654,1.467c-4.43,0-8.032-3.501-8.032-7.802
			c0-4.299,3.602-7.796,8.032-7.796c4.43,0,8.034,3.497,8.034,7.796c0,0.857-0.177,1.669-0.443,2.443
			c-0.31-0.23-0.618-0.459-0.928-0.679c0.16-0.565,0.272-1.15,0.272-1.764C233.416,164.181,230.305,161.163,226.481,161.163z"/>
	</g>
	<path fill="#A45B59" d="M280.437,83.997c-5.953,0-11.861,2.112-17.058,7.619c-5.197-5.507-11.105-7.619-17.058-7.619
		c-11.682,0-22.744,9.374-22.744,22.744c0,5.035,1.18,9.74,3.096,14.215h12.086l10.735-25.053l11.901,35.697l3.306-4.958h5.154
		c0.987-1.692,2.798-2.843,4.899-2.843c3.139,0,5.686,2.547,5.686,5.686c0,3.139-2.547,5.686-5.686,5.686
		c-2.098,0-3.912-1.149-4.899-2.843h-2.11l-8.066,12.1l-10.843-32.536l-6.329,14.75h-12.944
		c7.238,12.29,19.515,22.855,28.129,33.451c2.621,3.221,4.176,3.508,5.686,3.508s3.065-0.287,5.686-3.508
		c12.91-15.878,34.116-31.674,34.116-53.353C303.182,93.37,292.119,83.997,280.437,83.997z"/>
	<path opacity="0.1" fill="#A45B59" d="M253.453,126.958h-27.645c8.042,13.656,21.682,25.394,31.253,37.167
		c2.912,3.579,4.64,3.898,6.318,3.898s3.405-0.319,6.318-3.898c14.344-17.642,37.906-35.193,37.906-59.279
		c0-14.856-12.291-25.271-25.271-25.271c-6.615,0-13.179,2.347-18.953,8.466c-5.774-6.119-12.338-8.466-18.953-8.466
		c-12.98,0-25.271,10.415-25.271,25.271c0,5.594,1.311,10.822,3.44,15.794h13.428l11.928-27.836l13.223,26.399l3.674,6.428h5.727
		c1.096-1.88,3.108-1.833,5.443-1.833c3.487,0,6.318,2.83,6.318,6.318c0,3.487-2.83,6.318-6.318,6.318
		c-2.331,0-4.347-1.276-5.443-3.159h-2.344l-8.962,13.444"/>
	<g>
		<defs>
			<polygon id="SVGID_2458_" points="97.289,40.691 97.289,187.691 189.197,187.691 223.858,40.691 			"/>
		</defs>
		<clipPath id="SVGID_12_">
			<use xlink:href="#SVGID_2458_"  overflow="visible"/>
		</clipPath>
		<circle opacity="0.1" clip-path="url(#SVGID_12_)" fill="#E76763" cx="127.92" cy="71.013" r="33.649"/>
		<circle opacity="0.1" clip-path="url(#SVGID_12_)" fill="#E76763" cx="127.92" cy="71.013" r="26.888"/>
		<circle opacity="0.1" clip-path="url(#SVGID_12_)" fill="#E76763" cx="127.92" cy="71.013" r="18.53"/>
		<g clip-path="url(#SVGID_12_)">
			<path opacity="0.2" fill="#D6725F" d="M151.109,138.406c0,0-21.681,4.234-26.915,13.302c-4.597,7.966,2.506,35.983,2.506,35.983
				h37.38l-2.295-38.27l-9.25-11.786L151.109,138.406z"/>
			<path opacity="0.3" fill="#E76763" d="M172.015,138.406c0,0,21.477,7.451,25.255,13.852c4.851,8.22-0.847,35.433-0.847,35.433
				h-36.605l0.546-38.27l10.225-11.786L172.015,138.406z"/>
			<path fill="#FDFDFD" d="M129.428,182.979c-0.098,0.215-0.231,0.13-0.364,0.042C129.185,183.007,129.306,182.993,129.428,182.979z
				"/>
			<path fill="#FDFDFD" d="M133.089,182.61c-0.097,0.203-0.217,0.229-0.362,0.045C132.847,182.64,132.968,182.625,133.089,182.61z"
				/>
			<path fill="#FDFDFD" d="M178.213,182.442c0.012-0.012,0.024-0.023,0.035-0.035c-0.002,0.008-0.001,0.018-0.006,0.022
				c-0.008,0.007-0.019,0.009-0.029,0.014L178.213,182.442z"/>
			<path opacity="0.3" fill="#E76763" d="M141.142,113.163c0,0,6.014,22.775,18.868,24.146c0,0,17.006-0.153,20.678-24.791
				c0,0-4.346-22.682-20.129-20.222C160.559,92.295,139.058,94.947,141.142,113.163z"/>
			<path fill="#A45B59" d="M169.187,101.544c0.582,3.103,0.582,3.104-2.768,2.453c-3.339-0.648-6.341-2.199-9.493-3.807
				c0.063,0.396,0.061,0.517,0.102,0.622c0.316,0.805,1.307,1.617,0.689,2.431c-0.584,0.771-1.558-0.082-2.31-0.229
				c-2.389-0.469-4.494-1.677-6.273-3.302c-0.956-0.873-1.217-0.779-2.003,0.24c-2.675,3.465-3.168,7.551-3.672,11.653
				c-0.108,0.884-0.149,1.79-1.288,1.72c-0.864-0.053-1.559-0.519-1.629-1.565c-0.385-5.754-0.568-11.486,1.776-16.951
				c2.286-5.332,6.711-7.962,11.972-9.665c6.096-1.973,12.089-1.085,18.107,0.289c3.394,0.775,6.877,0.905,10.499,1.279
				c-0.565,1.368-2.105,1.841-2.523,3.345c1.645,0.647,3.361,0.462,5.276,0.588c-0.732,1.538-1.763,2.607-2.74,3.697
				c-1.503,1.676-2.343,3.42-1.271,5.704c0.337,0.718,0.262,1.629,0.375,2.451c-0.091,0.611-0.296,1.239,0.25,1.761
				c0.05,2.399,0.321,4.804-0.029,7.195c-0.147,1.004-0.233,2.317-1.656,2.24c-1.206-0.065-1.259-1.183-1.473-2.185
				c-0.384-1.807-0.99-3.568-1.503-5.348c-0.152-0.529-0.408-0.981-0.973-1.141c-2.669-0.758-5.021-2.201-7.47-3.434
				c-0.118-0.254-0.269-0.461-0.594-0.351c-0.047,0.016-0.065,0.114-0.097,0.174C168.708,101.451,168.947,101.497,169.187,101.544z"
				/>
			<path fill="#A45B59" d="M173.346,174.503c-2.317-3.655-1.943-5.113,1.904-7.141c0.551-0.29,0.711-0.696,0.843-1.225
				c0.713-2.847,1.354-5.707,1.682-8.629c0.497-1.485,0.412-3.025,0.435-4.554c0.719-3.463,0.35-6.779-1.019-10.066
				c-1.159-2.783-3.14-4.241-6.056-4.583c-0.809-0.123-1.624-0.214-2.424-0.381c-0.514-0.108-0.718-0.551-0.675-1.033
				c0.047-0.527,0.457-0.853,0.938-0.756c3.165,0.636,6.413,1.099,8.783,3.654c1.333,2.233,1.893,4.716,2.331,7.237
				c0.029,0.574,0.059,1.148,0.088,1.722c-0.017,1.111-0.034,2.223-0.051,3.334c0.059,4.177-0.638,8.262-1.598,12.301
				c-0.402,1.692-0.768,3.15,0.565,4.756c1.182,1.423,1.102,3.237-0.241,4.749C177.209,175.735,175.325,175.576,173.346,174.503z"/>
			<path fill="#A45B59" d="M154.824,137.449c-0.421-0.987-1.598-0.493-2.455-0.298c-0.583,0.132-1.138,0.393-1.705,0.596
				l-3.572,2.115c-0.217,0.112-0.43,0.232-0.631,0.374c-2.346,1.622-2.991,4.04-3.273,6.697c-0.066,0.618,0.546,1.638-0.561,1.911
				c-3.829,0.943-4.353,4.133-5.018,7.244c0.407,0.229,0.814,0.458,1.221,0.688c0.722-0.485,1.043-1.184,1.254-2.02
				c0.677-2.685,2.482-4.316,4.512-4.177c2.07,0.142,4.032,2.114,4.483,4.621c0.114,0.636,0.2,1.167,0.882,1.384
				c1.354,0.117,1.46-0.732,1.333-1.741c-0.346-2.744-2.441-5.212-5.146-5.84c-0.77-0.178-0.919-0.443-0.984-1.148
				c-0.412-4.507,3.56-8.644,8.071-8.353C154.069,139.03,155.324,138.619,154.824,137.449z"/>
			<path opacity="0.2" fill="#D6725F" d="M150.664,156.533l-0.01-0.008c-0.185,0.055-0.406,0.081-0.693,0.056
				c-0.309,4.361-0.753,8.676-2.9,12.633c-1.328,2.448-1.956,2.813-4.515,1.966c-1.514-0.501-2.085,0.434-2.453,2.136
				c-1.937-4.94-1.599-9.523-1.27-14.082c0.06-0.834,0.084-1.639,0.008-2.46c-0.407-0.229-0.814-0.458-1.221-0.687l0.141,1.845
				c-0.635,2.829-0.547,5.744-0.245,8.561c0.433,4.04,0.836,8.249,4.629,10.95c0.675,0.481,1.33,0.717,2.093,0.327
				c0.525-0.268,0.789-0.71,0.601-1.313c-0.251-0.805-0.792-1.261-1.656-1.295c-0.601-0.023-1.386,0.377-1.608-0.817
				c3.381-0.796,6.225-2.408,7.336-5.911c0.946-2.982,2.047-5.946,2.201-9.129c0.014-0.295-0.043-0.646,0.073-0.909l0,0
				L150.664,156.533z"/>
			<path opacity="0.3" fill="#E76763" d="M154.795,135.454c0,0,0.455,3.872-1.56,4.046l8.55,10.642l9.351-11.838
				c0,0-4.507-2.664-3.104-3.566C168.031,134.738,161.183,139.076,154.795,135.454z"/>
		</g>
	</g>
	<path fill="none" stroke="#A45B59" stroke-miterlimit="10" d="M158.726,114.782"/>
	<g>
		<defs>
			<polygon id="SVGID_2460_" points="226.51,40.691 191.85,187.691 325.62,187.691 358.461,40.691 			"/>
		</defs>
		<clipPath id="SVGID_14_">
			<use xlink:href="#SVGID_2460_"  overflow="visible"/>
		</clipPath>
	</g>
	<g>
		<path fill="#A45B59" d="M434.499,179.128c-8.986,6.894-22.634,4.256-28.196-5.696c-4.428-7.922-8.474-16.058-12.69-24.099
			c0.905-0.487,1.809-0.975,2.713-1.462c3.821,7.141,7.69,14.257,11.441,21.435c1.527,2.922,3.886,4.885,6.592,6.567
			c1.454,0.904,2.926,1.162,3.916-0.474c0.886-1.465-0.004-2.526-1.265-3.413c-1.784-1.256-3.557-2.495-4.62-4.563
			c-3.762-7.325-7.618-14.601-11.439-21.896c7.061-3.674,14.122-7.348,21.183-11.022c4.173,7.904,8.266,15.851,12.547,23.696
			c3.012,5.518,2.521,11.067,0.58,16.666C434.769,176.286,433.765,177.522,434.499,179.128z"/>
		<path opacity="0.3" fill="#E76763" d="M396.326,147.871c-0.904,0.488-1.809,0.975-2.713,1.463
			c-4.39-8.256-8.947-16.428-13.126-24.789c-4.453-8.91-0.431-21.01,9.064-25.149c1.079,0.116,2.164,0.197,3.238,0.353
			c7.843,1.139,13.865,4.652,17.442,12.165c3.4,7.142,7.379,14.009,11.103,20.996c-6.667,4.409-13.347,8.794-21.093,11.165
			c-3.881-7.241-7.768-14.479-11.641-21.724c-1.357-2.538-1.163-5.222-0.599-7.9c0.249-1.18,0.663-2.331,1.074-3.469
			c0.578-1.603,0.451-3.071-1.163-3.865c-1.88-0.925-2.444,0.408-3.193,1.922c-2.69,5.436-2.942,10.832-0.161,16.247
			C388.435,132.837,392.399,140.344,396.326,147.871z"/>
		<path opacity="0.2" fill="#D6725F" d="M434.499,179.128c-0.735-1.605,0.269-2.842,0.762-4.261
			c1.941-5.598,2.432-11.148-0.58-16.666c-4.281-7.845-8.374-15.792-12.547-23.696c2.185-1.033,3.868-3.669,6.854-2.153
			c3.776,7.12,7.641,14.194,11.304,21.372C445.1,163.145,442.783,173.005,434.499,179.128z"/>
		<path fill="#A45B59" d="M421.334,132.909c-3.724-6.988-7.703-13.854-11.103-20.996c-3.577-7.514-9.599-11.026-17.442-12.165
			c-1.074-0.156-2.158-0.237-3.238-0.353c0.759-0.366,1.518-0.732,2.276-1.098c1.509,0.172,2.939-0.119,4.313-0.739
			c5.949-0.601,11.434,0.218,15.599,5.087c3.966,7.477,7.935,14.954,11.897,22.433C426.368,130.233,426.364,130.235,421.334,132.909
			z"/>
		<path fill="#A45B59" d="M421.334,132.909c5.029-2.673,5.033-2.676,2.303-7.83c-3.962-7.48-7.931-14.956-11.897-22.433
			c2.242,0.627,3.086,2.64,4.016,4.383c4.482,8.404,8.834,16.878,13.232,25.325c-2.986-1.517-4.669,1.118-6.854,2.152
			c-7.061,3.674-14.122,7.348-21.183,11.022c-0.237-0.484-0.473-0.969-0.71-1.453C407.987,141.703,414.667,137.318,421.334,132.909z
			"/>
	</g>
	<g>
		<path fill="#A45B59" d="M357.467,166.974c-3.283-1.817-4.897-4.977-5.918-8.275c-1.941-6.272-0.674-12.076,3.826-16.942
			c2.468-2.669,5.687-4.248,9.171-5.26c2.369-0.004,4.737-0.007,7.106-0.011c2.526,0.62,5.026,1.296,7.001,3.141
			c1.101,1.888,3.311,2.816,4.218,4.871c0.855,3.387,2.957,6.34,2.396,10.256c-0.37,2.577-1.179,4.674-2.304,6.943
			c-2.779,5.602-7.283,8.242-13.273,8.832C365.141,170.978,361.086,169.724,357.467,166.974z M359.497,163.963
			c1.636,2.342,2.06,2.406,3.957,0.577c0.605-0.583,1.196-1.181,1.791-1.776c4.468-4.467,8.958-8.913,13.391-13.415
			c1.734-1.761,1.568-2.825-0.39-3.745c-0.952-2.616-1.912-2.811-3.967-1.111c-3.223,2.667-6.175,5.669-8.982,8.689
			c-2.261,2.434-5.234,4.135-7.012,7.056C357.068,162.237,357.142,162.805,359.497,163.963z M360.641,141.658
			c-1.914-0.065-4.095,2.015-4.239,3.712c-0.162,1.9,0.584,3.091,2.511,3.291c1.929,0.201,4.513-2.119,4.352-3.974
			C363.122,143.032,361.944,142.119,360.641,141.658z"/>
		<path opacity="0.3" fill="#E76763" d="M357.467,166.974c3.619,2.75,7.673,4.004,12.222,3.556
			c5.99-0.589,10.494-3.229,13.273-8.832c1.125-2.269,1.934-4.366,2.304-6.943c0.562-3.916-1.54-6.869-2.396-10.256
			c1.411,0.366,1.628,1.806,2.44,2.711c3.188,4.493,2.979,9.474,2.022,14.535c-0.113,0.599-0.642,1.12-0.978,1.677
			c-1.194,1.849-2.388,3.697-3.582,5.546c-2.918,2.258-6.047,3.944-9.825,4.368C367.23,173.979,361.002,172.106,357.467,166.974z"/>
		<path opacity="0.4" fill="#EA6A66" d="M359.497,163.963c-2.355-1.158-2.429-1.725-1.212-3.725
			c1.777-2.921,4.751-4.622,7.012-7.056c2.807-3.021,5.759-6.023,8.982-8.689c2.055-1.701,3.015-1.506,3.967,1.111
			c-0.563,0.91-0.827,1.952-1.652,2.76c-4.133,4.045-8.118,8.246-12.332,12.203C362.867,161.876,361.908,164.008,359.497,163.963z"
			/>
		<path opacity="0.2" fill="#D6725F" d="M359.497,163.963c2.411,0.045,3.37-2.087,4.764-3.396
			c4.214-3.958,8.199-8.158,12.332-12.203c0.825-0.807,1.089-1.85,1.652-2.76c1.958,0.919,2.124,1.984,0.39,3.745
			c-4.433,4.502-8.923,8.948-13.391,13.415c-0.594,0.594-1.186,1.192-1.791,1.776C361.557,166.369,361.134,166.305,359.497,163.963z
			"/>
		<path opacity="0.3" fill="#E76763" d="M360.641,141.658c1.303,0.46,2.481,1.374,2.624,3.029c0.16,1.855-2.423,4.175-4.352,3.974
			c-1.927-0.201-2.673-1.392-2.511-3.291C356.547,143.674,358.728,141.593,360.641,141.658z"/>
	</g>
	<g>
		<defs>
			<polygon id="SVGID_2462_" points="471.289,40.691 361.114,40.691 328.272,187.691 471.289,187.691 			"/>
		</defs>
		<clipPath id="SVGID_16_">
			<use xlink:href="#SVGID_2462_"  overflow="visible"/>
		</clipPath>
		<g opacity="0.3" clip-path="url(#SVGID_16_)">
			<path fill="#A45B59" d="M415.858,139.453c-17.1-15.365-34.21-30.719-51.296-46.1c-6.628-5.966-7.041-11.573-1.031-18.312
				c14.185-15.907,28.5-31.698,42.764-47.535c6.891-7.652,13.716-15.365,20.699-22.932c6.705-7.266,13.182-7.541,20.453-1.009
				c15.855,14.243,31.683,28.517,47.51,42.791c1.582,1.426,3.498,2.586,4.141,4.828c-2.646,4.177-2.382,9.367-6.126,13.427
				c-20.909,22.677-41.452,45.693-62.03,68.673C426.831,137.876,422.143,140.468,415.858,139.453z M430.692,71.173
				c8.656-9.609,17.335-19.198,25.948-28.845c1.518-1.7,4.278-3.843,2.036-6.021c-2.776-2.696-4.656,0.671-6.279,2.462
				c-17.364,19.171-34.674,38.391-51.94,57.65c-1.456,1.624-4.299,3.535-1.485,5.919c2.751,2.33,4.256-0.765,5.72-2.367
				C413.416,90.424,422.038,80.784,430.692,71.173z M451.663,90.935c4.426-4.906,4.272-9.833-0.193-14.093
				c-4.069-3.882-9.214-3.493-13.144,0.993c-4.044,4.617-3.442,9.112,1.444,13.678C444.258,95.706,448.169,95.433,451.663,90.935z
				 M381.995,87.773c4.473,4.716,8.814,3.73,12.917-0.448c4.201-4.279,4.117-9.105-0.057-13.139
				c-4.308-4.164-9.111-4.186-13.157-0.061C377.27,78.64,377.373,83.406,381.995,87.773z M405.792,60.849
				c4.592,4.086,9.457,4.021,13.142-0.177c4.047-4.61,3.79-9.717-0.696-13.788c-4.42-4.012-8.736-3.672-12.926,1.016
				C401.103,52.612,401.259,56.816,405.792,60.849z M415.776,118.202c4.403,4.821,8.561,2.975,12.444-1.234
				c3.996-4.332,3.574-9.682-1.139-13.688c-4.077-3.465-8.243-3.337-12.031,0.461C410.566,108.237,410.821,113.718,415.776,118.202z
				 M475.861,50.487c-4.415-4.047-9.711-3.721-13.76,1.01c-3.525,4.119-3.31,8.305,0.504,12.098
				c4.372,4.348,9.875,4.192,13.823-0.11C480.608,58.932,480.624,54.62,475.861,50.487z M429.422,33.768
				c4.583,4.317,9.417,4.53,13.232,0.581c4.1-4.245,4.304-9.795,0.489-13.357c-4.301-4.017-9.58-4.118-13.359-0.256
				C425.362,25.253,425.235,29.824,429.422,33.768z"/>
			<path opacity="0.4" fill="#EA6A66" d="M415.858,139.453c6.285,1.014,10.973-1.577,15.083-6.168
				c20.578-22.98,41.121-45.996,62.03-68.673c3.743-4.06,3.48-9.251,6.126-13.427c4.304,5.544,1.957,10.477-1.881,14.769
				c-21.619,24.178-43.326,48.278-65.135,72.285C426.985,143.85,421.812,143.994,415.858,139.453z"/>
			<path opacity="0.2" fill="#D6725F" d="M451.663,90.935c-3.494,4.499-7.405,4.771-11.892,0.578
				c-4.886-4.566-5.489-9.062-1.444-13.678c3.93-4.486,9.074-4.875,13.144-0.993C455.935,81.101,456.089,86.028,451.663,90.935z"/>
			<path opacity="0.2" fill="#D6725F" d="M381.995,87.773c-4.621-4.367-4.725-9.133-0.297-13.648
				c4.046-4.126,8.849-4.104,13.157,0.061c4.174,4.035,4.258,8.86,0.057,13.139C390.808,91.503,386.468,92.489,381.995,87.773z"/>
			<path opacity="0.2" fill="#D6725F" d="M405.792,60.849c-4.533-4.033-4.689-8.237-0.479-12.948
				c4.189-4.688,8.505-5.028,12.926-1.016c4.485,4.07,4.743,9.178,0.696,13.788C415.249,64.87,410.384,64.935,405.792,60.849z"/>
			<path opacity="0.2" fill="#D6725F" d="M415.776,118.202c-4.955-4.484-5.21-9.965-0.726-14.46
				c3.787-3.798,7.954-3.926,12.031-0.461c4.714,4.006,5.135,9.355,1.139,13.688C424.338,121.177,420.179,123.022,415.776,118.202z"
				/>
			<path opacity="0.3" fill="#E76763" d="M475.869,50.486c4.755,4.134,4.739,8.445,0.56,12.999
				c-3.948,4.302-9.451,4.458-13.823,0.11c-3.814-3.793-4.029-7.979-0.504-12.098C466.15,46.766,471.447,46.44,475.869,50.486z"/>
			<path opacity="0.3" fill="#E76763" d="M429.422,33.768c-4.187-3.944-4.06-8.515,0.362-13.033c3.78-3.861,9.058-3.76,13.359,0.256
				c3.815,3.562,3.611,9.112-0.489,13.357C438.839,38.298,434.005,38.085,429.422,33.768z"/>
		</g>
	</g>
	<path fill="#A45B59" d="M156.103,114.782c0,0-5.839-4.52-9.346,0C146.757,114.782,149.97,113.295,156.103,114.782z"/>
	<path fill="#A45B59" d="M165.326,114.782c0,0,3.213-1.487,9.346,0C174.671,114.782,168.833,110.261,165.326,114.782"/>
</g>
</svg>
