<?xml version="1.0" encoding="utf-8"?>
<!-- Generator: Adobe Illustrator 17.0.0, SVG Export Plug-In . SVG Version: 6.00 Build 0)  -->
<!DOCTYPE svg PUBLIC "-//W3C//DTD SVG 1.1//EN" "http://www.w3.org/Graphics/SVG/1.1/DTD/svg11.dtd">
<svg version="1.1" id="Layer_1" xmlns="http://www.w3.org/2000/svg" xmlns:xlink="http://www.w3.org/1999/xlink" x="0px" y="0px"
	 width="136.222px" height="115px" viewBox="0 0 136.222 115" enable-background="new 0 0 136.222 115" xml:space="preserve">
<g>
	<g>
		<defs>
			<rect id="SVGID_1141_" x="-159.356" y="189.516" width="130" height="115"/>
		</defs>
		<clipPath id="SVGID_2_">
			<use xlink:href="#SVGID_1141_"  overflow="visible"/>
		</clipPath>
		<g clip-path="url(#SVGID_2_)">
		</g>
	</g>
</g>
<g>
	<defs>
		<rect id="SVGID_1413_" x="0" y="0" width="136.222" height="115"/>
	</defs>
	<clipPath id="SVGID_4_">
		<use xlink:href="#SVGID_1413_"  overflow="visible"/>
	</clipPath>
	<g clip-path="url(#SVGID_4_)">
		<g>
			<g>
				<defs>
					<polygon id="SVGID_1415_" points="-0.356,-1.484 -0.356,124.516 80.39,124.516 110.124,-1.484 					"/>
				</defs>
				<clipPath id="SVGID_6_">
					<use xlink:href="#SVGID_1415_"  overflow="visible"/>
				</clipPath>
			</g>
			<g>
				<defs>
					<polygon id="SVGID_1417_" points="-1.356,-0.484 -1.356,117.516 135.935,117.516 136.053,-0.484 					"/>
				</defs>
				<clipPath id="SVGID_8_">
					<use xlink:href="#SVGID_1417_"  overflow="visible"/>
				</clipPath>
				<polygon opacity="0.3" clip-path="url(#SVGID_8_)" fill="#B2E9FF" points="-1.356,-2.484 -1.356,124.516 138.304,124.516 
					136.853,-2.484 				"/>
				<g clip-path="url(#SVGID_8_)">
					<defs>
						<polyline id="SVGID_1419_" points="12.644,124.516 140.359,124.516 140.285,-14.484 12.644,-14.484 						"/>
					</defs>
					<clipPath id="SVGID_10_">
						<use xlink:href="#SVGID_1419_"  overflow="visible"/>
					</clipPath>
				</g>
			</g>
		</g>
		<g>
			<defs>
				<polygon id="SVGID_1421_" points="-1.356,1.516 -1.356,119.516 135.935,119.516 135.45,1.516 				"/>
			</defs>
			<clipPath id="SVGID_12_">
				<use xlink:href="#SVGID_1421_"  overflow="visible"/>
			</clipPath>
		</g>
		<g>
			<defs>
				<polygon id="SVGID_1423_" points="-1.356,-0.484 -1.356,119.516 138.304,119.516 136.853,-0.484 				"/>
			</defs>
			<clipPath id="SVGID_14_">
				<use xlink:href="#SVGID_1423_"  overflow="visible"/>
			</clipPath>
			<rect x="-8.379" y="100.938" clip-path="url(#SVGID_14_)" fill="#CCCCCC" width="154.961" height="18.349"/>
			<g clip-path="url(#SVGID_14_)">
				<g>
					<path fill="#0A4958" d="M62.751,79.211c-1.548,0-3.037,0-4.533,0c0,2.291,0,4.353,0,6.499c1.546,0,3.009,0,4.533,0
						C62.751,83.532,62.751,81.525,62.751,79.211z M47.228,79.189c-0.047,0.467-0.089,0.692-0.089,0.918
						c0.006,7.076-0.385,5.64,2.225,5.732c2.519,0.088,2.52,0.02,2.288-6.011c-0.006-0.15-0.043-0.293-0.095-0.639
						C50.156,79.189,48.724,79.189,47.228,79.189z M47.054,58.531c0.967,0,1.754-0.064,2.538,0.012
						c2.074,0.202,2.042,0.222,2.174-4.766c0.041-1.569-0.154-2.248-0.784-2.189c-1.243,0.117-2.485,0.285-3.806,0.441
						C47.136,54.175,47.099,56.167,47.054,58.531z M52.616,79.17c0,1.863-0.045,3.577,0.027,5.262
						c0.022,0.512,0.355,1.33,0.56,1.355c1.084,0.133,2.174,0.106,3.259,0.006c0.181-0.017,0.492-0.64,0.503-1.023
						c0.053-1.831,0.024-3.675,0.024-5.6C55.457,79.17,54.09,79.17,52.616,79.17z M47.272,88.124
						c-0.549,6.531-0.414,6.944,2.137,6.931c0.066,0,0.131-0.001,0.197-0.001c2.259-0.01,2.276-0.014,2.043-5.391
						c-0.024-0.556-0.385-1.445-0.603-1.47C49.804,88.05,48.557,88.124,47.272,88.124z M47.208,39.571
						c0.019,0.227,0.039,0.454,0.058,0.681c1.303,0,2.608,0.061,3.909-0.066c0.194-0.019,0.55-0.957,0.532-1.402
						c-0.241-6.042,0.649-5.404-2.184-5.446c-0.033,0-0.066,0.001-0.098,0.001c-2.507,0.012-2.508,0.012-2.262,6.032
						C47.166,39.441,47.193,39.505,47.208,39.571z M58.193,94.941c1.588,0,3.055,0,4.554,0c0-2.257,0-4.395,0-6.64
						c-1.555,0-3.04,0-4.554,0C58.193,90.565,58.193,92.636,58.193,94.941z M58.171,39.864c1.591,0,3.051,0,4.552,0
						c0-2.194,0-4.231,0-6.431c-1.573,0-3.059,0-4.552,0C58.171,35.61,58.171,37.609,58.171,39.864z M47.187,60.947
						c-0.048,1.936-0.135,3.564-0.1,5.178c0.011,0.497,0.347,1.345,0.546,1.365c1.115,0.116,2.235,0.095,3.35-0.043
						c0.235-0.029,0.632-0.698,0.652-1.147c0.077-1.738,0.031-3.507,0.031-5.354C50.098,60.947,48.693,60.947,47.187,60.947z
						 M51.576,76.619c0.353-6.726,0.353-6.726-2.251-6.725c-0.066,0-0.132,0-0.197,0c-2.164-0.004-2.164-0.004-2.007,5.074
						c0.002,0.078-0.012,0.187,0.004,0.229c0.19,0.48,0.378,1.338,0.58,1.358C48.979,76.681,50.256,76.619,51.576,76.619z
						 M58.141,24.333c0,1.919-0.047,3.557,0.027,5.163c0.023,0.51,0.36,1.315,0.566,1.338c1.146,0.129,2.296,0.112,3.443,0.007
						c0.211-0.019,0.576-0.64,0.59-1.038c0.064-1.811,0.028-3.641,0.028-5.471C61.168,24.333,59.734,24.333,58.141,24.333z
						 M62.692,61.014c-1.519,0-2.979,0-4.469,0c0,2.188,0,4.224,0,6.491c0.834,0,1.583,0.002,2.331,0
						C63.134,67.498,63.134,67.497,62.692,61.014z M47.268,49.357c1.149,0,2.294-0.011,3.438,0.004
						c0.659,0.009,0.961-0.505,1.003-2.299c0.11-4.698,0.13-4.759-1.861-4.415c-0.131,0.023-0.263,0.023-0.394,0.029
						c-2.52,0.12-2.52,0.12-2.289,6.196C47.169,48.941,47.193,49.006,47.268,49.357z M62.637,42.679c-1.055,0-2.1,0.003-3.145-0.001
						c-1.348-0.004-1.357-0.006-1.348,3.129c0.01,3.763-0.234,3.437,1.489,3.438c0.328,0,0.656,0.001,0.985,0
						c2.409-0.002,2.41-0.002,2.16-5.788C62.772,43.312,62.729,43.175,62.637,42.679z M49.328,30.906
						c2.477-0.009,2.477-0.009,2.346-5.002c-0.002-0.078,0.014-0.187-0.002-0.23c-0.187-0.487-0.37-1.355-0.571-1.379
						c-1.117-0.137-2.24-0.139-3.358-0.01c-0.215,0.025-0.561,0.782-0.597,1.299c-0.335,4.901-0.168,5.332,1.884,5.325
						C49.131,30.908,49.229,30.908,49.328,30.906z M58.198,58.481c1.397,0,2.739,0.04,4.079-0.048
						c0.176-0.011,0.48-0.652,0.492-1.041c0.054-1.75,0.023-3.514,0.023-5.318c-1.617,0-3.08,0-4.594,0
						C58.198,54.235,58.198,56.22,58.198,58.481z M58.187,76.466c1.581,0,3.041,0,4.609,0c0-1.919,0.023-3.693-0.018-5.457
						c-0.009-0.376-0.247-1.025-0.384-1.033c-1.395-0.077-2.791-0.047-4.207-0.047C58.187,72.284,58.187,74.28,58.187,76.466z
						 M52.622,40.029c0.983,0,1.858,0.084,2.728-0.03c0.57-0.074,1.419,0.004,1.631-0.774c0.286-1.047,0.132-2.868,0.056-4.324
						c-0.029-0.555-0.356-1.428-0.563-1.455c-1.108-0.144-2.222-0.114-3.332-0.017c-0.178,0.015-0.484,0.645-0.496,1.034
						C52.591,36.151,52.622,37.856,52.622,40.029z M52.613,94.847c1.555,0,2.943,0,4.323,0c0-2.3,0-4.372,0-6.555
						c-1.456,0-2.842,0-4.323,0c0,1.103,0,2.02,0,2.937C52.613,92.381,52.613,93.533,52.613,94.847z M52.63,58.539
						c0.93,0,1.713,0.034,2.496-0.006c2.147-0.11,1.854,0.83,1.876-4.718c0.001-0.312,0.031-0.679-0.026-0.923
						c-0.084-0.362-0.232-0.904-0.357-0.91c-1.324-0.066-2.649-0.041-3.989-0.041C52.63,54.291,52.63,56.219,52.63,58.539z
						 M52.565,42.727c0,1.729,0.03,3.121-0.008,4.502c-0.045,1.608,0.212,2.281,0.905,2.189c0.948-0.126,1.902-0.043,2.848-0.222
						c0.239-0.045,0.617-0.677,0.652-1.153c0.093-1.284,0.079-2.643,0.013-3.944c-0.025-0.496-0.304-1.295-0.477-1.311
						C55.261,42.674,54.023,42.727,52.565,42.727z M52.723,31.074c1.017,0,1.994,0.055,2.97-0.014
						c1.309-0.092,1.362-0.273,1.318-3.395c-0.049-3.455-0.049-3.455-1.517-3.449c-0.197,0.001-0.394,0-0.591-0.001
						C52.379,24.208,52.379,24.208,52.723,31.074z M52.67,67.46c1.314,0,2.582,0.034,3.849-0.043
						c0.158-0.01,0.436-0.585,0.445-0.928c0.045-1.817,0.021-3.644,0.021-5.466c-1.534,0-2.897,0-4.315,0
						C52.67,63.164,52.67,65.146,52.67,67.46z M52.844,76.612c1.13,0,2.309-0.038,3.486,0.017c0.526,0.024,0.651-0.541,0.679-1.687
						c0.125-5.057,0.138-5.056-2.013-5.052c-0.033,0-0.066,0-0.098,0c-2.58,0.004-2.58,0.004-2.229,6.224
						C52.672,76.179,52.708,76.233,52.844,76.612z M81.878,32.744c0-0.004,0-0.008,0-0.008c1.515-0.004,23.031,0.06,24.544-0.06
						c0.286-0.023,0.562-0.778,0.843-1.195c-0.278-0.342-0.554-0.976-0.833-0.982c-3.063-0.068-26.126-0.071-29.189,0.018
						c-0.285,0.008-0.567,0.769-0.85,1.18c0.28,0.349,0.557,0.982,0.841,1C78.781,32.796,80.33,32.744,81.878,32.744z
						 M81.835,39.901c1.549,0,23.098,0.053,24.645-0.051c0.268-0.018,0.528-0.703,0.792-1.08c-0.262-0.39-0.522-1.112-0.785-1.119
						c-3.097-0.072-26.194-0.064-29.291,0.019c-0.266,0.007-0.529,0.708-0.793,1.087c0.262,0.382,0.52,1.076,0.787,1.094
						C78.737,39.957,80.286,39.903,81.835,39.901z M81.727,61.64v-0.008c1.611-0.004,23.223,0.04,24.833-0.052
						c0.235-0.013,0.464-0.674,0.696-1.036c-0.211-0.336-0.422-0.96-0.634-0.964c-3.189-0.061-26.378-0.06-29.567,0.002
						c-0.215,0.004-0.428,0.61-0.642,0.935c0.226,0.374,0.449,1.057,0.679,1.072C78.636,61.686,80.182,61.64,81.727,61.64z
						 M81.833,67.068c0,0,0,0.008,0,0.012c-1.583,0-3.167-0.036-4.749,0.041c-0.223,0.011-0.442,0.577-0.662,0.886
						c0.222,0.306,0.443,0.876,0.666,0.88c3.133,0.057,26.267,0.06,29.4-0.003c0.255-0.005,0.507-0.586,0.761-0.9
						c-0.255-0.305-0.508-0.86-0.766-0.874C104.934,67.026,83.383,67.068,81.833,67.068z M81.833,25.351c0,0.003,0,0.005,0,0.005
						c1.484,0.003,2.968,0.055,4.45-0.039c0.325-0.02,20.644-0.562,20.966-0.863c-0.306-0.356-20.61-1.012-20.917-1.02
						c-3.033-0.076-6.066-0.072-9.099,0.002c-0.275,0.007-0.546,0.659-0.819,1.011c0.29,0.301,0.577,0.846,0.87,0.863
						C78.8,25.398,80.317,25.351,81.833,25.351z M81.731,76.065c1.611,0,23.222,0.034,24.833-0.038
						c0.231-0.01,0.459-0.526,0.688-0.807c-0.208-0.344-0.414-0.985-0.623-0.989c-3.189-0.065-26.378-0.067-29.567-0.007
						c-0.215,0.004-0.428,0.618-0.642,0.949c0.225,0.297,0.448,0.841,0.675,0.852C78.64,76.101,80.186,76.065,81.731,76.065z
						 M81.824,47.016c0-0.004,0-0.009,0-0.013c1.549,0,23.098,0.052,24.645-0.05c0.267-0.018,0.527-0.688,0.79-1.057
						c-0.241-0.348-0.48-0.995-0.723-1c-3.13-0.065-26.26-0.062-29.39,0.007c-0.247,0.005-0.492,0.619-0.738,0.95
						c0.257,0.388,0.509,1.094,0.77,1.112C78.726,47.069,80.275,47.016,81.824,47.016z M81.847,90.618
						c1.517,0,3.035,0.049,4.551-0.043c0.287-0.018,20.569-0.596,20.853-0.916c-0.275-0.337-0.548-0.96-0.824-0.967
						c-3.067-0.069-26.134-0.069-29.201,0.004c-0.269,0.006-0.535,0.662-0.803,1.016c0.258,0.301,0.514,0.848,0.775,0.862
						C78.746,90.656,80.297,90.614,81.847,90.618z M81.843,83.337c0-0.008,0-0.017,0-0.025c1.55,0,23.101,0.041,24.65-0.04
						c0.258-0.014,0.511-0.561,0.767-0.862c-0.248-0.32-0.495-0.913-0.744-0.918c-3.133-0.068-26.266-0.075-29.399-0.013
						c-0.239,0.005-0.476,0.644-0.714,0.988c0.23,0.29,0.459,0.82,0.691,0.831C78.677,83.373,80.26,83.337,81.843,83.337z
						 M81.86,17.921v-0.008c1.579,0,23.159,0.027,24.738-0.032c0.213-0.008,0.423-0.445,0.634-0.683
						c-0.213-0.314-0.426-0.898-0.64-0.902c-3.159-0.058-26.317-0.056-29.476-0.002c-0.232,0.004-0.462,0.519-0.693,0.796
						c0.233,0.277,0.464,0.783,0.699,0.793C78.701,17.956,80.281,17.921,81.86,17.921z M81.831,52.377
						c-1.515,0-3.031-0.048-4.545,0.042c-0.289,0.017-0.573,0.578-0.859,0.888c0.273,0.254,0.546,0.725,0.82,0.73
						c3.063,0.056,26.127,0.061,29.19,0.008c0.269-0.005,0.537-0.511,0.806-0.784c-0.256-0.296-0.51-0.834-0.768-0.847
						C104.928,52.333,83.379,52.374,81.831,52.377z M70.326,85.451c0.093-0.255,0.185-0.51,0.278-0.765
						c-0.138-1.409-0.093-3.498-0.46-4.053c-0.444-0.672-1.321-0.44-1.84,0.19c-0.25,0.303-0.299,3.331-0.113,3.547
						C68.824,85.108,69.602,85.146,70.326,85.451z M70.771,84.93c0.113,0.201,0.225,0.402,0.338,0.603
						c0.693-0.355,1.458-0.419,2.039-1.226c0.201-0.279,0.113-3.239-0.136-3.523c-0.534-0.608-1.45-0.868-1.849-0.146
						C70.791,81.315,70.884,83.442,70.771,84.93z M70.669,43.244c-0.205-2.318-0.138-4.431-0.529-5.163
						c-0.382-0.715-1.357-0.485-1.83,0.231c-0.282,0.428-0.317,3.469-0.082,3.797C68.806,42.915,69.604,42.832,70.669,43.244z
						 M73.117,38.065c-2.412-0.556-2.481-0.918-2.136,4.595C73.209,43.494,73.393,43.114,73.117,38.065z M70.643,69.522
						c0.23,2.192,0.201,4.285,0.565,4.798c0.457,0.642,1.324,0.375,1.84-0.278c0.244-0.309,0.258-3.358,0.075-3.551
						C72.489,69.824,71.723,69.866,70.643,69.522z M70.683,69.548c-1.073,0.334-1.835,0.287-2.465,0.947
						c-0.182,0.191-0.171,3.228,0.072,3.536c0.515,0.653,1.381,0.931,1.836,0.292C70.489,73.812,70.458,71.717,70.683,69.548z
						 M70.646,96.213c-0.199-2.165-0.147-4.264-0.501-4.777c-0.454-0.656-1.292-0.354-1.846,0.202
						c-0.212,0.212-0.264,3.15-0.098,3.33C68.845,95.667,69.607,95.756,70.646,96.213z M70.89,96.137
						c0.853-0.348,1.611-0.384,2.238-1.084c0.183-0.204,0.132-3.202-0.054-3.366c-0.657-0.578-1.419-0.483-2.184-0.652
						C70.89,92.86,70.89,94.165,70.89,96.137z M72.343,59.511c-0.838,0.145-1.516-0.489-1.531,2.031
						c-0.014,2.269,0.473,2.357,1.158,2.245c0.579-0.094,1.262,0.519,1.271-1.981C73.25,59.591,72.791,59.356,72.343,59.511z
						 M72.02,53.153c0.624,0.084,1.24,0.358,1.225-2.171c-0.013-2.167-0.417-2.371-1.135-2.291
						c-0.689,0.076-1.323-0.309-1.302,2.358C70.825,53.413,71.34,53.267,72.02,53.153z M69.347,53.16
						c0.659,0.181,1.179,0.154,1.177-2.272c-0.002-2.616-0.667-2.07-1.297-2.187c-0.74-0.138-1.128,0.217-1.135,2.337
						C68.084,53.381,68.635,53.297,69.347,53.16z M67.981,59.219c0.182,2.005,0.161,3.997,0.425,4.238
						c0.557,0.509,1.291,0.337,1.889-0.079c0.164-0.114,0.234-2.95,0.116-3.053C69.755,59.749,69.027,59.629,67.981,59.219z
						 M67.493,80.549c-2.043-0.585-2.225-0.094-1.78,4.461c0.59,0,1.18,0,1.78,0C67.493,83.403,67.493,82.032,67.493,80.549z
						 M65.638,42.742c0.608,0,1.204,0,1.814,0c0-1.686,0-3.241,0-4.809c-0.642,0-1.189,0-1.814,0
						C65.638,39.478,65.638,40.917,65.638,42.742z M65.495,69.922c0.102,1.665,0.026,3.343,0.336,4.36
						c0.181,0.595,1.284,0.603,1.431,0.055c0.303-1.125,0.242-2.803,0.341-4.414C66.849,69.922,66.302,69.922,65.495,69.922z
						 M65.543,95.681c0.748,0,1.314,0,2.06,0c-0.091-1.592,0.008-3.327-0.311-4.237c-0.216-0.616-1.289-0.566-1.496,0.071
						C65.488,92.458,65.609,94.187,65.543,95.681z M65.517,48.831c0.075,1.58-0.05,3.487,0.238,3.948
						c0.421,0.676,1.137,0.317,1.803,0.41c-0.032-1.731-0.056-3.002-0.081-4.358C66.822,48.831,66.278,48.831,65.517,48.831z
						 M67.454,63.499c0-1.323,0-2.521,0-3.826c-0.629,0-1.175,0-1.708,0C65.274,63.585,65.571,64.259,67.454,63.499z"/>
					<rect x="45.644" y="21.516" fill="#9B9B9B" width="19" height="75"/>
					<rect x="64.644" y="34.516" fill="#CCCCCC" width="10" height="64"/>
					<rect x="75.644" y="12.516" fill="#CCCCCC" width="32" height="83"/>
					<path fill="#CCCCCC" d="M77.116,88.295c3.159-0.054,26.317-0.056,29.476,0.002c0.214,0.004,0.427,0.588,0.64,0.902
						c-0.211,0.238-0.421,0.675-0.634,0.683c-1.579,0.058-23.158,0.032-24.738,0.032v0.008c-1.579,0-3.159,0.034-4.738-0.037
						c-0.235-0.011-0.466-0.517-0.699-0.794C76.654,88.814,76.884,88.299,77.116,88.295z"/>
					<path fill="#00608B" d="M77.116,89.295c3.159-0.054,26.317-0.056,29.476,0.002c0.214,0.004,0.427,0.588,0.64,0.902
						c-0.211,0.238-0.421,0.675-0.634,0.683c-1.579,0.058-23.158,0.032-24.738,0.032v0.008c-1.579,0-3.159,0.034-4.738-0.037
						c-0.235-0.011-0.466-0.517-0.699-0.794C76.654,89.814,76.884,89.299,77.116,89.295z"/>
					<path opacity="0.3" fill="none" stroke="#7E6B71" stroke-miterlimit="10" d="M111.044,44.55"/>
					<path opacity="0.3" fill="none" stroke="#7E6B71" stroke-miterlimit="10" d="M44.648,25.247"/>
					<path opacity="0.3" fill="none" stroke="#7E6B71" stroke-miterlimit="10" d="M65.244,33.096"/>
					<path fill="none" d="M77.123,17.884c1.579,0.071,3.158,0.037,4.738,0.037v-0.008c1.579,0,23.159,0.027,24.738-0.032
						c0.213-0.008,0.423-0.445,0.634-0.683c-0.213-0.314-0.426-0.898-0.64-0.902c-3.159-0.058-26.317-0.056-29.476-0.002
						c-0.232,0.004-0.462,0.519-0.693,0.796C76.656,17.368,76.887,17.874,77.123,17.884z"/>
					<path fill="none" d="M77.284,25.31c1.516,0.088,3.033,0.041,4.549,0.041c0,0.002,0,0.005,0,0.005
						c1.484,0.003,2.968,0.055,4.451-0.039c0.325-0.02,20.644-0.562,20.965-0.863c-0.306-0.356-20.61-1.012-20.917-1.02
						c-3.033-0.077-6.066-0.072-9.099,0.002c-0.275,0.007-0.546,0.659-0.82,1.011C76.703,24.748,76.991,25.293,77.284,25.31z"/>
					<path fill="none" d="M77.234,32.697c1.547,0.099,3.095,0.047,4.643,0.047c0-0.004,0-0.008,0-0.008
						c1.515-0.004,23.031,0.06,24.544-0.06c0.286-0.023,0.562-0.778,0.843-1.195c-0.277-0.342-0.554-0.976-0.833-0.982
						c-3.063-0.068-26.126-0.071-29.189,0.018c-0.285,0.008-0.567,0.769-0.85,1.18C76.674,32.046,76.951,32.679,77.234,32.697z"/>
					<path fill="none" d="M67.558,53.189c-0.032-1.731-0.056-3.002-0.081-4.358c-0.655,0-1.199,0-1.96,0
						c0.075,1.58-0.05,3.487,0.238,3.948C66.176,53.455,66.892,53.096,67.558,53.189z"/>
					<path fill="none" d="M106.536,44.895c-3.13-0.065-26.26-0.062-29.39,0.007c-0.247,0.005-0.492,0.619-0.738,0.95
						c0.257,0.388,0.509,1.094,0.77,1.112c1.547,0.106,3.096,0.052,4.645,0.052c0-0.004,0-0.009,0-0.013
						c1.549,0,23.098,0.052,24.645-0.05c0.267-0.018,0.527-0.688,0.79-1.057C107.018,45.547,106.778,44.901,106.536,44.895z"/>
					<path fill="none" d="M106.487,37.651c-3.097-0.072-26.194-0.064-29.291,0.019c-0.266,0.007-0.529,0.708-0.793,1.087
						c0.262,0.382,0.52,1.076,0.787,1.094c1.547,0.105,3.096,0.051,4.645,0.049c1.549,0,23.098,0.054,24.645-0.051
						c0.268-0.018,0.528-0.703,0.792-1.08C107.01,38.38,106.75,37.658,106.487,37.651z"/>
					<path fill="none" d="M49.032,30.908c0.099,0,0.198,0,0.296-0.002c2.477-0.009,2.477-0.009,2.346-5.002
						c-0.002-0.078,0.014-0.188-0.002-0.23c-0.187-0.487-0.37-1.355-0.571-1.379c-1.117-0.137-2.24-0.139-3.358-0.01
						c-0.215,0.025-0.562,0.782-0.597,1.299C46.812,30.483,46.98,30.915,49.032,30.908z"/>
					<path fill="none" d="M53.462,49.418c0.948-0.126,1.902-0.043,2.848-0.222c0.239-0.045,0.617-0.677,0.652-1.153
						c0.093-1.284,0.079-2.643,0.013-3.944c-0.025-0.496-0.304-1.295-0.477-1.311c-1.236-0.114-2.474-0.061-3.932-0.061
						c0,1.729,0.031,3.121-0.008,4.502C52.512,48.838,52.769,49.51,53.462,49.418z"/>
					<path fill="none" d="M56.474,33.446c-1.108-0.144-2.222-0.114-3.332-0.017c-0.178,0.016-0.484,0.645-0.496,1.034
						c-0.055,1.689-0.024,3.393-0.024,5.567c0.983,0,1.858,0.084,2.728-0.03c0.57-0.074,1.419,0.004,1.631-0.774
						c0.286-1.047,0.132-2.868,0.056-4.324C57.008,34.347,56.682,33.473,56.474,33.446z"/>
					<path fill="none" d="M55.694,31.06c1.308-0.092,1.362-0.273,1.318-3.395c-0.049-3.455-0.049-3.455-1.517-3.449
						c-0.197,0.001-0.394,0-0.591-0.001c-2.524-0.007-2.524-0.007-2.18,6.859C53.74,31.074,54.718,31.129,55.694,31.06z"/>
					<path fill="none" d="M47.268,49.357c1.149,0,2.294-0.011,3.438,0.004c0.659,0.009,0.961-0.505,1.003-2.299
						c0.11-4.698,0.13-4.759-1.861-4.415c-0.131,0.023-0.262,0.023-0.394,0.029c-2.52,0.12-2.52,0.12-2.289,6.196
						C47.169,48.941,47.193,49.006,47.268,49.357z"/>
					<path fill="none" d="M49.523,33.339c-0.033-0.001-0.066,0.001-0.098,0.001c-2.507,0.012-2.508,0.012-2.262,6.032
						c0.003,0.069,0.029,0.133,0.045,0.2c0.019,0.227,0.039,0.454,0.058,0.681c1.303,0,2.608,0.061,3.909-0.066
						c0.194-0.019,0.55-0.957,0.532-1.402C51.466,32.742,52.356,33.38,49.523,33.339z"/>
					<path fill="none" d="M73.117,38.065c-2.412-0.556-2.481-0.918-2.136,4.595C73.209,43.494,73.393,43.114,73.117,38.065z"/>
					<path fill="none" d="M72.02,53.153c0.624,0.084,1.24,0.358,1.224-2.171c-0.013-2.167-0.417-2.371-1.135-2.291
						c-0.689,0.076-1.323-0.309-1.302,2.358C70.825,53.413,71.34,53.267,72.02,53.153z"/>
					<path fill="none" d="M68.092,51.037c-0.008,2.344,0.543,2.26,1.255,2.123c0.659,0.181,1.179,0.154,1.177-2.272
						c-0.002-2.616-0.667-2.07-1.297-2.187C68.487,48.563,68.099,48.917,68.092,51.037z"/>
					<path fill="none" d="M58.734,30.835c1.146,0.129,2.296,0.112,3.443,0.007c0.211-0.019,0.576-0.64,0.59-1.038
						c0.064-1.811,0.028-3.641,0.028-5.471c-1.627,0-3.061,0-4.654,0c0,1.919-0.047,3.557,0.027,5.163
						C58.191,30.006,58.528,30.812,58.734,30.835z"/>
					<path fill="none" d="M70.669,43.244c-0.205-2.318-0.138-4.431-0.529-5.163c-0.382-0.715-1.357-0.485-1.83,0.231
						c-0.282,0.428-0.317,3.469-0.082,3.797C68.806,42.915,69.604,42.831,70.669,43.244z"/>
					<path fill="none" d="M59.634,49.246c0.328,0,0.656,0.001,0.985,0.001c2.409-0.002,2.41-0.002,2.16-5.788
						c-0.006-0.146-0.05-0.283-0.141-0.779c-1.055,0-2.1,0.003-3.145-0.001c-1.348-0.004-1.357-0.006-1.349,3.129
						C58.154,49.571,57.91,49.244,59.634,49.246z"/>
					<path fill="none" d="M58.171,39.864c1.591,0,3.051,0,4.552,0c0-2.194,0-4.231,0-6.431c-1.573,0-3.059,0-4.552,0
						C58.171,35.609,58.171,37.609,58.171,39.864z"/>
					<path fill="none" d="M67.451,37.933c-0.642,0-1.189,0-1.814,0c0,1.545,0,2.984,0,4.809c0.608,0,1.204,0,1.814,0
						C67.451,41.057,67.451,39.501,67.451,37.933z"/>
					<path fill="none" d="M58.171,39.864c1.591,0,3.051,0,4.552,0c0-2.194,0-4.231,0-6.431c-1.573,0-3.059,0-4.552,0
						C58.171,35.609,58.171,37.609,58.171,39.864z"/>
					<path fill="none" d="M59.634,49.246c0.328,0,0.656,0.001,0.985,0.001c2.409-0.002,2.41-0.002,2.16-5.788
						c-0.006-0.146-0.05-0.283-0.141-0.779c-1.055,0-2.1,0.003-3.145-0.001c-1.348-0.004-1.357-0.006-1.349,3.129
						C58.154,49.571,57.91,49.244,59.634,49.246z"/>
					<path fill="none" d="M58.734,30.835c1.146,0.129,2.296,0.112,3.443,0.007c0.211-0.019,0.576-0.64,0.59-1.038
						c0.064-1.811,0.028-3.641,0.028-5.471c-1.627,0-3.061,0-4.654,0c0,1.919-0.047,3.557,0.027,5.163
						C58.191,30.006,58.528,30.812,58.734,30.835z"/>
					<path fill="none" d="M56.474,33.446c-1.108-0.144-2.222-0.114-3.332-0.017c-0.178,0.016-0.484,0.645-0.496,1.034
						c-0.055,1.689-0.024,3.393-0.024,5.567c0.983,0,1.858,0.084,2.728-0.03c0.57-0.074,1.419,0.004,1.631-0.774
						c0.286-1.047,0.132-2.868,0.056-4.324C57.008,34.347,56.682,33.473,56.474,33.446z"/>
					<path fill="none" d="M73.117,38.065c-2.412-0.556-2.481-0.918-2.136,4.595C73.209,43.494,73.393,43.114,73.117,38.065z"/>
					<path fill="none" d="M72.02,53.153c0.624,0.084,1.24,0.358,1.224-2.171c-0.013-2.167-0.417-2.371-1.135-2.291
						c-0.689,0.076-1.323-0.309-1.302,2.358C70.825,53.413,71.34,53.267,72.02,53.153z"/>
					<path fill="none" d="M47.268,49.357c1.149,0,2.294-0.011,3.438,0.004c0.659,0.009,0.961-0.505,1.003-2.299
						c0.11-4.698,0.13-4.759-1.861-4.415c-0.131,0.023-0.262,0.023-0.394,0.029c-2.52,0.12-2.52,0.12-2.289,6.196
						C47.169,48.941,47.193,49.006,47.268,49.357z"/>
					<path fill="none" d="M49.523,33.339c-0.033-0.001-0.066,0.001-0.098,0.001c-2.507,0.012-2.508,0.012-2.262,6.032
						c0.003,0.069,0.029,0.133,0.045,0.2c0.019,0.227,0.039,0.454,0.058,0.681c1.303,0,2.608,0.061,3.909-0.066
						c0.194-0.019,0.55-0.957,0.532-1.402C51.466,32.742,52.356,33.38,49.523,33.339z"/>
					<path fill="none" d="M55.694,31.06c1.308-0.092,1.362-0.273,1.318-3.395c-0.049-3.455-0.049-3.455-1.517-3.449
						c-0.197,0.001-0.394,0-0.591-0.001c-2.524-0.007-2.524-0.007-2.18,6.859C53.74,31.074,54.718,31.129,55.694,31.06z"/>
					<path fill="none" d="M53.462,49.418c0.948-0.126,1.902-0.043,2.848-0.222c0.239-0.045,0.617-0.677,0.652-1.153
						c0.093-1.284,0.079-2.643,0.013-3.944c-0.025-0.496-0.304-1.295-0.477-1.311c-1.236-0.114-2.474-0.061-3.932-0.061
						c0,1.729,0.031,3.121-0.008,4.502C52.512,48.838,52.769,49.51,53.462,49.418z"/>
					<path fill="none" d="M49.032,30.908c0.099,0,0.198,0,0.296-0.002c2.477-0.009,2.477-0.009,2.346-5.002
						c-0.002-0.078,0.014-0.188-0.002-0.23c-0.187-0.487-0.37-1.355-0.571-1.379c-1.117-0.137-2.24-0.139-3.358-0.01
						c-0.215,0.025-0.562,0.782-0.597,1.299C46.812,30.483,46.98,30.915,49.032,30.908z"/>
					<path fill="none" d="M67.451,37.933c-0.642,0-1.189,0-1.814,0c0,1.545,0,2.984,0,4.809c0.608,0,1.204,0,1.814,0
						C67.451,41.057,67.451,39.501,67.451,37.933z"/>
					<path fill="none" d="M77.234,32.697c1.547,0.099,3.095,0.047,4.643,0.047c0-0.004,0-0.008,0-0.008
						c1.515-0.004,23.031,0.06,24.544-0.06c0.286-0.023,0.562-0.778,0.843-1.195c-0.277-0.342-0.554-0.976-0.833-0.982
						c-3.063-0.068-26.126-0.071-29.189,0.018c-0.285,0.008-0.567,0.769-0.85,1.18C76.674,32.046,76.951,32.679,77.234,32.697z"/>
					<path fill="none" d="M77.284,25.31c1.516,0.088,3.033,0.041,4.549,0.041c0,0.002,0,0.005,0,0.005
						c1.484,0.003,2.968,0.055,4.451-0.039c0.325-0.02,20.644-0.562,20.965-0.863c-0.306-0.356-20.61-1.012-20.917-1.02
						c-3.033-0.077-6.066-0.072-9.099,0.002c-0.275,0.007-0.546,0.659-0.82,1.011C76.703,24.748,76.991,25.293,77.284,25.31z"/>
					<path fill="none" d="M77.123,17.884c1.579,0.071,3.158,0.037,4.738,0.037v-0.008c1.579,0,23.159,0.027,24.738-0.032
						c0.213-0.008,0.423-0.445,0.634-0.683c-0.213-0.314-0.426-0.898-0.64-0.902c-3.159-0.058-26.317-0.056-29.476-0.002
						c-0.232,0.004-0.462,0.519-0.693,0.796C76.656,17.368,76.887,17.874,77.123,17.884z"/>
					<path fill="none" d="M106.487,37.651c-3.097-0.072-26.194-0.064-29.291,0.019c-0.266,0.007-0.529,0.708-0.793,1.087
						c0.262,0.382,0.52,1.076,0.787,1.094c1.547,0.105,3.096,0.051,4.645,0.049c1.549,0,23.098,0.054,24.645-0.051
						c0.268-0.018,0.528-0.703,0.792-1.08C107.01,38.38,106.75,37.658,106.487,37.651z"/>
					<path fill="none" d="M106.536,44.895c-3.13-0.065-26.26-0.062-29.39,0.007c-0.247,0.005-0.492,0.619-0.738,0.95
						c0.257,0.388,0.509,1.094,0.77,1.112c1.547,0.106,3.096,0.052,4.645,0.052c0-0.004,0-0.009,0-0.013
						c1.549,0,23.098,0.052,24.645-0.05c0.267-0.018,0.527-0.688,0.79-1.057C107.018,45.547,106.778,44.901,106.536,44.895z"/>
					<path fill="none" d="M67.558,53.189c-0.032-1.731-0.056-3.002-0.081-4.358c-0.655,0-1.199,0-1.96,0
						c0.075,1.58-0.05,3.487,0.238,3.948C66.176,53.455,66.892,53.096,67.558,53.189z"/>
					<path fill="none" d="M68.092,51.037c-0.008,2.344,0.543,2.26,1.255,2.123c0.659,0.181,1.179,0.154,1.177-2.272
						c-0.002-2.616-0.667-2.07-1.297-2.187C68.487,48.563,68.099,48.917,68.092,51.037z"/>
					<path fill="none" d="M70.669,43.244c-0.205-2.318-0.138-4.431-0.529-5.163c-0.382-0.715-1.357-0.485-1.83,0.231
						c-0.282,0.428-0.317,3.469-0.082,3.797C68.806,42.915,69.604,42.831,70.669,43.244z"/>
					<path fill="#00608B" d="M110.369,44.538c-0.8-0.056-0.427-0.801-0.421-2.68c0.032-10.024,0.015-20.048,0.01-30.072
						c0-0.919-0.039-1.837-0.06-2.74c-5.412,0-30.732,0-36.147,0c0,1.295,0,2.384,0,3.472c0.001,6.265-0.013,12.531,0.013,18.795
						c0.007,1.601-0.214,2.234-0.91,2.183c-1.384-0.1-2.77-0.046-4.155-0.051c-1.11-0.004-2.221-0.001-3.456-0.001
						c0-5.109,0-9.92,0-14.979l0,0v82.473c8.535,0,36.565,0,45.126,0V44.538z M73.117,38.065c0.276,5.049,0.092,5.429-2.136,4.595
						C70.636,37.147,70.705,37.509,73.117,38.065z M72.109,48.691c0.719-0.08,1.122,0.124,1.135,2.291
						c0.016,2.529-0.601,2.254-1.224,2.171c-0.68,0.114-1.195,0.26-1.213-2.104C70.787,48.382,71.42,48.767,72.109,48.691z
						 M73.242,61.806c-0.01,2.5-0.692,1.887-1.271,1.981c-0.685,0.111-1.172,0.024-1.158-2.245c0.015-2.52,0.693-1.886,1.531-2.031
						C72.791,59.356,73.25,59.591,73.242,61.806z M68.311,38.312c0.473-0.717,1.448-0.946,1.83-0.231
						c0.391,0.731,0.324,2.845,0.529,5.163c-1.065-0.412-1.863-0.328-2.44-1.135C67.994,41.78,68.028,38.74,68.311,38.312z
						 M70.524,50.887c0.001,2.427-0.518,2.454-1.177,2.272c-0.712,0.137-1.263,0.221-1.255-2.123
						c0.007-2.12,0.395-2.474,1.135-2.337C69.857,48.817,70.522,48.271,70.524,50.887z M65.638,37.933c0.624,0,1.171,0,1.814,0
						c0,1.568,0,3.124,0,4.809c-0.609,0-1.206,0-1.814,0C65.638,40.917,65.638,39.478,65.638,37.933z M67.477,48.831
						c0.025,1.356,0.049,2.627,0.081,4.358c-0.666-0.093-1.382,0.266-1.803-0.41c-0.287-0.461-0.163-2.368-0.238-3.948
						C66.278,48.831,66.822,48.831,67.477,48.831z M67.454,59.673c0,1.305,0,2.503,0,3.826c-1.883,0.76-2.18,0.087-1.708-3.826
						C66.278,59.673,66.824,59.673,67.454,59.673z M65.543,95.681c0.066-1.494-0.054-3.223,0.253-4.166
						c0.207-0.637,1.28-0.687,1.496-0.071c0.319,0.91,0.22,2.645,0.311,4.237C66.857,95.681,66.29,95.681,65.543,95.681z
						 M67.493,80.549c0,1.483,0,2.854,0,4.461c-0.601,0-1.191,0-1.78,0C65.268,80.455,65.45,79.964,67.493,80.549z M67.263,74.336
						c-0.148,0.548-1.25,0.541-1.432-0.055c-0.309-1.017-0.233-2.694-0.336-4.359c0.806,0,1.354,0,2.108,0
						C67.505,71.533,67.565,73.211,67.263,74.336z M70.411,60.325c0.118,0.103,0.048,2.939-0.116,3.053
						c-0.597,0.416-1.331,0.588-1.889,0.079c-0.264-0.241-0.244-2.233-0.425-4.238C69.027,59.629,69.755,59.749,70.411,60.325z
						 M68.201,94.968c-0.166-0.18-0.114-3.118,0.098-3.33c0.554-0.556,1.393-0.858,1.846-0.202c0.354,0.512,0.302,2.612,0.501,4.777
						C69.607,95.756,68.845,95.667,68.201,94.968z M68.303,80.823c0.52-0.63,1.397-0.862,1.84-0.19
						c0.367,0.556,0.322,2.644,0.46,4.053c-0.093,0.255-0.185,0.51-0.278,0.765c-0.723-0.305-1.502-0.343-2.136-1.081
						C68.004,84.154,68.053,81.126,68.303,80.823z M70.126,74.323c-0.455,0.64-1.321,0.362-1.836-0.292
						c-0.243-0.308-0.255-3.345-0.072-3.536c0.623-0.652,1.376-0.615,2.429-0.937c-0.001-0.012-0.002-0.024-0.004-0.037
						c1.079,0.344,1.846,0.302,2.48,0.969c0.183,0.193,0.17,3.242-0.075,3.551c-0.516,0.652-1.383,0.92-1.84,0.278
						c-0.353-0.496-0.338-2.47-0.544-4.581C70.461,71.839,70.479,73.827,70.126,74.323z M73.127,95.053
						c-0.627,0.7-1.385,0.736-2.238,1.084c0-1.972,0-3.277,0-5.102c0.765,0.17,1.527,0.074,2.184,0.652
						C73.26,91.851,73.31,94.848,73.127,95.053z M73.148,84.307c-0.581,0.808-1.346,0.871-2.039,1.226
						c-0.113-0.201-0.225-0.402-0.338-0.603c0.112-1.489,0.019-3.615,0.393-4.292c0.398-0.722,1.315-0.462,1.849,0.146
						C73.262,81.067,73.349,84.028,73.148,84.307z M77.116,16.295c3.159-0.054,26.317-0.056,29.476,0.002
						c0.214,0.004,0.427,0.588,0.64,0.902c-0.211,0.238-0.421,0.675-0.634,0.683c-1.579,0.058-23.158,0.032-24.738,0.032v0.008
						c-1.579,0-3.159,0.034-4.738-0.037c-0.235-0.011-0.466-0.517-0.699-0.794C76.654,16.814,76.884,16.299,77.116,16.295z
						 M77.116,23.295c3.159-0.054,26.317-0.056,29.476,0.002c0.214,0.004,0.427,0.588,0.64,0.902
						c-0.211,0.238-0.421,0.675-0.634,0.683c-1.579,0.058-23.158,0.032-24.738,0.032v0.008c-1.579,0-3.159,0.034-4.738-0.037
						c-0.235-0.011-0.466-0.517-0.699-0.794C76.654,23.814,76.884,23.299,77.116,23.295z M77.244,30.517
						c3.063-0.089,26.126-0.086,29.189-0.018c0.279,0.006,0.555,0.64,0.833,0.982c-0.281,0.417-0.557,1.172-0.843,1.195
						c-1.513,0.12-23.029,0.057-24.544,0.06c0,0,0,0.004,0,0.008c-1.548,0-3.097,0.052-4.643-0.047
						c-0.284-0.018-0.561-0.651-0.841-1C76.677,31.286,76.959,30.525,77.244,30.517z M106.493,83.272
						c-1.549,0.082-23.1,0.04-24.65,0.04c0,0.008,0,0.017,0,0.025c-1.583,0-3.166,0.035-4.749-0.039
						c-0.233-0.011-0.461-0.541-0.691-0.831c0.238-0.344,0.475-0.984,0.714-0.988c3.133-0.062,26.266-0.056,29.399,0.013
						c0.249,0.005,0.496,0.598,0.744,0.918C107.004,82.71,106.751,83.258,106.493,83.272z M77.062,74.225
						c3.189-0.06,26.378-0.059,29.567,0.007c0.209,0.004,0.415,0.644,0.623,0.989c-0.229,0.282-0.457,0.797-0.688,0.807
						c-1.61,0.071-23.222,0.038-24.833,0.038c-1.545,0-3.091,0.036-4.635-0.04c-0.227-0.011-0.45-0.555-0.675-0.852
						C76.634,74.843,76.847,74.229,77.062,74.225z M76.422,68.006c0.221-0.309,0.439-0.875,0.662-0.886
						c1.582-0.077,3.166-0.041,4.749-0.041c0-0.004,0-0.012,0-0.012c1.55,0,23.101-0.042,24.65,0.041
						c0.258,0.014,0.511,0.569,0.766,0.874c-0.254,0.313-0.506,0.895-0.761,0.9c-3.133,0.063-26.267,0.061-29.4,0.003
						C76.865,68.882,76.644,68.313,76.422,68.006z M106.56,61.58c-1.61,0.092-23.222,0.048-24.833,0.052v0.008
						c-1.545,0-3.091,0.046-4.635-0.05c-0.23-0.014-0.453-0.698-0.679-1.072c0.214-0.326,0.427-0.931,0.642-0.935
						c3.189-0.062,26.378-0.064,29.567-0.002c0.212,0.004,0.423,0.628,0.634,0.964C107.024,60.905,106.795,61.566,106.56,61.58z
						 M76.427,53.306c0.286-0.31,0.57-0.871,0.859-0.888c1.514-0.09,3.03-0.042,4.545-0.042c1.548-0.003,23.097-0.043,24.644,0.037
						c0.259,0.013,0.512,0.551,0.768,0.847c-0.269,0.273-0.536,0.779-0.806,0.784c-3.063,0.053-26.127,0.048-29.19-0.008
						C76.973,54.032,76.7,53.561,76.427,53.306z M106.469,46.953c-1.547,0.102-23.096,0.05-24.645,0.05c0,0.004,0,0.009,0,0.013
						c-1.549,0-3.098,0.054-4.645-0.052c-0.261-0.018-0.514-0.724-0.77-1.112c0.246-0.331,0.491-0.944,0.738-0.95
						c3.13-0.068,26.26-0.072,29.39-0.007c0.242,0.005,0.482,0.652,0.723,1C106.995,46.264,106.736,46.935,106.469,46.953z
						 M106.48,39.85c-1.547,0.104-23.096,0.051-24.645,0.051c-1.549,0.002-3.098,0.056-4.645-0.049
						c-0.266-0.018-0.525-0.712-0.787-1.094c0.264-0.379,0.527-1.08,0.793-1.087c3.097-0.084,26.194-0.091,29.291-0.019
						c0.263,0.006,0.523,0.729,0.785,1.119C107.008,39.147,106.748,39.832,106.48,39.85z"/>
					<path fill="#0075A9" d="M64.061,18.696c-5.669-0.057-11.338-0.15-17.007-0.192c-2.178-0.016-2.192,0.031-2.317,5.148
						c-0.028,1.161-0.16,1.688-0.686,1.685l0.609,75.602c6.655,0,13.311,0,19.966,0c0.208,0,0.411,0,0.618,0V18.465
						C64.759,18.564,64.41,18.699,64.061,18.696z M54.904,24.215c0.197,0.001,0.394,0.002,0.591,0.001
						c1.468-0.006,1.468-0.006,1.517,3.449c0.044,3.122-0.009,3.303-1.318,3.395c-0.976,0.069-1.954,0.014-2.971,0.014
						C52.379,24.208,52.379,24.208,54.904,24.215z M52.557,47.229c0.038-1.381,0.008-2.773,0.008-4.502
						c1.458,0,2.696-0.053,3.932,0.061c0.174,0.016,0.452,0.816,0.477,1.311c0.066,1.302,0.08,2.66-0.013,3.944
						c-0.034,0.476-0.413,1.108-0.652,1.153c-0.946,0.178-1.9,0.096-2.848,0.222C52.769,49.51,52.512,48.838,52.557,47.229z
						 M55.126,58.533c-0.783,0.04-1.566,0.006-2.496,0.006c0-2.32,0-4.248,0-6.599c1.34,0,2.665-0.025,3.989,0.041
						c0.125,0.006,0.273,0.548,0.357,0.91c0.057,0.245,0.027,0.611,0.026,0.923C56.98,59.363,57.272,58.423,55.126,58.533z
						 M56.964,66.489c-0.008,0.343-0.286,0.918-0.445,0.928c-1.267,0.077-2.535,0.043-3.849,0.043c0-2.313,0-4.296,0-6.436
						c1.417,0,2.781,0,4.315,0C56.985,62.845,57.009,64.672,56.964,66.489z M51.707,38.784c0.018,0.445-0.338,1.383-0.532,1.402
						c-1.301,0.126-2.606,0.066-3.909,0.066c-0.019-0.227-0.039-0.454-0.058-0.681c-0.015-0.066-0.042-0.13-0.045-0.2
						c-0.246-6.02-0.246-6.02,2.262-6.032c0.033,0,0.066-0.001,0.098-0.001C52.356,33.38,51.466,32.742,51.707,38.784z
						 M49.456,42.676c0.131-0.006,0.263-0.006,0.394-0.029c1.991-0.344,1.971-0.283,1.861,4.415
						c-0.042,1.794-0.345,2.308-1.003,2.299c-1.144-0.015-2.289-0.004-3.438-0.004c-0.075-0.351-0.099-0.416-0.102-0.485
						C46.936,42.795,46.936,42.795,49.456,42.676z M47.148,25.583c0.035-0.516,0.382-1.274,0.597-1.299
						c1.117-0.129,2.24-0.127,3.358,0.01c0.2,0.025,0.384,0.892,0.571,1.379c0.016,0.042,0,0.152,0.002,0.23
						c0.13,4.994,0.13,4.994-2.346,5.002c-0.099,0.002-0.198,0.002-0.296,0.002C46.98,30.915,46.812,30.483,47.148,25.583z
						 M49.606,95.054c-0.066,0-0.131,0.001-0.197,0.001c-2.55,0.013-2.686-0.4-2.137-6.931c1.285,0,2.531-0.074,3.773,0.069
						c0.219,0.025,0.579,0.914,0.603,1.47C51.882,95.04,51.865,95.044,49.606,95.054z M49.128,69.894c0.066,0,0.131,0,0.197,0
						c2.603-0.001,2.603-0.001,2.251,6.725c-1.32,0-2.597,0.062-3.87-0.063c-0.201-0.02-0.39-0.878-0.58-1.358
						c-0.017-0.042-0.002-0.152-0.004-0.229C46.964,69.89,46.964,69.89,49.128,69.894z M47.187,60.947c1.506,0,2.911,0,4.479,0
						c0,1.846,0.046,3.615-0.031,5.354c-0.02,0.449-0.416,1.118-0.652,1.147c-1.115,0.138-2.235,0.16-3.35,0.043
						c-0.199-0.021-0.535-0.868-0.546-1.365C47.052,64.511,47.139,62.883,47.187,60.947z M49.364,85.839
						c-2.61-0.091-2.218,1.345-2.225-5.732c0-0.226,0.042-0.451,0.089-0.918c1.496,0,2.927,0,4.328,0
						c0.053,0.345,0.09,0.489,0.095,0.639C51.884,85.859,51.883,85.927,49.364,85.839z M51.766,53.777
						c-0.132,4.988-0.1,4.968-2.174,4.766c-0.784-0.077-1.571-0.012-2.538-0.012c0.044-2.364,0.082-4.356,0.122-6.501
						c1.32-0.156,2.563-0.325,3.806-0.441C51.612,51.529,51.808,52.208,51.766,53.777z M56.936,94.847c-1.381,0-2.768,0-4.323,0
						c0-1.314,0-2.466,0-3.618c0-0.917,0-1.835,0-2.937c1.481,0,2.867,0,4.323,0C56.936,90.475,56.936,92.547,56.936,94.847z
						 M56.965,84.77c-0.011,0.382-0.322,1.006-0.503,1.023c-1.085,0.099-2.175,0.126-3.259-0.006
						c-0.205-0.025-0.538-0.842-0.56-1.355c-0.071-1.685-0.027-3.399-0.027-5.262c1.474,0,2.841,0,4.373,0
						C56.989,81.095,57.018,82.939,56.965,84.77z M57.009,74.943c-0.028,1.145-0.153,1.711-0.679,1.687
						c-1.178-0.055-2.356-0.017-3.486-0.017c-0.136-0.379-0.172-0.433-0.176-0.497c-0.35-6.22-0.35-6.22,2.229-6.224
						c0.033,0,0.066,0,0.098,0C57.148,69.887,57.134,69.885,57.009,74.943z M56.981,39.226c-0.212,0.778-1.061,0.7-1.631,0.774
						c-0.87,0.114-1.745,0.03-2.728,0.03c0-2.173-0.031-3.878,0.024-5.567c0.013-0.389,0.318-1.018,0.496-1.034
						c1.11-0.097,2.224-0.127,3.332,0.017c0.207,0.027,0.534,0.901,0.563,1.455C57.113,36.358,57.267,38.179,56.981,39.226z
						 M58.141,24.333c1.593,0,3.027,0,4.654,0c0,1.829,0.036,3.66-0.028,5.471c-0.014,0.399-0.378,1.019-0.59,1.038
						c-1.147,0.105-2.297,0.122-3.443-0.007c-0.206-0.023-0.543-0.829-0.566-1.338C58.094,27.89,58.141,26.252,58.141,24.333z
						 M62.722,33.432c0,2.201,0,4.237,0,6.431c-1.501,0-2.961,0-4.552,0c0-2.254,0-4.254,0-6.431
						C59.663,33.432,61.15,33.432,62.722,33.432z M59.493,42.678c1.044,0.003,2.089,0.001,3.145,0.001
						c0.091,0.496,0.134,0.633,0.141,0.779c0.25,5.786,0.25,5.786-2.16,5.788c-0.328,0-0.656,0-0.985-0.001
						c-1.724-0.002-1.479,0.325-1.489-3.438C58.136,42.672,58.145,42.674,59.493,42.678z M62.769,57.392
						c-0.012,0.389-0.316,1.029-0.492,1.041c-1.34,0.088-2.682,0.048-4.079,0.048c0-2.26,0-4.245,0-6.407c1.514,0,2.978,0,4.594,0
						C62.792,53.878,62.822,55.642,62.769,57.392z M62.747,94.941c-1.498,0-2.966,0-4.554,0c0-2.304,0-4.376,0-6.64
						c1.514,0,2.999,0,4.554,0C62.747,90.546,62.747,92.684,62.747,94.941z M62.751,85.71c-1.524,0-2.987,0-4.533,0
						c0-2.145,0-4.208,0-6.499c1.496,0,2.985,0,4.533,0C62.751,81.525,62.751,83.532,62.751,85.71z M62.796,76.466
						c-1.569,0-3.028,0-4.609,0c0-2.186,0-4.183,0-6.537c1.416,0,2.812-0.03,4.207,0.047c0.137,0.008,0.375,0.657,0.384,1.033
						C62.819,72.774,62.796,74.547,62.796,76.466z M60.554,67.504c-0.748,0.002-1.497,0-2.331,0c0-2.267,0-4.303,0-6.491
						c1.489,0,2.95,0,4.469,0C63.134,67.497,63.134,67.498,60.554,67.504z"/>
					<rect x="25.644" y="21.516" fill="#9B9B9B" width="19" height="75"/>
					<path fill="#0075A9" d="M44.061,18.696c-5.669-0.057-11.338-0.15-17.007-0.192c-2.178-0.016-2.192,0.031-2.317,5.148
						c-0.028,1.161-0.16,1.688-0.686,1.685l0.609,75.602c6.655,0,13.311,0,19.966,0c0.208,0,0.411,0,0.618,0V18.465
						C44.759,18.564,44.41,18.699,44.061,18.696z M34.904,24.215c0.197,0.001,0.394,0.002,0.591,0.001
						c1.468-0.006,1.468-0.006,1.517,3.449c0.044,3.122-0.009,3.303-1.318,3.395c-0.976,0.069-1.954,0.014-2.971,0.014
						C32.379,24.208,32.379,24.208,34.904,24.215z M32.557,47.229c0.038-1.381,0.008-2.773,0.008-4.502
						c1.458,0,2.696-0.053,3.932,0.061c0.174,0.016,0.452,0.816,0.477,1.311c0.066,1.302,0.08,2.66-0.013,3.944
						c-0.034,0.476-0.413,1.108-0.652,1.153c-0.946,0.178-1.9,0.096-2.848,0.222C32.769,49.51,32.512,48.838,32.557,47.229z
						 M35.126,58.533c-0.783,0.04-1.566,0.006-2.496,0.006c0-2.32,0-4.248,0-6.599c1.34,0,2.665-0.025,3.989,0.041
						c0.125,0.006,0.273,0.548,0.357,0.91c0.057,0.245,0.027,0.611,0.026,0.923C36.98,59.363,37.272,58.423,35.126,58.533z
						 M36.964,66.489c-0.008,0.343-0.286,0.918-0.445,0.928c-1.267,0.077-2.535,0.043-3.849,0.043c0-2.313,0-4.296,0-6.436
						c1.417,0,2.781,0,4.315,0C36.985,62.845,37.009,64.672,36.964,66.489z M31.707,38.784c0.018,0.445-0.338,1.383-0.532,1.402
						c-1.301,0.126-2.606,0.066-3.909,0.066c-0.019-0.227-0.039-0.454-0.058-0.681c-0.015-0.066-0.042-0.13-0.045-0.2
						c-0.246-6.02-0.246-6.02,2.262-6.032c0.033,0,0.066-0.001,0.098-0.001C32.356,33.38,31.466,32.742,31.707,38.784z
						 M29.456,42.676c0.131-0.006,0.263-0.006,0.394-0.029c1.991-0.344,1.971-0.283,1.861,4.415
						c-0.042,1.794-0.345,2.308-1.003,2.299c-1.144-0.015-2.289-0.004-3.438-0.004c-0.075-0.351-0.099-0.416-0.102-0.485
						C26.936,42.795,26.936,42.795,29.456,42.676z M27.148,25.583c0.035-0.516,0.382-1.274,0.597-1.299
						c1.117-0.129,2.24-0.127,3.358,0.01c0.2,0.025,0.384,0.892,0.571,1.379c0.016,0.042,0,0.152,0.002,0.23
						c0.13,4.994,0.13,4.994-2.346,5.002c-0.099,0.002-0.198,0.002-0.296,0.002C26.98,30.915,26.812,30.483,27.148,25.583z
						 M29.606,95.054c-0.066,0-0.131,0.001-0.197,0.001c-2.55,0.013-2.686-0.4-2.137-6.931c1.285,0,2.531-0.074,3.773,0.069
						c0.219,0.025,0.579,0.914,0.603,1.47C31.882,95.04,31.865,95.044,29.606,95.054z M29.128,69.894c0.066,0,0.131,0,0.197,0
						c2.603-0.001,2.603-0.001,2.251,6.725c-1.32,0-2.597,0.062-3.87-0.063c-0.201-0.02-0.39-0.878-0.58-1.358
						c-0.017-0.042-0.002-0.152-0.004-0.229C26.964,69.89,26.964,69.89,29.128,69.894z M27.187,60.947c1.506,0,2.911,0,4.479,0
						c0,1.846,0.046,3.615-0.031,5.354c-0.02,0.449-0.416,1.118-0.652,1.147c-1.115,0.138-2.235,0.16-3.35,0.043
						c-0.199-0.021-0.535-0.868-0.546-1.365C27.052,64.511,27.139,62.883,27.187,60.947z M29.364,85.839
						c-2.61-0.091-2.218,1.345-2.225-5.732c0-0.226,0.042-0.451,0.089-0.918c1.496,0,2.927,0,4.328,0
						c0.053,0.345,0.09,0.489,0.095,0.639C31.884,85.859,31.883,85.927,29.364,85.839z M31.766,53.777
						c-0.132,4.988-0.1,4.968-2.174,4.766c-0.784-0.077-1.571-0.012-2.538-0.012c0.044-2.364,0.082-4.356,0.122-6.501
						c1.32-0.156,2.563-0.325,3.806-0.441C31.612,51.529,31.808,52.208,31.766,53.777z M36.936,94.847c-1.381,0-2.768,0-4.323,0
						c0-1.314,0-2.466,0-3.618c0-0.917,0-1.835,0-2.937c1.481,0,2.867,0,4.323,0C36.936,90.475,36.936,92.547,36.936,94.847z
						 M36.965,84.77c-0.011,0.382-0.322,1.006-0.503,1.023c-1.085,0.099-2.175,0.126-3.259-0.006
						c-0.205-0.025-0.538-0.842-0.56-1.355c-0.071-1.685-0.027-3.399-0.027-5.262c1.474,0,2.841,0,4.373,0
						C36.989,81.095,37.018,82.939,36.965,84.77z M37.009,74.943c-0.028,1.145-0.153,1.711-0.679,1.687
						c-1.178-0.055-2.356-0.017-3.486-0.017c-0.136-0.379-0.172-0.433-0.176-0.497c-0.35-6.22-0.35-6.22,2.229-6.224
						c0.033,0,0.066,0,0.098,0C37.148,69.887,37.134,69.885,37.009,74.943z M36.981,39.226c-0.212,0.778-1.061,0.7-1.631,0.774
						c-0.87,0.114-1.745,0.03-2.728,0.03c0-2.173-0.031-3.878,0.024-5.567c0.013-0.389,0.318-1.018,0.496-1.034
						c1.11-0.097,2.224-0.127,3.332,0.017c0.207,0.027,0.534,0.901,0.563,1.455C37.113,36.358,37.267,38.179,36.981,39.226z
						 M38.141,24.333c1.593,0,3.027,0,4.654,0c0,1.829,0.036,3.66-0.028,5.471c-0.014,0.399-0.378,1.019-0.59,1.038
						c-1.147,0.105-2.297,0.122-3.443-0.007c-0.206-0.023-0.543-0.829-0.566-1.338C38.094,27.89,38.141,26.252,38.141,24.333z
						 M42.722,33.432c0,2.201,0,4.237,0,6.431c-1.501,0-2.961,0-4.552,0c0-2.254,0-4.254,0-6.431
						C39.663,33.432,41.15,33.432,42.722,33.432z M39.493,42.678c1.044,0.003,2.089,0.001,3.145,0.001
						c0.091,0.496,0.134,0.633,0.141,0.779c0.25,5.786,0.25,5.786-2.16,5.788c-0.328,0-0.656,0-0.985-0.001
						c-1.724-0.002-1.479,0.325-1.489-3.438C38.136,42.672,38.145,42.674,39.493,42.678z M42.769,57.392
						c-0.012,0.389-0.316,1.029-0.492,1.041c-1.34,0.088-2.682,0.048-4.079,0.048c0-2.26,0-4.245,0-6.407c1.514,0,2.978,0,4.594,0
						C42.792,53.878,42.822,55.642,42.769,57.392z M42.747,94.941c-1.498,0-2.966,0-4.554,0c0-2.304,0-4.376,0-6.64
						c1.514,0,2.999,0,4.554,0C42.747,90.546,42.747,92.684,42.747,94.941z M42.751,85.71c-1.524,0-2.987,0-4.533,0
						c0-2.145,0-4.208,0-6.499c1.496,0,2.985,0,4.533,0C42.751,81.525,42.751,83.532,42.751,85.71z M42.796,76.466
						c-1.569,0-3.028,0-4.609,0c0-2.186,0-4.183,0-6.537c1.416,0,2.812-0.03,4.207,0.047c0.137,0.008,0.375,0.657,0.384,1.033
						C42.819,72.774,42.796,74.547,42.796,76.466z M40.554,67.504c-0.748,0.002-1.497,0-2.331,0c0-2.267,0-4.303,0-6.491
						c1.489,0,2.95,0,4.469,0C43.134,67.497,43.134,67.498,40.554,67.504z"/>
				</g>
				<g>
					<rect x="42.144" y="89.516" fill="none" stroke="#CCCCCC" stroke-miterlimit="10" width="0" height="11"/>
					<path fill="#CCCCCC" d="M40.909,93.083c0,0-1.393,1.837-4.053-2.171c0,0-4.198-1.303,0-4.343c0,0-1.013-4.633,2.461-3.619
						c0,0-0.869-3.619,1.592-2.75c0,0-0.634-2.75,1.782-2.027c0,0,4.153-2.171,4.298,1.448c0,0,2.316-0.145,1.882,2.606
						c0,0,4.011,3.847-0.869,7.497c0,0,0.579,3.36-3.185,2.492C44.817,92.215,44.238,95.11,40.909,93.083z"/>
				</g>
				<g>
					<rect x="81.644" y="89.516" fill="#9B9B9B" width="1" height="11"/>
					<path fill="#9B9B9B" d="M80.156,93.083c0,0-1.393,1.837-4.053-2.171c0,0-4.198-1.303,0-4.343c0,0-1.013-4.633,2.461-3.619
						c0,0-0.869-3.619,1.592-2.75c0,0-0.634-2.75,1.782-2.027c0,0,4.153-2.171,4.298,1.448c0,0,2.316-0.145,1.882,2.606
						c0,0,4.011,3.847-0.869,7.497c0,0,0.579,3.36-3.185,2.492C84.065,92.215,83.486,95.11,80.156,93.083z"/>
				</g>
			</g>
		</g>
	</g>
</g>
</svg>
