<?xml version="1.0" encoding="utf-8"?>
<!-- Generator: Adobe Illustrator 17.0.0, SVG Export Plug-In . SVG Version: 6.00 Build 0)  -->
<!DOCTYPE svg PUBLIC "-//W3C//DTD SVG 1.1//EN" "http://www.w3.org/Graphics/SVG/1.1/DTD/svg11.dtd">
<svg version="1.1" id="Layer_1" xmlns="http://www.w3.org/2000/svg" xmlns:xlink="http://www.w3.org/1999/xlink" x="0px" y="0px"
	 width="581.238px" height="253.981px" viewBox="0 0 581.238 253.981" enable-background="new 0 0 581.238 253.981"
	 xml:space="preserve">
<rect x="65.289" y="33.691" fill="#FFFFFF" width="438" height="172"/>
<g>
	<defs>
		<polygon id="SVGID_22_" points="-590.711,-280.309 -590.711,-76.309 -407.923,-76.309 -353.486,-280.309 		"/>
	</defs>
	<clipPath id="SVGID_2_">
		<use xlink:href="#SVGID_22_"  overflow="visible"/>
	</clipPath>
	<g clip-path="url(#SVGID_2_)">
	</g>
</g>
<g>
	<defs>
		<polygon id="SVGID_2078_" points="-591.217,18.93 -591.217,224.411 -412.041,224.411 -356.623,19.888 		"/>
	</defs>
	<clipPath id="SVGID_4_">
		<use xlink:href="#SVGID_2078_"  overflow="visible"/>
	</clipPath>
	<g clip-path="url(#SVGID_4_)">
		<defs>
			<rect id="SVGID_2080_" x="-712.695" y="-1844.685" width="1923.24" height="3789.385"/>
		</defs>
		<clipPath id="SVGID_6_">
			<use xlink:href="#SVGID_2080_"  overflow="visible"/>
		</clipPath>
	</g>
</g>
<g>
	<g>
		<polygon opacity="0.3" fill="#FCEE21" points="218.125,32.691 177.519,204.691 334.235,204.691 372.709,32.691 		"/>
		<polygon opacity="0.2" fill="#FCEE21" points="66.289,32.691 66.289,204.691 174.412,204.691 215.017,32.691 		"/>
		<g>
			<defs>
				<polygon id="SVGID_2484_" points="66.289,32.691 66.289,204.691 174.412,204.691 215.017,32.691 				"/>
			</defs>
			<clipPath id="SVGID_8_">
				<use xlink:href="#SVGID_2484_"  overflow="visible"/>
			</clipPath>
			<path clip-path="url(#SVGID_8_)" fill="none" stroke="#FF9A40" stroke-width="3" stroke-miterlimit="10" d="M51.881,173.112
				c0,0,36.683-58.564,150.593-28.317"/>
			<path clip-path="url(#SVGID_8_)" fill="none" stroke="#FF9A40" stroke-width="3" stroke-miterlimit="10" d="M54.989,179.327
				c0,0,36.683-58.564,150.593-28.317"/>
			<path clip-path="url(#SVGID_8_)" fill="none" stroke="#FFB14B" stroke-width="3" stroke-miterlimit="10" d="M56.543,187.096
				c0,0,36.683-58.564,150.593-28.317"/>
			<path clip-path="url(#SVGID_8_)" fill="none" stroke="#FFB14B" stroke-width="3" stroke-miterlimit="10" d="M56.543,196.419
				c0,0,36.683-58.564,150.593-28.317"/>
			<path clip-path="url(#SVGID_8_)" fill="none" stroke="#FFB14B" stroke-width="3" stroke-miterlimit="10" d="M53.435,205.742
				c0,0,36.683-58.564,150.593-28.317"/>
			<path clip-path="url(#SVGID_8_)" fill="none" stroke="#FCEE21" stroke-width="3" stroke-miterlimit="10" d="M54.989,213.511
				c0,0,36.683-58.564,150.593-28.317"/>
			<path clip-path="url(#SVGID_8_)" fill="none" stroke="#FCEE21" stroke-width="3" stroke-miterlimit="10" d="M56.543,221.28
				c0,0,36.683-58.564,150.593-28.317"/>
			<path opacity="0.5" clip-path="url(#SVGID_8_)" fill="none" stroke="#FFFF00" stroke-width="3" stroke-miterlimit="10" d="
				M58.097,229.049c0,0,36.683-58.564,150.593-28.317"/>
			<path opacity="0.5" clip-path="url(#SVGID_8_)" fill="none" stroke="#FFFF00" stroke-width="3" stroke-miterlimit="10" d="
				M59.651,236.818c0,0,36.683-58.564,150.593-28.317"/>
		</g>
		<g>
			<path fill="#B29075" d="M96.606,99.404c-0.283,0.03-0.56,0.078-0.855,0.035c-0.208-0.035-0.375-0.146-0.562-0.215
				c-0.24,0.209-0.473,0.419-0.74,0.637l-3.512,55.021h10.689l-3.379-52.947C97.601,101.03,97.052,100.183,96.606,99.404z"/>
			<path fill="#B29075" d="M107.273,102.723c-2.829-3.028-5.578-5.426-7.773-6.91c0.103-0.829-0.1-1.629-0.55-2.266
				c1.02-2.455,1.988-5.968,2.657-10.051c1.275-7.713,0.975-14.191-0.65-14.452c-1.642-0.276-3.998,5.766-5.263,13.484
				c-0.638,3.883-0.855,7.35-0.723,9.962c-0.969,0.432-1.734,1.279-1.916,2.399c0,0.008,0.002,0.013,0,0.017
				c-2.517,0.735-5.749,2.091-9.244,3.981c-6.876,3.733-11.81,7.94-11.01,9.403c0.787,1.445,6.999-0.393,13.866-4.134
				c3.581-1.937,6.544-3.981,8.52-5.725c0.188,0.069,0.354,0.18,0.562,0.214c0.295,0.043,0.572-0.004,0.855-0.034
				c1.314,2.296,3.487,5.194,6.289,8.196c5.315,5.725,10.626,9.454,11.832,8.33C115.94,114.002,112.613,108.449,107.273,102.723z
				 M96.067,96.707c-0.71-0.115-1.194-0.79-1.077-1.5c0.11-0.709,0.79-1.197,1.504-1.077c0.71,0.116,1.198,0.787,1.078,1.497
				C97.457,96.335,96.785,96.822,96.067,96.707z"/>
		</g>
		<g>
			<path fill="#B29075" d="M136.834,99.429c-0.178,0.019-0.352,0.049-0.537,0.022c-0.131-0.022-0.236-0.092-0.353-0.135
				c-0.151,0.132-0.297,0.263-0.465,0.4l-2.207,34.581h6.718l-2.124-33.278C137.46,100.451,137.115,99.919,136.834,99.429z"/>
			<path fill="#B29075" d="M143.538,101.515c-1.778-1.903-3.506-3.41-4.885-4.343c0.064-0.521-0.063-1.024-0.346-1.424
				c0.641-1.543,1.25-3.751,1.67-6.317c0.801-4.848,0.613-8.919-0.408-9.083c-1.032-0.173-2.513,3.624-3.308,8.475
				c-0.401,2.44-0.537,4.619-0.454,6.261c-0.609,0.271-1.09,0.804-1.204,1.508c0,0.005,0.001,0.008,0,0.011
				c-1.582,0.462-3.613,1.314-5.81,2.502c-4.322,2.346-7.423,4.991-6.92,5.91c0.495,0.908,4.399-0.247,8.715-2.598
				c2.251-1.218,4.113-2.502,5.355-3.598c0.118,0.043,0.223,0.113,0.353,0.134c0.185,0.027,0.36-0.003,0.537-0.021
				c0.826,1.443,2.192,3.265,3.953,5.151c3.341,3.598,6.678,5.942,7.436,5.235C148.986,108.604,146.895,105.113,143.538,101.515z
				 M136.495,97.733c-0.446-0.072-0.75-0.497-0.677-0.943c0.069-0.446,0.497-0.752,0.945-0.677c0.446,0.073,0.753,0.495,0.678,0.941
				C137.369,97.5,136.947,97.806,136.495,97.733z"/>
		</g>
		<g>
			<path fill="#B29075" d="M178.267,122.595c-0.077,0.008-0.152,0.021-0.231,0.01c-0.056-0.01-0.102-0.039-0.152-0.058
				c-0.065,0.057-0.128,0.113-0.2,0.172l-0.951,14.896h2.894l-0.915-14.335C178.536,123.035,178.387,122.805,178.267,122.595z"/>
			<path fill="#B29075" d="M181.155,123.493c-0.766-0.82-1.51-1.469-2.104-1.871c0.028-0.224-0.027-0.441-0.149-0.613
				c0.276-0.665,0.538-1.616,0.719-2.721c0.345-2.088,0.264-3.842-0.176-3.913c-0.445-0.075-1.082,1.561-1.425,3.651
				c-0.173,1.051-0.231,1.99-0.196,2.697c-0.262,0.117-0.469,0.346-0.519,0.65c0,0.002,0,0.004,0,0.004
				c-0.682,0.2-1.557,0.567-2.503,1.079c-1.862,1.011-3.197,2.15-2.981,2.546c0.213,0.391,1.895-0.106,3.754-1.119
				c0.97-0.525,1.772-1.078,2.307-1.55c0.051,0.019,0.096,0.049,0.152,0.058c0.08,0.012,0.155-0.001,0.231-0.009
				c0.356,0.622,0.944,1.406,1.703,2.219c1.439,1.55,2.877,2.559,3.203,2.255C183.501,126.547,182.6,125.043,181.155,123.493z
				 M178.121,121.864c-0.192-0.031-0.323-0.214-0.292-0.406c0.03-0.192,0.214-0.324,0.407-0.292
				c0.192,0.032,0.324,0.213,0.292,0.405C178.497,121.764,178.315,121.895,178.121,121.864z"/>
		</g>
		<circle opacity="0.3" fill="#FCEE21" cx="176.605" cy="57.487" r="9.359"/>
		<g>
			<defs>
				<polygon id="SVGID_2486_" points="218.125,32.691 177.519,204.691 334.235,204.691 372.709,32.691 				"/>
			</defs>
			<clipPath id="SVGID_10_">
				<use xlink:href="#SVGID_2486_"  overflow="visible"/>
			</clipPath>
			<g opacity="0.4" clip-path="url(#SVGID_10_)">
				<rect x="40.289" y="99.691" fill="#FCEE21" width="14" height="29"/>
				<rect x="30.289" y="128.691" fill="#FCEE21" width="47" height="22"/>
				<rect x="64.289" y="99.691" fill="#FCEE21" width="8" height="29"/>
				<polygon fill="#FCEE21" points="30.289,150.691 30.289,177.691 162.289,177.691 162.289,166.691 151.289,166.691 
					151.289,158.691 91.289,158.691 91.289,150.691 				"/>
				<polygon fill="#FCEE21" points="111.386,83.691 108.113,158.691 124.726,158.691 120.382,83.691 				"/>
				<polygon fill="#FCEE21" points="131.246,83.691 127.618,158.691 143.368,158.691 140.203,83.691 				"/>
				<path fill="#FCEE21" d="M133.83,79.276c0,0,2.711-6.778,7.455-6.778c0,0,1.525-4.914,6.778-2.88c0,0,6.269-3.558,8.641,0.339
					c0,0,4.405-3.05,5.93-1.017c0,0,4.067,4.575-1.864,5.592c0,0,0.508,5.422-5.592,4.744c0,0-3.05,4.575-8.472,1.525
					c0,0-1.017,3.622-6.947,1.048c0,0-1.864,1.201-3.558,0.923S133.83,79.276,133.83,79.276z"/>
				<path fill="#FCEE21" d="M111.965,80.346c0,0,1.891-4.728,5.201-4.728c0,0,1.064-3.428,4.728-2.009c0,0,4.373-2.482,6.028,0.236
					c0,0,3.073-2.128,4.137-0.709c0,0,2.837,3.191-1.3,3.901c0,0,0.355,3.782-3.901,3.31c0,0-2.128,3.191-5.91,1.064
					c0,0-0.709,2.526-4.846,0.731c0,0-1.3,0.838-2.482,0.644C112.438,82.591,111.965,80.346,111.965,80.346z"/>
				<rect x="389.289" y="99.691" fill="#FCEE21" width="13" height="29"/>
				<rect x="412.289" y="99.691" fill="#FCEE21" width="8" height="29"/>
				<rect x="381.289" y="128.691" fill="#FCEE21" width="45" height="22"/>
				<polygon fill="#FCEE21" points="381.289,150.691 381.289,177.691 512.289,177.691 512.289,166.691 503.289,166.691 
					503.289,158.691 439.289,158.691 439.289,150.691 				"/>
				<polygon fill="#FCEE21" points="460.988,83.691 457.715,158.691 474.329,158.691 469.985,83.691 				"/>
				<polygon fill="#FCEE21" points="480.848,83.691 477.221,158.691 492.97,158.691 489.805,83.691 				"/>
				<path fill="#FCEE21" d="M483.432,79.276c0,0,2.711-6.778,7.455-6.778c0,0,1.525-4.914,6.778-2.88c0,0,6.269-3.558,8.641,0.339
					c0,0,4.405-3.05,5.93-1.017c0,0,4.067,4.575-1.864,5.592c0,0,0.508,5.422-5.591,4.744c0,0-3.05,4.575-8.472,1.525
					c0,0-1.017,3.622-6.947,1.048c0,0-1.864,1.201-3.558,0.923S483.432,79.276,483.432,79.276z"/>
				<path fill="#FCEE21" d="M461.568,80.346c0,0,1.891-4.728,5.201-4.728c0,0,1.064-3.428,4.728-2.009c0,0,4.373-2.482,6.028,0.236
					c0,0,3.073-2.128,4.137-0.709c0,0,2.837,3.191-1.3,3.901c0,0,0.355,3.782-3.901,3.31c0,0-2.128,3.191-5.91,1.064
					c0,0-0.709,2.526-4.846,0.731c0,0-1.3,0.838-2.482,0.644C462.041,82.591,461.568,80.346,461.568,80.346z"/>
				<polygon fill="#FCEE21" points="131.289,150.691 131.289,177.691 260.289,177.691 260.289,166.691 249.289,166.691 
					249.289,158.691 189.289,158.691 189.289,150.691 				"/>
				<polygon opacity="0.6" fill="#FCEE21" points="209.774,83.691 206.501,158.691 223.115,158.691 218.771,83.691 				"/>
				<polygon opacity="0.6" fill="#FCEE21" points="229.635,83.691 226.007,158.691 241.756,158.691 238.591,83.691 				"/>
				<path opacity="0.6" fill="#FCEE21" d="M232.218,79.276c0,0,2.711-6.778,7.455-6.778c0,0,1.525-4.914,6.778-2.88
					c0,0,6.269-3.558,8.641,0.339c0,0,4.405-3.05,5.93-1.017c0,0,4.067,4.575-1.864,5.592c0,0,0.508,5.422-5.592,4.744
					c0,0-3.05,4.575-8.472,1.525c0,0-1.017,3.622-6.947,1.048c0,0-1.864,1.201-3.558,0.923
					C232.896,82.495,232.218,79.276,232.218,79.276z"/>
				<path opacity="0.6" fill="#FCEE21" d="M210.354,80.346c0,0,1.891-4.728,5.201-4.728c0,0,1.064-3.428,4.728-2.009
					c0,0,4.373-2.482,6.028,0.236c0,0,3.073-2.128,4.137-0.709c0,0,2.837,3.191-1.3,3.901c0,0,0.355,3.782-3.901,3.31
					c0,0-2.128,3.191-5.91,1.064c0,0-0.709,2.526-4.846,0.731c0,0-1.3,0.838-2.482,0.644
					C210.827,82.591,210.354,80.346,210.354,80.346z"/>
				<polygon fill="#FCEE21" points="267.646,97.691 253.55,177.691 314.6,177.691 299.224,97.691 				"/>
				<polygon opacity="0.6" fill="#FCEE21" points="286.131,103.691 395.289,103.691 395.289,116.691 381.289,116.691 
					381.289,177.691 296.745,177.691 				"/>
				<rect x="363.289" y="83.691" fill="#FCEE21" width="18" height="20"/>
			</g>
		</g>
		<g>
			<defs>
				<polygon id="SVGID_2488_" points="218.125,32.691 177.519,204.691 334.235,204.691 372.709,32.691 				"/>
			</defs>
			<clipPath id="SVGID_12_">
				<use xlink:href="#SVGID_2488_"  overflow="visible"/>
			</clipPath>
		</g>
		<g>
			<defs>
				<polygon id="SVGID_2490_" points="218.125,32.691 177.519,204.691 334.235,204.691 372.709,32.691 				"/>
			</defs>
			<clipPath id="SVGID_14_">
				<use xlink:href="#SVGID_2490_"  overflow="visible"/>
			</clipPath>
		</g>
		<g>
			<defs>
				<polygon id="SVGID_2492_" points="218.125,32.691 177.519,204.691 334.235,204.691 372.709,32.691 				"/>
			</defs>
			<clipPath id="SVGID_16_">
				<use xlink:href="#SVGID_2492_"  overflow="visible"/>
			</clipPath>
			
				<line clip-path="url(#SVGID_16_)" fill="none" stroke="#FF9A40" stroke-width="2" stroke-miterlimit="10" x1="181.289" y1="178.691" x2="350.289" y2="178.691"/>
			
				<line clip-path="url(#SVGID_16_)" fill="none" stroke="#FF9A40" stroke-width="2" stroke-miterlimit="10" x1="181.289" y1="183.691" x2="350.289" y2="183.691"/>
			
				<line clip-path="url(#SVGID_16_)" fill="none" stroke="#FFB14B" stroke-width="2" stroke-miterlimit="10" x1="178.289" y1="187.691" x2="347.289" y2="187.691"/>
			
				<line clip-path="url(#SVGID_16_)" fill="none" stroke="#FFB14B" stroke-width="2" stroke-miterlimit="10" x1="175.289" y1="192.691" x2="344.289" y2="192.691"/>
			
				<line clip-path="url(#SVGID_16_)" fill="none" stroke="#FCEE21" stroke-width="2" stroke-miterlimit="10" x1="175.289" y1="197.691" x2="344.289" y2="197.691"/>
			
				<line clip-path="url(#SVGID_16_)" fill="none" stroke="#FCEE21" stroke-width="2" stroke-miterlimit="10" x1="175.289" y1="201.691" x2="344.289" y2="201.691"/>
		</g>
		<g>
			<defs>
				<polygon id="SVGID_2494_" points="218.125,32.691 177.519,204.691 334.235,204.691 372.709,32.691 				"/>
			</defs>
			<clipPath id="SVGID_17_">
				<use xlink:href="#SVGID_2494_"  overflow="visible"/>
			</clipPath>
			<g clip-path="url(#SVGID_17_)">
				<path fill="#B29075" d="M249.573,123.01c0.26,0,0.52-0.26,0.52-0.607c0-0.26-0.347-0.52-0.607-0.52
					c-13.089,1.454-26.039,5.009-39.093,2.67v-7.545h9.799v2.688c0,0.26,0.26,0.52,0.52,0.52s0.52-0.26,0.52-0.52v-3.209v-0.087
					c0-0.26-0.173-0.434-0.347-0.52l0,0c0,0,0,0-0.087,0l-10.493-4.163l-1.561-7.285c0-0.26-0.26-0.434-0.434-0.434h-2.168
					c-0.26,0-0.434,0.173-0.52,0.434l-1.561,7.285l-10.58,4.249l0,0c0,0,0,0-0.087,0l-0.087,0.087c0,0,0,0,0,0.087l-0.087,0.087
					v0.087v0.087l0,0v3.295c0,0.26,0.26,0.52,0.52,0.52s0.52-0.26,0.52-0.52v-2.688h9.799v6.157
					c-3.382-0.867-6.764-1.821-10.146-2.949c0,0,0,0-0.087,0h-0.087h-0.087c0,0,0,0-0.087,0c-8.065,2.688-16.39,4.596-24.802,5.55
					c-0.26,0-0.52,0.26-0.52,0.607c0,0.26,0.26,0.52,0.52,0.52c0,0,0,0,0.087,0c8.499-0.954,16.824-2.862,24.889-5.55
					c3.382,1.127,6.851,2.081,10.32,2.949v0.52l-10.493,4.163l0,0c0,0,0,0-0.087,0l-0.087,0.087c0,0,0,0,0,0.087l-0.087,0.087v0.087
					v0.087l0,0v3.295c0,0.26,0.26,0.52,0.52,0.52s0.52-0.26,0.52-0.52v-2.688h9.799v6.157c-3.382-0.867-6.764-1.821-10.146-2.949
					c0,0,0,0-0.087,0h-0.087h-0.087c0,0,0,0-0.087,0c-8.065,2.688-16.39,4.596-24.802,5.55c-0.26,0-0.52,0.26-0.52,0.607
					c0,0.26,0.26,0.52,0.52,0.52c0,0,0,0,0.087,0c8.499-0.954,16.824-2.862,24.889-5.55c3.382,1.127,6.851,2.081,10.32,2.949v0.52
					l-10.493,4.163l0,0c0,0,0,0-0.087,0l-0.087,0.087c0,0,0,0,0,0.087l-0.087,0.087v0.087v0.087l0,0v3.295
					c0,0.26,0.26,0.52,0.52,0.52s0.52-0.26,0.52-0.52v-2.688h9.799v3.729l-0.867,2.341c-3.209-0.78-6.417-1.734-9.539-2.775
					c0,0,0,0-0.087,0h-0.087h-0.087c0,0,0,0-0.087,0c-8.065,2.688-16.39,4.596-24.802,5.55c-0.26,0-0.52,0.26-0.52,0.607
					c0,0.26,0.26,0.52,0.52,0.52c0,0,0,0,0.087,0c8.499-0.954,16.824-2.862,24.889-5.55c3.122,1.041,6.244,1.995,9.453,2.775
					l-0.26,0.867l-1.127,4.336l-0.52,2.168l-1.648,6.504l-4.336,17.344c-0.087,0.26,0.087,0.52,0.26,0.607
					c0.173,0.087,0.434,0.087,0.607-0.087l11.1-10.58l11.014,10.493c0.087,0.087,0.26,0.173,0.347,0.173l0,0
					c0.26,0,0.52-0.26,0.52-0.52c0-0.087,0-0.173-0.087-0.26l-4.336-17.257l0,0l0,0l-1.648-6.504l-0.52-2.168l-0.867-3.469
					c6.764,1.127,13.615-0.208,20.466-0.208c4.509,0,12.904-2.202,17.413-2.723c0.26,0,0.52-0.26,0.52-0.607
					c0-0.26-0.347-0.52-0.607-0.52c-11.36,1.301-26.779,4.752-38.053,2.844l-1.041-3.989v-3.642h9.886v2.688
					c0,0.26,0.26,0.52,0.52,0.52s0.52-0.26,0.52-0.52v-3.209v-0.087c0-0.26-0.173-0.434-0.347-0.52l0,0c0,0,0,0-0.087,0
					l-6.504-2.602c5.897,0.867,11.881-0.641,17.865-0.641c4.509,0,12.904-2.202,17.413-2.723c0.26,0,0.52-0.26,0.52-0.607
					c0-0.26-0.347-0.52-0.607-0.52c-11.707,1.301-27.473,4.752-39.093,2.67v-7.458h9.799v2.688c0,0.26,0.26,0.52,0.52,0.52
					s0.52-0.26,0.52-0.52v-3.209v-0.087c0-0.26-0.173-0.434-0.347-0.52l0,0c0,0,0,0-0.087,0l-6.504-2.602
					c5.897,0.867,11.881-0.641,17.865-0.641C236.756,125.733,245.15,123.53,249.573,123.01z M215.857,115.1l2.081,0.867h-2.081
					V115.1z M214.816,115.968h-2.081l2.081-0.867V115.968z M210.48,112.932l3.382,1.388l-3.382,1.388V112.932z M210.133,149.962
					l-1.908-1.301l1.388-0.954L210.133,149.962z M210.74,160.195l-2.168-1.995h3.122L210.74,160.195z M212.821,163.664h-5.117
					v-4.683L212.821,163.664z M207.185,157.073l-3.642-1.561l3.642-1.821l3.642,1.821L207.185,157.073z M206.664,158.894v4.683
					h-5.117L206.664,158.894z M202.675,158.201h3.122l-2.168,1.995L202.675,158.201z M204.496,151.09l0.694-0.434
					c1.301,0.26,2.688,0.607,3.989,0.867l-1.995,0.954L204.496,151.09z M208.312,115.968h-2.341l1.127-0.954L208.312,115.968z
					 M206.057,112.672h2.341l-1.214,0.954L206.057,112.672z M208.312,117.008l-1.127,0.954l-1.127-0.954H208.312z M209.353,117.615
					v2.081l-1.301-1.041L209.353,117.615z M209.006,120.824l-1.821,1.474l-1.821-1.474l1.821-1.474L209.006,120.824z
					 M209.353,121.951v2.081l-1.301-1.041L209.353,121.951z M207.185,123.686l0.434,0.347c-0.173-0.087-0.434-0.087-0.694-0.173
					L207.185,123.686z M208.746,125.333l-1.561,1.301l-1.821-1.474l0.434-0.347C206.751,124.987,207.792,125.16,208.746,125.333z
					 M209.353,126.287v2.081l-1.301-1.041L209.353,126.287z M208.312,128.976h-2.341l1.127-0.954L208.312,128.976z M209.353,130.623
					v2.081l-1.301-1.041L209.353,130.623z M208.312,130.016l-1.127,0.954l-1.127-0.954H208.312z M209.006,133.832l-1.821,1.474
					l-1.821-1.474l1.821-1.474L209.006,133.832z M209.353,134.959v2.081L208.052,136L209.353,134.959z M207.185,136.694l0.434,0.347
					c-0.173-0.087-0.434-0.087-0.694-0.173L207.185,136.694z M208.746,138.342l-1.561,1.301l-1.821-1.474l0.434-0.347
					C206.751,137.995,207.792,138.168,208.746,138.342z M209.353,139.296v2.081l-1.301-1.041L209.353,139.296z M208.312,141.984
					h-2.341l1.127-0.954L208.312,141.984z M209.353,143.632v2.081l-1.301-1.041L209.353,143.632z M208.312,143.025l-1.127,0.954
					l-1.127-0.954H208.312z M208.312,146.32h-2.341l1.127-0.954L208.312,146.32z M208.139,147.361l-0.954,0.607l-0.954-0.607
					H208.139z M208.659,150.222c-0.78-0.173-1.474-0.26-2.255-0.434l0.78-0.52L208.659,150.222z M209.353,115.361l-1.301-1.041
					l1.301-1.041V115.361z M208.139,106.515l0.434,1.995l-0.78-1.388L208.139,106.515z M207.618,105.127l-0.434,0.867l-0.434-0.867
					H207.618z M206.231,106.515l0.347,0.607l-0.78,1.388L206.231,106.515z M207.185,108.249l1.821,3.382h-3.642L207.185,108.249z
					 M205.017,113.279l1.301,1.041l-1.301,1.041V113.279z M205.017,117.615l1.301,1.041l-1.301,1.041V117.615z M205.017,121.951
					l1.301,1.041l-0.78,0.607c-0.173,0-0.347-0.087-0.52-0.087V121.951z M205.017,126.287l1.301,1.041l-1.301,1.041V126.287z
					 M205.017,130.623l1.301,1.041l-1.301,1.041V130.623z M205.017,134.959l1.301,1.041l-0.78,0.607
					c-0.173,0-0.347-0.087-0.52-0.087V134.959z M205.017,139.296l1.301,1.041l-1.301,1.041V139.296z M205.017,143.632l1.301,1.041
					l-1.301,1.041V143.632z M204.843,147.707l1.388,0.954l-1.214,0.867c-0.173,0-0.347-0.087-0.52-0.087L204.843,147.707z
					 M198.513,115.968h-2.081l2.081-0.867V115.968z M199.64,115.968V115.1l2.081,0.867H199.64z M200.507,114.32l3.382-1.388v2.775
					L200.507,114.32z M198.513,128.976h-2.081l2.081-0.867V128.976z M199.64,128.976v-0.867l2.081,0.867H199.64z M200.507,127.328
					l3.382-1.388v2.775L200.507,127.328z M198.513,141.984h-2.081l2.081-0.867V141.984z M199.64,141.984v-0.867l2.081,0.867H199.64z
					 M200.507,140.336l3.382-1.388v2.775L200.507,140.336z M203.716,151.957l2.255,1.127l-2.862,1.388L203.716,151.957z
					 M202.675,156.206l1.995,0.867h-2.168L202.675,156.206z M201.895,159.241l0.607,1.127h-0.867L201.895,159.241z M201.374,161.496
					h0.867l-1.127,1.041L201.374,161.496z M200.42,165.138l1.821,1.734h-2.255L200.42,165.138z M199.727,168h1.821l-2.168,1.474
					L199.727,168z M203.456,168l2.341,2.168h-5.463L203.456,168z M196.778,179.794l1.995-8.065l2.949,3.295L196.778,179.794z
					 M202.502,174.417l-2.775-3.209h6.157L202.502,174.417z M201.548,164.705h11.36l-5.724,5.203L201.548,164.705z M210.914,168
					l3.209,2.168h-5.463L210.914,168z M208.572,171.209h6.157l-2.775,3.209L208.572,171.209z M217.591,179.794l-4.943-4.683
					l2.949-3.295L217.591,179.794z M214.989,169.474L212.735,168h1.821L214.989,169.474z M214.382,166.873h-2.255l1.821-1.734
					L214.382,166.873z M213.255,162.537l-1.214-1.041h0.867L213.255,162.537z M212.735,160.369h-0.867l0.607-1.127L212.735,160.369z
					 M211.694,156.206l0.26,0.867h-2.168L211.694,156.206z M210.653,151.957l0.607,2.515l-2.862-1.388L210.653,151.957z
					 M215.857,141.117l2.081,0.867h-2.081V141.117z M214.816,141.117v0.867h-2.081L214.816,141.117z M213.862,140.336l-3.382,1.388
					v-2.775L213.862,140.336z M210.48,125.94l3.382,1.388l-3.382,1.388V125.94z M215.857,128.109l2.081,0.867h-2.081V128.109z
					 M214.816,128.109v0.867h-2.081L214.816,128.109z"/>
				<path fill="#B29075" d="M357.921,121.845c0.26,0,0.52-0.26,0.52-0.607c0-0.26-0.347-0.52-0.607-0.52
					c-11.707,1.301-58.549,0.867-70.169-1.214v-7.545h9.799v2.688c0,0.26,0.26,0.52,0.52,0.52s0.52-0.26,0.52-0.52v-3.209v-0.087
					c0-0.26-0.173-0.434-0.347-0.52l0,0c0,0,0,0-0.087,0l-10.493-4.163l-1.561-7.285c0-0.26-0.26-0.434-0.434-0.434h-2.168
					c-0.26,0-0.434,0.173-0.52,0.434l-1.561,7.285l-10.58,4.249l0,0c0,0,0,0-0.087,0l-0.087,0.087c0,0,0,0,0,0.087l-0.087,0.087
					v0.087v0.087l0,0v3.295c0,0.26,0.26,0.52,0.52,0.52s0.52-0.26,0.52-0.52v-2.688h9.799v6.157
					c-3.382-0.867-6.764-1.821-10.146-2.949c0,0,0,0-0.087,0h-0.087h-0.087c0,0,0,0-0.087,0c-8.065,2.688-16.39,6.15-24.802,7.104
					c-0.26,0-0.52,0.26-0.52,0.607c0,0.26,0.26,0.52,0.52,0.52c0,0,0,0,0.087,0c8.499-0.954,16.824-4.416,24.889-7.104
					c3.382,1.127,6.851,2.081,10.32,2.949v0.52l-10.493,4.163l0,0c0,0,0,0-0.087,0l-0.087,0.087c0,0,0,0,0,0.087l-0.087,0.087v0.087
					v0.087l0,0v3.295c0,0.26,0.26,0.52,0.52,0.52s0.52-0.26,0.52-0.52v-2.688h9.799v6.157c-3.382-0.867-6.764-1.821-10.146-2.949
					c0,0,0,0-0.087,0h-0.087h-0.087c0,0,0,0-0.087,0c-8.065,2.688-16.39,6.15-24.802,7.104c-0.26,0-0.52,0.26-0.52,0.607
					c0,0.26,0.26,0.52,0.52,0.52c0,0,0,0,0.087,0c8.499-0.954,16.824-4.416,24.889-7.104c3.382,1.127,6.851,2.081,10.32,2.949v0.52
					l-10.493,4.163l0,0c0,0,0,0-0.087,0l-0.087,0.087c0,0,0,0,0,0.087l-0.087,0.087v0.087v0.087l0,0v3.295
					c0,0.26,0.26,0.52,0.52,0.52s0.52-0.26,0.52-0.52v-2.688h9.799v3.729l-0.867,2.341c-3.209-0.78-6.417-1.734-9.539-2.775
					c0,0,0,0-0.087,0h-0.087h-0.087c0,0,0,0-0.087,0c-8.065,2.688-16.39,6.15-24.802,7.104c-0.26,0-0.52,0.26-0.52,0.607
					c0,0.26,0.26,0.52,0.52,0.52c0,0,0,0,0.087,0c8.499-0.954,16.824-4.416,24.889-7.104c3.122,1.041,6.244,1.995,9.453,2.775
					l-0.26,0.867l-1.127,4.336l-0.52,2.168l-1.648,6.504l-4.336,17.344c-0.087,0.26,0.087,0.52,0.26,0.607s0.434,0.087,0.607-0.087
					l11.1-10.58l11.014,10.493c0.087,0.087,0.26,0.173,0.347,0.173l0,0c0.26,0,0.52-0.26,0.52-0.52c0-0.087,0-0.173-0.087-0.26
					l-4.336-17.257l0,0l0,0l-1.648-6.504l-0.52-2.168l-0.867-3.469c6.764,1.127,13.615,1.734,20.466,1.734
					c4.509,0,43.98-0.26,48.489-0.78c0.26,0,0.52-0.26,0.52-0.607c0-0.26-0.347-0.52-0.607-0.52
					c-11.36,1.301-57.855,0.867-69.129-1.041l-1.041-3.989v-3.642h9.886v2.688c0,0.26,0.26,0.52,0.52,0.52s0.52-0.26,0.52-0.52
					v-3.209v-0.087c0-0.26-0.173-0.434-0.347-0.52l0,0c0,0,0,0-0.087,0l-6.504-2.602c5.897,0.867,11.881,1.301,17.865,1.301
					c4.509,0,43.98-0.26,48.489-0.78c0.26,0,0.52-0.26,0.52-0.607c0-0.26-0.347-0.52-0.607-0.52
					c-11.707,1.301-58.549,0.867-70.169-1.214v-7.458h9.799v2.688c0,0.26,0.26,0.52,0.52,0.52s0.52-0.26,0.52-0.52v-3.209v-0.087
					c0-0.26-0.173-0.434-0.347-0.52l0,0c0,0,0,0-0.087,0l-6.504-2.602c5.897,0.867,11.881,1.301,17.865,1.301
					C314.028,122.625,353.499,122.365,357.921,121.845z M293.129,110.05l2.081,0.867h-2.081V110.05z M292.088,110.918h-2.081
					l2.081-0.867V110.918z M287.752,107.882l3.382,1.388l-3.382,1.388V107.882z M287.405,144.912l-1.908-1.301l1.388-0.954
					L287.405,144.912z M288.012,155.145l-2.168-1.995h3.122L288.012,155.145z M290.093,158.614h-5.117v-4.683L290.093,158.614z
					 M284.457,152.023l-3.642-1.561l3.642-1.821l3.642,1.821L284.457,152.023z M283.936,153.845v4.683h-5.117L283.936,153.845z
					 M279.947,153.151h3.122l-2.168,1.995L279.947,153.151z M281.768,146.04l0.694-0.434c1.301,0.26,2.688,0.607,3.989,0.867
					l-1.995,0.954L281.768,146.04z M285.584,110.918h-2.341l1.127-0.954L285.584,110.918z M283.329,107.622h2.341l-1.214,0.954
					L283.329,107.622z M285.584,111.958l-1.127,0.954l-1.127-0.954H285.584z M286.625,112.565v2.081l-1.301-1.041L286.625,112.565z
					 M286.278,115.774l-1.821,1.474l-1.821-1.474l1.821-1.474L286.278,115.774z M286.625,116.901v2.081l-1.301-1.041
					L286.625,116.901z M284.457,118.636l0.434,0.347c-0.173-0.087-0.434-0.087-0.694-0.173L284.457,118.636z M286.017,120.284
					l-1.561,1.301l-1.821-1.474l0.434-0.347C284.023,119.937,285.064,120.11,286.017,120.284z M286.625,121.237v2.081l-1.301-1.041
					L286.625,121.237z M285.584,123.926h-2.341l1.127-0.954L285.584,123.926z M286.625,125.574v2.081l-1.301-1.041L286.625,125.574z
					 M285.584,124.966l-1.127,0.954l-1.127-0.954H285.584z M286.278,128.782l-1.821,1.474l-1.821-1.474l1.821-1.474L286.278,128.782
					z M286.625,129.91v2.081l-1.301-1.041L286.625,129.91z M284.457,131.644l0.434,0.347c-0.173-0.087-0.434-0.087-0.694-0.173
					L284.457,131.644z M286.017,133.292l-1.561,1.301l-1.821-1.474l0.434-0.347C284.023,132.945,285.064,133.118,286.017,133.292z
					 M286.625,134.246v2.081l-1.301-1.041L286.625,134.246z M285.584,136.934h-2.341l1.127-0.954L285.584,136.934z M286.625,138.582
					v2.081l-1.301-1.041L286.625,138.582z M285.584,137.975l-1.127,0.954l-1.127-0.954H285.584z M285.584,141.27h-2.341l1.127-0.954
					L285.584,141.27z M285.41,142.311l-0.954,0.607l-0.954-0.607H285.41z M285.931,145.172c-0.78-0.173-1.474-0.26-2.255-0.434
					l0.78-0.52L285.931,145.172z M286.625,110.311l-1.301-1.041l1.301-1.041V110.311z M285.41,101.465l0.434,1.995l-0.78-1.388
					L285.41,101.465z M284.89,100.078l-0.434,0.867l-0.434-0.867H284.89z M283.503,101.465l0.347,0.607l-0.78,1.388L283.503,101.465
					z M284.457,103.2l1.821,3.382h-3.642L284.457,103.2z M282.288,108.229l1.301,1.041l-1.301,1.041V108.229z M282.288,112.565
					l1.301,1.041l-1.301,1.041V112.565z M282.288,116.901l1.301,1.041l-0.78,0.607c-0.173,0-0.347-0.087-0.52-0.087V116.901z
					 M282.288,121.237l1.301,1.041l-1.301,1.041V121.237z M282.288,125.574l1.301,1.041l-1.301,1.041V125.574z M282.288,129.91
					l1.301,1.041l-0.78,0.607c-0.173,0-0.347-0.087-0.52-0.087V129.91z M282.288,134.246l1.301,1.041l-1.301,1.041V134.246z
					 M282.288,138.582l1.301,1.041l-1.301,1.041V138.582z M282.115,142.658l1.388,0.954l-1.214,0.867
					c-0.173,0-0.347-0.087-0.52-0.087L282.115,142.658z M275.784,110.918h-2.081l2.081-0.867V110.918z M276.912,110.918v-0.867
					l2.081,0.867H276.912z M277.779,109.27l3.382-1.388v2.775L277.779,109.27z M275.784,123.926h-2.081l2.081-0.867V123.926z
					 M276.912,123.926v-0.867l2.081,0.867H276.912z M277.779,122.278l3.382-1.388v2.775L277.779,122.278z M275.784,136.934h-2.081
					l2.081-0.867V136.934z M276.912,136.934v-0.867l2.081,0.867H276.912z M277.779,135.286l3.382-1.388v2.775L277.779,135.286z
					 M280.988,146.907l2.255,1.127l-2.862,1.388L280.988,146.907z M279.947,151.156l1.995,0.867h-2.168L279.947,151.156z
					 M279.167,154.191l0.607,1.127h-0.867L279.167,154.191z M278.646,156.446h0.867l-1.127,1.041L278.646,156.446z M277.692,160.088
					l1.821,1.734h-2.255L277.692,160.088z M276.999,162.95h1.821l-2.168,1.474L276.999,162.95z M280.728,162.95l2.341,2.168h-5.463
					L280.728,162.95z M274.05,174.744l1.995-8.065l2.949,3.295L274.05,174.744z M279.774,169.368l-2.775-3.209h6.157
					L279.774,169.368z M278.82,159.655h11.36l-5.724,5.203L278.82,159.655z M288.185,162.95l3.209,2.168h-5.463L288.185,162.95z
					 M285.844,166.159h6.157l-2.775,3.209L285.844,166.159z M294.863,174.744l-4.943-4.683l2.949-3.295L294.863,174.744z
					 M292.261,164.424l-2.255-1.474h1.821L292.261,164.424z M291.654,161.823H289.4l1.821-1.734L291.654,161.823z M290.527,157.487
					l-1.214-1.041h0.867L290.527,157.487z M290.007,155.319h-0.867l0.607-1.127L290.007,155.319z M288.966,151.156l0.26,0.867
					h-2.168L288.966,151.156z M287.925,146.907l0.607,2.515l-2.862-1.388L287.925,146.907z M293.129,136.067l2.081,0.867h-2.081
					V136.067z M292.088,136.067v0.867h-2.081L292.088,136.067z M291.134,135.286l-3.382,1.388v-2.775L291.134,135.286z
					 M287.752,120.891l3.382,1.388l-3.382,1.388V120.891z M293.129,123.059l2.081,0.867h-2.081V123.059z M292.088,123.059v0.867
					h-2.081L292.088,123.059z"/>
			</g>
		</g>
		<g>
			<defs>
				<polygon id="SVGID_2496_" points="504.289,32.691 375.817,32.691 337.342,204.691 504.289,204.691 				"/>
			</defs>
			<clipPath id="SVGID_19_">
				<use xlink:href="#SVGID_2496_"  overflow="visible"/>
			</clipPath>
			<path opacity="0.2" clip-path="url(#SVGID_19_)" fill="#FF9A40" d="M538.633,194.325c0,41.644-45.599,75.404-101.849,75.404
				s-123.074-23.845-114.095-64.509c10.873-49.244,58.202-70.922,114.452-70.922S538.633,152.681,538.633,194.325z"/>
		</g>
		<g>
			<defs>
				<polygon id="SVGID_2498_" points="504.289,32.691 375.817,32.691 337.342,204.691 504.289,204.691 				"/>
			</defs>
			<clipPath id="SVGID_21_">
				<use xlink:href="#SVGID_2498_"  overflow="visible"/>
			</clipPath>
			<polygon opacity="0.4" clip-path="url(#SVGID_21_)" fill="#FCEE21" points="504.289,32.691 375.817,32.691 337.342,204.691 
				504.289,204.691 			"/>
		</g>
		<g>
			<defs>
				<polygon id="SVGID_2500_" points="504.289,32.691 375.817,32.691 337.342,204.691 504.289,204.691 				"/>
			</defs>
			<clipPath id="SVGID_23_">
				<use xlink:href="#SVGID_2500_"  overflow="visible"/>
			</clipPath>
			<path clip-path="url(#SVGID_23_)" fill="#FF9A40" d="M402.702,153.905l-1.329-4.87c0,0,1.749-6.21,0.011-6.607
				c0,0-2.888-17.41-2.793-56.352c0,0,1.452-8.705,0.003-20.229c0,0,0.097,1.211,4.151-3.558c0,0,9.848-3.964,11.972-3.567
				s7.338,0.346,12.358-0.023c0,0,9.655-3.546,10.62-7.52c0,0-13.709,10.73-22.012,4.77c0,0-8.11,1.987-10.813,1.987
				c0,0,10.041-6.755,14.675-6.755l6.179,3.974l2.124-0.795c0,0-7.144-6.358-7.724-4.768c0,0-14.675,0-17.571,4.768
				c0,0-3.669-0.795-2.124-25.829c0,0,2.703-1.987,4.827-4.768l-0.386-2.384c0,0-4.248,0.706-5.213-3.267
				c0,0-2.121-2.42-1.061-10.42h-3.373l-0.973,7.368c0,0-2.533-0.926-2.726-6.235c0,0-3.236-0.602-5.236-3.163v7.237
				c0,0,3.351,2.519,3.351,4.903c0,2.384-2.907,2.782-6.769-1.589l-0.778,2.782c0,0,8.686,4.768,9.072,14.703
				c0,0-0.194,17.882-0.774,20.663c-0.186-0.217-9.757-4.501-9.462-4.371c0,0-3.476-2.782-6.372-10.332l0.772,6.967
				c0,0,1.545,3.762,3.282,5.352c0,0-4.055,1.589-6.565-1.589c0,0,0.579,5.961,5.986,5.961c0,0,11.585-2.384,11.585,8.742
				c0,0,0,23.842,0.386,34.968c0,0,0.015,43.882-2.059,54.866l-1.328,8.274l18.254-4.751L402.702,153.905z"/>
			<path clip-path="url(#SVGID_23_)" fill="#FFB14B" d="M389.748,157.428l-1.037-4.87c0,0,1.365-6.21,0.009-6.607
				c0,0-2.253-17.41-2.179-56.352c0,0,1.133-8.705,0.002-20.229c0,0,0.075,1.211,3.239-3.558c0,0,7.683-3.964,9.34-3.567
				c1.657,0.397,5.725,0.346,9.641-0.023c0,0,7.532-3.546,8.285-7.52c0,0-10.695,10.73-17.173,4.77c0,0-6.327,1.987-8.436,1.987
				c0,0,7.833-6.755,11.449-6.755l4.82,3.974l1.657-0.795c0,0-5.574-6.358-6.026-4.768c0,0-11.449,0-13.708,4.768
				c0,0-2.862-0.795-1.657-25.829c0,0,2.109-1.987,3.766-4.768l-0.301-2.384c0,0-3.314,1.445-4.067-2.529
				c0,0-1.655-3.681-0.827-9.681h-2.631l-0.759,6.63c0,0-1.803-1.296-1.954-6.604c0,0-2.912-0.971-3.912-3.533v7.237
				c0,0,2.441,2.519,2.441,4.903s-2.355,2.782-5.368-1.589l-0.65,2.782c0,0,6.755,4.768,7.056,14.703c0,0-0.163,17.882-0.614,20.663
				c-0.145-0.217-7.617-4.501-7.387-4.371c0,0-2.715-2.782-4.974-10.332l0.601,6.967c0,0,1.204,3.762,2.56,5.352
				c0,0-3.164,1.589-5.122-1.589c0,0,0.452,5.961,4.67,5.961c0,0,9.038-2.384,9.038,8.742c0,0,0,23.842,0.301,34.968
				c0,0,0.011,43.882-1.606,54.866l-1.036,8.274l14.241-4.751L389.748,157.428z"/>
			<path clip-path="url(#SVGID_23_)" fill="#FF9A40" d="M411.702,145.818l1.329-5.691c0,0-1.749-7.14-0.011-7.592
				c0,0,2.888-19.844,2.793-64.146c0,0-1.452-9.922-0.003-23.032c0,0-0.097,1.368-4.151-4.057c0,0-9.848-4.515-11.972-4.063
				c-2.124,0.452-7.338,0.391-12.358-0.029c0,0-9.655-4.035-10.62-8.556c0,0,13.709,12.206,22.012,5.425
				c0,0,8.11,2.261,10.813,2.261c0,0-10.041-7.685-14.675-7.685l-3.086,0.841l-5.217,2.776c0,0,7.144-7.233,7.724-5.425
				c0,0,14.675,0,17.571,5.425c0,0,3.669-0.904,2.124-29.384c0,0-2.703-2.26-4.827-5.425l0.386-2.712c0,0,4.248,1.059,5.213-3.461
				c0,0,2.121-3.598,1.061-11.598h3.373l0.973,8.127c0,0,2.62-1.182,2.813-7.221c0,0,3.323-0.812,5.323-3.727v8.234
				c0,0-3.438,2.866-3.438,5.578s2.864,3.164,6.726-1.808l0.756,3.164c0,0-8.697,5.425-9.083,16.726c0,0,0.189,20.343,0.768,23.507
				c0.186-0.247,19.077-9.129,18.782-8.981c0,0,3.475-3.165,6.371-11.754l-0.773,7.925c0,0-1.545,4.28-3.283,6.088
				c0,0,4.055,1.808,6.565-1.808c0,0-0.579,6.781-5.986,6.781c0,0-20.908,1.295-20.908,13.953c0,0,0,27.123-0.386,39.781
				c0,0-0.015,50.223,2.059,62.718l1.328,9.715h-18.254L411.702,145.818z"/>
			<g clip-path="url(#SVGID_23_)">
				<path fill="#FF9A40" d="M453.958,29.139c0,0,8.11,2.046,10.813,2.046c0,0-10.041-6.954-14.675-6.954l-6.179,4.091l-2.124-0.818
					c0,0,7.144-6.545,7.724-4.909c0,0,14.675,0,17.571,4.909c0,0,3.669-0.818,2.124-26.591c0,0-2.703-2.045-4.827-4.909l0.386-2.455
					c0,0,4.248,0.843,5.214-3.248c0,0,2.121-2.611,1.061-10.611h3.373l0.973,7.469c0,0,3-1.012,3.194-6.477
					c0,0,3.704-0.677,5.704-3.315v7.451c0,0-3.818,2.594-3.818,5.048s2.674,2.864,6.536-1.636l0.661,2.864
					c0,0-8.745,4.909-9.131,15.136c0,0,0.165,18.409,0.745,21.273c0.186-0.223,9.742-4.634,9.447-4.5c0,0,3.469-2.864,6.365-10.636
					l-0.776,7.172c0,0-1.546,3.873-3.284,5.51c0,0,4.054,1.636,6.564-1.636c0,0-0.58,6.136-5.986,6.136c0,0-11.585-2.455-11.585,9
					c0,0,0,8.837-0.084,18.379c0,0,7.196-6.434,21.227-2.924l2.656,1.55c-1.251-0.649-3.537-1.836-8.454-1.55
					c0,0-13.082-0.199-14.082,10.526v-0.015c0,3.753-0.84,7.274-0.933,10.034c0,0-0.373,45.176,1.7,56.484l1.149,8.519
					l-19.498-4.579l3.278-4.988l1.307-5.013c0,0-1.76-6.393-0.023-6.802c0,0,2.882-17.924,2.787-58.015
					c0,0-1.455-8.962-0.005-20.826c0,0-0.098,1.246-4.153-3.663c0,0-9.849-4.081-11.973-3.672s-7.338,0.356-12.358-0.024
					c0,0-9.655-3.651-10.62-7.741C431.946,24.229,445.656,35.275,453.958,29.139z"/>
				<path fill="#FFB14B" d="M467.943,36.908c0,0,8.11,2.046,10.813,2.046c0,0-10.041-6.954-14.675-6.954l-6.179,4.091l-2.124-0.818
					c0,0,7.144-6.545,7.724-4.909c0,0,14.675,0,17.571,4.909c0,0,3.669-0.818,2.124-26.591c0,0-2.703-2.045-4.827-4.909l0.386-2.455
					c0,0,4.248,0.959,5.214-3.132c0,0,2.121-2.495,1.061-10.495h3.373l0.973,7.354c0,0,3.008-1.069,3.201-6.535
					c0,0,3.712-0.735,5.712-3.373v7.451c0,0-3.826,2.594-3.826,5.048S497.133,0.5,500.995-4l0.659,2.864
					c0,0-8.746,4.909-9.132,15.136c0,0,0.165,18.409,0.744,21.273c0.186-0.223,9.742-4.634,9.447-4.5c0,0,3.469-2.864,6.365-10.636
					l-0.776,7.172c0,0-1.546,3.873-3.284,5.51c0,0,4.054,1.636,6.564-1.636c0,0-0.58,6.136-5.986,6.136c0,0-11.586-2.455-11.586,9
					c0,0,0,8.837-0.084,18.379c0,0,7.196-6.434,21.227-2.924l2.656,1.55c-1.251-0.649-3.529-1.836-8.447-1.55
					c0,0-13.074-0.199-14.074,10.526v-0.015c0,3.753-0.848,7.274-0.941,10.034c0,0-0.377,45.176,1.696,56.484l1.147,8.519
					l-19.499-4.579l3.278-4.988l1.306-5.013c0,0-1.76-6.393-0.023-6.802c0,0,2.882-17.924,2.787-58.015
					c0,0-1.455-8.962-0.005-20.826c0,0-0.098,1.246-4.153-3.663c0,0-9.849-4.081-11.973-3.672
					c-2.124,0.409-7.338,0.356-12.358-0.024c0,0-9.655-3.651-10.62-7.741C445.931,31.998,459.64,43.044,467.943,36.908z"/>
				<path fill="#FF9A40" d="M503.825,55.554c0.449,0.233,0.685,0.4,0.685,0.4L503.825,55.554z"/>
			</g>
			<g clip-path="url(#SVGID_23_)">
				<path fill="#FCEE21" d="M447.396,55.741c0,0,0,10.018-0.083,20.836"/>
				<path fill="#FFB14B" d="M448.573,168.385l-13.318,0.606l-0.915-9.593l1.314-5.683c0,0-1.757-7.248-0.019-7.711
					c0,0,2.884-20.319,2.789-65.768c0,0-1.454-10.16-0.005-23.609c0,0-0.098,1.413-4.153-4.152c0,0-9.849-4.627-11.973-4.163
					s-7.338,0.404-12.358-0.027c0,0-9.655-4.138-10.62-8.776c0,0,13.709,12.523,22.012,5.566c0,0,8.11,2.32,10.813,2.32
					c0,0-10.041-7.884-14.675-7.884l-6.179,4.638l-2.124-0.928c0,0,7.144-7.42,7.724-5.565c0,0,14.675,0,17.571,5.565
					c0,0,3.669-0.928,2.124-30.145c0,0-2.703-2.319-4.827-5.565l0.386-2.783c0,0,4.248,0.793,5.214-3.845
					c0,0,2.121-2.192,1.061-12.192h3.373l0.973,8.63c0,0,2.816-1.066,3.009-7.261c0,0,4.519-0.687,5.519-3.677v8.447
					c0,0-3.633,2.94-3.633,5.723s2.766,3.246,6.628-1.855l0.707,3.246c0,0-8.722,5.565-9.108,17.159c0,0,0.177,20.87,0.756,24.116"
					/>
				<path fill="#FCEE21" d="M471.195,75.019c0.449,0.264,0.685,0.454,0.685,0.454L471.195,75.019z"/>
			</g>
			<path clip-path="url(#SVGID_23_)" fill="#FFB14B" d="M354.548,168.396c0,0,10.903-3.705,15.697,12.295h-5.292
				C364.953,180.691,369.951,173.052,354.548,168.396z"/>
			<path clip-path="url(#SVGID_23_)" fill="#FCEE21" d="M360.611,185.118l3.146-6.553l1.928-4.87c0,0-2.537-6.21-0.016-6.607
				c0,0,4.189-17.41,4.051-56.352c0,0-2.106-8.705-0.004-20.229c0,0-0.14,1.211-6.021-3.558c0,0-14.284-3.964-17.364-3.567
				s-10.643,0.346-17.924-0.023c0,0-14.003-3.546-15.403-7.52c0,0,19.884,10.73,31.926,4.77c0,0,11.762,1.987,15.683,1.987
				c0,0-14.563-6.755-21.284-6.755l-8.962,3.974l-3.081-0.795c0,0,10.362-6.358,11.202-4.768c0,0,21.284,0,25.485,4.768
				c0,0,5.321-0.795,3.081-25.829c0,0-3.921-1.987-7.001-4.768l0.56-2.384c0,0,6.161,0.876,7.561-3.098c0,0,3.077-2.481,1.538-10.25
				h4.892l1.411,7.199c0,0,4.037-1.011,4.317-6.32c0,0,4.958-0.686,7.958-3.248v7.237c0,0-5.223,2.519-5.223,4.903
				s4.035,2.782,9.636-1.589l1.037,2.782c0,0-12.644,4.768-13.204,14.703c0,0,0.259,17.882,1.099,20.663
				c0.27-0.217,14.14-4.501,13.712-4.371c0,0,5.036-2.782,9.237-10.332l-1.123,6.967c0,0-2.242,3.762-4.762,5.352
				c0,0,5.88,1.589,9.521-1.589c0,0-0.84,5.961-8.682,5.961c0,0-16.803-2.384-16.803,8.742c0,0,0,23.842-0.56,34.968
				c0,0,1.025,56.692,1.025,60.666"/>
			<path clip-path="url(#SVGID_23_)" fill="#FFB14B" d="M415.401,164.752l-0.132-5.033c0,0,1.793-6.268,0.056-6.665
				c0,0-2.866-17.439-2.771-56.381c0,0,1.463-8.72,0.014-20.243c0,0,0.102,1.203,4.157-3.565c0,0,9.851-3.968,11.975-3.571
				s7.339,0.344,12.359-0.025c0,0,9.655-3.547,10.621-7.521c0,0-13.709,10.73-22.012,4.769c0,0-8.11,1.987-10.813,1.987
				c0,0,10.041-6.755,14.675-6.755l3.086,0.739l5.217,2.44c0,0-7.144-6.358-7.724-4.768c0,0-14.675,0-17.571,4.768
				c0,0-3.669-0.795-2.124-25.829c0,0,2.703-1.987,4.827-4.768l-0.386-2.384c0,0-4.248,0.922-5.213-3.052
				c0,0-2.121-2.204-1.061-10.204h-3.373l-0.973,7.153c0,0-2.525-1.034-2.718-6.342c0,0-3.229-0.709-5.229-3.271v7.237
				c0,0,3.343,2.519,3.343,4.903s-2.911,2.782-6.773-1.589l-0.78,2.782c0,0,8.685,4.768,9.071,14.703c0,0-0.195,17.882-0.774,20.663
				c-0.186-0.217-19.08-8.024-18.785-7.894c0,0-3.476-2.782-6.373-10.332l0.772,6.967c0,0,1.545,3.762,3.282,5.352
				c0,0-4.055,1.589-6.565-1.589c0,0,0.579,5.961,5.986,5.961c0,0,20.908,1.139,20.908,12.265c0,0,0,23.842,0.386,34.968
				c0,0,1.96,44.182-0.113,55.166l0.245,8.436l10.947,0.751L415.401,164.752z"/>
			<path clip-path="url(#SVGID_23_)" fill="#FF9A40" d="M420.898,176.518c0,0,6.908-0.827,9.946,8.173h-3.353
				C427.491,184.691,430.657,179.613,420.898,176.518z"/>
			<g clip-path="url(#SVGID_23_)">
				<path fill="#FCEE21" d="M437.697,189.523l-13.318,0.606l-0.915-9.593l1.314-5.683c0,0-1.757-7.248-0.019-7.711
					c0,0,2.884-20.319,2.789-65.768c0,0-1.454-10.16-0.005-23.609c0,0-0.098,1.413-4.153-4.152c0,0-9.849-4.627-11.973-4.163
					c-2.124,0.464-7.338,0.404-12.358-0.027c0,0-9.655-4.138-10.62-8.776c0,0,13.709,12.523,22.012,5.566c0,0,8.11,2.32,10.813,2.32
					c0,0-10.041-7.884-14.675-7.884l-6.179,4.638l-2.124-0.928c0,0,7.144-7.42,7.724-5.565c0,0,14.675,0,17.571,5.565
					c0,0,3.669-0.928,2.124-30.145c0,0-2.703-2.319-4.827-5.565l0.386-2.783c0,0,4.248,1.224,5.214-3.413
					c0,0,2.121-3.761,1.061-11.761h3.373l0.973,8.199c0,0,2.754-1.281,2.947-7.477c0,0,4.457-0.902,5.457-3.892v8.447
					c0,0-3.572,2.94-3.572,5.723s2.797,3.246,6.659-1.855l0.723,3.246c0,0-8.714,5.565-9.1,17.159c0,0,0.181,20.87,0.76,24.116
					c0.186-0.253,9.75-5.254,9.455-5.102c0,0,3.473-3.246,6.369-12.058l-0.774,8.13c0,0-1.546,4.391-3.283,6.246
					c0,0,4.054,1.855,6.565-1.855c0,0-0.58,6.956-5.986,6.956c0,0-11.585-2.783-11.585,10.203c0,0,0,10.018-0.083,20.836"/>
			</g>
			<g clip-path="url(#SVGID_23_)">
				<path fill="#FCEE21" d="M462.558,180.716l-13.318,0.606l-0.915-9.593l1.314-5.683c0,0-1.757-7.248-0.019-7.711
					c0,0,2.884-20.319,2.789-65.768c0,0-1.454-10.16-0.005-23.609c0,0-0.098,1.413-4.153-4.152c0,0-9.849-4.627-11.973-4.163
					c-2.124,0.464-7.338,0.404-12.358-0.027c0,0-9.655-4.138-10.62-8.776c0,0,13.709,12.523,22.012,5.566c0,0,8.11,2.32,10.813,2.32
					c0,0-10.041-7.884-14.675-7.884l-6.179,4.638l-2.124-0.928c0,0,7.144-7.42,7.724-5.565c0,0,14.675,0,17.571,5.565
					c0,0,3.669-0.928,2.124-30.145c0,0-2.703-2.319-4.827-5.565l0.386-2.783c0,0,4.248,1.128,5.214-3.51
					c0,0,2.121-2.857,1.061-11.857h3.373l0.973,8.296c0,0,2.823-1.233,3.016-7.429c0,0,4.527-0.854,5.527-3.844v8.447
					c0,0-3.641,2.94-3.641,5.723s2.762,3.246,6.624-1.855l0.705,3.246c0,0-8.723,5.565-9.109,17.159c0,0,0.176,20.87,0.756,24.116
					c0.186-0.253,9.748-5.254,9.453-5.102c0,0,3.471-3.246,6.368-12.058l-0.774,8.13c0,0-1.546,4.391-3.284,6.246
					c0,0,4.054,1.855,6.564-1.855c0,0-0.58,6.956-5.986,6.956c0,0-11.585-2.783-11.585,10.203c0,0,0,10.018-0.083,20.836"/>
			</g>
			<g clip-path="url(#SVGID_23_)">
				<path fill="#FF9A40" d="M469.104,157.817l-7.526,0.606l-0.517-9.593l0.742-5.683c0,0-0.993-7.248-0.011-7.711
					c0,0,1.63-20.319,1.576-65.768c0,0-0.822-10.16-0.003-23.609c0,0-0.055,1.413-2.347-4.152c0,0-5.565-4.627-6.766-4.163
					c-1.2,0.464-4.147,0.404-6.984-0.027c0,0-5.456-4.138-6.001-8.776c0,0,7.747,12.523,12.439,5.566c0,0,4.583,2.32,6.11,2.32
					c0,0-5.674-7.884-8.293-7.884l-3.492,4.638l-1.2-0.928c0,0,4.037-7.42,4.364-5.565c0,0,8.293,0,9.929,5.565
					c0,0,2.073-0.928,1.2-30.145c0,0-1.528-2.319-2.728-5.565l0.218-2.783c0,0,2.401,1.078,2.946-3.56c0,0,1.199-2.907,0.599-11.907
					h1.906l0.55,8.346c0,0,1.416-1.208,1.525-7.403c0,0,2.944-0.829,2.944-3.819v8.447c0,0-1.878,2.94-1.878,5.723
					s1.651,3.246,3.833-1.855l0.443,3.246c0,0-4.907,5.565-5.125,17.159c0,0,0.111,20.87,0.438,24.116
					c0.105-0.253,5.514-5.254,5.347-5.102c0,0,1.964-3.246,3.601-12.058l-0.436,8.13c0,0-0.873,4.391-1.855,6.246
					c0,0,2.291,1.855,3.71-1.855c0,0-0.327,6.956-3.383,6.956c0,0-6.547-2.783-6.547,10.203c0,0,0,10.018-0.047,20.836"/>
			</g>
			<g clip-path="url(#SVGID_23_)">
				<path fill="#B29075" d="M420.565,40.046c0,0,1.489-3.546,5.248-1.637c0,0,1.159,3.41-5.248,2.182"/>
				<path fill="#B29075" d="M419.509,42.313c0,0,3.724-0.964,4.481,3.184c0,0-2.011,2.988-4.915-2.853"/>
				<path fill="#B29075" d="M416.401,48.528c0,0,3.724-0.964,4.481,3.184c0,0-2.011,2.988-4.915-2.853"/>
				<path fill="#B29075" d="M415.676,50.59c0,0,2.864,2.567-0.17,5.494c0,0-3.602-0.02-0.346-5.673"/>
				<path fill="#B29075" d="M418.783,53.698c0,0,2.864,2.567-0.17,5.494c0,0-3.602-0.02-0.346-5.673"/>
				<path fill="#B29075" d="M420.925,53.381c0,0,3.627-1.279,4.737,2.788c0,0-1.748,3.149-5.142-2.422"/>
				<path fill="#B29075" d="M427.278,45.421c0,0,3.724-0.964,4.481,3.184c0,0-2.011,2.988-4.915-2.853"/>
				<path fill="#B29075" d="M426.553,47.482c0,0,2.864,2.567-0.17,5.494c0,0-3.602-0.02-0.346-5.673"/>
				<path fill="#B29075" d="M429.66,50.59c0,0,2.864,2.567-0.17,5.494c0,0-3.602-0.02-0.346-5.673"/>
				<path fill="#B29075" d="M431.802,50.274c0,0,3.627-1.279,4.737,2.788c0,0-1.748,3.149-5.142-2.422"/>
				<path fill="#B29075" d="M432.179,43.718c0,0,1.613-3.492,5.302-1.451c0,0,1.038,3.449-5.321,1.996"/>
				<path fill="#B29075" d="M433.315,45.585c0,0,3.801-0.591,4.144,3.612c0,0-2.297,2.774-4.609-3.326"/>
				<path fill="#B29075" d="M437.688,45.149c0,0,3.801-0.591,4.144,3.612c0,0-2.297,2.774-4.609-3.326"/>
				<path fill="#B29075" d="M438.8,43.292c0,0,1.308-3.617,5.158-1.9c0,0,1.33,3.347-5.131,2.445"/>
				<path fill="#B29075" d="M388.572,49.531c0,0-0.46,3.819-4.599,3.012c0,0-2.049-2.962,4.449-3.536"/>
				<path fill="#B29075" d="M386.917,48.104c0,0-3.435,1.731-5.054-2.162c0,0,1.332-3.346,5.408,1.747"/>
				<path fill="#B29075" d="M382.89,49.864c0,0-3.435,1.731-5.054-2.162c0,0,1.332-3.346,5.408,1.747"/>
				<path fill="#B29075" d="M382.403,51.974c0,0-0.132,3.844-4.324,3.394c0,0-2.295-2.776,4.13-3.904"/>
				<path fill="#B29075" d="M386.278,58.204c0,0,1.165,3.666-2.936,4.647c0,0-3.093-1.846,2.582-5.063"/>
				<path fill="#B29075" d="M384.18,57.591c0,0-2.408,2.999-5.496,0.129c0,0-0.175-3.597,5.646-0.653"/>
				<path fill="#B29075" d="M381.246,60.863c0,0-2.408,2.999-5.496,0.129c0,0-0.175-3.597,5.646-0.653"/>
				<path fill="#B29075" d="M381.678,62.984c0,0,1.474,3.553-2.527,4.882c0,0-3.239-1.574,2.139-5.265"/>
				<path fill="#B29075" d="M375.401,55.096c0,0,1.165,3.666-2.936,4.647c0,0-3.093-1.846,2.582-5.063"/>
				<path fill="#B29075" d="M373.303,54.484c0,0-2.408,2.999-5.496,0.129c0,0-0.175-3.597,5.646-0.653"/>
				<path fill="#B29075" d="M370.369,57.755c0,0-2.408,2.999-5.496,0.129c0,0-0.175-3.597,5.646-0.653"/>
				<path fill="#B29075" d="M370.801,59.877c0,0,1.474,3.553-2.527,4.882c0,0-3.239-1.574,2.139-5.265"/>
				<path fill="#B29075" d="M373.644,61.748c0,0-3.718,0.985-2.345,4.972c0,0,3.218,1.618,2.885-4.897"/>
				<path fill="#B29075" d="M375.656,67.422c0,0-1.238,3.641,2.842,4.706c0,0,3.129-1.783-2.48-5.114"/>
				<path fill="#B29075" d="M372.08,68.196c0,0-3.789,0.663-2.762,4.753c0,0,3.067,1.888,3.294-4.632"/>
				<path fill="#B29075" d="M390.278,45.215c0,0-3.235,2.08-5.252-1.622c0,0,0.976-3.467,5.561,1.173"/>
				<path fill="#B29075" d="M390.322,43.03c0,0-3.524-1.542-1.557-5.272c0,0,3.427-1.107,2.103,5.28"/>
				<path fill="#B29075" d="M386.398,41.05c0,0-3.524-1.542-1.557-5.272c0,0,3.427-1.107,2.103,5.28"/>
				<path fill="#B29075" d="M384.463,42.021c0,0-3.045,2.35-5.372-1.167c0,0,0.675-3.538,5.641,0.692"/>
				<path fill="#B29075" d="M383.641,38.698c0,0-3.834,0.302-3.86-3.914c0,0,2.5-2.593,4.345,3.664"/>
				<path fill="#B29075" d="M379.041,43.733c0,0-3.76,0.812-4.348-3.363c0,0,2.131-2.904,4.795,3.051"/>
				<path fill="#B29075" d="M376.871,38.471c0,0-2.758-2.681,0.393-5.483c0,0,3.598,0.167,0.115,5.682"/>
				<path fill="#B29075" d="M374.718,38.7c0,0-3.676,1.131-4.62-2.979c0,0,1.874-3.075,5.039,2.629"/>
				<path fill="#B29075" d="M394.125,48.858c0,0,0.013-3.846,4.218-3.526c0,0,2.379,2.704-4.008,4.029"/>
				<path fill="#B29075" d="M395.935,50.084c0,0,3.21-2.119,5.271,1.56c0,0-0.934,3.478-5.575-1.106"/>
				<path fill="#B29075" d="M399.729,47.867c0,0,3.21-2.119,5.271,1.56c0,0-0.934,3.478-5.575-1.106"/>
				<path fill="#B29075" d="M395.306,44.161c0,0-0.316-3.833,3.9-3.874c0,0,2.602,2.49-3.648,4.358"/>
				<path fill="#B29075" d="M411.197,44.06c0,0,2.561-2.87-0.78-5.441c0,0-3.577,0.421,0.287,5.676"/>
				<path fill="#B29075" d="M407.691,39.576c0,0-0.971-3.722-4.963-2.364c0,0-1.63,3.212,4.886,2.904"/>
				<path fill="#B29075" d="M409.245,45.791c0,0-0.971-3.722-4.963-2.364c0,0-1.63,3.212,4.886,2.904"/>
				<path fill="#B29075" d="M408.952,37.817c0,0,2.797-2.64-0.311-5.488c0,0-3.6,0.113-0.2,5.68"/>
				<path fill="#B29075" d="M411.752,37.511c0,0,3.842-0.19,3.328-4.375c0,0-2.81-2.253-3.841,4.189"/>
				<path fill="#B29075" d="M445.472,35.626c0,0,3.797,0.613,4.166-3.587c0,0-2.28-2.788-4.629,3.298"/>
				<path fill="#B29075" d="M423.585,42.541c0,0,2.242-3.125,5.481-0.425c0,0,0.369,3.583-5.602,0.957"/>
				<path fill="#B29075" d="M420.804,35.993c0,0,0.61-3.798,4.713-2.829c0,0,1.931,3.04-4.584,3.359"/>
				<path fill="#B29075" d="M425.16,36.598c0,0,1.922-3.331,5.412-0.964c0,0,0.721,3.529-5.48,1.506"/>
				<path fill="#B29075" d="M428.836,39.632c0,0,1.523-2.638,4.286-0.764c0,0,0.571,2.795-4.34,1.192"/>
				<path fill="#B29075" d="M443.056,39.057c0,0,1.613-3.492,5.302-1.451c0,0,1.038,3.449-5.321,1.996"/>
				<path fill="#B29075" d="M448.565,40.488c0,0,3.801-0.591,4.144,3.612c0,0-2.297,2.774-4.609-3.326"/>
				<path fill="#B29075" d="M449.677,38.63c0,0,1.308-3.617,5.158-1.9c0,0,1.33,3.347-5.131,2.445"/>
				<path fill="#B29075" d="M434.461,37.88c0,0,2.242-3.125,5.481-0.425c0,0,0.369,3.583-5.602,0.957"/>
				<path fill="#B29075" d="M433.325,36.15c0,0,0.359-3.829,4.517-3.132c0,0,2.126,2.907-4.354,3.653"/>
				<path fill="#B29075" d="M439.713,34.97c0,0,1.523-2.638,4.286-0.764c0,0,0.571,2.795-4.34,1.192"/>
				<path fill="#B29075" d="M375.792,51.017c0,0-3.534,1.518-4.913-2.467c0,0,1.534-3.259,5.292,2.074"/>
				<path fill="#B29075" d="M375.352,47.125c0,0-3.784,0.692-4.239-3.5c0,0,2.222-2.834,4.696,3.202"/>
				<path fill="#B29075" d="M370.091,50.307c0,0-3.697,1.062-4.564-3.064c0,0,1.931-3.04,4.989,2.722"/>
				<path fill="#B29075" d="M369.553,45.572c0,0-2.928,0.841-3.614-2.427c0,0,1.53-2.408,3.951,2.156"/>
			</g>
			<g clip-path="url(#SVGID_23_)">
				<path fill="#B29075" d="M486.27,40.046c0,0-1.489-3.546-5.248-1.637c0,0-1.159,3.41,5.248,2.182"/>
				<path fill="#B29075" d="M487.326,42.313c0,0-3.724-0.964-4.481,3.184c0,0,2.011,2.988,4.915-2.853"/>
				<path fill="#B29075" d="M490.433,48.528c0,0-3.724-0.964-4.481,3.184c0,0,2.011,2.988,4.915-2.853"/>
				<path fill="#B29075" d="M491.159,50.59c0,0-2.864,2.567,0.17,5.494c0,0,3.602-0.02,0.346-5.673"/>
				<path fill="#B29075" d="M488.051,53.698c0,0-2.864,2.567,0.17,5.494c0,0,3.602-0.02,0.346-5.673"/>
				<path fill="#B29075" d="M485.909,53.381c0,0-3.627-1.279-4.737,2.788c0,0,1.748,3.149,5.142-2.422"/>
				<path fill="#B29075" d="M479.557,45.421c0,0-3.724-0.964-4.481,3.184c0,0,2.011,2.988,4.915-2.853"/>
				<path fill="#B29075" d="M480.282,47.482c0,0-2.864,2.567,0.17,5.494c0,0,3.602-0.02,0.346-5.673"/>
				<path fill="#B29075" d="M477.174,50.59c0,0-2.864,2.567,0.17,5.494c0,0,3.602-0.02,0.346-5.673"/>
				<path fill="#B29075" d="M475.033,50.274c0,0-3.627-1.279-4.737,2.788c0,0,1.748,3.149,5.142-2.422"/>
				<path fill="#B29075" d="M474.656,43.718c0,0-1.613-3.492-5.302-1.451c0,0-1.038,3.449,5.321,1.996"/>
				<path fill="#B29075" d="M473.52,45.585c0,0-3.801-0.591-4.144,3.612c0,0,2.297,2.774,4.609-3.326"/>
				<path fill="#B29075" d="M469.147,45.149c0,0-3.801-0.591-4.144,3.612c0,0,2.297,2.774,4.609-3.326"/>
				<path fill="#B29075" d="M468.035,43.292c0,0-1.308-3.617-5.158-1.9c0,0-1.33,3.347,5.131,2.445"/>
				<path fill="#B29075" d="M518.263,49.531c0,0,0.46,3.819,4.599,3.012c0,0,2.049-2.962-4.449-3.536"/>
				<path fill="#B29075" d="M519.918,48.104c0,0,3.435,1.731,5.054-2.162c0,0-1.332-3.346-5.408,1.747"/>
				<path fill="#B29075" d="M523.945,49.864c0,0,3.435,1.731,5.054-2.162c0,0-1.332-3.346-5.408,1.747"/>
				<path fill="#B29075" d="M524.431,51.974c0,0,0.132,3.844,4.324,3.394c0,0,2.295-2.776-4.13-3.904"/>
				<path fill="#B29075" d="M520.556,58.204c0,0-1.165,3.666,2.936,4.647c0,0,3.093-1.846-2.582-5.063"/>
				<path fill="#B29075" d="M522.654,57.591c0,0,2.408,2.999,5.496,0.129c0,0,0.175-3.597-5.646-0.653"/>
				<path fill="#B29075" d="M525.589,60.863c0,0,2.408,2.999,5.496,0.129c0,0,0.175-3.597-5.646-0.653"/>
				<path fill="#B29075" d="M525.157,62.984c0,0-1.474,3.553,2.527,4.882c0,0,3.239-1.574-2.139-5.265"/>
				<path fill="#B29075" d="M531.433,55.096c0,0-1.164,3.666,2.936,4.647c0,0,3.093-1.846-2.582-5.063"/>
				<path fill="#B29075" d="M533.531,54.484c0,0,2.408,2.999,5.496,0.129c0,0,0.175-3.597-5.646-0.653"/>
				<path fill="#B29075" d="M536.466,57.755c0,0,2.408,2.999,5.496,0.129c0,0,0.175-3.597-5.646-0.653"/>
				<path fill="#B29075" d="M536.034,59.877c0,0-1.474,3.553,2.527,4.882c0,0,3.239-1.574-2.139-5.265"/>
				<path fill="#B29075" d="M533.191,61.748c0,0,3.718,0.985,2.345,4.972c0,0-3.218,1.618-2.885-4.897"/>
				<path fill="#B29075" d="M531.179,67.422c0,0,1.238,3.641-2.842,4.706c0,0-3.129-1.783,2.48-5.114"/>
				<path fill="#B29075" d="M534.754,68.196c0,0,3.789,0.663,2.762,4.753c0,0-3.067,1.888-3.294-4.632"/>
				<path fill="#B29075" d="M516.557,45.215c0,0,3.235,2.08,5.252-1.622c0,0-0.976-3.467-5.561,1.173"/>
				<path fill="#B29075" d="M516.513,43.03c0,0,3.524-1.542,1.557-5.272c0,0-3.427-1.107-2.103,5.28"/>
				<path fill="#B29075" d="M520.437,41.05c0,0,3.524-1.542,1.557-5.272c0,0-3.427-1.107-2.103,5.28"/>
				<path fill="#B29075" d="M522.372,42.021c0,0,3.045,2.35,5.372-1.167c0,0-0.675-3.538-5.641,0.692"/>
				<path fill="#B29075" d="M523.194,38.698c0,0,3.834,0.302,3.86-3.914c0,0-2.5-2.593-4.345,3.664"/>
				<path fill="#B29075" d="M527.794,43.733c0,0,3.76,0.812,4.348-3.363c0,0-2.131-2.904-4.795,3.051"/>
				<path fill="#B29075" d="M529.964,38.471c0,0,2.758-2.681-0.393-5.483c0,0-3.598,0.167-0.115,5.682"/>
				<path fill="#B29075" d="M532.117,38.7c0,0,3.676,1.131,4.62-2.979c0,0-1.875-3.075-5.039,2.629"/>
				<path fill="#B29075" d="M512.71,48.858c0,0-0.013-3.846-4.218-3.526c0,0-2.379,2.704,4.008,4.029"/>
				<path fill="#B29075" d="M510.9,50.084c0,0-3.21-2.119-5.271,1.56c0,0,0.934,3.478,5.575-1.106"/>
				<path fill="#B29075" d="M507.105,47.867c0,0-3.21-2.119-5.271,1.56c0,0,0.934,3.478,5.575-1.106"/>
				<path fill="#B29075" d="M511.528,44.161c0,0,0.316-3.833-3.9-3.874c0,0-2.602,2.49,3.648,4.358"/>
				<path fill="#B29075" d="M495.637,44.06c0,0-2.561-2.87,0.78-5.441c0,0,3.577,0.421-0.287,5.676"/>
				<path fill="#B29075" d="M499.143,39.576c0,0,0.971-3.722,4.963-2.364c0,0,1.63,3.212-4.886,2.904"/>
				<path fill="#B29075" d="M497.59,45.791c0,0,0.971-3.722,4.963-2.364c0,0,1.63,3.212-4.886,2.904"/>
				<path fill="#B29075" d="M497.882,37.817c0,0-2.797-2.64,0.311-5.488c0,0,3.6,0.113,0.2,5.68"/>
				<path fill="#B29075" d="M495.083,37.511c0,0-3.842-0.19-3.328-4.375c0,0,2.81-2.253,3.841,4.189"/>
				<path fill="#B29075" d="M461.363,35.626c0,0-3.797,0.613-4.166-3.587c0,0,2.28-2.788,4.629,3.298"/>
				<path fill="#B29075" d="M483.25,42.541c0,0-2.242-3.125-5.481-0.425c0,0-0.369,3.583,5.602,0.957"/>
				<path fill="#B29075" d="M486.03,35.993c0,0-0.61-3.798-4.713-2.829c0,0-1.931,3.04,4.584,3.359"/>
				<path fill="#B29075" d="M481.674,36.598c0,0-1.922-3.331-5.412-0.964c0,0-0.721,3.529,5.48,1.506"/>
				<path fill="#B29075" d="M477.999,39.632c0,0-1.523-2.638-4.286-0.764c0,0-0.571,2.795,4.34,1.192"/>
				<path fill="#B29075" d="M396.373,35.993c0,0,3.311-1.957,5.187,1.819c0,0-1.105,3.428-5.513-1.381"/>
				<path fill="#B29075" d="M394.172,37.182c0,0,3.563,1.449,1.695,5.229c0,0-3.397,1.197-2.241-5.223"/>
				<path fill="#B29075" d="M394.185,52.745c0,0,3.563,1.449,1.695,5.229c0,0-3.397,1.197-2.241-5.223"/>
				<path fill="#B29075" d="M393.011,58.314c0,0,0.766,3.769-3.416,4.307c0,0-2.878-2.166,3.109-4.758"/>
				<path fill="#B29075" d="M394.918,59.339c0,0,3.674,1.139,2.137,5.065c0,0-3.282,1.483-2.68-5.012"/>
				<path fill="#B29075" d="M402.954,57.964c0,0,0.766,3.769-3.416,4.307c0,0-2.878-2.166,3.109-4.758"/>
				<path fill="#B29075" d="M403.592,62.313c0,0,0.766,3.769-3.416,4.307c0,0-2.878-2.166,3.109-4.758"/>
				<path fill="#B29075" d="M405.499,63.337c0,0,3.674,1.139,2.137,5.065c0,0-3.282,1.483-2.68-5.012"/>
				<path fill="#B29075" d="M409.715,58.302c0,0,3.378-1.839,5.12,2.001c0,0-1.225,3.387-5.461-1.574"/>
				<path fill="#B29075" d="M409.512,60.478c0,0,3.402,1.795,1.169,5.371c0,0-3.499,0.855-1.713-5.419"/>
				<path fill="#B29075" d="M403.521,52.229c0,0,3.664-1.169,4.651,2.93c0,0-1.842,3.095-5.066-2.576"/>
				<path fill="#B29075" d="M398.983,32.885c0,0,2.756-2.683,5.47,0.543c0,0-0.265,3.592-5.683-0.041"/>
				<path fill="#B29075" d="M408.333,48.4c0,0,3.531-1.525,4.918,2.456c0,0-1.527,3.262-5.296-2.063"/>
				<path fill="#B29075" d="M409.471,53.028c0,0,2.796-1.208,3.895,1.945c0,0-1.21,2.583-4.194-1.634"/>
				<path fill="#B29075" d="M463.779,39.057c0,0-1.613-3.492-5.302-1.451c0,0-1.038,3.449,5.321,1.996"/>
				<path fill="#B29075" d="M458.27,40.488c0,0-3.801-0.591-4.144,3.612c0,0,2.297,2.774,4.609-3.326"/>
				<path fill="#B29075" d="M457.158,38.63c0,0-1.308-3.617-5.158-1.9c0,0-1.33,3.347,5.131,2.445"/>
				<path fill="#B29075" d="M472.373,37.88c0,0-2.242-3.125-5.481-0.425c0,0-0.369,3.583,5.602,0.957"/>
				<path fill="#B29075" d="M473.509,36.15c0,0-0.359-3.829-4.517-3.132c0,0-2.126,2.907,4.354,3.653"/>
				<path fill="#B29075" d="M467.122,34.97c0,0-1.523-2.638-4.286-0.764c0,0-0.571,2.795,4.34,1.192"/>
				<path fill="#B29075" d="M531.043,51.017c0,0,3.534,1.518,4.913-2.467c0,0-1.534-3.259-5.292,2.074"/>
				<path fill="#B29075" d="M531.483,47.125c0,0,3.784,0.692,4.239-3.5c0,0-2.222-2.834-4.696,3.202"/>
				<path fill="#B29075" d="M536.744,50.307c0,0,3.697,1.062,4.564-3.064c0,0-1.931-3.04-4.989,2.722"/>
				<path fill="#B29075" d="M537.282,45.572c0,0,2.928,0.841,3.614-2.427c0,0-1.53-2.408-3.951,2.156"/>
			</g>
		</g>
	</g>
	<path fill="#FF9A40" d="M377.173,184.465c0,0,7.745-13.278,14.384-9.958c0,0-12.54,6.639-11.434,9.958c0,0,5.532-5.328,8.852-5.246
		c0,0-3.319,2.664-2.213,5.246C387.869,187.047,377.173,184.465,377.173,184.465z"/>
	<path fill="#FFB14B" d="M351.44,172.396c0,0,10.903-2.705,15.697,12.295h-5.292C361.845,184.691,366.843,177.052,351.44,172.396z"
		/>
	<path fill="#FF9A40" d="M358.745,177.144c0,0,6.908-1.453,9.946,7.547h-3.353C365.338,184.691,368.505,180.002,358.745,177.144z"/>
	<path fill="#FF9A40" d="M379.568,177.144c0,0-6.908-1.453-9.946,7.547h3.353C372.975,184.691,369.809,180.002,379.568,177.144z"/>
	<path fill="#FF9A40" d="M443.274,182.144c0,0-6.908-1.453-9.946,7.547h3.353C436.681,189.691,433.515,185.002,443.274,182.144z"/>
	<path fill="#FF9A40" d="M440.167,178.34c0,0-6.908-2.649-9.946,11.351h3.353C433.574,189.691,430.407,182.638,440.167,178.34z"/>
	<path fill="#FF9A40" d="M420.898,179.34c0,0,6.908-1.649,9.946,11.351h-3.353C427.491,190.691,430.657,183.638,420.898,179.34z"/>
	<path fill="#FF9A40" d="M417.79,182.518c0,0,6.908-0.827,9.946,8.173h-3.353C424.383,190.691,427.55,185.613,417.79,182.518z"/>
	<path fill="#FF9A40" d="M468.135,171.144c0,0-6.908-1.453-9.946,7.547h3.353C461.543,178.691,458.376,174.002,468.135,171.144z"/>
	<path fill="#FF9A40" d="M465.028,167.34c0,0-6.908-2.649-9.946,11.351h3.353C458.435,178.691,455.268,171.638,465.028,167.34z"/>
	<path fill="#FF9A40" d="M445.759,169.34c0,0,6.908-2.649,9.946,11.351h-3.353C452.352,180.691,455.518,173.638,445.759,169.34z"/>
	<path fill="#FF9A40" d="M399.145,167.518c0,0,6.908-0.827,9.946,8.173h-3.353C405.737,175.691,408.904,170.613,399.145,167.518z"/>
	<path fill="#FF9A40" d="M485.227,148.144c0,0-6.908-2.453-9.946,7.547h3.353C478.634,155.691,475.468,151.002,485.227,148.144z"/>
	<path fill="#FF9A40" d="M482.12,144.34c0,0-6.908-2.649-9.946,11.351h3.353C475.527,155.691,472.36,148.638,482.12,144.34z"/>
	<path fill="#FF9A40" d="M462.851,145.34c0,0,6.908-2.649,9.946,11.351h-3.353C469.444,156.691,472.61,149.638,462.851,145.34z"/>
	<path fill="#FF9A40" d="M459.743,148.518c0,0,6.908-0.827,9.946,8.173h-3.353C466.336,156.691,469.503,151.613,459.743,148.518z"/>
	<path fill="#FF9A40" d="M492.996,163.144c0,0-6.908-1.453-9.946,7.547h3.353C486.404,170.691,483.237,166.002,492.996,163.144z"/>
	<path fill="#FF9A40" d="M489.889,159.34c0,0-6.908-2.649-9.946,11.351h3.353C483.296,170.691,480.129,163.638,489.889,159.34z"/>
	<path fill="#FF9A40" d="M470.62,161.34c0,0,6.908-2.649,9.946,11.351h-3.353C477.213,172.691,480.379,165.638,470.62,161.34z"/>
	<path fill="#FF9A40" d="M467.512,164.518c0,0,6.908-0.827,9.946,8.173h-3.353C474.105,172.691,477.272,167.613,467.512,164.518z"/>
	<path fill="#FF9A40" d="M489.889,162.144c0,0-6.908-2.453-9.946,7.547h3.353C483.296,169.691,480.129,165.002,489.889,162.144z"/>
	<path fill="#FF9A40" d="M418.413,164.34c0,0-6.908-2.649-9.946,11.351h3.353C411.82,175.691,408.654,168.638,418.413,164.34z"/>
	<path fill="#FF9A40" d="M421.521,166.34c0,0-6.908-2.649-9.946,11.351h3.353C414.928,177.691,411.762,170.638,421.521,166.34z"/>
	<path fill="#FF9A40" d="M380.499,156.518c0,0,6.908-0.827,9.946,8.173h-3.353C387.092,164.691,390.258,159.613,380.499,156.518z"/>
	<path fill="#FF9A40" d="M399.768,153.34c0,0-6.908-2.649-9.946,11.351h3.353C393.175,164.691,390.008,157.638,399.768,153.34z"/>
	<path fill="#FF9A40" d="M402.875,155.34c0,0-6.908-2.649-9.946,11.351h3.353C396.282,166.691,393.116,159.638,402.875,155.34z"/>
	<path fill="#FF9A40" d="M410.021,150.518c0,0,6.908-0.827,9.946,8.173h-3.353C416.614,158.691,419.781,153.613,410.021,150.518z"/>
	<path fill="#FF9A40" d="M429.29,147.34c0,0-6.908-2.649-9.946,11.351h3.353C422.697,158.691,419.531,151.638,429.29,147.34z"/>
	<path fill="#FF9A40" d="M432.398,148.34c0,0-6.908-2.649-9.946,11.351h3.353C425.805,159.691,422.638,152.638,432.398,148.34z"/>
	<path fill="#FF9A40" d="M467.512,159.34c0,0,6.908-2.649,9.946,11.351h-3.353C474.105,170.691,477.272,163.638,467.512,159.34z"/>
	<path fill="#FF9A40" d="M464.405,162.518c0,0,6.908-0.827,9.946,8.173h-3.353C470.997,170.691,474.164,165.613,464.405,162.518z"/>
</g>
</svg>
