<?xml version="1.0" encoding="utf-8"?>
<!-- Generator: Adobe Illustrator 17.0.0, SVG Export Plug-In . SVG Version: 6.00 Build 0)  -->
<!DOCTYPE svg PUBLIC "-//W3C//DTD SVG 1.1//EN" "http://www.w3.org/Graphics/SVG/1.1/DTD/svg11.dtd">
<svg version="1.1" id="Layer_1" xmlns="http://www.w3.org/2000/svg" xmlns:xlink="http://www.w3.org/1999/xlink" x="0px" y="0px"
	 width="136.222px" height="115px" viewBox="0 0 136.222 115" enable-background="new 0 0 136.222 115" xml:space="preserve">
<g>
	<g>
		<defs>
			<rect id="SVGID_1141_" x="-159.356" y="189.516" width="130" height="115"/>
		</defs>
		<clipPath id="SVGID_2_">
			<use xlink:href="#SVGID_1141_"  overflow="visible"/>
		</clipPath>
		<g clip-path="url(#SVGID_2_)">
		</g>
	</g>
</g>
<g>
	<defs>
		<rect id="SVGID_1473_" x="0" y="0" width="136.222" height="115"/>
	</defs>
	<clipPath id="SVGID_4_">
		<use xlink:href="#SVGID_1473_"  overflow="visible"/>
	</clipPath>
	<g clip-path="url(#SVGID_4_)">
		<g>
			<g>
				<defs>
					<polygon id="SVGID_1475_" points="-0.356,-1.484 -0.356,124.516 80.39,124.516 110.124,-1.484 					"/>
				</defs>
				<clipPath id="SVGID_6_">
					<use xlink:href="#SVGID_1475_"  overflow="visible"/>
				</clipPath>
			</g>
			<g>
				<defs>
					<polygon id="SVGID_1477_" points="-1.356,-0.484 -1.356,117.516 135.935,117.516 136.053,-0.484 					"/>
				</defs>
				<clipPath id="SVGID_8_">
					<use xlink:href="#SVGID_1477_"  overflow="visible"/>
				</clipPath>
				<polygon opacity="0.3" clip-path="url(#SVGID_8_)" fill="#B2E9FF" points="-1.356,-2.484 -1.356,124.516 138.304,124.516 
					136.853,-2.484 				"/>
				<g clip-path="url(#SVGID_8_)">
					<defs>
						<polyline id="SVGID_1479_" points="12.644,124.516 140.359,124.516 140.285,-14.484 12.644,-14.484 						"/>
					</defs>
					<clipPath id="SVGID_10_">
						<use xlink:href="#SVGID_1479_"  overflow="visible"/>
					</clipPath>
				</g>
			</g>
		</g>
		<g>
			<defs>
				<polygon id="SVGID_1481_" points="-1.356,1.516 -1.356,119.516 135.935,119.516 135.45,1.516 				"/>
			</defs>
			<clipPath id="SVGID_12_">
				<use xlink:href="#SVGID_1481_"  overflow="visible"/>
			</clipPath>
		</g>
		<g>
			<defs>
				<polygon id="SVGID_1483_" points="-1.356,-0.484 -1.356,119.516 138.304,119.516 136.853,-0.484 				"/>
			</defs>
			<clipPath id="SVGID_14_">
				<use xlink:href="#SVGID_1483_"  overflow="visible"/>
			</clipPath>
			<g clip-path="url(#SVGID_14_)">
				<g>
					<path fill="#CCCCCC" d="M78.476,94.749c0-1.55,0-3.101,0-4.698c-6.411,0-12.735,0-19.112,0c0,1.595,0,3.147,0,4.698
						C65.735,94.749,72.106,94.749,78.476,94.749z"/>
					<path fill="#00608B" d="M89.723,65.976c3.225,0,6.331,0,9.475,0c0-1.029,0-2.025,0-3.108c-0.361,0-0.699-0.022-1.033,0.005
						c-0.429,0.035-0.556-0.152-0.551-0.559c0.016-1.237-0.035-2.476,0.013-3.711c0.116-2.99-1.948-5.352-4.766-6.207
						c-1.66-0.504-3.352-0.698-5.083-0.689c-3.345,0.019-6.69,0.006-10.035,0.006c-0.245,0-0.49,0-0.727,0
						c-0.074-0.567,0.024-1.206-0.248-1.494c-0.242-0.256-0.895-0.122-1.411-0.164c0-2.645,0-5.265,0-7.967c1.029,0,2.024,0,3.059,0
						c0-1.075,0-2.068,0-3.14c-0.292,0-0.537,0-0.782,0c-3.849,0-7.698-0.008-11.548,0.005c-2.014,0.007-4.028,0.066-6.042,0.07
						c-0.491,0.001-0.642,0.177-0.621,0.643c0.028,0.64,0.03,1.284-0.002,1.924c-0.023,0.459,0.154,0.598,0.596,0.585
						c1.081-0.032,1.025-0.106,1.025,1.049c0.001,5.132,0.014,10.265-0.015,15.397c-0.004,0.721,0.126,1.296,0.723,1.728
						c0.749,0.542,0.947,1.258,0.943,2.19c-0.039,8.317-0.023,16.634-0.022,24.951c0,0.885,0.001,0.886,0.898,0.886
						c3.116,0.001,6.232,0.001,9.348-0.001c0.268,0,0.535-0.023,0.863-0.037c0-0.337,0-0.608,0-0.878c0-8.431,0-16.863,0-25.294
						c0-1.209,1.245-2.507,2.447-2.455c0.68,0.03,0.854-0.244,0.762-0.831c-0.103-0.659,0.159-0.847,0.823-0.84
						c3.253,0.034,6.507-0.004,9.76,0.031c0.695,0.008,1.409,0.145,2.078,0.343c1.043,0.309,1.484,1.158,1.637,2.17
						c0.051,0.337,0.029,0.686,0.03,1.029c0.001,1.149-0.002,1.137-1.151,1.273c-0.16,0.019-0.418,0.233-0.424,0.365
						C89.705,64.137,89.723,65.027,89.723,65.976z"/>
					<path fill="#00608B" d="M62.861,12.416c0.253,0.843,0.381,1.693,0.754,2.417c0.698,1.357,2.257,1.967,3.814,1.649
						c1.456-0.298,2.598-1.551,2.773-3.044c0.304-2.591-1.542-4.595-4.431-4.729c-3.813-0.176-6.978,1.17-9.441,4.125
						c-2.251,2.702-3.778,5.802-4.68,9.156c-1.254,4.66-2.284,9.379-3.433,14.068c-0.648,2.644-1.314,5.284-2.02,7.913
						c-0.959,3.567-2.855,6.571-5.621,9.015c-2.674,2.363-5.352,4.721-8.052,7.052c-2.511,2.168-5.17,4.22-6.816,7.171
						c-1.064,1.907-1.867,3.962-2.761,5.962c-0.232,0.52-0.366,1.083-0.546,1.626c-0.352,1.065,0.023,1.948,0.981,2.304
						c0.895,0.332,1.753-0.13,2.142-1.162c0.628-1.668,1.186-3.366,1.892-5c1.246-2.884,3.384-5.06,5.738-7.077
						c3.648-3.125,7.275-6.278,10.828-9.509c2.837-2.58,4.586-5.864,5.482-9.571c1.332-5.515,2.589-11.049,3.876-16.576
						c0.717-3.08,1.545-6.128,2.903-8.997c0.974-2.057,2.14-3.993,3.934-5.471C61.163,12.926,62.252,12.409,62.861,12.416z"/>
					<path fill="#9B9B9B" d="M55.092,28.054c2.091,0.484,2.978,1.882,3.136,3.858c0.047,0.594,0.061,1.193,0.159,1.778
						c0.18,1.079,0.393,2.155,0.639,3.221c0.04,0.173,0.312,0.408,0.484,0.415c1.003,0.04,2.009,0.019,3.148,0.019
						c-1.273-1.983-1.086-4.175-1.373-6.28c-0.315-2.313-1.397-4.187-3.469-5.397c-0.118-0.069-0.237-0.139-0.361-0.197
						c-1.244-0.587-1.639-0.415-1.983,0.889C55.327,26.908,55.223,27.465,55.092,28.054z"/>
					<path fill="#9B9B9B" d="M67.336,18.231c-0.466,0-0.873-0.026-1.272,0.016c-0.117,0.012-0.255,0.203-0.309,0.341
						c-0.054,0.14-0.016,0.316-0.016,0.476c0,5.835-0.003,11.669,0.007,17.504c0,0.249,0.078,0.695,0.18,0.714
						c0.416,0.075,0.86,0.049,1.281-0.018c0.074-0.012,0.123-0.402,0.124-0.617c0.007-3.569,0.005-7.139,0.005-10.708
						c0-2.288,0-4.576,0-6.864C67.336,18.826,67.336,18.578,67.336,18.231z"/>
				</g>
				<rect x="61.899" y="94.749" fill="#9B9B9B" width="13.192" height="36.064"/>
			</g>
			<rect x="-10.863" y="105.117" clip-path="url(#SVGID_14_)" fill="#CCCCCC" width="175.618" height="30.843"/>
		</g>
	</g>
</g>
</svg>
