<?xml version="1.0" encoding="utf-8"?>
<!-- Generator: Adobe Illustrator 17.0.0, SVG Export Plug-In . SVG Version: 6.00 Build 0)  -->
<!DOCTYPE svg PUBLIC "-//W3C//DTD SVG 1.1//EN" "http://www.w3.org/Graphics/SVG/1.1/DTD/svg11.dtd">
<svg version="1.1" id="Layer_1" xmlns="http://www.w3.org/2000/svg" xmlns:xlink="http://www.w3.org/1999/xlink" x="0px" y="0px"
	 width="136.222px" height="115px" viewBox="0 0 136.222 115" enable-background="new 0 0 136.222 115" xml:space="preserve">
<g>
	<g>
		<defs>
			<rect id="SVGID_1141_" x="-159.356" y="189.516" width="130" height="115"/>
		</defs>
		<clipPath id="SVGID_2_">
			<use xlink:href="#SVGID_1141_"  overflow="visible"/>
		</clipPath>
		<g clip-path="url(#SVGID_2_)">
		</g>
	</g>
</g>
<g>
	<defs>
		<rect id="SVGID_1401_" x="0" y="0" width="136.222" height="115"/>
	</defs>
	<clipPath id="SVGID_4_">
		<use xlink:href="#SVGID_1401_"  overflow="visible"/>
	</clipPath>
	<g clip-path="url(#SVGID_4_)">
		<g>
			<g>
				<defs>
					<polygon id="SVGID_1403_" points="-0.356,-1.484 -0.356,124.516 80.39,124.516 110.124,-1.484 					"/>
				</defs>
				<clipPath id="SVGID_6_">
					<use xlink:href="#SVGID_1403_"  overflow="visible"/>
				</clipPath>
			</g>
			<g>
				<defs>
					<polygon id="SVGID_1405_" points="-1.356,-0.484 -1.356,117.516 135.935,117.516 136.053,-0.484 					"/>
				</defs>
				<clipPath id="SVGID_8_">
					<use xlink:href="#SVGID_1405_"  overflow="visible"/>
				</clipPath>
				<polygon opacity="0.3" clip-path="url(#SVGID_8_)" fill="#B2E9FF" points="-1.356,-2.484 -1.356,124.516 138.304,124.516 
					136.853,-2.484 				"/>
				<g clip-path="url(#SVGID_8_)">
					<defs>
						<polyline id="SVGID_1407_" points="12.644,124.516 140.359,124.516 140.285,-14.484 12.644,-14.484 						"/>
					</defs>
					<clipPath id="SVGID_10_">
						<use xlink:href="#SVGID_1407_"  overflow="visible"/>
					</clipPath>
				</g>
			</g>
		</g>
		<g>
			<defs>
				<polygon id="SVGID_1409_" points="-1.356,1.516 -1.356,119.516 135.935,119.516 135.45,1.516 				"/>
			</defs>
			<clipPath id="SVGID_12_">
				<use xlink:href="#SVGID_1409_"  overflow="visible"/>
			</clipPath>
		</g>
		<g>
			<defs>
				<polygon id="SVGID_1411_" points="-1.356,-0.484 -1.356,119.516 138.304,119.516 136.853,-0.484 				"/>
			</defs>
			<clipPath id="SVGID_14_">
				<use xlink:href="#SVGID_1411_"  overflow="visible"/>
			</clipPath>
			<g clip-path="url(#SVGID_14_)">
				<g>
					<path fill="#00608B" d="M23.993,82.997c2.967,2.254,6.291,3.282,10.021,2.915c4.911-0.483,8.603-2.648,10.882-7.241
						c0.923-1.86,1.586-3.58,1.889-5.692c0.461-3.21-1.263-5.631-1.964-8.408c1.157,0.3,1.335,1.481,2.001,2.222
						c2.614,3.684,2.443,7.767,1.658,11.916c-0.093,0.491-0.526,0.918-0.802,1.375c-0.979,1.516-1.958,3.031-2.937,4.547
						c-2.392,1.851-4.957,3.233-8.055,3.581C31.997,88.74,26.891,87.204,23.993,82.997z"/>
					<path fill="#0075A9" d="M44.82,64.571c-0.744-1.685-2.555-2.446-3.458-3.994c-1.62-1.512-3.669-2.067-5.74-2.575
						c-1.942,0.003-3.884,0.006-5.826,0.009c-2.856,0.829-5.495,2.124-7.518,4.312c-3.689,3.989-4.727,8.748-3.136,13.89
						c0.837,2.704,2.16,5.294,4.852,6.784c2.967,2.254,6.291,3.282,10.021,2.915c4.911-0.483,8.603-2.647,10.882-7.24
						c0.923-1.86,1.586-3.58,1.889-5.692C47.245,69.769,45.521,67.348,44.82,64.571z"/>
					<g>
						
							<line fill="none" stroke="#CCCCCC" stroke-width="2" stroke-linecap="round" stroke-miterlimit="10" x1="32.652" y1="67.24" x2="32.652" y2="75.618"/>
						
							<line fill="none" stroke="#CCCCCC" stroke-width="2" stroke-linecap="round" stroke-miterlimit="10" x1="36.81" y1="71.429" x2="28.495" y2="71.429"/>
					</g>
				</g>
				<g opacity="0.6">
					<path fill="#CCCCCC" d="M105.027,100.894C92.109,89.288,79.185,77.69,66.279,66.071c-5.006-4.507-5.318-8.742-0.779-13.832
						c10.715-12.016,21.528-23.944,32.303-35.907c5.206-5.78,10.361-11.606,15.636-17.322c5.065-5.489,9.958-5.696,15.45-0.762
						c11.977,10.759,23.933,21.541,35.888,32.323c1.195,1.077,2.642,1.953,3.128,3.647c-1.998,3.155-1.8,7.076-4.627,10.143
						c-15.794,17.13-31.312,34.515-46.856,51.874C113.315,99.703,109.774,101.66,105.027,100.894z M116.232,49.317
						c6.539-7.258,13.094-14.501,19.6-21.789c1.147-1.284,3.232-2.903,1.538-4.548c-2.097-2.036-3.517,0.507-4.743,1.86
						c-13.116,14.481-26.192,29-39.234,43.548c-1.1,1.227-3.248,2.67-1.122,4.471c2.078,1.76,3.215-0.578,4.321-1.788
						C103.182,63.858,109.695,56.576,116.232,49.317z M132.073,64.244c3.343-3.706,3.227-7.428-0.146-10.645
						c-3.074-2.932-6.96-2.639-9.928,0.75c-3.055,3.487-2.6,6.883,1.091,10.332C126.479,67.848,129.434,67.642,132.073,64.244z
						 M79.447,61.856c3.379,3.562,6.658,2.818,9.757-0.339c3.174-3.232,3.11-6.877-0.043-9.925
						c-3.254-3.146-6.882-3.162-9.938-0.046C75.878,54.957,75.956,58.557,79.447,61.856z M97.423,41.518
						c3.469,3.087,7.143,3.037,9.927-0.133c3.057-3.482,2.863-7.34-0.525-10.415c-3.339-3.03-6.599-2.774-9.764,0.767
						C93.881,35.296,93.999,38.472,97.423,41.518z M104.965,84.841c3.326,3.641,6.467,2.247,9.4-0.932
						c3.018-3.273,2.7-7.313-0.861-10.339c-3.08-2.617-6.227-2.52-9.088,0.348C101.029,77.314,101.221,81.454,104.965,84.841z
						 M150.351,33.691c-3.335-3.057-7.336-2.811-10.394,0.763c-2.663,3.111-2.5,6.273,0.381,9.139
						c3.303,3.285,7.459,3.167,10.442-0.083C153.937,40.07,153.949,36.813,150.351,33.691z M115.272,21.062
						c3.462,3.261,7.114,3.422,9.995,0.439c3.097-3.206,3.251-7.399,0.369-10.089c-3.249-3.034-7.236-3.111-10.091-0.194
						C112.206,14.63,112.11,18.083,115.272,21.062z"/>
					<path fill="#9B9B9B" d="M105.027,100.894c4.748,0.766,8.288-1.191,11.394-4.659c15.544-17.359,31.062-34.744,46.856-51.874
						c2.828-3.067,2.629-6.988,4.627-10.143c3.251,4.188,1.478,7.914-1.421,11.156c-16.331,18.263-32.727,36.468-49.201,54.603
						C113.432,104.215,109.524,104.324,105.027,100.894z"/>
					<path opacity="0.2" fill="#CCCCCC" d="M132.073,64.244c-2.639,3.398-5.594,3.604-8.983,0.437
						c-3.691-3.449-4.146-6.845-1.091-10.332c2.969-3.389,6.854-3.682,9.928-0.75C135.3,56.816,135.416,60.538,132.073,64.244z"/>
					<path opacity="0.2" fill="#CCCCCC" d="M79.447,61.856c-3.491-3.299-3.569-6.899-0.225-10.31c3.056-3.116,6.685-3.1,9.938,0.046
						c3.153,3.048,3.217,6.693,0.043,9.925C86.105,64.674,82.826,65.418,79.447,61.856z"/>
					<path opacity="0.2" fill="#CCCCCC" d="M97.423,41.518c-3.424-3.047-3.542-6.222-0.362-9.781
						c3.164-3.541,6.425-3.798,9.764-0.767c3.388,3.075,3.583,6.933,0.525,10.415C104.566,44.555,100.892,44.605,97.423,41.518z"/>
					<path opacity="0.2" fill="#CCCCCC" d="M104.965,84.841c-3.743-3.387-3.935-7.527-0.549-10.923
						c2.861-2.869,6.008-2.966,9.088-0.348c3.561,3.026,3.879,7.067,0.861,10.339C111.432,87.088,108.291,88.482,104.965,84.841z"/>
					<path opacity="0.3" fill="#CCCCCC" d="M115.272,21.062c-3.162-2.979-3.067-6.432,0.273-9.845
						c2.855-2.917,6.842-2.84,10.091,0.194c2.881,2.691,2.728,6.883-0.369,10.089C122.386,24.483,118.734,24.323,115.272,21.062z"/>
				</g>
				<g>
					<path fill="#00608B" d="M87.148,92.961c-7.367,5.652-18.556,3.489-23.117-4.67c-3.63-6.495-6.948-13.165-10.404-19.757
						c0.742-0.399,1.483-0.799,2.225-1.199c3.133,5.855,6.305,11.689,9.38,17.573c1.252,2.395,3.186,4.005,5.404,5.384
						c1.192,0.741,2.399,0.953,3.21-0.388c0.727-1.201-0.004-2.071-1.037-2.799c-1.462-1.03-2.917-2.046-3.788-3.741
						c-3.085-6.005-6.246-11.971-9.378-17.951c5.789-3.012,11.578-6.024,17.367-9.036c3.421,6.48,6.777,12.996,10.287,19.427
						c2.469,4.524,2.067,9.074,0.475,13.663C87.369,90.631,86.546,91.644,87.148,92.961z"/>
					<path fill="#0075A9" d="M55.852,67.335c-0.741,0.4-1.483,0.8-2.224,1.199c-3.6-6.768-7.335-13.468-10.761-20.323
						c-3.651-7.305-0.353-17.225,7.431-20.619c0.885,0.095,1.774,0.161,2.654,0.289c6.43,0.934,11.367,3.814,14.3,9.974
						c2.788,5.855,6.05,11.485,9.103,17.214c-5.466,3.615-10.943,7.21-17.293,9.154c-3.182-5.936-6.368-11.871-9.544-17.81
						c-1.112-2.081-0.954-4.281-0.491-6.477c0.204-0.967,0.544-1.911,0.88-2.844c0.474-1.314,0.37-2.518-0.953-3.169
						c-1.542-0.758-2.003,0.335-2.618,1.576c-2.205,4.457-2.412,8.88-0.132,13.32C49.382,55.01,52.632,61.164,55.852,67.335z"/>
					<path fill="#0075A9" d="M87.148,92.961c-0.602-1.316,0.221-2.33,0.624-3.493c1.592-4.59,1.994-9.139-0.475-13.663
						c-3.51-6.431-6.865-12.947-10.287-19.427c1.792-0.847,3.171-3.008,5.619-1.765c3.095,5.837,6.265,11.637,9.268,17.522
						C95.839,79.858,93.94,87.941,87.148,92.961z"/>
					<path fill="#00608B" d="M76.355,55.068c-3.053-5.729-6.315-11.359-9.103-17.214c-2.933-6.16-7.87-9.04-14.3-9.974
						c-0.88-0.128-1.769-0.194-2.654-0.289c0.622-0.3,1.244-0.6,1.866-0.9c1.237,0.141,2.41-0.098,3.536-0.606
						c4.877-0.493,9.374,0.179,12.789,4.171c3.252,6.13,6.505,12.26,9.754,18.392C80.481,52.875,80.478,52.876,76.355,55.068z"/>
					<path fill="#00608B" d="M76.355,55.068c4.123-2.192,4.127-2.194,1.888-6.42c-3.248-6.132-6.502-12.262-9.754-18.392
						c1.838,0.514,2.53,2.164,3.292,3.594c3.674,6.89,7.243,13.837,10.848,20.763c-2.448-1.244-3.828,0.917-5.619,1.764
						c-5.789,3.012-11.578,6.024-17.367,9.036c-0.194-0.397-0.388-0.794-0.582-1.191C65.412,62.278,70.888,58.683,76.355,55.068z"/>
				</g>
			</g>
		</g>
	</g>
</g>
</svg>
