<?xml version="1.0" encoding="utf-8"?>
<!-- Generator: Adobe Illustrator 17.0.0, SVG Export Plug-In . SVG Version: 6.00 Build 0)  -->
<!DOCTYPE svg PUBLIC "-//W3C//DTD SVG 1.1//EN" "http://www.w3.org/Graphics/SVG/1.1/DTD/svg11.dtd">
<svg version="1.1" id="Layer_1" xmlns="http://www.w3.org/2000/svg" xmlns:xlink="http://www.w3.org/1999/xlink" x="0px" y="0px"
	 width="581.238px" height="253.981px" viewBox="0 0 581.238 253.981" enable-background="new 0 0 581.238 253.981"
	 xml:space="preserve">
<rect x="38.789" y="20.191" fill="#FFFFFF" stroke="#4D4D4D" stroke-miterlimit="10" width="519" height="204"/>
<g>
	<defs>
		<polygon id="SVGID_2051_" points="37.783,18.93 37.783,224.411 216.959,224.411 272.377,19.888 		"/>
	</defs>
	<clipPath id="SVGID_2_">
		<use xlink:href="#SVGID_2051_"  overflow="visible"/>
	</clipPath>
	<g clip-path="url(#SVGID_2_)">
		<defs>
			<rect id="SVGID_2053_" x="-83.695" y="-1844.685" width="1923.24" height="3789.385"/>
		</defs>
		<clipPath id="SVGID_4_">
			<use xlink:href="#SVGID_2053_"  overflow="visible"/>
		</clipPath>
		<g clip-path="url(#SVGID_4_)" enable-background="new    ">
			<g>
				<defs>
					<rect id="SVGID_2055_" x="37.509" y="18.454" width="235.397" height="206.348"/>
				</defs>
				<clipPath id="SVGID_6_">
					<use xlink:href="#SVGID_2055_"  overflow="visible"/>
				</clipPath>
				<g clip-path="url(#SVGID_6_)">
					<defs>
						<rect id="SVGID_2057_" x="37.509" y="18.454" width="235.397" height="206.348"/>
					</defs>
					<clipPath id="SVGID_7_">
						<use xlink:href="#SVGID_2057_"  overflow="visible"/>
					</clipPath>
					<polygon clip-path="url(#SVGID_7_)" fill-rule="evenodd" clip-rule="evenodd" fill="#DEEBC5" points="37.783,18.93 
						37.783,224.411 216.959,224.411 272.377,19.888 					"/>
				</g>
				<g clip-path="url(#SVGID_6_)">
					<defs>
						<polygon id="SVGID_2059_" points="37.783,18.93 37.783,224.411 216.959,224.411 272.377,19.888 						"/>
					</defs>
					<clipPath id="SVGID_8_">
						<use xlink:href="#SVGID_2059_"  overflow="visible"/>
					</clipPath>
					<g clip-path="url(#SVGID_8_)">
						<defs>
							<rect id="SVGID_2061_" x="37.509" y="18.454" width="235.397" height="206.348"/>
						</defs>
						<clipPath id="SVGID_9_">
							<use xlink:href="#SVGID_2061_"  overflow="visible"/>
						</clipPath>
						<polygon clip-path="url(#SVGID_9_)" fill="none" stroke="#96B008" stroke-width="2" stroke-miterlimit="10" points="
							37.783,18.93 37.783,224.411 216.959,224.411 272.377,19.888 						"/>
					</g>
				</g>
				<g clip-path="url(#SVGID_6_)">
					<defs>
						<path id="SVGID_2063_" d="M147.571,218.077c0.567,1.701,1.134,3.402,1.65,5.117c7.382-0.027,14.725-0.024,22.044,0.229
							c-0.073-0.534-0.129-1.07-0.204-1.604c-0.451-3.21-0.918-6.419-1.483-9.611c-0.761-4.297-1.606-8.579-2.93-12.75
							c-1.104-3.476-2.656-6.775-4.05-10.132c-1.515-3.647-2.923-7.353-4.836-10.819c-0.627-1.136-0.964-2.529-2.187-3.252
							c-1.114-0.659-2.285-1.22-3.423-1.838c-1.413-0.767-2.817-1.548-4.224-2.323c-0.35-0.107-0.7-0.213-1.05-0.32
							c-0.444,2.962-0.899,5.923-1.33,8.887c-0.513,3.524-0.846,7.072-0.971,10.626c-0.228,6.477,0.005,12.944,1.04,19.356
							C146.077,212.495,146.656,215.335,147.571,218.077"/>
					</defs>
					<use xlink:href="#SVGID_2063_"  overflow="visible" fill-rule="evenodd" clip-rule="evenodd" fill="#A6C93E"/>
					<clipPath id="SVGID_10_">
						<use xlink:href="#SVGID_2063_"  overflow="visible"/>
					</clipPath>
					<g clip-path="url(#SVGID_10_)">
						<defs>
							<rect id="SVGID_2065_" x="37.509" y="18.454" width="235.397" height="206.348"/>
						</defs>
						<use xlink:href="#SVGID_2065_"  overflow="visible" fill="#A6C93E"/>
						<clipPath id="SVGID_11_">
							<use xlink:href="#SVGID_2065_"  overflow="visible"/>
						</clipPath>
						<rect x="139.488" y="165.767" clip-path="url(#SVGID_11_)" fill="#A6C93E" width="36.785" height="62.665"/>
					</g>
				</g>
				<g clip-path="url(#SVGID_6_)">
					<defs>
						<path id="SVGID_2067_" d="M90.431,111.476c2.873-0.562,19.559-1.824,22.26-2.963c0.553-0.139,0.987,0.205,1.43,0.407
							c2.95,1.343,6.004,2.371,9.153,3.127c0.171,0.041,0.389,0.038,0.479,0.252c-1.41-0.039-2.644,0.71-4.003,0.896
							c-0.311,0.043-0.626,0.06-0.939,0.089c-2.016-0.396-17.915-0.334-19.932-0.722c-2.647-0.508-5.319-0.822-8.012-0.946
							C90.72,111.61,90.577,111.525,90.431,111.476"/>
					</defs>
					<clipPath id="SVGID_12_">
						<use xlink:href="#SVGID_2067_"  overflow="visible"/>
					</clipPath>
					<g clip-path="url(#SVGID_12_)">
						<defs>
							<rect id="SVGID_2069_" x="37.509" y="18.454" width="235.397" height="206.348"/>
						</defs>
						<clipPath id="SVGID_13_">
							<use xlink:href="#SVGID_2069_"  overflow="visible"/>
						</clipPath>
						<rect x="85.423" y="103.472" clip-path="url(#SVGID_13_)" fill="#5F7D23" width="43.339" height="14.82"/>
					</g>
				</g>
				<g clip-path="url(#SVGID_6_)">
					<defs>
						<rect id="SVGID_2071_" x="111.502" y="155.756" width="36.666" height="67.912"/>
					</defs>
					<clipPath id="SVGID_14_">
						<use xlink:href="#SVGID_2071_"  overflow="visible"/>
					</clipPath>
					<g clip-path="url(#SVGID_14_)">
						<defs>
							<rect id="SVGID_2073_" x="37.509" y="18.454" width="235.397" height="206.348"/>
						</defs>
						<clipPath id="SVGID_15_">
							<use xlink:href="#SVGID_2073_"  overflow="visible"/>
						</clipPath>
						<g clip-path="url(#SVGID_15_)" enable-background="new    ">
							<g>
								<defs>
									<rect id="SVGID_2075_" x="110.632" y="155.686" width="38.064" height="68.115"/>
								</defs>
								<clipPath id="SVGID_16_">
									<use xlink:href="#SVGID_2075_"  overflow="visible"/>
								</clipPath>
								<g clip-path="url(#SVGID_16_)">
									<defs>
										<path id="SVGID_2077_" d="M147.77,169.5c-1.121-0.601-2.243-1.202-3.37-1.792c-0.326-0.17-0.634-0.334-0.554-0.777
											c0.395-2.178-0.519-3.951-1.734-5.632c-0.096-0.179-0.192-0.357-0.287-0.536c-0.335-0.124-0.581-0.337-0.68-0.694
											c-0.382-0.165-0.668-0.429-0.839-0.813c-0.098-0.058-0.196-0.117-0.293-0.175c-0.692-0.326-1.255-0.816-1.758-1.383
											l-0.078,0.011l-0.076-0.02c-0.135,0.021-0.209-0.05-0.255-0.166c-0.903-0.568-1.807-1.135-2.81-1.766
											c0.103,0.995,0.232,1.851,0.643,2.643c0.837,0.189,1.189,0.922,1.618,1.525c0.609,0.855,1.03,1.812,1.333,2.828
											c0.511,1.706,0.334,2.235-1.297,3.532c-4.87,5.841-9.737,11.683-14.61,17.52c-0.934,1.117-0.885,2.553-1.25,3.845
											c-0.664,2.352-1.18,4.745-1.757,7.12c-0.103,0.659-0.046,1.354-0.443,1.945l-0.501,2.07
											c0.022,0.438-0.077,0.846-0.303,1.223c-0.158,0.741-0.315,1.481-0.473,2.222c0.018,0.122-0.036,0.193-0.155,0.219
											c-0.088,0.583-0.103,1.181-0.376,1.723l-0.202,1.157c-0.33,1.379-0.66,2.758-0.99,4.136
											c0.05,0.365-0.214,0.367-0.463,0.458c-0.981,0.356-1.949,0.752-2.923,1.128c-0.348,0.134-0.575,0.307-0.603,0.746
											c-0.092,1.487-0.31,2.97-0.34,4.457c-0.05,2.451-0.253,4.891-0.441,7.333c3.553-0.033,7.103-0.016,10.651,0.084
											c0.653-0.022,1.305-0.042,1.959-0.054c0.077-1.532,0.152-3.064,0.241-4.596c0.105-1.823,0.132-1.837,2.006-1.655
											c3.814,0.372,7.622,0.787,11.421,1.294c1.193,0.16,2.406,0.161,3.608,0.252c0.636,0.048,0.908-0.18,0.933-0.86
											c0.097-2.633,0.2-5.269,0.389-7.896c0.197-2.726,0.234-5.458,0.386-8.185c0.254-4.538,0.504-9.072,0.616-13.618
											c0.063-2.581,0.641-5.152,1.29-7.676c0.598-2.329,1.063-4.698,1.765-6.995c0.357-1.166,0.583-2.415,1.28-3.461
											C148.332,169.79,148.06,169.655,147.77,169.5 M139.499,201.757c-0.098,0.027-0.197,0.053-0.295,0.08
											c-3.795-6.179-8.104-11.961-13.154-17.174l0.168-0.168c0.829,0.645,1.682,1.262,2.482,1.941
											c2.503,2.125,5.186,4.034,7.58,6.296c0.767,0.725,1.362,1.596,2.148,2.294c0.183,0.162,0.342,0.431,0.64,0.281
											c0.245-0.122,0.148-0.39,0.182-0.602c0.611-3.881,1.229-7.76,1.833-11.643c0.541-3.475,1.05-6.956,1.607-10.428
											c0.194-1.213,0.212-2.46,0.593-3.641c0.08,0.003,0.16,0.005,0.241,0.007C142.183,179.918,140.841,190.837,139.499,201.757
											"/>
									</defs>
									<use xlink:href="#SVGID_2077_"  overflow="visible" fill-rule="evenodd" clip-rule="evenodd" fill="#A6C93E"/>
									<clipPath id="SVGID_17_">
										<use xlink:href="#SVGID_2077_"  overflow="visible"/>
									</clipPath>
									<g clip-path="url(#SVGID_17_)">
										<defs>
											<rect id="SVGID_2079_" x="110.632" y="155.686" width="38.064" height="68.115"/>
										</defs>
										<use xlink:href="#SVGID_2079_"  overflow="visible" fill="#A6C93E"/>
										<clipPath id="SVGID_18_">
											<use xlink:href="#SVGID_2079_"  overflow="visible"/>
										</clipPath>
										<rect x="106.493" y="150.747" clip-path="url(#SVGID_18_)" fill="#A6C93E" width="46.683" height="77.93"/>
									</g>
								</g>
							</g>
						</g>
					</g>
				</g>
				<g clip-path="url(#SVGID_6_)">
					<defs>
						<path id="SVGID_2081_" d="M73.184,223.126c0.261-3.285,0.284-6.588,0.578-9.865c0.38-4.231-0.394-8.324-0.623-12.479
							c-0.112-2.028-0.265-4.053-0.407-6.079c-0.15-2.153-0.373-4.302-0.372-6.464c0-0.192-0.011-0.384,0.003-0.573
							c0.028-0.375,0.027-0.926,0.367-0.989c0.437-0.082,0.46,0.494,0.616,0.819c0.055,0.115,0.088,0.246,0.164,0.343
							c1.503,1.924,1.451,4.251,1.75,6.507c0.391,2.953,0.609,5.924,1.055,8.872c0.321,2.129,0.461,4.287,0.623,6.437
							c0.064,0.853,0.334,1.692,0.192,2.56c0.244,2.501,0.493,5.001,0.732,7.501c0.107,1.117,0.211,2.234,0.314,3.351
							c4.678-0.002,9.379,0.133,14.155,0.374c6.063,0.307,12.131,0.21,18.194,0.15c0.081-1.196,0.161-2.392,0.249-3.587
							c0.17-2.309,0.345-4.617,0.545-6.923c0.143-1.65-0.599-3.027-1.321-4.399c-0.329-0.627-1.152-1.191-1.123-1.751
							c0.026-0.497,0.951-0.921,1.424-1.428c0.932-1,1.608-2.164,2.047-3.462c-0.808-1.213-1.615-2.427-2.423-3.64
							c-1.517-2.282-1.205-4.655-0.319-7.038c0.499-1.339,1.028-2.669,1.607-3.976c0.213-0.479,0.219-0.871,0.037-1.345
							c-2.161-5.605-4.204-11.259-6.508-16.804c-0.969-2.332-1.169-4.557-0.586-6.938c0.083-0.337,0.084-0.693,0.123-1.041
							c-3.213,3.34-6.453,6.654-9.622,10.035c-0.96,1.024-2.243,1.274-3.417,1.759c-6.829,2.82-13.684,5.577-20.527,8.36
							c-0.23,0.093-0.435,0.246-0.651,0.37c-1.278,3.537-1.152,7.299-1.751,10.944c-0.281,2.379-0.56,4.758-0.839,7.137
							c-0.107,1.561-0.08,3.139-0.55,4.657c-0.153,1.013-0.056,2.055-0.339,3.054c-0.093,2.057-0.453,4.083-0.712,6.119
							c-0.311,2.442-0.651,4.88-0.973,7.32c-0.071,0.532-0.117,1.067-0.355,1.559c0.008,0.32-0.007,0.636-0.033,0.951
							C67.406,223.329,70.294,223.193,73.184,223.126 M95.683,171.84c0.056,0.006,0.111,0.012,0.166,0.018
							c-0.415,6.72-0.829,13.44-1.261,20.443c4.645-3.65,9.646-6.173,15.172-7.673c-7.15,2.359-12.234,7.673-17.923,12.579
							C93.148,188.565,94.415,180.202,95.683,171.84"/>
					</defs>
					<use xlink:href="#SVGID_2081_"  overflow="visible" fill-rule="evenodd" clip-rule="evenodd" fill="#A6C93E"/>
					<clipPath id="SVGID_20_">
						<use xlink:href="#SVGID_2081_"  overflow="visible"/>
					</clipPath>
					<g clip-path="url(#SVGID_20_)">
						<defs>
							<rect id="SVGID_2083_" x="37.509" y="18.454" width="235.397" height="206.348"/>
						</defs>
						<use xlink:href="#SVGID_2083_"  overflow="visible" fill="#A6C93E"/>
						<clipPath id="SVGID_22_">
							<use xlink:href="#SVGID_2083_"  overflow="visible"/>
						</clipPath>
						<rect x="59.502" y="156.251" clip-path="url(#SVGID_22_)" fill="#A6C93E" width="57.854" height="72.413"/>
					</g>
				</g>
				<g clip-path="url(#SVGID_6_)">
					<defs>
						<path id="SVGID_2085_" d="M46.936,191.343c0.131-0.097,0.262-0.195,0.393-0.293c1.549-0.441,2.881-1.45,4.5-1.831"/>
					</defs>
					<clipPath id="SVGID_23_">
						<use xlink:href="#SVGID_2085_"  overflow="visible"/>
					</clipPath>
					<g clip-path="url(#SVGID_23_)">
						<defs>
							<rect id="SVGID_2087_" x="37.509" y="18.454" width="235.397" height="206.348"/>
						</defs>
						<clipPath id="SVGID_24_">
							<use xlink:href="#SVGID_2087_"  overflow="visible"/>
						</clipPath>
						<rect x="41.927" y="184.21" clip-path="url(#SVGID_24_)" fill="#1C581D" width="14.91" height="12.141"/>
					</g>
				</g>
				<g clip-path="url(#SVGID_6_)">
					<defs>
						<path id="SVGID_2089_" d="M118.615,127.065c-0.046,0.018-0.091,0.037-0.137,0.056c0.048,0.045,0.097,0.09,0.146,0.135
							c0.661,0.66,1.578,0.787,2.385,1.14c0.165,0.071,0.374,0.045,0.446-0.195c0.805,0.494,1.65,0.754,2.592,0.444
							c0.331,0.28,0.693,0.088,1.044,0.071c0.253,0.27-0.047,0.375-0.16,0.534c-0.104,0.146-0.357,0.25-0.264,0.454
							c0.132,0.288,0.372,0.065,0.576,0.059c0.812-0.022,1.544-0.318,2.274-0.618c0.753-0.31,0.951-0.928,0.607-1.766
							c0.193-0.276,0.211-0.511,0.073-0.868c-0.416-1.077-1.093-1.492-2.275-1.725c-2.06-0.405-3.952-0.314-5.802,0.66
							c-0.139,0.073-0.266,0.21-0.408,0.226c-1.007,0.113-1.152,0.292-1.074,1.406L118.615,127.065z"/>
					</defs>
					<clipPath id="SVGID_25_">
						<use xlink:href="#SVGID_2089_"  overflow="visible"/>
					</clipPath>
					<g clip-path="url(#SVGID_25_)">
						<defs>
							<rect id="SVGID_2091_" x="37.509" y="18.454" width="235.397" height="206.348"/>
						</defs>
						<clipPath id="SVGID_26_">
							<use xlink:href="#SVGID_2091_"  overflow="visible"/>
						</clipPath>
						<rect x="113.47" y="119.549" clip-path="url(#SVGID_26_)" fill="#AB977A" width="19.826" height="15.31"/>
					</g>
				</g>
				<g clip-path="url(#SVGID_6_)">
					<defs>
						<path id="SVGID_2093_" d="M119.573,128.379l-0.105-0.071c0.024,0.035,0.048,0.069,0.071,0.105
							c0.443,1.454,2.279,2.651,3.741,2.496c0.433-0.046,0.501-0.309,0.604-0.609c0.088-0.254-0.039-0.35-0.268-0.369
							C122.117,129.808,120.858,129.062,119.573,128.379"/>
					</defs>
					<clipPath id="SVGID_27_">
						<use xlink:href="#SVGID_2093_"  overflow="visible"/>
					</clipPath>
					<g clip-path="url(#SVGID_27_)">
						<defs>
							<rect id="SVGID_2095_" x="37.509" y="18.454" width="235.397" height="206.348"/>
						</defs>
						<clipPath id="SVGID_28_">
							<use xlink:href="#SVGID_2095_"  overflow="visible"/>
						</clipPath>
						<rect x="114.459" y="123.299" clip-path="url(#SVGID_28_)" fill="#AB977A" width="14.462" height="12.631"/>
					</g>
				</g>
				<g clip-path="url(#SVGID_6_)">
					<defs>
						<path id="SVGID_2097_" d="M99.87,126.475c-0.065,0.079-0.13,0.158-0.196,0.237c-0.122,0.251-0.281,0.491-0.355,0.756
							c-0.077,0.275-0.041,0.285,0.415,0.298c1.006,1.411,2.467,1.69,4.061,1.64c0.795,0.1,1.553,0.006,2.251-0.418
							c1.129,0.033,2.076-0.416,2.925-1.119c0.458-0.132,0.206-0.384,0.103-0.61c-0.006-0.626-0.361-1.049-0.791-1.453
							c-1.116-1.046-2.49-1.478-3.953-1.617c-2.057-0.195-3.82,0.744-4.462,2.279L99.87,126.475z"/>
					</defs>
					<clipPath id="SVGID_29_">
						<use xlink:href="#SVGID_2097_"  overflow="visible"/>
					</clipPath>
					<g clip-path="url(#SVGID_29_)">
						<defs>
							<rect id="SVGID_2099_" x="37.509" y="18.454" width="235.397" height="206.348"/>
						</defs>
						<clipPath id="SVGID_30_">
							<use xlink:href="#SVGID_2099_"  overflow="visible"/>
						</clipPath>
						<rect x="94.28" y="119.155" clip-path="url(#SVGID_30_)" fill="#AB977A" width="19.966" height="15.295"/>
					</g>
				</g>
				<g clip-path="url(#SVGID_6_)">
					<defs>
						<path id="SVGID_2101_" d="M100.589,130.074c0.976,1.385,3.191,1.84,5.132,1.207c1.472-0.481,2.401-1.355,2.387-2.348
							C105.851,130.695,103.346,130.855,100.589,130.074"/>
					</defs>
					<clipPath id="SVGID_31_">
						<use xlink:href="#SVGID_2101_"  overflow="visible"/>
					</clipPath>
					<g clip-path="url(#SVGID_31_)">
						<defs>
							<rect id="SVGID_2103_" x="37.509" y="18.454" width="235.397" height="206.348"/>
						</defs>
						<clipPath id="SVGID_32_">
							<use xlink:href="#SVGID_2103_"  overflow="visible"/>
						</clipPath>
						<rect x="95.58" y="123.925" clip-path="url(#SVGID_32_)" fill="#AB977A" width="17.536" height="12.645"/>
					</g>
				</g>
				<g clip-path="url(#SVGID_6_)">
					<defs>
						<path id="SVGID_2105_" d="M115.358,207.421c-0.6-1.209-1.129-2.461-1.83-3.607c-0.365-0.598-0.564-1.336-1.18-1.773
							c-0.808-1.213-1.616-2.427-2.423-3.64c-1.517-2.282-1.204-4.654-0.318-7.038c0.498-1.339,1.027-2.669,1.607-3.975
							c0.213-0.48,0.219-0.872,0.036-1.345c-2.161-5.605-4.204-11.26-6.508-16.805c-0.969-2.332-1.169-4.557-0.585-6.938
							c0.082-0.337,0.084-0.694,0.122-1.041c0.5-1.627,1.013-3.251,0.948-4.986c-0.021-0.714-3.367-4.69-3.958-8.209
							c0.141,0.072,0.292,0.129,0.421,0.218c2.088,1.453,3.751,1.454,5.856,0.122c0.707-0.447,1.304-1.124,2.205-1.233
							c2.781,1.219,5.617,1.141,8.484,0.371c0.302-0.024,0.549,0.124,0.805,0.249c3.566,1.738,7.279,2.217,11.155,1.307
							c-0.256,1.793-1.132,3.312-2.15,4.752c-1.604,2.269-3.56,4.19-5.759,5.895c-1.302,1.009-2.802,1.475-4.321,1.832
							c-2.16,0.507-4.332,0.533-6.368-0.64c-0.29-0.167-0.484-0.523-0.998-0.51c0.238,1.204,0.998,2.053,1.846,2.738
							c1.474,1.191,3.291,1.587,5.135,1.766c1.982,0.192,3.966,0.263,5.924,0.738c2.483,0.602,4.177,2.539,4.271,5.141
							c0.003,0.095-0.008,0.192,0.004,0.287c0.274,2.065-0.308,3.754-1.749,5.352c-1.712,1.898-3.11,4.08-4.671,6.118
							c-0.41,0.535-0.495,1.159-0.642,1.765c-0.97,3.994-1.92,7.992-2.876,11.99 M108.724,149.362
							c0.7,0.416,1.214,0.754,1.756,1.038c3.098,1.626,6.13,1.661,9.054-0.424c0.214-0.152,0.68-0.267,0.509-0.574
							c-0.212-0.382-0.549,0.014-0.822,0.101c-0.693,0.222-1.368,0.512-2.071,0.692c-2.217,0.567-4.366,0.076-6.519-0.451
							C110.078,149.609,109.564,149.236,108.724,149.362"/>
					</defs>
					<use xlink:href="#SVGID_2105_"  overflow="visible" fill-rule="evenodd" clip-rule="evenodd" fill="#CBDF8E"/>
					<clipPath id="SVGID_33_">
						<use xlink:href="#SVGID_2105_"  overflow="visible"/>
					</clipPath>
					<g clip-path="url(#SVGID_33_)">
						<defs>
							<rect id="SVGID_2107_" x="37.509" y="18.454" width="235.397" height="206.348"/>
						</defs>
						<use xlink:href="#SVGID_2107_"  overflow="visible" fill="#CBDF8E"/>
						<clipPath id="SVGID_34_">
							<use xlink:href="#SVGID_2107_"  overflow="visible"/>
						</clipPath>
						<rect x="96.261" y="142.163" clip-path="url(#SVGID_34_)" fill="#CBDF8E" width="38.943" height="70.267"/>
					</g>
				</g>
				<g clip-path="url(#SVGID_6_)">
					<defs>
						<path id="SVGID_2109_" d="M109.751,147.171c-0.901,0.109-1.498,0.786-2.205,1.234c-2.105,1.332-3.768,1.331-5.857-0.122
							c-0.128-0.09-0.28-0.146-0.42-0.218c-0.606-0.949-1.466-1.782-1.43-3.031c0.007-0.222-0.149-0.721,0.406-0.358
							c0.469,1.117,1.22,1.999,2.267,2.598c0.797,0.455,1.259,0.19,1.351-0.718c0.205-2.023,1.058-3.697,2.655-4.974
							c0.538-0.212,1.038-0.48,1.407-0.946c0.747-0.458,1.255-0.343,1.874,0.387c1.392,1.641,3.428,1.753,5.031,0.364
							c0.511-0.443,1.045-0.363,1.599-0.383c0.506-0.018,1.013-0.009,1.52-0.012c0.251,0.005,0.501,0.01,0.752,0.016
							c3.344-0.328,5.429,1.589,7.204,4.055c0.444,0.617,0.918,1.217,1.3,1.87c0.837,1.432,2.181,1.374,3.206,0.535
							c0.194-0.158,0.389-0.316,0.583-0.475c0.496-0.006,0.68-0.601,1.168-0.622l0.014,0.011c-0.202,1.24-0.895,2.121-1.98,2.718
							c-3.876,0.91-7.589,0.43-11.155-1.306c-0.255-0.124-0.504-0.273-0.805-0.249c-0.938-0.823-2.078-1.253-3.226-1.666
							c-0.482-0.405-1.084-0.358-1.637-0.352c-0.45,0.004-0.988-0.331-1.366,0.207C111.085,145.945,110.313,146.393,109.751,147.171
							"/>
					</defs>
					<clipPath id="SVGID_35_">
						<use xlink:href="#SVGID_2109_"  overflow="visible"/>
					</clipPath>
					<g clip-path="url(#SVGID_35_)">
						<defs>
							<rect id="SVGID_2111_" x="37.509" y="18.454" width="235.397" height="206.348"/>
						</defs>
						<clipPath id="SVGID_37_">
							<use xlink:href="#SVGID_2111_"  overflow="visible"/>
						</clipPath>
						<rect x="94.816" y="135.355" clip-path="url(#SVGID_37_)" fill="#5F7D23" width="42.368" height="19.203"/>
					</g>
				</g>
				<g clip-path="url(#SVGID_6_)">
					<defs>
						<path id="SVGID_2113_" d="M91.618,89.208c0.382-0.678,1.015-1.264,0.792-2.163c0.161-0.304,0.266-0.608-0.003-0.911
							c0.405-1.019,1.254-1.788,1.599-2.848c0.069-0.211,0.147-0.407,0.138-0.631c0.458-0.147,0.734-0.434,0.717-0.943
							c0.604-0.497,1.393-0.854,1.381-1.82c0.378,0.074,0.722,0.099,0.667-0.458c0.399,0.006,0.721-0.079,0.682-0.585
							c1.21-0.776,2.42-1.552,3.63-2.328c0.851-0.396,1.72-0.739,2.647-0.915c0.535,1.08,0.988,2.212,1.627,3.226
							c0.585,0.928,0.729,2.03,1.309,2.929c1.845,2.857,3.733,5.685,5.598,8.529c4.567,6.961,9.127,13.928,13.706,20.881
							c0.31,0.471,0.507,1.092,1.362,1.364c-0.911-1.398-1.726-2.624-2.518-3.864c-2.849-4.457-5.273-9.134-7.304-14.023
							c-1.589-3.823-2.912-7.737-3.867-11.757c-0.534-2.244-1.404-4.419-1.525-6.757c0.393-1.223,1.052-2.315,1.68-3.422
							c0.894-0.634,1.559-1.541,2.626-1.989c2.383-0.999,4.541-0.378,6.638,0.782c0.615,0.341,1.213,0.687,1.907,0.832
							c-0.006,0.775,0.371,1.45,0.579,2.167c0.48,1.647,1.01,3.281,1.519,4.92c0.994,3.139,1.521,6.431,3.034,9.403
							c-0.378,0.367-0.048,0.724,0.053,1.051c1.535,4.984,3.117,9.953,4.942,14.84c0.664,1.78,1.279,3.581,2.114,5.293
							c-0.033,0.747,0.405,1.315,0.729,1.927c0.036,0.104,0.062,0.218,0.212,0.203l-0.007-0.015
							c0.031,0.184,0.026,0.383,0.098,0.549c1.888,4.337,3.9,8.613,6.326,12.681c0.929,1.557,0.949,1.545-0.119,3.023
							c-0.831,1.085-1.527,2.273-2.475,3.269c0.255-1.438,0.57-2.873,0.504-4.345c-0.114-2.501-0.759-3.206-3.165-3.534
							c-1.39-0.389-2.793-0.736-4.163-1.184c-0.788-0.257-1.629-0.411-2.326-0.913c-0.437-0.282-0.833-0.647-1.39-0.687
							l-0.027-0.021c-0.001-0.204-0.137-0.241-0.3-0.243l-0.015-0.01c-0.032-0.112-0.103-0.156-0.217-0.126
							c-0.69-0.719-1.381-1.438-2.071-2.157c-0.007-0.161-0.054-0.291-0.242-0.309c-0.062-0.079-0.125-0.158-0.188-0.237
							c-0.374-0.641-0.747-1.281-1.121-1.921c-0.509-0.802-1.085-1.572-1.512-2.416c-0.463-0.915-1.175-1.247-2.126-1.245
							c-0.09-0.214-0.308-0.211-0.479-0.252c-3.149-0.756-6.202-1.784-9.153-3.128c-0.443-0.202-0.877-0.545-1.43-0.407
							c-0.026-0.458-0.441-0.494-0.727-0.662c-1.611-0.942-3.299-1.77-4.826-2.833c-5.116-3.563-9.549-7.847-13.257-12.881
							c-0.7-0.949-1.18-2.093-2.22-2.775C91.638,89.312,91.624,89.261,91.618,89.208"/>
					</defs>
					<clipPath id="SVGID_39_">
						<use xlink:href="#SVGID_2113_"  overflow="visible"/>
					</clipPath>
					<g clip-path="url(#SVGID_39_)">
						<defs>
							<rect id="SVGID_2115_" x="37.509" y="18.454" width="235.397" height="206.348"/>
						</defs>
						<clipPath id="SVGID_40_">
							<use xlink:href="#SVGID_2115_"  overflow="visible"/>
						</clipPath>
						<rect x="86.61" y="65.212" clip-path="url(#SVGID_40_)" fill="#5F7D23" width="63.796" height="71.442"/>
					</g>
				</g>
				<g clip-path="url(#SVGID_6_)">
					<defs>
						<path id="SVGID_2117_" d="M95.773,118.239c0.509-1.151,1.533-1.726,2.564-2.293c-0.661,2.24-0.529,4.582-0.927,7.063
							c0.432-0.622,0.717-1.115,1.081-1.541c1.464-1.72,3.301-2.322,5.471-1.651c1.913,0.592,3.718,1.455,5.495,2.375
							c-0.44,0.507-1.142,0.613-1.618,1.064c-1.316-0.314-2.444-1.057-3.608-1.684c-1.819-0.979-3.316-0.599-4.936,0.544
							c-1.498,1.057-2.119,2.276-2.118,4.113c0.001,2.243-0.334,4.487-0.535,6.729c-0.027,0.305-0.066,0.624-0.351,0.918
							c-0.223-1.327-0.51-2.581-0.502-3.896C95.811,126.067,95.781,122.153,95.773,118.239"/>
					</defs>
					<clipPath id="SVGID_41_">
						<use xlink:href="#SVGID_2117_"  overflow="visible"/>
					</clipPath>
					<g clip-path="url(#SVGID_41_)">
						<defs>
							<rect id="SVGID_2119_" x="37.509" y="18.454" width="235.397" height="206.348"/>
						</defs>
						<clipPath id="SVGID_42_">
							<use xlink:href="#SVGID_2119_"  overflow="visible"/>
						</clipPath>
						<rect x="90.764" y="110.938" clip-path="url(#SVGID_42_)" fill="#5F7D23" width="23.701" height="27.947"/>
					</g>
				</g>
				<g clip-path="url(#SVGID_6_)">
					<defs>
						<path id="SVGID_2121_" d="M132.964,121.669c0.697,0.503,1.538,0.656,2.326,0.913c1.371,0.448,2.774,0.795,4.163,1.184
							c-0.421,1.16-0.778,2.337-1.746,3.224c-0.606,0.555-0.663,1.414-0.855,2.176c-0.308,1.228-0.593,2.461-0.897,3.69
							c-0.301,1.217-1.193,1.955-2.189,2.748c-0.128-0.91,0.306-1.639,0.308-2.41c0.01-2.854,0.184-5.696,0.543-8.528
							c0.046-0.362-0.073-0.692-0.414-0.897c-0.312-0.544-0.553-1.157-1.268-1.311l0.004,0.006
							C133.172,122.207,132.221,121.911,132.964,121.669"/>
					</defs>
					<clipPath id="SVGID_43_">
						<use xlink:href="#SVGID_2121_"  overflow="visible"/>
					</clipPath>
					<g clip-path="url(#SVGID_43_)">
						<defs>
							<rect id="SVGID_2123_" x="37.509" y="18.454" width="235.397" height="206.348"/>
						</defs>
						<clipPath id="SVGID_44_">
							<use xlink:href="#SVGID_2123_"  overflow="visible"/>
						</clipPath>
						<rect x="127.666" y="116.661" clip-path="url(#SVGID_44_)" fill="#5F7D23" width="16.795" height="23.952"/>
					</g>
				</g>
				<g clip-path="url(#SVGID_6_)">
					<defs>
						<path id="SVGID_2125_" d="M123.753,112.298c0.952-0.002,1.664,0.331,2.127,1.245c0.427,0.845,1.002,1.614,1.512,2.416
							c-1.362,0.443-1.757,0.242-2.105-1.069c-0.271-1.021-0.533-1.151-1.557-0.936c-3.124,0.655-6.277,1.074-9.469,1.264
							c-2.317,0.138-4.602,0.104-6.868-0.407c-0.333-0.075-0.647-0.229-0.97-0.346c3.742,0.02,7.47-0.165,11.17-0.76
							c0.433-0.069,0.883-0.073,1.217-0.422c0.313-0.029,0.628-0.046,0.94-0.088C121.11,113.009,122.343,112.26,123.753,112.298"/>
					</defs>
					<clipPath id="SVGID_45_">
						<use xlink:href="#SVGID_2125_"  overflow="visible"/>
					</clipPath>
					<g clip-path="url(#SVGID_45_)">
						<defs>
							<rect id="SVGID_2127_" x="37.509" y="18.454" width="235.397" height="206.348"/>
						</defs>
						<clipPath id="SVGID_46_">
							<use xlink:href="#SVGID_2127_"  overflow="visible"/>
						</clipPath>
						<rect x="101.415" y="107.288" clip-path="url(#SVGID_46_)" fill="#5F7D23" width="30.986" height="13.892"/>
					</g>
				</g>
				<g clip-path="url(#SVGID_6_)">
					<defs>
						<path id="SVGID_2129_" d="M130.565,123.431c-1.202-1.03-2.325-2.167-3.815-2.807c-0.861-0.37-1.731-0.365-2.599-0.069
							c-1.201,0.409-2.453,0.796-3.453,1.563c-1.396,1.072-2.55,0.704-3.785-0.307c0.512-0.49,1.205-0.632,1.808-0.915
							c1.778-0.834,3.548-1.68,5.524-2c1.013-0.165,1.952-0.038,2.895,0.287c1.727,0.708,2.62,2.211,3.517,3.706
							C130.771,123.077,130.881,123.299,130.565,123.431"/>
					</defs>
					<clipPath id="SVGID_47_">
						<use xlink:href="#SVGID_2129_"  overflow="visible"/>
					</clipPath>
					<g clip-path="url(#SVGID_47_)">
						<defs>
							<rect id="SVGID_2131_" x="37.509" y="18.454" width="235.397" height="206.348"/>
						</defs>
						<clipPath id="SVGID_48_">
							<use xlink:href="#SVGID_2131_"  overflow="visible"/>
						</clipPath>
						<rect x="111.905" y="113.814" clip-path="url(#SVGID_48_)" fill="#5F7D23" width="23.876" height="14.626"/>
					</g>
				</g>
				<g clip-path="url(#SVGID_6_)">
					<defs>
						<path id="SVGID_2133_" d="M118.638,127.076c-0.077-1.114,0.068-1.293,1.075-1.406c0.142-0.016,0.269-0.154,0.408-0.226
							c1.85-0.974,3.742-1.065,5.802-0.66c1.182,0.233,1.86,0.649,2.275,1.725c0.138,0.357,0.12,0.592-0.072,0.868
							c-0.09,0.028-0.181,0.055-0.271,0.083c0.039-0.818-0.696-1.419-1.881-1.536c-0.032,1.339-0.578,2.314-1.925,2.72
							c-0.943,0.31-1.788,0.05-2.592-0.444c-0.336-0.209-0.463-0.577-0.689-0.871c-0.278-0.363,0.02-1.125-0.528-1.134
							c-0.42-0.007-0.848,0.465-1.275,0.719C118.861,126.976,118.747,127.023,118.638,127.076 M124.457,125.972
							c-0.304,0.152-0.697,0.269-0.661,0.756c0.031,0.416,0.361,0.633,0.702,0.632c0.399,0,0.708-0.248,0.683-0.726
							C125.157,126.206,124.866,126.054,124.457,125.972"/>
					</defs>
					<clipPath id="SVGID_49_">
						<use xlink:href="#SVGID_2133_"  overflow="visible"/>
					</clipPath>
					<g clip-path="url(#SVGID_49_)">
						<defs>
							<rect id="SVGID_2135_" x="37.509" y="18.454" width="235.397" height="206.348"/>
						</defs>
						<clipPath id="SVGID_50_">
							<use xlink:href="#SVGID_2135_"  overflow="visible"/>
						</clipPath>
						<rect x="113.612" y="119.549" clip-path="url(#SVGID_50_)" fill="#66764C" width="19.684" height="14.238"/>
					</g>
				</g>
				<g clip-path="url(#SVGID_6_)">
					<defs>
						<path id="SVGID_2137_" d="M106.047,128.988c-0.698,0.424-1.456,0.518-2.25,0.418c-0.973-0.35-1.701-0.952-2-1.978
							c-0.315-1.083-0.375-1.12-1.299-0.439c-0.287,0.212-0.716,0.318-0.763,0.777c-0.456-0.013-0.492-0.023-0.415-0.298
							c0.073-0.265,0.233-0.505,0.355-0.757c0.065-0.079,0.13-0.157,0.196-0.235l-0.002-0.007c1.138-0.704,2.319-1.266,3.693-1.337
							c2.162-0.114,3.975,0.641,5.512,2.128c0.104,0.226,0.357,0.477-0.102,0.609c-0.427-0.471-0.937-0.807-1.597-0.987
							C107.207,127.773,106.837,128.519,106.047,128.988 M105.752,126.672c-0.453,0.007-0.678,0.31-0.651,0.67
							c0.024,0.332,0.213,0.687,0.672,0.652c0.384-0.029,0.561-0.272,0.575-0.633C106.366,126.948,106.175,126.698,105.752,126.672"
							/>
					</defs>
					<clipPath id="SVGID_51_">
						<use xlink:href="#SVGID_2137_"  overflow="visible"/>
					</clipPath>
					<g clip-path="url(#SVGID_51_)">
						<defs>
							<rect id="SVGID_2139_" x="37.509" y="18.454" width="235.397" height="206.348"/>
						</defs>
						<clipPath id="SVGID_52_">
							<use xlink:href="#SVGID_2139_"  overflow="visible"/>
						</clipPath>
						<rect x="94.28" y="120.112" clip-path="url(#SVGID_52_)" fill="#66764C" width="19.966" height="14.339"/>
					</g>
				</g>
				<g clip-path="url(#SVGID_6_)">
					<defs>
						<path id="SVGID_2141_" d="M130.565,123.431c0.316-0.132,0.206-0.354,0.092-0.544c-0.898-1.495-1.79-2.998-3.517-3.706
							c-0.012-0.492-0.398-0.838-0.503-1.294c-0.052-0.23-0.342-0.479-0.058-0.683c0.273-0.196,0.613-0.157,0.884,0.069
							c0.316,0.265,0.603,0.572,1.05,0.607c0.062,0.079,0.125,0.158,0.188,0.237c-0.001,0.167,0.055,0.29,0.242,0.309
							c0.691,0.719,1.381,1.438,2.071,2.157c0.073,0.041,0.145,0.084,0.217,0.125l0.015,0.01c0.022,0.178,0.136,0.242,0.3,0.243
							l0.028,0.021c0.161,0.766,0.851,1.043,1.365,1.483l-0.004-0.005c0.664,1.13-0.095,1.764-0.808,2.459
							c-0.484,0.472-0.976,0.496-1.547,0.272c-0.252-0.099-0.286-0.129-0.166-0.258C130.851,124.462,130.609,123.94,130.565,123.431
							"/>
					</defs>
					<clipPath id="SVGID_53_">
						<use xlink:href="#SVGID_2141_"  overflow="visible"/>
					</clipPath>
					<g clip-path="url(#SVGID_53_)">
						<defs>
							<rect id="SVGID_2143_" x="37.509" y="18.454" width="235.397" height="206.348"/>
						</defs>
						<clipPath id="SVGID_54_">
							<use xlink:href="#SVGID_2143_"  overflow="visible"/>
						</clipPath>
						<rect x="121.448" y="112.069" clip-path="url(#SVGID_54_)" fill="#95B257" width="16.751" height="18.266"/>
					</g>
				</g>
				<g clip-path="url(#SVGID_6_)">
					<defs>
						<path id="SVGID_2145_" d="M107.838,123.256c0.476-0.452,1.178-0.558,1.618-1.064c1.865,2.34,2.112,5.059,1.932,7.915
							c-0.082,1.302-0.221,2.589-0.439,3.871c-0.026,0.154-0.031,0.32-0.391,0.441c0-1.256,0.037-2.458-0.008-3.656
							c-0.078-2.08-0.462-4.085-1.477-5.948C108.744,124.208,108.265,123.763,107.838,123.256"/>
					</defs>
					<clipPath id="SVGID_55_">
						<use xlink:href="#SVGID_2145_"  overflow="visible"/>
					</clipPath>
					<g clip-path="url(#SVGID_55_)">
						<defs>
							<rect id="SVGID_2147_" x="37.509" y="18.454" width="235.397" height="206.348"/>
						</defs>
						<clipPath id="SVGID_56_">
							<use xlink:href="#SVGID_2147_"  overflow="visible"/>
						</clipPath>
						<rect x="102.83" y="117.184" clip-path="url(#SVGID_56_)" fill="#5F7D23" width="13.617" height="22.244"/>
					</g>
				</g>
				<g clip-path="url(#SVGID_6_)">
					<defs>
						<path id="SVGID_2149_" d="M109.074,127.259c-1.538-1.487-3.35-2.241-5.512-2.128c-1.375,0.072-2.556,0.634-3.694,1.338
							c0.642-1.536,2.404-2.474,4.462-2.28c1.464,0.139,2.838,0.571,3.953,1.617C108.713,126.21,109.068,126.633,109.074,127.259"/>
					</defs>
					<clipPath id="SVGID_57_">
						<use xlink:href="#SVGID_2149_"  overflow="visible"/>
					</clipPath>
					<g clip-path="url(#SVGID_57_)">
						<defs>
							<rect id="SVGID_2151_" x="37.509" y="18.454" width="235.397" height="206.348"/>
						</defs>
						<clipPath id="SVGID_59_">
							<use xlink:href="#SVGID_2151_"  overflow="visible"/>
						</clipPath>
						<rect x="94.859" y="119.155" clip-path="url(#SVGID_59_)" fill="#A05B28" width="19.223" height="13.112"/>
					</g>
				</g>
				<g clip-path="url(#SVGID_6_)">
					<defs>
						<path id="SVGID_2153_" d="M100.589,130.074c2.757,0.781,5.262,0.621,7.518-1.141c0.014,0.993-0.914,1.867-2.387,2.348
							C103.78,131.914,101.565,131.459,100.589,130.074"/>
					</defs>
					<clipPath id="SVGID_61_">
						<use xlink:href="#SVGID_2153_"  overflow="visible"/>
					</clipPath>
					<g clip-path="url(#SVGID_61_)">
						<defs>
							<rect id="SVGID_2155_" x="37.509" y="18.454" width="235.397" height="206.348"/>
						</defs>
						<clipPath id="SVGID_63_">
							<use xlink:href="#SVGID_2155_"  overflow="visible"/>
						</clipPath>
						<rect x="95.58" y="123.925" clip-path="url(#SVGID_63_)" fill="#A05B28" width="17.536" height="12.645"/>
					</g>
				</g>
				<g clip-path="url(#SVGID_6_)">
					<defs>
						<path id="SVGID_2157_" d="M99.735,127.765c0.048-0.46,0.476-0.566,0.763-0.777c0.924-0.681,0.983-0.644,1.299,0.439
							c0.299,1.026,1.028,1.629,2,1.978C102.202,129.455,100.741,129.177,99.735,127.765"/>
					</defs>
					<clipPath id="SVGID_65_">
						<use xlink:href="#SVGID_2157_"  overflow="visible"/>
					</clipPath>
					<g clip-path="url(#SVGID_65_)">
						<defs>
							<rect id="SVGID_2159_" x="37.509" y="18.454" width="235.397" height="206.348"/>
						</defs>
						<clipPath id="SVGID_67_">
							<use xlink:href="#SVGID_2159_"  overflow="visible"/>
						</clipPath>
						<rect x="94.726" y="121.526" clip-path="url(#SVGID_67_)" fill="#FDFDFD" width="14.079" height="12.894"/>
					</g>
				</g>
				<g clip-path="url(#SVGID_6_)">
					<defs>
						<path id="SVGID_2161_" d="M124.048,128.645c1.347-0.405,1.893-1.381,1.925-2.72c1.185,0.117,1.92,0.718,1.882,1.536
							c-0.732,0.834-1.764,1.007-2.763,1.255C124.741,128.732,124.379,128.925,124.048,128.645"/>
					</defs>
					<clipPath id="SVGID_69_">
						<use xlink:href="#SVGID_2161_"  overflow="visible"/>
					</clipPath>
					<g clip-path="url(#SVGID_69_)">
						<defs>
							<rect id="SVGID_2163_" x="37.509" y="18.454" width="235.397" height="206.348"/>
						</defs>
						<clipPath id="SVGID_71_">
							<use xlink:href="#SVGID_2163_"  overflow="visible"/>
						</clipPath>
						<rect x="119.039" y="120.916" clip-path="url(#SVGID_71_)" fill="#FDFDFD" width="13.825" height="12.887"/>
					</g>
				</g>
				<g clip-path="url(#SVGID_6_)">
					<defs>
						<path id="SVGID_2165_" d="M118.7,141.006c-0.251-0.005-0.501-0.01-0.752-0.016c0.446-0.729,1.23-1.388,0.53-2.367
							c-0.231-0.322-0.507-0.611-0.903-1.085c1.049,0.222,1.866,0.308,2.512,0.991c0.534,0.564,0.525,0.98,0,1.532
							C119.682,140.488,119.061,140.547,118.7,141.006"/>
					</defs>
					<clipPath id="SVGID_73_">
						<use xlink:href="#SVGID_2165_"  overflow="visible"/>
					</clipPath>
					<g clip-path="url(#SVGID_73_)">
						<defs>
							<rect id="SVGID_2167_" x="37.509" y="18.454" width="235.397" height="206.348"/>
						</defs>
						<clipPath id="SVGID_75_">
							<use xlink:href="#SVGID_2167_"  overflow="visible"/>
						</clipPath>
						<rect x="112.567" y="132.531" clip-path="url(#SVGID_75_)" fill="#5F7D23" width="12.926" height="13.484"/>
					</g>
				</g>
				<g clip-path="url(#SVGID_6_)">
					<defs>
						<path id="SVGID_2169_" d="M119.573,128.378c1.284,0.683,2.545,1.429,4.044,1.551c0.229,0.018,0.356,0.115,0.268,0.369
							c-0.104,0.3-0.173,0.564-0.604,0.61c-1.462,0.155-3.299-1.043-3.741-2.497L119.573,128.378z"/>
					</defs>
					<clipPath id="SVGID_77_">
						<use xlink:href="#SVGID_2169_"  overflow="visible"/>
					</clipPath>
					<g clip-path="url(#SVGID_77_)">
						<defs>
							<rect id="SVGID_2171_" x="37.509" y="18.454" width="235.397" height="206.348"/>
						</defs>
						<clipPath id="SVGID_79_">
							<use xlink:href="#SVGID_2171_"  overflow="visible"/>
						</clipPath>
						<rect x="114.531" y="123.37" clip-path="url(#SVGID_79_)" fill="#A05B28" width="14.39" height="12.56"/>
					</g>
				</g>
				<g clip-path="url(#SVGID_6_)">
					<defs>
						<path id="SVGID_2173_" d="M125.092,128.716c0.998-0.248,2.031-0.42,2.763-1.255c0.09-0.027,0.18-0.055,0.27-0.083
							c0.344,0.838,0.145,1.456-0.607,1.767c-0.729,0.3-1.462,0.596-2.274,0.618c-0.204,0.005-0.443,0.228-0.576-0.06
							c-0.094-0.203,0.159-0.308,0.264-0.454C125.045,129.091,125.345,128.986,125.092,128.716"/>
					</defs>
					<clipPath id="SVGID_81_">
						<use xlink:href="#SVGID_2173_"  overflow="visible"/>
					</clipPath>
					<g clip-path="url(#SVGID_81_)">
						<defs>
							<rect id="SVGID_2175_" x="37.509" y="18.454" width="235.397" height="206.348"/>
						</defs>
						<clipPath id="SVGID_83_">
							<use xlink:href="#SVGID_2175_"  overflow="visible"/>
						</clipPath>
						<rect x="119.639" y="122.37" clip-path="url(#SVGID_83_)" fill="#CBCCBB" width="13.657" height="12.489"/>
					</g>
				</g>
				<g clip-path="url(#SVGID_6_)">
					<defs>
						<path id="SVGID_2177_" d="M107.925,140.635c-0.368,0.466-0.868,0.734-1.407,0.946c0.058-0.193,0.029-0.373-0.075-0.546
							c-0.642-1.074-0.309-2.358,1.44-3.205C107.515,138.815,107.236,139.75,107.925,140.635"/>
					</defs>
					<clipPath id="SVGID_85_">
						<use xlink:href="#SVGID_2177_"  overflow="visible"/>
					</clipPath>
					<g clip-path="url(#SVGID_85_)">
						<defs>
							<rect id="SVGID_2179_" x="37.509" y="18.454" width="235.397" height="206.348"/>
						</defs>
						<clipPath id="SVGID_87_">
							<use xlink:href="#SVGID_2179_"  overflow="visible"/>
						</clipPath>
						<rect x="101.133" y="132.822" clip-path="url(#SVGID_87_)" fill="#5F7D23" width="11.801" height="13.768"/>
					</g>
				</g>
				<g clip-path="url(#SVGID_6_)">
					<defs>
						<path id="SVGID_2181_" d="M106.047,128.988c0.79-0.469,1.16-1.215,1.328-2.106c0.659,0.18,1.17,0.516,1.597,0.987
							C108.123,128.572,107.177,129.021,106.047,128.988"/>
					</defs>
					<clipPath id="SVGID_89_">
						<use xlink:href="#SVGID_2181_"  overflow="visible"/>
					</clipPath>
					<g clip-path="url(#SVGID_89_)">
						<defs>
							<rect id="SVGID_2183_" x="37.509" y="18.454" width="235.397" height="206.348"/>
						</defs>
						<clipPath id="SVGID_91_">
							<use xlink:href="#SVGID_2183_"  overflow="visible"/>
						</clipPath>
						<rect x="101.039" y="121.873" clip-path="url(#SVGID_91_)" fill="#FDFDFD" width="12.941" height="12.125"/>
					</g>
				</g>
				<g clip-path="url(#SVGID_6_)">
					<defs>
						<path id="SVGID_2185_" d="M118.638,127.076c0.109-0.054,0.223-0.1,0.327-0.163c0.427-0.254,0.854-0.726,1.274-0.719
							c0.547,0.01,0.25,0.771,0.528,1.134c0.225,0.294,0.353,0.662,0.688,0.871c-0.072,0.24-0.281,0.267-0.446,0.195
							c-0.808-0.353-1.724-0.48-2.386-1.14c-0.003-0.063-0.006-0.127-0.009-0.191L118.638,127.076z"/>
					</defs>
					<clipPath id="SVGID_93_">
						<use xlink:href="#SVGID_2185_"  overflow="visible"/>
					</clipPath>
					<g clip-path="url(#SVGID_93_)">
						<defs>
							<rect id="SVGID_2187_" x="37.509" y="18.454" width="235.397" height="206.348"/>
						</defs>
						<clipPath id="SVGID_95_">
							<use xlink:href="#SVGID_2187_"  overflow="visible"/>
						</clipPath>
						<rect x="113.606" y="121.186" clip-path="url(#SVGID_95_)" fill="#CBCCBB" width="12.858" height="12.252"/>
					</g>
				</g>
				<g clip-path="url(#SVGID_6_)">
					<defs>
						<path id="SVGID_2189_" d="M147.167,88.107c-0.896-0.956-1.453-2.027-2.119-3.152c-1.759-2.971-3.598-6.897-6.484-8.919
							c-0.272-0.17-0.544-0.34-0.831-0.479c-2.375-1.149-4.851-1.969-7.424-2.516c-0.391,0.103-0.742-0.063-1.107-0.154
							c-1.344-0.333-2.711-0.507-4.094-0.553c-0.006,0.775,0.371,1.45,0.58,2.166c0.479,1.648,1.009,3.281,1.519,4.92
							c3.293,0.68,6.03,2.544,8.867,4.191c2.899,1.684,5.705,3.539,8.853,4.753c0.524,0.202,1.092,0.345,1.65,0.39
							c0.401,0.031,0.862,0.044,1.136-0.335C147.497,88.333,147.28,88.227,147.167,88.107"/>
					</defs>
					<use xlink:href="#SVGID_2189_"  overflow="visible" fill-rule="evenodd" clip-rule="evenodd" fill="#819D2C"/>
					<clipPath id="SVGID_97_">
						<use xlink:href="#SVGID_2189_"  overflow="visible"/>
					</clipPath>
					<g clip-path="url(#SVGID_97_)">
						<defs>
							<rect id="SVGID_2191_" x="37.509" y="18.454" width="235.397" height="206.348"/>
						</defs>
						<use xlink:href="#SVGID_2191_"  overflow="visible" fill="#819D2C"/>
						<clipPath id="SVGID_99_">
							<use xlink:href="#SVGID_2191_"  overflow="visible"/>
						</clipPath>
						<rect x="120.1" y="67.326" clip-path="url(#SVGID_99_)" fill="#819D2C" width="32.621" height="26.451"/>
					</g>
				</g>
				<g clip-path="url(#SVGID_6_)">
					<defs>
						<path id="SVGID_2193_" d="M112.257,76.132c0.122,2.338,0.992,4.513,1.525,6.757c0.956,4.02,2.279,7.933,3.867,11.756
							c2.031,4.888,4.455,9.565,7.304,14.023c0.793,1.24,1.606,2.466,2.518,3.864c-0.856-0.271-1.053-0.892-1.363-1.363
							c-4.58-6.953-9.139-13.919-13.706-20.881c-1.866-2.843-3.753-5.673-5.598-8.53c-0.58-0.898-0.724-2.001-1.309-2.928
							c-0.639-1.015-1.093-2.146-1.628-3.226c1.826-0.407,3.625-0.386,5.387,0.322C110.23,76.319,111.254,76.088,112.257,76.132"/>
					</defs>
					<use xlink:href="#SVGID_2193_"  overflow="visible" fill-rule="evenodd" clip-rule="evenodd" fill="#819D2C"/>
					<clipPath id="SVGID_101_">
						<use xlink:href="#SVGID_2193_"  overflow="visible"/>
					</clipPath>
					<g clip-path="url(#SVGID_101_)">
						<defs>
							<rect id="SVGID_2195_" x="37.509" y="18.454" width="235.397" height="206.348"/>
						</defs>
						<use xlink:href="#SVGID_2195_"  overflow="visible" fill="#819D2C"/>
						<clipPath id="SVGID_103_">
							<use xlink:href="#SVGID_2195_"  overflow="visible"/>
						</clipPath>
						<rect x="98.858" y="70.33" clip-path="url(#SVGID_103_)" fill="#819D2C" width="33.621" height="47.211"/>
					</g>
				</g>
				<g clip-path="url(#SVGID_6_)">
					<defs>
						<path id="SVGID_2197_" d="M156.112,110.341c-1.919,0.858-3.937,1.286-6.027,1.391c-3.772,0.189-7.438-0.447-11.061-1.432
							c-0.544-0.148-1.116-0.197-1.674-0.292c-0.033,0.747,0.405,1.315,0.729,1.927c0.071,0.067,0.141,0.135,0.211,0.203
							l-0.007-0.015c1.189,1.043,2.352,2.118,3.572,3.124c3.088,2.544,6.532,4.347,10.529,4.996c0.548,0.088,0.797-0.02,1.022-0.513
							c0.727-1.587,1.437-3.187,2.268-4.72c0.36-0.666,0.481-1.398,0.599-2.132C156.257,112.034,156.207,111.186,156.112,110.341"/>
					</defs>
					<clipPath id="SVGID_105_">
						<use xlink:href="#SVGID_2197_"  overflow="visible"/>
					</clipPath>
					<g clip-path="url(#SVGID_105_)">
						<defs>
							<rect id="SVGID_2199_" x="37.509" y="18.454" width="235.397" height="206.348"/>
						</defs>
						<clipPath id="SVGID_107_">
							<use xlink:href="#SVGID_2199_"  overflow="visible"/>
						</clipPath>
						<rect x="132.34" y="105" clip-path="url(#SVGID_107_)" fill="#5F7D23" width="28.942" height="20.279"/>
					</g>
				</g>
				<g clip-path="url(#SVGID_6_)">
					<defs>
						<path id="SVGID_2201_" d="M153.429,120.597c-2.049-0.468-3.919-1.34-5.652-2.513c-3.128-2.117-5.675-4.83-7.977-7.795
							c-0.346-0.446-0.773-0.829-1.162-1.24c-0.475,0.577-0.467,1.295-0.576,1.979c0.016,0.096,0.032,0.192,0.047,0.289l0.004-0.016
							c0.322,1.548,0.606,3.106,0.976,4.644c0.938,3.89,2.605,7.401,5.409,10.323c0.385,0.4,0.649,0.463,1.125,0.205
							c1.535-0.831,3.065-1.682,4.65-2.408c0.688-0.316,1.225-0.828,1.761-1.343C152.527,122.037,152.997,121.329,153.429,120.597"
							/>
					</defs>
					<use xlink:href="#SVGID_2201_"  overflow="visible" fill-rule="evenodd" clip-rule="evenodd" fill="#819D2C"/>
					<clipPath id="SVGID_109_">
						<use xlink:href="#SVGID_2201_"  overflow="visible"/>
					</clipPath>
					<g clip-path="url(#SVGID_109_)">
						<defs>
							
								<rect id="SVGID_2203_" x="28.221" y="25.898" transform="matrix(-0.799 -0.6013 0.6013 -0.799 184.9035 319.9439)" width="235.397" height="206.348"/>
						</defs>
						<use xlink:href="#SVGID_2203_"  overflow="visible" fill="#819D2C"/>
						<clipPath id="SVGID_111_">
							<use xlink:href="#SVGID_2203_"  overflow="visible"/>
						</clipPath>
						
							<rect x="128.641" y="108.698" transform="matrix(-0.799 -0.6013 0.6013 -0.799 186.0054 299.8452)" clip-path="url(#SVGID_111_)" fill="#819D2C" width="28.942" height="20.279"/>
					</g>
				</g>
				<g clip-path="url(#SVGID_6_)">
					<defs>
						<path id="SVGID_2205_" d="M115.009,145.876c1.148,0.413,2.288,0.843,3.225,1.666c-2.866,0.771-5.703,0.848-8.483-0.371
							c0.561-0.779,1.333-1.226,2.254-1.44C112.988,146.171,113.995,146.099,115.009,145.876"/>
					</defs>
					<clipPath id="SVGID_113_">
						<use xlink:href="#SVGID_2205_"  overflow="visible"/>
					</clipPath>
					<g clip-path="url(#SVGID_113_)">
						<defs>
							<rect id="SVGID_2207_" x="37.509" y="18.454" width="235.397" height="206.348"/>
						</defs>
						<clipPath id="SVGID_115_">
							<use xlink:href="#SVGID_2207_"  overflow="visible"/>
						</clipPath>
						<rect x="104.743" y="140.723" clip-path="url(#SVGID_115_)" fill="#5F7D23" width="18.5" height="12.392"/>
					</g>
				</g>
				<g clip-path="url(#SVGID_6_)">
					<defs>
						<path id="SVGID_2209_" d="M108.724,149.362c0.839-0.125,1.354,0.248,1.907,0.383c2.152,0.527,4.301,1.018,6.519,0.451
							c0.704-0.18,1.378-0.471,2.071-0.692c0.272-0.086,0.61-0.483,0.822-0.101c0.17,0.307-0.295,0.422-0.509,0.574
							c-2.925,2.084-5.956,2.05-9.054,0.424C109.938,150.116,109.424,149.778,108.724,149.362"/>
					</defs>
					<clipPath id="SVGID_117_">
						<use xlink:href="#SVGID_2209_"  overflow="visible"/>
					</clipPath>
					<g clip-path="url(#SVGID_117_)">
						<defs>
							<rect id="SVGID_2211_" x="37.509" y="18.454" width="235.397" height="206.348"/>
						</defs>
						<clipPath id="SVGID_119_">
							<use xlink:href="#SVGID_2211_"  overflow="visible"/>
						</clipPath>
						<rect x="103.716" y="144.23" clip-path="url(#SVGID_119_)" fill="#5F7D23" width="21.373" height="12.361"/>
					</g>
				</g>
				<g clip-path="url(#SVGID_6_)">
					<defs>
						<path id="SVGID_2213_" d="M115.009,145.876c-1.014,0.224-2.021,0.295-3.003-0.144c0.378-0.539,0.916-0.204,1.366-0.208
							C113.925,145.518,114.528,145.47,115.009,145.876"/>
					</defs>
					<clipPath id="SVGID_121_">
						<use xlink:href="#SVGID_2213_"  overflow="visible"/>
					</clipPath>
					<g clip-path="url(#SVGID_121_)">
						<defs>
							<rect id="SVGID_2215_" x="37.509" y="18.454" width="235.397" height="206.348"/>
						</defs>
						<clipPath id="SVGID_123_">
							<use xlink:href="#SVGID_2215_"  overflow="visible"/>
						</clipPath>
						<rect x="106.997" y="140.416" clip-path="url(#SVGID_123_)" fill="#5F7D23" width="13.02" height="10.645"/>
					</g>
				</g>
				<g clip-path="url(#SVGID_6_)">
					<defs>
						<path id="SVGID_2217_" d="M91.66,89.361c1.04,0.682,1.521,1.826,2.221,2.775c3.709,5.035,8.141,9.318,13.257,12.881
							c1.526,1.062,3.215,1.891,4.826,2.833c0.286,0.167,0.701,0.204,0.727,0.662c-2.701,1.139-5.504,1.938-8.377,2.5
							c-2.984,0.652-6.007,0.857-9.051,0.738c-3.381-0.133-6.63-0.915-9.805-2.057c-0.759-0.273-1.184-0.938-1.784-1.396
							c-0.881-1.312-1.555-2.73-2.161-4.185c-0.266-1.61-0.474-3.202-0.213-4.858c0.17-1.084,0.763-1.978,0.984-3.015l0.005-0.003
							c0.046-0.071,0.09-0.143,0.136-0.214c0.365-0.624,0.731-1.249,1.098-1.874c0.903-0.988,1.972-1.817,2.789-2.89
							c0.987-0.08,1.563-0.902,2.366-1.316c0.93-0.073,1.622-0.97,2.632-0.769c-1.794,3.047-3.007,6.224-2.522,9.874
							c0.391,2.94,3.322,5.614,6.276,5.532c-0.742-1.911-1.318-3.854-1.788-5.831C92.538,95.651,92.045,92.516,91.66,89.361"/>
					</defs>
					<clipPath id="SVGID_125_">
						<use xlink:href="#SVGID_2217_"  overflow="visible"/>
					</clipPath>
					<g clip-path="url(#SVGID_125_)">
						<defs>
							<rect id="SVGID_2219_" x="37.509" y="18.454" width="235.397" height="206.348"/>
						</defs>
						<clipPath id="SVGID_127_">
							<use xlink:href="#SVGID_2219_"  overflow="visible"/>
						</clipPath>
						<rect x="76.172" y="84.135" clip-path="url(#SVGID_127_)" fill="#5F7D23" width="41.528" height="32.656"/>
					</g>
				</g>
				<g clip-path="url(#SVGID_6_)">
					<defs>
						<path id="SVGID_2221_" d="M91.66,89.361c0.386,3.155,0.879,6.291,1.615,9.387c0.47,1.977,1.047,3.92,1.788,5.831
							c-2.954,0.082-5.885-2.592-6.276-5.532c-0.484-3.649,0.728-6.827,2.522-9.874c0.103,0.012,0.206,0.023,0.309,0.035
							C91.624,89.261,91.638,89.312,91.66,89.361"/>
					</defs>
					<use xlink:href="#SVGID_2221_"  overflow="visible" fill-rule="evenodd" clip-rule="evenodd" fill="#819D2C"/>
					<clipPath id="SVGID_129_">
						<use xlink:href="#SVGID_2221_"  overflow="visible"/>
					</clipPath>
					<g clip-path="url(#SVGID_129_)">
						<defs>
							<rect id="SVGID_2223_" x="37.509" y="18.454" width="235.397" height="206.348"/>
						</defs>
						<use xlink:href="#SVGID_2223_"  overflow="visible" fill="#819D2C"/>
						<clipPath id="SVGID_131_">
							<use xlink:href="#SVGID_2223_"  overflow="visible"/>
						</clipPath>
						<rect x="83.672" y="84.165" clip-path="url(#SVGID_131_)" fill="#819D2C" width="16.4" height="25.424"/>
					</g>
				</g>
				<g clip-path="url(#SVGID_6_)">
					<defs>
						<path id="SVGID_2225_" d="M156.488,103.101c-0.18-0.928-0.361-1.857-0.541-2.786c-0.617-1.992-1.67-3.8-2.415-5.739
							c-0.369-0.155-0.543-0.483-0.715-0.812c-1.024-1.224-2.09-2.417-3.056-3.687c-0.386-0.508-0.993-0.823-1.341-1.356
							c-0.063-0.032-0.109-0.075-0.177-0.104c-0.103-0.043-0.316-0.111-0.531-0.198c-0.274,0.379-0.735,0.367-1.136,0.335
							c-0.558-0.044-1.125-0.187-1.65-0.39c-3.148-1.214-5.955-3.069-8.854-4.753c-2.836-1.647-5.573-3.511-8.866-4.191
							c0.994,3.14,1.521,6.431,3.034,9.404c4.332,5.949,9.058,11.505,15.577,15.192c3.399,1.923,7.046,3.041,11.001,2.943
							C156.709,105.674,156.598,104.387,156.488,103.101"/>
					</defs>
					<clipPath id="SVGID_133_">
						<use xlink:href="#SVGID_2225_"  overflow="visible"/>
					</clipPath>
					<g clip-path="url(#SVGID_133_)">
						<defs>
							<rect id="SVGID_2227_" x="37.509" y="18.454" width="235.397" height="206.348"/>
						</defs>
						<clipPath id="SVGID_135_">
							<use xlink:href="#SVGID_2227_"  overflow="visible"/>
						</clipPath>
						<rect x="122.199" y="74.412" clip-path="url(#SVGID_135_)" fill="#5F7D23" width="39.628" height="37.562"/>
					</g>
				</g>
				<g clip-path="url(#SVGID_6_)">
					<defs>
						<path id="SVGID_2229_" d="M130.241,88.823c4.332,5.949,9.058,11.505,15.577,15.193c3.399,1.923,7.046,3.041,11,2.943
							c-0.065,0.915-0.145,1.831-0.186,2.747c-0.016,0.353-0.21,0.498-0.487,0.622c-1.928,0.866-3.959,1.298-6.06,1.403
							c-3.772,0.19-7.438-0.447-11.061-1.432c-0.544-0.148-1.115-0.197-1.674-0.292c-0.835-1.712-1.45-3.513-2.114-5.292
							c-1.824-4.887-3.407-9.857-4.942-14.841C130.193,89.548,129.863,89.191,130.241,88.823"/>
					</defs>
					<use xlink:href="#SVGID_2229_"  overflow="visible" fill-rule="evenodd" clip-rule="evenodd" fill="#819D2C"/>
					<clipPath id="SVGID_137_">
						<use xlink:href="#SVGID_2229_"  overflow="visible"/>
					</clipPath>
					<g clip-path="url(#SVGID_137_)">
						<defs>
							<rect id="SVGID_2231_" x="37.509" y="18.454" width="235.397" height="206.348"/>
						</defs>
						<use xlink:href="#SVGID_2231_"  overflow="visible" fill="#819D2C"/>
						<clipPath id="SVGID_139_">
							<use xlink:href="#SVGID_2231_"  overflow="visible"/>
						</clipPath>
						<rect x="125.055" y="83.815" clip-path="url(#SVGID_139_)" fill="#819D2C" width="36.771" height="32.958"/>
					</g>
				</g>
				<g clip-path="url(#SVGID_6_)">
					<defs>
						<path id="SVGID_2233_" d="M132.939,122.465c-0.514-0.44-1.204-0.718-1.365-1.483c0.556,0.04,0.953,0.405,1.39,0.687
							C132.221,121.912,133.173,122.206,132.939,122.465"/>
					</defs>
					<clipPath id="SVGID_141_">
						<use xlink:href="#SVGID_2233_"  overflow="visible"/>
					</clipPath>
					<g clip-path="url(#SVGID_141_)">
						<defs>
							<rect id="SVGID_2235_" x="37.509" y="18.454" width="235.397" height="206.348"/>
						</defs>
						<clipPath id="SVGID_143_">
							<use xlink:href="#SVGID_2235_"  overflow="visible"/>
						</clipPath>
						<rect x="126.565" y="115.974" clip-path="url(#SVGID_143_)" fill="#639B2F" width="11.42" height="11.499"/>
					</g>
				</g>
				<g clip-path="url(#SVGID_6_)">
					<defs>
						<path id="SVGID_2237_" d="M124.457,125.972c0.41,0.082,0.7,0.235,0.723,0.662c0.026,0.479-0.283,0.726-0.683,0.726
							c-0.341,0.001-0.671-0.217-0.702-0.632C123.76,126.24,124.153,126.124,124.457,125.972"/>
					</defs>
					<clipPath id="SVGID_145_">
						<use xlink:href="#SVGID_2237_"  overflow="visible"/>
					</clipPath>
					<g clip-path="url(#SVGID_145_)">
						<defs>
							<rect id="SVGID_2239_" x="37.509" y="18.454" width="235.397" height="206.348"/>
						</defs>
						<clipPath id="SVGID_147_">
							<use xlink:href="#SVGID_2239_"  overflow="visible"/>
						</clipPath>
						<rect x="118.785" y="120.963" clip-path="url(#SVGID_147_)" fill="#FDFDFD" width="11.405" height="11.405"/>
					</g>
				</g>
				<g clip-path="url(#SVGID_6_)">
					<defs>
						<path id="SVGID_2241_" d="M105.752,126.672c0.422,0.026,0.613,0.276,0.596,0.689c-0.014,0.361-0.191,0.605-0.575,0.633
							c-0.46,0.035-0.648-0.32-0.672-0.652C105.075,126.982,105.299,126.679,105.752,126.672"/>
					</defs>
					<clipPath id="SVGID_149_">
						<use xlink:href="#SVGID_2241_"  overflow="visible"/>
					</clipPath>
					<g clip-path="url(#SVGID_149_)">
						<defs>
							<rect id="SVGID_2243_" x="37.509" y="18.454" width="235.397" height="206.348"/>
						</defs>
						<clipPath id="SVGID_151_">
							<use xlink:href="#SVGID_2243_"  overflow="visible"/>
						</clipPath>
						<rect x="100.09" y="121.663" clip-path="url(#SVGID_151_)" fill="#FDFDFD" width="11.268" height="11.341"/>
					</g>
				</g>
				<g clip-path="url(#SVGID_6_)">
					<defs>
						<path id="SVGID_2245_" d="M193.906,108.956c-0.23-0.014-0.246-0.186-0.23-0.339c0.055-0.526-0.121-0.8-0.64-1.071
							c-0.68-0.355-0.937-1.207-1.64-1.653c-2.24-1.421-3.874-3.495-5.63-5.433c-0.56-0.57-1.219-1.062-1.443-1.889l-0.004-0.013
							c-0.071-0.05-0.142-0.099-0.213-0.149c-1.624-1.111-2.843-2.627-4.1-4.104c-0.243-0.347-0.439-0.933-0.742-0.995
							c-0.702-0.144-0.857-0.632-1.079-1.139c-0.198-0.09-0.459-0.127-0.586-0.277c-1.138-1.344-2.504-2.477-3.555-3.896
							c-0.256-0.253-0.574-0.461-0.643-0.856c-0.284-0.078-0.514-0.243-0.71-0.456c-1.051-1.136-2.1-2.276-3.15-3.414
							c-0.378-0.092-0.423-0.434-0.543-0.721c-0.92-0.49-1.705-1.313-2.122-2.11c-0.488-0.934-1.614-1.062-1.925-2.025
							c-0.053-0.165-0.297-0.256-0.184-0.539c0.321-0.027,0.664-0.057,1.008-0.086c3.039-0.634,6.12-0.925,9.212-1.125
							c0.056-0.041,0.114-0.082,0.171-0.123c0.069-0.004,0.138-0.008,0.206-0.012c0.404-0.336,0.881-0.115,1.321-0.172
							c0.196-0.001,0.393-0.002,0.589-0.003c0.665,0.011,1.32-0.33,1.085-0.953c-0.381-1.017-0.097-2.157-0.706-3.093
							c-0.066-0.095-0.141-0.279-0.2-0.274c-1.085,0.09-2.169,0.203-3.252,0.312c-0.856,0.417-1.854,0.347-2.721,0.436
							c-1.49,0.153-2.97,0.463-4.478,0.527c-1.789,0.076-3.565,0.318-5.335,0.666c-1.013,0.199-1.807-0.507-2.334-1.4
							c-0.697-1.197-1.611-0.721-2.521-0.333c-0.289,0.123-0.593,0.213-0.89,0.318c0.087,0.131,0.181,0.258,0.261,0.394
							c0.74,1.251,0.412,1.778-1.092,1.859c-1.218,0.066-2.438-0.165-3.653,0.34c-1.215,0.504-1.258,0.401-0.929,1.614
							c0.128,0.437,0.257,0.874,0.384,1.311c0.29,1.255,0.291,1.256,1.895,1.115c0.117-0.127,0.261-0.164,0.427-0.122
							c0.113-0.002,0.225-0.003,0.338-0.005c0.403-0.004,0.764-0.315,1.189-0.167c0.977-0.123,1.957-0.229,2.931-0.373
							c1.347-0.199,1.415-0.173,2.02,1.102c0.082,0.173,0.16,0.347,0.239,0.52c0.136,0.109,0.141,0.261,0.132,0.416
							c0.096,0.084,0.227,0.148,0.281,0.253c1.072,2.079,2.135,4.162,3.201,6.245c0.225,0.294,0.473,0.575,0.538,0.96
							c0.835,1.654,1.896,3.194,2.5,4.966l-0.012-0.005c0.139-0.01,0.17,0.085,0.189,0.192c0.242,0.201,0.338,0.476,0.385,0.775
							c0.962,1.456,1.653,3.061,2.503,4.579c0.267,0.281,0.366,0.626,0.379,1.004c1.666,2.416,2.827,5.107,4.199,7.682
							c0.253,0.475,0.488,0.959,0.731,1.439c1.324,1.914,2.186,4.087,3.312,6.112c0.793,1.425,1.612,2.874,2.226,4.431
							c0.594,1.504,1.639,2.831,2.171,4.396c1.134,0.356,0.499,1.74,1.381,2.342c0.438,0.299-0.348,1.387-1.265,1.649
							c-0.807,0.229-1.632,0.399-2.45,0.594c0.124,0.016,0.247,0.03,0.609,0.075c-1.591,0.62-3.012,1.092-4.36,1.721
							c-1.379,0.644-2.842,1.044-4.235,1.64c-2.681,1.146-5.399,2.207-8.096,3.315c-0.513,0.212-1.003,0.479-1.504,0.721
							c-5.266,2.115-10.533,4.229-15.8,6.346c-2.882,1.158-5.764,2.319-8.645,3.479c-0.309,0.117-0.619,0.233-0.928,0.35
							c-0.615,0.231-1.189,0.584-1.953,0.693c0.448-2.048,1.151-3.951,1.826-5.845c0.211-0.592,1.003-1.018,1.596-1.422
							c0.699-0.477,1.094-1.119,1.368-1.886c0.363-1.018,0.757-2.025,1.138-3.037c0.18-0.915,0.719-1.729,0.762-2.684
							c0.255-1.438,0.571-2.873,0.504-4.345c-0.113-2.501-0.759-3.206-3.164-3.533c-0.422,1.16-0.779,2.337-1.747,3.223
							c-0.606,0.556-0.663,1.414-0.854,2.176c-0.309,1.228-0.594,2.461-0.897,3.69c-0.301,1.217-1.193,1.955-2.189,2.748
							c-0.128-0.91,0.306-1.638,0.308-2.41c0.01-2.854,0.184-5.696,0.543-8.528c0.046-0.362-0.073-0.692-0.414-0.896
							c-0.573,1.342-1.778,2.139-2.749,3.128c-0.685,0.699-1.153,1.318-1.038,2.424c0.166,1.607-0.015,3.247,0.07,4.867
							c0.201,3.831,0.592,7.652,0.547,11.495c-0.005,0.437-0.257,0.866-0.039,1.308c0.496-0.007,0.68-0.602,1.169-0.623
							c0.016-0.061,0.033-0.12,0.05-0.18c0.028,0.018,0.056,0.036,0.085,0.054c-0.04,0.046-0.081,0.091-0.122,0.137
							c-0.202,1.24-0.894,2.121-1.979,2.718c-0.257,1.793-1.132,3.313-2.15,4.752c-1.604,2.269-3.56,4.19-5.758,5.895
							c-1.303,1.009-2.802,1.475-4.322,1.832c-2.16,0.507-4.332,0.534-6.368-0.64c-0.29-0.167-0.484-0.523-0.998-0.51
							c0.238,1.204,0.999,2.053,1.846,2.738c1.475,1.191,3.291,1.587,5.136,1.766c1.981,0.192,3.966,0.263,5.923,0.738
							c2.483,0.602,4.177,2.539,4.271,5.141c0.004,0.096-0.008,0.192,0.004,0.287c0.274,2.066-0.308,3.754-1.749,5.352
							c-1.712,1.898-3.109,4.08-4.671,6.118c-0.41,0.535-0.495,1.159-0.643,1.766c-0.969,3.991-1.918,7.988-2.874,11.982
							c0.826-0.27,1.037-1.287,1.872-1.546c0.577-2.376,1.092-4.769,1.756-7.12c0.365-1.292,0.317-2.728,1.25-3.846
							c4.874-5.836,9.741-11.679,14.61-17.52c-0.583-2.622-1.356-5.203-1.654-7.885c-0.411-0.792-0.54-1.648-0.643-2.643
							c1.004,0.631,1.908,1.198,2.81,1.766c0.085,0.055,0.17,0.111,0.255,0.166l0.077,0.02l0.077-0.012
							c0.545-0.29,1.122-0.488,1.719-0.632c0.426-0.242,0.831-0.538,1.356-0.521c0.207-0.262,0.481-0.377,0.811-0.367
							c0.497-0.205,0.994-0.409,1.492-0.614c0.3-0.357,0.719-0.375,1.136-0.399c0.16-0.099,0.309-0.224,0.481-0.292
							c7.417-2.971,14.837-5.936,22.257-8.903c0.2-0.199,0.474-0.137,0.711-0.206c0.195-0.103,0.384-0.222,0.587-0.304
							c5.476-2.2,10.952-4.397,16.429-6.594c1.006-0.403,1.021-0.403,0.99,0.686c-0.263,9.324-0.484,18.649-0.828,27.97
							c-0.111,3.019-0.002,6.047-0.32,9.059c0.171,2.999-0.214,5.988-0.178,8.985c0.033,2.374,0.085,4.749-0.23,7.279
							c0.958-0.607,1.506-1.393,2.205-2.008c0.277-0.243,0.462-0.63,0.915-0.615c0.215-0.752,0.867-1.15,1.378-1.647
							c0.967-0.94,1.768-2.076,3.047-2.66c0.256-0.118,0.384-0.324,0.351-0.611c-0.13-1.124,0.532-2.148,0.405-3.272
							c-0.018-0.16,0.048-0.311,0.198-0.404c0.956-5.17,1.913-10.34,2.869-15.51c0.64-3.319,1.28-6.639,1.928-9.956
							c0.015-0.076,0.123-0.135,0.188-0.201c-0.045-1.053,0.345-2.03,0.541-3.041c-0.048-0.439,0.003-0.851,0.333-1.183
							c0.006-0.512,0.1-1.007,0.217-1.507c0.585-2.507,1.118-5.027,1.719-7.531c0.548-2.283,0.995-4.594,1.748-6.825
							c0.439-2.201,0.965-4.379,1.709-6.5c0.258-1.106,0.393-2.261,0.811-3.302c0.408-1.018,0.231-2.177,0.88-3.117
							c0.122-0.175,0.27-0.465,0.053-0.711c-0.897-1.017-1.671-2.16-2.878-2.865"/>
					</defs>
					<use xlink:href="#SVGID_2245_"  overflow="visible" fill-rule="evenodd" clip-rule="evenodd" fill="#819D2C"/>
					<clipPath id="SVGID_153_">
						<use xlink:href="#SVGID_2245_"  overflow="visible"/>
					</clipPath>
					<g clip-path="url(#SVGID_153_)">
						<defs>
							<rect id="SVGID_2247_" x="37.509" y="18.454" width="235.397" height="206.348"/>
						</defs>
						<use xlink:href="#SVGID_2247_"  overflow="visible" fill="#819D2C"/>
						<clipPath id="SVGID_155_">
							<use xlink:href="#SVGID_2247_"  overflow="visible"/>
						</clipPath>
						<rect x="105.591" y="66.805" clip-path="url(#SVGID_155_)" fill="#819D2C" width="105.691" height="134.518"/>
					</g>
				</g>
				<g clip-path="url(#SVGID_6_)">
					<defs>
						<path id="SVGID_2249_" d="M198.759,114.465c-0.705-1.377-2.026-2.188-2.996-3.319c-0.259-0.302-0.639-0.539-0.541-1.028"/>
					</defs>
					<clipPath id="SVGID_157_">
						<use xlink:href="#SVGID_2249_"  overflow="visible"/>
					</clipPath>
					<g clip-path="url(#SVGID_157_)">
						<defs>
							<rect id="SVGID_2251_" x="37.509" y="18.454" width="235.397" height="206.348"/>
						</defs>
						<clipPath id="SVGID_159_">
							<use xlink:href="#SVGID_2251_"  overflow="visible"/>
						</clipPath>
						<rect x="190.197" y="105.108" clip-path="url(#SVGID_159_)" fill="#5F7D23" width="13.57" height="14.365"/>
					</g>
				</g>
				<g clip-path="url(#SVGID_6_)">
					<defs>
						<path id="SVGID_2253_" d="M132.935,122.459c0.663,1.13-0.096,1.764-0.808,2.459c-0.484,0.472-0.976,0.496-1.547,0.273
							c-0.252-0.099-0.286-0.129-0.166-0.258c0.438-0.471,0.196-0.993,0.151-1.502c-1.201-1.03-2.324-2.167-3.815-2.807
							c-0.861-0.369-1.731-0.365-2.598-0.069c-1.202,0.409-2.454,0.796-3.453,1.563c-1.396,1.072-2.55,0.704-3.785-0.307
							c0.512-0.49,1.204-0.632,1.808-0.916c1.777-0.834,3.548-1.68,5.524-2c1.013-0.164,1.952-0.038,2.893,0.287
							c-0.012-0.491-0.397-0.838-0.501-1.294c-0.052-0.23-0.342-0.478-0.058-0.683c0.273-0.196,0.613-0.157,0.884,0.069
							c0.316,0.265,0.603,0.572,1.049,0.607c-0.374-0.64-0.747-1.28-1.121-1.921c-1.362,0.443-1.756,0.242-2.104-1.068
							c-0.271-1.021-0.533-1.152-1.557-0.937c-3.124,0.656-6.277,1.074-9.469,1.264c-2.317,0.138-4.602,0.104-6.868-0.406
							c-0.332-0.076-0.647-0.229-0.97-0.347c-1.662-0.141-3.325-0.273-4.986-0.43c-0.668-0.063-1.214,0.068-1.705,0.581
							c-0.407,0.427-0.931,0.743-1.403,1.108c0.045,0.052,0.388,0.103,0.433,0.154c-0.041,0.022,0.175,0.045,0.175,0.067v0.002
							c0,2.24-0.828,4.582-1.227,7.063c0.432-0.622,0.568-1.114,0.93-1.541c1.464-1.72,3.227-2.322,5.397-1.651
							c1.913,0.592,3.681,1.454,5.458,2.374c1.865,2.34,2.093,5.06,1.913,7.915c-0.082,1.302-0.23,2.589-0.449,3.872
							c-0.026,0.154-0.035,0.32-0.395,0.441c0-1.256,0.035-2.458-0.01-3.656c-0.078-2.08-0.463-4.085-1.477-5.948
							c-0.33-0.607-0.81-1.052-1.237-1.559c-1.317-0.314-2.444-1.058-3.609-1.684c-1.819-0.978-3.316-0.598-4.936,0.545
							c-1.497,1.056-2.12,2.276-2.118,4.112c0.001,2.244-0.334,4.487-0.535,6.729c-0.026,0.288-0.077,0.588-0.321,0.868
							c0.04,0.687,0.952,2.554,1.108,2.99c0.437,1.224,0.909,2.435,1.425,3.634c0.585,1.359,1.331,2.686,1.392,4.225
							c0.469,1.117,1.22,1.999,2.268,2.598c0.797,0.456,1.259,0.191,1.351-0.717c0.205-2.023,1.058-3.697,2.654-4.974
							c0.058-0.193,0.029-0.373-0.075-0.546c-0.642-1.075-0.309-2.358,1.44-3.205c-0.369,0.984-0.647,1.919,0.041,2.805
							c0.748-0.459,1.256-0.343,1.875,0.386c1.392,1.641,3.428,1.753,5.031,0.365c0.511-0.443,1.045-0.364,1.599-0.383
							c0.506-0.018,1.013-0.01,1.52-0.012c0.446-0.73,1.23-1.389,0.53-2.367c-0.231-0.322-0.507-0.612-0.903-1.085
							c1.049,0.222,1.866,0.308,2.512,0.991c0.534,0.564,0.525,0.98,0.001,1.532c-0.405,0.426-1.027,0.484-1.388,0.944
							c3.344-0.328,5.429,1.59,7.204,4.055c0.443,0.616,0.918,1.216,1.3,1.87c0.837,1.432,2.181,1.374,3.206,0.535
							c0.194-0.159,0.388-0.317,0.583-0.475c-0.218-0.441,0.034-0.871,0.039-1.307c0.045-3.843-0.346-7.665-0.547-11.495
							c-0.085-1.62,0.096-3.26-0.07-4.867c-0.115-1.106,0.354-1.725,1.039-2.425c0.97-0.99,2.175-1.787,2.748-3.128
							C133.891,123.226,133.65,122.613,132.935,122.459"/>
					</defs>
					<use xlink:href="#SVGID_2253_"  overflow="visible" fill-rule="evenodd" clip-rule="evenodd" fill="#CBDF8E"/>
					<clipPath id="SVGID_161_">
						<use xlink:href="#SVGID_2253_"  overflow="visible"/>
					</clipPath>
					<g clip-path="url(#SVGID_161_)">
						<defs>
							<rect id="SVGID_2255_" x="37.509" y="18.454" width="235.397" height="206.348"/>
						</defs>
						<use xlink:href="#SVGID_2255_"  overflow="visible" fill="#CBDF8E"/>
						<clipPath id="SVGID_163_">
							<use xlink:href="#SVGID_2255_"  overflow="visible"/>
						</clipPath>
						<rect x="91.312" y="108.857" clip-path="url(#SVGID_163_)" fill="#CBDF8E" width="47.899" height="44.211"/>
					</g>
				</g>
				<g clip-path="url(#SVGID_6_)">
					<defs>
						<path id="SVGID_2257_" d="M27.492,201.811l34.938-16.963c0.763-0.322,1.527-0.643,2.291-0.964
							c0.333-0.297,0.736-0.387,1.168-0.381c1.333-0.713,2.739-1.249,4.172-1.719c0.217-0.124,0.422-0.277,0.651-0.371
							c6.844-2.783,13.699-5.54,20.527-8.36c1.174-0.485,2.457-0.736,3.417-1.759c3.169-3.381,6.409-6.695,9.622-10.035
							c0.5-1.627,1.013-3.251,0.948-4.986c-0.127,0.019-0.253,0.038-0.38,0.057c-0.196,0.267-0.455,0.387-0.786,0.345
							c-0.115,0.041-0.229,0.084-0.344,0.126c-0.236,0.152-0.475,0.298-0.771,0.295c-0.966,0.385-1.93,0.777-2.901,1.153
							c-2.349,0.909-4.702,1.811-7.053,2.716c-0.469,0.534-1.225,0.302-1.76,0.66c-1.005,0.401-1.948,0.957-3.009,1.22
							c-0.478,0.494-1.013,0.849-1.748,0.707c-0.947,0.342-1.893,0.684-2.84,1.027c-0.251,0.282-0.658,0.15-0.939,0.356
							c-0.438,0.171-0.809,0.516-1.313,0.522c-0.362,0.081-0.559,0.563-1.014,0.419c-0.446,0.193-0.891,0.386-1.336,0.579
							c-0.312,0.375-0.743,0.15-1.115,0.222c-0.183,0.3-0.51,0.37-0.799,0.484c-1.921,0.751-3.847,1.491-5.772,2.234
							c-7.111,2.744-14.222,5.488-21.333,8.232c-2.557,0.983-5.114,1.966-7.673,2.943c-0.113,0.044-0.246,0.036-0.369,0.052
							l-0.002,0.003c-0.014,0.117-0.082,0.171-0.196,0.17c-1.278,0.524-2.555,1.048-3.833,1.572l-4.44,1.397"/>
					</defs>
					<use xlink:href="#SVGID_2257_"  overflow="visible" fill-rule="evenodd" clip-rule="evenodd" fill="#819D2C"/>
					<clipPath id="SVGID_165_">
						<use xlink:href="#SVGID_2257_"  overflow="visible"/>
					</clipPath>
					<g clip-path="url(#SVGID_165_)">
						<defs>
							<rect id="SVGID_2259_" x="37.509" y="18.454" width="235.397" height="206.348"/>
						</defs>
						<use xlink:href="#SVGID_2259_"  overflow="visible" fill="#819D2C"/>
						<clipPath id="SVGID_167_">
							<use xlink:href="#SVGID_2259_"  overflow="visible"/>
						</clipPath>
						<rect x="22.484" y="151.264" clip-path="url(#SVGID_167_)" fill="#819D2C" width="87.757" height="55.555"/>
					</g>
				</g>
				<g clip-path="url(#SVGID_6_)">
					<defs>
						<path id="SVGID_2261_" d="M86.099,120.271c0,0-1.229,8.094,9.674,4.849l8.024-11.746l-17.739,2.798L86.099,120.271z"/>
					</defs>
					<clipPath id="SVGID_169_">
						<use xlink:href="#SVGID_2261_"  overflow="visible"/>
					</clipPath>
					<g clip-path="url(#SVGID_169_)">
						<defs>
							<rect id="SVGID_2263_" x="37.509" y="18.454" width="235.397" height="206.348"/>
						</defs>
						<clipPath id="SVGID_171_">
							<use xlink:href="#SVGID_2263_"  overflow="visible"/>
						</clipPath>
						<rect x="81.049" y="108.365" clip-path="url(#SVGID_171_)" fill="#5F7D23" width="27.756" height="22.531"/>
					</g>
				</g>
				<g clip-path="url(#SVGID_6_)">
					<defs>
						<path id="SVGID_2265_" d="M85.458,109.693c0,0-7.329,5.204,0,10.205c0,0,1.494,2.777,14.274-5.282
							c0,0,12.182,0.749,17.862-0.91c5.68-1.659,1.217-0.422,1.217-0.422l-14.062-2.131
							C104.749,111.153,91.414,112.627,85.458,109.693"/>
					</defs>
					<use xlink:href="#SVGID_2265_"  overflow="visible" fill-rule="evenodd" clip-rule="evenodd" fill="#819D2C"/>
					<clipPath id="SVGID_173_">
						<use xlink:href="#SVGID_2265_"  overflow="visible"/>
					</clipPath>
					<g clip-path="url(#SVGID_173_)">
						<defs>
							<rect id="SVGID_2267_" x="37.509" y="18.454" width="235.397" height="206.348"/>
						</defs>
						<use xlink:href="#SVGID_2267_"  overflow="visible" fill="#819D2C"/>
						<clipPath id="SVGID_175_">
							<use xlink:href="#SVGID_2267_"  overflow="visible"/>
						</clipPath>
						<rect x="77.193" y="104.685" clip-path="url(#SVGID_175_)" fill="#819D2C" width="48.294" height="20.684"/>
					</g>
				</g>
			</g>
		</g>
	</g>
</g>
</svg>
