<?xml version="1.0" encoding="utf-8"?>
<!-- Generator: Adobe Illustrator 17.0.0, SVG Export Plug-In . SVG Version: 6.00 Build 0)  -->
<!DOCTYPE svg PUBLIC "-//W3C//DTD SVG 1.1//EN" "http://www.w3.org/Graphics/SVG/1.1/DTD/svg11.dtd">
<svg version="1.1" id="Layer_1" xmlns="http://www.w3.org/2000/svg" xmlns:xlink="http://www.w3.org/1999/xlink" x="0px" y="0px"
	 width="520px" height="205px" viewBox="0 0 520 205" enable-background="new 0 0 520 205" xml:space="preserve">
<g>
	<g>
		<defs>
			<polygon id="SVGID_1_" points="1,-2 1,217 138.892,217 190.351,-2 			"/>
		</defs>
		<clipPath id="SVGID_2_">
			<use xlink:href="#SVGID_1_"  overflow="visible"/>
		</clipPath>
	</g>
	<g>
		<defs>
			<polygon id="SVGID_3_" points="0.5,0.5 0.5,204.5 180.788,204.5 235.225,0.5 			"/>
		</defs>
		<clipPath id="SVGID_4_">
			<use xlink:href="#SVGID_3_"  overflow="visible"/>
		</clipPath>
		<polygon clip-path="url(#SVGID_4_)" fill="#DEEBC5" points="0,-3 0,216 177.274,216 236.61,-3 		"/>
		<g clip-path="url(#SVGID_4_)">
			<defs>
				<polygon id="SVGID_5_" points="25,-24 25,216 178.457,216 242.548,-24 				"/>
			</defs>
			<clipPath id="SVGID_6_">
				<use xlink:href="#SVGID_5_"  overflow="visible"/>
			</clipPath>
			<path fill="#819D2C" d="M226.178,115.836l-21.026-44.681v-0.809c1.82-0.404,3.235-2.022,3.235-4.044
				c0-2.022-1.415-3.639-3.235-4.044v-1.617c3.235-0.404,5.863-3.235,5.863-6.672c0-1.213-0.404-2.426-1.011-3.437
				c-1.011-2.022-3.235-3.437-5.661-3.437c-2.426,0-4.448,1.415-5.661,3.235c-0.404,0.809-0.809,1.617-1.011,2.426
				c-5.459-1.415-10.311-4.246-15.568-7.48c-8.694-5.257-19.207-11.726-36.594-13.141c-0.202-0.404-0.404-0.607-0.607-1.011
				c0.809-1.617,1.213-3.841,1.213-6.874c0-5.054-2.83-13.141-5.054-15.77c-0.607-0.607-1.415-1.011-2.224-1.011
				c-0.809,0-1.617,0.404-2.224,1.011c-2.224,2.628-5.054,10.715-5.054,15.77c0,2.83,0.404,5.054,1.213,6.874
				c-0.202,0.202-0.404,0.607-0.607,1.011c-20.622,1.213-30.731,8.087-39.222,13.748c-4.448,3.033-8.289,5.661-12.939,6.874
				c-0.202-0.809-0.404-1.617-1.011-2.426c-1.213-2.022-3.235-3.235-5.661-3.235c-2.426,0-4.65,1.415-5.661,3.437
				c-0.607,1.011-1.011,2.224-1.011,3.437c0,3.437,2.426,6.065,5.661,6.672v1.617c-1.82,0.404-3.235,2.022-3.235,4.044
				c0,2.022,1.415,3.639,3.235,4.044v0.809l-20.622,44.681h-6.874c0,8.087,12.939,14.557,28.911,14.557s28.911-6.47,28.911-14.557
				h-7.48L74.344,71.155v-0.809c1.82-0.404,3.235-2.022,3.235-4.044c0-2.022-1.415-3.639-3.235-4.044v-1.617
				c0.809,0,1.617-0.202,2.224-0.607c8.491-0.809,14.152-4.65,20.218-8.694c8.087-5.459,16.983-11.524,35.785-12.737
				c0.202,0.607,0.607,1.011,1.011,1.415c-1.213,2.628-1.82,5.863-1.82,9.704c0,5.459,1.415,10.109,3.639,12.535v99.575
				c-2.224,1.213-3.639,3.639-3.639,6.267c0,1.82,0.607,3.639,1.82,4.852c-1.213,2.628-1.82,5.863-1.82,9.704
				c0,1.415,0.202,2.83,0.404,4.246c-12.737,1.617-22.037,7.278-22.037,14.152l0,0c-4.044,0-7.278,3.235-7.278,7.278l0,0h-1.82
				c-3.033,0-5.459,1.617-5.459,3.639l0,0c0,2.022,2.426,3.639,5.459,3.639h9.098h28.911h29.113h9.098
				c3.033,0,5.459-1.617,5.459-3.639l0,0c0-2.022-2.426-3.639-5.459-3.639h-1.82l0,0c0-4.044-3.235-7.278-7.278-7.278l0,0
				c0-6.874-9.502-12.535-22.037-14.152c0.202-1.415,0.404-2.83,0.404-4.246c0-3.639-0.607-7.076-1.82-9.704
				c1.213-1.213,1.82-3.033,1.82-4.852c0-2.628-1.415-5.054-3.639-6.267V62.462c2.224-2.426,3.639-7.278,3.639-12.535
				c0-3.639-0.607-7.076-1.82-9.704c0.404-0.404,0.607-0.809,1.011-1.415c15.568,1.213,25.07,7.076,33.359,12.131
				c7.076,4.246,13.748,8.491,22.644,9.098c0.607,0.404,1.415,0.607,2.022,0.607v1.617c-1.82,0.404-3.235,2.022-3.235,4.044
				c0,2.022,1.415,3.639,3.235,4.044v0.809l-21.228,44.681h-7.278c0,8.087,12.939,14.557,28.911,14.557s28.911-6.47,28.911-14.557
				L226.178,115.836L226.178,115.836z M72.727,74.794v41.042H53.52L72.727,74.794z M93.551,115.836H74.344V74.794L93.551,115.836z
				 M75.962,66.303c0,1.011-0.607,2.022-1.617,2.224v-0.404h-1.617v0.404c-1.011-0.404-1.617-1.213-1.617-2.224
				c0-1.415,1.011-2.426,2.426-2.426S75.962,65.09,75.962,66.303z M224.358,115.836h-19.207V74.794L224.358,115.836z
				 M201.917,66.303c0-1.415,1.011-2.426,2.426-2.426s2.426,1.011,2.426,2.426c0,1.011-0.607,2.022-1.617,2.224v-0.404h-1.617v0.404
				C202.524,68.325,201.917,67.314,201.917,66.303z M203.534,74.794v41.042h-19.207L203.534,74.794z"/>
		</g>
		<use xlink:href="#SVGID_3_"  overflow="visible" fill="none" stroke="#819D2C" stroke-miterlimit="10"/>
	</g>
</g>
<g>
	<g>
		<defs>
			<polygon id="SVGID_2408_" points="604.5,354.5 604.5,558.5 782.502,558.5 838.018,354.5 			"/>
		</defs>
		<clipPath id="SVGID_8_">
			<use xlink:href="#SVGID_2408_"  overflow="visible"/>
		</clipPath>
		<g clip-path="url(#SVGID_8_)">
			<g>
				<defs>
					<polygon id="SVGID_2410_" points="456,167 456,641 754.519,641 866.224,167 					"/>
				</defs>
				<clipPath id="SVGID_10_">
					<use xlink:href="#SVGID_2410_"  overflow="visible"/>
				</clipPath>
			</g>
		</g>
		<use xlink:href="#SVGID_2408_"  overflow="visible" fill="none" stroke="#819D2C" stroke-miterlimit="10"/>
	</g>
</g>
<g>
	<defs>
		<polygon id="SVGID_2418_" points="41.5,354.5 41.5,558.5 220.637,558.5 274.897,354.5 		"/>
	</defs>
	<clipPath id="SVGID_12_">
		<use xlink:href="#SVGID_2418_"  overflow="visible"/>
	</clipPath>
	<g clip-path="url(#SVGID_12_)">
		<defs>
			<polygon id="SVGID_2420_" points="40.933,353.508 40.933,559.655 220.689,559.655 276.287,354.469 			"/>
		</defs>
		<clipPath id="SVGID_14_">
			<use xlink:href="#SVGID_2420_"  overflow="visible"/>
		</clipPath>
		<g clip-path="url(#SVGID_14_)">
			<defs>
				<rect id="SVGID_2422_" x="-1245.38" y="-1515.665" width="1929.469" height="3801.658"/>
			</defs>
			<clipPath id="SVGID_16_">
				<use xlink:href="#SVGID_2422_"  overflow="visible"/>
			</clipPath>
		</g>
	</g>
	<use xlink:href="#SVGID_2418_"  overflow="visible" fill="none" stroke="#819D2C" stroke-miterlimit="10"/>
</g>
</svg>
