<?xml version="1.0" encoding="utf-8"?>
<!-- Generator: Adobe Illustrator 17.0.0, SVG Export Plug-In . SVG Version: 6.00 Build 0)  -->
<!DOCTYPE svg PUBLIC "-//W3C//DTD SVG 1.1//EN" "http://www.w3.org/Graphics/SVG/1.1/DTD/svg11.dtd">
<svg version="1.1" xmlns="http://www.w3.org/2000/svg" xmlns:xlink="http://www.w3.org/1999/xlink" x="0px" y="0px" width="520px"
	 height="205px" viewBox="0 0 520 205" enable-background="new 0 0 520 205" xml:space="preserve">
<g id="Layer_1">
	<g>
		<g>
			<defs>
				<polygon id="SVGID_2284_" points="0.5,-241.5 0.5,-37.5 178.502,-37.5 234.018,-241.5 				"/>
			</defs>
			<clipPath id="SVGID_2_">
				<use xlink:href="#SVGID_2284_"  overflow="visible"/>
			</clipPath>
			<g clip-path="url(#SVGID_2_)">
				<g>
					<defs>
						<polygon id="SVGID_2286_" points="-148,-429 -148,45 150.519,45 262.224,-429 						"/>
					</defs>
					<clipPath id="SVGID_4_">
						<use xlink:href="#SVGID_2286_"  overflow="visible"/>
					</clipPath>
				</g>
			</g>
			<use xlink:href="#SVGID_2284_"  overflow="visible" fill="none" stroke="#95846F" stroke-miterlimit="10"/>
		</g>
	</g>
	<g>
		<defs>
			<polygon id="SVGID_2294_" points="240.5,-1038.5 240.5,-834.5 419.637,-834.5 473.897,-1038.5 			"/>
		</defs>
		<clipPath id="SVGID_5_">
			<use xlink:href="#SVGID_2294_"  overflow="visible"/>
		</clipPath>
		<g clip-path="url(#SVGID_5_)">
			<defs>
				<polygon id="SVGID_2296_" points="239.933,-1039.492 239.933,-833.345 419.689,-833.345 475.287,-1038.531 				"/>
			</defs>
			<clipPath id="SVGID_7_">
				<use xlink:href="#SVGID_2296_"  overflow="visible"/>
			</clipPath>
			<g clip-path="url(#SVGID_7_)">
				<defs>
					<rect id="SVGID_2298_" x="-1046.38" y="-2908.665" width="1929.469" height="3801.658"/>
				</defs>
				<clipPath id="SVGID_9_">
					<use xlink:href="#SVGID_2298_"  overflow="visible"/>
				</clipPath>
			</g>
		</g>
		<use xlink:href="#SVGID_2294_"  overflow="visible" fill="none" stroke="#819D2C" stroke-miterlimit="10"/>
	</g>
	<g>
		<g>
			<defs>
				<polygon id="SVGID_2338_" points="0.5,0.5 0.5,204.5 178.502,204.5 234.018,0.5 				"/>
			</defs>
			<clipPath id="SVGID_10_">
				<use xlink:href="#SVGID_2338_"  overflow="visible"/>
			</clipPath>
			<g clip-path="url(#SVGID_10_)">
				<g>
					<defs>
						<polygon id="SVGID_2340_" points="-148,-187 -148,287 150.519,287 262.224,-187 						"/>
					</defs>
					<clipPath id="SVGID_12_">
						<use xlink:href="#SVGID_2340_"  overflow="visible"/>
					</clipPath>
				</g>
				<polygon fill="#FFF8EF" points="-2,-8 -2,233 185.995,233 242.724,-8 				"/>
				<g>
					<defs>
						<polygon id="SVGID_2342_" points="-2,-8 -2,233 151.268,233 207.996,-8 						"/>
					</defs>
					<clipPath id="SVGID_14_">
						<use xlink:href="#SVGID_2342_"  overflow="visible"/>
					</clipPath>
				</g>
				<g>
					<defs>
						<polygon id="SVGID_2344_" points="-2,-8 -2,233 151.268,233 207.996,-8 						"/>
					</defs>
					<clipPath id="SVGID_15_">
						<use xlink:href="#SVGID_2344_"  overflow="visible"/>
					</clipPath>
				</g>
				<g>
					<defs>
						<polygon id="SVGID_2346_" points="-2,-8 -2,233 185.995,233 242.724,-8 						"/>
					</defs>
					<clipPath id="SVGID_17_">
						<use xlink:href="#SVGID_2346_"  overflow="visible"/>
					</clipPath>
					<g clip-path="url(#SVGID_17_)">
						<path fill="#FFFFFF" d="M46.499,54.681c2.648,0.043,4.071,1.693,5.252,3.457c4.436,6.628,8.77,13.324,13.163,19.982
							c0.677,1.026,1.461,1.981,2.186,2.975c0.751,1.029,0.594,1.524-0.745,1.95c-3.392,1.077-6.736,2.317-10.058,3.597
							c-0.911,0.351-1.758,0.987-2.495,1.648c-1.482,1.329-2.758,1.292-4.303-0.005c-4.213-3.537-8.589-6.882-12.775-10.45
							c-2.977-2.537-5.75-5.312-8.615-7.98c-0.337-0.314-0.632-0.713-1.026-0.917c-1.73-0.898-1.676-2.047-0.578-3.407
							c3.181-3.942,6.551-7.563,11.864-8.644C41.114,56.327,43.791,55.427,46.499,54.681z"/>
						<path fill="#FFFFFF" d="M68.982,80.376c-1.091-1.52-1.909-2.579-2.643-3.694c-4.308-6.542-8.54-13.135-12.925-19.625
							c-1.491-2.206-1.515-4.16,0.029-6.235c3.815-5.129,8.232-9.6,13.982-12.561c2.845-1.465,5.467,0.173,6.04,3.359
							c0.61,3.394,1.548,6.731,2.402,10.078c0.926,3.63,1.369,7.525,3.039,10.784c1.645,3.21,1.959,4.815-2.037,5.518
							c-0.145,0.025-0.36,1.865,0.052,2.407c1.008,1.327,1.456,2.358-0.054,3.574c-1.421,1.145-2.571,0.687-3.631-0.541
							C70.201,74.447,70.417,77.462,68.982,80.376z"/>
						<path fill="#C8B398" d="M65.896,148.587c-0.313,0.599-0.386,0.821-0.524,0.99c-2.67,3.271-2.678,3.277,0.471,6.076
							c1.167,1.037,2.342,2.069,3.568,3.034c1.144,0.9,1.168,1.704,0.079,2.668c-1.578,1.397-3.032,2.94-4.668,4.262
							c-1.575,1.272-2.224,2.386-0.271,3.863c0.364,0.275,0.451,0.918,0.847,1.793c-0.914-0.092-1.487-0.077-2.02-0.214
							c-7.794-2.002-15.575-4.052-23.377-6.02c-1.873-0.473-2.933-1.373-2.649-3.42c0.011-0.077,0-0.156-0.002-0.234
							c-0.139-4.873-0.116-4.791,4.636-6.128c7.502-2.111,14.968-4.348,22.452-6.519C64.788,148.637,65.173,148.658,65.896,148.587z
							"/>
						<path fill="#D7CDAC" d="M86.212,152.186c-0.626,0-1.252-0.018-1.878,0.004c-1.524,0.052-2.119-0.74-2.042-2.183
							c0.091-1.713,0.063-3.443,0.31-5.132c0.089-0.609,0.845-1.622,1.262-1.605c3.953,0.166,5.822-3.054,8.359-5.076
							c2.682-2.137,5.266-4.454,7.583-6.977c3.622-3.946,6.982-8.132,10.451-12.218c0.151-0.178,0.313-0.359,0.417-0.565
							c0.595-1.183,0.632-3.222,2.541-2.762c1.99,0.479,3.874,1.522,5.667,2.556c0.242,0.14-0.052,1.878-0.558,2.506
							c-1.119,1.39-2.661,2.439-3.788,3.824c-1.247,1.531-2.162,3.328-3.34,4.922c-0.906,1.225-1.814,2.576-3.034,3.418
							c-4.95,3.419-9.988,6.713-15.061,9.948c-2.062,1.315-2.096,3.33-2.3,5.341C90.398,152.17,90.117,152.43,86.212,152.186z"/>
						<path fill="#D7CDAC" d="M88.561,100.314c4.137-0.256,4.533,0.081,5.062,3.577c0.225,1.489-0.34,1.897-1.776,1.947
							c-9.285,0.323-15.608-4.415-20.601-11.689c-1.009-1.47-2.653-2.494-3.932-3.794c-0.706-0.718-1.262-1.584-1.885-2.383
							c0.884-0.242,1.756-0.568,2.656-0.698c0.682-0.098,1.513,0.291,2.072,0.027c0.562-0.266,1.082-1.019,1.236-1.652
							c0.19-0.783-0.295-1.803,0.034-2.458c0.283-0.563,1.301-1.01,1.993-1.007c0.339,0.001,0.981,1.159,0.939,1.756
							c-0.062,0.894-0.578,1.766-0.95,2.626c-1.2,2.78-0.891,4.754,1.546,6.622c2.844,2.178,5.798,4.25,8.89,6.049
							C85.176,100.011,86.974,99.98,88.561,100.314z"/>
						<path fill="#FFFFFF" d="M30.134,58.851c-0.223,0.445-0.347,0.991-0.684,1.319c-1.883,1.829-3.888,3.538-5.713,5.42
							c-1.661,1.713-1.501,2.421,0.548,3.834c1.729,1.193,3.499,2.329,5.21,3.546c0.357,0.254,0.54,0.754,0.803,1.141
							c-0.166,0.202-0.331,0.404-0.497,0.606c-1.748-1.134-3.504-2.257-5.239-3.411c-0.45-0.3-0.829-0.705-1.252-1.049
							c-4.739-3.857-4.765-2.772-0.217-7.368c1.842-1.861,4.22-3.19,6.355-4.761C29.677,58.369,29.906,58.61,30.134,58.851z"/>
						<path fill="#FFFFFF" d="M49.648,92.203c-6.351-5.308-12.703-10.616-19.054-15.924c0.166-0.205,0.331-0.41,0.497-0.615
							c6.885,4.619,13.061,10.118,19.087,15.801C50.001,91.71,49.825,91.956,49.648,92.203z"/>
						<path fill="#FFFFFF" d="M75.995,44.885c-0.187-0.29-0.515-0.568-0.538-0.87c-0.237-3.104-0.946-5.989-3.308-8.263
							c-0.126-0.121,0.476-1.446,0.769-1.458c0.569-0.023,1.567,0.382,1.676,0.797c0.834,3.169,1.497,6.383,2.212,9.583
							C76.536,44.745,76.266,44.815,75.995,44.885z"/>
						<path fill="#D7CDAC" d="M135.938,87.325c-1.418-4.552-2.855-9.111-6.256-12.703c-1.423-1.503-2.902-1.859-4.816-0.805
							c-0.719,0.396-1.78,0.205-2.687,0.217c-1.432,0.02-3.05-1.491-3.534-1.399c-2.896,0.554-2.364-1.501-2.442-2.841
							c-0.104-1.793-1.045-2.086-2.486-1.89c-2.711,0.368-5.444,0.635-8.114,1.2c-0.907,0.192-2.16,1.005-2.385,1.786
							c-1.052,3.643-1.799,7.374-2.656,11.074c-0.313,9.65,7.904,17.728,16.624,18.375c5.918,0.439,10.981-2.02,15.795-5.019
							C137.512,92.499,137.507,92.366,135.938,87.325z M115.788,92.92c-2.822,0.165-5.587-0.994-7.41-2.891
							C110.201,91.926,112.966,93.085,115.788,92.92c0.312-0.024,0.64-0.01,0.959-0.019C116.429,92.911,116.1,92.897,115.788,92.92z
							"/>
						<path fill="none" d="M67.1,81.096c-0.725-0.994-1.509-1.949-2.186-2.975c-4.392-6.658-8.727-13.353-13.163-19.982
							c-1.181-1.765-2.603-3.414-5.252-3.457c-2.708,0.746-5.385,1.646-8.131,2.205c-5.314,1.081-8.684,4.702-11.865,8.644
							c-1.098,1.36-1.152,2.509,0.578,3.407c0.395,0.205,0.689,0.604,1.026,0.917c2.865,2.668,5.638,5.443,8.615,7.98
							c4.186,3.568,8.562,6.913,12.775,10.45c1.545,1.297,2.821,1.334,4.303,0.005c0.737-0.661,1.584-1.297,2.495-1.648
							c3.323-1.281,6.666-2.52,10.058-3.597C67.694,82.62,67.851,82.125,67.1,81.096z"/>
						<path fill="none" d="M112.885,159.723c-1.536-2.458-4.567-3.618-7.337-2.591c-0.384,0.143-0.8,1.485-0.562,1.826
							c2.965,4.261,5.955,8.513,9.149,12.603c1.257,1.609,1.248,2.707-0.285,3.895c-2.172,1.682-3.31,4.606-6.373,5.25
							c-0.415,0.087-0.714,0.725-1.067,1.108c0.031,0.262,0.062,0.524,0.094,0.786c1.091,0.125,2.198,0.43,3.272,0.339
							c3.195-0.27,6.384-1.041,9.563-0.982c4.909,0.091,6.893-1.09,3.359-6.596C119.372,170.182,116.144,164.942,112.885,159.723z"
							/>
						<path fill="none" d="M88.561,100.314c-1.586-0.334-3.385-0.303-4.716-1.077c-3.092-1.798-6.047-3.87-8.89-6.049
							c-2.437-1.867-2.746-3.842-1.546-6.622c0.371-0.86,0.887-1.732,0.95-2.626c0.042-0.596-0.601-1.755-0.939-1.756
							c-0.691-0.002-1.71,0.444-1.993,1.007c-0.329,0.655,0.156,1.675-0.034,2.458c-0.154,0.633-0.673,1.386-1.236,1.652
							c-0.559,0.264-1.389-0.126-2.072-0.027c-0.9,0.13-1.772,0.456-2.656,0.698c0.623,0.799,1.179,1.665,1.885,2.383
							c1.279,1.301,2.923,2.324,3.932,3.794c4.992,7.274,11.315,12.012,20.6,11.689c1.435-0.05,2.001-0.459,1.776-1.947
							C93.093,100.396,92.698,100.059,88.561,100.314z"/>
						<path fill="none" d="M97.695,79.609c0.319-2.299,1.206-4.514,1.623-6.806c0.114-0.629-0.748-2.037-0.83-2.012
							c-2.525,0.778-5.009,1.69-7.879,2.717c1.654,1.765,2.768,2.956,4.281,4.571c-4.176,0.796-7.658,1.528-11.167,2.089
							c-1.168,0.187-1.538-0.538-0.933-1.63c0.352-0.635,0.646-1.302,1.203-2.438c-1.765,0.142-2.837,0.195-3.899,0.32
							c-2.739,0.324-3.483,1.741-3.267,4.519c0.162,2.091-0.077,4.382-0.816,6.325c-0.665,1.749-0.53,2.856,0.872,3.835
							c2.241,1.564,4.579,2.99,6.811,4.568c2.533,1.792,5.458,1.334,8.176,1.194c1.22-0.063,2.333-1.794,3.538-2.712
							c0.866-0.66,1.731-1.422,2.725-1.79c1.566-0.579,1.647-1.456,0.956-2.705C97.334,86.486,97.219,83.044,97.695,79.609z"/>
						<path fill="none" d="M30.594,76.278c6.351,5.308,12.703,10.616,19.054,15.924c0.177-0.246,0.353-0.493,0.53-0.739
							c-6.027-5.683-12.202-11.182-19.087-15.801C30.925,75.868,30.76,76.073,30.594,76.278z"/>
						<path fill="none" d="M82.829,143.402c-0.785,0.602-1.829,3.137-1.829,3.299v0.039c0,7.352,5.361,4.986,5.361,4.986
							c2.03,0.185,3.478-1.548,4.061-3.33c0.007-0.071,0.474-0.135,0.482-0.208c0.119-1.178-0.904-2.353,1.096-3.392v-0.024
							l-0.276,0.009c0.315-0.729,0.669-1.393,1.518-1.934c5.073-3.235,10.041-6.529,14.991-9.948
							c1.22-0.843,2.094-2.193,2.999-3.419c1.178-1.594,2.076-3.391,3.323-4.922c1.128-1.385,2.66-2.433,3.78-3.824
							c0.506-0.628,0.795-2.367,0.553-2.506c-1.793-1.034-3.679-2.077-5.669-2.556c-1.909-0.46-1.947,1.579-2.542,2.762
							c-0.104,0.206-0.266,0.387-0.418,0.565c-3.469,4.086-6.83,8.272-10.452,12.218c-2.316,2.524-4.901,4.841-7.583,6.977
							c-2.537,2.021-4.407,5.242-8.359,5.076c-0.062,0.003-0.478,0.019-0.535,0.043C83.284,143.334,82.877,143.367,82.829,143.402z"
							/>
						<path fill="none" d="M64.74,154.656c-1.102-1.03-1.496-1.614-1.237-2.405v0v0c0.209-0.638,0.838-1.412,1.869-2.675
							c0.138-0.169,0.211-0.391,0.524-0.99c-0.722,0.071-1.107,0.05-1.457,0.152c-7.485,2.171-14.951,4.408-22.452,6.519
							c-4.752,1.337-4.775,1.255-4.636,6.128c0.002,0.078,0.013,0.158,0.002,0.234c-0.284,2.046,0.776,2.947,2.649,3.42
							c7.802,1.968,15.583,4.018,23.377,6.02c0.534,0.137,1.106,0.122,2.02,0.214c-0.397-0.875-0.483-1.518-0.847-1.793
							c-1.953-1.477-1.304-2.591,0.27-3.863c1.636-1.322,3.09-2.865,4.667-4.262c1.089-0.964,1.066-1.768-0.079-2.668
							c-1.226-0.964-2.401-1.997-3.568-3.034C65.416,155.273,65.052,154.948,64.74,154.656L64.74,154.656L64.74,154.656z"/>
						<path fill="none" d="M135.938,87.325c-1.418-4.553-2.855-9.111-6.256-12.703c-1.423-1.503-2.901-1.86-4.816-0.805
							c-0.719,0.396-1.781,0.205-2.687,0.217c-1.432,0.019-3.05-1.491-3.534-1.399c-2.896,0.554-2.364-1.501-2.442-2.841
							c-0.104-1.793-1.045-2.086-2.486-1.89c-2.711,0.368-5.444,0.635-8.115,1.2c-0.907,0.192-2.159,1.005-2.385,1.786
							c-1.052,3.643-1.8,7.374-2.656,11.074c-0.313,9.65,7.903,17.728,16.624,18.375c5.918,0.439,10.981-2.02,15.795-5.019
							C137.512,92.499,137.507,92.365,135.938,87.325z"/>
						<path fill="none" d="M29.495,72.97c-1.712-1.217-3.481-2.353-5.21-3.546c-2.049-1.413-2.209-2.121-0.548-3.834
							c1.826-1.883,3.83-3.591,5.713-5.42c0.337-0.327,0.461-0.873,0.684-1.319c-0.228-0.241-0.457-0.482-0.685-0.723
							c-2.134,1.571-4.513,2.9-6.355,4.761c-4.548,4.596-4.522,3.511,0.217,7.368c0.422,0.344,0.801,0.749,1.251,1.049
							c1.735,1.154,3.491,2.277,5.239,3.412c0.166-0.202,0.331-0.404,0.497-0.606C30.035,73.724,29.852,73.225,29.495,72.97z"/>
						<path fill="none" d="M75.457,44.015c0.023,0.302,0.352,0.581,0.538,0.871c0.271-0.07,0.541-0.14,0.812-0.21
							c-0.716-3.2-1.378-6.414-2.212-9.583c-0.109-0.415-1.108-0.821-1.677-0.797c-0.294,0.012-0.895,1.337-0.769,1.458
							C74.511,38.026,75.219,40.911,75.457,44.015z"/>
						<path fill="none" d="M66.339,76.681c0.734,1.115,1.552,2.175,2.643,3.694c1.435-2.914,1.219-5.928,4.254-6.936
							c1.06,1.228,2.21,1.686,3.631,0.541c1.51-1.216,1.063-2.247,0.054-3.574c-0.412-0.542-0.197-2.382-0.052-2.407
							c3.996-0.703,3.682-2.308,2.037-5.518c-1.67-3.258-2.113-7.154-3.039-10.784c-0.854-3.347-1.792-6.684-2.402-10.078
							c-0.573-3.186-3.196-4.824-6.04-3.359c-5.75,2.962-10.167,7.432-13.982,12.562c-1.544,2.075-1.519,4.028-0.029,6.235
							C57.799,63.546,62.031,70.14,66.339,76.681z"/>
						<path fill="none" d="M139.769,107.552c1.57-0.201,3.746,0.507,2.961-2.12c-0.757-2.533-1.702-5.045-2.88-7.408
							c-1.506-3.02-1.64-2.949-4.286-0.812c-0.302,0.244-0.623,0.493-0.976,0.641c-1.829,0.763-1.756,1.931-0.81,3.371
							c0.945,1.437,1.959,2.848,2.712,4.384C137.257,107.175,138.255,107.952,139.769,107.552z"/>
						<path d="M64.74,154.656l-1.237-2.405C63.244,153.042,63.638,153.626,64.74,154.656z"/>
						<path fill="#AC8833" d="M90.78,148.395c0.564-1.723,0.652-3.475,0.658-3.6c-0.444,1.039-0.517,2.214-0.636,3.392
							C90.794,148.261,90.787,148.324,90.78,148.395z"/>
						<path d="M82.429,146.718c0,0.008,0,0.014,0,0.014l0.002-0.031L82.429,146.718z"/>
						<path d="M83.545,143.402c0.048-0.035,0.097-0.068,0.142-0.089C83.638,143.334,83.591,143.366,83.545,143.402z"/>
						<polygon points="91.438,144.795 91.444,144.78 91.439,144.771 						"/>
						<polygon points="63.503,152.251 63.503,152.251 63.503,152.251 						"/>
						<polygon points="64.74,154.657 64.74,154.657 64.74,154.656 						"/>
						<path d="M83.545,143.402c-0.402,0.288-0.873,0.999-0.942,1.473c-0.088,0.604-0.135,1.215-0.171,1.826
							C82.45,146.539,82.759,144.004,83.545,143.402z"/>
						<path d="M83.864,143.269c-0.054-0.002-0.114,0.014-0.177,0.043C83.744,143.289,83.803,143.272,83.864,143.269z"/>
						<path fill="#C8B398" d="M90.78,148.395c-0.583,1.782-1.673,3.515-3.704,3.33c0,0-4.405,1.578-5.473-1.881
							c0.1-1.031-0.603-2.077-0.603-3.105c0,0,0-0.014,0-0.021l0.717-0.017c0.036-0.612,0.44-1.222,0.529-1.826
							c0.069-0.473,0.719-1.184,1.121-1.473c0.046-0.035,0.182-0.068,0.231-0.089c0.063-0.029,0.168-0.046,0.222-0.044l2.704-0.372
							c0,0-1.859-0.721-3.711-2.147c-2.356,1.233-4.606,1.852-7.382,2.657c-1.951,0.566-4.083,0.911-5.997,1.36
							c-3.218,3.771-6.173,7.594-6.173,7.594l0.269,1.164l0.504,1.059l0.705,0.931l36.306-0.021c0,0-6.9-6.772-9.608-10.7
							l0.094-0.052"/>
						<path d="M138.588,143.64"/>
						<path fill="none" d="M105.762,157.073c-0.766,0.711-0.776,1.884-0.776,1.884c2.965,4.261,5.955,8.513,9.149,12.603
							c1.257,1.609,1.248,2.707-0.285,3.895c-2.172,1.682-3.31,4.606-6.373,5.25c-0.415,0.087-0.714,0.725-1.067,1.108
							c0.031,0.262,0.062,0.524,0.094,0.786c1.091,0.125,2.198,0.43,3.272,0.339c3.195-0.27,6.384-1.041,9.563-0.982
							c4.909,0.091,6.893-1.09,3.359-6.596c-3.324-5.178-6.552-10.419-9.812-15.638c-0.31-0.496-0.693-0.922-1.11-1.305
							c-1.015-0.678-1.881-1.142-2.615-1.437C108.069,156.691,106.901,156.698,105.762,157.073z"/>
						<polygon points="82.609,140.951 82.595,140.958 82.597,140.959 82.598,140.958 						"/>
						<path fill="#AC8833" d="M83.864,143.269c0.542,0.023,1.043-0.023,1.514-0.116l-0.109-0.087L83.864,143.269z"/>
						<path d="M109.16,156.98c-1.793-0.721-2.814-0.448-3.398,0.093C106.901,156.698,108.069,156.691,109.16,156.98z"/>
						<path d="M83.46,140.344c-0.28,0.24-0.563,0.453-0.851,0.606c0.151-0.079,0.304-0.161,0.454-0.237
							C83.219,140.635,83.347,140.504,83.46,140.344z"/>
						<path d="M111.775,158.418c-0.751-0.69-1.647-1.18-2.615-1.437C109.894,157.276,110.759,157.74,111.775,158.418z"/>
						<path d="M105.762,157.073c-0.071,0.023-0.143,0.032-0.214,0.058c-0.384,0.143-0.8,1.485-0.562,1.826
							C104.986,158.958,104.996,157.784,105.762,157.073z"/>
						<path fill="#D7CDAC" d="M67.1,81.096c-0.725-0.994-1.509-1.949-2.186-2.975c-4.392-6.658-8.727-13.353-13.163-19.982
							c-1.181-1.765-2.603-3.414-5.252-3.457c-2.708,0.746-5.385,1.646-8.131,2.205c-5.314,1.081-8.684,4.702-11.865,8.644
							c-1.098,1.36-1.152,2.509,0.578,3.407c0.395,0.205,0.689,0.604,1.026,0.917c2.865,2.668,5.638,5.443,8.615,7.98
							c4.186,3.568,8.562,6.913,12.775,10.45c1.545,1.297,2.821,1.334,4.303,0.005c0.737-0.661,1.584-1.297,2.495-1.648
							c3.323-1.281,6.666-2.52,10.058-3.597C67.694,82.62,67.851,82.125,67.1,81.096z"/>
						<path fill="#D7CDAC" d="M76.922,70.407c-0.412-0.542,0.603-1.516,0.716-1.61c3.137-2.633,2.914-3.105,1.269-6.315
							c-1.67-3.258-2.113-7.154-3.039-10.784c-0.854-3.347-1.792-6.684-2.402-10.078c-0.573-3.186-3.196-4.824-6.04-3.359
							c-5.75,2.962-10.167,7.432-13.982,12.562c-1.544,2.075-1.519,4.028-0.029,6.235c4.385,6.49,8.616,13.083,12.924,19.625
							c0.734,1.115,1.552,2.175,2.643,3.694c1.435-2.914,2.193-4.144,4.254-6.936"/>
						<path fill="#AC8833" d="M86.184,142.933c0,0-1.735-0.55-3.587-1.975c-3.065,1.618,0.391,0.284,0.391,0.284l2.281,1.823
							L86.184,142.933L86.184,142.933z"/>
						<polygon points="86.184,142.933 86.184,142.933 86.184,142.933 						"/>
						<path fill="#745719" d="M247.715,143.163 M597.289,143.648c0.007-0.298,0.044-0.611,0.151-0.9
							c0.306-0.835,1.061-1.936,1.774-2.066c0.65-0.118,1.775,1.919,2.223,2.64c0.305,0.49,0.592,0.678,0.869,2.678h2.191
							c-0.414-2-0.739-3.25-1.048-4.272c-0.699-2.306,1.031-5.846,4.109-7.27c2.52-1.166,5.26-2.182,7.954-2.909
							c0.565-0.153,1.583,0.199,2.005,0.715c1.874,2.291,3.658,4.588,5.366,7.005c0.729,1.031,0.263,1.734-0.99,1.92
							c-0.154,0.023-0.314-0.006-0.468,0.018c-1.238,0.191-2.476,1.553-3.714,1.747c0.39,0.626,0.778,1.045,1.168,3.045h27.213
							c0.345-2,0.79-0.22,1.341-0.237c0.626-0.019,1.129-1.763,1.542,0.237h41.242c0,0,3.788,1.419,5.638,4.519
							c-0.604-1.517-1.342-3.591-2.185-5.039c-1.148-1.974-2.809-3.405-5.383-3.334c-8.063,0.223-16.132,0.086-24.199,0.136
							c-0.555,0.003-1.388-0.264-1.592-0.638c-0.222-0.408,0.033-1.219,0.273-1.745c0.416-0.912,1.309-1.731,1.431-2.655
							c0.821-6.193,1.866-12.394,0.682-18.673c-1.542-8.182-5.132-15.34-10.604-21.584c-0.744-0.849-1.088-1.75,0.077-2.596
							c3.027-2.198,5.882-4.688,9.098-6.559c6.424-3.739,10.171-11.037,8.771-18.47c-0.084-0.444,0.154-0.361,0.188-0.361
							c1.264,0,2.236,0,3.208,0c-0.483,0-0.853-3.438-1.502-4.651c-0.289-0.539-1.193-1.103-1.723-1.555
							c-0.577-0.493-1.102-1.266-1.55-1.88c-1.836-2.516-3.415-5.356-5.49-7.652c-5.646-6.247-12.748-9.428-21.198-8.252
							c-8.635,1.202-15.842,4.804-19.343,13.529c-0.202,0.504-0.474,0.993-0.816,1.412c-3.25,3.979-5.159,8.501-5.898,13.591
							c-0.917,6.315,0.149,12.104,4.054,17.264c0.528,0.698,0.99,1.444,1.483,2.168c-0.072,0.272-0.143,0.543-0.215,0.815
							c-5.091,0.424-10.176,0.943-15.274,1.233c-2.638,0.15-5.306-0.266-7.948-0.15c-9.14,0.402-18.274,0.931-27.411,1.394
							c-1.484,0.075-3.029-0.169-4.438,0.175c-0.87,0.212-1.538,1.257-2.296,1.927c0.719,0.797,1.304,2.015,2.188,2.296
							c1.529,0.486,3.24,0.453,4.879,0.523c1.585,0.067,2.658,0.455,2.915,2.326c0.092,0.666,1.1,1.653,1.766,1.718
							c3.096,0.299,6.217,0.362,9.331,0.422c0.673,0.013,1.47-0.167,2.01-0.544c1.747-1.221,3.45-1.107,5.305-0.293
							c0.842,0.37,1.818,0.536,2.746,0.595c7.643,0.483,15.287,0.943,22.935,1.349c1.454,0.077,2.854-0.027,3.428,1.735
							c0.557,1.711,1.319,3.306-0.206,5.029c-6.13,6.926-11.845,14.256-19.537,19.627c-0.188,0.132-0.389,0.309-0.476,0.512
							c-1.438,3.353-4.258,4.818-7.56,5.8 M656.413,140.054c-2.055,0.168-4.141-0.073-6.213-0.055
							c-4.061,0.034-8.122,0.092-12.182,0.198c-2.967,0.077-5.933,0.35-8.896,0.311c-0.85-0.011-2.016-0.593-2.467-1.285
							c-0.999-1.53-1.597-3.318-2.445-4.955c-0.3-0.58-0.767-1.163-1.309-1.508c-1.084-0.69-1.828-1.577-0.811-2.616
							c0.908-0.929,2.109-2.089,3.621-0.664c0.417,0.393,0.92,0.694,1.779,1.33c-0.324-3.572-0.035-3.772,3.568-3.394
							c0.205,0.701,0.211,1.572,0.576,1.765c0.536,0.284,1.345,0.18,2.007,0.065c0.933-0.162,1.862-0.766,2.75-0.688
							c3.131,0.273,6.25,0.717,9.36,1.189c0.735,0.112,1.418,0.58,2.12,0.894c1.703,0.762,3.104,1.755,5.389,1.248
							c2.11-0.468,4.566,0.466,6.829,0.968c0.486,0.108,1.085,0.987,1.138,1.556C661.486,137.195,659.298,139.819,656.413,140.054z
							 M653.992,100.415c3.739,5.161,6.009,10.962,8.054,16.97c1.032,3.034,0.875,5.867,0.833,8.832
							c-0.026,1.814-0.893,2.852-2.814,2.465c-3.62-0.729-7.209-1.619-10.838-2.293c-2.595-0.482-5.226-0.832-7.857-1.039
							c-2.454-0.193-4.93-0.09-7.393-0.188c-0.474-0.019-1.319-0.342-1.333-0.564c-0.053-0.887-0.184-2.191,0.323-2.619
							c2.59-2.188,5.286-4.277,8.118-6.138c1.352-0.889,3.088-1.194,4.65-1.763c0.049,0.125,0.097,0.25,0.146,0.375
							c0.469,0,1.004,0.144,1.39-0.036c0.491-0.229,0.861-0.719,1.283-1.097c-0.403-0.396-0.814-1.135-1.209-1.126
							c-1.467,0.03-2.986,0.12-4.379,0.54c-1.542,0.465-2.918,1.492-4.463,1.935c-0.89,0.255-2.068,0.054-2.942-0.333
							c-0.888-0.393-1.601-1.228-2.323-1.938c-4.367-4.292-4.52-4.601,0.864-8.824c2.719-2.133,5.826-3.991,9.656-3.499
							c0.383,0.049,0.916-0.24,1.22-0.536C648.505,96.1,651.04,96.34,653.992,100.415z M621.345,82.717
							c-1.949-9.458,1.156-17.439,7.567-24.22c1.26-1.332,3.499-1.977,5.405-2.393c1.877-0.41,2.53,0.714,2.096,2.573
							c-0.158,0.676,0.102,1.449,0.171,2.178c0.621-0.3,1.243-0.596,1.862-0.9c0.451-0.222,0.897-0.454,1.508-0.764
							c-0.112,1.682-0.196,2.933-0.279,4.183c1.12-0.346,2.307-0.557,3.345-1.068c1.704-0.839,3.106-0.336,4.642,0.463
							c1.788,0.931,3.65,1.784,5.572,2.371c1.812,0.554,1.607,1.361,0.736,2.53c-2.637,3.54-2.627,5.002-0.301,8.55
							c1.107,1.689,2.632,3.294,1.349,5.755c-0.279,0.536,1.008,1.888,1.574,2.864c0.633-0.483,1.215-1.07,1.914-1.421
							c0.734-0.368,1.581-0.511,2.378-0.752c0.027,0.831,0.428,2.02,0.025,2.439c-7.762,8.093-16.581,13.954-28.712,9.847
							C626.565,93.046,622.612,88.862,621.345,82.717z M614.193,103.899c-1.721-0.054-3.444-0.012-5.167-0.012
							c-0.029,0.17-0.058,0.34-0.087,0.509c-4.983-0.895-9.949-1.92-14.96-2.615c-1.729-0.24-3.568,0.456-5.364,0.524
							c-2.537,0.096-5.082,0.03-7.62-0.054c-0.173-0.006-0.563-0.96-0.443-1.086c0.792-0.835,1.668-2.192,2.566-2.23
							c10.297-0.442,20.606-0.627,30.906-1.002c3.074-0.112,2.259,1.996,2.477,3.651
							C616.743,103.427,615.837,103.951,614.193,103.899z M622.429,104.235c-2.365,0.391-3.256-0.718-3.36-2.9
							c-0.041-0.851-0.438-1.718-0.329-2.532c0.089-0.662,0.556-1.627,1.087-1.82c3.782-1.373,7.59-2.187,11.366,0.181
							c1.295,0.812,2.749,1.37,4.498,2.223c-3.156,2.614-5.942,4.92-8.898,7.369c-0.14-0.118-0.64-0.332-0.77-0.683
							C625.375,104.32,624,103.976,622.429,104.235z M615.629,126.286c3.947-4.53,7.921-9.036,11.87-13.563
							c0.909-1.043,1.766-1.146,2.751-0.106c1.071,1.13,2.304,2.127,3.232,3.358c0.345,0.458,0.332,1.672-0.034,2.103
							c-3.113,3.666-6.48,6.918-11.583,7.776c-2.211,0.372-4.3,1.475-6.444,2.245c-0.136-0.22-0.272-0.439-0.408-0.658
							C615.216,127.053,615.35,126.606,615.629,126.286z"/>
						<path fill="#95846F" d="M113.849,175.455c1.533-1.187,1.542-2.285,0.285-3.895c-3.194-4.09-6.184-8.342-9.149-12.603
							l-0.741-1.111L99.767,154H64.74c0.312,0,0.676,0.945,1.102,1.324c1.167,1.037,2.342,2.233,3.568,3.198
							c1.144,0.9,1.168,1.786,0.079,2.75c-1.578,1.397-3.032,2.982-4.667,4.303c-1.575,1.272-2.224,2.406-0.27,3.884
							c0.364,0.276,0.451,0.929,0.847,1.803c-0.914-0.092-1.487-0.071-2.02-0.208c-7.794-2.002-15.575-4.049-23.377-6.018
							c-1.873-0.473-2.933-1.372-2.649-3.419c0.011-0.077,0-0.156-0.002-0.234c-0.139-4.873-0.116-4.79,4.636-6.128
							c7.502-2.111,14.968-4.347,22.452-6.518c0.35-0.101,0.734-0.081,1.457-0.152c-0.313,0.599-0.386,0.821-0.524,0.99
							c-1.03,1.262-1.659,2.037-1.869,2.675c0,0,2.717-3.712,5.935-7.483c-2.232,0.523-4.422,1.179-6.646,1.758
							c-5.902,1.535-11.822,3.008-17.698,4.641c-5.865,1.63-11.675,3.46-17.528,5.136c-3.973,1.138-7.984,2.143-11.964,3.261
							c-0.46,0.129-0.824,0.596-1.233,0.907c0.399,0.42,0.742,0.928,1.216,1.231c0.369,0.235,0.906,0.194,1.36,0.309
							c4.84,1.227,9.681,2.447,14.514,3.699c2.266,0.587,4.508,1.267,6.774,1.855c4.39,1.14,8.807,2.18,13.181,3.377
							c9.944,2.72,17.732,4.656,28.314,4.021c8.356-0.501,18.883,0.25,27.263,0.189c0.625-0.004,3.161-0.01,3.787,0.189"/>
						<path fill="#754C24" d="M109.775,182.935c-1.073,0.091-2.18-0.213-3.272-0.337"/>
						<path fill="#754C24" d="M129.119,175.766c3.678,0.047,7.357-0.07,11.036-0.096c14.409-0.099,28.817-0.207,43.226-0.277
							c26.475-0.128,52.949-0.259,79.424-0.34c73.867-0.223,147.734-0.363,221.601-0.651c45.118-0.176,90.236-0.568,135.354-0.841
							c0.849-0.005,1.699,0.265,3.158,0.508c-2.366,2.426-4.737,3.036-7.3,3.468c-1.08,0.182-2.033,1.112-3.044,1.701
							c0.739,1.097,1.314,2.958,2.246,3.157c3.621,0.776,7.351,1.331,11.048,1.379c3.401,0.044,6.803-0.826,10.219-1.005
							c3.97-0.208,6.151-3.198,4.62-6.836c-0.667-1.583-0.216-2.08,1.38-2.301c1.001-0.139,2.522-0.512,2.801-1.193
							c1.144-2.796,2.207-6.023,2.739-8.986c0.737-4.099,0.721-6.456-0.121-12.456h-23.747c3.224,6,6.447,10.949,9.64,16.279
							c1.674,2.794,3.282,5.798,4.772,8.693c1.164,2.261,0.475,3.569-2.013,4.14c-0.076,0.017-0.153,0.078-0.23,0.085
							c-4.582,0.428-9.159,0.955-13.749,1.253c-1.295,0.084-2.631-0.436-3.948-0.684c-0.035-0.239-0.069-0.473-0.104-0.711
							c0.491-0.426,0.95-0.894,1.478-1.267c2.649-1.874,5.319-3.716,7.976-5.58c1.366-0.958,1.26-2.027,0.188-3.134
							c-3.153-3.252-6.39-6.753-9.445-10.093c-2.615-2.859-5.216-5.981-7.762-8.981H124.285c-0.787,2-1.258,0.924-1.258,0.924
							l10.664,6.87l-21.816-0.393c-0.034-0.023-0.066-0.002-0.1-0.024c0.417,0.383,0.8,0.83,1.11,1.326
							c3.26,5.22,6.488,10.47,9.812,15.648"/>
						<path d="M141.023,145.163c14.849-0.105,29.698,0.837,44.547,0.837h-56.782l-8.006,5h3.502c2.651,0,9.055-3.542,14.545-7.059
							C139.708,144.085,140.372,145.167,141.023,145.163z"/>
						<path fill="#C8B398" d="M134.634,143.973c-5.489,3.516-7.698,7.027-10.349,7.027h486.275c-1.553-2-3.091-2.071-4.585-3.9
							c-0.617-0.755-1.087-1.1-1.477-1.1h-2.191c0.704,0,1.324,1.46,1.862,2.823c0.199,0.505-0.35,1.293-0.656,1.326
							c-1.812,0.194-3.665-0.076-5.478-0.259c-0.405-0.041-0.897-1.251-1.001-1.899c-0.118-0.738,0.153-0.436,0.341-1.855
							c0-0.19-0.097-0.136-0.097-0.136H182"/>
						<path d="M64.822,165.616"/>
						<path fill="none" d="M30.594,76.278c6.351,5.308,12.703,10.616,19.054,15.924c0.177-0.246,0.353-0.493,0.53-0.739
							c-6.027-5.683-12.202-11.182-19.087-15.801C30.925,75.868,30.76,76.073,30.594,76.278z"/>
						<path fill="none" d="M67.1,81.096c-0.725-0.994-1.509-1.949-2.186-2.975c-4.392-6.658-8.727-13.353-13.163-19.982
							c-1.181-1.765-2.603-3.414-5.252-3.457c-2.708,0.746-5.385,1.646-8.131,2.205c-5.314,1.081-8.684,4.702-11.865,8.644
							c-1.098,1.36-1.152,2.509,0.578,3.407c0.395,0.205,0.689,0.604,1.026,0.917c2.865,2.668,5.638,5.443,8.615,7.98
							c4.186,3.568,8.562,6.913,12.775,10.45c1.545,1.297,2.821,1.334,4.303,0.005c0.737-0.661,1.584-1.297,2.495-1.648
							c3.323-1.281,6.666-2.52,10.058-3.597C67.694,82.62,67.851,82.125,67.1,81.096z"/>
						<path fill="none" d="M29.495,72.97c-1.712-1.217-3.481-2.353-5.21-3.546c-2.049-1.413-2.209-2.121-0.548-3.834
							c1.826-1.883,3.83-3.591,5.713-5.42c0.337-0.327,0.461-0.873,0.684-1.319c-0.228-0.241-0.457-0.482-0.685-0.723
							c-2.134,1.571-4.513,2.9-6.355,4.761c-4.548,4.596-4.522,3.511,0.217,7.368c0.422,0.344,0.801,0.749,1.251,1.049
							c1.735,1.154,3.491,2.277,5.239,3.412c0.166-0.202,0.331-0.404,0.497-0.606C30.035,73.724,29.852,73.225,29.495,72.97z"/>
						<path fill="none" d="M66.339,76.681c0.734,1.115,1.552,2.175,2.643,3.694c1.435-2.914,1.219-5.928,4.254-6.936
							c1.06,1.228,2.21,1.686,3.631,0.541c1.51-1.216,1.063-2.247,0.054-3.574c-0.412-0.542-0.197-2.382-0.052-2.407
							c3.996-0.703,3.682-2.308,2.037-5.518c-1.67-3.258-2.113-7.154-3.039-10.784c-0.854-3.347-1.792-6.684-2.402-10.078
							c-0.573-3.186-3.196-4.824-6.04-3.359c-5.75,2.962-10.167,7.432-13.982,12.562c-1.544,2.075-1.519,4.028-0.029,6.235
							C57.799,63.546,62.031,70.14,66.339,76.681z"/>
						<path fill="none" d="M88.561,100.314c-1.586-0.334-3.385-0.303-4.716-1.077c-3.092-1.798-6.047-3.87-8.89-6.049
							c-2.437-1.867-2.746-3.842-1.546-6.622c0.371-0.86,0.887-1.732,0.95-2.626c0.042-0.596-0.601-1.755-0.939-1.756
							c-0.691-0.002-1.71,0.444-1.993,1.007c-0.329,0.655,0.156,1.675-0.034,2.458c-0.154,0.633-0.673,1.386-1.236,1.652
							c-0.559,0.264-1.389-0.126-2.072-0.027c-0.9,0.13-1.772,0.456-2.656,0.698c0.623,0.799,1.179,1.665,1.885,2.383
							c1.279,1.301,2.923,2.324,3.932,3.794c4.992,7.274,11.315,12.012,20.6,11.689c1.435-0.05,2.001-0.459,1.776-1.947
							C93.093,100.396,92.698,100.059,88.561,100.314z"/>
						<path fill="none" d="M75.457,44.015c0.023,0.302,0.352,0.581,0.538,0.871c0.271-0.07,0.541-0.14,0.812-0.21
							c-0.716-3.2-1.378-6.414-2.212-9.583c-0.109-0.415-1.108-0.821-1.677-0.797c-0.294,0.012-0.895,1.337-0.769,1.458
							C74.511,38.026,75.219,40.911,75.457,44.015z"/>
						<path fill="none" d="M139.85,98.024c-1.506-3.02-1.64-2.949-4.286-0.812c-0.302,0.244-0.623,0.493-0.976,0.641
							c-1.829,0.763-1.756,1.931-0.81,3.371c0.945,1.437,1.959,2.848,2.712,4.384c0.767,1.567,1.765,2.343,3.279,1.944
							c1.57-0.201,3.746,0.507,2.961-2.12C141.973,102.899,141.028,100.387,139.85,98.024z"/>
						<path fill="none" d="M97.695,79.609c0.319-2.299,1.206-4.514,1.623-6.806c0.114-0.629-0.748-2.037-0.83-2.012
							c-2.525,0.778-5.009,1.69-7.879,2.717c1.654,1.765,2.768,2.956,4.281,4.571c-4.176,0.796-7.658,1.528-11.167,2.089
							c-1.168,0.187-1.538-0.538-0.933-1.63c0.352-0.635,0.646-1.302,1.203-2.438c-1.765,0.142-2.837,0.195-3.899,0.32
							c-2.739,0.324-3.483,1.741-3.267,4.519c0.162,2.091-0.077,4.382-0.816,6.325c-0.665,1.749-0.53,2.856,0.872,3.835
							c2.241,1.564,4.579,2.99,6.811,4.568c2.533,1.792,5.458,1.334,8.176,1.194c1.22-0.063,2.333-1.794,3.538-2.712
							c0.866-0.66,1.731-1.422,2.725-1.79c1.566-0.579,1.647-1.456,0.956-2.705C97.334,86.486,97.219,83.044,97.695,79.609z"/>
						<path fill="none" d="M135.938,87.325c-1.418-4.553-2.855-9.111-6.256-12.703c-1.423-1.503-2.901-1.86-4.816-0.805
							c-0.719,0.396-1.781,0.205-2.687,0.217c-1.432,0.019-3.05-1.491-3.534-1.399c-2.896,0.554-2.364-1.501-2.442-2.841
							c-0.104-1.793-1.045-2.086-2.486-1.89c-2.711,0.368-5.444,0.635-8.115,1.2c-0.907,0.192-2.159,1.005-2.385,1.786
							c-1.052,3.643-1.8,7.374-2.656,11.074c-0.313,9.65,7.903,17.728,16.624,18.375c5.918,0.439,10.981-2.02,15.795-5.019
							C137.512,92.499,137.507,92.365,135.938,87.325z"/>
						<path d="M82.609,140.795c0.035-0.018,0.071-0.027,0.106-0.033c-0.039-0.041-0.078-0.071-0.117-0.114
							C82.602,140.652,82.605,140.797,82.609,140.795z"/>
						<path d="M105.762,157.073L105.762,157.073c-0.071,0.019-0.143,0.032-0.214,0.058
							C105.619,157.105,105.691,157.097,105.762,157.073z"/>
						<polygon points="82.597,140.646 82.598,140.647 82.598,140.646 						"/>
						<path fill="#D7CDAC" d="M610.559,151H107.117l10.555,17.023l505.77-0.378c-1.732-2.411-3.453-4.852-5.12-6.674
							C615.707,158.113,613.106,154,610.559,151z"/>
						<path fill="#D7CDAC" d="M101.046,155.495l-36.306,0.021l5.548,5.742L63.739,167h45.986c-1.603-5-2.639-4.977-4.202-7.223
							l-1.074-1.469L101.046,155.495z"/>
						<path d="M106.147,156.969l-0.067-0.127c-0.116,0.07-0.225,0.145-0.317,0.231C105.89,157.038,106.018,157.002,106.147,156.969z
							"/>
						<path fill="#7A6B5A" d="M83.378,71.903c1.667-3.916-0.909-6.29-1.766-9.804c-0.762-3.123,0.924-3.703,3.056-4.205
							c-0.092-0.274-0.177-0.554-0.256-0.834c-2.346-8.256-4.614-16.536-6.843-24.825c-0.455-1.694-1.228-2.27-3.028-1.928
							c-11.309,2.15-18.84,9.047-23.675,19.084c-1.148,2.383-2.357,3.115-4.903,3.151c-11.206,0.156-20.909,3.757-28.094,12.86
							c-1.273,1.613-0.866,2.487,0.549,3.646c4.366,3.578,9.177,6.506,13.186,10.659c5.128,5.314,11.123,9.79,16.718,14.657
							c1.041,0.906,1.814,1.093,3.02,0.086c2.336-1.951,4.845-3.699,7.323-5.475c2.011-1.442,2.729-1.184,4.216,0.789
							c0.87,1.155,2.069,2.066,3.145,3.06c0.741,0.684,1.638,1.229,2.267,1.999c1.816,2.22,3.37,4.676,5.324,6.759
							c3.505,3.737,7.682,6.144,12.993,6.779c4.103,0.491,8.527-0.527,12.289,2.089c0.231,0.161,0.639,0.222,0.912,0.144
							c2.731-0.776,3.749,1.019,4.612,3.039c0.522,1.222,1.124,2.429,1.462,3.703c0.227,0.854,0.445,2.186-0.007,2.661
							c-1.751,1.84-3.519,4.256-5.744,4.931c-4.676,1.418-8.39,4.06-11.728,7.277c-0.015,0.039-2.256,5.836-4.947,8.14
							c-0.113,0.16-0.241,0.29-0.397,0.369c-0.116,0.058-0.232,0.03-0.348,0.048c1.806,1.88,3.731,2.174,3.731,2.174
							c2.479-0.856,3.795-3.24,5.777-4.82c2.682-2.137,5.266-4.415,7.583-6.938c3.622-3.946,6.982-8.112,10.451-12.199
							c0.152-0.178,0.314-0.349,0.417-0.555c0.595-1.183,0.632-3.218,2.541-2.758c1.99,0.479,3.874,1.524,5.667,2.559
							c0.242,0.139-0.052,1.88-0.557,2.508c-1.119,1.39-2.66,2.44-3.788,3.824c-1.247,1.531-2.162,3.329-3.34,4.922
							c-0.906,1.225-1.814,2.576-3.034,3.419c-4.95,3.419-9.988,6.713-15.061,9.949c-0.849,0.541-1.343,1.205-1.658,1.934
							c1.938,4.039,8.323,9.876,8.323,9.876l4.479,3.518l0.741,0.783c-0.238-0.342,0.178-1.684,0.562-1.827
							c0.071-0.026,0.143-0.039,0.214-0.058c0.092-0.086,0.201-0.161,0.317-0.231c0.615-0.368,1.572-0.468,3.08,0.138
							c0.969,0.257,1.864,0.747,2.615,1.437c0.034,0.023,0.066,0.042,0.1,0.065l21.816,0.475l-10.664-6.706
							c0,0,8.685-4.011,15.803-8.571c-0.082-0.013-0.155-0.028-0.241-0.04c1.479-2.221,3.043-3.945,3.893-5.97
							c2.219-5.284,2.081-10.735,0.461-16.184c-1.168-2.336-2.221-4.723-3.124-7.179c-1.07-2.913-2.572-5.653-3.421-8.643
							c-0.026-0.09-0.012-0.166-0.019-0.25c-0.741-1.459-1.696-2.817-2.6-4.191c-0.947-1.439-1.019-2.608,0.81-3.371
							c0.353-0.148,0.674-0.397,0.976-0.641c1.168-0.944,1.837-1.455,2.36-1.505c0.631-0.477,1.661-0.407,1.852,0.578
							c0.639,3.288,2.505,6.977,4.813,9.412c0.585,0.618,0.392,1.828-0.532,2.015c-1.193,0.241-2.244,0.201-3.361-0.204
							c-0.315,0.002-0.632,0.006-0.928,0.044c-0.061,0.016-0.109,0.001-0.169,0.014c0.802,2.049,1.769,4.047,2.543,6.101
							c0.301,0.798,0.639,1.574,0.96,2.36c0.231-0.157,0.47-0.313,0.791-0.454c0.058-0.025,0.075-0.134,0.12-0.198
							c0.042-0.06,0.072-0.1,0.112-0.157c-0.038-0.306,0.031-0.634,0.264-0.933c0.253-0.324,0.622-0.571,0.745-0.975
							c0.35-1.154,1.971-1.146,2.324,0c0.335,1.085,0.749,2.099,1.399,3c0.2,0.053,0.393,0.077,0.565,0.053
							c1.849-0.253,3.663-0.799,5.471-1.301c1.583-0.439,2.322-1.199,1.127-2.871c-0.696-0.975-1.085-2.169-1.826-3.71
							c1.468,0.112,2.444,0.191,3.421,0.26c1.459,0.102,2.158-0.257,1.334-1.874c-0.958-1.879-1.737-3.849-2.688-5.731
							c-0.364-0.722-0.989-1.311-1.495-1.961c-0.26,0.303-0.546,0.59-0.817,0.886c-1.007,2.783-2.536,5.612-4.944,3.474
							c-1.696-1.506-2.007-4.813-3.097-6.743c-0.835-1.478-1.548-2.892-1.98-4.538c-0.425-1.62,0.163-3.524,0.258-5.142
							c0.025-0.432,0.24-0.731,0.523-0.922c0.399-1.233,1.223-2.342,1.771-3.545c5.011-10.995,1.185-26.699-12.526-30.614
							c-8.405-2.399-15.873-0.267-22.546,4.968c-2.725,2.138-5.206,4.414-8.912,4.757c-2.243,0.208-4.439,0.924-6.658,1.401
							c-2.385,0.513-4.772,1.015-7.776,1.652c0.526-1.626,0.855-2.622,1.169-3.622c0.322-1.029,0.311-2.281-1.1-1.695
							c-0.441,0.183-0.806,0.263-1.141,0.302c-1.061,0.244-3.703,0.249-2.726,2.34c0.329,0.706,0.52,1.451,0.796,2.175
							c0.732,1.922,1.477,3.716,1.42,5.795c-0.059,2.122-1.572,4.532-2.22,6.539c-0.39,1.208-0.775,2.317-1.586,3.252
							c0.187,0.233,0.524,0.354,1.047,0.27c3.509-0.561,6.991-1.293,11.167-2.089c-1.513-1.615-2.628-2.805-4.281-4.571
							c2.87-1.027,5.354-1.939,7.879-2.717c0.083-0.025,0.945,1.383,0.83,2.012c-0.416,2.292-1.304,4.507-1.623,6.806
							c-0.476,3.435-0.361,6.877,1.392,10.047c0.691,1.25,0.61,2.126-0.956,2.705c-0.994,0.368-1.859,1.13-2.725,1.79
							c-1.204,0.918-2.317,2.649-3.538,2.712c-2.718,0.14-5.642,0.598-8.176-1.194c-2.231-1.578-4.569-3.004-6.811-4.568
							c-1.402-0.979-1.537-2.086-0.872-3.835c0.739-1.944,0.978-4.234,0.816-6.325c-0.216-2.778,2.019-3.384,3.481-5.723
							 M53.444,50.821c3.816-5.129,8.232-9.6,13.982-12.562c2.844-1.465,5.467,0.173,6.04,3.359
							c0.61,3.394,1.548,6.731,2.402,10.078c0.926,3.63,1.369,7.526,3.039,10.784c1.645,3.21,2.024,3.839-1.571,6.391
							c-0.12,0.085-2.102,2.365-4.099,4.568c-2.373,2.948-2.819,4.022-4.254,6.936c-1.091-1.52-1.909-2.579-2.643-3.694
							c-4.308-6.542-8.54-13.135-12.924-19.625C51.924,54.85,51.9,52.896,53.444,50.821z M56.296,86.643
							c-0.911,0.351-1.758,0.987-2.495,1.648c-1.482,1.329-2.758,1.292-4.303-0.005c-4.213-3.537-8.589-6.883-12.775-10.45
							c-2.977-2.537-5.75-5.312-8.615-7.98c-0.337-0.314-0.632-0.712-1.026-0.917c-1.73-0.898-1.676-2.047-0.578-3.407
							c3.181-3.942,6.551-7.563,11.865-8.644c2.746-0.559,5.423-1.459,8.131-2.205c2.648,0.043,4.071,1.693,5.252,3.457
							c4.436,6.628,8.77,13.324,13.163,19.982c0.677,1.026,1.461,1.981,2.186,2.976c0.751,1.029,0.594,1.524-0.745,1.95
							C62.962,84.123,59.619,85.362,56.296,86.643z M91.847,105.839c-9.285,0.323-15.608-4.415-20.6-11.689
							c-1.009-1.47-2.653-2.493-3.932-3.794c-0.706-0.718-1.262-1.584-1.885-2.383c0.884-0.242,1.755-0.568,2.655-0.698
							c0.682-0.098,1.513,0.291,2.072,0.027c0.562-0.266,1.082-1.019,1.236-1.652c0.19-0.783-0.295-1.803,0.034-2.458
							c0.283-0.563,1.301-1.01,1.993-1.007c0.339,0.001,0.981,1.159,0.939,1.756c-0.063,0.894-0.578,1.766-0.95,2.626
							c-1.2,2.78-0.891,4.754,1.546,6.622c2.843,2.178,5.798,4.25,8.89,6.049c1.331,0.774,3.13,0.743,4.716,1.077
							c4.137-0.256,4.533,0.082,5.062,3.577C93.848,105.381,93.282,105.789,91.847,105.839z M132.982,95.321
							c-4.814,2.999-9.876,5.458-15.795,5.019c-8.721-0.647-16.938-8.725-16.624-18.375c0.856-3.7,1.604-7.431,2.656-11.074
							c0.225-0.78,1.478-1.594,2.385-1.786c2.67-0.564,5.404-0.831,8.115-1.2c1.441-0.196,2.382,0.097,2.486,1.89
							c0.078,1.339-0.455,3.394,2.442,2.841c0.484-0.093,2.102,1.418,3.534,1.399c0.906-0.012,1.968,0.179,2.687-0.217
							c1.914-1.055,3.392-0.698,4.816,0.805c3.401,3.591,4.838,8.15,6.256,12.703C137.507,92.365,137.512,92.499,132.982,95.321z"/>
						<polygon fill="#C8B398" points="63.739,167 111.043,167 115.713,175.259 66.902,174.57 						"/>
						<path fill="#FFFFFF" d="M109.725,165.665c0.068,0.094,0.138,0.187,0.206,0.281l0.844-0.281H109.725z"/>
						<path fill="#745719" d="M109.274,166.165l3.144,3.144c-0.839-1.113-1.669-2.234-2.487-3.363L109.274,166.165z"/>
						<path fill="#C8B398" d="M623.442,167.569l-505.77,0.301c1.25,2.411,4.152,5.627,5.415,8.038l505.498-3.518
							c0,0-0.29,0.013-0.817-0.663C626.334,169.892,624.885,169.98,623.442,167.569z"/>
						<path fill="#D7CDAC" d="M122.697,175.361c-0.786-1.225-1.555-2.461-2.332-3.691c-1.263-1.999-2.527-3.998-3.777-6.005
							c-1.234-1.981-2.466-3.963-3.703-5.942c-1.426-2.283-4.208-3.548-6.805-2.881l-2.44,0.857l6.292,8.247
							c0.818,1.129,1.648,2.25,2.487,3.363c0.568,0.754,1.136,1.508,1.717,2.251c1.257,1.609,1.248,2.707-0.285,3.895
							c-2.172,1.682-3.31,4.606-6.373,5.25c-0.415,0.087-0.714,0.725-1.067,1.108c0.031,0.262,0.062,0.524,0.094,0.786
							c1.091,0.125,2.198,0.43,3.272,0.339c3.195-0.27,6.384-1.041,9.563-0.982C124.246,182.048,126.231,180.867,122.697,175.361z"
							/>
						<path fill="none" stroke="#C8B398" stroke-miterlimit="10" d="M115.244,78.274c0,0-2.143-5.511-8.266-3.98"/>
						<path fill="none" stroke="#C8B398" stroke-miterlimit="10" d="M129.418,85.994c0,0-1.455-5.731-7.719-4.958"/>
					</g>
				</g>
			</g>
			<use xlink:href="#SVGID_2338_"  overflow="visible" fill="none" stroke="#95846F" stroke-miterlimit="10"/>
		</g>
	</g>
	<text transform="matrix(1 0 0 1 319.3951 107.7601)" font-family="'Roboto-Regular'" font-size="18">Education</text>
</g>
<g id="Layer_2">
</g>
</svg>
