<?xml version="1.0" encoding="utf-8"?>
<!-- Generator: Adobe Illustrator 17.0.0, SVG Export Plug-In . SVG Version: 6.00 Build 0)  -->
<!DOCTYPE svg PUBLIC "-//W3C//DTD SVG 1.1//EN" "http://www.w3.org/Graphics/SVG/1.1/DTD/svg11.dtd">
<svg version="1.1" id="Layer_1" xmlns="http://www.w3.org/2000/svg" xmlns:xlink="http://www.w3.org/1999/xlink" x="0px" y="0px"
	 width="136.222px" height="115px" viewBox="0 0 136.222 115" enable-background="new 0 0 136.222 115" xml:space="preserve">
<g>
	<g>
		<defs>
			<rect id="SVGID_1141_" x="-159.356" y="189.516" width="130" height="115"/>
		</defs>
		<clipPath id="SVGID_2_">
			<use xlink:href="#SVGID_1141_"  overflow="visible"/>
		</clipPath>
		<g clip-path="url(#SVGID_2_)">
		</g>
	</g>
</g>
<g>
	<defs>
		<rect id="SVGID_1377_" x="0" y="0.058" width="136.507" height="115"/>
	</defs>
	<clipPath id="SVGID_4_">
		<use xlink:href="#SVGID_1377_"  overflow="visible"/>
	</clipPath>
	<g clip-path="url(#SVGID_4_)">
		<g>
			<g>
				<defs>
					<polygon id="SVGID_1379_" points="-0.356,-1.484 -0.356,124.516 80.675,124.516 110.409,-1.484 					"/>
				</defs>
				<clipPath id="SVGID_6_">
					<use xlink:href="#SVGID_1379_"  overflow="visible"/>
				</clipPath>
			</g>
			<g>
				<defs>
					<polygon id="SVGID_1381_" points="-1.356,-0.484 -1.356,117.516 136.22,117.516 136.338,-0.484 					"/>
				</defs>
				<clipPath id="SVGID_8_">
					<use xlink:href="#SVGID_1381_"  overflow="visible"/>
				</clipPath>
				<polygon opacity="0.3" clip-path="url(#SVGID_8_)" fill="#B2E9FF" points="-1.356,-2.484 -1.356,124.516 138.589,124.516 
					137.138,-2.484 				"/>
				<g clip-path="url(#SVGID_8_)">
					<defs>
						<polyline id="SVGID_1383_" points="12.644,124.516 140.643,124.516 140.569,-14.484 12.644,-14.484 						"/>
					</defs>
					<clipPath id="SVGID_10_">
						<use xlink:href="#SVGID_1383_"  overflow="visible"/>
					</clipPath>
				</g>
			</g>
		</g>
		<g>
			<defs>
				<polygon id="SVGID_1385_" points="-1.356,1.516 -1.356,119.516 136.22,119.516 135.735,1.516 				"/>
			</defs>
			<clipPath id="SVGID_12_">
				<use xlink:href="#SVGID_1385_"  overflow="visible"/>
			</clipPath>
		</g>
		<g>
			<defs>
				<polygon id="SVGID_1387_" points="-1.356,-0.484 -1.356,119.516 138.589,119.516 137.138,-0.484 				"/>
			</defs>
			<clipPath id="SVGID_14_">
				<use xlink:href="#SVGID_1387_"  overflow="visible"/>
			</clipPath>
			<g clip-path="url(#SVGID_14_)">
				<path fill="#CCCCCC" d="M-25.137,123.755c0,0,56.503-38.596,156.143-43.016c99.64-4.42,0,44.394,0,44.394l-156.143-3.254
					V123.755z"/>
				<path fill="#9B9B9B" d="M-25.137,123.755c0,0,56.503-28.596,156.143-33.016c99.64-4.42,0,44.394,0,44.394l-156.143-3.254
					V123.755z"/>
				<path fill="#00608B" d="M73.193,38.177c0,0,1.755,8.034,6.768,5.749c0,0,6.946,5.54,10.993-8.398s0.307-19.174,0.307-19.174
					L64.212-0.718l-7.811,11.973l10.274,12.294C66.676,23.549,65.673,37.972,73.193,38.177z"/>
				<path fill="#00608B" d="M119.638,21.503c0,0-1.447,17.287-11.567,18.888c0,0-6.198,13.872-11.914,3.087
					c0,0-2.413,2.447-3.306-3.987c0,0-3.968,8.891-12.317-17.518S96.058-2.419,96.058-2.419l21.523-2.297L119.638,21.503z"/>
				<path fill="#0075A9" d="M59.904,33.526c0,0,6.302,4.541,7.271-3.215c0,0,6.786-0.485,5.817-7.998
					c-0.969-7.513,0.095-0.969,0.095-0.969s6.808-6.302-2.46-10.422s-9.268-4.12-9.268-4.12l-20.499,18.42l-1.462,14.255
					c0,0,5.722,13.211,10.569,2.144c0,0,5.085-1.372,2.179-10.824C52.146,30.795,53.303,41.142,59.904,33.526z"/>
				<path fill="#00608B" d="M-6.802,0.058c0,0-12.012,15.355,4.136,20.402c0,0-0.88,13.066,10.515,13.066
					c0,0,14.17,30.445,31.87,12.903c0,0,13.214-7.038,2.501-17.172c0,0,9.201,5.536,15.204-12.439s-1.024,0-1.024,0
					s16.225,0.803,11.063-11.59c0,0,9.943-5.557-5.684-9.163S-6.802,0.058-6.802,0.058z"/>
				<path fill="#9B9B9B" d="M88.63,66.386c-0.001,3.434-0.001,6.867-0.002,10.301c-0.002,3.11-0.005,6.221-0.007,9.331
					c-0.001,1.274-0.007,2.549,0.005,3.823c0.003,0.302-0.051,0.626,0.123,0.902c-0.91-0.001-1.82-0.003-2.729-0.004
					c-0.176-0.152-0.169-0.376-0.171-0.593c-0.005-0.626-0.002-1.252-0.002-1.878c0-3.923,0-7.846,0-11.769
					c0-0.141,0-0.281,0.01-0.421c-0.021-2.782-0.004-5.563-0.008-8.345c-0.001-0.421-0.012-0.842,0.008-1.263
					c-0.017-0.243-0.009-0.486-0.009-0.729c0-6.871,0-13.741,0-20.612c0-0.243-0.009-0.487,0.049-0.724
					c0.918-1.337,1.587-2.826,2.02-4.455c0.058-0.219,0.146-0.328,0.349-0.305c0.121,0.014,0.243,0.006,0.365,0.007
					c0.124,0.178,0.088,0.39,0.088,0.59c0.003,1.981,0.001,3.962,0.002,5.942c0,0.138-0.016,0.279,0.04,0.456
					c0.358-0.461,0.55-0.985,0.696-1.53c0.183-0.686,0.28-1.389,0.267-2.115c-0.018-0.958-0.007-1.917-0.002-2.875
					c0.001-0.237-0.024-0.457-0.159-0.646c0.354-0.092,0.724-0.105,1.059-0.29c-0.005,1.727,0.037,3.457-0.029,5.18
					c-0.074,1.935-0.674,3.684-1.685,5.23c-0.184,0.282-0.281,0.546-0.28,0.899C88.633,55.792,88.631,61.089,88.63,66.386z"/>
				<path fill="#9B9B9B" d="M117.031,33.701c-0.011-1.035,0.081-2.072-0.067-3.104c-0.179-0.232-0.434-0.377-0.653-0.563
					c-0.001,2.008-0.002,4.015-0.004,6.023c0,0.161-0.016,0.319-0.039,0.48c-0.069,0.487-0.175,0.965-0.27,1.446
					c-0.145,0.73-0.581,1.296-0.949,1.903c-0.002,0.003-0.007,0.005-0.011,0.008c0.003-0.019,0.007-0.037,0.008-0.057
					c0.006-0.093,0.018-0.187,0.018-0.282c0.003-3.517,0.002-7.033,0.001-10.55c0-0.205-0.033-0.402-0.129-0.586
					c-0.296-0.611-0.644-1.203-0.877-1.838c-0.626-1.708-0.39-3.506-0.444-5.269c-0.023-0.761-0.004-1.532,0.019-2.297
					c0.004-0.128-0.015-0.275-0.158-0.29c-0.613-0.064-1.179-0.314-1.778-0.431c-0.186,0.205-0.124,0.46-0.124,0.695
					c-0.004,3.921-0.002,7.843-0.006,11.764c0,0.162,0.057,0.343-0.073,0.486c-0.075-0.027-0.117-0.061-0.148-0.105
					c-0.671-0.955-1.136-1.981-1.151-3.177c-0.01-0.766,0.062-1.535-0.047-2.3c-0.067-0.161-0.237-0.152-0.359-0.223
					c-0.197-0.114-0.325-0.28-0.307-0.515c0.017-0.214,0.167-0.318,0.365-0.362c0.104-0.023,0.207-0.049,0.273-0.143
					c0.087-0.16,0.082-0.337,0.081-0.511c-0.01-2.029,0.006-4.058,0.002-6.087c0-0.204-0.012-0.403-0.129-0.581
					c-0.291-0.294-0.581-0.587-0.872-0.881c-0.005,1.745-0.01,3.49-0.014,5.234c-0.003,1.305-0.005,2.61-0.007,3.915
					c-0.08,0.355,0.184,0.443,0.425,0.548c0.006-0.054,0.04,0.022-0.01,0.001c-0.449-0.161-0.513-0.117-0.523,0.381
					c-0.006,0.319-0.004,0.638-0.002,0.957c-0.007,0.207-0.006,0.415-0.004,0.623c-0.012,0.391,0.055,0.778,0.096,1.164
					c0.088,0.843,0.265,1.668,0.617,2.452c0.409,0.913,0.889,1.779,1.533,2.548c0.149,0.178,0.263,0.373,0.263,0.618
					c-0.003,1.439,0.02,2.877-0.01,4.315c-0.009,8.095,0,16.19-0.002,24.285c0,0.351-0.002,0.702-0.016,1.052
					c0.014,0.18,0.017,0.361,0.031,0.541c0.006,1.279,0.007,2.559,0.001,3.838c-0.004,0.902,0.04,1.804-0.048,2.705
					c-0.034,0.185,0.011,0.356,0.087,0.523c0.13,0.138,0.071,0.308,0.071,0.463c0.003,4.093,0.003,8.187,0.003,12.28
					c0,0.57,0.286,0.855,0.856,0.856c0.472,0.001,0.944,0.001,1.416,0.001c0.667-0.001,0.966-0.306,0.967-0.981
					c0.002-4.504,0.005-9.008,0.007-13.512c0.126-0.19,0.127-0.406,0.127-0.623c0-1.145,0.006-2.289-0.002-3.434
					c-0.006-0.834,0.037-1.669-0.03-2.504c-0.014-0.051-0.026-0.101-0.037-0.151c0.103-0.236,0.067-0.487,0.067-0.732
					c0.002-7.108,0.003-14.216-0.003-21.324c0-0.381,0.035-0.722,0.36-0.977c0.094-0.074,0.162-0.182,0.16-0.315
					c0.109-0.167,0.214-0.336,0.326-0.5c0.569-0.832,0.931-1.754,1.041-2.748C117.099,36.476,117.046,35.086,117.031,33.701z
					 M114.806,44.454c0.016-0.016,0.032-0.032,0.048-0.048c0,0.024,0,0.046,0,0.068c-0.004-0.002-0.006-0.005-0.01-0.006
					C114.831,44.461,114.818,44.457,114.806,44.454z"/>
				<g>
					<path fill="#CCCCCC" d="M25.267,111.546c0.017-3.974,0.111-7.947,0.192-11.92c0.075-3.705,0.101-7.412,0.148-11.118
						c0.136-0.483-0.054-0.949-0.065-1.422c-0.079-3.509,0.091-7.014,0.135-10.521c0.229-0.951,0.043-1.917,0.077-2.876
						c0.054-1.541,0.014-3.085,0.015-4.628c0-0.154-0.031-0.318,0.005-0.461c0.385-1.521-0.277-2.655-1.126-3.773
						c-1.177-1.55-2.05-3.322-2.787-5.134c-1.26-3.1-2.145-6.333-2.387-9.731c-0.041-0.569-0.24-1.142,0.041-1.701
						c-0.127-2.683-0.044-5.368-0.058-8.052c-0.011-2.086-0.01-4.173,0.005-6.259c0.003-0.375-0.099-0.651-0.33-0.931
						c-2.062-2.499-3.274-5.377-3.072-8.752c0.085-1.419-0.339-2.411-1.312-3.299c-0.807-0.737-1.484-1.636-2.278-2.39
						c-1.354-1.286-1.906-2.907-1.912-4.79c-0.005-1.681-0.001-3.361,0-5.042c0.373,0.003,0.421,0.259,0.42,0.582
						c-0.004,1.266,0,2.532,0.007,3.798c0.001,0.246-0.036,0.5,0.069,0.737c0.173,0.136,0.129,0.343,0.154,0.528
						c0.177,1.322,0.683,2.439,1.651,3.331c0.966,0.89,1.773,1.965,2.773,2.821c0.145,0.124,0.209,0.31,0.316,0.464
						c0.173-0.175,0.086-0.4,0.087-0.599c0.007-3.144,0.003-6.287,0.006-9.431c0.001-1.013-0.072-0.816,0.765-0.842
						c0.108-0.003,0.216,0,0.325,0c0.201,0.35,0.162,0.742,0.163,1.123c0.003,3.4,0.002,6.8,0.002,10.199
						c0,1.39,0.056,2.776,0.253,4.152c0.038,0.155,0.072,0.313,0.111,0.467c0.245,1.19,0.953,2.095,1.695,3.074
						c-0.052-0.544-0.085-1.029-0.083-1.515c-0.011-0.323-0.014-0.646-0.006-0.969c0.21-1.143-0.029-2.286-0.002-3.429
						c-0.021-0.351,0-0.702-0.004-1.052c-0.01-0.388-0.007-0.776,0.003-1.164c0.029-0.418-0.124-0.867,0.175-1.241
						c0.017-0.228,0.048-0.457,0.048-0.685c0.003-2.945,0.01-5.89-0.007-8.835c-0.002-0.407,0.096-0.615,0.473-0.735
						c0.623-0.198,1.192-0.539,1.731-0.925c0.238-0.171,0.348-0.091,0.432,0.154c0.188,0.172,0.184,0.412,0.184,0.641
						c0,3.972,0.025,7.944-0.01,11.915c-0.001,0.441,0.023,0.882-0.004,1.322c-0.003,0.401,0.028,0.802-0.001,1.203
						c0.029,1.229,0.021,2.458,0.003,3.687c0.037,0.944,0.014,1.889,0.015,2.833c0.003,4.742,0.007,9.484-0.002,14.226
						c-0.003,1.37,0.004,2.737,0.215,4.091c0.186,1.724,0.755,3.327,1.387,4.906c0.427,1.067,0.991,2.054,1.629,2.992
						c0.125,0.183,0.215,0.406,0.521,0.508c0.167-2.861-0.118-5.709,0.173-8.539c-0.013-0.332-0.066-0.666,0.073-0.984
						c0.107-0.174,0.279-0.237,0.45-0.3c0.691-0.256,0.977-0.786,0.973-1.552c-0.009-1.716-0.003-3.433-0.003-5.15
						c0-0.193-0.004-0.386,0.003-0.579c0.026-0.651,0.072-0.68,0.631-0.405c0.531,0.262,0.948-0.02,0.979-0.701
						c0.038-0.847,0.009-1.697,0.012-2.545c0.001-0.386,0.009-0.772-0.003-1.157c-0.019-0.621-0.26-0.964-0.653-0.946
						c-0.395,0.018-0.632,0.361-0.649,0.97c-0.016,0.578-0.003,1.157-0.006,1.736c-0.001,0.174,0.005,0.348-0.02,0.52
						c-0.019,0.132-0.025,0.288-0.152,0.351c-0.164,0.082-0.27-0.065-0.363-0.172c-0.223-0.256-0.467-0.48-0.754-0.652
						c-0.252-0.151-0.312-0.404-0.316-0.689c-0.007-0.405,0.012-0.81-0.023-1.215c-0.079-3.335,0.082-6.667,0.139-9.999
						c0.037-2.138-0.003-4.278,0.081-6.413c0.081-2.061,0.105-4.121,0.105-6.182c0-0.246-0.019-0.509,0.19-0.695
						c0.15-1.069,0.024-2.15,0.111-3.281c0.605,0.265,1.031,0.732,1.475,1.16c0.894,0.861,1.643,1.894,2.709,2.55
						c0.625,0.385,1.254,0.77,1.942,0.994c0.412,0.134,0.517,0.356,0.501,0.784c-0.016,0.418-0.062,0.847,0.06,1.261
						c0.215,0.21,0.189,0.494,0.183,0.758c-0.065,3.225,0.106,6.447,0.137,9.671c0.025,2.481,0.035,4.965,0.104,7.445
						c0.031,1.099,0.099,2.196,0.078,3.297c0.035,1.376-0.042,2.755,0.108,4.129c0.045,0.413,0.054,0.845-0.152,1.234
						c-0.002,1.192-0.003,2.384-0.005,3.576c0.125,0.156,0.167,0.345,0.159,0.54c-0.046,1.082,0.108,2.154,0.126,3.234
						c0.056,3.354,0.048,6.71,0.131,10.062c0.055,2.217-0.004,4.435,0.091,6.649c0.12,2.811,0.219,5.622,0.204,8.437
						c-0.001,0.212,0.002,0.424-0.014,0.636c0.003,1.985,0.132,3.965,0.135,5.951c0.006,3.256,0.153,6.511,0.074,9.768
						c-0.005,0.214,0.021,0.423,0.078,0.627c0.103,1.434,0.028,2.87,0.046,4.304c-0.002,0.076-0.012,0.153-0.015,0.23
						c-0.054,1.503-0.054,1.503-1.053,2.515c-0.238,0.242-0.389,0.189-0.484-0.171c-0.203-0.763-0.36-0.943-0.77-0.883
						c-0.396,0.059-0.628,0.461-0.611,1.139c0.029,1.154-0.085,2.31,0.088,3.462c0.122,0.811,0.423,1.006,1.091,0.634
						c0.363-0.203,0.466-0.149,0.528,0.286c0.027,0.191,0.017,0.385,0.017,0.577c0.001,1.696,0.01,3.392-0.004,5.088
						c-0.007,0.77,0.279,1.337,0.898,1.718c0.237,0.146,0.47,0.292,0.564,0.593c0.062,0.275,0.101,0.547-0.093,0.786
						C31.991,111.545,28.629,111.545,25.267,111.546z"/>
					<path fill="#9B9B9B" d="M34.059,36.433c0.804-0.56,1.225-1.443,1.594-2.326c0.611-1.459,0.991-2.994,1.012-4.61
						c0.149-0.268,0.088-0.565,0.088-0.849c0.005-4.596,0.008-9.193-0.001-13.789c-0.001-0.447-0.006-0.694,0.565-0.597
						c1.065,0.181,1.071,0.129,1.073,1.312c0.004,2.626,0.011,5.252,0.017,7.879c0.688-0.773,1.448-1.476,2.037-2.347
						c0.073-0.108,0.121-0.233,0.244-0.291c0.172-0.202,0.185-0.462,0.222-0.712c0.014-0.395-0.025-0.8,0.197-1.154
						c0.175-0.365,0.078-0.757,0.084-1.135c0.016-0.985,0.006-1.969,0.005-2.954c0-0.24-0.02-0.494,0.328-0.427
						c0.004,1.655,0.008,3.31,0.012,4.965c-0.004,0.077-0.007,0.155-0.011,0.232c-0.207,1.929-1.465,3.164-2.618,4.451
						c-0.382,0.426-0.536,0.841-0.522,1.424c0.036,1.484,0.036,2.97,0.005,4.454c-0.051,2.468-0.545,4.838-1.471,7.103
						c-0.644,1.575-1.417,3.067-2.448,4.395c-0.091,0.117-0.198,0.22-0.297,0.329C34.123,40.001,34.004,38.219,34.059,36.433z"/>
					<path fill="#9B9B9B" d="M30.22,69.59c-0.064,0.277-0.096,0.462-0.151,0.639c-0.094,0.303-0.327,0.324-0.575,0.294
						c-0.253-0.03-0.317-0.214-0.317-0.451c0-1.254-0.018-2.509,0.005-3.763c0.01-0.55,0.608-1.014,1.201-1.002
						c0.523,0.011,0.927,0.439,0.965,1.019c0.011,0.167-0.046,0.351,0.109,0.507c0.173-0.084,0.099-0.257,0.1-0.384
						c0.008-1.081-0.004-2.162,0.011-3.242c0.008-0.583,0.336-1.059,0.74-1.145c0.599-0.128,1.088,0.099,1.325,0.611
						c0.161,0.349,0.07,0.722,0.094,1.083c0.038,0.544-0.196,1.172,0.449,1.524c0.132,0.072,0.094,0.279,0.094,0.432
						c0,2.219,0.006,4.439-0.007,6.658c-0.002,0.358-0.043,0.746-0.404,0.938c-0.658,0.35-1.141,0.06-1.227-0.723
						c-0.01-0.095-0.009-0.196-0.038-0.284c-0.056-0.168-0.048-0.424-0.318-0.371c-0.231,0.046-0.173,0.263-0.173,0.423
						c-0.005,1.177-0.002,2.354-0.005,3.532c-0.002,0.779-0.357,1.344-0.837,1.338c-0.648-0.008-0.995-0.482-0.996-1.368
						c-0.002-1.718,0.011-3.435-0.013-5.153C30.25,70.369,30.471,70.037,30.22,69.59z"/>
					<path fill="#9B9B9B" d="M35.046,95.678c0.179,1.089,0.063,2.188,0.082,3.281c0.062,3.452,0.09,6.904,0.127,10.357
						c0.005,0.48,0.163,0.951,0.073,1.436c-0.114-0.139-0.19-0.288-0.379-0.377c-0.762-0.358-1.138-0.985-1.127-1.904
						c0.022-1.812,0.007-3.624,0.001-5.437c-0.001-0.183,0.056-0.381-0.088-0.598c-0.202,0.174-0.338,0.433-0.645,0.445
						c-0.55,0.022-0.833-0.229-0.897-0.813c-0.143-1.304-0.059-2.613-0.076-3.919c-0.009-0.728,0.342-1.115,0.907-1.088
						c0.554,0.027,0.766,0.354,0.74,1.14c-0.003,0.082,0.019,0.151,0.14,0.204c0.258-0.457,0.537-0.914,1.031-1.149
						c0.136-0.065,0.083-0.239,0.086-0.368C35.034,96.487,35.039,96.082,35.046,95.678z"/>
					<path fill="#9B9B9B" d="M26.354,47.567c0.039-3.102,0.064-6.204,0.125-9.305c0.02-1.036-0.099-2.076,0.078-3.107
						c0.009,0.115,0.028,0.23,0.027,0.345c-0.003,0.647-0.168,1.347,0.667,1.628c0.236,0.079,0.378,0.385,0.621,0.607
						c0-0.778,0-1.556,0-2.334c0-0.193-0.014-0.388,0.006-0.579c0.05-0.484,0.395-0.82,0.836-0.814
						c0.487,0.007,0.756,0.348,0.768,0.803c0.035,1.428,0.023,2.858,0.007,4.287c-0.004,0.35-0.193,0.592-0.528,0.722
						c-0.452,0.176-0.748-0.067-1.09-0.439c0,2.19-0.005,4.304,0.004,6.418c0.002,0.446-0.102,0.833-0.372,1.173
						C27.202,47.354,26.755,47.408,26.354,47.567z"/>
				</g>
				<g>
					<path fill="#9B9B9B" d="M54.976,95.141c-1.33,0.001-2.659,0.002-3.989,0.003c0.001-13.871,0-27.741,0.014-41.612
						c0.001-0.687-0.227-1.197-0.701-1.678c-1.253-1.275-2.482-2.574-3.7-3.884c-0.911-0.979-1.187-2.257-1.546-3.488
						c-0.039-0.135,0.147-0.17,0.268-0.197c0.182,0.142,0.364,0.285,0.546,0.428c1.124,1.844,2.45,3.522,4.079,4.95
						c0.163,0.143,0.29,0.34,0.613,0.386c0.213-0.587,0.184-1.207,0.205-1.824c0.017-0.495-0.125-1.018,0.21-1.469
						c0-4.317,0.003-8.635-0.001-12.952c0-0.601-0.1-1.017,0.835-0.605c0.949,0.418,2.059,0.541,3.141,0.504
						c0.334,0.276,0.326,0.669,0.326,1.041c0.002,4.025,0.044,8.05-0.017,12.074c0.007,2.898-0.006,5.797,0.104,8.723
						c0.779-1.037,1.2-2.207,1.222-3.501c0.033-1.86,0.002-3.721,0.011-5.584c-0.059-3.968-0.019-7.936-0.02-11.903
						c0-0.374-0.013-0.764,0.283-1.065c0.116-0.389,0.406-0.604,0.772-0.493c0.342,0.104,0.181,0.484,0.202,0.747
						c0.104,1.304-0.211,2.628,0.178,3.92c0.455,0.545,0.138,1.143,0.122,1.722c-0.009,0.304-0.11,0.709,0.23,0.842
						c0.295,0.115,0.485-0.239,0.654-0.449c0.826-1.025,1.897-1.83,2.559-3.011c0.478-0.854,0.736-1.727,0.737-2.691
						c0.002-1.227-0.004-2.454,0.004-3.681c0.002-0.375-0.032-0.762,0.244-1.077c0.611-0.232,0.384,0.277,0.399,0.491
						c0.068,0.971-0.123,1.956,0.171,2.914c-0.348,0.738-0.02,1.512-0.116,2.282c-0.191,1.534-0.682,2.831-1.799,3.917
						c-1.101,1.071-2.142,2.205-3.209,3.311c-0.084,1.466-0.224,2.916,0.163,4.386c0.288,1.095,0.177,2.259,0.023,3.389
						c-0.086,0.63-0.127,1.257-0.047,1.887c0.325,2.562-0.688,4.757-1.924,6.871c-0.345,0.59-0.896,1.056-1.055,1.768
						c-0.061,0.271-0.256,0.428-0.558,0.397c-0.609-0.275-0.395-0.85-0.483-1.318c-0.06-0.319,0.019-0.781-0.487-0.756
						c-0.401,0.02-0.453,0.413-0.448,0.723c0.02,1.344-0.149,2.687,0.231,4.029c0.309,1.094,0.087,2.253,0.122,3.383
						c0.016,0.503-0.004,1.007,0.009,1.51c0.023,0.905,0.236,1.69,1.237,1.993c0.151,0.046,0.266,0.164,0.342,0.312
						c0.193,0.453,0.155,0.931,0.155,1.402c0.003,7.133,0.005,14.266-0.003,21.398C55.285,94.132,55.386,94.692,54.976,95.141z"/>
					<path fill="#CCCCCC" d="M54.619,60.817c0.395,0.277,0.358,0.691,0.357,1.1c-0.004,2.92-0.004,5.84-0.005,8.759
						c-0.944,0.064-1.494-0.353-1.604-1.311c-0.014-0.124-0.081-0.248-0.07-0.368c0.281-3.198-0.534-6.348-0.403-9.539
						c0.008-0.188-0.019-0.393,0.046-0.559c0.142-0.36,0.476-0.528,0.83-0.502c0.433,0.032,0.618,0.347,0.666,0.778
						C54.496,59.723,54.24,60.307,54.619,60.817z"/>
					<path fill="#CCCCCC" d="M53.463,39.521c0,0.502,0.008,1.003-0.003,1.505c-0.007,0.365-0.186,0.608-0.574,0.593
						c-0.361-0.014-0.721-0.114-0.728-0.562c-0.018-1.065-0.015-2.131,0.003-3.197c0.007-0.394,0.316-0.538,0.649-0.528
						c0.35,0.01,0.601,0.25,0.627,0.592c0.04,0.53,0.011,1.065,0.011,1.597C53.453,39.521,53.458,39.521,53.463,39.521z"/>
				</g>
				<path fill="#0075A9" d="M4.38,0.473c0,0-2.872,10.273,6.177,8.251c0,0,4.069,6.393,11.981-1.39c0,0,5.967,13.928,16.859,6.418
					c0,0,4.123,7.947,9.7-1.743c0,0,9.025-5.076,4.994-11.535S4.38,0.473,4.38,0.473z"/>
				<path fill="#CCCCCC" d="M108.969,37.528c-0.014-1.263,0.099-2.53-0.082-3.789c-0.219-0.283-0.529-0.46-0.797-0.688
					c-0.001,2.45-0.002,4.901-0.005,7.351c0,0.196-0.02,0.389-0.048,0.586c-0.085,0.594-0.214,1.177-0.33,1.765
					c-0.176,0.891-0.709,1.582-1.159,2.323c-0.003,0.004-0.008,0.006-0.013,0.009c0.003-0.023,0.008-0.046,0.01-0.07
					c0.007-0.114,0.021-0.229,0.021-0.344c0.004-4.293,0.002-8.585,0.002-12.878c0-0.25-0.041-0.491-0.157-0.715
					c-0.361-0.746-0.786-1.469-1.07-2.243c-0.764-2.085-0.477-4.28-0.542-6.431c-0.028-0.929-0.005-1.869,0.023-2.804
					c0.005-0.156-0.018-0.336-0.193-0.354c-0.748-0.079-1.439-0.384-2.17-0.526c-0.227,0.251-0.152,0.561-0.152,0.849
					c-0.005,4.787-0.003,9.573-0.007,14.36c0,0.197,0.069,0.419-0.089,0.593c-0.091-0.033-0.143-0.074-0.181-0.129
					c-0.819-1.166-1.386-2.418-1.405-3.878c-0.012-0.935,0.076-1.873-0.058-2.807c-0.081-0.197-0.289-0.186-0.438-0.272
					c-0.24-0.139-0.397-0.342-0.375-0.629c0.02-0.262,0.204-0.388,0.446-0.442c0.127-0.028,0.253-0.059,0.333-0.175
					c0.106-0.195,0.1-0.411,0.099-0.624c-0.012-2.476,0.007-4.953,0.002-7.429c0-0.249-0.015-0.493-0.158-0.709
					c-0.355-0.359-0.71-0.717-1.065-1.076c-0.006,2.13-0.012,4.259-0.017,6.389c-0.004,1.593-0.006,3.186-0.008,4.779
					c-0.098,0.433,0.225,0.54,0.519,0.669c0.007-0.065,0.048,0.026-0.012,0.001c-0.548-0.196-0.626-0.142-0.638,0.465
					c-0.008,0.389-0.005,0.779-0.003,1.168c-0.009,0.253-0.007,0.507-0.005,0.76c-0.015,0.478,0.068,0.95,0.117,1.421
					c0.108,1.029,0.324,2.036,0.753,2.992c0.5,1.114,1.085,2.171,1.872,3.11c0.181,0.217,0.321,0.455,0.321,0.754
					c-0.004,1.756,0.024,3.512-0.012,5.267c-0.01,9.88,0,19.762-0.003,29.643c0,0.428-0.002,0.856-0.02,1.284
					c0.017,0.22,0.02,0.441,0.037,0.661c0.007,1.561,0.009,3.123,0.001,4.684c-0.005,1.1,0.048,2.202-0.059,3.301
					c-0.042,0.226,0.013,0.435,0.106,0.638c0.159,0.168,0.087,0.376,0.087,0.566c0.004,4.996,0.003,9.993,0.004,14.99
					c0,0.696,0.349,1.043,1.045,1.045c0.576,0.001,1.152,0.002,1.728,0.001c0.814-0.001,1.18-0.373,1.18-1.197
					c0.003-5.498,0.006-10.995,0.009-16.493c0.154-0.233,0.155-0.496,0.155-0.76c0-1.397,0.007-2.794-0.003-4.191
					c-0.007-1.018,0.046-2.038-0.036-3.056c-0.017-0.062-0.032-0.123-0.046-0.185c0.126-0.288,0.081-0.594,0.081-0.893
					c0.003-8.676,0.004-17.352-0.003-26.028c0-0.466,0.042-0.882,0.439-1.193c0.115-0.09,0.197-0.222,0.195-0.384
					c0.132-0.203,0.261-0.41,0.398-0.61c0.695-1.016,1.137-2.141,1.271-3.354C109.051,40.915,108.987,39.219,108.969,37.528z
					 M106.252,50.653c0.02-0.02,0.039-0.039,0.059-0.059c0,0.029,0,0.056,0,0.083c-0.004-0.002-0.007-0.006-0.012-0.008
					C106.283,50.662,106.268,50.657,106.252,50.653z"/>
				<path fill="#00608B" d="M109.128,22.743c0,0,4.384,15.784,13.896,9.092c0,0,5.451,4.955,9.111-5.485
					c3.66-10.439,0-2.801,0-2.801s4.816,3.807,7.625-6.73s0-21.597,0-21.597l-32.222-13.419L109.128,22.743z"/>
				<path fill="#0075A9" d="M65.652-4.118c0,0,2.154,14.529,7.734,13.356c0,0,6.263,20.73,22.688,8.5c0,0,8.184,15.312,21.824,7.366
					s-4.263-27.829-4.263-27.829L65.652-4.118z"/>
			</g>
		</g>
	</g>
</g>
</svg>
