<?xml version="1.0" encoding="utf-8"?>
<!-- Generator: Adobe Illustrator 17.0.0, SVG Export Plug-In . SVG Version: 6.00 Build 0)  -->
<!DOCTYPE svg PUBLIC "-//W3C//DTD SVG 1.1//EN" "http://www.w3.org/Graphics/SVG/1.1/DTD/svg11.dtd">
<svg version="1.1" id="Layer_1" xmlns="http://www.w3.org/2000/svg" xmlns:xlink="http://www.w3.org/1999/xlink" x="0px" y="0px"
	 width="581.238px" height="253.981px" viewBox="0 0 581.238 253.981" enable-background="new 0 0 581.238 253.981"
	 xml:space="preserve">
<rect x="78.289" y="37.691" fill="#FFFFFF" width="414" height="163"/>
<g>
	<defs>
		<polygon id="SVGID_22_" points="-590.711,-280.309 -590.711,-76.309 -407.923,-76.309 -353.486,-280.309 		"/>
	</defs>
	<clipPath id="SVGID_2_">
		<use xlink:href="#SVGID_22_"  overflow="visible"/>
	</clipPath>
	<g clip-path="url(#SVGID_2_)">
	</g>
</g>
<g>
	<defs>
		<polygon id="SVGID_2078_" points="-591.217,18.93 -591.217,224.411 -412.041,224.411 -356.623,19.888 		"/>
	</defs>
	<clipPath id="SVGID_4_">
		<use xlink:href="#SVGID_2078_"  overflow="visible"/>
	</clipPath>
	<g clip-path="url(#SVGID_4_)">
		<defs>
			<rect id="SVGID_2080_" x="-712.695" y="-1844.685" width="1923.24" height="3789.385"/>
		</defs>
		<clipPath id="SVGID_6_">
			<use xlink:href="#SVGID_2080_"  overflow="visible"/>
		</clipPath>
	</g>
</g>
<g>
	<polygon opacity="0.5" fill="#B25538" points="222.201,37.691 183.798,200.691 332.014,200.691 368.403,37.691 	"/>
	<polygon opacity="0.3" fill="#B25538" points="78.289,37.691 78.289,200.691 180.859,200.691 219.262,37.691 	"/>
	<polygon opacity="0.7" fill="#B25538" points="492.289,37.691 371.342,37.691 334.954,200.691 492.289,200.691 	"/>
	<g>
		<defs>
			<polygon id="SVGID_2454_" points="78.289,37.691 78.289,200.691 180.859,200.691 219.262,37.691 			"/>
		</defs>
		<clipPath id="SVGID_8_">
			<use xlink:href="#SVGID_2454_"  overflow="visible"/>
		</clipPath>
	</g>
	<path fill="#B25538" d="M317.747,201.392c-24.966,0-49.933,0-74.899,0c1.155-0.842,2.359-1.625,3.457-2.536
		c5.648-4.683,7.905-11.397,4.682-18.522c-0.256,0.021-0.538,0.024-0.812,0.07c-4.383,0.726-8.767,1.447-13.147,2.191
		c-3.43,0.583-6.791,0.605-9.924-1.189c-3.79-2.169-5.133-4.321-4.12-8.079c0.335-1.244,0.577-2.513,0.849-3.774
		c0.23-1.067,0.106-2.017-0.667-2.901c-0.799-0.913-1.487-1.93-2.168-2.938c-1.79-2.651-2.39-5.446-1.192-8.558
		c0.402-1.045,0.483-2.238,0.568-3.373c0.111-1.486-0.012-1.546-1.486-1.959c-2.448-0.686-4.908-1.334-6.949-2.992
		c-0.928-0.754-1.252-1.672-0.878-2.76c0.452-1.317,0.885-2.67,1.559-3.877c2.668-4.784,5.263-9.623,8.228-14.22
		c1.315-2.039,1.626-3.515,0.266-5.599c-1.659-2.542-2.351-5.468-1.9-8.534c0.495-3.362,0.925-6.749,1.692-10.053
		c1.293-5.569,3.462-10.839,6.035-15.942c1.562-3.097,3.514-5.932,6.003-8.327c5.775-5.558,12.87-8.443,20.654-9.793
		c2.571-0.446,5.173-0.714,7.761-1.064c3.013,0,6.026,0,9.04,0c0.456,0.072,0.911,0.161,1.369,0.212
		c3.027,0.336,6.087,0.484,9.075,1.03c8.108,1.481,15.121,5.266,21.134,10.822c5.316,4.913,9.369,10.761,12.354,17.387
		c3.176,7.049,3.993,14.343,2.973,21.947c-0.988,7.363-3.069,14.388-6.758,20.82c-3.202,5.584-6.794,10.944-10.22,16.399
		c-1.643,2.616-3.31,5.25-3.678,8.388c-0.472,4.035,0.415,7.92,1.773,11.689c2.504,6.952,6.639,12.906,11.595,18.299
		C312.48,196.335,315.163,198.818,317.747,201.392z M290.874,116.264c1.404-2.121,2.725-4.15,4.1-6.141
		c0.129-0.186,0.619-0.231,0.911-0.177c1.222,0.224,2.432,0.51,3.753,0.797c0.517-2.252,1.03-4.405,1.476-6.571
		c0.037-0.179-0.336-0.583-0.585-0.656c-0.96-0.281-1.942-0.5-2.927-0.68c-0.618-0.113-0.736-0.439-0.82-1.022
		c-0.283-1.978-0.621-3.953-1.046-5.905c-0.141-0.645-0.062-0.966,0.501-1.294c1.066-0.621,2.09-1.316,3.157-1.996
		c-1.188-1.918-2.31-3.705-3.401-5.511c-0.286-0.473-0.553-0.57-1.031-0.263c-1.08,0.696-2.185,1.354-3.126,1.934
		c-2.161-1.549-4.213-3.02-6.374-4.57c0.245-1.022,0.523-2.203,0.813-3.382c0.122-0.498,0.174-0.888-0.512-1.034
		c-1.822-0.388-3.633-0.828-5.446-1.256c-0.649-0.154-1.085-0.085-1.196,0.727c-0.116,0.849-0.408,1.672-0.536,2.52
		c-0.116,0.766-0.44,1.011-1.249,1.096c-1.878,0.197-3.756,0.502-5.592,0.943c-0.78,0.187-1.154,0.125-1.541-0.568
		c-0.584-1.047-1.268-2.038-1.92-3.069c-2.125,1.338-4.109,2.587-6.137,3.864c0.713,1.14,1.312,2.156,1.972,3.13
		c0.353,0.522,0.348,0.845-0.075,1.386c-1.227,1.57-2.373,3.208-3.473,4.87c-0.357,0.539-0.66,0.732-1.291,0.566
		c-1.169-0.307-2.357-0.54-3.653-0.829c-0.527,2.246-1.057,4.43-1.52,6.628c-0.035,0.165,0.369,0.553,0.628,0.625
		c0.999,0.279,2.04,0.414,3.025,0.73c0.319,0.102,0.668,0.565,0.737,0.916c0.395,1.991,0.685,4.002,1.068,5.995
		c0.108,0.564,0.096,0.907-0.475,1.223c-1.085,0.601-2.114,1.303-3.246,2.014c1.318,2.107,2.565,4.102,3.848,6.153
		c1.156-0.72,2.227-1.427,3.343-2.054c0.259-0.145,0.765-0.159,0.994,0.001c1.754,1.219,3.483,2.476,5.179,3.774
		c0.26,0.199,0.477,0.691,0.432,1.007c-0.151,1.061-0.457,2.098-0.64,3.156c-0.04,0.233,0.132,0.702,0.285,0.74
		c2.177,0.53,4.368,1.005,6.624,1.508c0.131-0.633,0.216-1.159,0.35-1.673c0.235-0.898,0.279-1.979,0.829-2.614
		c0.369-0.426,1.473-0.215,2.248-0.289c0.036-0.003,0.071-0.009,0.106-0.016c1.704-0.337,3.409-0.673,5.137-1.015
		c0.758,1.189,1.541,2.416,2.388,3.744c2.084-1.297,4.071-2.534,6.142-3.824C292.276,118.544,291.511,117.299,290.874,116.264z
		 M273.143,128.047c-0.885,1.384-1.683,2.633-2.502,3.914c0.823,0.588,1.92,0.969,2.169,1.657c0.268,0.739-0.274,1.764-0.436,2.67
		c-0.088,0.493-0.041,1.024-0.205,1.484c-0.117,0.328-0.436,0.706-0.751,0.817c-0.661,0.232-1.378,0.303-2.193,0.465
		c0.341,1.541,0.662,2.991,0.989,4.469c0.377-0.026,0.662-0.024,0.939-0.068c1.93-0.307,1.751-0.162,3.017,1.379
		c1.339,1.63,2.07,3.008-0.008,4.672c1.466,0.946,2.734,1.764,4.009,2.587c0.193-0.242,0.289-0.346,0.368-0.464
		c1.253-1.869,1.249-1.856,3.363-1.354c0.518,0.123,1.065,0.18,1.598,0.178c0.841-0.003,1.325,0.263,1.386,1.199
		c0.038,0.582,0.288,1.15,0.454,1.769c0.992-0.188,1.872-0.33,2.74-0.524c2.028-0.451,1.868-0.083,1.379-2.156
		c-0.196-0.831-0.116-1.341,0.753-1.667c0.526-0.197,1.004-0.552,1.464-0.89c1.644-1.21,1.629-1.205,3.45-0.179
		c0.245,0.138,0.805,0.185,0.901,0.049c0.795-1.124,1.515-2.301,2.27-3.482c-0.296-0.227-0.491-0.382-0.691-0.53
		c-1.633-1.207-1.392-1.183-1.197-3.19c0.208-2.139,0.747-3.571,3.334-3.283c-0.37-1.675-0.692-3.127-1.032-4.665
		c-0.791,0.15-1.484,0.338-2.188,0.389c-0.324,0.023-0.808-0.123-0.978-0.363c-0.821-1.16-1.559-2.378-2.356-3.622
		c0.441-0.739,0.912-1.527,1.438-2.408c-1.304-0.85-2.548-1.661-3.848-2.509c-0.476,0.696-0.829,1.324-1.297,1.849
		c-0.22,0.248-0.681,0.456-0.996,0.413c-1.164-0.158-2.32-0.397-3.461-0.676c-0.309-0.076-0.684-0.344-0.807-0.622
		c-0.309-0.698-0.29-1.808-0.78-2.087c-0.535-0.303-1.495,0.145-2.27,0.266c-0.035,0.006-0.07,0.013-0.105,0.022
		c-2.235,0.548-2.069,0.079-1.529,2.341c0.164,0.686,0.091,1.083-0.604,1.454c-0.938,0.501-1.809,1.149-2.642,1.818
		c-0.479,0.385-0.849,0.428-1.332,0.085C274.384,128.849,273.789,128.475,273.143,128.047z"/>
	<path opacity="0.3" fill="#B25538" d="M290.874,116.264c0.636,1.035,1.401,2.28,2.236,3.638c-2.071,1.289-4.059,2.526-6.142,3.824
		c-0.847-1.328-1.63-2.556-2.388-3.744c-1.729,0.342-3.433,0.678-5.137,1.015c-0.035,0.007-0.071,0.013-0.106,0.016
		c-0.775,0.074-1.879-0.137-2.248,0.289c-0.55,0.635-0.594,1.716-0.829,2.614c-0.134,0.513-0.22,1.039-0.35,1.673
		c-2.256-0.503-4.446-0.978-6.624-1.508c-0.153-0.037-0.325-0.506-0.285-0.74c0.183-1.057,0.489-2.095,0.64-3.156
		c0.045-0.316-0.172-0.808-0.432-1.007c-1.696-1.298-3.425-2.555-5.179-3.774c-0.23-0.16-0.736-0.146-0.994-0.001
		c-1.116,0.627-2.187,1.334-3.343,2.054c-1.283-2.051-2.531-4.046-3.848-6.153c1.132-0.71,2.161-1.413,3.246-2.014
		c0.57-0.316,0.583-0.658,0.475-1.223c-0.383-1.993-0.673-4.005-1.068-5.995c-0.07-0.351-0.418-0.814-0.737-0.916
		c-0.984-0.316-2.026-0.451-3.025-0.73c-0.259-0.072-0.663-0.461-0.628-0.625c0.464-2.198,0.993-4.382,1.52-6.628
		c1.295,0.289,2.484,0.522,3.653,0.829c0.631,0.166,0.934-0.027,1.291-0.566c1.1-1.663,2.246-3.301,3.473-4.87
		c0.423-0.541,0.429-0.865,0.075-1.386c-0.66-0.974-1.259-1.99-1.972-3.13c2.028-1.277,4.013-2.526,6.137-3.864
		c0.652,1.031,1.336,2.022,1.92,3.069c0.387,0.693,0.761,0.756,1.541,0.568c1.835-0.441,3.714-0.746,5.592-0.943
		c0.809-0.085,1.133-0.33,1.249-1.096c0.129-0.848,0.421-1.672,0.536-2.52c0.111-0.812,0.547-0.881,1.196-0.727
		c1.813,0.429,3.624,0.869,5.446,1.256c0.686,0.146,0.634,0.536,0.512,1.034c-0.29,1.178-0.568,2.36-0.813,3.382
		c2.161,1.549,4.213,3.02,6.374,4.57c0.942-0.58,2.046-1.238,3.126-1.934c0.477-0.307,0.745-0.21,1.031,0.263
		c1.091,1.806,2.213,3.593,3.401,5.511c-1.067,0.68-2.09,1.375-3.157,1.996c-0.563,0.328-0.642,0.649-0.501,1.294
		c0.426,1.952,0.763,3.926,1.046,5.905c0.084,0.584,0.202,0.909,0.82,1.022c0.985,0.18,1.966,0.4,2.927,0.68
		c0.249,0.073,0.622,0.477,0.585,0.656c-0.446,2.167-0.959,4.32-1.476,6.571c-1.321-0.287-2.531-0.573-3.753-0.797
		c-0.292-0.054-0.783-0.009-0.911,0.177C293.599,112.114,292.278,114.143,290.874,116.264z M277.588,88.973
		c-7.144,0.025-13.074,5.899-12.98,13.004c0.097,7.345,5.772,13.039,13.101,13.01c7.165-0.029,12.909-5.755,12.911-13.073
		C290.623,94.769,284.739,88.948,277.588,88.973z"/>
	<path opacity="0.7" fill="#B25538" d="M273.143,128.047c0.646,0.428,1.241,0.802,1.812,1.208c0.483,0.343,0.853,0.3,1.332-0.085
		c0.832-0.669,1.704-1.317,2.642-1.818c0.695-0.371,0.768-0.768,0.604-1.454c-0.541-2.262-0.706-1.793,1.529-2.341
		c0.035-0.009,0.07-0.016,0.105-0.022c0.775-0.121,1.736-0.569,2.27-0.266c0.491,0.278,0.471,1.389,0.78,2.087
		c0.123,0.278,0.499,0.547,0.807,0.622c1.142,0.279,2.298,0.518,3.461,0.676c0.315,0.043,0.776-0.166,0.996-0.413
		c0.468-0.526,0.821-1.153,1.297-1.849c1.3,0.848,2.544,1.659,3.848,2.509c-0.526,0.881-0.997,1.67-1.438,2.408
		c0.797,1.244,1.536,2.462,2.356,3.622c0.17,0.24,0.654,0.386,0.978,0.363c0.703-0.051,1.397-0.239,2.188-0.389
		c0.34,1.538,0.661,2.99,1.032,4.665c-2.587-0.288-3.126,1.144-3.334,3.283c-0.195,2.007-0.436,1.983,1.197,3.19
		c0.2,0.148,0.395,0.303,0.691,0.53c-0.755,1.181-1.475,2.358-2.27,3.482c-0.096,0.136-0.656,0.089-0.901-0.049
		c-1.82-1.026-1.806-1.031-3.45,0.179c-0.46,0.338-0.938,0.693-1.464,0.89c-0.869,0.326-0.949,0.836-0.753,1.667
		c0.49,2.073,0.65,1.704-1.379,2.156c-0.869,0.193-1.749,0.336-2.74,0.524c-0.166-0.618-0.416-1.187-0.454-1.769
		c-0.061-0.936-0.545-1.202-1.386-1.199c-0.533,0.002-1.08-0.055-1.598-0.178c-2.114-0.502-2.11-0.515-3.363,1.354
		c-0.078,0.117-0.175,0.222-0.368,0.464c-1.275-0.823-2.544-1.641-4.009-2.587c2.078-1.663,1.348-3.041,0.008-4.672
		c-1.266-1.541-1.087-1.686-3.017-1.379c-0.277,0.044-0.562,0.042-0.939,0.068c-0.327-1.478-0.648-2.929-0.989-4.469
		c0.815-0.161,1.532-0.232,2.193-0.465c0.315-0.111,0.634-0.489,0.751-0.817c0.164-0.46,0.117-0.992,0.205-1.484
		c0.162-0.905,0.703-1.93,0.436-2.67c-0.249-0.688-1.346-1.069-2.169-1.657C271.46,130.681,272.258,129.431,273.143,128.047z
		 M276.128,138.313c0.042,4.648,3.729,8.295,8.367,8.275c4.689-0.02,8.374-3.757,8.315-8.432c-0.059-4.617-3.803-8.274-8.418-8.22
		C279.747,129.989,276.086,133.7,276.128,138.313z"/>
	<path fill="#B25538" d="M277.588,88.973c7.151-0.025,13.034,5.796,13.032,12.941c-0.002,7.318-5.747,13.044-12.911,13.073
		c-7.328,0.03-13.003-5.664-13.101-13.01C264.514,94.873,270.444,88.999,277.588,88.973z"/>
	<path fill="#B25538" d="M276.128,138.313c-0.042-4.613,3.619-8.324,8.263-8.377c4.615-0.053,8.36,3.603,8.418,8.22
		c0.059,4.674-3.626,8.412-8.315,8.432C279.857,146.608,276.17,142.961,276.128,138.313z"/>
	<path opacity="0.26" fill="#FFFFFF" d="M248.885,122.616c0.461,0.306,0.886,0.573,1.294,0.863c0.345,0.245,0.609,0.214,0.952-0.061
		c0.595-0.478,1.217-0.94,1.887-1.298c0.496-0.265,0.549-0.549,0.431-1.039c-0.386-1.616-0.504-1.281,1.092-1.672
		c0.025-0.006,0.05-0.012,0.075-0.016c0.554-0.086,1.24-0.406,1.622-0.19c0.35,0.199,0.336,0.992,0.557,1.49
		c0.088,0.199,0.356,0.391,0.577,0.444c0.815,0.199,1.641,0.37,2.473,0.483c0.225,0.031,0.554-0.118,0.712-0.295
		c0.334-0.375,0.586-0.824,0.926-1.321c0.929,0.606,1.817,1.185,2.749,1.792c-0.376,0.629-0.712,1.193-1.027,1.72
		c0.57,0.888,1.097,1.759,1.683,2.587c0.121,0.172,0.467,0.276,0.698,0.259c0.502-0.036,0.998-0.171,1.563-0.278
		c0.243,1.099,0.472,2.136,0.737,3.332c-1.848-0.206-2.233,0.817-2.382,2.345c-0.14,1.433-0.311,1.416,0.855,2.278
		c0.143,0.106,0.282,0.216,0.493,0.379c-0.54,0.844-1.054,1.684-1.622,2.487c-0.069,0.097-0.468,0.064-0.644-0.035
		c-1.3-0.733-1.29-0.736-2.464,0.128c-0.328,0.242-0.67,0.495-1.045,0.636c-0.621,0.233-0.678,0.597-0.538,1.191
		c0.35,1.481,0.464,1.218-0.985,1.54c-0.62,0.138-1.249,0.24-1.957,0.374c-0.119-0.442-0.297-0.848-0.324-1.263
		c-0.043-0.668-0.389-0.859-0.99-0.857c-0.381,0.001-0.771-0.039-1.141-0.127c-1.51-0.359-1.507-0.368-2.402,0.967
		c-0.056,0.084-0.125,0.159-0.263,0.331c-0.911-0.588-1.817-1.172-2.864-1.848c1.485-1.188,0.963-2.172,0.006-3.337
		c-0.905-1.101-0.776-1.204-2.155-0.985c-0.198,0.031-0.401,0.03-0.671,0.049c-0.234-1.056-0.463-2.092-0.706-3.192
		c0.582-0.115,1.095-0.166,1.566-0.332c0.225-0.079,0.453-0.349,0.536-0.584c0.117-0.329,0.083-0.708,0.146-1.06
		c0.115-0.647,0.502-1.379,0.311-1.907c-0.178-0.491-0.961-0.764-1.549-1.184C247.683,124.497,248.253,123.605,248.885,122.616z"/>
	<path fill="#B25538" d="M251.017,129.949c-0.03-3.295,2.585-5.946,5.902-5.984c3.297-0.038,5.971,2.574,6.013,5.872
		c0.042,3.339-2.59,6.008-5.939,6.023C253.681,135.874,251.047,133.269,251.017,129.949z"/>
	<g>
		<defs>
			<polygon id="SVGID_2456_" points="78.289,37.691 78.289,200.691 180.859,200.691 219.262,37.691 			"/>
		</defs>
		<clipPath id="SVGID_10_">
			<use xlink:href="#SVGID_2456_"  overflow="visible"/>
		</clipPath>
		<g clip-path="url(#SVGID_10_)">
			<path fill="#B25538" d="M112.178,185.3c-16.59,0-33.181,0.003-49.771-0.002c-3.496-0.001-3.563-0.071-3.564-3.539
				c-0.004-23.447-0.004-46.893,0-70.34c0.001-3.469,0.068-3.54,3.563-3.54c33.096-0.004,66.193-0.004,99.289,0
				c3.527,0,3.535,0.015,3.535,3.413c0.003,23.531,0.003,47.063,0,70.594c0,3.398-0.009,3.412-3.535,3.413
				C145.19,185.303,128.684,185.3,112.178,185.3z M111.957,180.842c15.065,0,30.131,0.004,45.196-0.003
				c3.551-0.002,3.56-0.019,3.56-3.415c0.003-20.567,0.003-41.134,0-61.701c-0.001-3.358-0.01-3.384-3.335-3.384
				c-30.131-0.007-60.262-0.007-90.393,0c-3.662,0.001-3.683,0.03-3.684,3.667c-0.006,20.398-0.006,40.795,0,61.193
				c0.001,3.608,0.023,3.636,3.712,3.639C81.995,180.847,96.976,180.841,111.957,180.842z"/>
			<path fill="#B25538" d="M136.054,175.738c0-3.595-0.064-7.192,0.026-10.786c0.047-1.876-0.394-3.271-1.87-4.648
				c-3.96-3.695-3.886-9.813-0.088-13.613c3.656-3.658,9.751-3.695,13.507-0.082c3.862,3.714,4.022,9.862,0.099,13.592
				c-1.514,1.44-2.069,2.879-1.982,4.866c0.118,2.698,0.052,5.405,0.012,8.108c-0.012,0.797,0.278,1.696-0.678,2.532
				c-1.038-1.331-2.085-2.622-3.074-3.956c-0.763-1.03-1.424-0.995-2.168,0.009c-1.036,1.398-2.112,2.766-3.171,4.147
				C136.464,175.851,136.259,175.795,136.054,175.738z"/>
			<path fill="#B25538" d="M110.948,125.712c-11.936,0-23.871,0.001-35.807-0.001c-0.762,0-1.525,0.013-2.285-0.03
				c-1.115-0.063-2.075-0.441-2.012-1.761c0.058-1.2,1.039-1.416,2.014-1.484c0.674-0.047,1.354-0.039,2.031-0.039
				c24.04-0.002,48.081-0.014,72.121,0.031c1.453,0.003,3.856-0.75,3.932,1.504c0.086,2.56-2.431,1.738-3.934,1.745
				C134.988,125.739,122.968,125.712,110.948,125.712z"/>
			<path fill="#B25538" d="M108.697,137.037c-8.97,0-17.939,0.001-26.909-0.003c-0.761,0-1.525,0.003-2.282-0.063
				c-0.967-0.084-1.602-0.584-1.547-1.627c0.047-0.897,0.619-1.359,1.488-1.421c0.674-0.048,1.353-0.046,2.029-0.046
				c18.278-0.002,36.556-0.002,54.834-0.001c0.508,0,1.015,0.003,1.523,0.014c1.033,0.022,1.918,0.365,1.944,1.53
				c0.026,1.175-0.853,1.545-1.886,1.584c-0.761,0.029-1.523,0.031-2.284,0.031C126.636,137.038,117.667,137.037,108.697,137.037z"
				/>
			<path fill="#B25538" d="M98.738,152.882c5.148,0,10.297-0.019,15.445,0.014c1.137,0.007,2.668-0.2,2.756,1.456
				c0.095,1.792-1.445,1.818-2.721,1.82c-10.381,0.019-20.762,0.019-31.143-0.001c-1.172-0.002-2.545,0.049-2.586-1.666
				c-0.043-1.836,1.428-1.599,2.551-1.607C88.272,152.862,93.505,152.883,98.738,152.882z"/>
			<path fill="#B25538" d="M98.491,167.216c-5.154,0-10.307,0.021-15.461-0.017c-1.131-0.008-2.579,0.193-2.555-1.628
				c0.024-1.759,1.415-1.644,2.575-1.646c10.392-0.02,20.783-0.019,31.175-0.001c1.268,0.002,2.817-0.037,2.722,1.796
				c-0.086,1.666-1.601,1.475-2.743,1.482C108.968,167.235,103.73,167.217,98.491,167.216z"/>
			<rect x="61.69" y="110.487" opacity="0.3" fill="#B25538" width="99.53" height="71.824"/>
		</g>
		<g clip-path="url(#SVGID_10_)">
			<path opacity="0.7" fill="#B25538" d="M79.834,106.766c8.967-2.176,14.453-8.411,18.723-16.062
				c0.083-0.149,0.185-0.35,0.149-0.494c-2.963-11.813,8.386-16.274,12.751-24.294c1.568-2.881,2.334-4.294-0.488-6.296
				c-1.985-1.409-3.852-2.988-5.729-4.543c-1.209-1.001-2.601-2.081-2.048-3.892c0.648-2.122,2.625-1.953,4.35-2.067
				c0.52-0.034,1.045,0.005,1.567,0.014c18.98,0.335,37.959,0.708,56.94,0.969c3.302,0.046,6.032,1.045,8.622,3.078
				c14.932,11.721,29.944,23.339,44.89,35.042c1.691,1.324,4.353,2.507,3.172,5.291c-1.004,2.368-3.597,1.728-5.6,1.696
				c-18.981-0.298-37.96-0.675-56.941-1.001c-2.666-0.046-5.206-0.38-7.392-2.085c-7.415-5.784-14.838-11.556-22.251-17.344
				c-0.68-0.531-1.4-1.073-1.345-2.482c3.204-1.189,6.697-0.793,10.084-0.931c7.481-0.305,14.97-0.412,22.455-0.634
				c2.255-0.067,5.05,0.142,5.027-3.083c-0.021-2.877-2.629-2.853-4.715-2.839c-12.364,0.084-24.741,0.191-37.042,1.495
				c-9.599,1.018-14.727,7.432-14.493,17.331c0.034,1.438-0.039,2.992-1.057,3.94c-4.117,3.832-4.758,9.156-6.305,14.087
				c-1.211,3.86-2.69,7.563-5.571,10.513c-5.249,5.375-10.08,5.291-15.12-0.177c-1.052-1.141-2.217-2.178-3.331-3.263
				C79.369,108.081,79.602,107.424,79.834,106.766z"/>
			<path opacity="0.7" fill="#B25538" d="M145.601,120.159c-10.258-3.471-19.903-8.49-27.877-16.364
				c-3.052-3.014-5.23-5.834-1.397-10.119c2.394-2.676,2.575-6.409,1.231-9.914c-0.976-2.544-0.771-5.005,1.311-6.671
				c2.496-1.998,4.145,0.622,5.79,1.866c6.934,5.245,13.977,10.382,20.552,16.055c5.205,4.491,10.807,6.334,17.631,6.137
				c8.856-0.255,17.734,0.174,26.6,0.398c5.706,0.144,6.197,0.879,4.558,6.15c-0.31,0.996-0.674,1.975-1.019,2.96
				c-4.589,13.101-8.189,15.557-22.266,14.97C162.125,125.268,153.851,123.332,145.601,120.159z"/>
		</g>
	</g>
	<g>
		<g>
			<path fill="#E2AEA3" d="M383.258,152.48c-0.699-0.056-1.397-0.127-2.097-0.166c-4.172-0.237-8.325-0.642-12.395-1.623
				c-1.696-0.409-3.346-1.007-5.02-1.512c-0.467-0.141-0.712-0.422-0.826-0.916c-0.882-3.824-1.081-7.67-0.437-11.549
				c0.346-2.084,0.995-4.064,2.128-5.861c1.303-2.065,3.118-3.507,5.418-4.316c2.923-1.029,5.772-2.209,8.343-3.971
				c0.511-0.35,0.999-0.735,1.561-1.15c4.546,4.462,9.159,4.475,13.729-0.021c1.577,1.33,3.265,2.359,5.071,3.177
				c1.487,0.673,2.998,1.311,4.537,1.852c3.413,1.201,5.66,3.534,6.91,6.882c1.434,3.84,1.535,7.803,1.033,11.81
				c-0.128,1.02-0.377,2.024-0.53,3.042c-0.09,0.602-0.437,0.873-0.976,1.078c-2.564,0.979-5.208,1.661-7.914,2.06
				c-2.475,0.365-4.967,0.618-7.456,0.879c-1.171,0.123-2.351,0.148-3.527,0.223c-0.161,0.01-0.319,0.054-0.478,0.082
				C387.974,152.48,385.616,152.48,383.258,152.48z"/>
			<path fill="#E2AEA3" d="M385.812,90.972c1.171,0.353,2.361,0.653,3.508,1.071c2.143,0.781,4.162,1.816,5.953,3.251
				c1.672,1.339,2.51,3.075,2.368,5.224c-0.103,1.564-0.271,3.125-0.436,4.685c-0.036,0.337-0.031,0.598,0.276,0.808
				c0.553,0.377,0.584,0.966,0.529,1.543c-0.135,1.411-0.503,2.743-1.204,4.006c-0.388,0.698-0.501,1.545-0.771,2.313
				c-1.073,3.058-2.673,5.74-5.42,7.611c-2.342,1.595-5.246,1.598-7.611,0.025c-2.263-1.506-3.863-3.557-4.943-6.014
				c-0.471-1.071-0.767-2.219-1.169-3.322c-0.144-0.395-0.372-0.76-0.558-1.14c-0.603-1.238-0.942-2.538-0.922-3.923
				c0.006-0.43,0.118-0.808,0.487-1.071c0.319-0.228,0.324-0.521,0.291-0.896c-0.158-1.757-0.337-3.516-0.376-5.277
				c-0.042-1.896,0.83-3.464,2.082-4.835c1.563-1.711,3.459-2.928,5.612-3.756c0.332-0.128,0.684-0.203,1.027-0.302
				C384.961,90.972,385.387,90.972,385.812,90.972z"/>
		</g>
		<g>
			<path fill="#B25538" d="M448.018,152.148c-0.699-0.056-1.397-0.127-2.097-0.166c-4.172-0.237-8.325-0.642-12.395-1.623
				c-1.696-0.409-3.346-1.007-5.02-1.512c-0.467-0.141-0.712-0.422-0.826-0.916c-0.882-3.824-1.081-7.67-0.437-11.549
				c0.346-2.084,0.995-4.064,2.128-5.861c1.303-2.065,3.118-3.507,5.418-4.317c2.923-1.029,5.772-2.209,8.343-3.971
				c0.511-0.35,0.999-0.735,1.561-1.15c4.546,4.462,9.159,4.475,13.729-0.021c1.577,1.33,3.265,2.359,5.071,3.177
				c1.487,0.673,2.998,1.311,4.537,1.852c3.413,1.201,5.66,3.534,6.91,6.882c1.434,3.84,1.535,7.803,1.033,11.81
				c-0.128,1.02-0.377,2.024-0.53,3.042c-0.09,0.602-0.437,0.873-0.976,1.078c-2.564,0.979-5.208,1.661-7.914,2.06
				c-2.475,0.365-4.967,0.618-7.456,0.879c-1.171,0.123-2.351,0.148-3.527,0.223c-0.161,0.01-0.319,0.054-0.478,0.082
				C452.735,152.148,450.377,152.148,448.018,152.148z"/>
			<path fill="#B25538" d="M450.573,90.64c1.171,0.353,2.361,0.653,3.508,1.071c2.143,0.781,4.162,1.816,5.953,3.251
				c1.672,1.339,2.51,3.075,2.368,5.224c-0.103,1.564-0.271,3.125-0.436,4.685c-0.036,0.337-0.031,0.598,0.276,0.808
				c0.553,0.377,0.584,0.966,0.529,1.543c-0.135,1.411-0.503,2.743-1.204,4.006c-0.388,0.698-0.501,1.545-0.771,2.313
				c-1.073,3.058-2.673,5.74-5.42,7.611c-2.342,1.595-5.246,1.598-7.611,0.025c-2.263-1.506-3.863-3.557-4.943-6.014
				c-0.471-1.071-0.767-2.219-1.169-3.322c-0.144-0.395-0.372-0.76-0.558-1.14c-0.603-1.238-0.942-2.538-0.922-3.923
				c0.006-0.43,0.118-0.808,0.487-1.071c0.319-0.228,0.324-0.521,0.291-0.896c-0.158-1.757-0.337-3.516-0.376-5.277
				c-0.042-1.896,0.83-3.464,2.082-4.835c1.563-1.711,3.459-2.928,5.612-3.756c0.332-0.128,0.684-0.203,1.027-0.302
				C449.722,90.64,450.147,90.64,450.573,90.64z"/>
		</g>
		<path fill="#B25538" d="M424.684,136.841c0.451-2.715,1.296-5.294,2.772-7.634c1.697-2.689,4.062-4.569,7.057-5.623
			c0.18-0.063,0.356-0.134,0.535-0.198c-0.45-0.224-0.916-0.43-1.415-0.606c-1.539-0.542-3.05-1.179-4.537-1.852
			c-1.805-0.817-3.493-1.847-5.071-3.177c-4.57,4.496-9.183,4.483-13.729,0.021c-0.562,0.416-1.05,0.8-1.561,1.15
			c-2.29,1.57-4.805,2.668-7.392,3.619c1.171,0.496,2.35,0.973,3.548,1.395c4.253,1.496,7.052,4.403,8.61,8.575
			c1.786,4.784,1.913,9.149,1.287,14.142c-0.068,0.54-0.169,0.039-0.27,1.039c2.059,0,4.118,0,6.178,0
			c0.159,0,0.318,0.501,0.478,0.491c1.145-0.073,2.294,0.177,3.434,0.068C424.049,144.405,424.038,140.73,424.684,136.841z"/>
		<path fill="#B25538" d="M407.258,108.529c0.403,1.103,0.698,2.251,1.169,3.322c1.08,2.457,2.68,4.508,4.943,6.014
			c2.365,1.573,5.269,1.57,7.611-0.025c2.747-1.871,4.348-4.553,5.42-7.611c0.27-0.768,0.383-1.615,0.771-2.313
			c0.701-1.263,1.069-2.595,1.204-4.006c0.055-0.577,0.024-1.166-0.529-1.543c-0.307-0.21-0.312-0.471-0.276-0.808
			c0.165-1.56,0.333-3.12,0.436-4.685c0.142-2.15-0.697-3.885-2.368-5.224c-1.791-1.435-3.81-2.288-5.953-3.07
			c-1.147-0.418-2.338-0.89-3.508-0.89c-0.426,0-0.852,0-1.277,0c-0.343,0-0.695-0.007-1.027,0.121
			c-2.153,0.828-4.049,1.955-5.612,3.665c-1.252,1.371-2.124,2.893-2.082,4.79c0.039,1.761,0.218,3.498,0.376,5.255
			c0.034,0.375,0.028,0.656-0.291,0.884c-0.369,0.263-0.481,0.635-0.487,1.065c-0.02,1.385,0.319,2.682,0.922,3.92
			C406.885,107.772,407.113,108.133,407.258,108.529z"/>
	</g>
</g>
</svg>
