<?xml version="1.0" encoding="utf-8"?>
<!-- Generator: Adobe Illustrator 17.0.0, SVG Export Plug-In . SVG Version: 6.00 Build 0)  -->
<!DOCTYPE svg PUBLIC "-//W3C//DTD SVG 1.1//EN" "http://www.w3.org/Graphics/SVG/1.1/DTD/svg11.dtd">
<svg version="1.1" id="Layer_1" xmlns="http://www.w3.org/2000/svg" xmlns:xlink="http://www.w3.org/1999/xlink" x="0px" y="0px"
	 width="136.222px" height="115px" viewBox="0 0 136.222 115" enable-background="new 0 0 136.222 115" xml:space="preserve">
<g>
	<g>
		<defs>
			<rect id="SVGID_1141_" x="-159.356" y="189.516" width="130" height="115"/>
		</defs>
		<clipPath id="SVGID_2_">
			<use xlink:href="#SVGID_1141_"  overflow="visible"/>
		</clipPath>
		<g clip-path="url(#SVGID_2_)">
		</g>
	</g>
</g>
<g>
	<defs>
		<rect id="SVGID_1461_" x="0" y="0.058" width="136.507" height="115"/>
	</defs>
	<clipPath id="SVGID_4_">
		<use xlink:href="#SVGID_1461_"  overflow="visible"/>
	</clipPath>
	<g clip-path="url(#SVGID_4_)">
		<g>
			<g>
				<defs>
					<polygon id="SVGID_1463_" points="-0.356,-1.484 -0.356,124.516 80.675,124.516 110.409,-1.484 					"/>
				</defs>
				<clipPath id="SVGID_6_">
					<use xlink:href="#SVGID_1463_"  overflow="visible"/>
				</clipPath>
			</g>
			<g>
				<defs>
					<polygon id="SVGID_1465_" points="-1.356,-0.484 -1.356,117.516 136.22,117.516 136.338,-0.484 					"/>
				</defs>
				<clipPath id="SVGID_8_">
					<use xlink:href="#SVGID_1465_"  overflow="visible"/>
				</clipPath>
				<polygon opacity="0.3" clip-path="url(#SVGID_8_)" fill="#B2E9FF" points="-1.356,-2.484 -1.356,124.516 138.589,124.516 
					137.138,-2.484 				"/>
				<g clip-path="url(#SVGID_8_)">
					<defs>
						<polyline id="SVGID_1467_" points="12.644,124.516 140.643,124.516 140.569,-14.484 12.644,-14.484 						"/>
					</defs>
					<clipPath id="SVGID_10_">
						<use xlink:href="#SVGID_1467_"  overflow="visible"/>
					</clipPath>
				</g>
			</g>
		</g>
		<g>
			<defs>
				<polygon id="SVGID_1469_" points="-1.356,1.516 -1.356,119.516 136.22,119.516 135.735,1.516 				"/>
			</defs>
			<clipPath id="SVGID_12_">
				<use xlink:href="#SVGID_1469_"  overflow="visible"/>
			</clipPath>
		</g>
		<g>
			<defs>
				<polygon id="SVGID_1471_" points="-1.356,-0.484 -1.356,119.516 138.589,119.516 137.138,-0.484 				"/>
			</defs>
			<clipPath id="SVGID_14_">
				<use xlink:href="#SVGID_1471_"  overflow="visible"/>
			</clipPath>
			<g clip-path="url(#SVGID_14_)">
				<g>
					<path fill="#9B9B9B" d="M119.554,67.789l-12.149-25.817v-0.467c1.051-0.234,1.869-1.168,1.869-2.336s-0.818-2.103-1.869-2.336
						v-0.935c1.869-0.234,3.388-1.869,3.388-3.855c0-0.701-0.234-1.402-0.584-1.986c-0.584-1.168-1.869-1.986-3.271-1.986
						c-1.402,0-2.57,0.818-3.271,1.869c-0.234,0.467-0.467,0.935-0.584,1.402c-3.154-0.818-5.958-2.453-8.995-4.322
						c-5.023-3.037-11.098-6.776-21.145-7.593c-0.117-0.234-0.234-0.35-0.35-0.584c0.467-0.935,0.701-2.22,0.701-3.972
						c0-2.921-1.635-7.593-2.921-9.112c-0.35-0.35-0.818-0.584-1.285-0.584c-0.467,0-0.935,0.234-1.285,0.584
						c-1.285,1.519-2.921,6.192-2.921,9.112c0,1.635,0.234,2.921,0.701,3.972c-0.117,0.117-0.234,0.35-0.35,0.584
						c-11.916,0.701-17.757,4.673-22.663,7.944c-2.57,1.752-4.79,3.271-7.477,3.972c-0.117-0.467-0.234-0.935-0.584-1.402
						c-0.701-1.168-1.869-1.869-3.271-1.869c-1.402,0-2.687,0.818-3.271,1.986c-0.35,0.584-0.584,1.285-0.584,1.986
						c0,1.986,1.402,3.505,3.271,3.855v0.935c-1.051,0.234-1.869,1.168-1.869,2.336s0.818,2.103,1.869,2.336v0.467L18.738,67.789
						h-3.972c0,4.673,7.477,8.411,16.705,8.411s16.705-3.738,16.705-8.411h-4.322L31.821,41.972v-0.467
						c1.051-0.234,1.869-1.168,1.869-2.336s-0.818-2.103-1.869-2.336v-0.935c0.467,0,0.935-0.117,1.285-0.35
						c4.906-0.467,8.177-2.687,11.682-5.023c4.673-3.154,9.813-6.659,20.677-7.36c0.117,0.35,0.35,0.584,0.584,0.818
						c-0.701,1.519-1.051,3.388-1.051,5.607c0,3.154,0.818,5.841,2.103,7.243v57.536c-1.285,0.701-2.103,2.103-2.103,3.621
						c0,1.051,0.35,2.103,1.051,2.804c-0.701,1.519-1.051,3.388-1.051,5.607c0,0.818,0.117,1.635,0.234,2.453
						c-7.36,0.935-12.733,4.206-12.733,8.177l0,0c-2.336,0-4.206,1.869-4.206,4.206l0,0h-1.051c-1.752,0-3.154,0.935-3.154,2.103
						l0,0c0,1.168,1.402,2.103,3.154,2.103h5.257h16.705h16.822h5.257c1.752,0,3.154-0.935,3.154-2.103l0,0
						c0-1.168-1.402-2.103-3.154-2.103h-1.051l0,0c0-2.336-1.869-4.206-4.206-4.206l0,0c0-3.972-5.491-7.243-12.733-8.177
						c0.117-0.818,0.234-1.635,0.234-2.453c0-2.103-0.35-4.089-1.051-5.607c0.701-0.701,1.051-1.752,1.051-2.804
						c0-1.519-0.818-2.921-2.103-3.621v-57.42c1.285-1.402,2.103-4.206,2.103-7.243c0-2.103-0.35-4.089-1.051-5.607
						c0.234-0.234,0.35-0.467,0.584-0.818c8.995,0.701,14.486,4.089,19.275,7.009c4.089,2.453,7.944,4.906,13.084,5.257
						c0.35,0.234,0.818,0.35,1.168,0.35v0.935c-1.051,0.234-1.869,1.168-1.869,2.336s0.818,2.103,1.869,2.336v0.467L94.321,67.789
						h-4.206c0,4.673,7.477,8.411,16.705,8.411s16.705-3.738,16.705-8.411L119.554,67.789L119.554,67.789z M30.887,44.075v23.715
						H19.789L30.887,44.075z M42.919,67.789H31.821V44.075L42.919,67.789z M32.756,39.168c0,0.584-0.35,1.168-0.935,1.285V40.22
						h-0.935v0.234c-0.584-0.234-0.935-0.701-0.935-1.285c0-0.818,0.584-1.402,1.402-1.402
						C32.172,37.766,32.756,38.467,32.756,39.168z M118.503,67.789h-11.098V44.075L118.503,67.789z M105.535,39.168
						c0-0.818,0.584-1.402,1.402-1.402s1.402,0.584,1.402,1.402c0,0.584-0.35,1.168-0.935,1.285V40.22h-0.935v0.234
						C105.886,40.336,105.535,39.752,105.535,39.168z M106.47,44.075v23.715H95.372L106.47,44.075z"/>
					<path fill="#00608B" d="M107.405,35.897c1.869-0.234,3.388-1.869,3.388-3.855c0-0.701-0.234-1.402-0.584-1.986
						c-0.584-1.168-1.869-1.986-3.271-1.986c-1.402,0-2.57,0.818-3.271,1.869c-0.234,0.467-0.467,0.935-0.584,1.402
						c-3.154-0.818-5.958-2.453-8.995-4.322c-5.023-3.037-11.098-6.776-21.145-7.593c-0.117-0.234-0.234-0.35-0.35-0.584
						c0.467-0.935,0.701-2.22,0.701-3.972c0-2.921-1.635-7.593-2.921-9.112c-0.35-0.35-0.818-0.584-1.285-0.584
						c-0.467,0-0.935,0.234-1.285,0.584c-1.285,1.519-2.921,6.192-2.921,9.112c0,1.635,0.234,2.921,0.701,3.972
						c-0.117,0.117-0.234,0.35-0.35,0.584c-11.916,0.701-17.757,4.673-22.663,7.944c-2.57,1.752-4.79,3.271-7.477,3.972
						c-0.117-0.467-0.234-0.935-0.584-1.402c-0.701-1.168-1.869-1.869-3.271-1.869c-1.402,0-2.687,0.818-3.271,1.986
						c-0.35,0.584-0.584,1.285-0.584,1.986c0,1.986,1.402,3.505,3.271,3.855 M31.821,35.897c0.467,0,0.935-0.117,1.285-0.35
						c4.906-0.467,8.177-2.687,11.682-5.023c4.673-3.154,9.813-6.659,20.677-7.36c0.117,0.35,0.35,0.584,0.584,0.818
						c-0.701,1.519-1.051,3.388-1.051,5.607c0,3.154,0.818,5.841,2.103,7.243v57.536c-1.285,0.701-2.103,2.103-2.103,3.621
						c0,1.051,0.35,2.103,1.051,2.804c-0.701,1.519-1.051,3.388-1.051,5.607c0,0.818,0.117,1.635,0.234,2.453
						c-7.36,0.935-12.733,4.206-12.733,8.177l0,0c-2.336,0-4.206,1.869-4.206,4.206l0,0h-1.051c-1.752,0-3.154,0.935-3.154,2.103
						l0,0c0,1.168,1.402,2.103,3.154,2.103h5.257h16.705h16.822h5.257c1.752,0,3.154-0.935,3.154-2.103l0,0
						c0-1.168-1.402-2.103-3.154-2.103h-1.051l0,0c0-2.336-1.869-4.206-4.206-4.206l0,0c0-3.972-5.491-7.243-12.733-8.177
						c0.117-0.818,0.234-1.635,0.234-2.453c0-2.103-0.35-4.089-1.051-5.607c0.701-0.701,1.051-1.752,1.051-2.804
						c0-1.519-0.818-2.921-2.103-3.621v-57.42c1.285-1.402,2.103-4.206,2.103-7.243c0-2.103-0.35-4.089-1.051-5.607
						c0.234-0.234,0.35-0.467,0.584-0.818c8.995,0.701,14.486,4.089,19.275,7.009c4.089,2.453,7.944,4.906,13.084,5.257
						c0.35,0.234,0.818,0.35,1.168,0.35"/>
				</g>
				<polygon fill="#E7F8FF" points="66.645,36.252 31.821,35.897 35.526,35.186 65.057,34.056 				"/>
				<polygon fill="#E7F8FF" points="71.968,36.516 72.148,34.611 76.644,35.771 76.644,36.516 				"/>
				<polygon fill="#E7F8FF" points="78.997,37.205 78.917,34.606 105.692,36.065 				"/>
			</g>
		</g>
	</g>
</g>
</svg>
