<?xml version="1.0" encoding="utf-8"?>
<!-- Generator: Adobe Illustrator 17.0.0, SVG Export Plug-In . SVG Version: 6.00 Build 0)  -->
<!DOCTYPE svg PUBLIC "-//W3C//DTD SVG 1.1//EN" "http://www.w3.org/Graphics/SVG/1.1/DTD/svg11.dtd">
<svg version="1.1" id="Layer_1" xmlns="http://www.w3.org/2000/svg" xmlns:xlink="http://www.w3.org/1999/xlink" x="0px" y="0px"
	 width="581.238px" height="253.981px" viewBox="0 0 581.238 253.981" enable-background="new 0 0 581.238 253.981"
	 xml:space="preserve">
<rect x="100.289" y="63.691" fill="#FFFFFF" width="313" height="123"/>
<g>
	<defs>
		<polygon id="SVGID_22_" points="-590.711,-280.309 -590.711,-76.309 -407.923,-76.309 -353.486,-280.309 		"/>
	</defs>
	<clipPath id="SVGID_2_">
		<use xlink:href="#SVGID_22_"  overflow="visible"/>
	</clipPath>
	<g clip-path="url(#SVGID_2_)">
	</g>
</g>
<g>
	<defs>
		<polygon id="SVGID_2078_" points="-591.217,18.93 -591.217,224.411 -412.041,224.411 -356.623,19.888 		"/>
	</defs>
	<clipPath id="SVGID_4_">
		<use xlink:href="#SVGID_2078_"  overflow="visible"/>
	</clipPath>
	<g clip-path="url(#SVGID_4_)">
		<defs>
			<rect id="SVGID_2080_" x="-712.695" y="-1844.685" width="1923.24" height="3789.385"/>
		</defs>
		<clipPath id="SVGID_6_">
			<use xlink:href="#SVGID_2080_"  overflow="visible"/>
		</clipPath>
	</g>
</g>
<g>
	<path opacity="0.4" fill="#7E6B71" d="M129.502,86.033c2.071,0,4.059,0,6.152,0c0,0.861,0,1.628,0,2.395
		c0,1.05-0.02,2.101,0.008,3.151c0.013,0.493-0.164,0.657-0.649,0.65c-1.525-0.021-3.051-0.007-4.576-0.007c-0.27,0-0.541,0-0.9,0
		c0,2.258,0,4.445,0,6.686c-2.199,0-4.31,0-6.484,0c0-2.211,0-4.378,0-6.631c-0.318-0.021-0.58-0.051-0.842-0.052
		c-1.65-0.005-3.301-0.019-4.951,0.007c-0.522,0.008-0.692-0.159-0.683-0.686c0.028-1.795,0.011-3.59,0.011-5.476
		c2.157,0,4.244,0,6.416,0c0-2.123,0-4.157,0-6.248c2.195,0,4.304,0,6.5,0C129.502,81.865,129.502,83.901,129.502,86.033z"/>
	<polygon opacity="0.3" fill="#7E6B71" points="206.295,63.691 177.329,186.691 293.555,186.691 321,63.691 	"/>
	<polygon opacity="0.2" fill="#7E6B71" points="100.289,63.691 100.289,186.691 177.329,186.691 206.295,63.691 	"/>
	<polygon opacity="0.4" fill="#7E6B71" points="413.289,63.691 321,63.691 293.555,186.691 413.289,186.691 	"/>
	<g>
		<defs>
			<polygon id="SVGID_2454_" points="100.289,63.691 100.289,186.691 177.329,186.691 206.295,63.691 			"/>
		</defs>
		<clipPath id="SVGID_8_">
			<use xlink:href="#SVGID_2454_"  overflow="visible"/>
		</clipPath>
	</g>
	<g>
		<defs>
			<polygon id="SVGID_2456_" points="208.512,63.691 179.546,186.691 291.338,186.691 318.783,63.691 			"/>
		</defs>
		<clipPath id="SVGID_10_">
			<use xlink:href="#SVGID_2456_"  overflow="visible"/>
		</clipPath>
		<path opacity="0.3" clip-path="url(#SVGID_10_)" fill="#7E6B71" d="M305.048,72.783c-1.111-2.591-2.855-4.338-5.18-5.193
			c-1.989-0.73-4.054-0.657-5.723-0.361c-0.67-0.782-1.667-1.289-2.796-1.289c-2.015,0-3.647,1.585-3.647,3.545
			c0,1.957,1.631,3.542,3.647,3.542c1.896,0,3.43-1.402,3.614-3.19c1.215-0.182,2.617-0.206,3.924,0.271
			c1.583,0.581,2.793,1.828,3.6,3.709c4.377,10.201-3.954,44.651-5.903,52.346c-0.82,0.271-1.419,1.003-1.419,1.889
			c0,11.63-7.777,21.092-17.336,21.092s-17.334-9.462-17.334-21.092c0-0.765-0.456-1.408-1.102-1.75
			c-1.883-7.415-10.345-42.219-5.937-52.485c0.806-1.875,2.012-3.122,3.589-3.705c1.336-0.494,2.768-0.463,3.995-0.269
			c0.188,1.787,1.722,3.185,3.613,3.185c2.015,0,3.648-1.585,3.648-3.542c0-1.96-1.633-3.545-3.648-3.545
			c-1.135,0-2.133,0.512-2.802,1.299c-1.679-0.304-3.765-0.387-5.775,0.352c-2.326,0.853-4.068,2.6-5.181,5.192
			c-4.795,11.167,3.847,46.54,5.807,54.19c-0.213,0.317-0.368,0.675-0.368,1.082c0,12.839,8.283,23.443,18.926,24.934
			c-1.567,8.636,2.587,17.082,2.796,17.497c6.407,12.215,7.177,23.819,2.114,31.84c-3.748,5.936-10.407,9.205-18.753,9.205
			c-20.039,0-34.36-28.627-34.513-28.792c-0.239-0.257-3.318-3.539-7.211-6.987c1.024-1.787,1.61-3.839,1.61-6.024
			c0-6.858-5.75-12.437-12.816-12.437c-7.065,0-12.812,5.578-12.812,12.437c0,6.86,5.748,12.442,12.812,12.442
			c3.316,0,6.332-1.24,8.61-3.252c2.846,2.536,5.38,5.091,6.709,6.517c0.629,0.687,15.667,30.135,37.611,30.135
			c9.848,0,17.767-3.953,22.3-11.132c5.839-9.245,5.126-22.289-1.939-35.753c-0.041-0.085-3.977-8.059-2.308-15.594
			c11.085-0.987,19.854-11.823,19.854-25.035c0-0.278-0.059-0.541-0.163-0.781C300.948,120.345,309.91,84.109,305.048,72.783z
			 M208.487,180.824c-6.3,0-11.426-4.978-11.426-11.096c0-6.114,5.126-11.093,11.426-11.093c6.302,0,11.429,4.976,11.429,11.093
			c0,1.837-0.47,3.568-1.286,5.094c-0.654-0.56-1.324-1.121-2.003-1.665c0.47-1.051,0.738-2.208,0.738-3.429
			c0-4.756-3.974-8.616-8.878-8.616c-4.901,0-8.874,3.859-8.874,8.616c0,4.761,3.974,8.619,8.874,8.619
			c2.139,0,4.075-0.763,5.608-1.988c0.661,0.534,1.317,1.093,1.969,1.655C214.044,179.755,211.396,180.824,208.487,180.824z
			 M208.487,164.102c-3.195,0-5.794,2.522-5.794,5.623c0,3.103,2.6,5.629,5.794,5.629c1.151,0,2.215-0.337,3.12-0.9
			c0.255,0.182,0.513,0.371,0.77,0.564c-1.099,0.765-2.437,1.226-3.89,1.226c-3.702,0-6.713-2.926-6.713-6.52
			c0-3.592,3.011-6.515,6.713-6.515s6.714,2.923,6.714,6.515c0,0.716-0.148,1.395-0.37,2.042c-0.259-0.193-0.516-0.383-0.775-0.567
			c0.134-0.472,0.227-0.961,0.227-1.474C214.283,166.624,211.684,164.102,208.487,164.102z"/>
	</g>
	<path fill="#7E6B71" d="M253.579,99.614c-4.975,0-9.912,1.765-14.256,6.368c-4.343-4.602-9.28-6.368-14.256-6.368
		c-9.763,0-19.007,7.833-19.007,19.007c0,4.208,0.986,8.14,2.587,11.88h10.1l8.972-20.937l9.946,29.832l2.763-4.144h4.308
		c0.824-1.414,2.338-2.376,4.094-2.376c2.623,0,4.752,2.129,4.752,4.752s-2.129,4.752-4.752,4.752c-1.753,0-3.269-0.96-4.094-2.376
		h-1.763l-6.741,10.112l-9.062-27.19l-5.289,12.326h-10.818c6.049,10.271,16.308,19.1,23.507,27.955
		c2.191,2.692,3.49,2.932,4.752,2.932c1.262,0,2.561-0.24,4.752-2.932c10.789-13.27,28.511-26.47,28.511-44.587
		C272.586,107.448,263.342,99.614,253.579,99.614z"/>
	<path opacity="0.1" fill="#7E6B71" d="M231.028,135.517h-23.103c6.721,11.412,18.12,21.222,26.119,31.06
		c2.434,2.991,3.878,3.258,5.28,3.258c1.402,0,2.846-0.267,5.28-3.258c11.988-14.743,31.678-29.41,31.678-49.539
		c0-12.415-10.272-21.119-21.119-21.119c-5.528,0-11.013,1.961-15.839,7.075c-4.826-5.113-10.311-7.075-15.839-7.075
		c-10.847,0-21.119,8.704-21.119,21.119c0,4.675,1.096,9.044,2.875,13.199h11.222l9.968-23.262l11.05,22.062l3.07,5.372h4.786
		c0.916-1.571,2.598-1.531,4.548-1.531c2.914,0,5.28,2.365,5.28,5.28s-2.365,5.28-5.28,5.28c-1.948,0-3.632-1.066-4.548-2.64h-1.959
		l-7.489,11.235"/>
	<g>
		<defs>
			<polygon id="SVGID_2458_" points="100.289,63.691 100.289,186.691 177.329,186.691 206.295,63.691 			"/>
		</defs>
		<clipPath id="SVGID_12_">
			<use xlink:href="#SVGID_2458_"  overflow="visible"/>
		</clipPath>
		<circle opacity="0.1" clip-path="url(#SVGID_12_)" fill="#7E6B71" cx="126.119" cy="88.764" r="28.121"/>
		<circle opacity="0.1" clip-path="url(#SVGID_12_)" fill="#7E6B71" cx="126.119" cy="88.764" r="22.47"/>
		<circle opacity="0.1" clip-path="url(#SVGID_12_)" fill="#7E6B71" cx="126.119" cy="88.764" r="15.486"/>
		<g clip-path="url(#SVGID_12_)">
			<path opacity="0.3" fill="#7E6B71" d="M145.499,145.084c0,0-18.119,3.748-22.493,11.326c-3.842,6.657,2.095,30.281,2.095,30.281
				h31.238l-1.918-32.192l-7.73-9.954L145.499,145.084z"/>
			<path opacity="0.3" fill="#7E6B71" d="M162.97,145.084c0,0,17.949,6.436,21.106,11.786c4.054,6.87-0.708,29.821-0.708,29.821
				h-30.591l0.456-32.192l8.545-9.954L162.97,145.084z"/>
			<path fill="#FDFDFD" d="M127.38,182.334c-0.082,0.18-0.193,0.109-0.304,0.035C127.177,182.357,127.278,182.345,127.38,182.334z"
				/>
			<path fill="#FDFDFD" d="M130.439,182.025c-0.081,0.17-0.181,0.191-0.302,0.037C130.238,182.05,130.338,182.038,130.439,182.025z"
				/>
			<path fill="#FDFDFD" d="M168.15,181.885c0.01-0.01,0.02-0.019,0.03-0.029c-0.001,0.006-0.001,0.015-0.005,0.019
				C168.169,181.88,168.159,181.882,168.15,181.885L168.15,181.885z"/>
			<path fill="#A39197" d="M137.169,123.988c0,0,5.026,19.033,15.768,20.178c0,0,14.212-0.127,17.281-20.718
				c0,0-3.632-18.956-16.822-16.9C153.396,106.549,135.428,108.765,137.169,123.988z"/>
			<path fill="#7E6B71" d="M160.607,114.278c0.487,2.593,0.487,2.594-2.314,2.05c-2.791-0.542-5.299-1.838-7.934-3.182
				c0.053,0.331,0.051,0.432,0.085,0.52c0.264,0.673,1.092,1.351,0.576,2.032c-0.488,0.644-1.302-0.068-1.93-0.192
				c-1.997-0.392-3.755-1.402-5.243-2.76c-0.799-0.73-1.017-0.651-1.674,0.2c-2.236,2.895-2.648,6.31-3.069,9.739
				c-0.091,0.738-0.125,1.495-1.076,1.437c-0.722-0.044-1.303-0.434-1.362-1.308c-0.322-4.809-0.474-9.599,1.484-14.166
				c1.91-4.456,5.608-6.654,10.005-8.077c5.095-1.649,10.103-0.907,15.132,0.242c2.836,0.648,5.747,0.756,8.774,1.069
				c-0.472,1.144-1.759,1.539-2.108,2.795c1.375,0.541,2.809,0.386,4.409,0.491c-0.612,1.285-1.473,2.179-2.29,3.089
				c-1.256,1.4-1.958,2.858-1.063,4.767c0.282,0.6,0.219,1.361,0.313,2.048c-0.076,0.511-0.247,1.035,0.209,1.471
				c0.042,2.005,0.268,4.014-0.024,6.012c-0.123,0.839-0.194,1.936-1.384,1.872c-1.008-0.054-1.052-0.988-1.231-1.826
				c-0.321-1.51-0.828-2.981-1.256-4.469c-0.127-0.442-0.341-0.82-0.813-0.954c-2.23-0.633-4.196-1.839-6.243-2.869
				c-0.098-0.212-0.224-0.385-0.496-0.293c-0.039,0.013-0.054,0.095-0.081,0.146C160.206,114.201,160.406,114.24,160.607,114.278z"
				/>
			<path fill="#7E6B71" d="M164.083,175.251c-1.936-3.054-1.623-4.273,1.591-5.968c0.46-0.243,0.594-0.581,0.705-1.024
				c0.596-2.379,1.132-4.769,1.406-7.211c0.416-1.241,0.344-2.528,0.364-3.806c0.601-2.894,0.292-5.666-0.852-8.412
				c-0.968-2.325-2.624-3.544-5.061-3.83c-0.676-0.103-1.357-0.179-2.025-0.319c-0.43-0.09-0.6-0.461-0.564-0.863
				c0.039-0.441,0.382-0.713,0.783-0.632c2.645,0.531,5.359,0.919,7.34,3.053c1.114,1.866,1.582,3.941,1.948,6.048
				c0.025,0.48,0.049,0.959,0.074,1.439c-0.014,0.929-0.028,1.858-0.042,2.786c0.049,3.491-0.533,6.904-1.335,10.28
				c-0.336,1.414-0.642,2.633,0.472,3.975c0.988,1.19,0.921,2.705-0.202,3.969C167.311,176.28,165.736,176.147,164.083,175.251z"/>
			<path fill="#7E6B71" d="M148.603,144.284c-0.352-0.825-1.336-0.412-2.052-0.249c-0.487,0.11-0.951,0.328-1.425,0.498
				l-2.985,1.767c-0.182,0.094-0.36,0.194-0.527,0.312c-1.961,1.355-2.5,3.377-2.735,5.596c-0.055,0.517,0.456,1.369-0.469,1.597
				c-3.2,0.788-3.638,3.454-4.193,6.054c0.34,0.192,0.68,0.383,1.02,0.575c0.603-0.406,0.872-0.989,1.048-1.688
				c0.566-2.244,2.074-3.607,3.77-3.491c1.73,0.119,3.37,1.767,3.746,3.862c0.096,0.531,0.167,0.975,0.737,1.156
				c1.131,0.097,1.22-0.612,1.114-1.455c-0.289-2.293-2.04-4.356-4.301-4.88c-0.643-0.149-0.768-0.37-0.822-0.959
				c-0.345-3.766,2.975-7.224,6.745-6.981C147.973,145.606,149.021,145.262,148.603,144.284z"/>
			<path opacity="0.3" fill="#7E6B71" d="M145.127,160.233l-0.009-0.007c-0.154,0.046-0.339,0.068-0.579,0.047
				c-0.258,3.645-0.63,7.251-2.424,10.557c-1.11,2.046-1.635,2.351-3.773,1.643c-1.265-0.419-1.743,0.363-2.05,1.785
				c-1.618-4.129-1.336-7.959-1.062-11.768c0.05-0.697,0.07-1.37,0.007-2.056c-0.34-0.192-0.68-0.383-1.02-0.574l0.118,1.542
				c-0.531,2.364-0.457,4.801-0.205,7.155c0.362,3.376,0.699,6.894,3.868,9.151c0.565,0.402,1.111,0.599,1.75,0.273
				c0.439-0.224,0.659-0.594,0.502-1.097c-0.209-0.673-0.662-1.054-1.384-1.082c-0.502-0.02-1.158,0.315-1.344-0.682
				c2.825-0.666,5.202-2.013,6.131-4.94c0.79-2.492,1.71-4.969,1.84-7.63c0.012-0.247-0.036-0.54,0.061-0.76l0,0L145.127,160.233z"
				/>
			<path fill="#A39197" d="M148.579,142.617c0,0,0.38,3.236-1.304,3.382l7.145,8.893l7.815-9.893c0,0-3.766-2.226-2.594-2.98
				C159.641,142.019,153.918,145.644,148.579,142.617z"/>
		</g>
	</g>
	<path fill="none" stroke="#A45B59" stroke-miterlimit="10" d="M151.864,125.341"/>
	<g>
		<defs>
			<polygon id="SVGID_2460_" points="208.512,63.691 179.546,186.691 291.338,186.691 318.783,63.691 			"/>
		</defs>
		<clipPath id="SVGID_14_">
			<use xlink:href="#SVGID_2460_"  overflow="visible"/>
		</clipPath>
	</g>
	<g>
		<path fill="#7E6B71" d="M382.328,179.115c-7.509,5.761-18.915,3.556-23.564-4.76c-3.701-6.621-7.082-13.42-10.605-20.139
			c0.756-0.407,1.512-0.815,2.268-1.222c3.194,5.968,6.427,11.915,9.561,17.913c1.276,2.442,3.248,4.082,5.509,5.488
			c1.215,0.756,2.445,0.971,3.272-0.396c0.741-1.224-0.004-2.111-1.057-2.853c-1.491-1.049-2.973-2.085-3.861-3.813
			c-3.144-6.121-6.367-12.202-9.56-18.298c5.901-3.07,11.802-6.14,17.703-9.211c3.488,6.605,6.908,13.247,10.486,19.802
			c2.517,4.612,2.107,9.249,0.484,13.928C382.554,176.74,381.715,177.773,382.328,179.115z"/>
		<path opacity="0.3" fill="#7E6B71" d="M350.427,152.994c-0.756,0.408-1.511,0.815-2.267,1.222
			c-3.669-6.899-7.477-13.729-10.969-20.716c-3.721-7.446-0.36-17.558,7.575-21.017c0.902,0.097,1.808,0.164,2.706,0.295
			c6.554,0.952,11.587,3.887,14.576,10.166c2.842,5.969,6.167,11.707,9.279,17.547c-5.572,3.684-11.154,7.349-17.628,9.331
			c-3.244-6.051-6.491-12.1-9.729-18.155c-1.134-2.121-0.972-4.364-0.501-6.602c0.208-0.986,0.554-1.948,0.897-2.899
			c0.483-1.339,0.377-2.567-0.972-3.23c-1.572-0.773-2.042,0.341-2.668,1.607c-2.248,4.543-2.459,9.052-0.135,13.578
			C343.833,140.43,347.145,146.704,350.427,152.994z"/>
		<path opacity="0.3" fill="#7E6B71" d="M382.328,179.115c-0.614-1.342,0.225-2.375,0.636-3.561
			c1.622-4.678,2.032-9.316-0.484-13.928c-3.578-6.556-6.998-13.197-10.486-19.803c1.826-0.863,3.232-3.066,5.728-1.799
			c3.155,5.95,6.386,11.862,9.447,17.86C391.188,165.759,389.252,173.998,382.328,179.115z"/>
		<path fill="#7E6B71" d="M371.327,140.49c-3.112-5.84-6.437-11.578-9.279-17.547c-2.989-6.279-8.022-9.215-14.576-10.166
			c-0.897-0.13-1.804-0.198-2.706-0.295c0.634-0.306,1.268-0.612,1.902-0.917c1.261,0.144,2.457-0.1,3.605-0.618
			c4.972-0.503,9.556,0.182,13.036,4.252c3.314,6.249,6.631,12.497,9.943,18.747C375.533,138.254,375.53,138.256,371.327,140.49z"/>
		<path fill="#7E6B71" d="M371.327,140.49c4.203-2.234,4.206-2.236,1.924-6.544c-3.311-6.251-6.628-12.499-9.943-18.747
			c1.874,0.524,2.579,2.206,3.356,3.663c3.746,7.023,7.383,14.105,11.058,21.164c-2.496-1.268-3.902,0.935-5.728,1.798
			c-5.901,3.071-11.801,6.141-17.702,9.211c-0.198-0.405-0.396-0.81-0.594-1.214C360.172,147.84,365.755,144.175,371.327,140.49z"/>
	</g>
	<g>
		<path fill="#7E6B71" d="M317.953,168.959c-2.744-1.519-4.093-4.159-4.946-6.916c-1.622-5.241-0.563-10.092,3.197-14.158
			c2.063-2.231,4.753-3.55,7.664-4.395c1.979-0.003,3.959-0.006,5.938-0.009c2.111,0.518,4.2,1.083,5.851,2.625
			c0.92,1.578,2.767,2.353,3.525,4.071c0.715,2.831,2.471,5.298,2.002,8.571c-0.309,2.153-0.985,3.906-1.925,5.802
			c-2.322,4.682-6.086,6.888-11.092,7.381C324.365,172.304,320.977,171.257,317.953,168.959z M319.649,166.442
			c1.368,1.957,1.721,2.011,3.307,0.482c0.506-0.488,1-0.987,1.496-1.484c3.734-3.733,7.486-7.449,11.191-11.211
			c1.449-1.472,1.31-2.361-0.326-3.13c-0.796-2.186-1.598-2.349-3.315-0.928c-2.693,2.228-5.161,4.737-7.506,7.262
			c-1.89,2.034-4.374,3.456-5.86,5.896C317.619,165,317.681,165.474,319.649,166.442z M320.605,147.802
			c-1.599-0.054-3.422,1.684-3.543,3.102c-0.135,1.588,0.488,2.583,2.099,2.751c1.612,0.168,3.771-1.771,3.637-3.321
			C322.679,148.95,321.694,148.187,320.605,147.802z"/>
		<path opacity="0.3" fill="#7E6B71" d="M317.953,168.959c3.024,2.298,6.413,3.346,10.214,2.972
			c5.006-0.493,8.77-2.699,11.092-7.381c0.94-1.896,1.616-3.649,1.925-5.802c0.469-3.272-1.287-5.74-2.002-8.571
			c1.179,0.306,1.361,1.509,2.039,2.265c2.664,3.755,2.49,7.917,1.69,12.147c-0.095,0.501-0.537,0.936-0.818,1.402
			c-0.998,1.545-1.996,3.09-2.994,4.635c-2.438,1.887-5.053,3.296-8.211,3.65C326.112,174.812,320.906,173.247,317.953,168.959z"/>
		<path opacity="0.3" fill="#7E6B71" d="M319.649,166.442c-1.968-0.968-2.03-1.442-1.013-3.113c1.485-2.441,3.97-3.863,5.86-5.896
			c2.346-2.524,4.813-5.033,7.506-7.262c1.717-1.421,2.519-1.258,3.315,0.929c-0.471,0.76-0.691,1.632-1.381,2.306
			c-3.454,3.381-6.785,6.891-10.306,10.198C322.465,164.698,321.664,166.48,319.649,166.442z"/>
		<path opacity="0.4" fill="#7E6B71" d="M319.649,166.442c2.015,0.038,2.816-1.744,3.981-2.838
			c3.522-3.307,6.852-6.818,10.306-10.198c0.689-0.675,0.91-1.546,1.381-2.306c1.636,0.768,1.775,1.658,0.326,3.129
			c-3.705,3.762-7.457,7.477-11.191,11.211c-0.497,0.497-0.991,0.996-1.496,1.484C321.371,168.453,321.017,168.399,319.649,166.442z
			"/>
		<path opacity="0.4" fill="#7E6B71" d="M320.605,147.802c1.089,0.385,2.073,1.148,2.193,2.532c0.134,1.55-2.025,3.489-3.637,3.321
			c-1.61-0.168-2.234-1.163-2.099-2.751C317.183,149.486,319.006,147.748,320.605,147.802z"/>
	</g>
	<g>
		<defs>
			<polygon id="SVGID_2462_" points="413.289,63.691 321,63.691 293.555,186.691 413.289,186.691 			"/>
		</defs>
		<clipPath id="SVGID_16_">
			<use xlink:href="#SVGID_2462_"  overflow="visible"/>
		</clipPath>
		<g opacity="0.3" clip-path="url(#SVGID_16_)">
			<path fill="#7E6B71" d="M366.75,145.959c-14.291-12.84-28.589-25.672-42.868-38.526c-5.539-4.986-5.884-9.672-0.862-15.303
				c11.855-13.293,23.817-26.49,35.738-39.725c5.759-6.394,11.463-12.84,17.298-19.164c5.604-6.073,11.016-6.302,17.093-0.843
				c13.25,11.903,26.478,23.832,39.704,35.761c1.322,1.192,2.923,2.161,3.461,4.035c-2.211,3.491-1.991,7.828-5.119,11.221
				c-17.474,18.951-34.642,38.185-51.839,57.39C375.92,144.641,372.003,146.807,366.75,145.959z M379.147,88.897
				c7.234-8.03,14.487-16.044,21.685-24.106c1.268-1.421,3.576-3.212,1.701-5.032c-2.32-2.253-3.891,0.561-5.247,2.058
				c-14.511,16.021-28.977,32.083-43.406,48.178c-1.217,1.358-3.593,2.954-1.241,4.946c2.299,1.947,3.557-0.639,4.78-1.978
				C364.709,104.985,371.915,96.929,379.147,88.897z M396.673,105.412c3.699-4.1,3.57-8.218-0.161-11.777
				c-3.401-3.244-7.7-2.92-10.984,0.83c-3.38,3.858-2.876,7.615,1.207,11.431C390.484,109.399,393.753,109.172,396.673,105.412z
				 M338.45,102.77c3.738,3.941,7.366,3.117,10.794-0.375c3.511-3.576,3.44-7.609-0.048-10.98c-3.6-3.48-7.614-3.499-10.995-0.051
				C334.502,95.138,334.588,99.121,338.45,102.77z M358.338,80.27c3.838,3.415,7.903,3.36,10.983-0.148
				c3.382-3.853,3.167-8.121-0.581-11.522c-3.694-3.353-7.301-3.069-10.802,0.849C354.42,73.386,354.55,76.899,358.338,80.27z
				 M366.682,128.199c3.68,4.029,7.155,2.486,10.399-1.031c3.339-3.621,2.987-8.091-0.952-11.439
				c-3.407-2.896-6.889-2.788-10.054,0.386C362.328,119.872,362.54,124.452,366.682,128.199z M416.895,71.61
				c-3.689-3.382-8.116-3.11-11.5,0.844c-2.946,3.442-2.766,6.94,0.421,10.11c3.654,3.634,8.252,3.504,11.552-0.092
				C420.862,78.667,420.875,75.064,416.895,71.61z M378.086,57.638c3.83,3.608,7.87,3.785,11.058,0.485
				c3.427-3.547,3.597-8.186,0.409-11.162c-3.595-3.357-8.006-3.441-11.165-0.214C374.693,50.522,374.587,54.342,378.086,57.638z"/>
			<path opacity="0.4" fill="#7E6B71" d="M366.75,145.959c5.252,0.848,9.17-1.318,12.605-5.154
				c17.197-19.205,34.365-38.439,51.839-57.39c3.128-3.393,2.908-7.731,5.119-11.221c3.597,4.633,1.635,8.755-1.572,12.342
				c-18.067,20.205-36.208,40.346-54.433,60.409C376.049,149.634,371.726,149.754,366.75,145.959z"/>
			<path opacity="0.2" fill="#7E6B71" d="M396.673,105.412c-2.92,3.76-6.189,3.987-9.938,0.483
				c-4.083-3.816-4.587-7.573-1.207-11.431c3.284-3.749,7.583-4.074,10.984-0.83C400.243,97.195,400.371,101.312,396.673,105.412z"
				/>
			<path opacity="0.2" fill="#7E6B71" d="M338.45,102.77c-3.862-3.649-3.949-7.632-0.248-11.406
				c3.381-3.448,7.395-3.429,10.995,0.051c3.488,3.372,3.559,7.405,0.048,10.98C345.816,105.887,342.189,106.711,338.45,102.77z"/>
			<path opacity="0.2" fill="#7E6B71" d="M358.338,80.27c-3.788-3.371-3.918-6.884-0.401-10.821
				c3.501-3.918,7.108-4.202,10.802-0.849c3.748,3.402,3.964,7.67,0.581,11.522C366.241,83.63,362.176,83.684,358.338,80.27z"/>
			<path opacity="0.2" fill="#7E6B71" d="M366.682,128.199c-4.141-3.747-4.354-8.328-0.607-12.085
				c3.165-3.174,6.647-3.281,10.054-0.386c3.939,3.348,4.291,7.818,0.952,11.439C373.836,130.686,370.361,132.228,366.682,128.199z"
				/>
			<path opacity="0.3" fill="#7E6B71" d="M416.901,71.61c3.974,3.455,3.961,7.058,0.468,10.863c-3.3,3.595-7.898,3.726-11.552,0.092
				c-3.188-3.17-3.367-6.668-0.421-10.11C408.779,68.5,413.206,68.228,416.901,71.61z"/>
			<path opacity="0.3" fill="#7E6B71" d="M378.086,57.638c-3.499-3.296-3.393-7.116,0.302-10.891
				c3.159-3.227,7.57-3.142,11.165,0.214c3.188,2.977,3.018,7.615-0.409,11.162C385.956,61.423,381.916,61.246,378.086,57.638z"/>
		</g>
	</g>
</g>
<path fill="#7E6B71" d="M150.548,124.252c0,0-4.879-3.778-7.81,0C142.738,124.252,145.423,123.01,150.548,124.252z"/>
<path fill="#7E6B71" d="M158.256,124.252c0,0,2.685-1.242,7.81,0C166.066,124.252,161.186,120.475,158.256,124.252"/>
<g>
	<defs>
		<rect id="SVGID_2464_" x="251.077" y="-875.117" width="2128.123" height="4185.308"/>
	</defs>
	<clipPath id="SVGID_17_">
		<use xlink:href="#SVGID_2464_"  overflow="visible"/>
	</clipPath>
</g>
</svg>
