<?xml version="1.0" encoding="utf-8"?>
<!-- Generator: Adobe Illustrator 17.0.0, SVG Export Plug-In . SVG Version: 6.00 Build 0)  -->
<!DOCTYPE svg PUBLIC "-//W3C//DTD SVG 1.1//EN" "http://www.w3.org/Graphics/SVG/1.1/DTD/svg11.dtd">
<svg version="1.1" xmlns="http://www.w3.org/2000/svg" xmlns:xlink="http://www.w3.org/1999/xlink" x="0px" y="0px" width="520px"
	 height="205px" viewBox="0 0 520 205" enable-background="new 0 0 520 205" xml:space="preserve">
<g id="Layer_1">
	<g>
		<g>
			<defs>
				<polygon id="SVGID_2378_" points="588.5,295.5 588.5,499.5 766.502,499.5 822.018,295.5 				"/>
			</defs>
			<clipPath id="SVGID_2_">
				<use xlink:href="#SVGID_2378_"  overflow="visible"/>
			</clipPath>
			<g clip-path="url(#SVGID_2_)">
				<g>
					<defs>
						<polygon id="SVGID_2380_" points="440,108 440,582 738.519,582 850.224,108 						"/>
					</defs>
					<clipPath id="SVGID_4_">
						<use xlink:href="#SVGID_2380_"  overflow="visible"/>
					</clipPath>
				</g>
			</g>
			<use xlink:href="#SVGID_2378_"  overflow="visible" fill="none" stroke="#95846F" stroke-miterlimit="10"/>
		</g>
	</g>
	<g>
		<g>
			<defs>
				<polygon id="SVGID_2388_" points="588.5,0.5 588.5,204.5 766.502,204.5 822.018,0.5 				"/>
			</defs>
			<clipPath id="SVGID_5_">
				<use xlink:href="#SVGID_2388_"  overflow="visible"/>
			</clipPath>
			<g clip-path="url(#SVGID_5_)">
				<g>
					<defs>
						<polygon id="SVGID_2390_" points="440,-187 440,287 738.519,287 850.224,-187 						"/>
					</defs>
					<clipPath id="SVGID_7_">
						<use xlink:href="#SVGID_2390_"  overflow="visible"/>
					</clipPath>
				</g>
			</g>
			<use xlink:href="#SVGID_2388_"  overflow="visible" fill="none" stroke="#95846F" stroke-miterlimit="10"/>
		</g>
	</g>
	<g>
		<g>
			<defs>
				<polygon id="SVGID_2430_" points="0.5,0.5 0.5,204.5 178.502,204.5 234.018,0.5 				"/>
			</defs>
			<clipPath id="SVGID_9_">
				<use xlink:href="#SVGID_2430_"  overflow="visible"/>
			</clipPath>
			<g clip-path="url(#SVGID_9_)">
				<g>
					<defs>
						<polygon id="SVGID_2432_" points="-148,-187 -148,287 150.519,287 262.224,-187 						"/>
					</defs>
					<clipPath id="SVGID_10_">
						<use xlink:href="#SVGID_2432_"  overflow="visible"/>
					</clipPath>
				</g>
				<polygon fill="#FFF8EF" points="-2,-8 -2,233 185.995,233 242.724,-8 				"/>
				<g>
					<defs>
						<polygon id="SVGID_2434_" points="-2,-8 -2,233 151.268,233 207.996,-8 						"/>
					</defs>
					<clipPath id="SVGID_12_">
						<use xlink:href="#SVGID_2434_"  overflow="visible"/>
					</clipPath>
				</g>
				<g>
					<defs>
						<polygon id="SVGID_2436_" points="-2,-8 -2,233 151.268,233 207.996,-8 						"/>
					</defs>
					<clipPath id="SVGID_14_">
						<use xlink:href="#SVGID_2436_"  overflow="visible"/>
					</clipPath>
				</g>
				<g>
					<defs>
						<polygon id="SVGID_2438_" points="-2,-8 -2,233 185.995,233 242.724,-8 						"/>
					</defs>
					<clipPath id="SVGID_15_">
						<use xlink:href="#SVGID_2438_"  overflow="visible"/>
					</clipPath>
					<g clip-path="url(#SVGID_15_)">
						<rect x="-30" y="135" fill="#BEE1AD" width="244" height="72"/>
						<g>
							<path fill="#D7CDAC" d="M9.131,51.398c-0.86-6.573,1.472-6.082,3.295-8.597c8.815-12.161,28.083-14.335,37.907,0.099
								c2.14,3.143,2.984,6.747,3.28,10.519c0.157,1.994-0.856,3.307-2.132,4.563c0,0.001,0.045-0.046,0.045-0.046
								c-2.646,0.925-5.253,1.993-7.952,2.717c-1.495,0.401-22.833,0.402-25.61,0.402"/>
							<path fill="#137F54" d="M25.465,60.344c1.703,0.124,3.406,0.248,5.109,0.372c-0.006,0.092-0.012,0.185-0.019,0.277
								c-1.696-0.129-3.392-0.258-5.088-0.387C25.467,60.518,25.466,60.431,25.465,60.344z"/>
							<path fill="#C8B398" d="M24.076,149.463c0.116,0.005,0.236,0.021,0.362,0.057c0.102,0.028,0.205,0.044,0.308,0.067
								c0.168,0.031,0.339,0.06,0.504,0.093c1.296,0.177,2.635-0.007,3.947-0.042L20.621,60.15l-10.21-2.542l0.137,79.323
								c-0.978,3.145,3.297,7.41,8.056,11.023c0.066,0.011,0.131,0.02,0.199,0.04c1.732,0.506,3.423,1.163,5.215,1.457
								C24.038,149.455,24.056,149.459,24.076,149.463z"/>
							<path fill="#D7CDAC" d="M53.546,56.205c-0.522-0.873-1.301-0.579-2.038-0.287c-0.034,0.067-0.062,0.145-0.115,0.173
								c-6.568,3.414-13.345,5.753-20.93,4.313c-1.979-0.376-4.009-0.48-6.016-0.708c0.003-0.053,0.006-0.106,0.01-0.16
								c1.935,0.089,3.869,0.178,5.804,0.267c0.022-0.111,0.043-0.222,0.065-0.334c-7.979-0.836-5.068-5.767-12.361-10.178
								c0.683,1.306-9.395-8.361-9.326,0c0.069,8.278,1.39,10.341,1.392,11.736c0.03,19.93,0.04,39.861,0.03,59.791
								c-0.001,2.358-0.148,4.717-0.227,7.075c-0.016,0.007-0.032,0.013-0.049,0.02c-0.018,2.823,0.1,5.627,0.168,8.458
								c0.389,1.279,0.778,2.555,1.166,3.831c-0.179-1.027-0.358-2.053-0.571-3.27c1.349,1.139,2.529,2.197,4.266,1.315
								c-0.617-1.393-2.76-2.427-4.094-2.036v-4.146c1.564,1.008,3.74,1.384,2.31,4.11c0.197-0.025,0.394-0.05,0.592-0.074
								c0.382-1.095,0.764-2.19,1.146-3.285c-0.079,0.003-0.158,0.005-0.236,0.007c0-1.417-0.003-2.835,0.001-4.253
								c0.003-0.933,0.015-1.866,0.029-2.799c0.098-6.657,0.248-13.315,0.279-19.973c0.022-4.632-0.131-9.265-0.181-13.899
								c-0.041-3.725-0.083-7.45-0.054-11.174c0.02-2.47,0.22-4.939,0.232-7.409c0.008-1.529-0.253-3.057-0.275-4.588
								c-0.039-2.675,0.014-5.351,0.02-8.026c0-0.16-0.079-0.32-0.23-0.888c-0.246,0.71-0.37,1.071-0.526,1.523
								c-0.56-0.272-1.087-0.657-1.666-0.767c-0.428-0.081-0.924,0.198-1.39,0.316c0.177,0.362,0.259,0.868,0.549,1.058
								c0.767,0.501,1.624,0.865,2.554,1.339v3.265c-1.102-0.252-2.138-0.489-3.464-0.792v-8.147
								c3.186,0.793,6.622,1.648,10.21,2.542v1.554c0,27.82,0.001,55.64-0.003,83.46c0,1.014-0.121,2.058,1.076,2.601
								c-4.17-0.853-7.469-3.036-10.074-6.324c1.003,2.634,3.044,4.296,5.395,5.607c0.81,0.451,1.629,0.829,2.456,1.152
								c0.994,0.309,1.983,0.638,2.99,0.905c3.407,0.747,6.931,0.616,10.52-0.023c0.73-0.13,1.502-0.018,2.583-0.018
								c0.094-0.728,0.369-1.876,0.37-3.025l17.17-75.858c0-0.7,0.001-1.178,0-1.656c-0.009-3.146-0.01-6.291-0.036-9.436
								c-0.005-0.638-0.269-1.282,0.514-1.738C53.748,57.255,53.727,56.506,53.546,56.205z M11.223,83.489
								c0.73,0.535,1.57,0.921,2.494,1.437v3.232c-0.979-0.236-1.961-0.474-3.111-0.752v-9.718c0.565,0.382,1.015,0.731,1.507,1.005
								c0.496,0.277,1.033,0.479,1.624,0.747v3.557c-0.604-0.308-1.107-0.662-1.664-0.813c-0.354-0.096-0.791,0.109-1.19,0.178
								C10.989,82.748,10.971,83.304,11.223,83.489z M10.618,88.607c1.01,0.568,1.988,1.12,3.079,1.734v3.26
								c-0.963-0.257-1.937-0.516-3.079-0.82V88.607z M10.62,94.034c0.988,0.553,1.967,1.102,3.061,1.715V99
								c-1.018-0.257-1.985-0.502-3.061-0.774V94.034z M10.674,108.998v-4.001c1.028,0.543,1.979,1.045,2.93,1.548v3.246
								C12.671,109.538,11.83,109.31,10.674,108.998z M13.454,131.421c-0.833-0.229-1.643-0.453-2.563-0.706v-3.956
								c0.944,0.512,1.716,0.931,2.563,1.391V131.421z M13.44,125.998c-0.815-0.216-1.628-0.431-2.612-0.692v-3.902
								C13.733,122.863,13.733,122.863,13.44,125.998z M13.432,120.61c-0.792-0.233-1.587-0.468-2.541-0.749v-3.84
								C13.878,117.438,13.886,117.454,13.432,120.61z M13.446,115.175c-0.814-0.226-1.631-0.454-2.602-0.724v-3.815
								C13.666,111.617,14.042,112.272,13.446,115.175z M13.731,104.405c-1.086-0.283-2.012-0.523-3.065-0.798V99.55
								c0.876,0.443,1.769,0.853,2.609,1.352c0.233,0.138,0.417,0.533,0.436,0.822C13.767,102.597,13.731,103.476,13.731,104.405z
								 M13.727,77.308c-1.071-0.22-2.069-0.426-3.172-0.652v-4.443c0.429,0.317,0.731,0.701,1.104,0.791
								C14.173,73.608,14.046,75.425,13.727,77.308z M10.518,66.925c0.955,0.495,1.909,0.956,2.823,1.485
								c0.248,0.143,0.52,0.481,0.539,0.745c0.065,0.947,0.025,1.901,0.025,2.805c-1.18-0.273-2.178-0.504-3.387-0.783V66.925z"/>
							<path fill="#137F54" d="M28.189,89.336"/>
							<path fill="#C8B398" d="M76.892,49.29c19.276,19.276,38.897,38.896,58.699,58.698c-4.812,0-9.556,0-14.518,0
								c0,14.953,0,29.626,0,44.388c-12.407,0-20.083,0-32.532,0c0-9.809,0-19.585,0-29.476c-5.052,0-18.471,0-23.525,0
								c0,9.793,0,19.568,0,29.454c-12.441,0-20.483,0-32.899,0c0-14.667,0-29.327,0-44.232c-4.93,0-9.724-0.017-14.152-0.017
								C37.583,88.485,57.309,68.873,76.892,49.29z"/>
						</g>
						<g>
							<rect x="65.015" y="105.696" fill="#D7CDAC" width="28.281" height="46.397"/>
							<g>
								<rect x="65.015" y="69.754" fill="#D7CDAC" width="23.525" height="23.525"/>
								<g>
									
										<rect x="60.142" y="80.864" transform="matrix(0.7071 0.7071 -0.7071 0.7071 80.1289 -30.4141)" fill="#C8B398" width="33.27" height="1.307"/>
								</g>
								<g>
									
										<rect x="76.124" y="64.882" transform="matrix(0.7071 0.7071 -0.7071 0.7071 80.1289 -30.4141)" fill="#C8B398" width="1.307" height="33.27"/>
								</g>
							</g>
						</g>
					</g>
					<g clip-path="url(#SVGID_15_)">
						<g>
							<path fill="#C8B398" d="M37.283,173.951c-1.887,1.901-1.532,3.908-0.111,5.324C38.769,177.83,39.023,175.802,37.283,173.951z
								"/>
							<path fill="#C8B398" d="M36.902,204.152c0.402-2.487-0.912-4.007-3.069-4.363C33.408,202,34.5,203.717,36.902,204.152z"/>
							<path fill="#C8B398" d="M36.908,182.536c0.367-2.425-0.779-3.946-3.029-4.386C33.409,179.903,34.124,181.969,36.908,182.536z
								"/>
							<path fill="#C8B398" d="M33.81,195.455c-0.418,2.623,1.102,4.083,3.08,4.338C37.325,197.5,36.1,195.823,33.81,195.455z"/>
							<path fill="#C8B398" d="M37.514,191.173c2.403-0.455,3.462-2.081,3.059-4.365C38.365,187.177,37.108,188.771,37.514,191.173z
								"/>
							<path fill="#C8B398" d="M37.516,204.127c2.094-0.32,3.468-1.767,3.074-4.302C38.658,200.014,37.061,201.564,37.516,204.127z"
								/>
							<path fill="#C8B398" d="M37.514,199.807c2.214-0.354,3.477-1.902,3.066-4.343C38.356,195.826,37.108,197.437,37.514,199.807z
								"/>
							<path fill="#C8B398" d="M36.891,195.473c0.428-2.304-0.776-3.96-3.077-4.346C33.39,193.697,34.856,195.19,36.891,195.473z"/>
							<path fill="#C8B398" d="M37.52,195.493c2.33-0.419,3.463-2.022,3.054-4.364C38.267,191.54,37.111,193.195,37.52,195.493z"/>
							<path fill="#C8B398" d="M36.891,186.835c0.44-2.34-0.827-4.002-3.059-4.35C33.391,184.776,34.605,186.463,36.891,186.835z"/>
							<path fill="#C8B398" d="M40.584,178.152c-2.351,0.411-3.481,2.119-3.064,4.356C39.665,182.152,40.976,180.699,40.584,178.152
								z"/>
							<path fill="#C8B398" d="M36.883,191.155c0.444-2.228-0.711-3.959-3.052-4.352C33.387,189.12,34.634,190.804,36.883,191.155z"
								/>
							<path fill="#C8B398" d="M40.588,182.473c-2.445,0.442-3.487,2.243-3.058,4.359C39.66,186.474,40.97,185.051,40.588,182.473z"
								/>
							<path fill="#C8B398" d="M37.142,215.098c0.368-0.566,0.501-7.776,0.279-10.278c-0.318-0.12-0.478-0.061-0.478,0.337
								c0.007,3.079,0.001,6.157,0.01,9.236C36.954,214.583,37.052,214.773,37.142,215.098z"/>
						</g>
						<g>
							<path fill="#C8B398" d="M48.92,173.951c-1.887,1.901-1.532,3.908-0.111,5.324C50.406,177.83,50.66,175.802,48.92,173.951z"/>
							<path fill="#C8B398" d="M48.539,204.152c0.402-2.487-0.912-4.007-3.069-4.363C45.044,202,46.137,203.717,48.539,204.152z"/>
							<path fill="#C8B398" d="M48.544,182.536c0.367-2.425-0.779-3.946-3.029-4.386C45.046,179.903,45.761,181.969,48.544,182.536z
								"/>
							<path fill="#C8B398" d="M45.447,195.455c-0.418,2.623,1.102,4.083,3.08,4.338C48.961,197.5,47.737,195.823,45.447,195.455z"
								/>
							<path fill="#C8B398" d="M49.15,191.173c2.403-0.455,3.462-2.081,3.059-4.365C50.002,187.177,48.745,188.771,49.15,191.173z"
								/>
							<path fill="#C8B398" d="M49.152,204.127c2.094-0.32,3.468-1.767,3.074-4.302C50.294,200.014,48.697,201.564,49.152,204.127z"
								/>
							<path fill="#C8B398" d="M49.151,199.807c2.214-0.354,3.477-1.902,3.066-4.343C49.993,195.826,48.745,197.437,49.151,199.807z
								"/>
							<path fill="#C8B398" d="M48.528,195.473c0.428-2.304-0.776-3.96-3.077-4.346C45.027,193.697,46.493,195.19,48.528,195.473z"
								/>
							<path fill="#C8B398" d="M49.157,195.493c2.33-0.419,3.463-2.022,3.054-4.364C49.903,191.54,48.747,193.195,49.157,195.493z"
								/>
							<path fill="#C8B398" d="M48.528,186.835c0.44-2.34-0.827-4.002-3.059-4.35C45.028,184.776,46.242,186.463,48.528,186.835z"/>
							<path fill="#C8B398" d="M52.221,178.152c-2.351,0.411-3.481,2.119-3.064,4.356C51.301,182.152,52.613,180.699,52.221,178.152
								z"/>
							<path fill="#C8B398" d="M48.52,191.155c0.444-2.228-0.711-3.959-3.052-4.352C45.023,189.12,46.271,190.804,48.52,191.155z"/>
							<path fill="#C8B398" d="M52.224,182.473c-2.445,0.442-3.487,2.243-3.058,4.359C51.297,186.474,52.607,185.051,52.224,182.473
								z"/>
							<path fill="#C8B398" d="M48.778,215.098c0.368-0.566,0.501-7.776,0.279-10.278c-0.318-0.12-0.478-0.061-0.478,0.337
								c0.007,3.079,0.001,6.157,0.01,9.236C48.591,214.583,48.688,214.773,48.778,215.098z"/>
						</g>
						<g>
							<path fill="#C8B398" d="M11.603,173.951c-1.887,1.901-1.532,3.908-0.111,5.324C13.088,177.83,13.342,175.802,11.603,173.951z
								"/>
							<path fill="#C8B398" d="M11.221,204.152c0.402-2.487-0.912-4.007-3.069-4.363C7.727,202,8.82,203.717,11.221,204.152z"/>
							<path fill="#C8B398" d="M11.227,182.536c0.367-2.425-0.779-3.946-3.029-4.386C7.729,179.903,8.444,181.969,11.227,182.536z"
								/>
							<path fill="#C8B398" d="M8.13,195.455c-0.418,2.623,1.102,4.083,3.08,4.338C11.644,197.5,10.42,195.823,8.13,195.455z"/>
							<path fill="#C8B398" d="M11.833,191.173c2.403-0.455,3.462-2.081,3.059-4.365C12.685,187.177,11.427,188.771,11.833,191.173z
								"/>
							<path fill="#C8B398" d="M11.835,204.127c2.094-0.32,3.468-1.767,3.074-4.302C12.977,200.014,11.38,201.564,11.835,204.127z"
								/>
							<path fill="#C8B398" d="M11.834,199.807c2.214-0.354,3.477-1.902,3.066-4.343C12.676,195.826,11.428,197.437,11.834,199.807z
								"/>
							<path fill="#C8B398" d="M11.21,195.473c0.428-2.304-0.776-3.96-3.077-4.346C7.71,193.697,9.175,195.19,11.21,195.473z"/>
							<path fill="#C8B398" d="M11.84,195.493c2.33-0.419,3.463-2.022,3.054-4.364C12.586,191.54,11.43,193.195,11.84,195.493z"/>
							<path fill="#C8B398" d="M11.21,186.835c0.44-2.34-0.827-4.002-3.059-4.35C7.711,184.776,8.924,186.463,11.21,186.835z"/>
							<path fill="#C8B398" d="M14.904,178.152c-2.351,0.411-3.481,2.119-3.064,4.356C13.984,182.152,15.295,180.699,14.904,178.152
								z"/>
							<path fill="#C8B398" d="M11.203,191.155c0.444-2.228-0.711-3.959-3.052-4.352C7.706,189.12,8.953,190.804,11.203,191.155z"/>
							<path fill="#C8B398" d="M14.907,182.473c-2.445,0.442-3.487,2.243-3.058,4.359C13.98,186.474,15.29,185.051,14.907,182.473z"
								/>
							<path fill="#C8B398" d="M11.461,215.098c0.368-0.566,0.501-7.776,0.279-10.278c-0.318-0.12-0.478-0.061-0.478,0.337
								c0.007,3.079,0.001,6.157,0.01,9.236C11.273,214.583,11.371,214.773,11.461,215.098z"/>
						</g>
						<g>
							<path fill="#C8B398" d="M25.647,173.951c-1.887,1.901-1.532,3.908-0.111,5.324C27.132,177.83,27.386,175.802,25.647,173.951z
								"/>
							<path fill="#C8B398" d="M25.265,204.152c0.402-2.487-0.912-4.007-3.069-4.363C21.771,202,22.864,203.717,25.265,204.152z"/>
							<path fill="#C8B398" d="M25.271,182.536c0.367-2.425-0.779-3.946-3.029-4.386C21.773,179.903,22.488,181.969,25.271,182.536z
								"/>
							<path fill="#C8B398" d="M22.174,195.455c-0.418,2.623,1.102,4.083,3.08,4.338C25.688,197.5,24.464,195.823,22.174,195.455z"
								/>
							<path fill="#C8B398" d="M25.877,191.173c2.403-0.455,3.462-2.081,3.059-4.365C26.729,187.177,25.472,188.771,25.877,191.173z
								"/>
							<path fill="#C8B398" d="M25.879,204.127c2.094-0.32,3.468-1.767,3.074-4.302C27.021,200.014,25.424,201.564,25.879,204.127z"
								/>
							<path fill="#C8B398" d="M25.878,199.807c2.214-0.354,3.477-1.902,3.066-4.343C26.72,195.826,25.472,197.437,25.878,199.807z"
								/>
							<path fill="#C8B398" d="M25.255,195.473c0.428-2.304-0.776-3.96-3.077-4.346C21.754,193.697,23.22,195.19,25.255,195.473z"/>
							<path fill="#C8B398" d="M25.884,195.493c2.33-0.419,3.463-2.022,3.054-4.364C26.63,191.54,25.474,193.195,25.884,195.493z"/>
							<path fill="#C8B398" d="M25.255,186.835c0.44-2.34-0.827-4.002-3.059-4.35C21.755,184.776,22.969,186.463,25.255,186.835z"/>
							<path fill="#C8B398" d="M28.948,178.152c-2.351,0.411-3.481,2.119-3.064,4.356C28.028,182.152,29.34,180.699,28.948,178.152z
								"/>
							<path fill="#C8B398" d="M25.247,191.155c0.444-2.228-0.711-3.959-3.052-4.352C21.75,189.12,22.998,190.804,25.247,191.155z"
								/>
							<path fill="#C8B398" d="M28.951,182.473c-2.445,0.442-3.487,2.243-3.058,4.359C28.024,186.474,29.334,185.051,28.951,182.473
								z"/>
							<path fill="#C8B398" d="M25.505,215.098c0.368-0.566,0.501-7.776,0.279-10.278c-0.318-0.12-0.478-0.061-0.478,0.337
								c0.007,3.079,0.001,6.157,0.01,9.236C25.318,214.583,25.415,214.773,25.505,215.098z"/>
						</g>
						<g>
							<path fill="#C8B398" d="M87.283,173.951c-1.887,1.901-1.532,3.908-0.111,5.324C88.769,177.83,89.023,175.802,87.283,173.951z
								"/>
							<path fill="#C8B398" d="M86.902,204.152c0.402-2.487-0.912-4.007-3.069-4.363C83.408,202,84.5,203.717,86.902,204.152z"/>
							<path fill="#C8B398" d="M86.908,182.536c0.367-2.425-0.779-3.946-3.029-4.386C83.409,179.903,84.124,181.969,86.908,182.536z
								"/>
							<path fill="#C8B398" d="M83.81,195.455c-0.418,2.623,1.102,4.083,3.08,4.338C87.325,197.5,86.1,195.823,83.81,195.455z"/>
							<path fill="#C8B398" d="M87.514,191.173c2.403-0.455,3.462-2.081,3.059-4.365C88.365,187.177,87.108,188.771,87.514,191.173z
								"/>
							<path fill="#C8B398" d="M87.516,204.127c2.094-0.32,3.468-1.767,3.074-4.302C88.658,200.014,87.061,201.564,87.516,204.127z"
								/>
							<path fill="#C8B398" d="M87.514,199.807c2.214-0.354,3.477-1.902,3.066-4.343C88.356,195.826,87.108,197.437,87.514,199.807z
								"/>
							<path fill="#C8B398" d="M86.891,195.473c0.428-2.304-0.776-3.96-3.077-4.346C83.39,193.697,84.856,195.19,86.891,195.473z"/>
							<path fill="#C8B398" d="M87.52,195.493c2.33-0.419,3.463-2.022,3.054-4.364C88.267,191.54,87.111,193.195,87.52,195.493z"/>
							<path fill="#C8B398" d="M86.891,186.835c0.44-2.34-0.827-4.002-3.059-4.35C83.391,184.776,84.605,186.463,86.891,186.835z"/>
							<path fill="#C8B398" d="M90.584,178.152c-2.351,0.411-3.481,2.119-3.064,4.356C89.665,182.152,90.976,180.699,90.584,178.152
								z"/>
							<path fill="#C8B398" d="M86.883,191.155c0.444-2.228-0.711-3.959-3.052-4.352C83.387,189.12,84.634,190.804,86.883,191.155z"
								/>
							<path fill="#C8B398" d="M90.588,182.473c-2.445,0.442-3.487,2.243-3.058,4.359C89.66,186.474,90.97,185.051,90.588,182.473z"
								/>
							<path fill="#C8B398" d="M87.142,215.098c0.368-0.566,0.501-7.776,0.279-10.278c-0.318-0.12-0.478-0.061-0.478,0.337
								c0.007,3.079,0.001,6.157,0.01,9.236C86.954,214.583,87.052,214.773,87.142,215.098z"/>
						</g>
						<g>
							<path fill="#C8B398" d="M98.92,173.951c-1.887,1.901-1.532,3.908-0.111,5.324C100.406,177.83,100.66,175.802,98.92,173.951z"
								/>
							<path fill="#C8B398" d="M98.539,204.152c0.402-2.487-0.912-4.007-3.069-4.363C95.044,202,96.137,203.717,98.539,204.152z"/>
							<path fill="#C8B398" d="M98.544,182.536c0.367-2.425-0.779-3.946-3.029-4.386C95.046,179.903,95.761,181.969,98.544,182.536z
								"/>
							<path fill="#C8B398" d="M95.447,195.455c-0.418,2.623,1.102,4.083,3.08,4.338C98.961,197.5,97.737,195.823,95.447,195.455z"
								/>
							<path fill="#C8B398" d="M99.15,191.173c2.403-0.455,3.462-2.081,3.059-4.365C100.002,187.177,98.745,188.771,99.15,191.173z"
								/>
							<path fill="#C8B398" d="M99.152,204.127c2.094-0.32,3.468-1.767,3.074-4.302C100.294,200.014,98.697,201.564,99.152,204.127z
								"/>
							<path fill="#C8B398" d="M99.151,199.807c2.214-0.354,3.477-1.902,3.066-4.343C99.993,195.826,98.745,197.437,99.151,199.807z
								"/>
							<path fill="#C8B398" d="M98.528,195.473c0.428-2.304-0.776-3.96-3.077-4.346C95.027,193.697,96.493,195.19,98.528,195.473z"
								/>
							<path fill="#C8B398" d="M99.157,195.493c2.33-0.419,3.463-2.022,3.054-4.364C99.903,191.54,98.747,193.195,99.157,195.493z"
								/>
							<path fill="#C8B398" d="M98.528,186.835c0.44-2.34-0.827-4.002-3.059-4.35C95.028,184.776,96.242,186.463,98.528,186.835z"/>
							<path fill="#C8B398" d="M102.221,178.152c-2.351,0.411-3.481,2.119-3.064,4.356
								C101.301,182.152,102.613,180.699,102.221,178.152z"/>
							<path fill="#C8B398" d="M98.52,191.155c0.444-2.228-0.711-3.959-3.052-4.352C95.023,189.12,96.271,190.804,98.52,191.155z"/>
							<path fill="#C8B398" d="M102.224,182.473c-2.445,0.442-3.487,2.243-3.058,4.359
								C101.297,186.474,102.607,185.051,102.224,182.473z"/>
							<path fill="#C8B398" d="M98.778,215.098c0.368-0.566,0.501-7.776,0.279-10.278c-0.318-0.12-0.478-0.061-0.478,0.337
								c0.007,3.079,0.001,6.157,0.01,9.236C98.591,214.583,98.688,214.773,98.778,215.098z"/>
						</g>
						<g>
							<path fill="#C8B398" d="M61.603,173.951c-1.887,1.901-1.532,3.908-0.111,5.324C63.088,177.83,63.342,175.802,61.603,173.951z
								"/>
							<path fill="#C8B398" d="M61.221,204.152c0.402-2.487-0.912-4.007-3.069-4.363C57.727,202,58.82,203.717,61.221,204.152z"/>
							<path fill="#C8B398" d="M61.227,182.536c0.367-2.425-0.779-3.946-3.029-4.386C57.729,179.903,58.444,181.969,61.227,182.536z
								"/>
							<path fill="#C8B398" d="M58.13,195.455c-0.418,2.623,1.102,4.083,3.08,4.338C61.644,197.5,60.42,195.823,58.13,195.455z"/>
							<path fill="#C8B398" d="M61.833,191.173c2.403-0.455,3.462-2.081,3.059-4.365C62.685,187.177,61.427,188.771,61.833,191.173z
								"/>
							<path fill="#C8B398" d="M61.835,204.127c2.094-0.32,3.468-1.767,3.074-4.302C62.977,200.014,61.38,201.564,61.835,204.127z"
								/>
							<path fill="#C8B398" d="M61.834,199.807c2.214-0.354,3.477-1.902,3.066-4.343C62.676,195.826,61.428,197.437,61.834,199.807z
								"/>
							<path fill="#C8B398" d="M61.21,195.473c0.428-2.304-0.776-3.96-3.077-4.346C57.71,193.697,59.175,195.19,61.21,195.473z"/>
							<path fill="#C8B398" d="M61.84,195.493c2.33-0.419,3.463-2.022,3.054-4.364C62.586,191.54,61.43,193.195,61.84,195.493z"/>
							<path fill="#C8B398" d="M61.21,186.835c0.44-2.34-0.827-4.002-3.059-4.35C57.711,184.776,58.924,186.463,61.21,186.835z"/>
							<path fill="#C8B398" d="M64.904,178.152c-2.351,0.411-3.481,2.119-3.064,4.356C63.984,182.152,65.295,180.699,64.904,178.152
								z"/>
							<path fill="#C8B398" d="M61.203,191.155c0.444-2.228-0.711-3.959-3.052-4.352C57.706,189.12,58.953,190.804,61.203,191.155z"
								/>
							<path fill="#C8B398" d="M64.907,182.473c-2.445,0.442-3.487,2.243-3.058,4.359C63.98,186.474,65.29,185.051,64.907,182.473z"
								/>
							<path fill="#C8B398" d="M61.461,215.098c0.368-0.566,0.501-7.776,0.279-10.278c-0.318-0.12-0.478-0.061-0.478,0.337
								c0.007,3.079,0.001,6.157,0.01,9.236C61.273,214.583,61.371,214.773,61.461,215.098z"/>
						</g>
						<g>
							<path fill="#C8B398" d="M75.647,173.951c-1.887,1.901-1.532,3.908-0.111,5.324C77.132,177.83,77.386,175.802,75.647,173.951z
								"/>
							<path fill="#C8B398" d="M75.265,204.152c0.402-2.487-0.912-4.007-3.069-4.363C71.771,202,72.864,203.717,75.265,204.152z"/>
							<path fill="#C8B398" d="M75.271,182.536c0.367-2.425-0.779-3.946-3.029-4.386C71.773,179.903,72.488,181.969,75.271,182.536z
								"/>
							<path fill="#C8B398" d="M72.174,195.455c-0.418,2.623,1.102,4.083,3.08,4.338C75.688,197.5,74.464,195.823,72.174,195.455z"
								/>
							<path fill="#C8B398" d="M75.877,191.173c2.403-0.455,3.462-2.081,3.059-4.365C76.729,187.177,75.472,188.771,75.877,191.173z
								"/>
							<path fill="#C8B398" d="M75.879,204.127c2.094-0.32,3.468-1.767,3.074-4.302C77.021,200.014,75.424,201.564,75.879,204.127z"
								/>
							<path fill="#C8B398" d="M75.878,199.807c2.214-0.354,3.477-1.902,3.066-4.343C76.72,195.826,75.472,197.437,75.878,199.807z"
								/>
							<path fill="#C8B398" d="M75.255,195.473c0.428-2.304-0.776-3.96-3.077-4.346C71.754,193.697,73.22,195.19,75.255,195.473z"/>
							<path fill="#C8B398" d="M75.884,195.493c2.33-0.419,3.463-2.022,3.054-4.364C76.63,191.54,75.474,193.195,75.884,195.493z"/>
							<path fill="#C8B398" d="M75.255,186.835c0.44-2.34-0.827-4.002-3.059-4.35C71.755,184.776,72.969,186.463,75.255,186.835z"/>
							<path fill="#C8B398" d="M78.948,178.152c-2.351,0.411-3.481,2.119-3.064,4.356C78.028,182.152,79.34,180.699,78.948,178.152z
								"/>
							<path fill="#C8B398" d="M75.247,191.155c0.444-2.228-0.711-3.959-3.052-4.352C71.75,189.12,72.998,190.804,75.247,191.155z"
								/>
							<path fill="#C8B398" d="M78.951,182.473c-2.445,0.442-3.487,2.243-3.058,4.359C78.024,186.474,79.334,185.051,78.951,182.473
								z"/>
							<path fill="#C8B398" d="M75.505,215.098c0.368-0.566,0.501-7.776,0.279-10.278c-0.318-0.12-0.478-0.061-0.478,0.337
								c0.007,3.079,0.001,6.157,0.01,9.236C75.318,214.583,75.415,214.773,75.505,215.098z"/>
						</g>
						<g>
							<path fill="#C8B398" d="M137.283,173.951c-1.887,1.901-1.532,3.908-0.111,5.324
								C138.769,177.83,139.023,175.802,137.283,173.951z"/>
							<path fill="#C8B398" d="M136.902,204.152c0.402-2.487-0.912-4.007-3.069-4.363C133.408,202,134.5,203.717,136.902,204.152z"
								/>
							<path fill="#C8B398" d="M136.908,182.536c0.367-2.425-0.779-3.946-3.029-4.386
								C133.409,179.903,134.124,181.969,136.908,182.536z"/>
							<path fill="#C8B398" d="M133.81,195.455c-0.418,2.623,1.102,4.083,3.08,4.338C137.325,197.5,136.1,195.823,133.81,195.455z"
								/>
							<path fill="#C8B398" d="M137.514,191.173c2.403-0.455,3.462-2.081,3.059-4.365
								C138.365,187.177,137.108,188.771,137.514,191.173z"/>
							<path fill="#C8B398" d="M137.516,204.127c2.094-0.32,3.468-1.767,3.074-4.302
								C138.658,200.014,137.061,201.564,137.516,204.127z"/>
							<path fill="#C8B398" d="M137.514,199.807c2.214-0.354,3.477-1.902,3.066-4.343
								C138.356,195.826,137.108,197.437,137.514,199.807z"/>
							<path fill="#C8B398" d="M136.891,195.473c0.428-2.304-0.776-3.96-3.077-4.346C133.39,193.697,134.856,195.19,136.891,195.473
								z"/>
							<path fill="#C8B398" d="M137.52,195.493c2.33-0.419,3.463-2.022,3.054-4.364C138.267,191.54,137.111,193.195,137.52,195.493z
								"/>
							<path fill="#C8B398" d="M136.891,186.835c0.44-2.34-0.827-4.002-3.059-4.35C133.391,184.776,134.605,186.463,136.891,186.835
								z"/>
							<path fill="#C8B398" d="M140.584,178.152c-2.351,0.411-3.481,2.119-3.064,4.356
								C139.665,182.152,140.976,180.699,140.584,178.152z"/>
							<path fill="#C8B398" d="M136.883,191.155c0.444-2.228-0.711-3.959-3.052-4.352
								C133.387,189.12,134.634,190.804,136.883,191.155z"/>
							<path fill="#C8B398" d="M140.588,182.473c-2.445,0.442-3.487,2.243-3.058,4.359
								C139.66,186.474,140.97,185.051,140.588,182.473z"/>
							<path fill="#C8B398" d="M137.142,215.098c0.368-0.566,0.501-7.776,0.279-10.278c-0.318-0.12-0.478-0.061-0.478,0.337
								c0.007,3.079,0.001,6.157,0.01,9.236C136.954,214.583,137.052,214.773,137.142,215.098z"/>
						</g>
						<g>
							<path fill="#C8B398" d="M148.92,173.951c-1.887,1.901-1.532,3.908-0.111,5.324C150.406,177.83,150.66,175.802,148.92,173.951
								z"/>
							<path fill="#C8B398" d="M148.539,204.152c0.402-2.487-0.912-4.007-3.069-4.363C145.044,202,146.137,203.717,148.539,204.152z
								"/>
							<path fill="#C8B398" d="M148.544,182.536c0.367-2.425-0.779-3.946-3.029-4.386
								C145.046,179.903,145.761,181.969,148.544,182.536z"/>
							<path fill="#C8B398" d="M145.447,195.455c-0.418,2.623,1.102,4.083,3.08,4.338
								C148.961,197.5,147.737,195.823,145.447,195.455z"/>
							<path fill="#C8B398" d="M149.15,191.173c2.403-0.455,3.462-2.081,3.059-4.365
								C150.002,187.177,148.745,188.771,149.15,191.173z"/>
							<path fill="#C8B398" d="M149.152,204.127c2.094-0.32,3.468-1.767,3.074-4.302
								C150.294,200.014,148.697,201.564,149.152,204.127z"/>
							<path fill="#C8B398" d="M149.151,199.807c2.214-0.354,3.477-1.902,3.066-4.343
								C149.993,195.826,148.745,197.437,149.151,199.807z"/>
							<path fill="#C8B398" d="M148.528,195.473c0.428-2.304-0.776-3.96-3.077-4.346
								C145.027,193.697,146.493,195.19,148.528,195.473z"/>
							<path fill="#C8B398" d="M149.157,195.493c2.33-0.419,3.463-2.022,3.054-4.364
								C149.903,191.54,148.747,193.195,149.157,195.493z"/>
							<path fill="#C8B398" d="M148.528,186.835c0.44-2.34-0.827-4.002-3.059-4.35C145.028,184.776,146.242,186.463,148.528,186.835
								z"/>
							<path fill="#C8B398" d="M152.221,178.152c-2.351,0.411-3.481,2.119-3.064,4.356
								C151.301,182.152,152.613,180.699,152.221,178.152z"/>
							<path fill="#C8B398" d="M148.52,191.155c0.444-2.228-0.711-3.959-3.052-4.352C145.023,189.12,146.271,190.804,148.52,191.155
								z"/>
							<path fill="#C8B398" d="M152.224,182.473c-2.445,0.442-3.487,2.243-3.058,4.359
								C151.297,186.474,152.607,185.051,152.224,182.473z"/>
							<path fill="#C8B398" d="M148.778,215.098c0.368-0.566,0.501-7.776,0.279-10.278c-0.318-0.12-0.478-0.061-0.478,0.337
								c0.007,3.079,0.001,6.157,0.01,9.236C148.591,214.583,148.688,214.773,148.778,215.098z"/>
						</g>
						<g>
							<path fill="#C8B398" d="M111.603,173.951c-1.887,1.901-1.532,3.908-0.111,5.324
								C113.088,177.83,113.342,175.802,111.603,173.951z"/>
							<path fill="#C8B398" d="M111.221,204.152c0.402-2.487-0.912-4.007-3.069-4.363C107.727,202,108.82,203.717,111.221,204.152z"
								/>
							<path fill="#C8B398" d="M111.227,182.536c0.367-2.425-0.779-3.946-3.029-4.386
								C107.729,179.903,108.444,181.969,111.227,182.536z"/>
							<path fill="#C8B398" d="M108.13,195.455c-0.418,2.623,1.102,4.083,3.08,4.338C111.644,197.5,110.42,195.823,108.13,195.455z"
								/>
							<path fill="#C8B398" d="M111.833,191.173c2.403-0.455,3.462-2.081,3.059-4.365
								C112.685,187.177,111.427,188.771,111.833,191.173z"/>
							<path fill="#C8B398" d="M111.835,204.127c2.094-0.32,3.468-1.767,3.074-4.302
								C112.977,200.014,111.38,201.564,111.835,204.127z"/>
							<path fill="#C8B398" d="M111.834,199.807c2.214-0.354,3.477-1.902,3.066-4.343
								C112.676,195.826,111.428,197.437,111.834,199.807z"/>
							<path fill="#C8B398" d="M111.21,195.473c0.428-2.304-0.776-3.96-3.077-4.346C107.71,193.697,109.175,195.19,111.21,195.473z"
								/>
							<path fill="#C8B398" d="M111.84,195.493c2.33-0.419,3.463-2.022,3.054-4.364C112.586,191.54,111.43,193.195,111.84,195.493z"
								/>
							<path fill="#C8B398" d="M111.21,186.835c0.44-2.34-0.827-4.002-3.059-4.35C107.711,184.776,108.924,186.463,111.21,186.835z"
								/>
							<path fill="#C8B398" d="M114.904,178.152c-2.351,0.411-3.481,2.119-3.064,4.356
								C113.984,182.152,115.295,180.699,114.904,178.152z"/>
							<path fill="#C8B398" d="M111.203,191.155c0.444-2.228-0.711-3.959-3.052-4.352
								C107.706,189.12,108.953,190.804,111.203,191.155z"/>
							<path fill="#C8B398" d="M114.907,182.473c-2.445,0.442-3.487,2.243-3.058,4.359
								C113.98,186.474,115.29,185.051,114.907,182.473z"/>
							<path fill="#C8B398" d="M111.461,215.098c0.368-0.566,0.501-7.776,0.279-10.278c-0.318-0.12-0.478-0.061-0.478,0.337
								c0.007,3.079,0.001,6.157,0.01,9.236C111.273,214.583,111.371,214.773,111.461,215.098z"/>
						</g>
						<g>
							<path fill="#C8B398" d="M125.647,173.951c-1.887,1.901-1.532,3.908-0.111,5.324
								C127.132,177.83,127.386,175.802,125.647,173.951z"/>
							<path fill="#C8B398" d="M125.265,204.152c0.402-2.487-0.912-4.007-3.069-4.363C121.771,202,122.864,203.717,125.265,204.152z
								"/>
							<path fill="#C8B398" d="M125.271,182.536c0.367-2.425-0.779-3.946-3.029-4.386
								C121.773,179.903,122.488,181.969,125.271,182.536z"/>
							<path fill="#C8B398" d="M122.174,195.455c-0.418,2.623,1.102,4.083,3.08,4.338
								C125.688,197.5,124.464,195.823,122.174,195.455z"/>
							<path fill="#C8B398" d="M125.877,191.173c2.403-0.455,3.462-2.081,3.059-4.365
								C126.729,187.177,125.472,188.771,125.877,191.173z"/>
							<path fill="#C8B398" d="M125.879,204.127c2.094-0.32,3.468-1.767,3.074-4.302
								C127.021,200.014,125.424,201.564,125.879,204.127z"/>
							<path fill="#C8B398" d="M125.878,199.807c2.214-0.354,3.477-1.902,3.066-4.343
								C126.72,195.826,125.472,197.437,125.878,199.807z"/>
							<path fill="#C8B398" d="M125.255,195.473c0.428-2.304-0.776-3.96-3.077-4.346C121.754,193.697,123.22,195.19,125.255,195.473
								z"/>
							<path fill="#C8B398" d="M125.884,195.493c2.33-0.419,3.463-2.022,3.054-4.364C126.63,191.54,125.474,193.195,125.884,195.493
								z"/>
							<path fill="#C8B398" d="M125.255,186.835c0.44-2.34-0.827-4.002-3.059-4.35C121.755,184.776,122.969,186.463,125.255,186.835
								z"/>
							<path fill="#C8B398" d="M128.948,178.152c-2.351,0.411-3.481,2.119-3.064,4.356
								C128.028,182.152,129.34,180.699,128.948,178.152z"/>
							<path fill="#C8B398" d="M125.247,191.155c0.444-2.228-0.711-3.959-3.052-4.352
								C121.75,189.12,122.998,190.804,125.247,191.155z"/>
							<path fill="#C8B398" d="M128.951,182.473c-2.445,0.442-3.487,2.243-3.058,4.359
								C128.024,186.474,129.334,185.051,128.951,182.473z"/>
							<path fill="#C8B398" d="M125.505,215.098c0.368-0.566,0.501-7.776,0.279-10.278c-0.318-0.12-0.478-0.061-0.478,0.337
								c0.007,3.079,0.001,6.157,0.01,9.236C125.318,214.583,125.415,214.773,125.505,215.098z"/>
						</g>
						<g>
							<path fill="#C8B398" d="M187.283,173.951c-1.887,1.901-1.532,3.908-0.111,5.324
								C188.769,177.83,189.023,175.802,187.283,173.951z"/>
							<path fill="#C8B398" d="M186.902,204.152c0.402-2.487-0.912-4.007-3.069-4.363C183.408,202,184.5,203.717,186.902,204.152z"
								/>
							<path fill="#C8B398" d="M186.908,182.536c0.367-2.425-0.779-3.946-3.029-4.386
								C183.409,179.903,184.124,181.969,186.908,182.536z"/>
							<path fill="#C8B398" d="M183.81,195.455c-0.418,2.623,1.102,4.083,3.08,4.338C187.325,197.5,186.1,195.823,183.81,195.455z"
								/>
							<path fill="#C8B398" d="M187.514,191.173c2.403-0.455,3.462-2.081,3.059-4.365
								C188.365,187.177,187.108,188.771,187.514,191.173z"/>
							<path fill="#C8B398" d="M187.516,204.127c2.094-0.32,3.468-1.767,3.074-4.302
								C188.658,200.014,187.061,201.564,187.516,204.127z"/>
							<path fill="#C8B398" d="M187.514,199.807c2.214-0.354,3.477-1.902,3.066-4.343
								C188.356,195.826,187.108,197.437,187.514,199.807z"/>
							<path fill="#C8B398" d="M186.891,195.473c0.428-2.304-0.776-3.96-3.077-4.346C183.39,193.697,184.856,195.19,186.891,195.473
								z"/>
							<path fill="#C8B398" d="M187.52,195.493c2.33-0.419,3.463-2.022,3.054-4.364C188.267,191.54,187.111,193.195,187.52,195.493z
								"/>
							<path fill="#C8B398" d="M186.891,186.835c0.44-2.34-0.827-4.002-3.059-4.35C183.391,184.776,184.605,186.463,186.891,186.835
								z"/>
							<path fill="#C8B398" d="M190.584,178.152c-2.351,0.411-3.481,2.119-3.064,4.356
								C189.665,182.152,190.976,180.699,190.584,178.152z"/>
							<path fill="#C8B398" d="M186.883,191.155c0.444-2.228-0.711-3.959-3.052-4.352
								C183.387,189.12,184.634,190.804,186.883,191.155z"/>
							<path fill="#C8B398" d="M190.588,182.473c-2.445,0.442-3.487,2.243-3.058,4.359
								C189.66,186.474,190.97,185.051,190.588,182.473z"/>
							<path fill="#C8B398" d="M187.142,215.098c0.368-0.566,0.501-7.776,0.279-10.278c-0.318-0.12-0.478-0.061-0.478,0.337
								c0.007,3.079,0.001,6.157,0.01,9.236C186.954,214.583,187.052,214.773,187.142,215.098z"/>
						</g>
						<g>
							<path fill="#C8B398" d="M198.92,173.951c-1.887,1.901-1.532,3.908-0.111,5.324C200.406,177.83,200.66,175.802,198.92,173.951
								z"/>
							<path fill="#C8B398" d="M198.539,204.152c0.402-2.487-0.912-4.007-3.069-4.363C195.044,202,196.137,203.717,198.539,204.152z
								"/>
							<path fill="#C8B398" d="M198.544,182.536c0.367-2.425-0.779-3.946-3.029-4.386
								C195.046,179.903,195.761,181.969,198.544,182.536z"/>
							<path fill="#C8B398" d="M195.447,195.455c-0.418,2.623,1.102,4.083,3.08,4.338
								C198.961,197.5,197.737,195.823,195.447,195.455z"/>
							<path fill="#C8B398" d="M199.15,191.173c2.403-0.455,3.462-2.081,3.059-4.365
								C200.002,187.177,198.745,188.771,199.15,191.173z"/>
							<path fill="#C8B398" d="M199.152,204.127c2.094-0.32,3.468-1.767,3.074-4.302
								C200.294,200.014,198.697,201.564,199.152,204.127z"/>
							<path fill="#C8B398" d="M199.151,199.807c2.214-0.354,3.477-1.902,3.066-4.343
								C199.993,195.826,198.745,197.437,199.151,199.807z"/>
							<path fill="#C8B398" d="M198.528,195.473c0.428-2.304-0.776-3.96-3.077-4.346
								C195.027,193.697,196.493,195.19,198.528,195.473z"/>
							<path fill="#C8B398" d="M199.157,195.493c2.33-0.419,3.463-2.022,3.054-4.364
								C199.903,191.54,198.747,193.195,199.157,195.493z"/>
							<path fill="#C8B398" d="M198.528,186.835c0.44-2.34-0.827-4.002-3.059-4.35C195.028,184.776,196.242,186.463,198.528,186.835
								z"/>
							<path fill="#C8B398" d="M202.221,178.152c-2.351,0.411-3.481,2.119-3.064,4.356
								C201.301,182.152,202.613,180.699,202.221,178.152z"/>
							<path fill="#C8B398" d="M198.52,191.155c0.444-2.228-0.711-3.959-3.052-4.352C195.023,189.12,196.271,190.804,198.52,191.155
								z"/>
							<path fill="#C8B398" d="M202.224,182.473c-2.445,0.442-3.487,2.243-3.058,4.359
								C201.297,186.474,202.607,185.051,202.224,182.473z"/>
							<path fill="#C8B398" d="M198.778,215.098c0.368-0.566,0.501-7.776,0.279-10.278c-0.318-0.12-0.478-0.061-0.478,0.337
								c0.007,3.079,0.001,6.157,0.01,9.236C198.591,214.583,198.688,214.773,198.778,215.098z"/>
						</g>
						<g>
							<path fill="#C8B398" d="M161.603,173.951c-1.887,1.901-1.532,3.908-0.111,5.324
								C163.088,177.83,163.342,175.802,161.603,173.951z"/>
							<path fill="#C8B398" d="M161.221,204.152c0.402-2.487-0.912-4.007-3.069-4.363C157.727,202,158.82,203.717,161.221,204.152z"
								/>
							<path fill="#C8B398" d="M161.227,182.536c0.367-2.425-0.779-3.946-3.029-4.386
								C157.729,179.903,158.444,181.969,161.227,182.536z"/>
							<path fill="#C8B398" d="M158.13,195.455c-0.418,2.623,1.102,4.083,3.08,4.338C161.644,197.5,160.42,195.823,158.13,195.455z"
								/>
							<path fill="#C8B398" d="M161.833,191.173c2.403-0.455,3.462-2.081,3.059-4.365
								C162.685,187.177,161.427,188.771,161.833,191.173z"/>
							<path fill="#C8B398" d="M161.835,204.127c2.094-0.32,3.468-1.767,3.074-4.302
								C162.977,200.014,161.38,201.564,161.835,204.127z"/>
							<path fill="#C8B398" d="M161.834,199.807c2.214-0.354,3.477-1.902,3.066-4.343
								C162.676,195.826,161.428,197.437,161.834,199.807z"/>
							<path fill="#C8B398" d="M161.21,195.473c0.428-2.304-0.776-3.96-3.077-4.346C157.71,193.697,159.175,195.19,161.21,195.473z"
								/>
							<path fill="#C8B398" d="M161.84,195.493c2.33-0.419,3.463-2.022,3.054-4.364C162.586,191.54,161.43,193.195,161.84,195.493z"
								/>
							<path fill="#C8B398" d="M161.21,186.835c0.44-2.34-0.827-4.002-3.059-4.35C157.711,184.776,158.924,186.463,161.21,186.835z"
								/>
							<path fill="#C8B398" d="M164.904,178.152c-2.351,0.411-3.481,2.119-3.064,4.356
								C163.984,182.152,165.295,180.699,164.904,178.152z"/>
							<path fill="#C8B398" d="M161.203,191.155c0.444-2.228-0.711-3.959-3.052-4.352
								C157.706,189.12,158.953,190.804,161.203,191.155z"/>
							<path fill="#C8B398" d="M164.907,182.473c-2.445,0.442-3.487,2.243-3.058,4.359
								C163.98,186.474,165.29,185.051,164.907,182.473z"/>
							<path fill="#C8B398" d="M161.461,215.098c0.368-0.566,0.501-7.776,0.279-10.278c-0.318-0.12-0.478-0.061-0.478,0.337
								c0.007,3.079,0.001,6.157,0.01,9.236C161.273,214.583,161.371,214.773,161.461,215.098z"/>
						</g>
						<g>
							<path fill="#C8B398" d="M175.647,173.951c-1.887,1.901-1.532,3.908-0.111,5.324
								C177.132,177.83,177.386,175.802,175.647,173.951z"/>
							<path fill="#C8B398" d="M175.265,204.152c0.402-2.487-0.912-4.007-3.069-4.363C171.771,202,172.864,203.717,175.265,204.152z
								"/>
							<path fill="#C8B398" d="M175.271,182.536c0.367-2.425-0.779-3.946-3.029-4.386
								C171.773,179.903,172.488,181.969,175.271,182.536z"/>
							<path fill="#C8B398" d="M172.174,195.455c-0.418,2.623,1.102,4.083,3.08,4.338
								C175.688,197.5,174.464,195.823,172.174,195.455z"/>
							<path fill="#C8B398" d="M175.877,191.173c2.403-0.455,3.462-2.081,3.059-4.365
								C176.729,187.177,175.472,188.771,175.877,191.173z"/>
							<path fill="#C8B398" d="M175.879,204.127c2.094-0.32,3.468-1.767,3.074-4.302
								C177.021,200.014,175.424,201.564,175.879,204.127z"/>
							<path fill="#C8B398" d="M175.878,199.807c2.214-0.354,3.477-1.902,3.066-4.343
								C176.72,195.826,175.472,197.437,175.878,199.807z"/>
							<path fill="#C8B398" d="M175.255,195.473c0.428-2.304-0.776-3.96-3.077-4.346C171.754,193.697,173.22,195.19,175.255,195.473
								z"/>
							<path fill="#C8B398" d="M175.884,195.493c2.33-0.419,3.463-2.022,3.054-4.364C176.63,191.54,175.474,193.195,175.884,195.493
								z"/>
							<path fill="#C8B398" d="M175.255,186.835c0.44-2.34-0.827-4.002-3.059-4.35C171.755,184.776,172.969,186.463,175.255,186.835
								z"/>
							<path fill="#C8B398" d="M178.948,178.152c-2.351,0.411-3.481,2.119-3.064,4.356
								C178.028,182.152,179.34,180.699,178.948,178.152z"/>
							<path fill="#C8B398" d="M175.247,191.155c0.444-2.228-0.711-3.959-3.052-4.352
								C171.75,189.12,172.998,190.804,175.247,191.155z"/>
							<path fill="#C8B398" d="M178.951,182.473c-2.445,0.442-3.487,2.243-3.058,4.359
								C178.024,186.474,179.334,185.051,178.951,182.473z"/>
							<path fill="#C8B398" d="M175.505,215.098c0.368-0.566,0.501-7.776,0.279-10.278c-0.318-0.12-0.478-0.061-0.478,0.337
								c0.007,3.079,0.001,6.157,0.01,9.236C175.318,214.583,175.415,214.773,175.505,215.098z"/>
						</g>
					</g>
				</g>
			</g>
			<use xlink:href="#SVGID_2430_"  overflow="visible" fill="none" stroke="#95846F" stroke-miterlimit="10"/>
		</g>
	</g>
	<text transform="matrix(1 0 0 1 279.5903 95.0904)"><tspan x="0" y="0" font-family="'Roboto-Regular'" font-size="18">Food, Civil Supplies and</tspan><tspan x="42.363" y="25" font-family="'Roboto-Regular'" font-size="18">Co-operation</tspan></text>
	<g>
		<path fill="#7A6B5A" d="M81.229,163.767c1.285,0,2.572,0.04,3.855-0.017c0.641-0.028,1.295-0.17,1.906-0.374
			c1.095-0.365,1.605-1.231,1.667-2.377c0.085-1.564-0.355-3.017-0.964-4.423c-0.76-1.753-1.784-3.317-3.258-4.533
			c-0.132-0.109-0.336-0.179-0.507-0.181c-1.797-0.013-3.594-0.005-5.39-0.012c-0.21-0.001-0.375,0.052-0.539,0.193
			c-1.894,1.62-3.068,3.713-3.811,6.085c-0.251,0.803-0.402,1.626-0.41,2.474c-0.016,1.69,0.733,2.699,2.365,2.976
			c1,0.169,2.027,0.188,3.044,0.239c0.679,0.034,1.361,0.007,2.042,0.007C81.229,163.804,81.229,163.786,81.229,163.767z"/>
		<path fill="#7A6B5A" d="M81.221,149.664c0.917,0,1.834,0.007,2.751-0.008c0.132-0.002,0.305-0.069,0.387-0.168
			c0.418-0.507,0.816-1.031,1.209-1.559c0.076-0.103,0.109-0.245,0.142-0.375c0.158-0.621-0.208-1.115-0.839-1.152
			c-0.505-0.029-0.97,0.129-1.423,0.323c-0.522,0.223-1.036,0.465-1.551,0.703c-0.448,0.207-0.89,0.205-1.341,0.003
			c-0.673-0.301-1.347-0.602-2.03-0.876c-0.389-0.156-0.802-0.228-1.219-0.096c-0.47,0.148-0.694,0.547-0.583,1.033
			c0.136,0.596,0.499,1.056,0.88,1.499c0.583,0.677,0.588,0.672,1.463,0.672C79.784,149.664,80.502,149.664,81.221,149.664z"/>
		<path fill="#7A6B5A" d="M81.237,151.29c0.85,0,1.701,0.001,2.551-0.001c0.384-0.001,0.61-0.193,0.621-0.517
			c0.011-0.346-0.208-0.564-0.606-0.565c-1.72-0.005-3.439-0.005-5.159,0c-0.398,0.001-0.616,0.218-0.606,0.565
			c0.01,0.324,0.237,0.516,0.62,0.517C79.518,151.292,80.378,151.29,81.237,151.29z"/>
	</g>
	<g>
		<path fill="#7A6B5A" d="M64.334,163.767c1.285,0,2.572,0.04,3.855-0.017c0.641-0.028,1.295-0.17,1.906-0.374
			c1.095-0.365,1.605-1.231,1.667-2.377c0.085-1.564-0.355-3.017-0.964-4.423c-0.76-1.753-1.784-3.317-3.258-4.533
			c-0.132-0.109-0.336-0.179-0.507-0.181c-1.797-0.013-3.594-0.005-5.39-0.012c-0.21-0.001-0.375,0.052-0.539,0.193
			c-1.894,1.62-3.068,3.713-3.811,6.085c-0.251,0.803-0.402,1.626-0.41,2.474c-0.016,1.69,0.733,2.699,2.365,2.976
			c1,0.169,2.027,0.188,3.044,0.239c0.679,0.034,1.361,0.007,2.042,0.007C64.334,163.804,64.334,163.786,64.334,163.767z"/>
		<path fill="#7A6B5A" d="M64.326,149.664c0.917,0,1.834,0.007,2.751-0.008c0.132-0.002,0.305-0.069,0.387-0.168
			c0.418-0.507,0.817-1.031,1.209-1.559c0.076-0.103,0.109-0.245,0.142-0.375c0.158-0.621-0.208-1.115-0.839-1.152
			c-0.505-0.029-0.97,0.129-1.423,0.323c-0.522,0.223-1.036,0.465-1.551,0.703c-0.448,0.207-0.89,0.205-1.341,0.003
			c-0.673-0.301-1.347-0.602-2.03-0.876c-0.389-0.156-0.802-0.228-1.219-0.096c-0.47,0.148-0.694,0.547-0.583,1.033
			c0.136,0.596,0.499,1.056,0.88,1.499c0.583,0.677,0.588,0.672,1.463,0.672C62.889,149.664,63.608,149.664,64.326,149.664z"/>
		<path fill="#7A6B5A" d="M64.343,151.29c0.85,0,1.701,0.001,2.551-0.001c0.384-0.001,0.61-0.193,0.621-0.517
			c0.011-0.346-0.208-0.564-0.606-0.565c-1.72-0.005-3.439-0.005-5.159,0c-0.398,0.001-0.616,0.218-0.606,0.565
			c0.01,0.324,0.237,0.516,0.62,0.517C62.623,151.292,63.483,151.29,64.343,151.29z"/>
	</g>
	<g>
		<polygon fill="#C8B398" points="166.859,125 167.122,138.93 185.937,141.028 187.361,140.193 185.621,135.147 181.35,125 		"/>
		<polygon fill="#C8B398" points="100.356,154.995 103.871,156 109.306,156 127.889,155.648 124.081,147 101.212,147 		"/>
		<polygon fill="#C8B398" points="159.328,154.651 162.843,156 168.278,156 186.861,155.304 183.053,144 160.184,144 		"/>
		<rect x="91" y="122" fill="#C8B398" width="76" height="26"/>
		<g>
			<path fill="#7A6B5A" d="M91.285,145.286c0-10.416,0-20.702,0-31.121c21.853,0,43.669,0,65.591,0c0,10.348,0,20.668,0,31.121
				C135.067,145.286,113.251,145.286,91.285,145.286z"/>
			<path fill="#7A6B5A" d="M188.407,152.717c0.003-4.205,0.022-8.41-0.018-12.614c-0.008-0.784-0.139-1.616-0.426-2.341
				c-1.723-4.347-3.535-8.658-5.252-13.007c-0.379-0.96-0.808-1.396-1.938-1.453c-3.66-0.182-7.31-0.554-10.965-0.828
				c-2.828-0.212-5.658-0.388-8.692-0.593c0,8.674,0,17.158,0,25.816c-13.587,0-26.981,0-40.514,0
				c3.011,3.788,2.676,3.122,3.765,7.904c13.411,0,26.829,0,40.233,0c0.994-6.282,4.354-9.69,9.8-10.014
				c5.413-0.322,8.684,2.714,10.753,9.978C187.641,155.854,188.405,155.189,188.407,152.717z M180.072,126.934
				c0.303,0.025,0.739,0.309,0.845,0.578c1.474,3.728,2.9,7.475,4.453,11.513c-2.776-0.316-5.269-0.585-7.758-0.886
				c-2.348-0.283-4.69-0.616-7.039-0.89c-0.752-0.088-1.338-0.151-1.323-1.172c0.048-3.22,0.018-6.441,0.018-9.945
				C173.011,126.403,176.544,126.645,180.072,126.934z"/>
			<path fill="#7A6B5A" d="M166.86,155.717c-0.048-4.392,3.535-8.042,7.927-8.076c4.38-0.034,8.055,3.578,8.089,7.949
				c0.033,4.371-3.587,8.041-7.958,8.067C170.487,163.683,166.908,160.158,166.86,155.717z"/>
			<path fill="#7A6B5A" d="M122.029,155.678c-0.009,4.456-3.547,7.976-7.994,7.952c-4.477-0.024-7.951-3.523-7.944-8.002
				c0.007-4.43,3.599-8.019,7.994-7.987C118.516,147.673,122.038,151.236,122.029,155.678z"/>
			<path fill="#7A6B5A" d="M103.871,155.533c-4.201,0.593-8.034,0.026-11.658-1.736c-0.419-0.204-0.899-0.769-0.93-1.197
				c-0.112-1.551-0.044-3.115-0.044-4.817c5.432,0,10.742,0,16.325,0C105.297,149.943,104.005,152.499,103.871,155.533z"/>
		</g>
	</g>
	<g>
		<g>
			<defs>
				<polygon id="SVGID_2440_" points="0.5,295.5 0.5,499.5 178.502,499.5 234.018,295.5 				"/>
			</defs>
			<clipPath id="SVGID_17_">
				<use xlink:href="#SVGID_2440_"  overflow="visible"/>
			</clipPath>
			<g clip-path="url(#SVGID_17_)">
				<g>
					<defs>
						<polygon id="SVGID_2442_" points="-148,108 -148,582 150.519,582 262.224,108 						"/>
					</defs>
					<clipPath id="SVGID_19_">
						<use xlink:href="#SVGID_2442_"  overflow="visible"/>
					</clipPath>
				</g>
			</g>
			<use xlink:href="#SVGID_2440_"  overflow="visible" fill="none" stroke="#95846F" stroke-miterlimit="10"/>
		</g>
	</g>
</g>
<g id="Layer_2">
</g>
</svg>
