<?xml version="1.0" encoding="utf-8"?>
<!-- Generator: Adobe Illustrator 17.0.0, SVG Export Plug-In . SVG Version: 6.00 Build 0)  -->
<!DOCTYPE svg PUBLIC "-//W3C//DTD SVG 1.1//EN" "http://www.w3.org/Graphics/SVG/1.1/DTD/svg11.dtd">
<svg version="1.1" id="Layer_1" xmlns="http://www.w3.org/2000/svg" xmlns:xlink="http://www.w3.org/1999/xlink" x="0px" y="0px"
	 width="581.238px" height="253.981px" viewBox="0 0 581.238 253.981" enable-background="new 0 0 581.238 253.981"
	 xml:space="preserve">
<rect x="31.789" y="20.191" fill="#FFFFFF" stroke="#4D4D4D" stroke-miterlimit="10" width="519" height="204"/>
<g>
	<defs>
		<polygon id="SVGID_2047_" points="-591.217,18.93 -591.217,224.411 -412.041,224.411 -356.623,19.888 		"/>
	</defs>
	<clipPath id="SVGID_2_">
		<use xlink:href="#SVGID_2047_"  overflow="visible"/>
	</clipPath>
	<g clip-path="url(#SVGID_2_)">
		<defs>
			<rect id="SVGID_2049_" x="-712.695" y="-1844.685" width="1923.24" height="3789.385"/>
		</defs>
		<clipPath id="SVGID_4_">
			<use xlink:href="#SVGID_2049_"  overflow="visible"/>
		</clipPath>
	</g>
</g>
<g>
	<defs>
		<polygon id="SVGID_2269_" points="31.289,20.691 31.289,223.691 211.077,223.691 265.514,20.691 		"/>
	</defs>
	<clipPath id="SVGID_6_">
		<use xlink:href="#SVGID_2269_"  overflow="visible"/>
	</clipPath>
	<g clip-path="url(#SVGID_6_)">
		<polygon fill="#DEEBC5" points="32.289,19.691 32.289,225.691 226.017,225.691 271.89,19.691 		"/>
		<g>
			<defs>
				<polygon id="SVGID_2271_" points="63.497,19.691 15.084,225.691 201.934,225.691 247.806,19.691 				"/>
			</defs>
			<clipPath id="SVGID_7_">
				<use xlink:href="#SVGID_2271_"  overflow="visible"/>
			</clipPath>
			<path opacity="0.3" clip-path="url(#SVGID_7_)" fill="#819D2C" d="M224.849,34.263c-1.857-4.331-4.772-7.251-8.657-8.68
				c-3.324-1.221-6.776-1.099-9.565-0.603c-1.12-1.308-2.786-2.154-4.674-2.154c-3.368,0-6.095,2.65-6.095,5.926
				c0,3.27,2.726,5.92,6.095,5.92c3.168,0,5.734-2.343,6.041-5.332c2.031-0.304,4.375-0.345,6.558,0.452
				c2.646,0.971,4.668,3.056,6.017,6.198c7.316,17.05-6.609,74.631-9.867,87.491c-1.371,0.452-2.371,1.676-2.371,3.157
				c0,19.439-12.999,35.254-28.976,35.254c-15.977,0-28.973-15.815-28.973-35.254c0-1.279-0.762-2.354-1.843-2.925
				c-3.148-12.394-17.291-70.566-9.923-87.723c1.347-3.134,3.363-5.219,5.999-6.193c2.234-0.826,4.626-0.774,6.677-0.449
				c0.314,2.986,2.879,5.323,6.038,5.323c3.369,0,6.098-2.65,6.098-5.92c0-3.276-2.729-5.926-6.098-5.926
				c-1.896,0-3.566,0.855-4.682,2.171c-2.807-0.507-6.292-0.647-9.652,0.589c-3.888,1.426-6.8,4.346-8.66,8.677
				c-8.015,18.665,6.429,77.788,9.705,90.573c-0.355,0.531-0.615,1.128-0.615,1.809c0,21.46,13.844,39.182,31.634,41.676
				c-2.619,14.435,4.324,28.551,4.674,29.244c10.709,20.416,11.996,39.812,3.533,53.217c-6.265,9.921-17.395,15.386-31.344,15.386
				c-33.494,0-57.429-47.848-57.686-48.124c-0.4-0.429-5.546-5.914-12.053-11.678c1.711-2.986,2.691-6.416,2.691-10.069
				c0-11.463-9.61-20.787-21.421-20.787c-11.808,0-21.415,9.324-21.415,20.787c0,11.466,9.607,20.796,21.415,20.796
				c5.543,0,10.583-2.073,14.391-5.436c4.757,4.239,8.992,8.509,11.213,10.892c1.051,1.148,26.187,50.368,62.864,50.368
				c16.46,0,29.695-6.607,37.272-18.607c9.759-15.453,8.568-37.254-3.24-59.758c-0.069-0.142-6.647-13.47-3.858-26.064
				c18.527-1.65,33.183-19.761,33.183-41.844c0-0.464-0.099-0.905-0.272-1.305C217.996,113.759,232.975,53.195,224.849,34.263z
				 M63.456,214.844c-10.53,0-19.097-8.321-19.097-18.546c0-10.22,8.568-18.54,19.097-18.54c10.533,0,19.103,8.318,19.103,18.54
				c0,3.07-0.785,5.964-2.15,8.515c-1.093-0.936-2.213-1.873-3.348-2.783c0.785-1.757,1.233-3.691,1.233-5.732
				c0-7.95-6.641-14.4-14.839-14.4c-8.191,0-14.833,6.451-14.833,14.4c0,7.958,6.641,14.406,14.833,14.406
				c3.575,0,6.812-1.276,9.374-3.322c1.105,0.893,2.201,1.826,3.291,2.766C72.744,213.059,68.318,214.844,63.456,214.844z
				 M63.456,186.896c-5.339,0-9.684,4.215-9.684,9.399c0,5.187,4.345,9.408,9.684,9.408c1.923,0,3.703-0.562,5.214-1.505
				c0.427,0.304,0.857,0.62,1.287,0.942c-1.837,1.279-4.073,2.05-6.501,2.05c-6.188,0-11.219-4.891-11.219-10.898
				c0-6.004,5.032-10.889,11.219-10.889s11.222,4.885,11.222,10.889c0,1.197-0.248,2.331-0.618,3.412
				c-0.433-0.322-0.863-0.641-1.296-0.948c0.224-0.789,0.379-1.606,0.379-2.464C73.144,191.112,68.799,186.896,63.456,186.896z"/>
		</g>
		<path fill="#819D2C" d="M138.823,79.11c-8.316,0-16.568,2.951-23.827,10.643c-7.259-7.692-15.511-10.643-23.827-10.643
			c-16.318,0-31.769,13.093-31.769,31.769c0,7.033,1.648,13.605,4.325,19.856h16.881l14.995-34.994l16.623,49.862l4.618-6.926h7.2
			c1.378-2.363,3.908-3.971,6.842-3.971c4.384,0,7.942,3.558,7.942,7.942s-3.558,7.942-7.942,7.942
			c-2.931,0-5.464-1.604-6.842-3.971h-2.947l-11.266,16.901l-15.146-45.446l-8.84,20.602H67.763
			c10.111,17.167,27.258,31.924,39.291,46.725c3.661,4.499,5.834,4.9,7.942,4.9s4.281-0.401,7.942-4.9
			c18.033-22.179,47.654-44.243,47.654-74.523C170.592,92.203,155.14,79.11,138.823,79.11z"/>
		<g>
			<defs>
				<polygon id="SVGID_2273_" points="63.497,19.691 15.084,225.691 201.934,225.691 247.806,19.691 				"/>
			</defs>
			<clipPath id="SVGID_8_">
				<use xlink:href="#SVGID_2273_"  overflow="visible"/>
			</clipPath>
		</g>
		<path opacity="0.6" fill="#819D2C" d="M101.131,139.118H62.517c11.234,19.074,30.286,35.47,43.655,51.915
			c4.068,4.999,6.482,5.445,8.825,5.445s4.756-0.446,8.825-5.445c20.036-24.642,52.947-49.157,52.947-82.8
			c0-20.751-17.168-35.298-35.298-35.298c-9.239,0-18.408,3.278-26.474,11.825c-8.066-8.547-17.234-11.825-26.474-11.825
			c-18.13,0-35.298,14.547-35.298,35.298c0,7.814,1.831,15.116,4.805,22.061h18.756l16.661-38.881l18.47,36.874l5.131,8.978h7.999
			c1.531-2.625,4.342-2.56,7.602-2.56c4.871,0,8.825,3.953,8.825,8.825c0,4.871-3.953,8.825-8.825,8.825
			c-3.256,0-6.071-1.783-7.602-4.412h-3.274l-12.518,18.779"/>
	</g>
</g>
</svg>
