<?xml version="1.0" encoding="utf-8"?>
<!-- Generator: Adobe Illustrator 17.0.0, SVG Export Plug-In . SVG Version: 6.00 Build 0)  -->
<!DOCTYPE svg PUBLIC "-//W3C//DTD SVG 1.1//EN" "http://www.w3.org/Graphics/SVG/1.1/DTD/svg11.dtd">
<svg version="1.1" id="Layer_1" xmlns="http://www.w3.org/2000/svg" xmlns:xlink="http://www.w3.org/1999/xlink" x="0px" y="0px"
	 width="136.222px" height="115px" viewBox="0 0 136.222 115" enable-background="new 0 0 136.222 115" xml:space="preserve">
<g>
	<g>
		<defs>
			<rect id="SVGID_1141_" x="-159.356" y="189.516" width="130" height="115"/>
		</defs>
		<clipPath id="SVGID_2_">
			<use xlink:href="#SVGID_1141_"  overflow="visible"/>
		</clipPath>
		<g clip-path="url(#SVGID_2_)">
		</g>
	</g>
</g>
<g>
	<defs>
		<rect id="SVGID_1437_" x="0" y="0.058" width="136.507" height="115"/>
	</defs>
	<clipPath id="SVGID_4_">
		<use xlink:href="#SVGID_1437_"  overflow="visible"/>
	</clipPath>
	<g clip-path="url(#SVGID_4_)">
		<g>
			<g>
				<defs>
					<polygon id="SVGID_1439_" points="-0.356,-1.484 -0.356,124.516 80.675,124.516 110.409,-1.484 					"/>
				</defs>
				<clipPath id="SVGID_6_">
					<use xlink:href="#SVGID_1439_"  overflow="visible"/>
				</clipPath>
			</g>
			<g>
				<defs>
					<polygon id="SVGID_1441_" points="-1.356,-0.484 -1.356,117.516 136.22,117.516 136.338,-0.484 					"/>
				</defs>
				<clipPath id="SVGID_8_">
					<use xlink:href="#SVGID_1441_"  overflow="visible"/>
				</clipPath>
				<polygon opacity="0.3" clip-path="url(#SVGID_8_)" fill="#B2E9FF" points="-1.356,-2.484 -1.356,124.516 138.589,124.516 
					137.138,-2.484 				"/>
				<g clip-path="url(#SVGID_8_)">
					<defs>
						<polyline id="SVGID_1443_" points="12.644,124.516 140.643,124.516 140.569,-14.484 12.644,-14.484 						"/>
					</defs>
					<clipPath id="SVGID_10_">
						<use xlink:href="#SVGID_1443_"  overflow="visible"/>
					</clipPath>
				</g>
			</g>
		</g>
		<g>
			<defs>
				<polygon id="SVGID_1445_" points="-1.356,1.516 -1.356,119.516 136.22,119.516 135.735,1.516 				"/>
			</defs>
			<clipPath id="SVGID_12_">
				<use xlink:href="#SVGID_1445_"  overflow="visible"/>
			</clipPath>
		</g>
		<g>
			<defs>
				<polygon id="SVGID_1447_" points="-1.356,-0.484 -1.356,119.516 138.589,119.516 137.138,-0.484 				"/>
			</defs>
			<clipPath id="SVGID_14_">
				<use xlink:href="#SVGID_1447_"  overflow="visible"/>
			</clipPath>
			<rect x="-5.558" y="86.911" clip-path="url(#SVGID_14_)" fill="#CCCCCC" width="154.169" height="41.705"/>
			<path clip-path="url(#SVGID_14_)" fill="none" d="M56.636,66.875c-0.917-0.062-0.514,0.742-0.582,1.176
				c-0.082,0.522-0.019,1.067-0.019,1.603c0.012,0,0.025,0,0.037,0c0,0.833,0.003,1.665-0.001,2.498
				c-0.003,0.608,0.315,0.83,0.896,0.816c0.547-0.012,0.934-0.171,0.935-0.795c0.003-1.427,0.024-2.855-0.011-4.281
				C57.872,67.122,57.203,66.913,56.636,66.875z"/>
			<path clip-path="url(#SVGID_14_)" fill="none" d="M49.347,63.348c0,2.889,0.005,5.612-0.004,8.335
				c-0.002,0.695,0.001,1.285,0.975,1.314c1.133,0.034,1.024-0.689,1.02-1.416c-0.01-1.957-0.07-3.916,0.013-5.869
				C51.41,64.348,50.897,63.593,49.347,63.348z"/>
			<path clip-path="url(#SVGID_14_)" fill="none" d="M53.119,75.911c-0.469,0.008-0.583,0.315-0.576,0.711
				c0.007,0.437,0.227,0.647,0.669,0.616c0.445-0.035,0.593-0.316,0.591-0.719C53.8,76.064,53.53,75.904,53.119,75.911z"/>
			<path clip-path="url(#SVGID_14_)" fill="none" d="M53.194,65.34c-0.9-0.085-0.512,0.748-0.552,1.177
				c-0.076,0.821-0.022,1.654-0.019,2.482c0,1.064-0.006,2.129,0.003,3.194c0.005,0.621,0.401,0.789,0.944,0.779
				c0.484-0.009,1.015,0.015,1.021-0.663c0.018-1.951,0.033-3.903-0.009-5.854C54.564,65.622,53.782,65.395,53.194,65.34z"/>
			<path clip-path="url(#SVGID_14_)" fill="none" d="M46.06,61.086c0,3.581-0.003,7.059,0.003,10.538
				c0.001,0.641-0.116,1.351,0.916,1.352c1,0.001,0.954-0.663,0.952-1.331c-0.006-2.553-0.103-5.11,0.013-7.657
				C48.009,62.562,47.566,61.664,46.06,61.086z"/>
			<path clip-path="url(#SVGID_14_)" fill="none" d="M43.834,58.839c-0.302-0.207-0.29-0.908-0.894-0.621
				c-0.387,0.183-0.33,0.604-0.33,0.947c-0.003,4.298,0.01,8.597,0.004,12.896c-0.001,0.704,0.357,0.898,0.997,0.927
				c0.799,0.036,1.025-0.337,1.016-1.068c-0.024-1.959-0.008-3.919-0.008-5.879c0.003,0,0.006,0,0.01,0
				c0-1.544-0.015-3.088,0.006-4.632C44.647,60.454,44.764,59.478,43.834,58.839z"/>
			<path clip-path="url(#SVGID_14_)" fill="none" d="M37.935,62.645c-0.011,0-0.022,0-0.032,0c0-2.911,0.005-5.822-0.004-8.732
				c-0.002-0.645,0.069-1.317-0.466-1.839c-0.298-0.291-0.565-0.653-1.05-0.488c-0.438,0.149-0.379,0.577-0.371,0.906
				c0.027,1.125,0.149,2.248,0.146,3.372c-0.017,5.226-0.071,10.451-0.089,15.677c-0.002,0.59-0.259,1.38,0.815,1.433
				c1.112,0.055,1.052-0.683,1.051-1.417C37.934,68.586,37.935,65.615,37.935,62.645z"/>
			<path clip-path="url(#SVGID_14_)" fill="none" d="M75.111,75.922c-0.404,0.001-0.681,0.156-0.687,0.608
				c-0.006,0.407,0.152,0.677,0.599,0.694c0.423,0.016,0.67-0.164,0.68-0.612C75.709,76.21,75.577,75.921,75.111,75.922z"/>
			<path clip-path="url(#SVGID_14_)" fill="none" d="M43.617,75.931c-0.447,0.02-0.586,0.302-0.569,0.69
				c0.019,0.415,0.259,0.615,0.67,0.601c0.449-0.015,0.576-0.299,0.562-0.691C44.26,76.108,44.037,75.912,43.617,75.931z"/>
			<path clip-path="url(#SVGID_14_)" fill="none" d="M71.328,71.473c0.06-0.791-0.058-1.388-1.085-1.363
				c-1.182,0.029-0.814,0.885-0.849,1.149c-0.096,1.132-0.066,1.781,1.008,1.732C71.537,72.94,71.278,72.135,71.328,71.473z"/>
			<path clip-path="url(#SVGID_14_)" fill="none" d="M71.921,75.908c-0.43-0.006-0.653,0.205-0.669,0.624
				c-0.015,0.399,0.133,0.682,0.584,0.7c0.427,0.017,0.657-0.182,0.664-0.793C72.47,76.245,72.4,75.915,71.921,75.908z"/>
			<path clip-path="url(#SVGID_14_)" fill="none" d="M34.259,75.928c-0.453,0.017-0.603,0.291-0.596,0.7
				c0.008,0.456,0.278,0.611,0.69,0.599c0.456-0.014,0.606-0.291,0.59-0.939C34.942,76.068,34.674,75.912,34.259,75.928z"/>
			<path clip-path="url(#SVGID_14_)" fill="none" d="M68.806,75.914c-0.464,0.025-0.574,0.33-0.566,0.72
				c0.008,0.442,0.264,0.617,0.678,0.599c0.458-0.021,0.585-0.324,0.567-0.714C69.466,76.098,69.236,75.885,68.806,75.914z"/>
			<path clip-path="url(#SVGID_14_)" fill="none" d="M59.396,75.926c-0.412-0.006-0.66,0.172-0.672,0.604
				c-0.011,0.398,0.141,0.675,0.581,0.693c0.418,0.017,0.648-0.188,0.672-0.614C59.987,76.209,59.853,75.933,59.396,75.926z"/>
			<path clip-path="url(#SVGID_14_)" fill="none" d="M74.592,71.365c-0.048-0.371,0.297-1.207-0.889-1.231
				c-1.062-0.021-1.118,0.6-1.073,1.366c0.039,0.665-0.202,1.451,0.946,1.49C74.665,73.027,74.668,72.383,74.592,71.365z"/>
			<path clip-path="url(#SVGID_14_)" fill="none" d="M66.82,69.754c-1.128,0.059-0.577,1.044-0.782,1.583
				c0.114,0.708-0.339,1.676,0.977,1.648c1.142-0.024,0.893-0.846,0.909-1.503C67.944,70.67,68.084,69.688,66.82,69.754z"/>
			<path clip-path="url(#SVGID_14_)" fill="none" d="M60.083,68.129c-1.147-0.064-0.614,0.871-0.732,1.397
				c-0.063,0.279-0.011,0.585-0.016,0.878c0,0.411-0.003,0.822,0.001,1.233c0.006,0.646-0.092,1.303,0.915,1.336
				c1.074,0.036,1.089-0.61,1.071-1.369c-0.015-0.645-0.037-1.295,0.016-1.937C61.417,68.722,60.998,68.18,60.083,68.129z"/>
			<path clip-path="url(#SVGID_14_)" fill="none" d="M63.616,69.081c-1.48-0.079-0.995,1.103-0.953,1.782
				c0.047,0.778-0.672,2.11,1.027,2.105c1.483-0.005,0.706-1.19,0.95-1.823C64.469,70.343,65.103,69.16,63.616,69.081z"/>
			<path clip-path="url(#SVGID_14_)" fill="none" d="M65.724,75.923c-0.421-0.022-0.674,0.155-0.686,0.596
				c-0.012,0.401,0.125,0.688,0.584,0.702c0.412,0.012,0.68-0.147,0.699-0.598C66.333,76.209,66.17,75.946,65.724,75.923z"/>
			<path clip-path="url(#SVGID_14_)" fill="none" d="M39.588,54.94c-0.469,5.663-0.17,11.123-0.244,16.575
				c-0.009,0.696-0.165,1.481,0.98,1.478c1.14-0.003,0.984-0.784,0.985-1.483c0.007-4.401-0.049-8.802,0.041-13.201
				C41.379,56.921,41.015,55.896,39.588,54.94z"/>
			<path clip-path="url(#SVGID_14_)" fill="none" d="M4.146,63.049c-0.42,0.212-0.837,0.343-1.18,0.512L2.336,64.14
				c-0.069,0.144-0.118,0.308-0.122,0.52C2.17,67.151,2.2,69.643,2.191,72.135c-0.001,0.359,0.11,0.562,0.287,0.68h0.899H2.478
				c0.196,0.131,0.474,0.156,0.781,0.158c0.578,0.004,0.889-0.233,0.888-0.836C4.145,69.192,4.146,66.247,4.146,63.049z"/>
			<path clip-path="url(#SVGID_14_)" fill="none" d="M9.496,75.917c-0.462,0.014-0.58,0.313-0.583,0.698
				c-0.003,0.423,0.216,0.638,0.644,0.624c0.448-0.015,0.593-0.291,0.593-0.732C10.119,76.141,9.935,75.903,9.496,75.917z"/>
			<path clip-path="url(#SVGID_14_)" fill="none" d="M7.456,60.681c-1.091,0.703-2.007,0.975-2.002,2.107
				c0.013,3.079,0.017,6.158,0.008,9.238c-0.002,0.676,0.288,0.958,0.959,0.954c0.603-0.003,1.042-0.105,1.041-0.851
				C7.451,68.422,7.456,64.715,7.456,60.681z"/>
			<path clip-path="url(#SVGID_14_)" fill="none" d="M0.769,72.021c-0.011-0.884-0.003-1.768-0.003-2.652c0.005,0,0.009,0,0.014,0
				c0-0.884,0.008-1.768-0.003-2.652c-0.005-0.351-0.015-0.731-0.235-0.93l-0.614,0.563l0.614-0.563
				c-0.115-0.104-0.283-0.162-0.545-0.133c-0.566,0.061-1.15,0.17-1.122,1.032c0.056,1.766,0.032,3.536,0.028,5.303
				c-0.002,0.624,0.188,1.002,0.905,0.989c0.262-0.005,0.454-0.067,0.607-0.163H-0.26h0.673C0.648,72.668,0.774,72.42,0.769,72.021z
				"/>
			<path clip-path="url(#SVGID_14_)" fill="none" d="M6.407,75.911c-0.427-0.016-0.664,0.191-0.677,0.627
				c-0.012,0.411,0.13,0.695,0.597,0.707c0.42,0,0.675-0.182,0.683-0.63C7.018,76.204,6.855,75.928,6.407,75.911z"/>
			<path clip-path="url(#SVGID_14_)" fill="none" d="M2.336,64.14l0.631-0.579C2.686,63.701,2.464,63.874,2.336,64.14z"/>
			<path clip-path="url(#SVGID_14_)" fill="none" d="M0.103,75.925c-0.414,0.003-0.669,0.179-0.684,0.616
				c-0.014,0.412,0.159,0.67,0.6,0.691c0.429,0.021,0.663-0.171,0.679-0.759C0.657,76.254,0.583,75.921,0.103,75.925z"/>
			<path clip-path="url(#SVGID_14_)" fill="none" d="M18.838,49.384c0.072,5.415,0.051,10.83,0.064,16.246
				c0.005,2.083,0.034,4.166,0,6.248c-0.02,1.228,0.726,1.256,1.523,0.962c0.513-0.19,0.342-0.832,0.343-1.289
				c0.02-8.272,0.031-16.544,0.035-24.815c0-0.33,0.123-0.713-0.346-1.053C19.501,46.741,18.817,47.83,18.838,49.384z"/>
			<path clip-path="url(#SVGID_14_)" fill="none" d="M22.013,75.927c-0.453,0.015-0.572,0.309-0.562,0.697
				c0.011,0.428,0.246,0.618,0.665,0.601c0.444-0.025,0.59-0.302,0.571-0.698C22.666,76.106,22.425,75.913,22.013,75.927z"/>
			<path clip-path="url(#SVGID_14_)" fill="none" d="M10.046,58.772c-0.834,0.017-1.191,0.793-1.182,1.687
				c0.035,3.747,0.027,7.495,0.052,11.242c0.004,0.558-0.162,1.239,0.794,1.278c0.931,0.038,1.072-0.475,1.063-1.231
				c-0.021-1.844-0.007-3.688-0.007-5.532c0.006,0,0.011,0,0.017,0c0-1.963,0.051-3.928-0.033-5.887
				C10.726,59.778,10.946,58.753,10.046,58.772z"/>
			<path clip-path="url(#SVGID_14_)" fill="none" d="M24.464,36.919c-1.111,2.803-2.602,5.386-2.379,8.604
				c0.287,4.145,0.077,8.325,0.082,12.49c0.005,4.582,0.013,9.163,0.016,13.745c0,0.619-0.025,1.195,0.882,1.193
				c0.895-0.002,0.902-0.563,0.895-1.19c-0.004-0.357,0.001-0.714,0.001-1.071c-0.002-7.081-0.007-14.162-0.002-21.242
				c0-0.713-0.121-1.49,0.113-2.127C25.334,43.891,24.33,40.391,24.464,36.919z"/>
			<path clip-path="url(#SVGID_14_)" fill="none" d="M31.084,75.928c-0.411,0.037-0.612,0.253-0.621,0.66
				c-0.011,0.553,0.345,0.669,0.792,0.639c0.461-0.031,0.517-0.369,0.506-0.737C31.736,76.061,31.506,75.889,31.084,75.928z"/>
			<path clip-path="url(#SVGID_14_)" fill="none" d="M34.62,71.896c-0.041-4.639-0.062-9.279-0.089-13.919
				c0.003-0.596,0.006-1.193,0.009-1.789c0.19-0.588,0.174-1.172-0.036-1.752c-0.002-0.484-0.005-0.969-0.007-1.452
				c0.257-0.836,0.229-1.676,0.028-2.518c-0.013-0.478-0.026-0.955-0.039-1.433c0.503-0.95-0.497-1.353-0.77-2.013
				c-0.17-0.411-0.213-1.223-0.986-0.965c-0.646,0.215-0.298,0.747-0.197,1.199c0.099,0.444-0.068,0.928-0.558,0.945
				c-0.498,0.018-0.6-0.478-0.612-0.908c-0.01-0.356-0.025-0.718,0.022-1.069c0.323-2.414-1.065-7.214-2.677-9.217
				c-0.092,4.064,0.319,8.108,0.542,12.163c0.409,7.417,0.116,14.872,0.124,22.311c0.001,0.678-0.21,1.482,0.968,1.473
				c1.166-0.009,0.964-0.805,0.968-1.487c0.016-2.976,0.061-5.952,0-8.927c-0.032-1.525,0.332-3.078-0.226-4.578
				c0.811-1.033,1.337-0.745,1.686,0.363c-0.376,4.571-0.046,9.149-0.138,13.723c-0.014,0.692,0.333,0.923,0.987,0.947
				C34.434,73.023,34.627,72.613,34.62,71.896z"/>
			<path clip-path="url(#SVGID_14_)" fill="none" d="M14.166,54.518c-1.112,0.884-1.99,1.453-1.987,2.709
				c0.012,4.861,0.007,9.721-0.001,14.582c-0.001,0.657,0.078,1.151,0.928,1.174c0.921,0.026,1.069-0.465,1.068-1.225
				C14.16,66.133,14.166,60.507,14.166,54.518z"/>
			<path clip-path="url(#SVGID_14_)" fill="none" d="M15.541,75.919c-0.369,0.041-0.749,0.236-0.736,0.595
				c0.021,0.573,0.525,0.691,1.009,0.699c0.459,0.008,0.573-0.305,0.565-0.694C16.364,75.947,15.989,75.869,15.541,75.919z"/>
			<path clip-path="url(#SVGID_14_)" fill="none" d="M15.429,53.492c-0.005,6.125,0.03,12.25,0.035,18.376
				c0.001,0.71,0.19,1.105,0.997,1.117c0.803,0.011,1.013-0.353,1.011-1.08c-0.013-7.075-0.008-14.15-0.008-21.225
				C16.523,51.49,15.43,52.181,15.429,53.492z"/>
			<path clip-path="url(#SVGID_14_)" fill="none" d="M12.279,75.929c-0.201,0.011-0.36,0.279-0.354,0.679
				c0.006,0.435,0.258,0.616,0.669,0.618c0.47,0.003,0.575-0.304,0.579-0.69C13.177,76.097,12.942,75.907,12.279,75.929z"/>
			<path clip-path="url(#SVGID_14_)" fill="none" d="M131.499,75.925c-0.443,0.03-0.6,0.3-0.586,0.701
				c0.014,0.433,0.271,0.617,0.682,0.605c0.454-0.013,0.584-0.305,0.576-0.703C132.151,76.099,131.933,75.896,131.499,75.925z"/>
			<path clip-path="url(#SVGID_14_)" fill="none" d="M131.727,71.643c0.012-5.474-0.045-10.95,0.077-16.421
				c0.04-1.818-0.464-3.218-2.081-4.599c0,7.31,0.006,14.323-0.009,21.336c-0.002,0.778,0.322,1.031,1.07,1.028
				C131.797,72.981,131.726,72.31,131.727,71.643z"/>
			<path clip-path="url(#SVGID_14_)" fill="none" d="M115.882,75.901c-0.544,0.019-0.676,0.35-0.63,0.822
				c0.045,0.461,0.37,0.543,0.743,0.546c0.494,0.004,0.553-0.324,0.521-0.709C116.476,76.175,116.337,75.886,115.882,75.901z"/>
			<path clip-path="url(#SVGID_14_)" fill="none" d="M133.042,54.76c0,5.712-0.005,11.175,0.006,16.638
				c0.002,0.729-0.234,1.638,1.05,1.582c1.172-0.051,0.89-0.902,0.893-1.551c0.024-4.396-0.038-8.793,0.059-13.187
				C135.084,56.692,134.551,55.65,133.042,54.76z"/>
			<path clip-path="url(#SVGID_14_)" fill="none" d="M125.344,75.917c-0.436-0.025-0.627,0.22-0.647,0.628
				c-0.02,0.402,0.109,0.685,0.573,0.692c0.411-0.006,0.659-0.196,0.668-0.625C125.947,76.211,125.776,75.942,125.344,75.917z"/>
			<path clip-path="url(#SVGID_14_)" fill="none" d="M116.023,45.299c0.467,3.229-0.599,6.509,0.219,9.742
				c-0.034,0.708-0.068,1.416-0.102,2.123c-0.025,4.816-0.055,9.632-0.069,14.448c-0.002,0.619-0.178,1.396,0.903,1.324
				c1.051-0.071,0.803-0.86,0.806-1.458c0.019-3.928-0.007-7.856,0.023-11.784c0.008-1.046,0.339-2.114,0.211-3.133
				c-0.336-2.675-0.415-5.349,0-7.996c0.625-3.987,0.51-7.98,0.434-12.482C117.227,39.378,115.548,42.015,116.023,45.299z"/>
			<path clip-path="url(#SVGID_14_)" fill="none" d="M124.998,71.426c0.026-8.626-0.077-17.255,0.104-25.877
				c0.065-3.082-1.209-5.573-2.517-8.194c-0.025,0.562-0.102,1.127-0.065,1.685c0.192,2.872-0.217,5.732,0.554,8.64
				c0.561,2.115,0.138,4.493,0.139,6.753c0.004,5.711,0.017,11.423-0.016,17.134c-0.006,1.063,0.281,1.675,1.415,1.278
				C125.264,72.617,124.996,71.919,124.998,71.426z"/>
			<path clip-path="url(#SVGID_14_)" fill="none" d="M128.272,71.281c0.033-6.964-0.018-13.928,0.071-20.89
				c0.023-1.781-0.418-3.242-1.911-4.739c0,8.721-0.008,17.168,0.016,25.615c0.002,0.67-0.4,1.695,0.907,1.704
				C128.669,72.98,128.269,71.952,128.272,71.281z"/>
			<path clip-path="url(#SVGID_14_)" fill="none" d="M128.451,75.908c-0.408-0.01-0.681,0.138-0.722,0.557
				c-0.047,0.478,0.144,0.78,0.678,0.769c0.43-0.009,0.618-0.243,0.631-0.653C129.039,76.185,128.912,75.92,128.451,75.908z"/>
			<path clip-path="url(#SVGID_14_)" fill="none" d="M107.822,55.096c-1.617,0.748-1.617,0.748-1.664,2.478
				c-0.031,4.805-0.06,9.61-0.096,14.415c-0.005,0.635,0.206,1.002,0.918,0.995c0.694-0.007,0.938-0.347,0.933-0.992
				c-0.035-4.922-0.062-9.844-0.091-14.766C107.822,56.524,107.822,55.824,107.822,55.096z"/>
			<path clip-path="url(#SVGID_14_)" fill="none" d="M90.729,66.693c-0.87-0.024-1.467,0.588-1.405,1.644
				c0.066,1.122,0.032,2.251,0.014,3.376c-0.012,0.725,0.072,1.27,1.025,1.257c1.001-0.014,0.954-0.659,0.953-1.329
				c-0.001-0.652,0-1.303,0-1.955c0.01,0,0.019,0,0.029,0c0-0.474,0.051-0.955-0.013-1.42C91.252,67.69,91.692,66.719,90.729,66.693
				z"/>
			<path clip-path="url(#SVGID_14_)" fill="none" d="M94.159,65.285c-0.718,0.012-1.551,0.278-1.542,1.341
				c0.014,1.775,0.021,3.552-0.003,5.327c-0.01,0.766,0.322,1.028,1.067,1.038c0.841,0.011,0.977-0.452,0.967-1.125
				c-0.014-0.947-0.004-1.894-0.004-2.841c0-0.829,0.046-1.661-0.018-2.485C94.589,66.089,94.945,65.272,94.159,65.285z"/>
			<path clip-path="url(#SVGID_14_)" fill="none" d="M87.525,75.9c-0.462,0.023-0.599,0.307-0.58,0.714
				c0.02,0.44,0.279,0.628,0.695,0.62c0.478-0.009,0.572-0.332,0.567-0.724C88.201,76.056,87.956,75.879,87.525,75.9z"/>
			<path clip-path="url(#SVGID_14_)" fill="none" d="M96.966,75.919c-0.461-0.006-0.834,0.089-0.808,0.674
				c0.02,0.438,0.09,0.819,0.488,0.794c0.644-0.154,1.144-0.229,1.071-0.905C97.667,76.015,97.352,75.924,96.966,75.919z"/>
			<path clip-path="url(#SVGID_14_)" fill="none" d="M97.924,68.054c-0.002,0-0.004,0-0.006,0c0-1.249,0.01-2.499-0.007-3.748
				c-0.005-0.333,0.065-0.74-0.39-0.886c-0.392-0.126-0.667,0.146-0.983,0.296c-0.65,0.307-0.468,0.909-0.473,1.4
				c-0.027,2.26-0.026,4.521,0.007,6.781c0.007,0.485-0.317,1.318,0.628,1.252c0.709-0.049,1.319-0.357,1.245-1.349
				C97.853,70.557,97.924,69.303,97.924,68.054z"/>
			<path clip-path="url(#SVGID_14_)" fill="none" d="M81.346,75.923c-0.451,0.007-0.609,0.267-0.594,0.67
				c0.015,0.419,0.248,0.63,0.664,0.623c0.441-0.008,0.603-0.274,0.598-0.679C81.998,76.108,81.771,75.917,81.346,75.923z"/>
			<path clip-path="url(#SVGID_14_)" fill="none" d="M114.534,45.231c-1.947,1.954-2.34,4.182-1.804,6.642
				c-0.097,0.641-0.165,1.281,0.143,1.891c-0.069,0.162-0.199,0.324-0.199,0.486c-0.02,5.933-0.025,11.867-0.044,17.8
				c-0.002,0.702,0.342,0.905,0.99,0.927c0.792,0.026,1.022-0.336,1.018-1.071c-0.016-2.849,0.06-5.699-0.006-8.547
				c-0.068-2.96,0.268-5.927-0.149-8.881c0.173-1.362,0.312-2.724-0.057-4.079C114.924,48.695,114.681,46.999,114.534,45.231z"/>
			<path clip-path="url(#SVGID_14_)" fill="none" d="M87.908,72.179c-0.001-0.587,0-1.174,0-1.76c0.003,0,0.005,0,0.008,0
				c0-0.293,0.042-0.594-0.009-0.879c-0.099-0.547,0.333-1.439-0.725-1.432c-0.882,0.006-1.167,0.62-1.139,1.442
				c0.031,0.879,0.018,1.76,0.028,2.64c0.007,0.614,0.378,0.781,0.924,0.776C87.539,72.961,87.91,72.797,87.908,72.179z"/>
			<path clip-path="url(#SVGID_14_)" fill="none" d="M83.97,69.025c-1.356-0.152-1.484,0.933-1.319,1.948
				c0.119,0.733-0.627,1.961,0.966,1.984c1.625,0.023,0.768-1.247,1.06-2C84.275,70.375,85.253,69.169,83.97,69.025z"/>
			<path clip-path="url(#SVGID_14_)" fill="none" d="M81.229,71.416c-0.047-0.688,0.327-1.68-0.934-1.691
				c-1.1-0.01-1.424,0.638-1.26,1.574c-0.069,0.898,0.04,1.597,1.123,1.659C81.389,73.028,81.281,72.179,81.229,71.416z"/>
			<path clip-path="url(#SVGID_14_)" fill="none" d="M77.018,70.1c-1.166-0.027-1.023,0.8-0.943,1.47
				c0.077,0.639-0.494,1.741,0.849,1.707c1.309-0.033,1.27-0.87,0.852-1.769C78.168,70.651,78.077,70.124,77.018,70.1z"/>
			<path clip-path="url(#SVGID_14_)" fill="none" d="M106.396,75.928c-0.467,0.003-0.602,0.293-0.596,0.697
				c0.006,0.453,0.268,0.622,0.688,0.607c0.465-0.003,0.612-0.276,0.6-0.693C107.074,76.086,106.809,75.925,106.396,75.928z"/>
			<path clip-path="url(#SVGID_14_)" fill="none" d="M100.128,75.896c-0.381-0.014-0.601,0.193-0.617,0.607
				c-0.018,0.483,0.197,0.759,0.702,0.766c0.416,0.006,0.635-0.194,0.646-0.614C100.873,76.177,100.685,75.885,100.128,75.896z"/>
			<path clip-path="url(#SVGID_14_)" fill="none" d="M109.572,75.923c-0.471,0.004-0.594,0.301-0.587,0.701
				c0.008,0.452,0.268,0.621,0.84,0.596c0.313-0.003,0.45-0.286,0.441-0.695C110.256,76.067,109.982,75.92,109.572,75.923z"/>
			<path clip-path="url(#SVGID_14_)" fill="none" d="M103.314,75.909c-0.394,0.001-0.659,0.15-0.684,0.583
				c-0.029,0.494,0.191,0.754,0.699,0.745c0.442-0.008,0.591-0.271,0.587-0.67C103.909,76.17,103.757,75.908,103.314,75.909z"/>
			<path clip-path="url(#SVGID_14_)" fill="none" d="M101.318,60.884c-1.556,0.302-2.464,1.239-2.249,2.471
				c0.487,2.781,0.132,5.554,0.271,8.324c0.035,0.691,0.002,1.305,0.982,1.312c0.976,0.008,1-0.591,0.999-1.293
				C101.314,68.138,101.318,64.577,101.318,60.884z"/>
			<path clip-path="url(#SVGID_14_)" fill="none" d="M111.102,52.202c-0.016-0.396,0.073-0.845-0.423-1.207
				c-1.324,1.039-2.05,2.303-1.671,3.894c0.393,1.645,0.304,3.294,0.319,4.944c0.036,3.918,0.022,7.837,0.015,11.756
				c-0.001,0.76-0.015,1.436,1.073,1.392c1.032-0.042,0.889-0.755,0.893-1.388C111.354,65.128,111.363,58.663,111.102,52.202z"/>
			<path clip-path="url(#SVGID_14_)" fill="none" d="M104.62,57.675c-1.01,0.924-2.001,1.327-2.005,2.448
				c-0.014,3.982,0.011,7.965,0.006,11.947c-0.001,0.715,0.37,0.905,1.006,0.911c0.639,0.006,1.002-0.174,1-0.898
				C104.613,67.407,104.62,62.731,104.62,57.675z"/>
			<path clip-path="url(#SVGID_14_)" fill="none" d="M43.834,58.839c-0.302-0.207-0.29-0.908-0.894-0.621
				c-0.387,0.183-0.33,0.604-0.33,0.947c-0.003,4.298,0.01,8.597,0.004,12.896c-0.001,0.704,0.357,0.898,0.997,0.927
				c0.799,0.036,1.025-0.337,1.016-1.068c-0.024-1.959-0.008-3.919-0.008-5.879c0.003,0,0.006,0,0.01,0
				c0-1.544-0.015-3.088,0.006-4.632C44.647,60.454,44.764,59.478,43.834,58.839z"/>
			<path clip-path="url(#SVGID_14_)" fill="none" d="M74.592,71.365c-0.048-0.371,0.297-1.207-0.889-1.231
				c-1.062-0.021-1.118,0.6-1.073,1.366c0.039,0.665-0.202,1.451,0.946,1.49C74.665,73.027,74.668,72.383,74.592,71.365z"/>
			<path clip-path="url(#SVGID_14_)" fill="none" d="M43.617,75.931c-0.447,0.02-0.586,0.302-0.569,0.69
				c0.019,0.415,0.259,0.615,0.67,0.601c0.449-0.015,0.576-0.299,0.562-0.691C44.26,76.108,44.037,75.912,43.617,75.931z"/>
			<path clip-path="url(#SVGID_14_)" fill="none" d="M49.347,63.348c0,2.889,0.005,5.612-0.004,8.335
				c-0.002,0.695,0.001,1.285,0.975,1.314c1.133,0.034,1.024-0.689,1.02-1.416c-0.01-1.957-0.07-3.916,0.013-5.869
				C51.41,64.348,50.897,63.593,49.347,63.348z"/>
			<path clip-path="url(#SVGID_14_)" fill="none" d="M34.259,75.928c-0.453,0.017-0.603,0.291-0.596,0.7
				c0.008,0.456,0.278,0.611,0.69,0.599c0.456-0.014,0.606-0.291,0.59-0.939C34.942,76.068,34.674,75.912,34.259,75.928z"/>
			<path clip-path="url(#SVGID_14_)" fill="none" d="M53.194,65.34c-0.9-0.085-0.512,0.748-0.552,1.177
				c-0.076,0.821-0.022,1.654-0.019,2.482c0,1.064-0.006,2.129,0.003,3.194c0.005,0.621,0.401,0.789,0.944,0.779
				c0.484-0.009,1.015,0.015,1.021-0.663c0.018-1.951,0.033-3.903-0.009-5.854C54.564,65.622,53.782,65.395,53.194,65.34z"/>
			<path clip-path="url(#SVGID_14_)" fill="none" d="M34.62,71.896c-0.041-4.639-0.062-9.279-0.089-13.919
				c0.003-0.596,0.006-1.193,0.009-1.789c0.19-0.588,0.174-1.172-0.036-1.752c-0.002-0.484-0.005-0.969-0.007-1.452
				c0.257-0.836,0.229-1.676,0.028-2.518c-0.013-0.478-0.026-0.955-0.039-1.433c0.503-0.95-0.497-1.353-0.77-2.013
				c-0.17-0.411-0.213-1.223-0.986-0.965c-0.646,0.215-0.298,0.747-0.197,1.199c0.099,0.444-0.068,0.928-0.558,0.945
				c-0.498,0.018-0.6-0.478-0.612-0.908c-0.01-0.356-0.025-0.718,0.022-1.069c0.323-2.414-1.065-7.214-2.677-9.217
				c-0.092,4.064,0.319,8.108,0.542,12.163c0.409,7.417,0.116,14.872,0.124,22.311c0.001,0.678-0.21,1.482,0.968,1.473
				c1.166-0.009,0.964-0.805,0.968-1.487c0.016-2.976,0.061-5.952,0-8.927c-0.032-1.525,0.332-3.078-0.226-4.578
				c0.811-1.033,1.337-0.745,1.686,0.363c-0.376,4.571-0.046,9.149-0.138,13.723c-0.014,0.692,0.333,0.923,0.987,0.947
				C34.434,73.023,34.627,72.613,34.62,71.896z"/>
			<path clip-path="url(#SVGID_14_)" fill="none" d="M37.935,62.645c-0.011,0-0.022,0-0.032,0c0-2.911,0.005-5.822-0.004-8.732
				c-0.002-0.645,0.069-1.317-0.466-1.839c-0.298-0.291-0.565-0.653-1.05-0.488c-0.438,0.149-0.379,0.577-0.371,0.906
				c0.027,1.125,0.149,2.248,0.146,3.372c-0.017,5.226-0.071,10.451-0.089,15.677c-0.002,0.59-0.259,1.38,0.815,1.433
				c1.112,0.055,1.052-0.683,1.051-1.417C37.934,68.586,37.935,65.615,37.935,62.645z"/>
			<path clip-path="url(#SVGID_14_)" fill="none" d="M39.588,54.94c-0.469,5.663-0.17,11.123-0.244,16.575
				c-0.009,0.696-0.165,1.481,0.98,1.478c1.14-0.003,0.984-0.784,0.985-1.483c0.007-4.401-0.049-8.802,0.041-13.201
				C41.379,56.921,41.015,55.896,39.588,54.94z"/>
			<path clip-path="url(#SVGID_14_)" fill="none" d="M63.616,69.081c-1.48-0.079-0.995,1.103-0.953,1.782
				c0.047,0.778-0.672,2.11,1.027,2.105c1.483-0.005,0.706-1.19,0.95-1.823C64.469,70.343,65.103,69.16,63.616,69.081z"/>
			<path clip-path="url(#SVGID_14_)" fill="none" d="M71.328,71.473c0.06-0.791-0.058-1.388-1.085-1.363
				c-1.182,0.029-0.814,0.885-0.849,1.149c-0.096,1.132-0.066,1.781,1.008,1.732C71.537,72.94,71.278,72.135,71.328,71.473z"/>
			<path clip-path="url(#SVGID_14_)" fill="none" d="M68.806,75.914c-0.464,0.025-0.574,0.33-0.566,0.72
				c0.008,0.442,0.264,0.617,0.678,0.599c0.458-0.021,0.585-0.324,0.567-0.714C69.466,76.098,69.236,75.885,68.806,75.914z"/>
			<path clip-path="url(#SVGID_14_)" fill="none" d="M71.921,75.908c-0.43-0.006-0.653,0.205-0.669,0.624
				c-0.015,0.399,0.133,0.682,0.584,0.7c0.427,0.017,0.657-0.182,0.664-0.793C72.47,76.245,72.4,75.915,71.921,75.908z"/>
			<path clip-path="url(#SVGID_14_)" fill="none" d="M66.82,69.754c-1.128,0.059-0.577,1.044-0.782,1.583
				c0.114,0.708-0.339,1.676,0.977,1.648c1.142-0.024,0.893-0.846,0.909-1.503C67.944,70.67,68.084,69.688,66.82,69.754z"/>
			<path clip-path="url(#SVGID_14_)" fill="none" d="M59.396,75.926c-0.412-0.006-0.66,0.172-0.672,0.604
				c-0.011,0.398,0.141,0.675,0.581,0.693c0.418,0.017,0.648-0.188,0.672-0.614C59.987,76.209,59.853,75.933,59.396,75.926z"/>
			<path clip-path="url(#SVGID_14_)" fill="none" d="M65.724,75.923c-0.421-0.022-0.674,0.155-0.686,0.596
				c-0.012,0.401,0.125,0.688,0.584,0.702c0.412,0.012,0.68-0.147,0.699-0.598C66.333,76.209,66.17,75.946,65.724,75.923z"/>
			<path clip-path="url(#SVGID_14_)" fill="none" d="M56.636,66.875c-0.917-0.062-0.514,0.742-0.582,1.176
				c-0.082,0.522-0.019,1.067-0.019,1.603c0.012,0,0.025,0,0.037,0c0,0.833,0.003,1.665-0.001,2.498
				c-0.003,0.608,0.315,0.83,0.896,0.816c0.547-0.012,0.934-0.171,0.935-0.795c0.003-1.427,0.024-2.855-0.011-4.281
				C57.872,67.122,57.203,66.913,56.636,66.875z"/>
			<path clip-path="url(#SVGID_14_)" fill="none" d="M60.083,68.129c-1.147-0.064-0.614,0.871-0.732,1.397
				c-0.063,0.279-0.011,0.585-0.016,0.878c0,0.411-0.003,0.822,0.001,1.233c0.006,0.646-0.092,1.303,0.915,1.336
				c1.074,0.036,1.089-0.61,1.071-1.369c-0.015-0.645-0.037-1.295,0.016-1.937C61.417,68.722,60.998,68.18,60.083,68.129z"/>
			<path clip-path="url(#SVGID_14_)" fill="none" d="M31.084,75.928c-0.411,0.037-0.612,0.253-0.621,0.66
				c-0.011,0.553,0.345,0.669,0.792,0.639c0.461-0.031,0.517-0.369,0.506-0.737C31.736,76.061,31.506,75.889,31.084,75.928z"/>
			<path clip-path="url(#SVGID_14_)" fill="none" d="M53.119,75.911c-0.469,0.008-0.583,0.315-0.576,0.711
				c0.007,0.437,0.227,0.647,0.669,0.616c0.445-0.035,0.593-0.316,0.591-0.719C53.8,76.064,53.53,75.904,53.119,75.911z"/>
			<path clip-path="url(#SVGID_14_)" fill="none" d="M9.496,75.917c-0.462,0.014-0.58,0.313-0.583,0.698
				c-0.003,0.423,0.216,0.638,0.644,0.624c0.448-0.015,0.593-0.291,0.593-0.732C10.119,76.141,9.935,75.903,9.496,75.917z"/>
			<path clip-path="url(#SVGID_14_)" fill="none" d="M15.541,75.919c-0.369,0.041-0.749,0.236-0.736,0.595
				c0.021,0.573,0.525,0.691,1.009,0.699c0.459,0.008,0.573-0.305,0.565-0.694C16.364,75.947,15.989,75.869,15.541,75.919z"/>
			<path clip-path="url(#SVGID_14_)" fill="none" d="M12.279,75.929c-0.201,0.011-0.36,0.279-0.354,0.679
				c0.006,0.435,0.258,0.616,0.669,0.618c0.47,0.003,0.575-0.304,0.579-0.69C13.177,76.097,12.942,75.907,12.279,75.929z"/>
			<path clip-path="url(#SVGID_14_)" fill="none" d="M22.013,75.927c-0.453,0.015-0.572,0.309-0.562,0.697
				c0.011,0.428,0.246,0.618,0.665,0.601c0.444-0.025,0.59-0.302,0.571-0.698C22.666,76.106,22.425,75.913,22.013,75.927z"/>
			<path clip-path="url(#SVGID_14_)" fill="none" d="M0.103,75.925c-0.414,0.003-0.669,0.179-0.684,0.616
				c-0.014,0.412,0.159,0.67,0.6,0.691c0.429,0.021,0.663-0.171,0.679-0.759C0.657,76.254,0.583,75.921,0.103,75.925z"/>
			<path clip-path="url(#SVGID_14_)" fill="none" d="M24.464,36.919c-0.865,2.184-1.951,4.237-2.287,6.558l0.53-0.761l-0.53,0.761
				c-0.096,0.658-0.141,1.335-0.091,2.046c0.287,4.145,0.077,8.325,0.082,12.49c0.005,4.582,0.013,9.163,0.016,13.745
				c0,0.33-0.002,0.644,0.128,0.869h0.839h-0.839c0.115,0.197,0.33,0.325,0.754,0.324c0.895-0.002,0.902-0.563,0.895-1.19
				c-0.004-0.357,0.001-0.714,0.001-1.071c-0.002-7.081-0.007-14.162-0.002-21.242c0-0.713-0.121-1.49,0.113-2.127
				C25.334,43.891,24.33,40.391,24.464,36.919z"/>
			<path clip-path="url(#SVGID_14_)" fill="none" d="M20.424,72.84c0.127-0.047,0.211-0.122,0.267-0.214h-1.646
				C19.296,73.091,19.845,73.054,20.424,72.84z"/>
			<path clip-path="url(#SVGID_14_)" fill="none" d="M6.407,75.911c-0.427-0.016-0.664,0.191-0.677,0.627
				c-0.012,0.411,0.13,0.695,0.597,0.707c0.42,0,0.675-0.182,0.683-0.63C7.018,76.204,6.855,75.928,6.407,75.911z"/>
			<path clip-path="url(#SVGID_14_)" fill="none" d="M14.166,54.747l-0.331,0.389L14.166,54.747c0-0.077,0-0.151,0-0.229
				c-0.875,0.695-1.598,1.201-1.868,1.994l0.459-0.49l-0.459,0.49c-0.073,0.215-0.12,0.447-0.119,0.714
				c0.012,4.861,0.007,9.721-0.001,14.582c-0.001,0.325,0.019,0.61,0.142,0.818h1.686c0.132-0.213,0.168-0.509,0.168-0.868
				C14.16,66.205,14.166,60.649,14.166,54.747z"/>
			<path clip-path="url(#SVGID_14_)" fill="none" d="M17.464,50.855l-0.207,0.352L17.464,50.855c0-0.058,0-0.117,0-0.175
				c-0.874,0.752-1.868,1.409-2.008,2.548l0.533-0.627l-0.533,0.627c-0.011,0.087-0.028,0.171-0.028,0.264
				c-0.005,6.125,0.03,12.25,0.035,18.376c0,0.32,0.043,0.573,0.16,0.759h1.69c0.108-0.177,0.16-0.409,0.159-0.722
				C17.459,64.888,17.464,57.872,17.464,50.855z"/>
			<path clip-path="url(#SVGID_14_)" fill="none" d="M10.766,66.216c0.006,0,0.011,0,0.017,0c0-1.963,0.051-3.928-0.033-5.887
				c-0.022-0.522,0.163-1.461-0.587-1.541l-0.32,0.341l0.32-0.341c-0.04-0.004-0.071-0.017-0.117-0.016
				c-0.578,0.012-0.922,0.391-1.079,0.918l0.559-0.435L8.967,59.69c-0.07,0.234-0.106,0.494-0.104,0.769
				c0.035,3.747,0.027,7.495,0.052,11.242C8.917,72.018,8.871,72.37,9,72.626h1.611c0.133-0.217,0.166-0.518,0.161-0.878
				C10.751,69.904,10.766,68.06,10.766,66.216z"/>
			<path clip-path="url(#SVGID_14_)" fill="none" d="M20.767,71.551c0.02-8.272,0.031-16.544,0.035-24.815
				c0-0.295,0.075-0.631-0.239-0.942l-0.328,0.471l0.328-0.471c-0.037-0.037-0.057-0.075-0.107-0.111
				c-0.729,0.808-1.297,1.635-1.518,2.671l0.409-0.694l-0.409,0.694c-0.069,0.322-0.106,0.663-0.101,1.031
				c0.072,5.415,0.051,10.83,0.064,16.246c0.005,2.083,0.034,4.166,0,6.248c-0.005,0.335,0.05,0.574,0.144,0.748h1.646
				C20.863,72.344,20.767,71.895,20.767,71.551z"/>
			<path clip-path="url(#SVGID_14_)" fill="none" d="M7.456,60.866l-0.528,0.411L7.456,60.866c0-0.063,0-0.122,0-0.185
				c-0.916,0.59-1.702,0.883-1.929,1.629l0.767-0.394L5.527,62.31c-0.044,0.143-0.074,0.296-0.073,0.478
				c0.013,3.079,0.017,6.158,0.008,9.238c-0.001,0.395,0.112,0.642,0.328,0.789h0.758H5.789c0.154,0.105,0.352,0.166,0.631,0.165
				c0.427-0.002,0.768-0.059,0.933-0.354H6.928h0.425c0.068-0.122,0.109-0.28,0.108-0.497C7.451,68.48,7.456,64.828,7.456,60.866z"
				/>
			<path clip-path="url(#SVGID_14_)" fill="none" d="M16.461,72.985c0.458,0.006,0.709-0.123,0.852-0.359h-1.69
				C15.765,72.853,16.018,72.979,16.461,72.985z"/>
			<path clip-path="url(#SVGID_14_)" fill="none" d="M9.709,72.979c0.488,0.02,0.756-0.114,0.902-0.353H9
				C9.098,72.821,9.296,72.962,9.709,72.979z"/>
			<path clip-path="url(#SVGID_14_)" fill="none" d="M13.105,72.983c0.485,0.014,0.753-0.119,0.9-0.357H12.32
				C12.444,72.838,12.676,72.971,13.105,72.983z"/>
			<path clip-path="url(#SVGID_14_)" fill="none" d="M4.148,72.137c-0.003-2.945-0.001-5.89-0.001-9.088
				c-0.139,0.071-0.275,0.124-0.411,0.181L3.68,63.258l0.055-0.028c-0.274,0.115-0.54,0.218-0.768,0.332
				c-0.28,0.139-0.503,0.313-0.631,0.579l-1.794,1.647c-0.115-0.104-0.283-0.162-0.545-0.133c-0.566,0.061-1.15,0.17-1.122,1.032
				c0.056,1.766,0.032,3.536,0.028,5.303c-0.002,0.624,0.188,1.002,0.905,0.989c0.262-0.005,0.454-0.067,0.607-0.163h2.064
				c0.196,0.131,0.474,0.156,0.781,0.158c0.257,0.002,0.452-0.054,0.599-0.158H3.377h0.482C4.043,72.684,4.148,72.472,4.148,72.137z
				"/>
			<path clip-path="url(#SVGID_14_)" fill="none" d="M46.06,61.086c0,3.581-0.003,7.059,0.003,10.538
				c0.001,0.641-0.116,1.351,0.916,1.352c1,0.001,0.954-0.663,0.952-1.331c-0.006-2.553-0.103-5.11,0.013-7.657
				C48.009,62.562,47.566,61.664,46.06,61.086z"/>
			<path clip-path="url(#SVGID_14_)" fill="none" d="M128.451,75.908c-0.408-0.01-0.681,0.138-0.722,0.557
				c-0.047,0.478,0.144,0.78,0.678,0.769c0.43-0.009,0.618-0.243,0.631-0.653C129.039,76.185,128.912,75.92,128.451,75.908z"/>
			<path clip-path="url(#SVGID_14_)" fill="none" d="M128.272,71.281c0.033-6.964-0.018-13.928,0.071-20.89
				c0.023-1.781-0.418-3.242-1.911-4.739c0,8.721-0.008,17.168,0.016,25.615c0.002,0.67-0.4,1.695,0.907,1.704
				C128.669,72.98,128.269,71.952,128.272,71.281z"/>
			<path clip-path="url(#SVGID_14_)" fill="none" d="M133.042,54.76c0,5.712-0.005,11.175,0.006,16.638
				c0.002,0.729-0.234,1.638,1.05,1.582c1.172-0.051,0.89-0.902,0.893-1.551c0.024-4.396-0.038-8.793,0.059-13.187
				C135.084,56.692,134.551,55.65,133.042,54.76z"/>
			<path clip-path="url(#SVGID_14_)" fill="none" d="M131.499,75.925c-0.443,0.03-0.6,0.3-0.586,0.701
				c0.014,0.433,0.271,0.617,0.682,0.605c0.454-0.013,0.584-0.305,0.576-0.703C132.151,76.099,131.933,75.896,131.499,75.925z"/>
			<path clip-path="url(#SVGID_14_)" fill="none" d="M131.727,71.643c0.012-5.474-0.045-10.95,0.077-16.421
				c0.04-1.818-0.464-3.218-2.081-4.599c0,7.31,0.006,14.323-0.009,21.336c-0.002,0.778,0.322,1.031,1.07,1.028
				C131.797,72.981,131.726,72.31,131.727,71.643z"/>
			<path clip-path="url(#SVGID_14_)" fill="none" d="M115.882,75.901c-0.544,0.019-0.676,0.35-0.63,0.822
				c0.045,0.461,0.37,0.543,0.743,0.546c0.494,0.004,0.553-0.324,0.521-0.709C116.476,76.175,116.337,75.886,115.882,75.901z"/>
			<path clip-path="url(#SVGID_14_)" fill="none" d="M116.023,45.299c0.467,3.229-0.599,6.509,0.219,9.742
				c-0.034,0.708-0.068,1.416-0.102,2.123c-0.025,4.816-0.055,9.632-0.069,14.448c-0.002,0.619-0.178,1.396,0.903,1.324
				c1.051-0.071,0.803-0.86,0.806-1.458c0.019-3.928-0.007-7.856,0.023-11.784c0.008-1.046,0.339-2.114,0.211-3.133
				c-0.336-2.675-0.415-5.349,0-7.996c0.625-3.987,0.51-7.98,0.434-12.482C117.227,39.378,115.548,42.015,116.023,45.299z"/>
			<path clip-path="url(#SVGID_14_)" fill="none" d="M124.998,71.426c0.026-8.626-0.077-17.255,0.104-25.877
				c0.065-3.082-1.209-5.573-2.517-8.194c-0.025,0.562-0.102,1.127-0.065,1.685c0.192,2.872-0.217,5.732,0.554,8.64
				c0.561,2.115,0.138,4.493,0.139,6.753c0.004,5.711,0.017,11.423-0.016,17.134c-0.006,1.063,0.281,1.675,1.415,1.278
				C125.264,72.617,124.996,71.919,124.998,71.426z"/>
			<path clip-path="url(#SVGID_14_)" fill="none" d="M125.344,75.917c-0.436-0.025-0.627,0.22-0.647,0.628
				c-0.02,0.402,0.109,0.685,0.573,0.692c0.411-0.006,0.659-0.196,0.668-0.625C125.947,76.211,125.776,75.942,125.344,75.917z"/>
			<path clip-path="url(#SVGID_14_)" fill="none" d="M75.111,75.922c-0.404,0.001-0.681,0.156-0.687,0.608
				c-0.006,0.407,0.152,0.677,0.599,0.694c0.423,0.016,0.67-0.164,0.68-0.612C75.709,76.21,75.577,75.921,75.111,75.922z"/>
			<path clip-path="url(#SVGID_14_)" fill="none" d="M114.534,45.231c-1.947,1.954-2.34,4.182-1.804,6.642
				c-0.097,0.641-0.165,1.281,0.143,1.891c-0.069,0.162-0.199,0.324-0.199,0.486c-0.02,5.933-0.025,11.867-0.044,17.8
				c-0.002,0.702,0.342,0.905,0.99,0.927c0.792,0.026,1.022-0.336,1.018-1.071c-0.016-2.849,0.06-5.699-0.006-8.547
				c-0.068-2.96,0.268-5.927-0.149-8.881c0.173-1.362,0.312-2.724-0.057-4.079C114.924,48.695,114.681,46.999,114.534,45.231z"/>
			<path clip-path="url(#SVGID_14_)" fill="none" d="M94.159,65.285c-0.718,0.012-1.551,0.278-1.542,1.341
				c0.014,1.775,0.021,3.552-0.003,5.327c-0.01,0.766,0.322,1.028,1.067,1.038c0.841,0.011,0.977-0.452,0.967-1.125
				c-0.014-0.947-0.004-1.894-0.004-2.841c0-0.829,0.046-1.661-0.018-2.485C94.589,66.089,94.945,65.272,94.159,65.285z"/>
			<path clip-path="url(#SVGID_14_)" fill="none" d="M87.525,75.9c-0.462,0.023-0.599,0.307-0.58,0.714
				c0.02,0.44,0.279,0.628,0.695,0.62c0.478-0.009,0.572-0.332,0.567-0.724C88.201,76.056,87.956,75.879,87.525,75.9z"/>
			<path clip-path="url(#SVGID_14_)" fill="none" d="M90.729,66.693c-0.87-0.024-1.467,0.588-1.405,1.644
				c0.066,1.122,0.032,2.251,0.014,3.376c-0.012,0.725,0.072,1.27,1.025,1.257c1.001-0.014,0.954-0.659,0.953-1.329
				c-0.001-0.652,0-1.303,0-1.955c0.01,0,0.019,0,0.029,0c0-0.474,0.051-0.955-0.013-1.42C91.252,67.69,91.692,66.719,90.729,66.693
				z"/>
			<path clip-path="url(#SVGID_14_)" fill="none" d="M96.966,75.919c-0.461-0.006-0.834,0.089-0.808,0.674
				c0.02,0.438,0.09,0.819,0.488,0.794c0.644-0.154,1.144-0.229,1.071-0.905C97.667,76.015,97.352,75.924,96.966,75.919z"/>
			<path clip-path="url(#SVGID_14_)" fill="none" d="M97.924,68.054c-0.002,0-0.004,0-0.006,0c0-1.249,0.01-2.499-0.007-3.748
				c-0.005-0.333,0.065-0.74-0.39-0.886c-0.392-0.126-0.667,0.146-0.983,0.296c-0.65,0.307-0.468,0.909-0.473,1.4
				c-0.027,2.26-0.026,4.521,0.007,6.781c0.007,0.485-0.317,1.318,0.628,1.252c0.709-0.049,1.319-0.357,1.245-1.349
				C97.853,70.557,97.924,69.303,97.924,68.054z"/>
			<path clip-path="url(#SVGID_14_)" fill="none" d="M100.128,75.896c-0.381-0.014-0.601,0.193-0.617,0.607
				c-0.018,0.483,0.197,0.759,0.702,0.766c0.416,0.006,0.635-0.194,0.646-0.614C100.873,76.177,100.685,75.885,100.128,75.896z"/>
			<path clip-path="url(#SVGID_14_)" fill="none" d="M77.018,70.1c-1.166-0.027-1.023,0.8-0.943,1.47
				c0.077,0.639-0.494,1.741,0.849,1.707c1.309-0.033,1.27-0.87,0.852-1.769C78.168,70.651,78.077,70.124,77.018,70.1z"/>
			<path clip-path="url(#SVGID_14_)" fill="none" d="M111.102,52.202c-0.016-0.396,0.073-0.845-0.423-1.207
				c-1.324,1.039-2.05,2.303-1.671,3.894c0.393,1.645,0.304,3.294,0.319,4.944c0.036,3.918,0.022,7.837,0.015,11.756
				c-0.001,0.76-0.015,1.436,1.073,1.392c1.032-0.042,0.889-0.755,0.893-1.388C111.354,65.128,111.363,58.663,111.102,52.202z"/>
			<path clip-path="url(#SVGID_14_)" fill="none" d="M81.229,71.416c-0.047-0.688,0.327-1.68-0.934-1.691
				c-1.1-0.01-1.424,0.638-1.26,1.574c-0.069,0.898,0.04,1.597,1.123,1.659C81.389,73.028,81.281,72.179,81.229,71.416z"/>
			<path clip-path="url(#SVGID_14_)" fill="none" d="M81.346,75.923c-0.451,0.007-0.609,0.267-0.594,0.67
				c0.015,0.419,0.248,0.63,0.664,0.623c0.441-0.008,0.603-0.274,0.598-0.679C81.998,76.108,81.771,75.917,81.346,75.923z"/>
			<path clip-path="url(#SVGID_14_)" fill="none" d="M83.97,69.025c-1.356-0.152-1.484,0.933-1.319,1.948
				c0.119,0.733-0.627,1.961,0.966,1.984c1.625,0.023,0.768-1.247,1.06-2C84.275,70.375,85.253,69.169,83.97,69.025z"/>
			<path clip-path="url(#SVGID_14_)" fill="none" d="M87.908,72.179c-0.001-0.587,0-1.174,0-1.76c0.003,0,0.005,0,0.008,0
				c0-0.293,0.042-0.594-0.009-0.879c-0.099-0.547,0.333-1.439-0.725-1.432c-0.882,0.006-1.167,0.62-1.139,1.442
				c0.031,0.879,0.018,1.76,0.028,2.64c0.007,0.614,0.378,0.781,0.924,0.776C87.539,72.961,87.91,72.797,87.908,72.179z"/>
			<path clip-path="url(#SVGID_14_)" fill="none" d="M101.318,60.884c-1.556,0.302-2.464,1.239-2.249,2.471
				c0.487,2.781,0.132,5.554,0.271,8.324c0.035,0.691,0.002,1.305,0.982,1.312c0.976,0.008,1-0.591,0.999-1.293
				C101.314,68.138,101.318,64.577,101.318,60.884z"/>
			<path clip-path="url(#SVGID_14_)" fill="none" d="M107.822,55.096c-1.617,0.748-1.617,0.748-1.664,2.478
				c-0.031,4.805-0.06,9.61-0.096,14.415c-0.005,0.635,0.206,1.002,0.918,0.995c0.694-0.007,0.938-0.347,0.933-0.992
				c-0.035-4.922-0.062-9.844-0.091-14.766C107.822,56.524,107.822,55.824,107.822,55.096z"/>
			<path clip-path="url(#SVGID_14_)" fill="none" d="M106.396,75.928c-0.467,0.003-0.602,0.293-0.596,0.697
				c0.006,0.453,0.268,0.622,0.688,0.607c0.465-0.003,0.612-0.276,0.6-0.693C107.074,76.086,106.809,75.925,106.396,75.928z"/>
			<path clip-path="url(#SVGID_14_)" fill="none" d="M109.572,75.923c-0.471,0.004-0.594,0.301-0.587,0.701
				c0.008,0.452,0.268,0.621,0.84,0.596c0.313-0.003,0.45-0.286,0.441-0.695C110.256,76.067,109.982,75.92,109.572,75.923z"/>
			<path clip-path="url(#SVGID_14_)" fill="none" d="M103.314,75.909c-0.394,0.001-0.659,0.15-0.684,0.583
				c-0.029,0.494,0.191,0.754,0.699,0.745c0.442-0.008,0.591-0.271,0.587-0.67C103.909,76.17,103.757,75.908,103.314,75.909z"/>
			<path clip-path="url(#SVGID_14_)" fill="none" d="M104.62,57.675c-1.01,0.924-2.001,1.327-2.005,2.448
				c-0.014,3.982,0.011,7.965,0.006,11.947c-0.001,0.715,0.37,0.905,1.006,0.911c0.639,0.006,1.002-0.174,1-0.898
				C104.613,67.407,104.62,62.731,104.62,57.675z"/>
			
				<line clip-path="url(#SVGID_14_)" fill="none" stroke="#0075A9" stroke-miterlimit="10" x1="26.517" y1="21.109" x2="81.346" y2="75.923"/>
			
				<line clip-path="url(#SVGID_14_)" fill="none" stroke="#0075A9" stroke-miterlimit="10" x1="26.136" y1="23.208" x2="68.806" y2="75.914"/>
			
				<line clip-path="url(#SVGID_14_)" fill="none" stroke="#0075A9" stroke-miterlimit="10" x1="26.136" y1="25.117" x2="54.572" y2="74.547"/>
			
				<line clip-path="url(#SVGID_14_)" fill="none" stroke="#0075A9" stroke-miterlimit="10" x1="25.945" y1="30.079" x2="45.793" y2="73.593"/>
			
				<line clip-path="url(#SVGID_14_)" fill="none" stroke="#0075A9" stroke-miterlimit="10" x1="26.326" y1="37.14" x2="38.732" y2="76.646"/>
			
				<line clip-path="url(#SVGID_14_)" fill="none" stroke="#0075A9" stroke-miterlimit="10" x1="26.136" y1="49.927" x2="33.579" y2="74.547"/>
			<g clip-path="url(#SVGID_14_)">
				<line fill="none" stroke="#0075A9" stroke-miterlimit="10" x1="118.774" y1="21.109" x2="63.945" y2="75.923"/>
				<line fill="none" stroke="#0075A9" stroke-miterlimit="10" x1="119.156" y1="23.208" x2="76.485" y2="75.914"/>
				<line fill="none" stroke="#0075A9" stroke-miterlimit="10" x1="119.156" y1="25.117" x2="90.719" y2="74.547"/>
				<line fill="none" stroke="#0075A9" stroke-miterlimit="10" x1="119.346" y1="30.079" x2="99.498" y2="73.593"/>
				<line fill="none" stroke="#0075A9" stroke-miterlimit="10" x1="118.965" y1="37.14" x2="106.56" y2="76.646"/>
				<line fill="none" stroke="#0075A9" stroke-miterlimit="10" x1="119.156" y1="49.927" x2="111.712" y2="74.547"/>
			</g>
			<g clip-path="url(#SVGID_14_)">
				<line fill="none" stroke="#0075A9" stroke-miterlimit="10" x1="23.774" y1="21.109" x2="-31.055" y2="75.923"/>
				<line fill="none" stroke="#0075A9" stroke-miterlimit="10" x1="24.156" y1="23.208" x2="-18.515" y2="75.914"/>
				<line fill="none" stroke="#0075A9" stroke-miterlimit="10" x1="24.156" y1="25.117" x2="-4.281" y2="74.547"/>
				<line fill="none" stroke="#0075A9" stroke-miterlimit="10" x1="24.346" y1="30.079" x2="4.498" y2="73.593"/>
				<line fill="none" stroke="#0075A9" stroke-miterlimit="10" x1="23.965" y1="37.14" x2="11.56" y2="76.646"/>
				<line fill="none" stroke="#0075A9" stroke-miterlimit="10" x1="24.156" y1="49.927" x2="16.712" y2="74.547"/>
			</g>
			<g clip-path="url(#SVGID_14_)">
				<line fill="none" stroke="#0075A9" stroke-miterlimit="10" x1="121.517" y1="21.109" x2="176.346" y2="75.923"/>
				<line fill="none" stroke="#0075A9" stroke-miterlimit="10" x1="121.136" y1="23.208" x2="163.806" y2="75.914"/>
				<line fill="none" stroke="#0075A9" stroke-miterlimit="10" x1="121.136" y1="25.117" x2="149.572" y2="74.547"/>
				<line fill="none" stroke="#0075A9" stroke-miterlimit="10" x1="120.945" y1="30.079" x2="140.793" y2="73.593"/>
				<line fill="none" stroke="#0075A9" stroke-miterlimit="10" x1="121.326" y1="37.14" x2="133.732" y2="76.646"/>
				<line fill="none" stroke="#0075A9" stroke-miterlimit="10" x1="121.136" y1="49.927" x2="128.579" y2="74.547"/>
			</g>
			<path clip-path="url(#SVGID_14_)" fill="#00608B" d="M23.588,94.53V18.142c0,0,2.031-4.272,4.301,0.196v75.905h2.934v5.282h-9.39
				v-4.891L23.588,94.53z"/>
			<path clip-path="url(#SVGID_14_)" fill="#00608B" d="M117.868,94.53V18.142c0,0,2.031-4.272,4.301,0.196v75.905h2.934v5.282
				h-9.39v-4.891L117.868,94.53z"/>
			<rect x="-6.188" y="72.888" clip-path="url(#SVGID_14_)" fill="#00608B" width="153.054" height="6.159"/>
		</g>
	</g>
</g>
</svg>
