<?xml version="1.0" encoding="utf-8"?>
<!-- Generator: Adobe Illustrator 17.0.0, SVG Export Plug-In . SVG Version: 6.00 Build 0)  -->
<!DOCTYPE svg PUBLIC "-//W3C//DTD SVG 1.1//EN" "http://www.w3.org/Graphics/SVG/1.1/DTD/svg11.dtd">
<svg version="1.1" id="Layer_1" xmlns="http://www.w3.org/2000/svg" xmlns:xlink="http://www.w3.org/1999/xlink" x="0px" y="0px"
	 width="581.238px" height="253.981px" viewBox="0 0 581.238 253.981" enable-background="new 0 0 581.238 253.981"
	 xml:space="preserve">
<rect x="30.789" y="20.191" fill="#FFFFFF" stroke="#4D4D4D" stroke-miterlimit="10" width="519" height="204"/>
<g>
	<defs>
		<polygon id="SVGID_2051_" points="-585.217,18.93 -585.217,224.411 -406.041,224.411 -350.623,19.888 		"/>
	</defs>
	<clipPath id="SVGID_2_">
		<use xlink:href="#SVGID_2051_"  overflow="visible"/>
	</clipPath>
	<g clip-path="url(#SVGID_2_)">
		<defs>
			<rect id="SVGID_2053_" x="-706.695" y="-1844.685" width="1923.24" height="3789.385"/>
		</defs>
		<clipPath id="SVGID_4_">
			<use xlink:href="#SVGID_2053_"  overflow="visible"/>
		</clipPath>
	</g>
</g>
<polygon fill="#DEEBC5" points="31.289,20.691 31.289,222.691 194.904,222.691 242.521,20.691 "/>
<ellipse opacity="0.3" fill="#7E6B71" cx="80.422" cy="198.909" rx="21.578" ry="3.359"/>
<path opacity="0.3" fill="#819D2C" d="M107.238,137.086H79.891H52.544c-0.352,0-0.636,0.285-0.636,0.636
	c0,0.352,0.284,0.636,0.636,0.636h27.347h27.347c0.352,0,0.636-0.284,0.636-0.636C107.874,137.371,107.59,137.086,107.238,137.086z"
	/>
<path opacity="0.3" fill="#819D2C" d="M96.567,199.185h-16.27H64.027c-0.343,0-0.621,0.278-0.621,0.621
	c0,0.344,0.278,0.621,0.621,0.621h16.271h16.27c0.344,0,0.621-0.277,0.621-0.621C97.188,199.462,96.911,199.185,96.567,199.185z"/>
<polygon fill="#819D2C" points="127.936,155.332 108.784,155.332 115.966,192.167 127.936,192.167 139.906,192.167 147.086,155.332 
	"/>
<path opacity="0.3" fill="#819D2C" d="M147.542,153.732h-19.607h-19.607c-0.252,0-0.456,0.204-0.456,0.456
	c0,0.252,0.204,0.456,0.456,0.456h19.607h19.607c0.252,0,0.456-0.204,0.456-0.456C147.998,153.936,147.795,153.732,147.542,153.732z
	"/>
<path opacity="0.3" fill="#819D2C" d="M139.881,193.08h-11.946h-11.946c-0.252,0-0.456,0.204-0.456,0.456
	c0,0.252,0.204,0.456,0.456,0.456h11.946h11.946c0.252,0,0.456-0.204,0.456-0.456C140.337,193.284,140.134,193.08,139.881,193.08z"
	/>
<ellipse opacity="0.3" fill="#7E6B71" cx="128.458" cy="198.579" rx="15.478" ry="2.41"/>
<path opacity="0.3" fill="#819D2C" d="M139.888,198.314h-11.769h-11.77c-0.248,0-0.449,0.201-0.449,0.449
	c0,0.249,0.201,0.449,0.449,0.449h11.77h11.769c0.249,0,0.449-0.201,0.449-0.449C140.337,198.515,140.137,198.314,139.888,198.314z"
	/>
<polygon fill="#819D2C" points="128.119,194.873 116.438,194.873 116.438,197.638 128.119,197.638 139.798,197.638 139.798,194.873 
	"/>
<path fill="#819D2C" d="M77.658,96.369c0.576,1.151,3.17,7.2,3.17,8.068c0,4.745-6.338,4.745-6.338,0
	C74.49,103.569,77.084,97.233,77.658,96.369z"/>
<path fill="#819D2C" d="M77.659,111.176c0.368,0.735,2.024,4.597,2.024,5.151c0,3.029-4.046,3.029-4.046,0
	C75.636,115.772,77.292,111.727,77.659,111.176z"/>
<path fill="#CBDF8E" d="M77.659,123.612c0.255,0.509,1.402,3.184,1.402,3.568c0,2.098-2.803,2.098-2.803,0
	C76.258,126.796,77.405,123.994,77.659,123.612z"/>
<path fill="#819D2C" d="M83.215,90.185c0-0.965,0-2.571,0-5.392c0-3.416-3.102-6.369-7.214-6.369c0,0-0.024,0-9.606,0l-0.053-2.997
	c0-0.862-0.702-1.565-1.566-1.565H61.02v-1.924c0.326-0.192,0.595-0.434,0.823-0.729c1.128,0,3.41,0,7.999,0
	c0.536,0.687,1.326,1.164,2.262,1.164c1.593,0,2.889-1.292,2.889-2.889c0-1.6-1.297-2.895-2.89-2.895
	c-0.956,0-1.767,0.505-2.291,1.224c-1.264,0-3.629,0-7.93,0c-0.533-0.719-1.338-1.224-2.297-1.224c-0.953,0-1.767,0.505-2.291,1.224
	c-2.454,0-5.364,0-8.757,0c-0.524-0.719-1.332-1.224-2.286-1.224c-1.598,0-2.892,1.295-2.892,2.894c0,1.597,1.294,2.889,2.892,2.889
	c0.929,0,1.723-0.477,2.247-1.164c1.448,0,4.085,0,8.831,0c0.231,0.302,0.506,0.547,0.838,0.733v1.921h-3.988
	c-0.862,0-1.563,0.703-1.563,1.565v2.997c-0.98,0-13.352,0-21.239,0v9.34c0.275,0,11.733,0,22.55,0
	c1.273,2.553,2.969,3.818,5.518,3.818c2.546,0,4.668-1.264,5.942-3.818c0,0,0,0,4.671,0c1.394,0,1.909,0.897,2.057,2.617
	c-0.408,0.278-0.69,0.73-0.69,1.264c0,0.864,0.702,1.566,1.563,1.566h9.692c0.864,0,1.566-0.702,1.566-1.566
	C84.245,90.968,83.817,90.405,83.215,90.185z"/>
<polygon fill="#819D2C" points="79.891,139.319 53.179,139.319 63.197,190.695 79.891,190.695 96.586,190.695 106.602,139.319 "/>
<path opacity="0.3" fill="#819D2C" d="M96.552,191.968H79.891H63.229c-0.351,0-0.636,0.285-0.636,0.636
	c0,0.352,0.285,0.636,0.636,0.636h16.662h16.661c0.352,0,0.636-0.284,0.636-0.636C97.188,192.253,96.904,191.968,96.552,191.968z"/>
<polygon fill="#819D2C" points="80.298,194.428 64.15,194.428 64.15,198.249 80.298,198.249 96.443,198.249 96.443,194.428 "/>
</svg>
