<?xml version="1.0" encoding="utf-8"?>
<!-- Generator: Adobe Illustrator 17.0.0, SVG Export Plug-In . SVG Version: 6.00 Build 0)  -->
<!DOCTYPE svg PUBLIC "-//W3C//DTD SVG 1.1//EN" "http://www.w3.org/Graphics/SVG/1.1/DTD/svg11.dtd">
<svg version="1.1" id="Layer_1" xmlns="http://www.w3.org/2000/svg" xmlns:xlink="http://www.w3.org/1999/xlink" x="0px" y="0px"
	 width="581.238px" height="253.981px" viewBox="0 0 581.238 253.981" enable-background="new 0 0 581.238 253.981"
	 xml:space="preserve">
<rect x="83.289" y="42.691" fill="#FFFFFF" width="421" height="166"/>
<g>
	<defs>
		<polygon id="SVGID_22_" points="-590.711,-280.309 -590.711,-76.309 -407.923,-76.309 -353.486,-280.309 		"/>
	</defs>
	<clipPath id="SVGID_2_">
		<use xlink:href="#SVGID_22_"  overflow="visible"/>
	</clipPath>
	<g clip-path="url(#SVGID_2_)">
	</g>
</g>
<g>
	<defs>
		<polygon id="SVGID_2078_" points="-591.217,18.93 -591.217,224.411 -412.041,224.411 -356.623,19.888 		"/>
	</defs>
	<clipPath id="SVGID_4_">
		<use xlink:href="#SVGID_2078_"  overflow="visible"/>
	</clipPath>
	<g clip-path="url(#SVGID_4_)">
		<defs>
			<rect id="SVGID_2080_" x="-712.695" y="-1844.685" width="1923.24" height="3789.385"/>
		</defs>
		<clipPath id="SVGID_6_">
			<use xlink:href="#SVGID_2080_"  overflow="visible"/>
		</clipPath>
	</g>
</g>
<g>
	<path fill="#B7AEB1" d="M281.29,96.933c0,0,8.002-3.151,6.347-8.613s-6.347,0.706-6.347,0.706l-2.429,6.846l1.164,1.489
		L281.29,96.933z"/>
	<polygon opacity="0.3" fill="#7E6B71" points="226.236,42.691 187.177,208.691 343.904,208.691 380.913,42.691 	"/>
	<polygon opacity="0.2" fill="#7E6B71" points="83.289,42.691 83.289,208.691 187.177,208.691 226.236,42.691 	"/>
	<polygon opacity="0.4" fill="#7E6B71" points="504.289,42.691 380.913,42.691 343.904,208.691 504.289,208.691 	"/>
	<g>
		<defs>
			<polygon id="SVGID_2454_" points="229.225,42.691 190.166,208.691 340.914,208.691 377.924,42.691 			"/>
		</defs>
		<clipPath id="SVGID_8_">
			<use xlink:href="#SVGID_2454_"  overflow="visible"/>
		</clipPath>
	</g>
	<g>
		<defs>
			<polygon id="SVGID_2456_" points="83.289,42.691 83.289,208.691 187.177,208.691 226.236,42.691 			"/>
		</defs>
		<clipPath id="SVGID_10_">
			<use xlink:href="#SVGID_2456_"  overflow="visible"/>
		</clipPath>
	</g>
	<g>
		<path fill="#B7AEB1" d="M168.633,103.1c2.469,2.215,2.89,5.42,3.973,8.296c0.961,2.551,1.801,5.148,2.893,7.756
			c0.699-1.759,2.219-3.081,1.974-5.263c-0.236-2.107,1.049-3.827,3.164-4.707c0.6,2.17-0.062,3.929-1.274,5.726
			c-1.296,1.922-2.281,4.054-3.17,6.288c1.944-1.28,3.733-2.519,6.13-1.961c-0.554,2.781-3.018,4.095-6.456,3.295
			c-0.228,1.276-0.653,2.546-0.644,3.813c0.027,3.952,0.218,7.903,0.344,11.854c0.031,0.959,0.552,1.42,1.42,1.826
			c2.368,1.106,4.696,2.31,6.966,3.603c0.404,0.23,0.648,1.097,0.593,1.631c-0.028,0.274-0.899,0.685-1.359,0.65
			c-1.673-0.13-3.348-0.35-4.996-0.671c-2.277-0.443-4.43-0.243-6.698,0.34c-1.648,0.423-3.559,0.232-5.272-0.104
			c-2.799-0.548-5.426-0.653-8.24,0.223c-1.581,0.493-3.543,0.026-5.279-0.301c-2.635-0.497-5.112-0.612-7.765,0.274
			c-1.521,0.508-3.448,0.123-5.121-0.214c-2.741-0.551-5.325-0.683-8.081,0.222c-1.482,0.487-3.346,0.12-4.969-0.202
			c-2.791-0.555-5.422-0.668-8.243,0.202c-1.629,0.502-3.639,0.009-5.43-0.31c-2.587-0.46-5.035-0.558-7.626,0.28
			c-1.446,0.468-3.207,0.046-4.815-0.096c-1.463-0.129-2.917-0.393-4.362-0.665c-0.316-0.059-0.578-0.406-0.865-0.62
			c0.259-0.201,0.526-0.392,0.775-0.605c0.431-0.367,0.789-0.902,1.283-1.098c4.795-1.902,9.592-3.804,14.441-5.562
			c0.968-0.351,1.373-0.778,1.491-1.707c0.848-6.639,1.724-13.275,2.544-19.918c0.088-0.713-0.051-1.479-0.218-2.189
			c-0.123-0.523-0.413-1.365-0.721-1.408c-0.518-0.072-1.287,0.223-1.64,0.631c-2.198,2.544-4.31,5.163-6.451,7.757
			c0.081,0.115,0.163,0.231,0.244,0.346c1.722-0.837,3.445-1.674,5.167-2.512c0.116,0.228,0.232,0.456,0.349,0.684
			c-4.871,2.515-9.742,5.029-14.613,7.544c-0.042,0.166-0.083,0.333-0.125,0.499c2.322,1.22,4.645,2.439,7.217,3.79
			c-1.632,1.544-3.181,3.01-4.814,4.555c-2.022-1.573-3.461-3.517-4.569-5.754c-0.338-0.683-0.871-1.269-1.416-2.043
			c0.653-1.082,1.786-1.505,3.211-2.064c2.815-1.106,6.162-1.75,7.169-5.62c1.046-4.019,2.578-7.919,4.041-11.817
			c0.595-1.585,1.567-3.029,2.368-4.538l-0.05,0.054c0.322-0.17,0.666-0.309,0.964-0.514c3.279-2.258,6.168-2.427,9.331-0.012
			c4.884,3.729,8.176,8.406,8.152,14.933c-0.018,4.85,0.262,9.701,0.35,14.553c0.023,1.275,0.338,1.598,1.75,1.562
			c5.586-0.14,11.179-0.11,16.766,0.026c1.325,0.032,1.791-0.168,1.811-1.522c0.072-4.905,0.32-9.808,0.331-14.712
			c0.015-6.446,3.278-11.101,8.104-14.808c3.305-2.539,6.764-2.225,10.017,0.355L168.633,103.1z M128.311,133.318
			c0.119-0.003,0.237-0.007,0.356-0.01c0.03-0.302,0.093-0.604,0.086-0.905c-0.125-5.434-0.031-10.885-0.453-16.295
			c-0.454-5.829-3.779-10.109-8.684-13.018c-3.203-1.9-7.682-0.274-9.042,3.186c-1.538,3.913-2.751,7.954-4.095,11.942
			c-0.016,0.047,0.108,0.14,0.258,0.325c1.486-1.808,2.931-3.608,4.426-5.366c0.678-0.797,1.365-1.639,2.208-2.233
			c1.495-1.054,2.976-0.511,3.386,1.26c0.281,1.213,0.431,2.526,0.292,3.755c-0.495,4.397-1.148,8.777-1.722,13.165
			c-0.232,1.774-0.415,3.554-0.62,5.332c0.12,0.032,0.241,0.064,0.361,0.097c2.686-6.155,5.371-12.311,8.225-18.852
			C125.06,121.903,126.685,127.611,128.311,133.318z M173.379,118.53c0.138-0.08,0.275-0.159,0.413-0.239
			c-1.471-4.144-2.684-8.405-4.493-12.395c-1.496-3.301-5.506-4.574-8.502-2.958c-4.639,2.502-8.015,6.431-8.661,11.626
			c-0.766,6.152-0.541,12.428-0.734,18.65c-0.003,0.098,0.137,0.201,0.327,0.462c1.702-5.973,3.351-11.762,5.127-17.994
			c2.862,6.575,5.537,12.72,8.212,18.865c0.307-0.257,0.383-0.447,0.36-0.624c-0.671-5.173-1.402-10.339-2.005-15.519
			c-0.217-1.864-0.332-3.786-0.133-5.642c0.261-2.44,2.011-3.059,3.926-1.49c0.845,0.692,1.517,1.603,2.225,2.45
			C170.771,115.311,172.069,116.926,173.379,118.53z M173.903,128.443c0.202-1.606,0.504-3.209,0.564-4.82
			c0.032-0.855-0.113-1.911-0.601-2.557c-2.035-2.689-4.224-5.262-6.375-7.864c-0.366-0.443-0.783-0.86-1.237-1.21
			c-0.822-0.633-1.551-0.504-1.749,0.569c-0.198,1.074-0.318,2.197-0.234,3.28c0.159,2.044,0.485,4.076,0.747,6.112
			c0.572,4.439,1.132,8.879,1.742,13.312c0.072,0.523,0.309,1.333,0.664,1.457c2.301,0.807,4.656,1.461,7.165,2.217
			c-0.24-2.869-0.458-5.473-0.674-8.057c-3.731-0.957-5.839-3.562-5.384-6.68C170.987,124.754,172.516,126.394,173.903,128.443z
			 M164.373,135.924c-2.441-5.594-4.76-10.91-7.079-16.225c-0.149,0.04-0.298,0.08-0.447,0.119
			c-1.323,4.726-2.646,9.451-3.991,14.254C156.755,134.699,160.403,135.286,164.373,135.924z M115.849,135.741
			c0.414,0.066,0.572,0.131,0.717,0.108c3.225-0.508,6.444-1.051,9.674-1.526c1.076-0.158,0.923-0.722,0.711-1.464
			c-0.971-3.393-1.911-6.794-2.869-10.191c-0.275-0.976-0.571-1.946-0.857-2.918c-0.133-0.01-0.265-0.02-0.398-0.03
			C120.524,125.008,118.222,130.294,115.849,135.741z"/>
		<path fill="#7E6B71" d="M134.382,69.256c0.847-0.626,1.622-1.246,2.444-1.793c0.824-0.548,1.6-0.408,2.254,0.343
			c0.381,0.438,0.762,0.876,1.144,1.313c0.906,1.04,1.877,1.457,3.123,0.475c1.302-1.027,2.418-0.868,3.56,0.436
			c0.497,0.568,1.46,0.791,2.254,1.025c2.032,0.6,4.088,1.119,6.336,1.725c1.172,0,2.644,0,4.115,0
			c0.025,0.212,0.05,0.425,0.075,0.637c-0.554,0.044-1.109,0.133-1.661,0.122c-0.664-0.014-1.326-0.113-1.834-0.16
			c0.47,1.356,0.893,2.645,1.361,3.917c1.749,4.747,3.478,9.502,5.295,14.223c0.477,1.24,0.214,2.008-0.734,2.894
			c-3.465,3.24-6.959,6.464-10.223,9.901c-2.706,2.849-4.502,6.255-4.441,10.358c0.017,1.186-0.533,1.901-1.473,2.571
			c-3.826,2.722-7.597,5.522-11.392,8.288c-0.492,0.359-1.006,0.688-1.716,1.172c-0.049-0.776-0.101-1.281-0.109-1.786
			c-0.056-3.747-0.143-7.494-0.108-11.24c0.005-0.551,0.487-1.232,0.945-1.625c7.45-6.391,14.913-12.766,22.427-19.083
			c1.095-0.921,1.481-1.8,1.323-3.248c-0.394-3.604-0.566-7.232-0.862-11.33c-3.999,6.343-9.983,8.19-16.484,8.169
			c-6.463-0.021-12.444-1.805-16.399-8.221c-0.264,2.774-0.492,5.143-0.712,7.512c-0.034,0.368,0.047,0.765-0.063,1.103
			c-1.079,3.317,0.338,5.439,3.095,7.189c2.13,1.352,3.985,3.13,6.065,4.569c0.804,0.556,1.883,0.955,2.852,0.989
			c3.368,0.119,6.743,0.046,10.393,0.046c-4.356,3.858-8.613,7.628-12.94,11.461c-2.634-6.875-8.006-11.286-13.196-15.841
			c-2.75-2.414-2.57-1.644-1.355-5.095c1.785-5.067,3.52-10.154,5.458-15.163c1.252-3.238,3.763-5.618,6.348-7.817
			c1.119-0.952,2.426-0.361,3.466,0.49C133.532,68.206,133.937,68.768,134.382,69.256z M155.166,75.197
			c-0.977-1.096-1.704-2.523-3.494-1.938c-0.347,0.113-0.855-0.288-1.295-0.436c-0.486-0.163-1.002-0.486-1.463-0.425
			c-1.28,0.169-2.154-0.396-2.839-1.336c-0.667-0.915-1.291-0.935-2.248-0.337c-1.896,1.186-2.718,1.029-4.321-0.532
			c-0.376-0.367-0.639-0.899-1.073-1.144c-0.4-0.226-1.029-0.347-1.431-0.19c-0.505,0.197-0.919,0.69-1.307,1.115
			c-1.187,1.299-1.459,1.292-2.582-0.134c-0.325-0.412-0.615-1.007-1.042-1.147c-0.661-0.216-1.731-0.435-2.095-0.09
			c-1.691,1.603-3.218,3.382-4.753,5.143c-0.305,0.35-0.387,0.896-0.613,1.452C134.952,75.197,145.059,75.197,155.166,75.197z
			 M142.528,80.331c-0.006,1.948,0.947,3.214,2.455,3.262c1.569,0.05,2.679-1.288,2.68-3.233c0.002-1.961-1.091-3.317-2.645-3.281
			C143.532,77.113,142.534,78.417,142.528,80.331z M137.056,80.692c0.029,2.03,1.062,3.279,2.658,3.215
			c1.478-0.059,2.601-1.58,2.531-3.427c-0.067-1.776-1.256-3.204-2.654-3.189C138.099,77.306,137.028,78.743,137.056,80.692z
			 M134.408,83.452c0.793,0,1.278,0,1.641,0c0-2.071,0-4.032,0-6.306c-0.814,0.683-1.37,1.149-1.641,1.376
			C134.408,80.306,134.408,81.807,134.408,83.452z"/>
		<path fill="#A39197" d="M95.338,167.912c0-1.571-0.08-2.989,0.05-4.387c0.038-0.406,0.623-1,1.049-1.093
			c4.878-1.075,9.732-2.423,14.674-3.016c11.756-1.412,23.2,0.353,34.462,3.916c8.512,2.693,17.292,3.972,26.23,2.908
			c3.694-0.44,7.316-1.489,10.967-2.277c0.554-0.12,1.088-0.331,1.893-0.581c0,1.671,0.067,3.176-0.051,4.666
			c-0.027,0.336-0.65,0.774-1.078,0.906c-7.083,2.178-14.316,2.918-21.719,2.458c-8.234-0.512-16.028-2.925-23.925-5.021
			c-13.684-3.632-27.339-3.366-40.852,1.052C96.549,167.603,96.045,167.718,95.338,167.912z"/>
		<path fill="#A39197" d="M184.089,156.08c0,0.866,0.005,1.384-0.001,1.901c-0.024,2.353-0.033,2.325-2.28,2.919
			c-1.821,0.481-3.59,1.251-5.437,1.524c-5.3,0.782-10.656,1.026-15.991,0.552c-2.891-0.257-5.728-1.081-8.602-1.575
			c-0.918-0.158-1.919,0.091-2.81-0.134c-2.489-0.629-4.934-1.433-7.409-2.121c-2.014-0.56-4.039-1.09-6.074-1.565
			c-2.229-0.52-4.456-1.113-6.719-1.4c-2.575-0.326-5.189-0.458-7.787-0.471c-2.881-0.015-5.774,0.089-8.643,0.348
			c-2.663,0.24-5.322,0.649-7.944,1.175c-2.584,0.518-5.116,1.294-7.683,1.903c-0.279,0.066-0.774-0.13-0.943-0.366
			c-0.452-0.63,0.404-3.664,1.176-3.888c2.763-0.8,5.538-1.598,8.356-2.159c2.628-0.523,5.306-0.872,7.979-1.068
			c6.051-0.445,12.108-0.395,18.095,0.713c3.224,0.596,6.478,1.208,9.58,2.233c3.086,1.02,6.13,2.028,9.372,2.449
			c1.394,0.181,2.732,0.792,4.098,1.2c0.245,0.073,0.5,0.137,0.754,0.155c4.134,0.283,8.268,0.768,12.402,0.764
			c2.992-0.003,5.985-0.65,8.976-1.028c0.824-0.104,1.662-0.199,2.455-0.428C180.621,157.246,182.207,156.691,184.089,156.08z"/>
		<path fill="#A39197" d="M95.526,148.416c-0.382-1.178,0.115-1.643,1.325-1.451c2.13,0.337,4.246,0.787,6.387,1.008
			c1.071,0.111,2.296,0.079,3.253-0.341c2.081-0.914,4.105-0.755,6.182-0.238c2.915,0.726,5.696,0.756,8.683-0.188
			c1.738-0.549,3.928,0.154,5.877,0.5c2.389,0.424,4.625,0.302,6.985-0.428c1.451-0.449,3.232-0.168,4.791,0.148
			c2.942,0.596,5.739,0.879,8.685-0.265c1.235-0.48,2.92-0.074,4.334,0.234c2.986,0.65,5.83,0.903,8.839-0.229
			c1.328-0.499,3.117-0.011,4.641,0.299c2.832,0.576,5.564,0.913,8.367-0.29c0.931-0.4,2.187-0.207,3.265-0.063
			c2.435,0.325,4.852,0.789,7.459,1.227c0.352,0.92-0.172,1.452-1.323,1.371c-1.411-0.099-2.833-0.23-4.213-0.522
			c-2.626-0.556-5.129-0.579-7.773,0.252c-1.497,0.471-3.347,0.165-4.962-0.162c-2.843-0.576-5.529-0.706-8.392,0.207
			c-1.527,0.487-3.438,0.042-5.119-0.282c-2.685-0.518-5.214-0.636-7.918,0.256c-1.52,0.502-3.437,0.084-5.114-0.237
			c-2.737-0.523-5.303-0.515-8.08,0.206c-2.001,0.519-4.351-0.143-6.517-0.467c-2.127-0.318-4.122-0.143-6.229,0.348
			c-1.715,0.4-3.658,0.267-5.417-0.066c-2.799-0.529-5.468-0.793-8.227,0.274c-1.009,0.39-2.303,0.23-3.433,0.075
			C99.807,149.31,97.758,148.841,95.526,148.416z"/>
		<path fill="#7E6B71" d="M145.097,93.264c-0.625,1.465-1.018,3.036-1.883,4.278c-1.682,2.414-4.555,2.342-6.397,0.041
			c-1.88-2.348-1.955-6.304-0.166-8.727c1.908-2.584,5.111-2.583,6.812,0.15C144.212,90.212,144.513,91.695,145.097,93.264z"/>
		<path fill="#7E6B71" d="M147.178,131.9c-4.527,0-8.933,0-13.866,0c4.789-3.501,9.238-6.752,13.866-10.135
			C147.178,125.24,147.178,128.471,147.178,131.9z"/>
		<path fill="#B7AEB1" d="M168.633,103.1l0.057,0.055c-1.603-3.847-0.549-6.609,2.896-7.629c1.381-0.409,2.63-0.174,3.671,0.803
			c1.061,0.997,1.252,2.248,0.873,3.632c-0.765,2.792-3.696,4.367-6.439,3.442C169.343,103.287,168.986,103.2,168.633,103.1z
			 M171.274,102.593c1.881,0.02,3.827-1.851,3.846-3.697c0.014-1.378-0.992-2.389-2.377-2.388c-1.855,0.001-3.856,1.906-3.879,3.692
			C168.847,101.521,169.912,102.578,171.274,102.593z"/>
		<path fill="#B7AEB1" d="M111.164,103.239c-2.409,0.905-4.52,0.546-6.219-1.489c-1.284-1.538-1.442-3.747-0.383-5.101
			c1.091-1.396,3.107-1.687,5.02-0.726c2.93,1.473,3.529,4.342,1.535,7.369C111.114,103.293,111.164,103.239,111.164,103.239z
			 M111.268,100.177c-0.048-1.82-2.037-3.701-3.886-3.674c-1.41,0.021-2.347,0.988-2.335,2.411c0.015,1.872,1.942,3.712,3.838,3.665
			C110.277,102.546,111.303,101.512,111.268,100.177z"/>
		<path fill="#7E6B71" d="M147.371,118.861c-0.204,0.37-0.316,0.865-0.625,1.092c-4.492,3.304-9.011,6.573-13.528,9.844
			c-0.068,0.049-0.195,0.017-0.57,0.039c0.243-0.49,0.329-0.989,0.623-1.207c4.556-3.38,9.139-6.724,13.716-10.076
			C147.116,118.656,147.244,118.758,147.371,118.861z"/>
		<path fill="#B7AEB1" d="M146.197,66.83c1.222,1.311,2.194,2.355,3.177,3.409C148.316,70.629,146.039,68.54,146.197,66.83z"/>
		<path fill="#B7AEB1" d="M154.654,64.161c0.741,1.522-0.216,4.284-1.578,4.967C153.666,67.271,154.16,65.716,154.654,64.161z"/>
		<path fill="#B7AEB1" d="M160.387,70.583c-1.536,0.391-3.073,0.781-4.855,1.234c0.581-1.237,3.21-2.005,4.731-1.683
			C160.304,70.283,160.346,70.433,160.387,70.583z"/>
		<path fill="#B7AEB1" d="M149.928,69.735c-0.786-1.577-1.462-2.935-2.287-4.589C149.319,65.728,150.667,68.539,149.928,69.735z"/>
		<path fill="#B7AEB1" d="M158.26,66.903c0.355,0.869-0.374,1.68-2.882,3.205C155.033,69.254,155.998,68.181,158.26,66.903z"/>
		<path fill="#B7AEB1" d="M151.583,69.181c-0.2-1.645-0.356-2.932-0.542-4.459C152.317,65.619,152.627,67.896,151.583,69.181z"/>
		<path fill="#7E6B71" d="M128.311,133.318c-1.626-5.708-3.251-11.415-5.018-17.618c-2.854,6.541-5.54,12.697-8.225,18.852
			c-0.12-0.032-0.241-0.064-0.361-0.097c0.205-1.777,0.388-3.558,0.62-5.332c0.574-4.389,1.226-8.768,1.722-13.165
			c0.138-1.229-0.011-2.542-0.292-3.755c-0.41-1.771-1.89-2.314-3.386-1.26c-0.843,0.594-1.53,1.436-2.208,2.233
			c-1.495,1.758-2.94,3.558-4.426,5.366c-0.151-0.185-0.274-0.278-0.258-0.325c1.344-3.989,2.557-8.029,4.095-11.942
			c1.36-3.461,5.839-5.086,9.042-3.186c4.905,2.909,8.23,7.189,8.684,13.018c0.422,5.411,0.328,10.862,0.453,16.295
			c0.007,0.301-0.056,0.603-0.086,0.905C128.548,133.312,128.43,133.315,128.311,133.318z"/>
		<path fill="#7E6B71" d="M173.379,118.53c-1.31-1.604-2.608-3.219-3.936-4.808c-0.708-0.847-1.381-1.758-2.225-2.45
			c-1.915-1.569-3.665-0.95-3.926,1.49c-0.199,1.857-0.084,3.778,0.133,5.642c0.603,5.181,1.334,10.347,2.005,15.519
			c0.023,0.177-0.053,0.367-0.36,0.624c-2.675-6.145-5.35-12.29-8.212-18.865c-1.776,6.232-3.425,12.02-5.127,17.994
			c-0.191-0.262-0.331-0.364-0.327-0.462c0.193-6.222-0.032-12.498,0.734-18.65c0.647-5.195,4.023-9.124,8.661-11.626
			c2.996-1.616,7.006-0.343,8.502,2.958c1.809,3.991,3.022,8.252,4.493,12.395C173.655,118.371,173.517,118.451,173.379,118.53z"/>
		<path fill="#B7AEB1" d="M155.166,75.197c-10.107,0-20.214,0-30.557,0c0.226-0.556,0.308-1.102,0.613-1.452
			c1.535-1.761,3.062-3.539,4.753-5.143c0.364-0.345,1.434-0.126,2.095,0.09c0.427,0.14,0.718,0.735,1.042,1.147
			c1.124,1.426,1.396,1.433,2.582,0.134c0.388-0.425,0.802-0.918,1.307-1.115c0.402-0.157,1.031-0.036,1.431,0.19
			c0.434,0.245,0.697,0.777,1.073,1.144c1.603,1.562,2.426,1.718,4.321,0.532c0.956-0.598,1.58-0.578,2.248,0.337
			c0.685,0.94,1.56,1.505,2.839,1.336c0.461-0.061,0.977,0.262,1.463,0.425c0.44,0.147,0.949,0.549,1.295,0.436
			C153.462,72.674,154.189,74.101,155.166,75.197z"/>
		<path fill="#B7AEB1" d="M142.528,80.331c0.006-1.914,1.004-3.218,2.491-3.252c1.553-0.036,2.646,1.32,2.645,3.281
			c-0.002,1.945-1.111,3.284-2.68,3.233C143.475,83.545,142.522,82.279,142.528,80.331z M145.953,79.994
			c-0.182-0.31-0.543-0.923-0.903-1.535c-0.268,0.68-0.593,1.345-0.78,2.047c-0.086,0.323,0.042,0.742,0.179,1.073
			c0.107,0.258,0.378,0.448,0.576,0.669c0.241-0.236,0.568-0.432,0.701-0.719C145.875,81.21,145.846,80.809,145.953,79.994z"/>
		<path fill="#B7AEB1" d="M137.056,80.692c-0.028-1.949,1.043-3.386,2.535-3.402c1.399-0.015,2.587,1.414,2.654,3.189
			c0.069,1.847-1.054,3.368-2.531,3.427C138.118,83.971,137.085,82.721,137.056,80.692z M139.595,78.705
			c-1.127,1.118-1.121,2.75,0.015,3.859C140.724,81.453,140.718,79.764,139.595,78.705z"/>
		<path fill="#B7AEB1" d="M134.408,83.452c0-1.645,0-3.146,0-4.931c0.271-0.227,0.827-0.693,1.641-1.376c0,2.274,0,4.235,0,6.306
			C135.685,83.452,135.201,83.452,134.408,83.452z"/>
		<path fill="#7E6B71" d="M171.274,102.593c-1.363-0.014-2.427-1.071-2.41-2.393c0.023-1.786,2.024-3.691,3.879-3.692
			c1.385-0.001,2.391,1.01,2.377,2.388C175.101,100.742,173.155,102.612,171.274,102.593z"/>
		<path fill="#7E6B71" d="M111.268,100.177c0.035,1.334-0.991,2.368-2.383,2.403c-1.896,0.047-3.823-1.793-3.838-3.665
			c-0.011-1.423,0.925-2.39,2.335-2.411C109.23,96.477,111.22,98.358,111.268,100.177z"/>
		<path fill="#7E6B71" d="M145.953,79.994c-0.107,0.815-0.078,1.216-0.226,1.535c-0.133,0.286-0.46,0.483-0.701,0.719
			c-0.198-0.22-0.469-0.411-0.576-0.669c-0.137-0.331-0.265-0.75-0.179-1.073c0.187-0.702,0.511-1.367,0.78-2.047
			C145.411,79.072,145.771,79.684,145.953,79.994z"/>
		<path fill="#7E6B71" d="M139.595,78.705c1.123,1.059,1.13,2.748,0.015,3.859C138.474,81.455,138.467,79.823,139.595,78.705z"/>
	</g>
	<g>
		<defs>
			<polygon id="SVGID_2458_" points="226.236,42.691 187.177,208.691 343.904,208.691 380.913,42.691 			"/>
		</defs>
		<clipPath id="SVGID_12_">
			<use xlink:href="#SVGID_2458_"  overflow="visible"/>
		</clipPath>
		<g clip-path="url(#SVGID_12_)">
			<path fill="#7E6B71" d="M244.212,111.312c0,0-13.735-2.371-11.16,9.361c0,0-2.862,13.735,12.591,10.301"/>
			<path fill="#B7AEB1" d="M251.003,135.337l-1.447,7.326l8.229,3.865c0,0,6.407-0.541,8.764-2.646
				c2.403-2.146,1.219-7.961,1.219-7.961s-4.019,1.171-5.814,1.662c-3.351,0.918-6.011-1.25-7.768-2.251
				C253.238,134.793,251.003,135.337,251.003,135.337z"/>
			<path fill="#B7AEB1" d="M272.539,115.255c-1.099-2.621-2.792-5.387-5.434-8.318c0,0-19.406-7.829-22.892,17.884
				c-0.42,3.101,2.668,5.9,6.791,10.515c3.023,3.384,6.824,6.082,10.95,5.236C261.954,140.573,279.057,130.8,272.539,115.255z"/>
			<path fill="#B7AEB1" d="M237.935,189.814c0,0,0.337,14.971-4.241,15.258c0,0,0.191,2.947,9.093,1.803
				c8.902-1.145,7.893-19.12,7.893-19.12L237.935,189.814L237.935,189.814z"/>
			<path fill="#855914" d="M233.693,205.071c0,0-2.61,4.308-2.037,19.76c0.572,15.452-0.038,22.892-0.038,22.892l49.346,6.525
				c0,0,7.604-36.096-1.266-47.128L233.693,205.071z"/>
			<path fill="#A39197" d="M268.894,140.729l7.228,11.468c6.905-3.002,12.413-6.26,16.909-9.534l-11.07-10.994L268.894,140.729z"/>
			<path fill="#B7AEB1" d="M311.689,117.779c-2.575-11.732-35.761-21.599-35.761-21.599l-2.402,2.591l22.606,21.775l-14.17,11.123
				l11.07,10.994C309.963,130.335,311.689,117.779,311.689,117.779z"/>
			<path fill="#B7AEB1" d="M234.197,136.697c-0.858-6.581-17.045-18.803-17.045-18.803c6.581-4.292,17.777-25.138,17.777-25.138
				s6.295-9.443-2.003-6.295c-1.115,0.423-2.456,1.299-3.941,2.498c-9.564,7.722-25.12,28.853-25.12,28.853
				c-0.38,9.315,12.704,22.345,21.546,30.064l8.892-11.13C234.261,136.725,234.197,136.697,234.197,136.697z"/>
			<path fill="#A39197" d="M225.412,147.875c4.467,3.9,7.871,6.468,7.871,6.468l4.222,34.719c0.858,3.434,14.334-1.308,14.334-1.308
				c8.298-8.012,5.946-41.226,5.946-41.226c-7.983-5.505-22.382-9.293-23.481-9.784L225.412,147.875z"/>
			<path opacity="0.2" fill="#7E6B71" d="M230.395,82.557c0,0-2.443-8.218,4.442-7.33c0,0,1.37-4.738,4.35-2.961
				c0,0-1.684-4.22,1.721-4.812c0,0,4.59-0.444,5.775,4.22c0,0-2.887-2.517,1.555-3.184c0,0,1.925-2.887,6.145-0.296
				c0,0,3.924-3.036,7.256,0.592c0,0,0.888-2.675,4.96-1.782c0,0,2.147-0.513,1.333,3.707c0,0,2.082-2.517,5.594,1.481
				c0,0,1.958-2.665,5.511,1.925c0,0,6.145-2.443,5.701,2.221c0,0,1.777-1.481,1.111,2.443c0,0,2.446,0.631,0.15,2.981l-6.665,4.056
				l-13.549,1.773l-12.882,0.592l-15.326-1.999L230.395,82.557z"/>
			<path fill="#7E6B71" d="M257.785,146.528c0,0-1.397,46.22-28.146,62.531c0,0,11.14,43.242,46.05,27.218
				c0,0-1.669,3.826,8.614-56.923c0,0,1.102-39.793-16.353-38.649C267.95,140.705,267.825,145.988,257.785,146.528z"/>
			<path opacity="0.4" fill="#B7AEB1" d="M258.909,145.988c0,0,8.704,43.424-5.289,59.083c0,0,12.79-9.994,10.235-44.5
				c0,0-0.415-13.979-1.331-14.043"/>
			<path fill="#A39197" d="M261.951,146.38c0,0,2.824,23.635,2.098,31.807c0,0,2.457-21.358-0.406-32.2L261.951,146.38z"/>
			<path fill="#A39197" d="M268.894,140.729c0,0,13.273,36.187-2.345,68.694c0,0,15.618-25.062,11.26-50.305
				c0,0-1.554-17.492-5.234-17.941L268.894,140.729z"/>
			<path opacity="0.4" fill="#B7AEB1" d="M264.156,145.468c0,0,13.273,36.187-2.345,68.694c0,0,15.618-25.062,11.26-50.305
				c0,0-0.496-22.679-4.176-23.128L264.156,145.468z"/>
			<path fill="#7E6B71" d="M257.09,118.383c0,0-3.105-3.235-7.534-0.775c0,0,6.228-0.098,6.45,1.28
				C256.228,120.266,257.09,118.383,257.09,118.383z"/>
			<path fill="#7E6B71" d="M263.771,118.383c0,0,3.105-3.235,7.534-0.775c0,0-6.228-0.098-6.45,1.28
				C264.634,120.266,263.771,118.383,263.771,118.383z"/>
			<path fill="#7E6B71" d="M267.104,106.937c2.642,2.931,4.335,5.697,5.434,8.318l0.036-0.034c0,0-0.319-17.727-19.491-11.431
				c0,0-19.744,8.871-7.44,27.184l5.36,4.364l0,0c-4.123-4.615-6.791-10.515-6.791-10.515
				C253.369,100.356,267.104,106.937,267.104,106.937z"/>
			<path fill="#B7AEB1" d="M264.299,101.344c0.278-0.234,0.453-0.484,0.453-0.747c0-1.202-3.151-2.177-7.037-2.177
				c-3.887,0-7.037,0.974-7.037,2.177c0,0.264,0.175,0.513,0.453,0.747c-0.278,0.234-0.453,0.483-0.453,0.747
				c0,1.202,3.151,2.177,7.037,2.177c3.887,0,7.037-0.974,7.037-2.177C264.752,101.827,264.577,101.578,264.299,101.344z"/>
			<path fill="#7E6B71" d="M228.322,80.262c0,0,0.384,0.131,1.084,0.353c4.345,1.382,20.846,6.294,32.899,5.273
				c0,0,13.401,0.592,25.469-4.886c0,0-5.701,21.693-25.617,21.026C262.157,102.029,231.728,104.916,228.322,80.262z"/>
		</g>
	</g>
	<g>
		<path fill="#7E6B71" d="M287.658,97.853c-0.265-0.309-0.677-0.456-1.167-0.486c-0.002,1.244-1.043,3.015-2.768,4.498
			c-1.629,1.4-3.413,2.147-4.644,2.072c-0.001,0.399,0.101,0.746,0.327,1.008c0.931,1.083,3.532,0.373,5.811-1.585
			C287.496,101.401,288.589,98.936,287.658,97.853z"/>
		<path opacity="0.5" fill="#5A3B00" d="M283.722,101.865c1.726-1.483,2.767-3.254,2.768-4.498
			c-1.231-0.075-3.015,0.672-4.644,2.072c-1.726,1.483-2.767,3.254-2.768,4.498C280.309,104.012,282.093,103.265,283.722,101.865z"
			/>
	</g>
	<g>
		<path fill="#A39197" d="M286.163,96.358c-0.265-0.309-0.677-0.456-1.167-0.486c-0.002,1.244-1.043,3.015-2.768,4.498
			c-1.629,1.4-3.413,2.147-4.644,2.072c-0.001,0.399,0.101,0.746,0.327,1.008c0.931,1.083,3.532,0.373,5.811-1.585
			C286.001,99.907,287.094,97.441,286.163,96.358z"/>
		<path opacity="0.2" fill="#B7AEB1" d="M282.228,100.37c1.726-1.483,2.767-3.254,2.768-4.498c-1.231-0.075-3.015,0.672-4.644,2.072
			c-1.726,1.483-2.767,3.254-2.768,4.498C278.814,102.517,280.599,101.77,282.228,100.37z"/>
	</g>
	<g>
		<path fill="#7E6B71" d="M235.825,99.353c0.28-0.337,0.363-0.801,0.307-1.328c-1.322,0.221-3.391-0.567-5.277-2.134
			c-1.78-1.48-2.894-3.241-3.035-4.562c-0.424,0.071-0.774,0.242-1.013,0.529c-0.984,1.183,0.238,3.82,2.728,5.89
			C232.026,99.817,234.842,100.536,235.825,99.353z"/>
		<path opacity="0.5" fill="#5A3B00" d="M230.856,95.891c1.886,1.567,3.954,2.356,5.277,2.134c-0.141-1.321-1.255-3.083-3.035-4.562
			c-1.886-1.567-3.954-2.355-5.277-2.134C227.962,92.65,229.076,94.411,230.856,95.891z"/>
	</g>
	<path opacity="0.2" fill="#7E6B71" d="M234.487,154.121c0,0,5.038,6.362,8.414,14.807c3.116,7.795,5.162,18.893,5.218,21.165
		c0.107,4.382-3.555,13.001-6.201,15.042c0,0-9.134,0.456-6.731-0.064c5.295-1.146,4.01-15.659,4.01-15.659l-1.587-13.908
		L234.487,154.121z"/>
	<g>
		<path fill="#A39197" d="M237.145,97.496c0.28-0.337,0.363-0.801,0.307-1.328c-1.322,0.221-3.391-0.567-5.277-2.134
			c-1.78-1.48-2.894-3.241-3.035-4.562c-0.424,0.071-0.774,0.242-1.013,0.529c-0.984,1.183,0.238,3.82,2.728,5.89
			C233.346,97.961,236.161,98.68,237.145,97.496z"/>
		<path opacity="0.2" fill="#B7AEB1" d="M232.175,94.035c1.886,1.567,3.954,2.356,5.277,2.134c-0.141-1.321-1.255-3.083-3.035-4.562
			c-1.886-1.567-3.954-2.355-5.277-2.134C229.282,90.793,230.395,92.555,232.175,94.035z"/>
	</g>
	<path fill="#B7AEB1" d="M231.308,78.42c0,0-2.234,4.828,0.667,10.538c2.901,5.71,5.389,4.811,5.389,4.811l-1.809-13.649
		C235.556,80.12,235.626,77.061,231.308,78.42z"/>
	<path opacity="0.2" fill="#7E6B71" d="M253.992,135.337c0,0,5.833,5.994,9.676,5.382c0,0-7.308,1.486-10.362-1.909L253.992,135.337
		z"/>
	<path opacity="0.2" fill="#7E6B71" d="M297.626,120.546c0,0-13.35,31.781-19.175,24.453c-2.904-3.653-5.905-4.082-5.905-4.082
		l-2.299-0.046l13.232-9.166L297.626,120.546z"/>
	<path fill="#5A3B00" d="M239.105,176.109"/>
	<path opacity="0.2" fill="#7E6B71" d="M234.654,138.177c0,0,20.763,8.087,23.975,15.944l0.651-7.593c0,0-8.765-4.578-11.807-5.839
		c-2.873-1.191-11.78-3.992-11.78-3.992L234.654,138.177z"/>
	<g>
		<defs>
			<polygon id="SVGID_2460_" points="226.236,42.691 187.177,208.691 343.904,208.691 380.913,42.691 			"/>
		</defs>
		<clipPath id="SVGID_14_">
			<use xlink:href="#SVGID_2460_"  overflow="visible"/>
		</clipPath>
		<g clip-path="url(#SVGID_14_)">
			
				<linearGradient id="SVGID_16_" gradientUnits="userSpaceOnUse" x1="491.4674" y1="-825.5927" x2="534.0406" y2="-825.5927" gradientTransform="matrix(0.9597 0.281 -0.281 0.9597 -415.5709 701.4308)">
				<stop  offset="0" style="stop-color:#FFFFFF;stop-opacity:0"/>
				<stop  offset="1" style="stop-color:#7E6B71;stop-opacity:0.4"/>
			</linearGradient>
			<polygon fill="url(#SVGID_16_)" points="289.85,42.63 329.197,58.38 328.193,60.606 286.726,51.926 			"/>
			
				<linearGradient id="SVGID_17_" gradientUnits="userSpaceOnUse" x1="226.7769" y1="204.2658" x2="269.3501" y2="204.2658" gradientTransform="matrix(0.9989 -0.0476 0.0476 0.9989 49.2726 -127.5592)">
				<stop  offset="0" style="stop-color:#FFFFFF;stop-opacity:0"/>
				<stop  offset="1" style="stop-color:#7E6B71;stop-opacity:0.4"/>
			</linearGradient>
			<polygon fill="url(#SVGID_17_)" points="285.668,60.767 328.001,62.812 327.779,65.244 285.749,70.574 			"/>
			
				<linearGradient id="SVGID_19_" gradientUnits="userSpaceOnUse" x1="-247.8329" y1="964.9844" x2="-205.2598" y2="964.9844" gradientTransform="matrix(0.9468 -0.3218 0.3218 0.9468 212.2698 -912.2336)">
				<stop  offset="0" style="stop-color:#FFFFFF;stop-opacity:0"/>
				<stop  offset="1" style="stop-color:#7E6B71;stop-opacity:0.4"/>
			</linearGradient>
			<polygon fill="url(#SVGID_19_)" points="286.916,76.413 328.166,66.679 328.624,69.078 289.704,85.814 			"/>
			
				<linearGradient id="SVGID_21_" gradientUnits="userSpaceOnUse" x1="-914.1788" y1="1564.9264" x2="-871.6057" y2="1564.9264" gradientTransform="matrix(0.821 -0.5709 0.5709 0.821 152.0824 -1711.3953)">
				<stop  offset="0" style="stop-color:#FFFFFF;stop-opacity:0"/>
				<stop  offset="1" style="stop-color:#7E6B71;stop-opacity:0.4"/>
			</linearGradient>
			<polygon fill="url(#SVGID_21_)" points="292.439,91.104 329.393,70.35 330.496,72.529 297.717,99.369 			"/>
			
				<linearGradient id="SVGID_23_" gradientUnits="userSpaceOnUse" x1="-1720.3654" y1="1957.368" x2="-1677.7922" y2="1957.368" gradientTransform="matrix(0.6313 -0.7755 0.7755 0.6313 -126.6021 -2462.8052)">
				<stop  offset="0" style="stop-color:#FFFFFF;stop-opacity:0"/>
				<stop  offset="1" style="stop-color:#7E6B71;stop-opacity:0.4"/>
			</linearGradient>
			<polygon fill="url(#SVGID_23_)" points="301.807,103.696 331.587,73.539 333.249,75.328 309.163,110.181 			"/>
			<linearGradient id="SVGID_25_" gradientUnits="userSpaceOnUse" x1="314.2897" y1="96.7038" x2="336.6683" y2="96.7038">
				<stop  offset="0" style="stop-color:#FFFFFF;stop-opacity:0"/>
				<stop  offset="1" style="stop-color:#7E6B71;stop-opacity:0.4"/>
			</linearGradient>
			<polygon fill="url(#SVGID_25_)" points="314.29,113.21 334.576,75.998 336.668,77.258 323.152,117.41 			"/>
			
				<linearGradient id="SVGID_27_" gradientUnits="userSpaceOnUse" x1="-3495.1147" y1="2016.0365" x2="-3452.5415" y2="2016.0365" gradientTransform="matrix(0.1229 -0.9924 0.9924 0.1229 -1237.3201 -3596.5654)">
				<stop  offset="0" style="stop-color:#FFFFFF;stop-opacity:0"/>
				<stop  offset="1" style="stop-color:#7E6B71;stop-opacity:0.4"/>
			</linearGradient>
			<polygon fill="url(#SVGID_27_)" points="328.915,118.904 338.129,77.535 340.488,78.167 338.593,120.491 			"/>
			
				<linearGradient id="SVGID_29_" gradientUnits="userSpaceOnUse" x1="-4325.459" y1="1677.6941" x2="-4282.8857" y2="1677.6941" gradientTransform="matrix(-0.1561 -0.9877 0.9877 -0.1561 -1982.8501 -3890.6179)">
				<stop  offset="0" style="stop-color:#FFFFFF;stop-opacity:0"/>
				<stop  offset="1" style="stop-color:#7E6B71;stop-opacity:0.4"/>
			</linearGradient>
			<polygon fill="url(#SVGID_29_)" points="344.545,120.334 341.968,78.03 344.409,77.986 354.284,119.185 			"/>
			
				<linearGradient id="SVGID_31_" gradientUnits="userSpaceOnUse" x1="-5029.9717" y1="1123.0691" x2="-4987.3984" y2="1123.0691" gradientTransform="matrix(-0.423 -0.9061 0.9061 -0.423 -2780.6077 -3967.1997)">
				<stop  offset="0" style="stop-color:#FFFFFF;stop-opacity:0"/>
				<stop  offset="1" style="stop-color:#7E6B71;stop-opacity:0.4"/>
			</linearGradient>
			<polygon fill="url(#SVGID_31_)" points="359.961,117.39 345.794,77.445 348.128,76.728 369.004,113.594 			"/>
			
				<linearGradient id="SVGID_33_" gradientUnits="userSpaceOnUse" x1="-5553.7852" y1="395.3557" x2="-5511.2119" y2="395.3557" gradientTransform="matrix(-0.6569 -0.754 0.754 -0.6569 -3568.4631 -3820.3464)">
				<stop  offset="0" style="stop-color:#FFFFFF;stop-opacity:0"/>
				<stop  offset="1" style="stop-color:#7E6B71;stop-opacity:0.4"/>
			</linearGradient>
			<polygon fill="url(#SVGID_33_)" points="373.964,110.3 349.31,75.825 351.355,74.491 381.605,104.153 			"/>
			
				<linearGradient id="SVGID_35_" gradientUnits="userSpaceOnUse" x1="-5856.1045" y1="-448.7713" x2="-5813.5312" y2="-448.7713" gradientTransform="matrix(-0.8397 -0.5431 0.5431 -0.8397 -4285.0576 -3461.4951)">
				<stop  offset="0" style="stop-color:#FFFFFF;stop-opacity:0"/>
				<stop  offset="1" style="stop-color:#7E6B71;stop-opacity:0.4"/>
			</linearGradient>
			<polygon fill="url(#SVGID_35_)" points="385.461,99.616 352.241,73.297 353.838,71.45 391.107,91.597 			"/>
			
				<linearGradient id="SVGID_37_" gradientUnits="userSpaceOnUse" x1="-5913.3843" y1="-1343.5709" x2="-5870.811" y2="-1343.5709" gradientTransform="matrix(-0.9571 -0.2899 0.2899 -0.9571 -4874.5825 -2918.5933)">
				<stop  offset="0" style="stop-color:#FFFFFF;stop-opacity:0"/>
				<stop  offset="1" style="stop-color:#7E6B71;stop-opacity:0.4"/>
			</linearGradient>
			<polygon fill="url(#SVGID_37_)" points="393.559,86.172 354.359,70.058 355.384,67.841 396.769,76.905 			"/>
			
				<linearGradient id="SVGID_38_" gradientUnits="userSpaceOnUse" x1="-5721.1646" y1="-2219.3555" x2="-5678.5913" y2="-2219.3555" gradientTransform="matrix(-0.9999 -0.0141 0.0141 -0.9999 -5291.1255 -2233.9226)">
				<stop  offset="0" style="stop-color:#FFFFFF;stop-opacity:0"/>
				<stop  offset="1" style="stop-color:#7E6B71;stop-opacity:0.4"/>
			</linearGradient>
			<polygon fill="url(#SVGID_38_)" points="397.626,71.013 355.5,66.359 355.872,63.945 398.15,61.22 			"/>
			
				<linearGradient id="SVGID_39_" gradientUnits="userSpaceOnUse" x1="-5294.4146" y1="-3007.9187" x2="-5251.8413" y2="-3007.9187" gradientTransform="matrix(-0.9649 0.2627 -0.2627 -0.9649 -5502.2456 -1460.8053)">
				<stop  offset="0" style="stop-color:#FFFFFF;stop-opacity:0"/>
				<stop  offset="1" style="stop-color:#7E6B71;stop-opacity:0.4"/>
			</linearGradient>
			<polygon fill="url(#SVGID_39_)" points="397.346,55.32 355.574,62.489 355.265,60.067 395.144,45.764 			"/>
			
				<linearGradient id="SVGID_40_" gradientUnits="userSpaceOnUse" x1="-4666.3706" y1="-3647.8467" x2="-4623.7974" y2="-3647.8467" gradientTransform="matrix(-0.8547 0.5191 -0.5191 -0.8547 -5491.501 -659.4525)">
				<stop  offset="0" style="stop-color:#FFFFFF;stop-opacity:0"/>
				<stop  offset="1" style="stop-color:#7E6B71;stop-opacity:0.4"/>
			</linearGradient>
			<polygon fill="url(#SVGID_40_)" points="392.741,40.316 354.576,58.749 353.609,56.507 387.983,31.741 			"/>
			
				<linearGradient id="SVGID_41_" gradientUnits="userSpaceOnUse" x1="-3885.9446" y1="-4089.3015" x2="-3843.3713" y2="-4089.3015" gradientTransform="matrix(-0.678 0.7351 -0.7351 -0.678 -5259.7285 107.7264)">
				<stop  offset="0" style="stop-color:#FFFFFF;stop-opacity:0"/>
				<stop  offset="1" style="stop-color:#7E6B71;stop-opacity:0.4"/>
			</linearGradient>
			<polygon fill="url(#SVGID_41_)" points="384.168,27.169 352.583,55.431 351.035,53.543 377.226,20.243 			"/>
			
				<linearGradient id="SVGID_42_" gradientUnits="userSpaceOnUse" x1="-3013.9165" y1="-4297.9028" x2="-2971.3435" y2="-4297.9028" gradientTransform="matrix(-0.4484 0.8938 -0.8938 -0.4484 -4824.978 780.9829)">
				<stop  offset="0" style="stop-color:#FFFFFF;stop-opacity:0"/>
				<stop  offset="1" style="stop-color:#7E6B71;stop-opacity:0.4"/>
			</linearGradient>
			<polygon fill="url(#SVGID_42_)" points="372.296,16.903 349.751,52.792 347.741,51.406 363.71,12.165 			"/>
			
				<linearGradient id="SVGID_43_" gradientUnits="userSpaceOnUse" x1="-2118.2007" y1="-4257.4038" x2="-2075.6274" y2="-4257.4038" gradientTransform="matrix(-0.184 0.9829 -0.9829 -0.184 -4221.1094 1307.8835)">
				<stop  offset="0" style="stop-color:#FFFFFF;stop-opacity:0"/>
				<stop  offset="1" style="stop-color:#7E6B71;stop-opacity:0.4"/>
			</linearGradient>
			<polygon fill="url(#SVGID_43_)" points="358.05,10.318 346.3,51.039 343.985,50.262 348.489,8.136 			"/>
			
				<linearGradient id="SVGID_44_" gradientUnits="userSpaceOnUse" x1="-1268.5555" y1="-3970.9595" x2="-1225.9823" y2="-3970.9595" gradientTransform="matrix(0.0948 0.9955 -0.9955 0.0948 -3495.1509 1647.3928)">
				<stop  offset="0" style="stop-color:#FFFFFF;stop-opacity:0"/>
				<stop  offset="1" style="stop-color:#7E6B71;stop-opacity:0.4"/>
			</linearGradient>
			<polygon fill="url(#SVGID_44_)" points="342.538,7.925 342.499,50.308 340.06,50.201 332.747,8.471 			"/>
			
				<linearGradient id="SVGID_45_" gradientUnits="userSpaceOnUse" x1="-531.1521" y1="-3460.8777" x2="-488.5789" y2="-3460.8777" gradientTransform="matrix(0.3662 0.9305 -0.9305 0.3662 -2703.6416 1773.0698)">
				<stop  offset="0" style="stop-color:#FFFFFF;stop-opacity:0"/>
				<stop  offset="1" style="stop-color:#7E6B71;stop-opacity:0.4"/>
			</linearGradient>
			<polygon fill="url(#SVGID_45_)" points="326.969,9.913 338.644,50.656 336.27,51.227 317.71,13.143 			"/>
			
				<linearGradient id="SVGID_46_" gradientUnits="userSpaceOnUse" x1="36.5803" y1="-2766.884" x2="79.1535" y2="-2766.884" gradientTransform="matrix(0.6091 0.7931 -0.7931 0.6091 -1908.224 1675.1266)">
				<stop  offset="0" style="stop-color:#FFFFFF;stop-opacity:0"/>
				<stop  offset="1" style="stop-color:#7E6B71;stop-opacity:0.4"/>
			</linearGradient>
			<polygon fill="url(#SVGID_46_)" points="312.556,16.125 335.035,52.055 332.911,53.26 304.55,21.788 			"/>
			
				<linearGradient id="SVGID_47_" gradientUnits="userSpaceOnUse" x1="390.4265" y1="-1943.0272" x2="432.9996" y2="-1943.0272" gradientTransform="matrix(0.8046 0.5939 -0.5939 0.8046 -1170.8458 1361.1912)">
				<stop  offset="0" style="stop-color:#FFFFFF;stop-opacity:0"/>
				<stop  offset="1" style="stop-color:#7E6B71;stop-opacity:0.4"/>
			</linearGradient>
			<polygon fill="url(#SVGID_47_)" points="300.421,26.078 331.953,54.397 330.246,56.143 294.291,33.733 			"/>
		</g>
	</g>
	<path fill="#7E6B71" d="M259.652,131.969c0,0,4.139,4.35,8.277,0"/>
	<g>
		<defs>
			<polygon id="SVGID_2484_" points="504.289,42.691 380.913,42.691 343.904,208.691 504.289,208.691 			"/>
		</defs>
		<clipPath id="SVGID_48_">
			<use xlink:href="#SVGID_2484_"  overflow="visible"/>
		</clipPath>
		<g clip-path="url(#SVGID_48_)">
			<ellipse opacity="0.5" fill="#7E6B71" cx="434.659" cy="129.466" rx="22.08" ry="2.118"/>
			<ellipse opacity="0.5" fill="#7E6B71" cx="362.911" cy="187.813" rx="18.505" ry="3.04"/>
			<ellipse opacity="0.4" fill="#7E6B71" cx="389.356" cy="208.621" rx="18.865" ry="2.763"/>
			<ellipse opacity="0.3" fill="#B07E09" cx="421.941" cy="218.205" rx="16.695" ry="2.445"/>
			<ellipse opacity="0.3" fill="#B07E09" cx="465.456" cy="212.454" rx="23.791" ry="2.445"/>
			<path fill="#B7AEB1" d="M401.399,62.05c0,0-0.779,13.107,11.341,24.355c0,0,6.709,11.029,3.674,19.53
				c0,0-2.337,15.018-8.995,15.494l27.644,0.687c0,0-3.045-28.703-9.809-35.711c0.002-0.001-4.772-6.927-1.751-16.084
				c3.038-9.207,11.747-13.901,11.747-13.901s7.08-5.514,4.904-12.752c0,0-7.421,12.752-19.175,17.003c0,0-4.885,2.068-4.565,8.846
				c0,0-1.917,3.791-7.987-5.514c0,0-4.479-12.752,5.507-19.415"/>
			<path opacity="0.5" fill="#7E6B71" d="M387.289,125.975v30.669c0,0,51.497,9.985,84.561-1.448l-0.648-28.593
				C471.202,126.603,415.289,139.872,387.289,125.975z"/>
			<ellipse opacity="0.5" fill="#7E6B71" cx="427.869" cy="126.528" rx="42.283" ry="6.129"/>
			<path fill="#7E6B71" d="M423.688,83.449c4.188,1.149,7.431-3.378,7.431-3.378c-0.068,1.892-0.135,1.284,1.892,3.378
				c0.057,0.059,0.113,0.122,0.167,0.187c1.046,1.264,1.482,3.619,1.663,5.434c0.838-2.117,0.129-7.212,0.129-7.212
				c-1.273-6.609-10.587-2.173-10.587-2.173c-3.729,5.408-1.741,8.766-0.127,10.341C422.59,86.212,423.688,83.449,423.688,83.449z"
				/>
			<path fill="#B7AEB1" d="M434.841,89.07c-0.181-1.815-0.617-4.17-1.663-5.434c-0.054-0.065-0.11-0.128-0.167-0.187
				c-2.027-2.094-1.959-1.486-1.892-3.378c0,0-3.243,4.526-7.431,3.378c0,0-1.098,2.763,0.568,6.577
				c0.468,1.071,1.142,2.221,2.135,3.421c0,0,5.202,6.958,8.58-1.892C434.97,91.555,434.982,90.474,434.841,89.07z"/>
			<path opacity="0.5" fill="#7E6B71" d="M426.104,94.4c0,0-7.815,1.373-7.815,6.247v6.159c0,0,2.461,1.715,2.461,3.964l1.022,8.155
				c0,0,4.09,3.843,8.027,3.093c0,0,4.211-7.03,8.804-5.062l4.871-2.437l-1.22-12.936c0,0,0.561-6.468,4.78-4.406
				c0,0-3.908-5.571-11.126-5.008C435.906,92.171,432.279,101.022,426.104,94.4z"/>
			<path opacity="0.5" fill="#7E6B71" d="M443.469,114.521c0,0-5.905-18.95,1.031-18.474c0,0,3.562-1.694,7.874,12.983
				c0,0,4.874,9.334,1.312,9.146C453.686,118.176,450.968,109.552,443.469,114.521z"/>
			<path fill="#B7AEB1" d="M411.411,102.147c0,0-1.312,10.217,1.406,11.436c0,0,3.656,3.843,7.03-2.437c0,0,1.594-1.125-2.718-5.905
				l-3-4.031L411.411,102.147z"/>
			<path fill="#B7AEB1" d="M413.116,103.31c0,0-5.164-3.019-2.821-8.08c0,0,2.684-2.4,3.528-1.181l1.466,4.314v4.61L413.116,103.31z
				"/>
			<path fill="#7E6B71" d="M430.788,127.708l6.175-7.483l3.251-1.665l5.9-1.131l5.298-1.738h3.178c0,0,2.352,7.258-2.032,9.452
				l-9.875,6.266C442.684,131.409,441.421,125.498,430.788,127.708z"/>
			<path opacity="0.5" fill="#7E6B71" d="M413.935,113.798c0,0,4.236-5.819,4.249-7.315c0.024-2.833,7.63,11.485,2.402,11.696
				C415.357,118.391,413.935,113.798,413.935,113.798z"/>
			<path fill="#7E6B71" d="M407.943,117.333c0,0-3.239-7.311,6.395-3.375l7.258,3.835l8.187,4.226c0,0,0.571,4.408,3.284,3.846
				c0,0-3.148,1.403-2.588,9.09C430.479,134.955,411.786,127.831,407.943,117.333z"/>
			<g>
				<ellipse opacity="0.5" fill="#7E6B71" cx="496.009" cy="125.668" rx="14.5" ry="1.68"/>
				<ellipse opacity="0.5" fill="#7E6B71" cx="475.084" cy="119.689" rx="14.5" ry="1.68"/>
				<ellipse opacity="0.5" fill="#7E6B71" cx="469.105" cy="116.7" rx="14.5" ry="1.68"/>
				<ellipse fill="#B7AEB1" cx="374.942" cy="119.689" rx="14.5" ry="1.68"/>
				<ellipse fill="#B7AEB1" cx="392.878" cy="119.689" rx="14.5" ry="1.68"/>
				<g>
					<polygon fill="#B7AEB1" points="481.289,102.939 481.289,115.691 463.993,115.691 463.908,102.113 					"/>
					<polygon fill="#B7AEB1" points="456.289,115.691 456.289,104.434 465.247,103.744 465.835,115.691 					"/>
					<polygon fill="#7E6B71" points="453.898,103.691 461.814,98.16 467.81,103.691 456.623,103.691 					"/>
					<polygon fill="#7E6B71" points="461.814,98.902 476.899,98.42 483.269,104.434 465.363,104.094 					"/>
				</g>
				<g opacity="0.7">
					<polygon fill="#B7AEB1" points="489.289,105.928 489.289,118.691 472.961,118.691 472.392,105.107 					"/>
					<polygon fill="#B7AEB1" points="466.289,118.691 466.289,107.423 474.731,106.739 474.803,118.691 					"/>
					<polygon fill="#7E6B71" points="462.866,106.691 470.782,101.16 476.777,106.691 465.591,106.691 					"/>
					<polygon fill="#7E6B71" points="470.782,101.892 485.866,101.409 492.236,107.423 474.331,107.083 					"/>
				</g>
				<g opacity="0.5">
					<polygon fill="#7E6B71" points="385.289,107.423 385.289,118.691 368.335,118.691 368.08,106.602 					"/>
					<polygon fill="#7E6B71" points="361.289,118.691 361.289,107.423 369.919,106.739 370.177,118.691 					"/>
					<polygon opacity="0.5" fill="#7E6B71" points="358.24,106.691 366.157,101.16 372.152,106.691 360.966,106.691 					"/>
					<polygon opacity="0.5" fill="#7E6B71" points="366.157,101.892 381.241,101.409 387.611,107.423 369.705,107.083 					"/>
				</g>
				<g opacity="0.5">
					<polygon fill="#7E6B71" points="406.289,107.423 406.289,118.691 389.26,118.691 389.042,106.602 					"/>
					<polygon fill="#7E6B71" points="381.289,118.691 381.289,107.423 390.381,106.739 391.102,118.691 					"/>
					<polygon opacity="0.5" fill="#7E6B71" points="379.165,106.691 387.082,101.16 393.077,106.691 381.891,106.691 					"/>
					<polygon opacity="0.5" fill="#7E6B71" points="387.082,101.892 402.166,101.409 408.536,107.423 390.63,107.083 					"/>
				</g>
				<g opacity="0.9">
					<polygon fill="#B7AEB1" points="509.289,111.907 509.289,124.691 492.391,124.691 492.108,111.097 					"/>
					<polygon fill="#B7AEB1" points="485.289,124.691 485.289,113.402 493.947,112.728 494.233,124.691 					"/>
					<polygon fill="#7E6B71" points="482.296,113.691 490.213,108.16 496.208,113.691 485.022,113.691 					"/>
					<polygon fill="#7E6B71" points="490.213,107.87 505.297,107.388 511.667,113.402 493.761,113.062 					"/>
				</g>
			</g>
			<path fill="#B7AEB1" d="M446.624,112.794l-8.445,4.009c0,0-5.339-1.193-8.395,5.216c0,0-0.629,4.172,3.284,3.846l6.137-5.935
				c0,0,11.284-3.04,13.287-2.495C454.493,117.98,453.57,112.402,446.624,112.794z"/>
			<circle fill="none" stroke="#5A3B00" stroke-width="0.2" stroke-miterlimit="10" cx="425.254" cy="89.809" r="1.75"/>
			<circle fill="none" stroke="#5A3B00" stroke-width="0.2" stroke-miterlimit="10" cx="429.802" cy="88.758" r="1.75"/>
			<path fill="none" stroke="#5A3B00" stroke-width="0.2" stroke-miterlimit="10" d="M426.96,89.415c0,0,0.264-1.405,1.137-0.263"/>
			<path fill="none" stroke="#5A3B00" stroke-width="0.2" stroke-miterlimit="10" d="M431.507,88.364c0,0,3.074-4.836,3.687-3.048"
				/>
			<path fill="#7E6B71" d="M446.067,47.298c0,0,1.836-4.375,6.474-2.019c0,0,1.43,4.207-6.474,2.692"/>
			<path fill="#7E6B71" d="M444.764,50.095c0,0,4.593-1.189,5.528,3.928c0,0-2.481,3.686-6.064-3.52"/>
			<path fill="#7E6B71" d="M440.931,57.762c0,0,4.593-1.189,5.528,3.928c0,0-2.481,3.686-6.064-3.52"/>
			<path fill="#7E6B71" d="M440.036,60.305c0,0,3.534,3.166-0.21,6.778c0,0-4.443-0.025-0.427-6.998"/>
			<path fill="#7E6B71" d="M443.869,64.139c0,0,3.534,3.166-0.21,6.778c0,0-4.443-0.025-0.427-6.998"/>
			<path fill="#7E6B71" d="M446.511,63.749c0,0,4.475-1.578,5.844,3.44c0,0-2.156,3.885-6.343-2.988"/>
			<path fill="#7E6B71" d="M454.348,53.928c0,0,4.593-1.189,5.528,3.928c0,0-2.481,3.686-6.064-3.52"/>
			<path fill="#7E6B71" d="M453.453,56.472c0,0,3.534,3.166-0.21,6.778c0,0-4.443-0.025-0.427-6.998"/>
			<path fill="#7E6B71" d="M457.287,60.305c0,0,3.534,3.166-0.21,6.778c0,0-4.443-0.025-0.427-6.998"/>
			<path fill="#7E6B71" d="M459.929,59.915c0,0,4.475-1.578,5.844,3.44c0,0-2.156,3.885-6.343-2.988"/>
			<path fill="#7E6B71" d="M460.394,51.828c0,0,1.989-4.308,6.541-1.79c0,0,1.281,4.254-6.564,2.463"/>
			<path fill="#7E6B71" d="M461.795,54.131c0,0,4.688-0.729,5.112,4.455c0,0-2.834,3.422-5.685-4.103"/>
			<path fill="#7E6B71" d="M467.19,53.593c0,0,4.688-0.729,5.112,4.455c0,0-2.834,3.422-5.685-4.103"/>
			<path fill="#7E6B71" d="M468.562,51.302c0,0,1.613-4.462,6.363-2.343c0,0,1.64,4.129-6.329,3.016"/>
			<path fill="#7E6B71" d="M437.988,58.999c0,0-0.568,4.711-5.673,3.715c0,0-2.527-3.654,5.489-4.363"/>
			<path fill="#7E6B71" d="M446.409,55.743c0,0-4.237,2.136-6.235-2.667c0,0,1.643-4.128,6.672,2.155"/>
			<path fill="#7E6B71" d="M399.591,59.41c0,0-4.237,2.136-6.235-2.667c0,0,1.643-4.128,6.672,2.155"/>
			<path fill="#7E6B71" d="M398.991,62.012c0,0-0.162,4.742-5.334,4.187c0,0-2.831-3.424,5.095-4.817"/>
			<path fill="#7E6B71" d="M399.287,44.289c0,0,1.437,4.522-3.622,5.733c0,0-3.815-2.277,3.186-6.246"/>
			<path fill="#7E6B71" d="M392.215,68.942c0,0-2.97,3.7-6.779,0.159c0,0-0.216-4.438,6.965-0.806"/>
			<path fill="#7E6B71" d="M397.563,72.978c0,0-2.97,3.7-6.779,0.159c0,0-0.216-4.438,6.965-0.806"/>
			<path fill="#7E6B71" d="M398.095,75.595c0,0,1.819,4.382-3.118,6.022c0,0-3.996-1.942,2.639-6.495"/>
			<path fill="#7E6B71" d="M387.364,43.445c0,0,1.437,4.522-3.622,5.733c0,0-3.815-2.277,3.186-6.246"/>
			<path fill="#7E6B71" d="M387.765,65.109c0,0-2.97,3.7-6.779,0.159c0,0-0.216-4.438,6.965-0.806"/>
			<path fill="#7E6B71" d="M384.145,69.145c0,0-2.97,3.7-6.779,0.159c0,0-0.216-4.438,6.965-0.806"/>
			<path fill="#7E6B71" d="M384.678,71.762c0,0,1.819,4.382-3.118,6.022c0,0-3.996-1.942,2.639-6.495"/>
			<path fill="#7E6B71" d="M388.185,74.07c0,0-4.586,1.216-2.893,6.133c0,0,3.969,1.996,3.559-6.041"/>
			<path fill="#7E6B71" d="M390.667,81.069c0,0-1.527,4.492,3.506,5.805c0,0,3.86-2.2-3.059-6.309"/>
			<path fill="#7E6B71" d="M386.256,82.024c0,0-4.674,0.818-3.407,5.863c0,0,3.784,2.329,4.063-5.714"/>
			<path fill="#7E6B71" d="M378.14,70.675c0,0-4.406,1.76-5.98-3.198c0,0,1.996-3.97,6.46,2.726"/>
			<path fill="#7E6B71" d="M377.316,73.216c0,0-0.574,4.71-5.677,3.708c0,0-2.523-3.657,5.494-4.356"/>
			<path fill="#7E6B71" d="M379.233,76.951c0,0-4.591-1.199-5.536,3.916c0,0,2.473,3.691,6.071-3.507"/>
			<path fill="#7E6B71" d="M377.95,84.265c0,0-3.54,3.159,0.195,6.778c0,0,4.443-0.015,0.441-6.997"/>
			<path fill="#7E6B71" d="M373.64,82.926c0,0-4.471-1.588-5.851,3.427c0,0,2.148,3.889,6.349-2.974"/>
			<path fill="#7E6B71" d="M408.705,53.675c0,0-3.991,2.566-6.479-2.001c0,0,1.203-4.277,6.86,1.446"/>
			<path fill="#7E6B71" d="M408.759,50.979c0,0-4.347-1.902-1.921-6.503c0,0,4.228-1.366,2.594,6.514"/>
			<path fill="#7E6B71" d="M403.919,48.537c0,0-4.347-1.902-1.921-6.503c0,0,4.228-1.366,2.594,6.514"/>
			<path fill="#7E6B71" d="M414.983,63.186c0,0-3.756,2.899-6.627-1.439c0,0,0.833-4.364,6.959,0.854"/>
			<path fill="#7E6B71" d="M445.357,47.13c0,0-4.73,0.373-4.762-4.828c0,0,3.084-3.199,5.36,4.52"/>
			<path fill="#7E6B71" d="M394.843,51.847c0,0-4.638,1.001-5.364-4.149c0,0,2.629-3.582,5.915,3.763"/>
			<path fill="#7E6B71" d="M399.639,57.313c0,0-3.402-3.308,0.485-6.764c0,0,4.438,0.206,0.142,7.01"/>
			<path fill="#7E6B71" d="M432.855,68.057c0,0-4.535,1.395-5.699-3.675c0,0,2.312-3.794,6.216,3.243"/>
			<path fill="#7E6B71" d="M413.45,58.169c0,0,0.017-4.745,5.203-4.349c0,0,2.935,3.336-4.944,4.971"/>
			<path fill="#7E6B71" d="M415.683,59.681c0,0,3.96-2.614,6.503,1.924c0,0-1.153,4.291-6.877-1.365"/>
			<path fill="#7E6B71" d="M420.364,56.946c0,0,3.96-2.614,6.503,1.924c0,0-1.153,4.291-6.877-1.365"/>
			<path fill="#7E6B71" d="M414.908,52.375c0,0-0.39-4.729,4.811-4.779c0,0,3.21,3.072-4.501,5.376"/>
			<path fill="#7E6B71" d="M434.511,52.25c0,0,3.159-3.54-0.962-6.713c0,0-4.413,0.519,0.355,7.002"/>
			<path fill="#7E6B71" d="M430.186,46.719c0,0-1.198-4.591-6.122-2.916c0,0-2.011,3.962,6.027,3.582"/>
			<path fill="#7E6B71" d="M432.103,54.386c0,0-1.198-4.591-6.122-2.916c0,0-2.011,3.962,6.027,3.582"/>
			<path fill="#7E6B71" d="M431.742,44.548c0,0,3.451-3.256-0.384-6.77c0,0-4.441,0.139-0.246,7.007"/>
			<path fill="#7E6B71" d="M435.195,44.171c0,0,4.739-0.234,4.106-5.397c0,0-3.467-2.779-4.739,5.167"/>
			<path fill="#B07E09" d="M476.793,41.845c0,0,4.684,0.757,5.139-4.425c0,0-2.813-3.439-5.71,4.069"/>
			<path fill="#7E6B71" d="M449.792,50.376c0,0,2.766-3.855,6.761-0.524c0,0,0.455,4.42-6.911,1.181"/>
			<path fill="#7E6B71" d="M479.757,59.907c0,0,4.593-1.189,5.528,3.928c0,0-2.481,3.686-6.064-3.52"/>
			<path fill="#7E6B71" d="M478.862,62.45c0,0,3.534,3.166-0.21,6.778c0,0-4.443-0.025-0.427-6.998"/>
			<path fill="#7E6B71" d="M482.696,66.284c0,0,3.534,3.166-0.21,6.778c0,0-4.443-0.025-0.427-6.998"/>
			<path fill="#7E6B71" d="M485.338,65.894c0,0,4.475-1.578,5.844,3.44c0,0-2.156,3.885-6.343-2.988"/>
			<path fill="#7E6B71" d="M485.803,57.807c0,0,1.989-4.308,6.541-1.79c0,0,1.281,4.254-6.564,2.463"/>
			<path fill="#7E6B71" d="M487.204,60.11c0,0,4.688-0.729,5.112,4.455c0,0-2.834,3.422-5.685-4.103"/>
			<path fill="#7E6B71" d="M492.599,59.572c0,0,4.688-0.729,5.112,4.455c0,0-2.834,3.422-5.685-4.103"/>
			<path fill="#7E6B71" d="M493.971,57.28c0,0,1.613-4.462,6.363-2.343c0,0,1.64,4.129-6.329,3.016"/>
			<path fill="#7E6B71" d="M475.201,56.355c0,0,2.766-3.855,6.761-0.524c0,0,0.455,4.42-6.911,1.181"/>
			<path fill="#7E6B71" d="M491.715,40.476c0,0,4.593-1.189,5.528,3.928c0,0-2.481,3.686-6.064-3.52"/>
			<path fill="#7E6B71" d="M490.82,43.02c0,0,3.534,3.166-0.21,6.778c0,0-4.443-0.025-0.427-6.998"/>
			<path fill="#7E6B71" d="M494.653,46.853c0,0,3.534,3.166-0.21,6.778c0,0-4.443-0.025-0.427-6.998"/>
			<path fill="#7E6B71" d="M497.295,46.463c0,0,4.475-1.578,5.844,3.44c0,0-2.156,3.885-6.343-2.988"/>
			<path fill="#B07E09" d="M497.761,38.376c0,0,1.989-4.308,6.541-1.79c0,0,1.281,4.254-6.564,2.463"/>
			<path fill="#7E6B71" d="M499.162,40.68c0,0,4.688-0.729,5.112,4.455c0,0-2.834,3.422-5.685-4.103"/>
			<path fill="#B07E09" d="M504.556,40.141c0,0,4.688-0.729,5.112,4.455c0,0-2.834,3.422-5.685-4.103"/>
			<path fill="#B07E09" d="M505.928,37.85c0,0,1.613-4.462,6.363-2.343c0,0,1.64,4.129-6.329,3.016"/>
			<path fill="#B07E09" d="M487.158,36.925c0,0,2.766-3.855,6.761-0.524c0,0,0.455,4.42-6.911,1.181"/>
			<path fill="#B07E09" d="M446.362,42.299c0,0,0.752-4.685,5.814-3.49c0,0,2.382,3.75-5.655,4.144"/>
			<path fill="#7E6B71" d="M451.736,43.044c0,0,2.372-4.11,6.676-1.19c0,0,0.89,4.353-6.761,1.857"/>
			<path fill="#7E6B71" d="M456.27,46.787c0,0,1.878-3.255,5.287-0.942c0,0,0.705,3.447-5.354,1.471"/>
			<path fill="#7E6B71" d="M473.812,46.078c0,0,1.989-4.308,6.541-1.79c0,0,1.281,4.254-6.564,2.463"/>
			<path fill="#7E6B71" d="M480.608,47.843c0,0,4.688-0.729,5.112,4.455c0,0-2.834,3.422-5.685-4.103"/>
			<path fill="#7E6B71" d="M481.979,45.551c0,0,1.613-4.462,6.363-2.343c0,0,1.64,4.129-6.329,3.016"/>
			<path fill="#7E6B71" d="M463.21,44.626c0,0,2.766-3.855,6.761-0.524c0,0,0.455,4.42-6.911,1.181"/>
			<path fill="#B07E09" d="M461.808,42.492c0,0,0.443-4.724,5.573-3.864c0,0,2.623,3.586-5.371,4.506"/>
			<path fill="#B07E09" d="M469.688,41.037c0,0,1.878-3.255,5.287-0.942c0,0,0.705,3.447-5.354,1.471"/>
			<path fill="#7E6B71" d="M390.835,60.833c0,0-4.36,1.873-6.06-3.043c0,0,1.893-4.02,6.528,2.558"/>
			<path fill="#7E6B71" d="M390.292,56.03c0,0-4.667,0.853-5.229-4.318c0,0,2.742-3.496,5.793,3.95"/>
			<path fill="#7E6B71" d="M383.802,59.956c0,0-4.56,1.31-5.63-3.78c0,0,2.383-3.75,6.154,3.358"/>
			<path fill="#7E6B71" d="M383.138,54.114c0,0-3.612,1.037-4.459-2.994c0,0,1.887-2.97,4.874,2.66"/>
			<path fill="#472D02" d="M430.909,192.943c0,0,3.223-1.309,3.562,1.327l-1.282,2.509c0,0,3.268-0.152,0.006,2.717
				c0,0,3.905,0,1.868,2.674"/>
			<polygon fill="#BCAFB5" points="425.242,188.271 432.547,186.53 437.604,188.271 435.651,191.625 429.96,195.178 
				424.001,190.854 			"/>
			<polygon fill="#B7AEB1" points="458.424,158.691 458.623,164.66 461.698,169.691 466.091,169.691 468.743,167.534 
				468.243,158.691 			"/>
			<path fill="#5A3B00" d="M461.075,163.691c0,0-1.738-0.808-3.354-2.958c-1.958-2.605-3.735-6.569-2.023-12.049
				c0,0,8.877-9.751,14.754,0.877c0,0,2.126,13.13-5.376,14.13H461.075z"/>
			<path fill="#7E6B71" d="M466.289,209.635c0,0,3.103,4.063,9.229-4.251c6.126-8.315,2.614-8.127,2.614-8.127l-7.172,1.5
				l-4.671,11.87V209.635z"/>
			<path fill="#7E6B71" d="M439.266,198.704c0,0,1.111,5.742,4.104,5.256c2.993-0.485,3.068-7.77,3.068-7.77l0.485-3.5h-5.75
				L439.266,198.704z"/>
			<g>
				<path fill="#B7AEB1" d="M432.601,139.872c0,0-9.638-14.616,6.176-14.376c0,0,9.968,2.636,2.348,14.376
					C441.125,139.872,437.689,145.349,432.601,139.872z"/>
				<path fill="#BCAFB5" d="M434.314,140.468l-3.177,0.873l3.626,3.351h4.492l1.869-2.112c0,0-1.609-1.858-3.521-2.225
					C435.691,139.988,434.314,140.468,434.314,140.468z"/>
				<path fill="#B7AEB1" d="M417.133,157.282c0,0,4.792-16.373,11.9-15.893l4.313-0.012c0,0,0.455,26.905-7.372,29.221
					c0,0,2.58-12.518-8.841-12.837"/>
				<path fill="#7E6B71" d="M432.841,142.306c0,0,2.961,1.68,4.002,2.057c0,0-3.423,29.636-12.548,30.316l-1.219-2.269
					C423.076,172.409,433.383,170.304,432.841,142.306z"/>
				<polygon fill="#BCAFB5" points="450.074,160.82 449.708,161.868 446.051,172.658 442.797,173.979 443.606,170.603 
					443.994,168.985 445.196,161.937 446.124,158.691 448.84,158.691 				"/>
				<path fill="#B7AEB1" d="M446.124,161.835c0,0-1.597,9.185-9.983,14.296l-10.843-0.958l-1.297-0.639l5.691-6.309L446.124,161.835
					z"/>
				<path fill="#A39197" d="M435.063,153.529c0,0-3.051,11.362-4.78,13.308l15.841-5.002c0,0,2.556-2.795-1.118-11.341
					L435.063,153.529z"/>
				<path fill="#B7AEB1" d="M436.141,144.025c3.913,0.559,4.013-2.316,4.013-2.316c13.541,1.637,10.726,20.126,10.726,20.126
					l-2.592-1.358v-1.757c-3-4.792-12.843-4.752-12.843-4.752c0.622-0.678,0.652-6.36,0.816-9.622"/>
				<path fill="#7E6B71" d="M430.873,165.821c0,0,10.299-1.271,16.05-5.983l-1.075,3.144c0,0-12.692,6.871-17.564,6.312
					L430.873,165.821z"/>
				<path fill="#B07E09" d="M445.326,172.377c0,0,4.965-0.642,5.278,0.598s-6.822,2.112-7.807,0.997"/>
				<circle fill="#7E6B71" cx="436.141" cy="139.332" r="4.013"/>
				<polygon opacity="0.3" fill="#5A3B00" points="449.708,161.836 443.345,170.061 447.546,170.599 				"/>
			</g>
			<path fill="#855914" d="M475.508,208.272l0.651,4.034c0,0,0.982,0.911,2.899,0.651l8.423,0.047c0,0,3.975,0.062,0-3.04
				l-5.103-1.1l-1.144-2.674L475.508,208.272z"/>
			<path fill="#B07E09" d="M472.817,181.907l2.214,28.743c1-2.376,9.109-2.195,9.109-2.195c-2.501-3.876-4.073-33.918-4.073-33.918
				c0.125-7.877-11.493-9.954-11.493-9.954l-0.566,2.792l-5.005,1.891c-2.501-0.125-4.38-4.486-4.38-4.486l-9.796-0.469
				l-9.538,12.691v10.31l5.965,2.193l0.867-9.877l-3.88,24.256c0,0,5.374,10.503,10.375,10.252c0,0,11.002,5.001,19.379-9.252
				l5.501-6.377"/>
			<path opacity="0.3" fill="#5A3B00" d="M472.982,184.061c0,0,0.773,22.819-5.453,26.567c0,0,5.882-0.323,6.995-6.545
				L472.982,184.061z"/>
			<path opacity="0.3" fill="#5A3B00" d="M472.307,198.453c0,0-3.046,7.216-6.95,6.696c0,0,3.383,2.416,6.079-1.862L472.307,198.453
				z"/>
			<path opacity="0.3" fill="#5A3B00" d="M442.237,203.884c0,0,3.56,4.909,7.615,3.998c0,0-2.69,1.657-5.109,0.113
				C442.324,206.45,442.237,203.884,442.237,203.884z"/>
			<path opacity="0.3" fill="#5A3B00" d="M445.886,181.047c0,0-0.011,0.225-0.03,0.634c-0.17,3.785-0.952,23.311,0.849,25.854
				c0,0-5.542-3.25-5.683-5.367l4.852-20.897L445.886,181.047z"/>
			<path fill="#7E6B71" d="M461.075,163.691c0,0-1.738-0.808-3.354-2.958c-1.958-2.605-3.735-6.569-2.023-12.049
				c0,0,8.877-9.751,14.754,0.877c0,0,2.126,13.13-5.376,14.13H461.075z"/>
			<path fill="#7E6B71" d="M475.508,208.272l0.651,4.034c0,0,0.982,0.911,2.899,0.651l8.423,0.047c0,0,3.975,0.062,0-3.04
				l-5.103-1.1l-1.144-2.674L475.508,208.272z"/>
			<path fill="#A39197" d="M472.817,181.907l2.214,28.743c1-2.376,9.109-2.195,9.109-2.195c-2.501-3.876-4.073-33.918-4.073-33.918
				c0.125-7.877-11.493-9.954-11.493-9.954l-0.566,2.792l-5.005,1.891c-2.501-0.125-4.38-4.486-4.38-4.486l-9.796-0.469
				l-9.538,12.691v10.31l5.965,2.193l0.867-9.877l-3.88,24.256c0,0,5.374,10.503,10.375,10.252c0,0,11.002,5.001,19.379-9.252
				l5.501-6.377"/>
			<path fill="#7E6B71" d="M472.982,184.061c0,0,0.773,22.819-5.453,26.567c0,0,5.882-0.323,6.995-6.545L472.982,184.061z"/>
			<path opacity="0.3" fill="#7E6B71" d="M445.886,181.047c0,0-0.011,0.225-0.03,0.634c-0.17,3.785-0.952,23.311,0.849,25.854
				c0,0-5.542-3.25-5.683-5.367l4.852-20.897L445.886,181.047z"/>
			<g>
				<polygon fill="#B7AEB1" points="372.876,140.691 372.706,146.091 370.086,150.691 366.342,150.691 364.083,148.54 
					364.509,140.691 				"/>
				<path fill="#7E6B71" d="M365.629,146.071c0,0-1.322-1.003-2.348-3.052c-1.242-2.483-2.12-6.108,0.155-10.439
					c0,0,8.926-6.77,12.225,3.038c0,0-0.069,10.459-6.678,11.066L365.629,146.071z"/>
				<path fill="#B7AEB1" d="M358.318,184.346l-0.554,3.438c0,0-0.837,0.776-2.47,0.554l-7.177,0.04c0,0-3.388,0.052,0-2.59
					l4.348-0.937l0.975-2.279L358.318,184.346z"/>
				<path fill="#7E6B71" d="M360.612,161.881l-1.887,24.492c-0.852-2.024-7.762-1.871-7.762-1.871
					c2.131-3.303,3.47-28.902,3.47-28.902c-0.107-6.712,9.793-8.482,9.793-8.482l0.483,2.379l4.265,1.611
					c2.131-0.107,3.732-3.822,3.732-3.822l8.401-0.4l8.182,10.814v8.785l-5.137,1.869l-0.766-8.417l3.293,20.669
					c0,0-4.586,8.949-8.848,8.736c0,0-9.378,4.262-16.516-7.884l-4.689-5.433"/>
				<path opacity="0.7" fill="#7E6B71" d="M360.47,163.716c0,0-0.659,19.444,4.646,22.638c0,0-5.012-0.275-5.961-5.577
					L360.47,163.716z"/>
				<path opacity="0.4" fill="#7E6B71" d="M383.559,161.149c0,0,0.01,0.192,0.025,0.54c0.145,3.225,0.811,19.864-0.723,22.03
					c0,0,4.723-2.769,4.842-4.573l-4.134-17.806L383.559,161.149z"/>
			</g>
			<path opacity="0.3" fill="#5A3B00" d="M445.347,172.93c0,0,9.308,3.317,7.682,7.424c0,0,2.664-3.713,0.598-5.675L445.347,172.93z
				"/>
			<g>
				<g>
					<path fill="#7E6B71" d="M385.468,147.256c0,0-7.933,2.584-1.597,7.069l1.597,1.95"/>
					<polygon fill="#B7AEB1" points="389.759,146.818 395.537,146.221 403.482,147.973 399.861,151.757 390.951,152.171 					"/>
					<path fill="#B7AEB1" d="M411.895,149.025c0,0,7.6,0.888,8.314,2.316c0,0-0.429,2.703-1.571,3.851c0,0-4.714,0.28-5.286,0
						C412.781,154.913,411.895,149.025,411.895,149.025z"/>
					<polygon fill="#B7AEB1" points="398.407,159.519 405.712,157.778 410.769,159.519 408.816,162.873 403.125,166.426 
						397.166,162.102 					"/>
					<path fill="#B7AEB1" d="M405.065,165.056l2.804-10.265c0,0,10.603,1.551,8.889,8.979l-6.714,12c0,0,1.143,1.714-0.857,2.571
						c0,0,0.286,2.286-1.143,2.428L405.065,165.056z"/>
					<path fill="#855914" d="M385.473,174.912c0,0-0.429,12.285,6.571,11.428c0,0,10.148,2,14.288-3.571c0,0,3.997-4.714,2.283-6
						c0,0,1.389-3.06-0.806-3.387c0,0,0.7-1.555-0.48-1.327c-1.18,0.228-21.684-1.959-21.684-1.959L385.473,174.912z"/>
					<path fill="#B07E09" d="M385.759,170.77c0,0,9.858,5.756,20.391,1.514c0,0,3.869-0.345,0,2.366c0,0-13.436,10.173-20.682-1.267
						C385.468,173.382,384.316,170.787,385.759,170.77z"/>
					<path fill="#B7AEB1" d="M389.759,147.056c0,0,12.719,17.999,16.573,18.571c0,0-0.003,1.286-0.86,1.714c0,0,1.857,0,0.143,1.857
						c0,0,3.428,1.571,1.714,2.857c0,0-17.428,3.714-21.571-1.286c0,0-2.862-14.885-0.291-23.514L389.759,147.056z"/>
					<path fill="#7E6B71" d="M389.759,147.045c0,0,7.135,7.858,12.834,0.921c0,0,11.15-0.126,12.244,2.609
						c0,0,3.177,3.766-0.591,4.921c0,0-3.581,1.039-6.377,0.492l-1.878,6.548l-4.085-0.143
						C401.906,162.394,390.05,147.437,389.759,147.045z"/>
					<path fill="#A39197" d="M387.283,147.256c0,0,14.095,19.605,18.189,19.966c0,0,2.886,0.536-1-2.631l-14.714-17.773
						L387.283,147.256z"/>
				</g>
				<g>
					<path fill="#B7AEB1" d="M400.875,146.628c0,0,9.575-14.52-6.135-14.282c0,0-9.902,2.618-2.333,14.282
						C392.407,146.628,395.82,152.07,400.875,146.628z"/>
					<circle fill="#7E6B71" cx="397.358" cy="146.092" r="3.987"/>
				</g>
			</g>
			<g>
				<path fill="#7E6B71" d="M398.005,168.189c0,0,11.282-17.109-7.229-16.828c0,0-11.668,3.085-2.749,16.828
					C388.027,168.189,392.049,174.601,398.005,168.189z"/>
				<path fill="#BCAFB5" d="M395.999,168.887l3.719,0.452l-4.245,3.353h-5.259l-2.188-1.902c0,0,1.883-1.89,4.122-2.319
					C394.387,168.04,395.999,168.887,395.999,168.887z"/>
				<path fill="#A39197" d="M416.111,188.57c0,0-5.609-19.165-13.93-18.604l-5.048-0.014c0,0,0.125,35.257,12.021,36.325
					c0,0-6.412-16.772,6.957-17.146"/>
				<path fill="#7E6B71" d="M397.724,171.039c0,0-3.467,1.967-4.685,2.407c0,0,4.007,34.691,14.688,35.487l1.427-2.656
					C409.154,206.277,397.09,203.812,397.724,171.039z"/>
				<polygon fill="#B7AEB1" points="377.552,192.447 377.98,193.806 382.261,206.502 386.07,208.082 385.122,204.146 
					384.668,202.26 383.261,193.751 382.174,189.691 378.996,189.691 				"/>
				<path fill="#A39197" d="M382.174,193.898c0,0,1.87,10.751,11.686,16.735l12.692-1.122l1.518-0.748l-6.662-7.386L382.174,193.898
					z"/>
				<path fill="#B7AEB1" d="M395.123,184.176c0,0,3.571,13.301,5.595,15.579l-18.544-5.856c0,0-2.992-3.272,1.309-13.276
					L395.123,184.176z"/>
				<path fill="#A39197" d="M393.861,173.05c-4.581,0.654-4.698-2.711-4.698-2.711c-15.851,1.917-12.458,23.559-12.458,23.559
					l4.646-2.014l-0.188-1.899c1.917-5.609,14.155-5.104,14.155-5.104c-0.728-0.794-1.357-7.637-1.549-11.455"/>
				<path fill="#7E6B71" d="M400.027,198.565c0,0-12.056-1.488-18.787-7.004l1.258,3.681c0,0,14.857,8.044,20.56,7.389
					L400.027,198.565z"/>
				<path fill="#B7AEB1" d="M383.109,206.239c0,0-5.812-0.751-6.178,0.7s7.985,2.472,9.138,1.167"/>
				<circle fill="#B7AEB1" cx="393.861" cy="167.558" r="4.698"/>
			</g>
			<g>
				<g>
					<path fill="#7E6B71" d="M430.909,192.122l7.9-11.616c0,0,9.304,1.258,7.198,10.387l-8.251,14.746c0,0,1.404,2.107-1.053,3.16
						c0,0,0.351,2.809-1.404,2.984L430.909,192.122z"/>
					<path fill="#BCAFB5" d="M407.555,170.599c0,0-9.749,3.176-1.962,8.687l1.962,2.396"/>
					<path fill="#7E6B71" d="M407.561,204.586c0,0-0.527,15.098,8.075,14.044c0,0,12.471,2.458,17.558-4.389
						c0,0,4.912-5.793,2.806-7.373c0,0,1.706-3.761-0.99-4.163c0,0,0.86-1.911-0.59-1.631c-1.45,0.281-26.647-2.408-26.647-2.408
						L407.561,204.586z"/>
					<path fill="#B7AEB1" d="M407.912,199.495c0,0,12.115,7.074,25.059,1.861c0,0,4.754-0.424,0,2.907
						c0,0-16.511,12.502-25.416-1.557C407.555,202.706,406.139,199.517,407.912,199.495z"/>
					<path fill="#7E6B71" d="M412.827,170.354c0,0,15.63,22.12,20.367,22.822c0,0-0.003,1.58-1.056,2.107c0,0,2.282,0,0.176,2.282
						c0,0,4.213,1.931,2.107,3.511c0,0-21.417,4.564-26.509-1.58c0,0-3.517-18.293-0.357-28.897L412.827,170.354z"/>
					<polygon fill="#BCAFB5" points="412.827,170.061 419.928,169.327 429.693,171.481 425.242,176.131 414.293,176.64 					"/>
					<path fill="#BCAFB5" d="M444.742,172.774c0,0,2.065,0.241,4.344,0.679c2.568,0.494,5.408,1.237,5.873,2.167
						c0,0-0.527,3.322-1.931,4.733c0,0-5.793,0.344-6.495,0C445.831,180.009,444.742,172.774,444.742,172.774z"/>
					<path fill="#A39197" d="M412.827,170.585c0,0,8.768,9.535,15.772,1.01c0,0,18.413-0.215,19.758,3.145
						c0,0,3.904,4.597-0.726,6.016c0,0-4.62,1.293-8.056,0.621l-5.516,8.314h-6.304
						C427.755,189.691,413.185,171.066,412.827,170.585z"/>
					<path fill="#B7AEB1" d="M409.785,170.599c0,0,17.322,24.093,22.353,24.537c0,0,3.546,0.658-1.229-3.233l-18.082-21.842
						L409.785,170.599z"/>
				</g>
				<g>
					<path fill="#7E6B71" d="M426.489,169.828c0,0,11.767-17.844-7.54-17.551c0,0-12.169,3.218-2.867,17.551
						C416.082,169.828,420.277,176.515,426.489,169.828z"/>
					<circle fill="#B7AEB1" cx="422.166" cy="169.169" r="4.9"/>
				</g>
			</g>
		</g>
	</g>
	<circle fill="#A39197" cx="341.805" cy="64.161" r="15.27"/>
</g>
</svg>
