<?xml version="1.0" encoding="utf-8"?>
<!-- Generator: Adobe Illustrator 17.0.0, SVG Export Plug-In . SVG Version: 6.00 Build 0)  -->
<!DOCTYPE svg PUBLIC "-//W3C//DTD SVG 1.1//EN" "http://www.w3.org/Graphics/SVG/1.1/DTD/svg11.dtd">
<svg version="1.1" id="Layer_1" xmlns="http://www.w3.org/2000/svg" xmlns:xlink="http://www.w3.org/1999/xlink" x="0px" y="0px"
	 width="136.222px" height="115px" viewBox="0 0 136.222 115" enable-background="new 0 0 136.222 115" xml:space="preserve">
<g>
	<g>
		<defs>
			<rect id="SVGID_1141_" x="-159.356" y="189.516" width="130" height="115"/>
		</defs>
		<clipPath id="SVGID_2_">
			<use xlink:href="#SVGID_1141_"  overflow="visible"/>
		</clipPath>
		<g clip-path="url(#SVGID_2_)">
		</g>
	</g>
</g>
<g>
	<defs>
		<rect id="SVGID_1353_" x="-0.072" y="-0.147" width="136.579" height="115.205"/>
	</defs>
	<clipPath id="SVGID_4_">
		<use xlink:href="#SVGID_1353_"  overflow="visible"/>
	</clipPath>
	<g clip-path="url(#SVGID_4_)">
		<g>
			<g>
				<defs>
					<polygon id="SVGID_1355_" points="-0.356,-1.484 -0.356,124.516 80.675,124.516 110.409,-1.484 					"/>
				</defs>
				<clipPath id="SVGID_6_">
					<use xlink:href="#SVGID_1355_"  overflow="visible"/>
				</clipPath>
			</g>
			<g>
				<defs>
					<polygon id="SVGID_1357_" points="-1.356,-0.484 -1.356,117.516 136.22,117.516 136.338,-0.484 					"/>
				</defs>
				<clipPath id="SVGID_8_">
					<use xlink:href="#SVGID_1357_"  overflow="visible"/>
				</clipPath>
				<polygon opacity="0.3" clip-path="url(#SVGID_8_)" fill="#B2E9FF" points="-1.356,-2.484 -1.356,124.516 138.589,124.516 
					137.138,-2.484 				"/>
				<g clip-path="url(#SVGID_8_)">
					<defs>
						<polyline id="SVGID_1359_" points="12.644,124.516 140.643,124.516 140.569,-14.484 12.644,-14.484 						"/>
					</defs>
					<clipPath id="SVGID_10_">
						<use xlink:href="#SVGID_1359_"  overflow="visible"/>
					</clipPath>
				</g>
			</g>
		</g>
		<g>
			<defs>
				<polygon id="SVGID_1361_" points="-1.356,1.516 -1.356,119.516 136.22,119.516 135.735,1.516 				"/>
			</defs>
			<clipPath id="SVGID_12_">
				<use xlink:href="#SVGID_1361_"  overflow="visible"/>
			</clipPath>
		</g>
		<g>
			<defs>
				<polygon id="SVGID_1363_" points="-1.356,-0.484 -1.356,119.516 138.589,119.516 137.138,-0.484 				"/>
			</defs>
			<clipPath id="SVGID_14_">
				<use xlink:href="#SVGID_1363_"  overflow="visible"/>
			</clipPath>
			<ellipse opacity="0.3" clip-path="url(#SVGID_14_)" fill="#CCCCCC" cx="48.161" cy="104.545" rx="13.692" ry="2.132"/>
			<ellipse opacity="0.3" clip-path="url(#SVGID_14_)" fill="#CCCCCC" cx="77.373" cy="103.701" rx="9.821" ry="1.529"/>
			<path clip-path="url(#SVGID_14_)" fill="#00608B" d="M49.845,38.454c0-0.584,0-1.556,0-3.263c0-2.067-1.877-3.855-4.366-3.855
				c0,0-0.015,0-5.814,0l-0.032-1.814c0-0.521-0.425-0.947-0.948-0.947h-2.273v-1.165c0.197-0.116,0.36-0.263,0.498-0.441
				c0.683,0,2.064,0,4.841,0c0.324,0.416,0.803,0.704,1.369,0.704c0.964,0,1.749-0.782,1.749-1.749c0-0.968-0.785-1.752-1.749-1.752
				c-0.579,0-1.07,0.305-1.387,0.741c-0.765,0-2.196,0-4.8,0c-0.323-0.435-0.81-0.741-1.39-0.741c-0.577,0-1.07,0.305-1.387,0.741
				c-1.485,0-3.246,0-5.3,0c-0.317-0.435-0.806-0.741-1.383-0.741c-0.967,0-1.75,0.784-1.75,1.751c0,0.967,0.783,1.749,1.75,1.749
				c0.562,0,1.043-0.288,1.36-0.704c0.876,0,2.472,0,5.344,0c0.14,0.183,0.306,0.331,0.507,0.443v1.163H32.27
				c-0.521,0-0.946,0.425-0.946,0.947v1.814c-0.593,0-28.081,0-32.854,0v5.653c0.166,0,27.101,0,33.647,0
				c0.77,1.545,1.797,2.31,3.339,2.31c1.541,0,2.825-0.765,3.596-2.31c0,0,0,0,2.827,0c0.844,0,1.156,0.543,1.245,1.584
				c-0.247,0.168-0.417,0.442-0.417,0.765c0,0.523,0.425,0.948,0.946,0.948h5.866c0.523,0,0.947-0.425,0.947-0.948
				C50.468,38.928,50.209,38.587,49.845,38.454z"/>
			<polygon clip-path="url(#SVGID_14_)" fill="#9B9B9B" points="47.833,67.19 31.666,67.19 37.729,98.284 47.833,98.284 
				57.937,98.284 63.999,67.19 			"/>
			<path clip-path="url(#SVGID_14_)" fill="#CCCCCC" d="M64.383,65.839H47.833H31.282c-0.213,0-0.385,0.172-0.385,0.385
				c0,0.213,0.172,0.385,0.385,0.385h16.551h16.551c0.213,0,0.385-0.172,0.385-0.385C64.768,66.012,64.596,65.839,64.383,65.839z"/>
			<path clip-path="url(#SVGID_14_)" fill="#CCCCCC" d="M57.916,99.054H47.833H37.748c-0.212,0-0.385,0.172-0.385,0.385
				c0,0.213,0.172,0.385,0.385,0.385h10.084h10.084c0.213,0,0.385-0.172,0.385-0.385C58.301,99.227,58.129,99.054,57.916,99.054z"/>
			<path clip-path="url(#SVGID_14_)" fill="#CCCCCC" d="M57.916,103.381H47.833H37.748c-0.212,0-0.385,0.172-0.385,0.385
				c0,0.213,0.172,0.385,0.385,0.385h10.084h10.084c0.213,0,0.385-0.172,0.385-0.385C58.301,103.553,58.129,103.381,57.916,103.381z
				"/>
			<polygon clip-path="url(#SVGID_14_)" fill="#9B9B9B" points="47.833,100.433 37.825,100.433 37.825,102.801 47.833,102.801 
				57.84,102.801 57.84,100.433 			"/>
			<polygon clip-path="url(#SVGID_14_)" fill="#9B9B9B" points="76.91,76.882 65.319,76.882 69.666,99.175 76.91,99.175 
				84.154,99.175 88.5,76.882 			"/>
			<path clip-path="url(#SVGID_14_)" fill="#CCCCCC" d="M88.776,75.913H76.91H65.044c-0.153,0-0.276,0.124-0.276,0.276
				c0,0.153,0.123,0.276,0.276,0.276H76.91h11.866c0.153,0,0.276-0.123,0.276-0.276C89.052,76.037,88.929,75.913,88.776,75.913z"/>
			<path clip-path="url(#SVGID_14_)" fill="#CCCCCC" d="M84.14,99.727h-7.23h-7.23c-0.152,0-0.276,0.124-0.276,0.276
				c0,0.153,0.124,0.276,0.276,0.276h7.23h7.23c0.153,0,0.276-0.123,0.276-0.276C84.416,99.851,84.292,99.727,84.14,99.727z"/>
			<path clip-path="url(#SVGID_14_)" fill="#CCCCCC" d="M84.14,102.829h-7.23h-7.23c-0.152,0-0.276,0.124-0.276,0.276
				c0,0.153,0.124,0.276,0.276,0.276h7.23h7.23c0.153,0,0.276-0.123,0.276-0.276C84.416,102.952,84.292,102.829,84.14,102.829z"/>
			<polygon clip-path="url(#SVGID_14_)" fill="#9B9B9B" points="76.91,100.716 69.735,100.716 69.735,102.414 76.91,102.414 
				84.085,102.414 84.085,100.716 			"/>
			<path clip-path="url(#SVGID_14_)" fill="#0075A9" d="M46.481,42.197c0.349,0.697,1.918,4.358,1.918,4.883
				c0,2.872-3.836,2.872-3.836,0C44.564,46.554,46.134,42.719,46.481,42.197z"/>
			<path clip-path="url(#SVGID_14_)" fill="#0075A9" d="M46.482,51.158c0.223,0.445,1.225,2.782,1.225,3.117
				c0,1.833-2.449,1.833-2.449,0C45.258,53.94,46.26,51.491,46.482,51.158z"/>
			<path clip-path="url(#SVGID_14_)" fill="#0075A9" d="M46.482,58.684c0.154,0.308,0.848,1.927,0.848,2.159
				c0,1.27-1.696,1.27-1.696,0C45.634,60.611,46.328,58.916,46.482,58.684z"/>
		</g>
	</g>
</g>
</svg>
