<?xml version="1.0" encoding="utf-8"?>
<!-- Generator: Adobe Illustrator 17.0.0, SVG Export Plug-In . SVG Version: 6.00 Build 0)  -->
<!DOCTYPE svg PUBLIC "-//W3C//DTD SVG 1.1//EN" "http://www.w3.org/Graphics/SVG/1.1/DTD/svg11.dtd">
<svg version="1.1" id="Layer_1" xmlns="http://www.w3.org/2000/svg" xmlns:xlink="http://www.w3.org/1999/xlink" x="0px" y="0px"
	 width="1290px" height="474.998px" viewBox="0 0 1290 474.998" enable-background="new 0 0 1290 474.998" xml:space="preserve">
<g>
	<defs>
		<rect id="SVGID_765_" x="0.936" y="1.421" width="1289.064" height="473.576"/>
	</defs>
	<clipPath id="SVGID_2_">
		<use xlink:href="#SVGID_765_"  overflow="visible"/>
	</clipPath>
	<polygon opacity="0.2" clip-path="url(#SVGID_2_)" fill="#B2E9FF" points="371.761,-12.255 199.305,474.998 530.119,474.998 
		702.575,-12.255 	"/>
	<polygon opacity="0.2" clip-path="url(#SVGID_2_)" fill="#B2E9FF" points="-12.5,-12.255 -12.5,474.998 199.305,474.998 
		371.761,-12.255 	"/>
	<polygon opacity="0.2" clip-path="url(#SVGID_2_)" fill="#B2E9FF" points="849.992,474.998 1303.656,474.998 1303.656,-12.255 
		1022.448,-12.255 	"/>
	<polygon opacity="0.2" clip-path="url(#SVGID_2_)" fill="#B2E9FF" points="702.575,-12.255 530.119,474.998 849.992,474.998 
		1022.448,-12.255 	"/>
	<polygon clip-path="url(#SVGID_2_)" fill="none" points="371.048,-12.255 199.305,474.998 528.752,474.998 700.495,-12.255 	"/>
	<polygon clip-path="url(#SVGID_2_)" fill="#FFFFFF" points="1087.167,195.729 1087.254,195.621 1087.015,195.621 	"/>
	<polygon clip-path="url(#SVGID_2_)" fill="#FFFFFF" points="1087.015,195.917 1087.167,195.729 1087.015,195.621 	"/>
	<polygon clip-path="url(#SVGID_2_)" fill="none" points="702.575,-12.255 530.119,474.998 849.992,474.998 1022.448,-12.255 	"/>
	
		<line clip-path="url(#SVGID_2_)" fill="none" stroke="#FFFFFF" stroke-width="3" stroke-miterlimit="10" x1="1029.653" y1="-32.178" x2="833.072" y2="520.509"/>
	
		<line clip-path="url(#SVGID_2_)" fill="none" stroke="#FFFFFF" stroke-width="3" stroke-miterlimit="10" x1="709.677" y1="-32.178" x2="513.096" y2="520.509"/>
	
		<line clip-path="url(#SVGID_2_)" fill="none" stroke="#FFFFFF" stroke-width="3" stroke-miterlimit="10" x1="376.454" y1="-32.178" x2="187.283" y2="520.509"/>
	<g clip-path="url(#SVGID_2_)">
		<g opacity="0.3">
			<g>
				<path fill="#F6E7D2" d="M270.177,176.701H156.719c-0.461,0-0.911,0.041-1.354,0.101c-4.341,0.59-7.673,3.958-7.673,8.037
					c0,4.079,3.332,7.447,7.673,8.037c0.443,0.06,0.892,0.101,1.354,0.101h113.459C270.177,192.977,262.437,185.209,270.177,176.701
					z"/>
				<path fill="#FFFFFF" d="M270.177,176.701H156.719c-0.461,0-0.911,0.041-1.354,0.101c-4.341,0.59-7.673,3.958-7.673,8.037
					c0,4.079,3.332,7.447,7.673,8.037c0.443,0.06,0.892,0.101,1.354,0.101h113.459C270.177,192.977,262.437,185.209,270.177,176.701
					z"/>
				<path fill="none" stroke="#9B9B9B" stroke-width="2" stroke-miterlimit="10" d="M270.177,176.701H156.719
					c-0.461,0-0.911,0.041-1.354,0.101c-4.341,0.59-7.673,3.958-7.673,8.037c0,4.079,3.332,7.447,7.673,8.037
					c0.443,0.06,0.892,0.101,1.354,0.101h113.459"/>
				<path fill="#00608B" d="M150.319,180.162h117.486c-0.078,0.164-0.159,0.327-0.227,0.489H149.96
					C150.072,180.483,150.194,180.321,150.319,180.162z"/>
				<path fill="#00608B" d="M149.216,181.628h118.006c-0.052,0.164-0.105,0.328-0.148,0.489H149.001
					C149.066,181.951,149.139,181.789,149.216,181.628z"/>
				<path fill="#00608B" d="M148.669,183.095h118.203c-0.026,0.164-0.053,0.328-0.072,0.489H148.568
					C148.596,183.419,148.63,183.256,148.669,183.095z"/>
				<path fill="#00608B" d="M148.405,184.843v-0.007c0-0.092,0.01-0.182,0.014-0.274h118.325c-0.002,0.164-0.003,0.328,0.002,0.489
					H148.416C148.414,184.981,148.405,184.913,148.405,184.843z"/>
				<path fill="#00608B" d="M266.903,186.517h-118.24c-0.038-0.161-0.068-0.324-0.095-0.489h118.26
					C266.849,186.194,266.874,186.356,266.903,186.517z"/>
				<path fill="#00608B" d="M267.261,187.984H149.19c-0.075-0.16-0.144-0.323-0.208-0.489h118.136
					C267.162,187.661,267.21,187.824,267.261,187.984z"/>
			</g>
			<path fill="#00608B" d="M151.036,189.451h116.795c0.123-0.159-0.309-0.321-0.199-0.489H151.25
				C151.181,189.13,151.109,189.292,151.036,189.451z"/>
			<path fill="#00608B" d="M150.25,190.918h116.645c0.195-0.156,0.382-0.318,0.562-0.489h-116.92
				C150.441,190.598,150.346,190.763,150.25,190.918z"/>
			<path fill="#00608B" d="M266.581,178.695H150.236c0.106,0.164,0.213,0.327,0.309,0.489h116.611
				C266.972,179.013,266.781,178.85,266.581,178.695z"/>
			<g>
				<path fill="#F6E7D2" d="M161.692,192.835h113.459c0.461,0,0.911,0.041,1.353,0.101c4.341,0.59,7.673,3.958,7.673,8.037
					c0,4.079-3.332,7.447-7.673,8.037c-0.443,0.06-0.892,0.101-1.353,0.101H161.692
					C161.692,209.111,169.432,201.343,161.692,192.835z"/>
				<path fill="#FFFFFF" d="M161.692,192.835h113.459c0.461,0,0.911,0.041,1.353,0.101c4.341,0.59,7.673,3.958,7.673,8.037
					c0,4.079-3.332,7.447-7.673,8.037c-0.443,0.06-0.892,0.101-1.353,0.101H161.692
					C161.692,209.111,169.432,201.343,161.692,192.835z"/>
				<path fill="none" stroke="#9B9B9B" stroke-width="2" stroke-miterlimit="10" d="M161.692,192.835h113.459
					c0.461,0,0.911,0.041,1.353,0.101c4.341,0.59,7.673,3.958,7.673,8.037c0,4.079-3.332,7.447-7.673,8.037
					c-0.443,0.06-0.892,0.101-1.353,0.101H161.692"/>
				<g>
					<path fill="#0075A9" d="M281.551,196.296H164.065c0.078,0.164,0.159,0.327,0.227,0.489H281.91
						C281.798,196.617,281.675,196.455,281.551,196.296z"/>
					<path fill="#0075A9" d="M282.654,197.762H164.647c0.052,0.164,0.105,0.328,0.148,0.489h118.074
						C282.803,198.085,282.731,197.923,282.654,197.762z"/>
					<path fill="#0075A9" d="M283.2,199.229H164.997c0.026,0.164,0.053,0.328,0.072,0.489h118.233
						C283.273,199.553,283.239,199.39,283.2,199.229z"/>
					<path fill="#0075A9" d="M283.464,200.977v-0.007c0-0.092-0.011-0.182-0.014-0.274H165.126c0.002,0.164,0.003,0.328-0.002,0.489
						h118.331C283.456,201.115,283.464,201.047,283.464,200.977z"/>
					<path fill="#0075A9" d="M164.967,202.651h118.24c0.038-0.161,0.068-0.324,0.095-0.489h-118.26
						C165.021,202.328,164.995,202.491,164.967,202.651z"/>
					<path fill="#0075A9" d="M164.608,204.118H282.68c0.075-0.16,0.144-0.323,0.208-0.489H164.752
						C164.707,203.795,164.659,203.958,164.608,204.118z"/>
					<path fill="#0075A9" d="M164.036,205.585h117.597c0.123-0.159,0.242-0.321,0.352-0.489H164.25
						C164.181,205.264,164.109,205.426,164.036,205.585z"/>
					<path fill="#0075A9" d="M163.25,207.052h116.645c0.195-0.156,0.382-0.318,0.562-0.489h-116.92
						C163.441,206.732,163.346,206.897,163.25,207.052z"/>
					<path fill="#0075A9" d="M279.581,194.829H163.236c0.106,0.164,0.213,0.327,0.309,0.489h116.611
						C279.972,195.147,279.781,194.985,279.581,194.829z"/>
				</g>
			</g>
			<g>
				<path fill="#F6E7D2" d="M271.177,209.111H157.719c-0.461,0-0.911,0.041-1.354,0.101c-4.341,0.59-7.673,3.958-7.673,8.037
					c0,4.079,3.332,7.447,7.673,8.037c0.443,0.06,0.892,0.101,1.354,0.101h113.459C271.177,225.388,263.437,217.62,271.177,209.111z
					"/>
				<path fill="#FFFFFF" d="M271.177,209.111H157.719c-0.461,0-0.911,0.041-1.354,0.101c-4.341,0.59-7.673,3.958-7.673,8.037
					c0,4.079,3.332,7.447,7.673,8.037c0.443,0.06,0.892,0.101,1.354,0.101h113.459C271.177,225.388,263.437,217.62,271.177,209.111z
					"/>
				<path fill="none" stroke="#9B9B9B" stroke-width="2" stroke-miterlimit="10" d="M271.177,209.111H157.719
					c-0.461,0-0.911,0.041-1.354,0.101c-4.341,0.59-7.673,3.958-7.673,8.037c0,4.079,3.332,7.447,7.673,8.037
					c0.443,0.06,0.892,0.101,1.354,0.101h113.459"/>
				<g>
					<path fill="#00608B" d="M151.661,212.919h117.486c-0.078,0.164-0.159,0.327-0.227,0.489H151.301
						C151.414,213.24,151.536,213.078,151.661,212.919z"/>
					<path fill="#00608B" d="M150.558,214.385h118.006c-0.052,0.164-0.105,0.328-0.148,0.489H150.342
						C150.408,214.708,150.481,214.546,150.558,214.385z"/>
					<path fill="#00608B" d="M150.011,215.852h118.203c-0.026,0.164-0.053,0.328-0.072,0.489H149.91
						C149.938,216.176,149.972,216.013,150.011,215.852z"/>
					<path fill="#00608B" d="M149.747,217.6v-0.007c0-0.092,0.011-0.182,0.014-0.274h118.325c-0.002,0.164-0.003,0.328,0.002,0.489
						H149.757C149.756,217.738,149.747,217.67,149.747,217.6z"/>
					<path fill="#00608B" d="M268.244,219.274h-118.24c-0.038-0.161-0.068-0.324-0.095-0.489h118.26
						C268.191,218.951,268.216,219.114,268.244,219.274z"/>
					<path fill="#00608B" d="M268.603,220.741H150.531c-0.075-0.16-0.144-0.323-0.208-0.489h118.136
						C268.504,220.418,268.552,220.581,268.603,220.741z"/>
					<path fill="#00608B" d="M269.175,222.208H151.578c-0.123-0.159-0.242-0.321-0.352-0.489h117.736
						C269.031,221.887,269.102,222.049,269.175,222.208z"/>
					<path fill="#00608B" d="M269.961,223.675H153.317c-0.195-0.156-0.382-0.318-0.562-0.489h116.92
						C269.77,223.355,269.866,223.52,269.961,223.675z"/>
					<path fill="#00608B" d="M153.63,211.452h116.345c-0.106,0.164-0.213,0.327-0.309,0.489H153.055
						C153.239,211.77,153.43,211.607,153.63,211.452z"/>
				</g>
			</g>
			<g>
				<path fill="#F6E7D2" d="M148.692,143.111h113.459c0.461,0,0.911,0.041,1.353,0.101c4.341,0.59,7.673,3.958,7.673,8.037
					c0,4.079-3.332,7.447-7.673,8.037c-0.443,0.06-0.892,0.101-1.353,0.101H148.692C148.692,159.388,156.432,151.62,148.692,143.111
					z"/>
				<path fill="#FFFFFF" d="M148.692,143.111h113.459c0.461,0,0.911,0.041,1.353,0.101c4.341,0.59,7.673,3.958,7.673,8.037
					c0,4.079-3.332,7.447-7.673,8.037c-0.443,0.06-0.892,0.101-1.353,0.101H148.692C148.692,159.388,156.432,151.62,148.692,143.111
					z"/>
				<path fill="none" stroke="#9B9B9B" stroke-width="2" stroke-miterlimit="10" d="M148.692,143.111h113.459
					c0.461,0,0.911,0.041,1.353,0.101c4.341,0.59,7.673,3.958,7.673,8.037c0,4.079-3.332,7.447-7.673,8.037
					c-0.443,0.06-0.892,0.101-1.353,0.101H148.692"/>
				<g>
					<path fill="#00608B" d="M268.209,146.919H150.723c0.078,0.164,0.159,0.327,0.227,0.489h117.618
						C268.456,147.24,268.334,147.078,268.209,146.919z"/>
					<path fill="#00608B" d="M269.312,148.385H151.306c0.052,0.164,0.105,0.328,0.148,0.489h118.074
						C269.462,148.708,269.389,148.546,269.312,148.385z"/>
					<path fill="#00608B" d="M269.858,149.852H151.656c0.026,0.164,0.053,0.328,0.072,0.489H269.96
						C269.932,150.176,269.898,150.013,269.858,149.852z"/>
					<path fill="#00608B" d="M270.123,151.6v-0.007c0-0.092-0.01-0.182-0.014-0.274H151.784c0.002,0.164,0.003,0.328-0.002,0.489
						h118.331C270.114,151.738,270.123,151.67,270.123,151.6z"/>
					<path fill="#00608B" d="M151.625,153.274h118.24c0.038-0.161,0.068-0.324,0.095-0.489H151.7
						C151.679,152.951,151.654,153.114,151.625,153.274z"/>
					<path fill="#00608B" d="M151.267,154.741h118.072c0.075-0.16,0.144-0.323,0.208-0.489H151.41
						C151.365,154.418,151.318,154.581,151.267,154.741z"/>
					<path fill="#00608B" d="M150.694,156.208h117.597c0.123-0.159,0.242-0.321,0.352-0.489H150.908
						C150.839,155.887,150.768,156.049,150.694,156.208z"/>
					<path fill="#00608B" d="M149.909,157.675h116.644c0.195-0.156,0.382-0.318,0.562-0.489h-116.92
						C150.1,157.355,150.004,157.52,149.909,157.675z"/>
					<path fill="#00608B" d="M266.239,145.452H149.894c0.106,0.164,0.213,0.327,0.309,0.489h116.611
						C266.631,145.77,266.439,145.607,266.239,145.452z"/>
				</g>
			</g>
			<g>
				<path fill="#F6E7D2" d="M271.177,225.388H157.719c-0.461,0-0.911,0.041-1.354,0.101c-4.341,0.59-7.673,3.958-7.673,8.037
					c0,4.079,3.332,7.447,7.673,8.037c0.443,0.06,0.892,0.101,1.354,0.101h113.459C271.177,241.665,263.437,233.896,271.177,225.388
					z"/>
				<path fill="#FFFFFF" d="M271.177,225.388H157.719c-0.461,0-0.911,0.041-1.354,0.101c-4.341,0.59-7.673,3.958-7.673,8.037
					c0,4.079,3.332,7.447,7.673,8.037c0.443,0.06,0.892,0.101,1.354,0.101h113.459C271.177,241.665,263.437,233.896,271.177,225.388
					z"/>
				<path fill="none" stroke="#9B9B9B" stroke-width="2" stroke-miterlimit="10" d="M271.177,225.388H157.719
					c-0.461,0-0.911,0.041-1.354,0.101c-4.341,0.59-7.673,3.958-7.673,8.037c0,4.079,3.332,7.447,7.673,8.037
					c0.443,0.06,0.892,0.101,1.354,0.101h113.459"/>
				<g>
					<path fill="#0075A9" d="M151.661,229.053h117.486c-0.078,0.164-0.159,0.327-0.227,0.489H151.301
						C151.414,229.374,151.536,229.212,151.661,229.053z"/>
					<path fill="#0075A9" d="M150.558,230.519h118.006c-0.052,0.164-0.105,0.328-0.148,0.489H150.342
						C150.408,230.842,150.481,230.68,150.558,230.519z"/>
					<path fill="#0075A9" d="M150.011,231.986h118.203c-0.026,0.164-0.053,0.328-0.072,0.489H149.91
						C149.938,232.31,149.972,232.148,150.011,231.986z"/>
					<path fill="#0075A9" d="M149.747,233.734v-0.007c0-0.092,0.011-0.182,0.014-0.274h118.325
						c-0.002,0.164-0.003,0.328,0.002,0.489H149.757C149.756,233.872,149.747,233.804,149.747,233.734z"/>
					<path fill="#0075A9" d="M268.244,235.409h-118.24c-0.038-0.161-0.068-0.324-0.095-0.489h118.26
						C268.191,235.085,268.216,235.248,268.244,235.409z"/>
					<path fill="#0075A9" d="M268.603,236.875H150.531c-0.075-0.16-0.144-0.323-0.208-0.489h118.136
						C268.504,236.552,268.552,236.715,268.603,236.875z"/>
					<path fill="#0075A9" d="M269.175,238.342H151.578c-0.123-0.159-0.242-0.321-0.352-0.489h117.736
						C269.031,238.021,269.102,238.183,269.175,238.342z"/>
					<path fill="#0075A9" d="M269.961,239.809H153.317c-0.195-0.156-0.382-0.318-0.562-0.489h116.92
						C269.77,239.49,269.866,239.654,269.961,239.809z"/>
					<path fill="#0075A9" d="M153.63,227.586h116.345c-0.106,0.164-0.213,0.327-0.309,0.489H153.055
						C153.239,227.904,153.43,227.742,153.63,227.586z"/>
				</g>
			</g>
			<g>
				<path fill="#F6E7D2" d="M281.177,159.388H167.719c-0.461,0-0.911,0.041-1.354,0.101c-4.341,0.59-7.673,3.958-7.673,8.037
					c0,4.079,3.332,7.447,7.673,8.037c0.443,0.06,0.892,0.101,1.354,0.101h113.459C281.177,175.665,273.437,167.896,281.177,159.388
					z"/>
				<path fill="#FFFFFF" d="M281.177,159.388H167.719c-0.461,0-0.911,0.041-1.354,0.101c-4.341,0.59-7.673,3.958-7.673,8.037
					c0,4.079,3.332,7.447,7.673,8.037c0.443,0.06,0.892,0.101,1.354,0.101h113.459C281.177,175.665,273.437,167.896,281.177,159.388
					z"/>
				<path fill="none" stroke="#9B9B9B" stroke-width="2" stroke-miterlimit="10" d="M281.177,159.388H167.719
					c-0.461,0-0.911,0.041-1.354,0.101c-4.341,0.59-7.673,3.958-7.673,8.037c0,4.079,3.332,7.447,7.673,8.037
					c0.443,0.06,0.892,0.101,1.354,0.101h113.459"/>
				<g>
					<path fill="#0075A9" d="M161.661,163.053h117.486c-0.078,0.164-0.159,0.327-0.227,0.489H161.301
						C161.414,163.374,161.536,163.212,161.661,163.053z"/>
					<path fill="#0075A9" d="M160.558,164.519h118.006c-0.052,0.164-0.105,0.328-0.148,0.489H160.342
						C160.408,164.842,160.481,164.68,160.558,164.519z"/>
					<path fill="#0075A9" d="M160.011,165.986h118.203c-0.026,0.164-0.053,0.328-0.072,0.489H159.91
						C159.938,166.31,159.972,166.148,160.011,165.986z"/>
					<path fill="#0075A9" d="M159.747,167.734v-0.007c0-0.092,0.011-0.182,0.014-0.274h118.325
						c-0.002,0.164-0.003,0.328,0.002,0.489H159.757C159.756,167.872,159.747,167.804,159.747,167.734z"/>
					<path fill="#0075A9" d="M278.244,169.409h-118.24c-0.038-0.161-0.068-0.324-0.095-0.489h118.26
						C278.191,169.085,278.216,169.248,278.244,169.409z"/>
					<path fill="#0075A9" d="M278.603,170.875H160.531c-0.075-0.16-0.144-0.323-0.208-0.489h118.136
						C278.504,170.552,278.552,170.715,278.603,170.875z"/>
					<path fill="#0075A9" d="M279.175,172.342H161.578c-0.123-0.159-0.242-0.321-0.352-0.489h117.736
						C279.031,172.021,279.102,172.183,279.175,172.342z"/>
					<path fill="#0075A9" d="M279.961,173.809H163.317c-0.195-0.156-0.382-0.318-0.562-0.489h116.92
						C279.77,173.49,279.866,173.654,279.961,173.809z"/>
					<path fill="#0075A9" d="M163.63,161.586h116.345c-0.106,0.164-0.213,0.327-0.309,0.489H163.055
						C163.239,161.904,163.43,161.742,163.63,161.586z"/>
				</g>
			</g>
		</g>
		<g>
			<g opacity="0.5">
				<path fill="#9B9B9B" d="M155.018,197.787c0,14.41,0.002,28.819-0.001,43.229c-0.001,5.074-3.203,8.286-8.261,8.287
					c-19.788,0.004-39.577,0.006-59.365,0.005c-5.222,0-8.402-3.181-8.403-8.393c-0.001-25.287,0.005-50.575-0.02-75.862
					c-0.001-1.006,0.29-1.721,1.005-2.428c5.163-5.111,10.297-10.251,15.414-15.409c0.64-0.645,1.287-0.941,2.212-0.939
					c16.497,0.024,32.994,0.012,49.491,0.016c4.552,0.001,7.921,3.355,7.924,7.903C155.024,168.727,155.018,183.257,155.018,197.787
					z M82.753,163.55c0,0.677,0,1.155,0,1.634c0.001,7.344,0.002,14.689,0.002,22.033c0,18.02-0.002,36.04,0,54.06
					c0,2.143,1.089,3.701,2.942,4.145c0.536,0.128,1.114,0.112,1.673,0.112c19.826,0.006,39.652,0.007,59.478,0.006
					c2.905,0,4.406-1.528,4.406-4.478c0.001-28.856,0.001-57.712,0-86.568c0-2.931-1.504-4.431-4.448-4.431
					c-16.415-0.003-32.829-0.001-49.244-0.001c-0.42,0-0.84,0-1.318,0c0,1.965,0.005,3.729-0.001,5.492
					c-0.017,4.916-3.059,7.976-7.95,7.996C86.494,163.556,84.697,163.55,82.753,163.55z"/>
				<path fill="#DFD1A8" d="M117.473,209.887c6.256,0,12.513,0.008,18.769-0.007c1.006-0.002,1.828,0.236,2.24,1.245
					c0.539,1.32-0.438,2.518-2.098,2.525c-4.412,0.016-8.823,0.009-13.235,0.01c-8.021,0.001-16.042,0-24.063,0
					c-0.12,0-0.241,0.001-0.361-0.001c-1.5-0.022-2.427-0.773-2.391-1.939c0.035-1.127,0.933-1.831,2.37-1.832
					c4.893-0.004,9.786-0.001,14.679,0C114.746,209.887,116.109,209.887,117.473,209.887z"/>
				<path fill="#DFD1A8" d="M117.481,223.294c-6.016,0-12.032,0-18.047,0c-0.321,0-0.642,0.009-0.962-0.004
					c-1.298-0.051-2.18-0.859-2.137-1.948c0.042-1.056,0.891-1.808,2.142-1.815c3.128-0.018,6.256-0.007,9.385-0.006
					c9.425,0.001,18.85,0.002,28.274,0.003c0.16,0,0.321-0.009,0.481,0c1.199,0.065,2.052,0.891,2.015,1.947
					c-0.036,1.021-0.846,1.795-2.02,1.808c-2.767,0.03-5.534,0.014-8.302,0.015C124.7,223.294,121.09,223.294,117.481,223.294z"/>
				<path fill="#DFD1A8" d="M117.479,229.157c6.256,0.001,12.513,0.01,18.769-0.008c1.067-0.003,1.906,0.288,2.281,1.363
					c0.444,1.273-0.554,2.402-2.152,2.408c-4.371,0.015-8.743,0.009-13.114,0.009c-8.061,0.001-16.122,0-24.184,0
					c-0.16,0-0.321,0.002-0.481-0.002c-1.397-0.035-2.304-0.815-2.264-1.944c0.038-1.093,0.914-1.821,2.256-1.824
					c4.893-0.009,9.786-0.003,14.679-0.003C114.672,229.156,116.076,229.156,117.479,229.157z"/>
				<g>
					<path fill="#DFD1A8" d="M98.725,213.658c0.12,0.002,0.241,0.001,0.361,0.001c6.772,0,13.545,0,20.317,0
						c1.249,0,2.498,0,3.746,0c4.412,0,8.823,0.007,13.235-0.009c1.661-0.006,2.637-1.205,2.098-2.525
						c-0.412-1.009-1.234-1.247-2.24-1.245c-5.613,0.014-11.226,0.009-16.839,0.008c-0.643,0-1.287,0-1.93,0
						c-1.364,0-2.727,0-4.091,0c-4.893,0-9.786-0.004-14.679,0c-1.437,0.001-2.335,0.705-2.37,1.832
						C96.298,212.885,97.225,213.636,98.725,213.658z"/>
					<path fill="#DFD1A8" d="M98.471,223.29c0.32,0.013,0.642,0.004,0.962,0.004c6.016,0,12.032,0,18.047,0c0.641,0,1.281,0,1.922,0
						c2.969,0,5.938,0.001,8.907,0c2.767-0.001,5.535,0.016,8.302-0.015c1.173-0.013,1.983-0.787,2.02-1.808
						c0.037-1.056-0.815-1.882-2.015-1.947c-0.16-0.009-0.321,0-0.481,0c-5.577-0.001-11.155-0.001-16.732-0.002
						c-3.847,0-7.695-0.001-11.542-0.001c-3.128,0-6.256-0.011-9.385,0.006c-1.251,0.007-2.101,0.758-2.142,1.815
						C96.291,222.431,97.173,223.238,98.471,223.29z"/>
					<path fill="#DFD1A8" d="M138.529,230.513c-0.375-1.075-1.214-1.366-2.281-1.363c-5.615,0.016-11.23,0.01-16.846,0.008
						c-0.641,0-1.282-0.001-1.924-0.001c-1.404,0-2.807,0-4.211,0c-4.893,0-9.786-0.005-14.679,0.003
						c-1.341,0.002-2.217,0.731-2.256,1.824c-0.04,1.129,0.868,1.909,2.264,1.944c0.16,0.004,0.321,0.002,0.481,0.002
						c6.775,0,13.549,0,20.324,0c1.287,0,2.573,0,3.86,0c4.372,0,8.743,0.006,13.114-0.009
						C137.976,232.915,138.973,231.786,138.529,230.513z"/>
				</g>
				<path fill="#0075A9" d="M151.252,154.493c0-2.931-1.504-4.431-4.448-4.431c-9.134-0.001-18.267-0.001-27.401-0.001v59.826
					c5.613,0.001,11.226,0.006,16.839-0.008c1.006-0.002,1.828,0.236,2.24,1.245c0.539,1.32-0.438,2.518-2.098,2.525
					c-4.412,0.016-8.823,0.009-13.235,0.009c-1.249,0-2.497,0-3.746,0v5.863c5.577,0.001,11.155,0.001,16.732,0.002
					c0.16,0,0.321-0.009,0.481,0c1.199,0.065,2.052,0.891,2.015,1.947c-0.036,1.021-0.846,1.795-2.02,1.808
					c-2.767,0.03-5.534,0.014-8.302,0.015c-2.969,0.001-5.938,0-8.907,0v5.863c5.615,0.003,11.23,0.008,16.846-0.008
					c1.067-0.003,1.906,0.288,2.281,1.363c0.444,1.273-0.554,2.402-2.152,2.407c-4.371,0.015-8.743,0.009-13.114,0.009
					c-1.287,0-2.573,0-3.86,0v12.607c9.148,0.001,18.296,0.003,27.444,0.003c2.905,0,4.406-1.528,4.406-4.478
					C151.254,212.205,151.254,183.349,151.252,154.493z"/>
				<path fill="#00608B" d="M99.079,232.929c-0.16,0-0.321,0.002-0.481-0.002c-1.397-0.035-2.304-0.815-2.264-1.944
					c0.038-1.093,0.914-1.821,2.256-1.824c4.893-0.009,9.786-0.003,14.679-0.003c1.404,0,2.807,0,4.211,0
					c0.641,0,1.282,0.001,1.924,0.001v-5.863c-0.641,0-1.281,0-1.922,0c-6.016,0-12.032,0-18.047,0
					c-0.321,0-0.642,0.009-0.962-0.004c-1.298-0.051-2.18-0.859-2.137-1.948c0.042-1.056,0.891-1.807,2.142-1.815
					c3.128-0.018,6.256-0.007,9.385-0.006c3.847,0,7.695,0.001,11.542,0.001v-5.863c-6.772,0-13.545,0-20.317,0
					c-0.12,0-0.241,0.001-0.361-0.001c-1.5-0.022-2.427-0.773-2.391-1.939c0.035-1.127,0.933-1.831,2.37-1.832
					c4.893-0.004,9.786-0.001,14.679,0c1.364,0,2.727,0,4.091,0c0.643,0,1.287,0,1.93,0v-59.826c-7.281,0-14.562-0.001-21.843-0.001
					c-0.42,0-0.84,0-1.318,0c0,1.965,0.005,3.729-0.001,5.492c-0.017,4.916-3.059,7.976-7.95,7.996
					c-1.797,0.007-3.593,0.001-5.538,0.001c0,0.677,0,1.155,0,1.634c0.001,7.344,0.002,14.689,0.002,22.033
					c0,18.02-0.002,36.04,0,54.06c0,2.143,1.089,3.701,2.942,4.145c0.536,0.128,1.114,0.112,1.673,0.112
					c10.678,0.003,21.356,0.002,32.034,0.003v-12.607C112.628,232.93,105.854,232.929,99.079,232.929z"/>
				<path fill="#DFD1A8" d="M133.2,168.523c-0.539,0.826-1.095,1.505-1.458,2.274c-0.618,1.312-1.557,1.786-2.976,1.58
					c-0.767-0.111-1.564-0.014-2.347-0.013c-0.255,0.001-0.429,0.055-0.491,0.365c-0.653,3.263-2.577,5.568-5.46,7.113
					c-2.084,1.117-4.335,1.688-6.678,1.923c-0.126,0.013-0.251,0.042-0.465,0.078c0.127,0.222,0.197,0.403,0.315,0.544
					c2.749,3.299,5.506,6.592,8.257,9.89c1.674,2.006,3.333,4.024,5.016,6.022c0.336,0.399,0.267,0.837,0.244,1.277
					c-0.004,0.072-0.214,0.189-0.33,0.19c-1.65,0.013-3.3,0.026-4.95-0.011c-0.226-0.005-0.492-0.241-0.66-0.438
					c-1.359-1.595-2.702-3.203-4.045-4.812c-2.175-2.607-4.34-5.221-6.52-7.823c-1.003-1.198-1.994-2.411-3.066-3.545
					c-0.512-0.541-0.463-1.149-0.497-1.756c-0.041-0.712,0.022-1.43,0.034-2.145c0.006-0.325,0.233-0.31,0.455-0.31
					c1.25-0.001,2.501,0.019,3.75-0.007c2.215-0.046,4.351-0.451,6.237-1.683c1.646-1.075,2.741-2.552,2.982-4.565
					c0.006-0.049,0.012-0.1,0.008-0.149c-0.002-0.032-0.022-0.062-0.074-0.195c-4.877,0-9.794,0-14.864,0
					c0.53-0.818,0.965-1.497,1.409-2.169c0.248-0.375,0.554-0.717,0.759-1.112c0.247-0.477,0.624-0.581,1.103-0.575
					c1.846,0.021,3.692,0.038,5.538,0.044c1.732,0.005,3.465-0.005,5.197-0.01c0.08,0,0.16-0.014,0.31-0.028
					c-0.25-0.736-0.72-1.254-1.254-1.718c-1.228-1.066-2.723-1.591-4.285-1.748c-2.099-0.211-4.219-0.226-6.33-0.306
					c-0.775-0.029-1.551-0.005-2.458-0.005c0.374-0.567,0.677-1.031,0.986-1.491c0.408-0.608,0.846-1.199,1.222-1.826
					c0.242-0.403,0.556-0.489,0.991-0.488c7.517,0.01,15.034,0.007,22.55,0.008c0.562,0,1.123,0,1.799,0
					c-0.483,0.772-0.899,1.458-1.337,2.131c-0.309,0.474-0.63,0.942-0.983,1.382c-0.118,0.148-0.35,0.287-0.531,0.29
					c-1.564,0.02-3.128,0.007-4.691,0.004c-0.48-0.001-0.959,0-1.551,0c0.116,0.238,0.156,0.38,0.242,0.484
					c0.699,0.853,1.148,1.834,1.439,2.884c0.102,0.371,0.287,0.456,0.633,0.454c2.1-0.011,4.2-0.007,6.3-0.007
					C132.804,168.523,132.934,168.523,133.2,168.523z"/>
			</g>
			<g>
				<path fill="#9B9B9B" d="M169.211,205.529c0,14.41,0.002,28.819-0.001,43.229c-0.001,5.074-3.203,8.286-8.261,8.287
					c-19.788,0.004-39.577,0.006-59.365,0.005c-5.222,0-8.402-3.181-8.403-8.393c-0.001-25.287,0.005-50.575-0.02-75.862
					c-0.001-1.006,0.29-1.721,1.005-2.428c5.163-5.111,10.297-10.251,15.414-15.409c0.64-0.645,1.287-0.941,2.212-0.939
					c16.497,0.024,32.994,0.012,49.491,0.016c4.552,0.001,7.921,3.355,7.924,7.903C169.217,176.469,169.211,190.999,169.211,205.529
					z M96.946,171.292c0,0.677,0,1.155,0,1.634c0.001,7.344,0.002,14.689,0.002,22.033c0,18.02-0.002,36.04,0,54.06
					c0,2.143,1.089,3.701,2.942,4.145c0.536,0.128,1.114,0.112,1.673,0.112c19.826,0.006,39.652,0.007,59.478,0.006
					c2.905,0,4.406-1.528,4.406-4.478c0.001-28.856,0.001-57.712,0-86.568c0-2.931-1.504-4.431-4.448-4.431
					c-16.415-0.002-32.829-0.001-49.244-0.001c-0.42,0-0.84,0-1.318,0c0,1.965,0.005,3.729-0.001,5.492
					c-0.017,4.916-3.059,7.976-7.95,7.996C100.687,171.298,98.89,171.292,96.946,171.292z"/>
				<path fill="#DFD1A8" d="M131.666,217.629c6.256,0,12.513,0.008,18.769-0.007c1.006-0.002,1.828,0.236,2.24,1.245
					c0.539,1.32-0.438,2.518-2.098,2.525c-4.412,0.016-8.823,0.009-13.235,0.01c-8.021,0.001-16.042,0-24.063,0
					c-0.12,0-0.241,0.001-0.361-0.001c-1.5-0.022-2.427-0.773-2.391-1.939c0.035-1.127,0.933-1.831,2.37-1.832
					c4.893-0.004,9.786-0.001,14.679,0C128.939,217.629,130.302,217.629,131.666,217.629z"/>
				<path fill="#DFD1A8" d="M131.674,231.035c-6.016,0-12.032,0-18.048,0c-0.321,0-0.642,0.009-0.962-0.004
					c-1.298-0.051-2.18-0.859-2.137-1.948c0.042-1.056,0.891-1.807,2.142-1.815c3.128-0.018,6.256-0.007,9.385-0.006
					c9.425,0.001,18.85,0.002,28.274,0.003c0.16,0,0.321-0.009,0.481,0c1.199,0.065,2.052,0.891,2.015,1.947
					c-0.036,1.021-0.846,1.795-2.02,1.808c-2.767,0.03-5.534,0.014-8.302,0.015C138.893,231.036,135.284,231.035,131.674,231.035z"
					/>
				<path fill="#DFD1A8" d="M131.672,236.899c6.256,0.001,12.513,0.01,18.769-0.008c1.067-0.003,1.906,0.288,2.281,1.363
					c0.444,1.273-0.554,2.402-2.152,2.408c-4.371,0.015-8.743,0.009-13.114,0.009c-8.061,0.001-16.122,0-24.184,0
					c-0.16,0-0.321,0.002-0.481-0.002c-1.397-0.035-2.304-0.815-2.264-1.944c0.038-1.093,0.914-1.821,2.256-1.824
					c4.893-0.009,9.786-0.003,14.679-0.003C128.865,236.898,130.269,236.898,131.672,236.899z"/>
				<g>
					<path fill="#CCCCCC" d="M112.918,221.4c0.12,0.002,0.241,0.001,0.361,0.001c6.772,0,13.545,0,20.317,0c1.249,0,2.498,0,3.746,0
						c4.412,0,8.823,0.007,13.235-0.009c1.661-0.006,2.637-1.205,2.098-2.525c-0.412-1.009-1.234-1.247-2.24-1.245
						c-5.613,0.014-11.226,0.009-16.839,0.008c-0.643,0-1.287,0-1.93,0c-1.364,0-2.727,0-4.091,0c-4.893,0-9.786-0.004-14.679,0
						c-1.437,0.001-2.335,0.705-2.37,1.832C110.491,220.626,111.418,221.378,112.918,221.4z"/>
					<path fill="#CCCCCC" d="M112.664,231.031c0.32,0.013,0.642,0.004,0.962,0.004c6.016,0,12.032,0,18.047,0
						c0.641,0,1.281,0,1.922,0c2.969,0,5.938,0.001,8.907,0c2.767-0.001,5.535,0.016,8.302-0.015
						c1.173-0.013,1.983-0.787,2.02-1.808c0.037-1.056-0.815-1.882-2.015-1.947c-0.16-0.009-0.321,0-0.481,0
						c-5.577-0.001-11.155-0.001-16.732-0.002c-3.847,0-7.695-0.001-11.542-0.001c-3.128,0-6.256-0.011-9.385,0.006
						c-1.251,0.007-2.101,0.758-2.142,1.815C110.484,230.173,111.366,230.98,112.664,231.031z"/>
					<path fill="#CCCCCC" d="M152.723,238.254c-0.375-1.075-1.214-1.366-2.281-1.363c-5.615,0.016-11.23,0.01-16.846,0.008
						c-0.641,0-1.282-0.001-1.924-0.001c-1.404,0-2.807,0-4.211,0c-4.893,0-9.786-0.005-14.679,0.003
						c-1.341,0.002-2.217,0.731-2.256,1.824c-0.04,1.129,0.868,1.909,2.264,1.944c0.16,0.004,0.321,0.002,0.481,0.002
						c6.775,0,13.549,0,20.324,0c1.287,0,2.573,0,3.86,0c4.372,0,8.743,0.006,13.114-0.009
						C152.169,240.656,153.166,239.528,152.723,238.254z"/>
				</g>
				<path fill="#0075A9" d="M165.445,162.235c0-2.931-1.504-4.431-4.448-4.431c-9.134-0.001-18.267-0.001-27.401-0.001v59.826
					c5.613,0.001,11.226,0.006,16.839-0.008c1.006-0.002,1.828,0.236,2.24,1.245c0.539,1.32-0.437,2.518-2.098,2.525
					c-4.412,0.016-8.823,0.009-13.235,0.009c-1.249,0-2.497,0-3.746,0v5.863c5.577,0.001,11.155,0.001,16.732,0.002
					c0.16,0,0.321-0.009,0.481,0c1.199,0.065,2.052,0.891,2.015,1.947c-0.036,1.021-0.846,1.795-2.02,1.808
					c-2.767,0.03-5.534,0.014-8.302,0.015c-2.969,0.001-5.938,0-8.907,0v5.863c5.615,0.003,11.23,0.008,16.846-0.008
					c1.067-0.003,1.906,0.288,2.281,1.363c0.444,1.273-0.554,2.402-2.152,2.408c-4.371,0.015-8.743,0.009-13.114,0.009
					c-1.287,0-2.573,0-3.86,0v12.607c9.148,0.001,18.296,0.003,27.444,0.003c2.905,0,4.406-1.528,4.406-4.478
					C165.447,219.947,165.447,191.091,165.445,162.235z"/>
				<path fill="#00608B" d="M113.272,240.671c-0.16,0-0.321,0.002-0.481-0.002c-1.397-0.035-2.304-0.815-2.264-1.944
					c0.038-1.093,0.914-1.821,2.256-1.824c4.893-0.009,9.786-0.003,14.679-0.003c1.404,0,2.807,0,4.211,0
					c0.641,0,1.282,0.001,1.924,0.001v-5.863c-0.641,0-1.281,0-1.922,0c-6.016,0-12.032,0-18.047,0
					c-0.321,0-0.642,0.009-0.962-0.004c-1.298-0.051-2.18-0.859-2.137-1.948c0.042-1.056,0.891-1.807,2.142-1.815
					c3.128-0.018,6.256-0.007,9.385-0.006c3.847,0,7.695,0.001,11.542,0.001V221.4c-6.772,0-13.545,0-20.317,0
					c-0.12,0-0.241,0.001-0.361-0.001c-1.5-0.022-2.427-0.773-2.391-1.939c0.035-1.127,0.933-1.831,2.37-1.832
					c4.893-0.004,9.786-0.001,14.679,0c1.364,0,2.727,0,4.091,0c0.643,0,1.287,0,1.93,0v-59.826c-7.281,0-14.562-0.001-21.843-0.001
					c-0.42,0-0.84,0-1.318,0c0,1.965,0.005,3.729-0.001,5.492c-0.017,4.916-3.059,7.976-7.95,7.996
					c-1.797,0.007-3.593,0.001-5.538,0.001c0,0.677,0,1.155,0,1.634c0.001,7.344,0.002,14.689,0.002,22.033
					c0,18.02-0.002,36.04,0,54.06c0,2.143,1.089,3.701,2.942,4.145c0.536,0.128,1.114,0.112,1.673,0.112
					c10.678,0.003,21.356,0.002,32.034,0.003v-12.607C126.821,240.671,120.047,240.671,113.272,240.671z"/>
				<path fill="#CCCCCC" d="M147.393,176.265c-0.539,0.826-1.095,1.505-1.458,2.274c-0.618,1.312-1.557,1.786-2.976,1.58
					c-0.767-0.111-1.564-0.014-2.347-0.013c-0.255,0.001-0.429,0.055-0.491,0.365c-0.653,3.263-2.577,5.568-5.46,7.113
					c-2.084,1.117-4.335,1.688-6.678,1.923c-0.126,0.013-0.251,0.042-0.465,0.078c0.127,0.222,0.197,0.403,0.315,0.544
					c2.749,3.299,5.506,6.592,8.257,9.89c1.674,2.006,3.333,4.024,5.016,6.022c0.336,0.399,0.267,0.837,0.244,1.277
					c-0.004,0.072-0.214,0.189-0.33,0.19c-1.65,0.013-3.3,0.026-4.95-0.011c-0.226-0.005-0.492-0.241-0.66-0.438
					c-1.359-1.595-2.702-3.203-4.045-4.812c-2.175-2.607-4.34-5.221-6.52-7.823c-1.003-1.198-1.994-2.411-3.066-3.545
					c-0.512-0.541-0.463-1.149-0.497-1.756c-0.041-0.712,0.022-1.429,0.034-2.145c0.006-0.326,0.233-0.31,0.455-0.31
					c1.25-0.001,2.501,0.019,3.75-0.007c2.215-0.046,4.351-0.451,6.237-1.683c1.646-1.075,2.741-2.552,2.982-4.565
					c0.006-0.049,0.012-0.1,0.008-0.149c-0.002-0.032-0.022-0.062-0.074-0.195c-4.877,0-9.794,0-14.864,0
					c0.53-0.818,0.965-1.497,1.409-2.169c0.248-0.375,0.554-0.717,0.759-1.112c0.247-0.477,0.624-0.581,1.103-0.575
					c1.846,0.021,3.692,0.038,5.538,0.044c1.732,0.005,3.465-0.005,5.197-0.01c0.08,0,0.16-0.014,0.311-0.028
					c-0.25-0.736-0.72-1.254-1.254-1.718c-1.228-1.066-2.723-1.591-4.285-1.748c-2.099-0.211-4.219-0.226-6.33-0.306
					c-0.775-0.029-1.551-0.005-2.458-0.005c0.374-0.567,0.677-1.031,0.986-1.491c0.408-0.608,0.846-1.199,1.222-1.826
					c0.242-0.403,0.556-0.489,0.991-0.488c7.517,0.01,15.034,0.007,22.55,0.008c0.562,0,1.123,0,1.799,0
					c-0.483,0.772-0.899,1.458-1.337,2.131c-0.309,0.474-0.63,0.941-0.983,1.382c-0.118,0.148-0.35,0.287-0.531,0.29
					c-1.564,0.02-3.128,0.007-4.691,0.004c-0.48-0.001-0.959,0-1.551,0c0.116,0.238,0.156,0.38,0.242,0.484
					c0.699,0.853,1.148,1.834,1.439,2.884c0.102,0.371,0.287,0.456,0.633,0.454c2.1-0.011,4.2-0.007,6.3-0.007
					C146.997,176.265,147.127,176.265,147.393,176.265z"/>
			</g>
		</g>
		<ellipse opacity="0.3" fill="#D1D3D4" cx="125.481" cy="277.285" rx="39.973" ry="4.393"/>
	</g>
	<g clip-path="url(#SVGID_2_)">
		<g opacity="0.3">
			<path fill="#9B9B9B" d="M583.636,163.457c-0.093,21.696-0.053,43.392-0.054,65.088c0,3.006-0.072,6.015,0.032,9.018
				c0.047,1.342-0.425,1.6-1.662,1.599c-25.305-0.033-50.609-0.025-75.914-0.025c-2.718,0-5.435,0-8.153,0
				c-27.933,0-55.867,0-83.8,0c-1.754,0-1.741-0.002-1.741-1.724c-0.009-25.483-0.025-50.965-0.03-76.448
				c-0.002-8.241,0.071-16.483,0.012-24.724c-0.029-4.064,3.026-6.516,6.516-6.514c52.748,0.034,105.496,0.022,158.243,0.025
				c3.961,0,6.453,2.423,6.484,6.354c0.037,4.722-0.008,9.445,0.028,14.167 M579.04,161.122 M578.757,157.527
				c-0.001-1.657-0.001-3.313-0.001-4.97c0-4.989,0.001-9.979-0.001-14.968c-0.001-1.926-0.003-1.929-1.867-1.93
				c-3.965-0.002-7.93,0.002-11.894,0.002c-48.646,0-97.293,0-145.939,0.001c-1.882,0-1.886,0.007-1.886,1.908
				c0,31.273,0,62.545,0.001,93.818c0,1.82,0.005,1.819,1.806,1.819c25.525,0,51.05-0.001,76.574-0.001c27.085,0,54.171,0,81.256,0
				c1.943,0,1.947,0,1.947-1.946c0.001-21.695-0.004-43.39,0.023-65.085c0.001-0.825-0.094-1.214,0.097-2.195 M497.916,130.887
				c-0.972,0.027-1.821,0.936-1.798,1.922c0.025,1.064,0.811,1.81,1.887,1.79c1.061-0.02,1.818-0.812,1.794-1.879
				C499.777,131.729,498.885,130.86,497.916,130.887z"/>
			<path fill="#FFFFFF" d="M579.04,161.122c-0.131,0.043-0.261,0.087-0.392,0.13c0.228,0.844,0.061,2.125,0.224,2.728
				c-0.191,0.981-0.096,1.37-0.097,2.195c-0.026,21.695-0.021,43.39-0.023,65.085c0,1.946-0.004,1.946-1.947,1.946
				c-27.085,0-54.171,0-81.256,0c-25.525,0-51.05,0.001-76.574,0.001c-1.801,0-1.806,0-1.806-1.819
				c-0.001-31.273-0.002-62.545-0.001-93.818c0-1.902,0.004-1.908,1.886-1.908c48.646-0.001,97.293-0.001,145.939-0.001
				c3.965,0,7.93-0.003,11.894-0.002c1.864,0.001,1.866,0.004,1.867,1.93c0.001,4.989,0,9.979,0.001,14.968
				c0,1.657,0,3.313,0.001,4.97"/>
			<g>
				<path fill="#9B9B9B" d="M565.951,249.781"/>
				<path fill="#9B9B9B" d="M562.104,249.992c-0.818,0-1.33,0-1.841,0c-54.474,0-108.948-0.018-163.421,0.043
					c-3.688,0.004-5.962-2.048-6.381-5.512c-0.127-1.047-0.231-2.097-0.367-3.335c0.667,0,1.142,0,1.617,0
					c29.976,0,59.952-0.004,89.928,0.028c0.577,0.001,1.144,0.449,1.731,0.641c0.914,0.299,1.839,0.79,2.763,0.797
					c7.883,0.065,15.768,0.081,23.65-0.007c1.018-0.011,2.022-0.717,3.045-1.064c0.514-0.174,1.055-0.378,1.584-0.379
					c24.898-0.019,49.797-0.017,74.695-0.017c4.989,0,9.977,0,14.966,0.001c0.484,0,0.969,0,1.631,0
					c0.098,2.335-0.136,4.466-1.24,6.335c-1.014,1.716-2.67,2.483-4.716,2.478c-10.333-0.024-20.667-0.01-31.001-0.013
					c-0.434,0-0.867-0.036-1.381-0.058"/>
				<path fill="#9B9B9B" d="M583.378,153.015c0.089,0.726,0.271,1.178,0.156,1.534c-0.159,0.495-0.526,0.931-0.857,1.351
					c-0.027,0.034-0.655-0.235-0.667-0.389c-0.043-0.558-0.041-1.162,0.144-1.677C582.256,153.551,582.757,153.411,583.378,153.015z
					"/>
				<path fill="#9B9B9B" d="M497.916,130.887c0.969-0.027,1.861,0.842,1.883,1.833c0.024,1.067-0.733,1.859-1.794,1.879
					c-1.076,0.02-1.862-0.726-1.887-1.79C496.095,131.823,496.944,130.914,497.916,130.887z M498.004,133.994
					c0.35-0.591,0.731-0.949,0.696-1.262c-0.029-0.264-0.52-0.617-0.842-0.658c-0.199-0.025-0.673,0.482-0.648,0.71
					C497.246,133.125,497.611,133.433,498.004,133.994z"/>
				<path fill="#9B9B9B" d="M498.004,133.994c-0.393-0.561-0.758-0.869-0.794-1.211c-0.024-0.228,0.45-0.735,0.648-0.71
					c0.322,0.041,0.813,0.394,0.842,0.658C498.735,133.045,498.354,133.403,498.004,133.994z"/>
				<rect x="558.511" y="195.83" fill="#9B9B9B" width="0.113" height="7.585"/>
				<rect x="558.511" y="188.245" fill="#9B9B9B" width="0.113" height="7.585"/>
				<rect x="558.511" y="210.999" fill="#9B9B9B" width="0.113" height="7.585"/>
				<rect x="558.511" y="157.906" fill="#9B9B9B" width="0.113" height="7.585"/>
				<rect x="558.511" y="203.414" fill="#9B9B9B" width="0.113" height="7.585"/>
				<rect x="558.511" y="173.075" fill="#9B9B9B" width="0.113" height="7.585"/>
				<rect x="558.511" y="165.49" fill="#9B9B9B" width="0.113" height="7.585"/>
				<rect x="558.511" y="180.66" fill="#9B9B9B" width="0.113" height="7.585"/>
				<rect x="528.686" y="218.584" fill="#9B9B9B" width="9.979" height="0.048"/>
				<rect x="508.727" y="218.584" fill="#9B9B9B" width="9.98" height="0.048"/>
				<rect x="518.707" y="218.584" fill="#9B9B9B" width="9.979" height="0.048"/>
				<rect x="498.748" y="218.584" fill="#9B9B9B" width="9.979" height="0.048"/>
				<rect x="538.665" y="218.584" fill="#9B9B9B" width="9.98" height="0.048"/>
				<rect x="488.769" y="218.584" fill="#9B9B9B" width="9.979" height="0.048"/>
				<rect x="548.645" y="218.584" fill="#9B9B9B" width="9.866" height="0.048"/>
				<rect x="448.851" y="218.584" fill="#9B9B9B" width="9.98" height="0.048"/>
				<rect x="438.872" y="218.584" fill="#9B9B9B" width="9.979" height="0.048"/>
				<g>
					<rect x="438.872" y="157.906" fill="#9B9B9B" stroke="#F1F2F2" stroke-miterlimit="10" width="9.979" height="7.585"/>
					<rect x="438.872" y="165.49" fill="#9B9B9B" stroke="#F1F2F2" stroke-miterlimit="10" width="9.979" height="7.585"/>
					<rect x="438.872" y="180.66" fill="#9B9B9B" stroke="#F1F2F2" stroke-miterlimit="10" width="9.979" height="7.585"/>
					<rect x="438.872" y="188.245" fill="#9B9B9B" stroke="#F1F2F2" stroke-miterlimit="10" width="9.979" height="7.585"/>
					<rect x="438.872" y="173.075" fill="#9B9B9B" stroke="#F1F2F2" stroke-miterlimit="10" width="9.979" height="7.585"/>
					<rect x="438.872" y="195.83" fill="#9B9B9B" stroke="#F1F2F2" stroke-miterlimit="10" width="9.979" height="7.585"/>
					<rect x="438.872" y="203.414" fill="#9B9B9B" stroke="#F1F2F2" stroke-miterlimit="10" width="9.979" height="7.585"/>
					<rect x="438.872" y="210.999" fill="#9B9B9B" stroke="#F1F2F2" stroke-miterlimit="10" width="9.979" height="7.585"/>
				</g>
				<rect x="458.83" y="218.584" fill="#9B9B9B" width="9.979" height="0.048"/>
				<rect x="468.81" y="218.584" fill="#9B9B9B" width="9.979" height="0.048"/>
				<rect x="478.789" y="218.584" fill="#9B9B9B" width="9.98" height="0.048"/>
				<g>
					<rect x="478.789" y="203.414" fill="#0075A9" stroke="#F1F2F2" stroke-miterlimit="10" width="9.98" height="7.585"/>
					<rect x="478.789" y="165.49" fill="#0075A9" stroke="#F1F2F2" stroke-miterlimit="10" width="9.98" height="7.585"/>
					<rect x="478.789" y="173.075" fill="#0075A9" stroke="#F1F2F2" stroke-miterlimit="10" width="9.98" height="7.585"/>
					<rect x="478.789" y="180.66" fill="#0075A9" stroke="#F1F2F2" stroke-miterlimit="10" width="9.98" height="7.585"/>
					<rect x="478.789" y="188.245" fill="#0075A9" stroke="#F1F2F2" stroke-miterlimit="10" width="9.98" height="7.585"/>
					<rect x="478.789" y="195.83" fill="#0075A9" stroke="#F1F2F2" stroke-miterlimit="10" width="9.98" height="7.585"/>
					<rect x="478.789" y="157.906" fill="#0075A9" stroke="#F1F2F2" stroke-miterlimit="10" width="9.98" height="7.585"/>
					<rect x="478.789" y="210.999" fill="#0075A9" stroke="#F1F2F2" stroke-miterlimit="10" width="9.98" height="7.585"/>
				</g>
				<g>
					<rect x="458.83" y="203.414" fill="#0075A9" stroke="#F1F2F2" stroke-miterlimit="10" width="9.979" height="7.585"/>
					<rect x="458.83" y="195.83" fill="#0075A9" stroke="#F1F2F2" stroke-miterlimit="10" width="9.979" height="7.585"/>
					<rect x="458.83" y="180.66" fill="#0075A9" stroke="#F1F2F2" stroke-miterlimit="10" width="9.979" height="7.585"/>
					<rect x="458.83" y="188.245" fill="#0075A9" stroke="#F1F2F2" stroke-miterlimit="10" width="9.979" height="7.585"/>
					<rect x="458.83" y="173.075" fill="#0075A9" stroke="#F1F2F2" stroke-miterlimit="10" width="9.979" height="7.585"/>
					<rect x="458.83" y="165.49" fill="#0075A9" stroke="#F1F2F2" stroke-miterlimit="10" width="9.979" height="7.585"/>
					<rect x="458.83" y="210.999" fill="#0075A9" stroke="#F1F2F2" stroke-miterlimit="10" width="9.979" height="7.585"/>
					<rect x="458.83" y="157.906" fill="#0075A9" stroke="#F1F2F2" stroke-miterlimit="10" width="9.979" height="7.585"/>
				</g>
				<g>
					<rect x="468.81" y="203.414" fill="#00608B" stroke="#F1F2F2" stroke-miterlimit="10" width="9.979" height="7.585"/>
					<rect x="468.81" y="165.49" fill="#00608B" stroke="#F1F2F2" stroke-miterlimit="10" width="9.979" height="7.585"/>
					<rect x="468.81" y="173.075" fill="#00608B" stroke="#F1F2F2" stroke-miterlimit="10" width="9.979" height="7.585"/>
					<rect x="468.81" y="188.245" fill="#00608B" stroke="#F1F2F2" stroke-miterlimit="10" width="9.979" height="7.585"/>
					<rect x="468.81" y="195.83" fill="#00608B" stroke="#F1F2F2" stroke-miterlimit="10" width="9.979" height="7.585"/>
					<rect x="468.81" y="180.66" fill="#00608B" stroke="#F1F2F2" stroke-miterlimit="10" width="9.979" height="7.585"/>
					<rect x="468.81" y="210.999" fill="#00608B" stroke="#F1F2F2" stroke-miterlimit="10" width="9.979" height="7.585"/>
					<rect x="468.81" y="157.906" fill="#00608B" stroke="#F1F2F2" stroke-miterlimit="10" width="9.979" height="7.585"/>
				</g>
				<g>
					<rect x="448.851" y="210.999" fill="#00608B" stroke="#F1F2F2" stroke-miterlimit="10" width="9.98" height="7.585"/>
					<rect x="448.851" y="203.414" fill="#00608B" stroke="#F1F2F2" stroke-miterlimit="10" width="9.98" height="7.585"/>
					<rect x="448.851" y="195.83" fill="#00608B" stroke="#F1F2F2" stroke-miterlimit="10" width="9.98" height="7.585"/>
					<rect x="448.851" y="188.245" fill="#00608B" stroke="#F1F2F2" stroke-miterlimit="10" width="9.98" height="7.585"/>
					<rect x="448.851" y="173.075" fill="#00608B" stroke="#F1F2F2" stroke-miterlimit="10" width="9.98" height="7.585"/>
					<rect x="448.851" y="157.906" fill="#00608B" stroke="#F1F2F2" stroke-miterlimit="10" width="9.98" height="7.585"/>
					<rect x="448.851" y="180.66" fill="#00608B" stroke="#F1F2F2" stroke-miterlimit="10" width="9.98" height="7.585"/>
					<rect x="448.851" y="165.49" fill="#00608B" stroke="#F1F2F2" stroke-miterlimit="10" width="9.98" height="7.585"/>
				</g>
				<g>
					<rect x="488.769" y="203.414" fill="#00608B" stroke="#F1F2F2" stroke-miterlimit="10" width="9.979" height="7.585"/>
					<rect x="488.769" y="165.49" fill="#00608B" stroke="#F1F2F2" stroke-miterlimit="10" width="9.979" height="7.585"/>
					<rect x="488.769" y="157.906" fill="#00608B" stroke="#F1F2F2" stroke-miterlimit="10" width="9.979" height="7.585"/>
					<rect x="488.769" y="173.075" fill="#00608B" stroke="#F1F2F2" stroke-miterlimit="10" width="9.979" height="7.585"/>
					<rect x="488.769" y="180.66" fill="#00608B" stroke="#F1F2F2" stroke-miterlimit="10" width="9.979" height="7.585"/>
					<rect x="488.769" y="188.245" fill="#00608B" stroke="#F1F2F2" stroke-miterlimit="10" width="9.979" height="7.585"/>
					<rect x="488.769" y="195.83" fill="#00608B" stroke="#F1F2F2" stroke-miterlimit="10" width="9.979" height="7.585"/>
					<rect x="488.769" y="210.999" fill="#00608B" stroke="#F1F2F2" stroke-miterlimit="10" width="9.979" height="7.585"/>
				</g>
				<g>
					<rect x="548.645" y="210.999" fill="#00608B" stroke="#F1F2F2" stroke-miterlimit="10" width="9.866" height="7.585"/>
					<rect x="548.645" y="203.414" fill="#00608B" stroke="#F1F2F2" stroke-miterlimit="10" width="9.866" height="7.585"/>
					<rect x="548.645" y="195.83" fill="#00608B" stroke="#F1F2F2" stroke-miterlimit="10" width="9.866" height="7.585"/>
					<rect x="548.645" y="173.075" fill="#00608B" stroke="#F1F2F2" stroke-miterlimit="10" width="9.866" height="7.585"/>
					<rect x="548.645" y="188.245" fill="#00608B" stroke="#F1F2F2" stroke-miterlimit="10" width="9.866" height="7.585"/>
					<rect x="548.645" y="180.66" fill="#00608B" stroke="#F1F2F2" stroke-miterlimit="10" width="9.866" height="7.585"/>
					<rect x="548.645" y="157.906" fill="#00608B" stroke="#F1F2F2" stroke-miterlimit="10" width="9.866" height="7.585"/>
					<rect x="548.645" y="165.49" fill="#00608B" stroke="#F1F2F2" stroke-miterlimit="10" width="9.866" height="7.585"/>
				</g>
				<g>
					<rect x="508.727" y="157.906" fill="#00608B" stroke="#F1F2F2" stroke-miterlimit="10" width="9.98" height="7.585"/>
					<rect x="508.727" y="165.49" fill="#00608B" stroke="#F1F2F2" stroke-miterlimit="10" width="9.98" height="7.585"/>
					<rect x="508.727" y="203.414" fill="#00608B" stroke="#F1F2F2" stroke-miterlimit="10" width="9.98" height="7.585"/>
					<rect x="508.727" y="180.66" fill="#00608B" stroke="#F1F2F2" stroke-miterlimit="10" width="9.98" height="7.585"/>
					<rect x="508.727" y="173.075" fill="#00608B" stroke="#F1F2F2" stroke-miterlimit="10" width="9.98" height="7.585"/>
					<rect x="508.727" y="188.245" fill="#00608B" stroke="#F1F2F2" stroke-miterlimit="10" width="9.98" height="7.585"/>
					<rect x="508.727" y="195.83" fill="#00608B" stroke="#F1F2F2" stroke-miterlimit="10" width="9.98" height="7.585"/>
					<rect x="508.727" y="210.999" fill="#00608B" stroke="#F1F2F2" stroke-miterlimit="10" width="9.98" height="7.585"/>
				</g>
				<g>
					<rect x="528.686" y="157.906" fill="#00608B" stroke="#F1F2F2" stroke-miterlimit="10" width="9.979" height="7.585"/>
					<rect x="528.686" y="203.414" fill="#00608B" stroke="#F1F2F2" stroke-miterlimit="10" width="9.979" height="7.585"/>
					<rect x="528.686" y="195.83" fill="#00608B" stroke="#F1F2F2" stroke-miterlimit="10" width="9.979" height="7.585"/>
					<rect x="528.686" y="173.075" fill="#00608B" stroke="#F1F2F2" stroke-miterlimit="10" width="9.979" height="7.585"/>
					<rect x="528.686" y="165.49" fill="#00608B" stroke="#F1F2F2" stroke-miterlimit="10" width="9.979" height="7.585"/>
					<rect x="528.686" y="180.66" fill="#00608B" stroke="#F1F2F2" stroke-miterlimit="10" width="9.979" height="7.585"/>
					<rect x="528.686" y="188.245" fill="#00608B" stroke="#F1F2F2" stroke-miterlimit="10" width="9.979" height="7.585"/>
					<rect x="528.686" y="210.999" fill="#00608B" stroke="#F1F2F2" stroke-miterlimit="10" width="9.979" height="7.585"/>
				</g>
				<g>
					<rect x="518.707" y="157.906" fill="#0075A9" stroke="#F1F2F2" stroke-miterlimit="10" width="9.979" height="7.585"/>
					<rect x="518.707" y="203.414" fill="#0075A9" stroke="#F1F2F2" stroke-miterlimit="10" width="9.979" height="7.585"/>
					<rect x="518.707" y="173.075" fill="#0075A9" stroke="#F1F2F2" stroke-miterlimit="10" width="9.979" height="7.585"/>
					<rect x="518.707" y="180.66" fill="#0075A9" stroke="#F1F2F2" stroke-miterlimit="10" width="9.979" height="7.585"/>
					<rect x="518.707" y="165.49" fill="#0075A9" stroke="#F1F2F2" stroke-miterlimit="10" width="9.979" height="7.585"/>
					<rect x="518.707" y="188.245" fill="#0075A9" stroke="#F1F2F2" stroke-miterlimit="10" width="9.979" height="7.585"/>
					<rect x="518.707" y="195.83" fill="#0075A9" stroke="#F1F2F2" stroke-miterlimit="10" width="9.979" height="7.585"/>
					<rect x="518.707" y="210.999" fill="#0075A9" stroke="#F1F2F2" stroke-miterlimit="10" width="9.979" height="7.585"/>
				</g>
				<g>
					<rect x="498.748" y="203.414" fill="#0075A9" stroke="#F1F2F2" stroke-miterlimit="10" width="9.979" height="7.585"/>
					<rect x="498.748" y="165.49" fill="#0075A9" stroke="#F1F2F2" stroke-miterlimit="10" width="9.979" height="7.585"/>
					<rect x="498.748" y="157.906" fill="#0075A9" stroke="#F1F2F2" stroke-miterlimit="10" width="9.979" height="7.585"/>
					<rect x="498.748" y="173.075" fill="#0075A9" stroke="#F1F2F2" stroke-miterlimit="10" width="9.979" height="7.585"/>
					<rect x="498.748" y="188.245" fill="#0075A9" stroke="#F1F2F2" stroke-miterlimit="10" width="9.979" height="7.585"/>
					<rect x="498.748" y="180.66" fill="#0075A9" stroke="#F1F2F2" stroke-miterlimit="10" width="9.979" height="7.585"/>
					<rect x="498.748" y="195.83" fill="#0075A9" stroke="#F1F2F2" stroke-miterlimit="10" width="9.979" height="7.585"/>
					<rect x="498.748" y="210.999" fill="#0075A9" stroke="#F1F2F2" stroke-miterlimit="10" width="9.979" height="7.585"/>
				</g>
				<g>
					<rect x="438.872" y="150.087" fill="#9B9B9B" stroke="#F1F2F2" stroke-miterlimit="10" width="9.979" height="7.819"/>
					<rect x="448.851" y="150.087" fill="#9B9B9B" stroke="#F1F2F2" stroke-miterlimit="10" width="9.98" height="7.819"/>
					<rect x="498.748" y="150.087" fill="#9B9B9B" stroke="#F1F2F2" stroke-miterlimit="10" width="9.979" height="7.819"/>
					<rect x="508.727" y="150.087" fill="#9B9B9B" stroke="#F1F2F2" stroke-miterlimit="10" width="9.98" height="7.819"/>
					<rect x="528.686" y="150.087" fill="#9B9B9B" stroke="#F1F2F2" stroke-miterlimit="10" width="9.979" height="7.819"/>
					<rect x="518.707" y="150.087" fill="#9B9B9B" stroke="#F1F2F2" stroke-miterlimit="10" width="9.979" height="7.819"/>
					<rect x="468.81" y="150.087" fill="#9B9B9B" stroke="#F1F2F2" stroke-miterlimit="10" width="9.979" height="7.819"/>
					<rect x="458.83" y="150.087" fill="#9B9B9B" stroke="#F1F2F2" stroke-miterlimit="10" width="9.979" height="7.819"/>
					<rect x="488.769" y="150.087" fill="#9B9B9B" stroke="#F1F2F2" stroke-miterlimit="10" width="9.979" height="7.819"/>
					<rect x="478.789" y="150.087" fill="#9B9B9B" stroke="#F1F2F2" stroke-miterlimit="10" width="9.98" height="7.819"/>
					<rect x="548.645" y="150.087" fill="#9B9B9B" stroke="#F1F2F2" stroke-miterlimit="10" width="9.866" height="7.819"/>
					<rect x="538.665" y="150.087" fill="#9B9B9B" stroke="#F1F2F2" stroke-miterlimit="10" width="9.98" height="7.819"/>
				</g>
				<g>
					<rect x="538.665" y="173.075" fill="#0075A9" stroke="#F1F2F2" stroke-miterlimit="10" width="9.98" height="7.585"/>
					<rect x="538.665" y="165.49" fill="#0075A9" stroke="#F1F2F2" stroke-miterlimit="10" width="9.98" height="7.585"/>
					<rect x="538.665" y="157.906" fill="#0075A9" stroke="#F1F2F2" stroke-miterlimit="10" width="9.98" height="7.585"/>
					<rect x="538.665" y="188.245" fill="#0075A9" stroke="#F1F2F2" stroke-miterlimit="10" width="9.98" height="7.585"/>
					<rect x="538.665" y="180.66" fill="#0075A9" stroke="#F1F2F2" stroke-miterlimit="10" width="9.98" height="7.585"/>
					<rect x="538.665" y="195.83" fill="#0075A9" stroke="#F1F2F2" stroke-miterlimit="10" width="9.98" height="7.585"/>
					<rect x="538.665" y="203.414" fill="#0075A9" stroke="#F1F2F2" stroke-miterlimit="10" width="9.98" height="7.585"/>
					<rect x="538.665" y="210.999" fill="#0075A9" stroke="#F1F2F2" stroke-miterlimit="10" width="9.98" height="7.585"/>
				</g>
			</g>
		</g>
		<g>
			<path fill="#9B9B9B" d="M447.887,258.349c-22.96,0-45.92,0-68.88,0c-2.32-1.102-2.988-2.985-2.94-5.462
				c0.112-5.738,0.036-11.479,0.036-17.219c0-0.59,0-1.181,0-1.824c-0.561-0.051-0.905-0.102-1.25-0.11
				c-5.098-0.112-7.005-2.069-7.007-7.217c-0.004-8.026-0.004-16.051,0-24.077c0.001-1.574-0.055-3.154,0.054-4.721
				c0.229-3.287,2.476-5.396,5.757-5.503c0.748-0.024,1.497-0.004,2.445-0.004c0-0.759,0-1.351,0-1.943
				c0.001-10.007-0.005-20.013,0.007-30.02c0.004-3.467,1.461-4.913,4.904-4.914c15.645-0.003,31.289,0.013,46.934-0.027
				c1.351-0.003,2.288,0.443,3.154,1.441c5.359,6.173,10.605,12.454,16.205,18.402c2.684,2.851,3.956,5.766,3.532,9.64
				c-0.262,2.393-0.049,4.838-0.049,7.415c0.746,0,1.293-0.004,1.84,0.001c4.126,0.032,6.399,2.266,6.411,6.425
				c0.027,9.549,0.01,19.099,0.005,28.648c0,0.456-0.033,0.914-0.086,1.367c-0.331,2.802-2.433,4.838-5.243,5.036
				c-0.897,0.063-1.802,0.01-2.926,0.01c0,0.792,0,1.383,0,1.975c0,5.74-0.078,11.481,0.036,17.219
				C450.875,255.366,450.205,257.246,447.887,258.349z M426.899,159.457c-15.704,0-31.161,0-46.677,0c0,10.932,0,21.764,0,32.652
				c22.202,0,44.303,0,66.449,0c0-3.367,0-6.636,0-10.061c-0.649,0-1.195,0-1.741,0c-4.975,0-9.949,0.005-14.924-0.002
				c-2.554-0.003-3.104-0.568-3.106-3.16c-0.004-4.619-0.001-9.238-0.001-13.858C426.899,163.208,426.899,161.388,426.899,159.457z
				 M446.687,233.827c-22.188,0-44.29,0-66.48,0c0,6.463,0,12.831,0,19.292c22.188,0,44.29,0,66.48,0
				C446.687,246.663,446.687,240.294,446.687,233.827z M424.855,196.688c-0.029,0.318-0.071,0.428-0.043,0.516
				c3.055,9.567,6.124,19.129,9.159,28.702c0.253,0.798,0.697,0.973,1.449,0.956c1.776-0.041,3.558-0.09,5.328,0.016
				c1.174,0.07,1.669-0.354,2.032-1.456c2.477-7.515,5.029-15.005,7.552-22.504c0.674-2.002,1.332-4.01,2.07-6.235
				c-1.698,0-3.158-0.03-4.617,0.006c-3.11,0.076-2.436-0.637-3.394,2.597c-2.013,6.793-3.942,13.611-5.936,20.523
				c-0.137-0.505-0.264-0.977-0.393-1.448c-1.877-6.847-3.741-13.698-5.665-20.531c-0.126-0.447-0.699-1.07-1.09-1.09
				C429.189,196.632,427.06,196.688,424.855,196.688z M401.812,225.535c5.729,2.085,11.296,2.813,16.787-0.327
				c1.674-0.957,2.823-2.438,3.449-4.299c1.61-4.784-0.477-9.009-5.598-11.267c-1.716-0.757-3.46-1.45-5.16-2.239
				c-1.316-0.611-2.393-1.515-2.057-3.16c0.323-1.583,1.613-2.314,3.04-2.274c2.492,0.071,4.976,0.441,7.71,0.709
				c0.368-1.335,0.858-3.112,1.381-5.008c-5.017-1.83-9.891-2.351-14.592,0.174c-5.9,3.169-6.091,10.669-0.453,14.285
				c1.227,0.787,2.621,1.315,3.943,1.952c1.321,0.636,2.698,1.172,3.958,1.911c1.029,0.604,1.485,1.64,1.301,2.875
				c-0.184,1.241-0.95,2.065-2.1,2.356c-1.064,0.269-2.225,0.497-3.288,0.348c-2.319-0.324-4.603-0.899-6.988-1.39
				C402.747,221.785,402.319,223.5,401.812,225.535z M397.529,220.805c-5.203,1.063-10.411,1.988-13.755-3.188
				c-2.452-3.795-2.481-8.202,0.134-11.949c3.448-4.941,8.522-4.143,13.63-2.863c0.446-1.748,0.889-3.487,1.322-5.185
				c-2.193-1.108-5.063-1.557-8.629-1.408c-12.186,0.506-19.311,13.423-13.269,24.055c3.489,6.139,14.379,9.283,20.846,5.985
				c0.295-0.15,0.607-0.695,0.563-1.007C398.166,223.797,397.838,222.367,397.529,220.805z"/>
			<path fill="#CCCCCC" d="M424.855,196.688c2.206,0,4.334-0.057,6.454,0.051c0.391,0.02,0.964,0.643,1.09,1.09
				c1.924,6.834,3.787,13.685,5.665,20.531c0.129,0.471,0.256,0.943,0.393,1.448c1.994-6.912,3.923-13.73,5.936-20.523
				c0.958-3.234,0.284-2.52,3.394-2.597c1.458-0.036,2.919-0.006,4.617-0.006c-0.738,2.225-1.397,4.233-2.07,6.235
				c-2.523,7.499-5.075,14.989-7.552,22.504c-0.363,1.102-0.858,1.526-2.032,1.456c-1.771-0.106-3.553-0.057-5.328-0.016
				c-0.753,0.017-1.196-0.158-1.449-0.956c-3.035-9.573-6.104-19.136-9.159-28.702C424.784,197.117,424.825,197.007,424.855,196.688
				z"/>
			<path fill="#CCCCCC" d="M401.812,225.535c0.507-2.034,0.934-3.75,1.333-5.352c2.384,0.49,4.669,1.065,6.988,1.39
				c1.063,0.149,2.225-0.079,3.288-0.348c1.15-0.291,1.916-1.115,2.1-2.356c0.184-1.235-0.272-2.271-1.301-2.875
				c-1.259-0.739-2.637-1.276-3.958-1.911c-1.322-0.636-2.716-1.165-3.943-1.952c-5.637-3.616-5.447-11.116,0.453-14.285
				c4.701-2.525,9.575-2.004,14.592-0.174c-0.523,1.896-1.013,3.673-1.381,5.008c-2.734-0.269-5.218-0.638-7.71-0.709
				c-1.427-0.041-2.717,0.691-3.04,2.274c-0.336,1.646,0.741,2.55,2.057,3.16c1.7,0.789,3.445,1.482,5.16,2.239
				c5.121,2.259,7.209,6.483,5.598,11.267c-0.626,1.861-1.775,3.342-3.449,4.299C413.108,228.348,407.542,227.619,401.812,225.535z"
				/>
			<path fill="#CCCCCC" d="M397.529,220.805c0.309,1.562,0.636,2.992,0.841,4.439c0.044,0.312-0.268,0.857-0.563,1.007
				c-6.468,3.299-17.357,0.155-20.846-5.985c-6.043-10.631,1.083-23.549,13.269-24.055c3.567-0.148,6.436,0.301,8.629,1.408
				c-0.433,1.698-0.876,3.437-1.322,5.185c-5.108-1.281-10.182-2.078-13.63,2.863c-2.614,3.747-2.586,8.155-0.134,11.949
				C387.119,222.794,392.327,221.869,397.529,220.805z"/>
			<path fill="#00608B" d="M380.222,159.457c0,10.932,0,21.764,0,32.652c10.401,0,20.78,0,31.152,0v-32.652
				C400.956,159.457,390.601,159.457,380.222,159.457z"/>
			<path fill="#0075A9" d="M446.671,182.048c-0.649,0-1.195,0-1.741,0c-4.974,0-9.949,0.005-14.923-0.002
				c-2.554-0.003-3.104-0.568-3.106-3.16c-0.004-4.619-0.001-9.238-0.001-13.858c0-1.82,0-3.64,0-5.571c-5.199,0-10.369,0-15.525,0
				v32.652c11.767,0,23.526,0,35.297,0C446.671,188.741,446.671,185.473,446.671,182.048z"/>
			<path fill="#00608B" d="M380.207,233.827c0,6.463,0,12.831,0,19.292c10.402,0,20.785,0,31.167,0v-19.292
				C400.992,233.827,390.609,233.827,380.207,233.827z"/>
			<path fill="#0075A9" d="M446.687,233.827c-11.786,0-23.549,0-35.313,0v19.292c11.763,0,23.526,0,35.313,0
				C446.687,246.663,446.687,240.294,446.687,233.827z"/>
		</g>
		<ellipse opacity="0.3" fill="#D1D3D4" cx="413.652" cy="277.285" rx="39.973" ry="4.393"/>
	</g>
	<g clip-path="url(#SVGID_2_)">
		<g>
			<defs>
				<polygon id="SVGID_767_" points="849.992,524.998 1303.656,524.998 1303.656,37.745 1022.448,37.745 				"/>
			</defs>
			<clipPath id="SVGID_4_">
				<use xlink:href="#SVGID_767_"  overflow="visible"/>
			</clipPath>
			<g opacity="0.3" clip-path="url(#SVGID_4_)">
				<path fill="#CCCCCC" d="M1147.443,132.214c20.526,0,41.051-0.001,61.577,0.002c1.761,0,3.124,1.09,3.398,2.685
					c0.3,1.745-0.541,3.308-2.096,3.939c-0.658,0.267-1.341,0.21-2.018,0.21c-19.413,0.004-38.826,0.003-58.24,0.003
					c-21.1,0-42.199,0.001-63.299-0.003c-0.643,0-1.293,0.06-1.922-0.147c-1.584-0.522-2.574-2.14-2.327-3.804
					c0.254-1.717,1.641-2.883,3.458-2.883C1106.464,132.213,1126.953,132.214,1147.443,132.214z"/>
				<path fill="#CCCCCC" d="M1088.636,226.493c-2.125,0.003-4.225,0.104-5.975-1.4c-1.103-2.145-0.795-4.461-0.796-6.732
					c-0.009-23.973-0.006-47.945-0.004-71.918c0-2.417,1.169-4.124,3.204-4.651c0.805-0.209,1.639-0.161,2.463-0.161
					c26.951-0.002,53.903-0.001,80.854-0.001c13.242,0,26.485,0.013,39.727-0.013c2.129-0.004,3.917,0.488,4.907,2.561
					c0.229,0.48,0.353,1.009,0.525,1.516c-0.383,0.396-0.197,0.889-0.198,1.333c-0.01,24.865-0.008,49.73-0.013,74.595
					c0,0.606,0.058,1.215-0.113,1.817c-0.539,1.898-2.123,3.038-4.301,3.038c-20.093,0.003-40.186,0.002-60.279,0.003
					 M1147.883,143.257c-20.203,0-40.406,0-60.61,0c-2.99,0-3.722,0.741-3.722,3.767c0,17.476-0.001,34.951,0,52.427
					c0,7.464-0.002,14.928,0.005,22.392c0.002,1.906,0.784,2.826,2.659,3.165c0.351,0.063,0.714,0.073,1.072,0.08
					c2.797,0.056,5.595,0.153,8.392,0.15c21.207-0.025,42.413,0.088,63.62-0.066c12.882-0.094,25.765-0.056,38.648-0.079
					c3.589-0.007,7.177-0.004,10.765-0.038c2.381-0.023,3.054-0.681,3.197-3.07c0.067-1.11,0.087-2.223,0.087-3.335
					c-0.003-24.222-0.012-48.444-0.013-72.666c0-0.905-0.41-1.559-1.052-2.14c-0.716-0.649-1.577-0.587-2.438-0.587
					C1188.29,143.258,1168.087,143.257,1147.883,143.257z"/>
				<path fill="#9B9B9B" d="M1096.048,189.364c0-9.081,0.01-18.162-0.017-27.243c-0.002-0.81,0.154-1.1,1.048-1.092
					c5.276,0.047,10.552,0.037,15.828,0.007c0.745-0.004,0.97,0.189,0.969,0.953c-0.019,18.305-0.016,36.611,0.004,54.916
					c0.001,0.733-0.175,0.985-0.949,0.98c-5.312-0.032-10.624-0.039-15.936,0.005c-0.879,0.007-0.97-0.332-0.969-1.068
					c0.021-9.153,0.014-18.305,0.014-27.458H1096.048z"/>
				<path fill="#9B9B9B" d="M1142.109,202.549c0,4.735-0.015,9.47,0.016,14.204c0.005,0.734-0.172,0.983-0.946,0.979
					c-5.308-0.032-10.617-0.027-15.926-0.004c-0.669,0.003-0.929-0.143-0.927-0.878c0.025-9.577,0.028-19.154,0.003-28.731
					c-0.002-0.762,0.294-0.86,0.939-0.858c5.309,0.019,10.617,0.025,15.926-0.011c0.791-0.005,0.933,0.274,0.929,0.988
					C1142.095,193.008,1142.109,197.778,1142.109,202.549z"/>
				<path fill="#00608B" d="M1170.355,206.455c0,3.407-0.025,6.814,0.018,10.22c0.01,0.803-0.212,1.032-1.021,1.026
					c-5.271-0.035-10.543-0.033-15.815-0.002c-0.745,0.004-0.968-0.187-0.965-0.951c0.029-6.885,0.026-13.771,0.003-20.656
					c-0.002-0.69,0.175-0.913,0.891-0.91c5.307,0.029,10.615,0.036,15.922-0.005c0.86-0.007,0.989,0.305,0.981,1.057
					C1170.336,199.641,1170.355,203.048,1170.355,206.455z"/>
				<path fill="#00608B" d="M1189.766,204.496c2.617,0,5.234,0.025,7.849-0.016c0.749-0.012,1.072,0.109,1.06,0.976
					c-0.05,3.763-0.035,7.527-0.008,11.29c0.005,0.683-0.165,0.927-0.898,0.922c-5.34-0.031-10.681-0.033-16.022,0.001
					c-0.788,0.005-0.939-0.268-0.932-0.985c0.032-3.727,0.037-7.456-0.003-11.183c-0.009-0.783,0.168-1.044,0.997-1.027
					C1184.46,204.531,1187.113,204.496,1189.766,204.496z"/>
				<path fill="none" d="M1142.109,202.549c0-4.771-0.014-9.541,0.015-14.312c0.004-0.714-0.138-0.994-0.929-0.988
					c-5.308,0.036-10.617,0.03-15.926,0.011c-0.645-0.002-0.941,0.096-0.939,0.858c0.025,9.577,0.022,19.154-0.003,28.731
					c-0.002,0.736,0.258,0.881,0.927,0.878c5.309-0.023,10.617-0.028,15.926,0.004c0.774,0.005,0.951-0.245,0.946-0.979
					C1142.094,212.019,1142.109,207.284,1142.109,202.549z"/>
				<path fill="none" d="M1170.355,206.455c0-3.407-0.02-6.814,0.015-10.22c0.008-0.751-0.121-1.063-0.981-1.057
					c-5.307,0.042-10.615,0.034-15.922,0.005c-0.716-0.004-0.893,0.22-0.891,0.91c0.023,6.885,0.026,13.771-0.003,20.656
					c-0.003,0.764,0.22,0.955,0.965,0.951c5.271-0.031,10.543-0.034,15.815,0.002c0.809,0.005,1.031-0.223,1.021-1.026
					C1170.331,213.269,1170.356,209.862,1170.355,206.455z"/>
				<path fill="none" d="M1113.877,161.99c0.001-0.764-0.224-0.958-0.969-0.953c-5.276,0.031-10.552,0.04-15.828-0.007
					c-0.894-0.008-1.05,0.282-1.048,1.092c0.026,9.081,0.017,18.162,0.017,27.243h-0.005c-0.002,9.153,0.005,18.305-0.016,27.458
					c-0.002,0.736,0.089,1.075,0.969,1.068c5.312-0.044,10.624-0.037,15.936-0.005c0.774,0.005,0.95-0.247,0.949-0.98
					C1113.861,198.6,1113.858,180.295,1113.877,161.99z"/>
				<path fill="none" d="M1197.615,204.48c-2.616,0.041-5.233,0.016-7.849,0.016c-2.652,0-5.306,0.035-7.957-0.021
					c-0.829-0.018-1.006,0.243-0.997,1.027c0.04,3.727,0.035,7.455,0.003,11.183c-0.006,0.718,0.145,0.991,0.932,0.985
					c5.34-0.034,10.681-0.032,16.022-0.001c0.733,0.004,0.903-0.239,0.898-0.922c-0.027-3.763-0.042-7.527,0.008-11.29
					C1198.687,204.588,1198.364,204.468,1197.615,204.48z"/>
				<path fill="#FFFFFF" d="M1087.274,143.257c-2.99,0-3.722,0.741-3.722,3.767c0,17.476-0.001,34.951,0,52.427
					c0,7.464-0.003,14.928,0.005,22.392c0.002,1.906,0.784,2.826,2.659,3.165c0.351,0.063,0.714,0.073,1.072,0.08
					c2.797,0.056,5.595,0.153,8.392,0.15c16.419-0.02,32.838,0.043,49.257,0.001v-81.982
					C1125.715,143.257,1106.494,143.257,1087.274,143.257z M1112.932,217.885c-5.312-0.032-10.624-0.039-15.936,0.005
					c-0.879,0.007-0.97-0.332-0.969-1.068c0.021-9.153,0.014-18.305,0.014-27.458h0.007c0-9.081,0.01-18.162-0.017-27.243
					c-0.002-0.81,0.154-1.1,1.048-1.092c5.276,0.047,10.552,0.037,15.828,0.007c0.745-0.004,0.97,0.189,0.969,0.953
					c-0.019,18.305-0.016,36.611,0.004,54.916C1113.882,217.638,1113.706,217.89,1112.932,217.885z M1141.179,217.732
					c-5.308-0.032-10.617-0.027-15.926-0.004c-0.669,0.003-0.929-0.143-0.927-0.878c0.025-9.577,0.028-19.154,0.003-28.731
					c-0.002-0.762,0.294-0.86,0.939-0.858c5.309,0.019,10.617,0.025,15.926-0.011c0.791-0.005,0.933,0.274,0.929,0.988
					c-0.028,4.77-0.015,9.541-0.015,14.312c0,4.735-0.015,9.47,0.016,14.204C1142.13,217.487,1141.953,217.736,1141.179,217.732z"/>
				<path fill="#FFFFFF" d="M1211.983,145.983c0-0.905-0.41-1.559-1.052-2.14c-0.716-0.649-1.577-0.587-2.438-0.587
					c-20.203,0.001-40.406,0.001-60.61,0.001c-0.982,0-1.965,0-2.947,0v81.982c4.788-0.012,9.575-0.032,14.363-0.067
					c12.882-0.094,25.765-0.056,38.648-0.079c3.589-0.007,7.177-0.004,10.765-0.038c2.381-0.023,3.054-0.681,3.197-3.07
					c0.067-1.11,0.087-2.223,0.087-3.335C1211.994,194.428,1211.984,170.206,1211.983,145.983z M1169.353,217.701
					c-5.271-0.035-10.543-0.033-15.815-0.002c-0.745,0.004-0.968-0.187-0.965-0.951c0.029-6.885,0.026-13.771,0.003-20.656
					c-0.002-0.69,0.175-0.913,0.891-0.91c5.307,0.029,10.615,0.036,15.922-0.005c0.86-0.007,0.989,0.305,0.981,1.057
					c-0.035,3.406-0.015,6.813-0.015,10.22c0,3.407-0.025,6.814,0.019,10.22C1170.384,217.478,1170.162,217.707,1169.353,217.701z
					 M1198.667,216.746c0.005,0.683-0.165,0.927-0.898,0.922c-5.34-0.031-10.681-0.033-16.022,0.001
					c-0.788,0.005-0.939-0.268-0.932-0.985c0.032-3.727,0.037-7.456-0.003-11.183c-0.009-0.783,0.168-1.044,0.997-1.027
					c2.651,0.056,5.304,0.021,7.957,0.021c2.617,0,5.234,0.025,7.849-0.016c0.749-0.012,1.072,0.109,1.06,0.976
					C1198.625,209.218,1198.64,212.982,1198.667,216.746z"/>
			</g>
		</g>
		<g>
			<path fill="#9B9B9B" d="M1062.316,202.551l30.2-37.302c-8.283-6.753-18.854-10.808-30.375-10.808v48.109H1062.316z"/>
			<path fill="#0075A9" d="M1089.543,172.682l-30.2,37.302l-0.064,0.079l-0.111,0.137v-0.216v-48.109
				c-26.57,0-48.11,21.539-48.11,48.109c0,15.147,7.007,28.651,17.948,37.47c8.252,6.651,18.739,10.639,30.162,10.639
				c16.186,0,30.493-8.001,39.214-20.255c5.594-7.862,8.896-17.47,8.896-27.854C1107.277,194.935,1100.363,181.504,1089.543,172.682
				z"/>
		</g>
		<ellipse opacity="0.3" fill="#D1D3D4" cx="1059.078" cy="277.285" rx="39.973" ry="4.393"/>
	</g>
	<g clip-path="url(#SVGID_2_)">
		<g opacity="0.3">
			<path fill="#0075A9" d="M903.109,225.117c3.39,0.028,6.786,0.182,10.169,0.036c1.964-0.085,2.5,0.644,2.458,2.457
				c-0.089,3.801-0.149,7.609-0.005,11.406c0.081,2.143-0.823,2.587-2.733,2.565c-6.677-0.076-13.355-0.017-20.032-0.013
				c-37.718,0.021-75.437,0.017-113.155,0.116c-2.437,0.006-3.19-0.606-3.042-3.066c0.222-3.686,0.139-7.399,0.014-11.095
				c-0.063-1.871,0.5-2.531,2.433-2.464c3.28,0.115,6.57-0.048,9.856-0.094c3.805,0.027,7.609,0.053,11.414,0.08
				c16.512,0.053,33.023,0.12,49.534,0.156c13.938,0.031,27.878-0.143,41.812,0.34C895.564,224.674,899.363,225.609,903.109,225.117
				z"/>
			<path fill="#9B9B9B" d="M800.485,225.044c-3.805-0.027-7.609-0.053-11.414-0.08c-0.001-29.045,0.013-58.091-0.029-87.136
				c-0.004-2.736,0.426-5.264,3.016-6.574c4.447-2.249,7.993,0.316,8.418,5.248c0.334,3.871,0.151,7.798,0.002,11.693
				c-0.078,2.039,0.532,2.585,2.586,2.429c3.164-0.24,6.365-0.197,9.537-0.036c1.825,0.093,2.425-0.573,2.274-2.251
				c-0.027-0.305,0.008-0.615,0.016-0.923c0.112-4.484,1.271-6.293,4.94-7.246c3.443-0.894,5.587,0.94,7.14,3.966
				c0.949-1.119,1.638-2.322,2.663-3.053c1.838-1.312,3.941-1.682,6.122-0.68c2.395,1.1,3.479,3.048,3.694,5.591
				c0.382,4.524,0.39,4.525,4.939,4.575c2.971,0.033,5.942,0.06,8.912,0.09c0.002,2.457,0.351,4.923-0.179,7.366
				c-2.933-0.792-5.918-0.291-8.878-0.327c-4.518-0.055-4.529,0-4.753,4.384c-0.143,2.799-1.263,4.986-3.961,6.049
				c-2.562,1.01-4.844,0.367-6.738-1.586c-0.604-0.623-1.08-1.371-1.65-2.106c-3.033,4.569-7.377,5.35-10.575,2.091
				c-1.422-1.45-1.887-3.281-1.635-5.093c0.457-3.282-0.917-4.088-3.909-3.799c-2.444,0.236-4.94,0.19-7.393,0.01
				c-2.365-0.173-3.19,0.492-3.145,3.042c0.167,9.351-0.002,18.707,0.095,28.059c0.061,5.91-1.41,5.448,5.586,5.452
				c0.003,2.402,0.005,4.805,0.008,7.207c-0.613-0.004-1.241,0.075-1.837-0.027c-3.013-0.511-4.033,0.541-3.905,3.737
				C800.7,211.749,800.496,218.401,800.485,225.044z"/>
			<path fill="#9B9B9B" d="M903.109,225.117c-3.746,0.492-7.545-0.443-11.277,0.424c0.009-5.647,0.078-11.295-0.003-16.941
				c-0.034-2.327,1.074-5.389-0.558-6.772c-1.35-1.144-4.294-0.409-6.532-0.507c-0.513-0.022-1.026-0.047-1.538-0.07
				c0.055-2.313,0.11-4.627,0.164-6.941c1.92-0.066,3.886-0.421,5.747-0.124c2.289,0.366,2.827-0.341,2.805-2.517
				c-0.098-9.434-0.055-18.87-0.058-28.306c-0.002-5.868,0.002-5.794-5.86-5.769c-1.942,0.008-2.81,0.47-2.65,2.581
				c0.146,1.921,0.237,3.958-1.002,5.639c-1.673,2.27-3.926,3.274-6.729,2.532c-2.766-0.732-4.513-3.198-4.537-6.535
				c-0.033-4.53,0.503-4.168-4.402-4.16c-0.41,0.001-0.82,0.03-1.23,0.046c0.001-2.4,0.003-4.8,0.004-7.2
				c0.41,0.026,0.821,0.074,1.231,0.074c5.042-0.007,4.333,0.439,4.383-4.112c0.042-3.823,2.536-6.502,6.115-6.602
				c3.447-0.096,6.096,2.716,6.2,6.585c0.014,0.514,0.071,1.038-0.004,1.54c-0.305,2.035,0.179,2.825,2.571,2.685
				c5.919-0.346,5.977-0.186,5.905-6.096c-0.028-2.336-0.439-4.666-0.483-7.003c-0.074-3.919,2.635-7,6.029-7.052
				c3.48-0.053,5.752,2.587,5.755,6.868c0.015,19.428-0.002,38.856-0.013,58.285C903.138,205.486,903.121,215.302,903.109,225.117z"
				/>
			<path fill="#0075A9" d="M865.454,150.499c-0.001,2.4-0.003,4.8-0.004,7.2c0.004,1.536,0.06,3.074,0.001,4.607
				c-0.136,3.53-2.532,6.039-5.892,6.241c-3.162,0.191-5.878-2.36-6.227-5.934c-0.149-1.523-0.143-3.06-0.208-4.591
				c0.53-2.444,0.181-4.909,0.179-7.366c0.023-2.047-0.234-4.105,0.3-6.13c0.829-3.144,3.264-4.913,6.346-4.586
				c3.107,0.33,5.297,2.518,5.492,5.632C865.543,147.208,865.455,148.856,865.454,150.499z"/>
			<path fill="#0075A9" d="M806.169,194.199c0.163-2.218-0.454-4.533,0.458-6.641c0.737-1.704,1.489-3.545,3.864-3.735
				c2.624-0.21,5.109-0.186,6.763,2.315c0.446,0.675,0.804,1.408,1.202,2.113c-0.039,6.441-0.078,12.884-0.117,19.326
				c-1.916,3.652-4.353,5.104-7.434,4.429c-3.081-0.675-4.67-3.111-4.716-7.24c-0.012-1.12-0.009-2.24-0.013-3.36
				C806.174,199.004,806.172,196.601,806.169,194.199z"/>
			<path fill="#0075A9" d="M871.03,188.12c1.798-3.463,4.971-5.114,8.202-4.267c2.691,0.705,4.081,3.077,4.133,7.07
				c0.015,1.128,0.001,2.256,0,3.386c-0.055,2.316-0.109,4.63-0.164,6.943c0.021,1.424,0.081,2.849,0.055,4.274
				c-0.063,3.491-1.681,5.711-4.566,6.338c-3.382,0.735-5.4-0.302-7.137-3.654c-0.136-0.263-0.335-0.494-0.504-0.739
				C871.043,201.02,871.037,194.57,871.03,188.12z"/>
			<path fill="#9B9B9B" d="M871.03,188.12c0.007,6.45,0.013,12.9,0.02,19.349c-1.638,3.729-4.005,5.181-7.323,4.495
				c-3.175-0.657-5.289-3.258-5.009-7.038c0.231-3.115-0.865-3.863-3.763-3.62c-3.162,0.265-6.366,0.166-9.544,0.04
				c-1.938-0.077-2.589,0.693-2.393,2.511c0.077,0.71,0.028,1.437-0.009,2.154c-0.152,3.004-1.73,5.11-4.517,5.933
				c-2.811,0.829-5.208-0.219-6.928-2.656c-0.226-0.321-0.508-0.602-0.901-1.061c-1.08,1.661-2.075,3.172-3.9,3.867
				c-3.321,1.264-6.167-0.225-8.422-4.514c0.038-6.443,0.078-12.886,0.117-19.327c3.031-4.872,5.62-5.44,10.382-2.129
				c1.297,0.901,1.962,0.015,2.932-0.509c2.088-1.129,3.715-3.569,6.75-2.091c3.388,1.649,4.823,4.224,4.542,7.887
				c-0.008,0.102,0.009,0.206-0.003,0.308c-0.209,1.805,0.484,2.602,2.405,2.557c3.691-0.085,7.388-0.049,11.078,0.057
				c1.769,0.051,2.361-0.676,2.293-2.362c-0.04-0.993-0.345-1.947-0.038-3.011c0.981-3.401,2.859-5.422,5.755-5.491
				C867.792,183.389,869.95,185.065,871.03,188.12z"/>
		</g>
		<g>
			<path fill="#00608B" d="M803.114,218.334c0,10.42,0,20.841,0,31.261c-8.367,2.834-16.708,5.748-25.123,8.432
				c-1.586,0.506-3.605,0.539-5.183,0.035c-7.466-2.386-14.829-5.093-22.279-7.533c-1.265-0.414-2.878-0.43-4.15-0.041
				c-4.444,1.358-9.012,2.557-13.161,4.581c-8.018,3.911-15.659,3.804-23.685-0.018c-5.153-2.454-10.724-4.033-16.108-6.004
				c0-10.238,0-20.475,0-30.713c1.052-0.521,2.066-1.148,3.163-1.545c7.031-2.543,14.048-5.135,21.145-7.484
				c2.144-0.71,2.696-1.74,2.659-3.893c-0.135-8.03,0.028-16.066-0.105-24.096c-0.039-2.368,0.641-3.569,2.984-4.353
				c7.606-2.542,15.1-5.421,22.707-7.958c1.489-0.497,3.44-0.469,4.93,0.042c7.672,2.63,15.243,5.557,22.898,8.24
				c1.957,0.686,2.671,1.679,2.642,3.761c-0.11,7.849,0.099,15.703-0.12,23.547c-0.079,2.845,0.768,4.106,3.491,5.044
				C787.653,212.341,795.358,215.41,803.114,218.334z M744.876,223.6c-6.767,2.481-13.092,4.774-19.384,7.155
				c-0.529,0.2-1.185,0.989-1.191,1.511c-0.08,6.812-0.053,13.624-0.053,20.871c6.845-2.332,13.301-4.503,19.718-6.781
				c0.448-0.159,0.866-1.113,0.871-1.701C744.898,237.812,744.876,230.968,744.876,223.6z M751.325,213.206
				c6.829-2.304,13.12-4.404,19.383-6.582c0.46-0.16,1.036-0.869,1.04-1.328c0.066-7.067,0.046-14.135,0.046-21.56
				c-6.696,2.461-13.015,4.757-19.299,7.145c-0.514,0.195-1.115,1.023-1.121,1.563C751.298,199.174,751.325,205.905,751.325,213.206
				z M778.289,253.095c7.114-2.41,13.729-4.651,20.269-6.867c0-7.563,0-14.901,0-22.544c-6.554,2.411-12.877,4.708-19.163,7.103
				c-0.499,0.19-1.053,1.046-1.059,1.597C778.264,239.125,778.289,245.867,778.289,253.095z M702.193,219.785
				c0.003,0.196,0.006,0.392,0.009,0.588c3.876,1.339,7.911,2.345,11.591,4.097c5.27,2.51,10.16,2.35,15.332-0.197
				c3.366-1.657,7.025-2.718,11.284-4.322c-6.577-2.457-12.361-4.63-18.162-6.76c-0.47-0.173-1.104-0.204-1.569-0.039
				C714.507,215.336,708.352,217.567,702.193,219.785z M756.153,219.778c0.014,0.204,0.027,0.407,0.041,0.611
				c3.359,1.16,6.892,1.975,10.041,3.554c6.282,3.15,12.239,2.953,18.403-0.259c2.831-1.475,5.981-2.338,9.684-3.744
				c-6.561-2.45-12.348-4.619-18.145-6.761c-0.401-0.148-0.93-0.249-1.309-0.115C768.622,215.278,762.389,217.533,756.153,219.778z
				 M728.318,180.198c5.532,1.909,10.483,3.397,15.249,5.338c3.338,1.36,6.3,1.39,9.615-0.071c4.402-1.94,9.001-3.433,14.218-5.381
				c-6.538-2.441-12.316-4.611-18.11-6.739c-0.474-0.174-1.11-0.223-1.575-0.06C741.459,175.483,735.222,177.728,728.318,180.198z"
				/>
			<path fill="#9B9B9B" d="M744.876,223.6c0,7.369,0.022,14.212-0.039,21.055c-0.005,0.588-0.423,1.542-0.871,1.701
				c-6.418,2.278-12.874,4.449-19.718,6.781c0-7.247-0.027-14.06,0.053-20.871c0.006-0.522,0.661-1.311,1.191-1.511
				C731.784,228.373,738.11,226.081,744.876,223.6z"/>
			<path fill="#9B9B9B" d="M751.325,213.206c0-7.302-0.026-14.032,0.05-20.761c0.006-0.54,0.607-1.368,1.121-1.563
				c6.284-2.389,12.603-4.684,19.299-7.145c0,7.425,0.02,14.493-0.046,21.56c-0.004,0.459-0.58,1.168-1.04,1.328
				C764.444,208.802,758.154,210.903,751.325,213.206z"/>
			<path fill="#9B9B9B" d="M778.289,253.095c0-7.228-0.025-13.97,0.047-20.711c0.006-0.552,0.56-1.407,1.059-1.597
				c6.286-2.394,12.609-4.692,19.163-7.103c0,7.643,0,14.981,0,22.544C792.018,248.444,785.403,250.685,778.289,253.095z"/>
			<path fill="#CCCCCC" d="M702.193,219.785c6.159-2.219,12.313-4.449,18.484-6.633c0.465-0.165,1.099-0.134,1.569,0.039
				c5.801,2.13,11.586,4.304,18.162,6.76c-4.259,1.604-7.918,2.665-11.284,4.322c-5.172,2.547-10.062,2.706-15.332,0.197
				c-3.68-1.752-7.714-2.758-11.591-4.097C702.2,220.177,702.196,219.981,702.193,219.785z"/>
			<path fill="#CCCCCC" d="M756.153,219.778c6.236-2.246,12.468-4.5,18.715-6.714c0.379-0.134,0.908-0.033,1.309,0.115
				c5.797,2.142,11.584,4.311,18.145,6.761c-3.703,1.406-6.854,2.268-9.684,3.744c-6.164,3.213-12.121,3.409-18.403,0.259
				c-3.149-1.579-6.682-2.394-10.041-3.554C756.181,220.186,756.167,219.982,756.153,219.778z"/>
			<path fill="#CCCCCC" d="M728.318,180.198c6.904-2.47,13.142-4.715,19.397-6.912c0.465-0.163,1.101-0.115,1.575,0.06
				c5.794,2.128,11.572,4.298,18.11,6.739c-5.217,1.948-9.816,3.441-14.218,5.381c-3.314,1.46-6.276,1.43-9.615,0.071
				C738.801,183.595,733.85,182.107,728.318,180.198z"/>
		</g>
		<ellipse opacity="0.3" fill="#D1D3D4" cx="750.38" cy="277.285" rx="56.074" ry="4.393"/>
	</g>
	<g clip-path="url(#SVGID_2_)">
		<rect x="83.504" y="65.445" opacity="0.9" fill="#FFFFFF" width="141.17" height="35.666"/>
		<text transform="matrix(1 0 0 1 94.8684 86.8518)" fill="#4A4A4A" font-family="'Roboto-Regular'" font-size="14">Budget Documents</text>
	</g>
	<g clip-path="url(#SVGID_2_)">
		<rect x="769.346" y="65.445" opacity="0.9" fill="#FFFFFF" width="120.008" height="35.666"/>
		<text transform="matrix(1 0 0 1 785.7986 86.8518)" fill="#4A4A4A" font-family="'Roboto-Regular'" font-size="14">Budget Basics</text>
	</g>
	<g clip-path="url(#SVGID_2_)">
		<rect x="1069.933" y="65.445" opacity="0.9" fill="#FFFFFF" width="120.008" height="35.666"/>
		<text transform="matrix(1 0 0 1 1087.0339 86.8518)" fill="#4A4A4A" font-family="'Roboto-Regular'" font-size="14">Visualisations</text>
	</g>
	<g clip-path="url(#SVGID_2_)">
		<rect x="418.84" y="65.445" opacity="0.9" fill="#FFFFFF" width="168.325" height="35.666"/>
		<text transform="matrix(1 0 0 1 428.2644 86.8518)" fill="#4A4A4A" font-family="'Roboto-Regular'" font-size="14">Machine Readable Data</text>
	</g>
</g>
<rect x="-0.5" y="-103.917" fill="#00202F" width="1291.575" height="103.917"/>
</svg>
