<?xml version="1.0" encoding="utf-8"?>
<!-- Generator: Adobe Illustrator 17.0.0, SVG Export Plug-In . SVG Version: 6.00 Build 0)  -->
<!DOCTYPE svg PUBLIC "-//W3C//DTD SVG 1.1//EN" "http://www.w3.org/Graphics/SVG/1.1/DTD/svg11.dtd">
<svg version="1.1" id="Layer_1" xmlns="http://www.w3.org/2000/svg" xmlns:xlink="http://www.w3.org/1999/xlink" x="0px" y="0px"
	 width="581.238px" height="253.981px" viewBox="0 0 581.238 253.981" enable-background="new 0 0 581.238 253.981"
	 xml:space="preserve">
<rect x="84.289" y="35.691" fill="#FFFFFF" width="400" height="158"/>
<g>
	<defs>
		<polygon id="SVGID_22_" points="-590.711,-280.309 -590.711,-76.309 -407.923,-76.309 -353.486,-280.309 		"/>
	</defs>
	<clipPath id="SVGID_2_">
		<use xlink:href="#SVGID_22_"  overflow="visible"/>
	</clipPath>
	<g clip-path="url(#SVGID_2_)">
	</g>
</g>
<g>
	<defs>
		<polygon id="SVGID_2078_" points="-591.217,18.93 -591.217,224.411 -412.041,224.411 -356.623,19.888 		"/>
	</defs>
	<clipPath id="SVGID_4_">
		<use xlink:href="#SVGID_2078_"  overflow="visible"/>
	</clipPath>
	<g clip-path="url(#SVGID_4_)">
		<defs>
			<rect id="SVGID_2080_" x="-712.695" y="-1844.685" width="1923.24" height="3789.385"/>
		</defs>
		<clipPath id="SVGID_6_">
			<use xlink:href="#SVGID_2080_"  overflow="visible"/>
		</clipPath>
	</g>
</g>
<g>
	<ellipse opacity="0.4" fill="#C2BEBB" cx="290.639" cy="184.323" rx="39.567" ry="3.16"/>
	<polygon opacity="0.3" fill="#C3BCBA" points="222.659,35.691 185.545,193.691 328.786,193.691 363.952,35.691 	"/>
	<polygon opacity="0.2" fill="#C3BCBA" points="84.289,35.691 84.289,193.691 182.705,193.691 219.819,35.691 	"/>
	<g>
		<defs>
			<polygon id="SVGID_2454_" points="484.289,35.691 366.793,35.691 331.626,193.691 484.289,193.691 			"/>
		</defs>
		<clipPath id="SVGID_8_">
			<use xlink:href="#SVGID_2454_"  overflow="visible"/>
		</clipPath>
		<path opacity="0.4" clip-path="url(#SVGID_8_)" fill="#C0BCB9" d="M319.986,133.894l23.106-13.203h7.489h4.261l9.111-35.852
			c0,0,4.425-0.979,8.906,0.182c4.481,1.161,5.122-14.142,13.836-23.259l15.907-17.791c0,0,17.539,2.454,21.018,10.624
			c0,0,21.085,24.563,23.293,28.648c0,0,12.268-5.83,14.202-2.912c1.934,2.918,13.684,18.745,13.684,18.745l12.255,4.02l8.754,1.751
			l36.182,19.842l30.346,32.681l-50.772,42.602l-96.466,16.34l-76.276-11.672l-32.681-8.133L319.986,133.894z"/>
	</g>
	<polygon opacity="0.4" fill="#C0BCB9" points="484.289,35.691 366.793,35.691 331.626,193.691 484.289,193.691 	"/>
	<g>
		<defs>
			<polygon id="SVGID_2456_" points="84.289,35.691 84.289,193.691 182.705,193.691 219.819,35.691 			"/>
		</defs>
		<clipPath id="SVGID_10_">
			<use xlink:href="#SVGID_2456_"  overflow="visible"/>
		</clipPath>
	</g>
	<g>
		<defs>
			<polygon id="SVGID_2458_" points="222.659,35.691 185.545,193.691 328.786,193.691 363.952,35.691 			"/>
		</defs>
		<clipPath id="SVGID_12_">
			<use xlink:href="#SVGID_2458_"  overflow="visible"/>
		</clipPath>
	</g>
	<g>
		<defs>
			<polygon id="SVGID_2460_" points="222.659,35.691 185.545,193.691 328.786,193.691 363.952,35.691 			"/>
		</defs>
		<clipPath id="SVGID_14_">
			<use xlink:href="#SVGID_2460_"  overflow="visible"/>
		</clipPath>
	</g>
	<g>
		<defs>
			<polygon id="SVGID_2462_" points="222.659,35.691 185.545,193.691 328.786,193.691 363.952,35.691 			"/>
		</defs>
		<clipPath id="SVGID_16_">
			<use xlink:href="#SVGID_2462_"  overflow="visible"/>
		</clipPath>
	</g>
	<g>
		<defs>
			<polygon id="SVGID_2464_" points="222.659,35.691 185.545,193.691 328.786,193.691 363.952,35.691 			"/>
		</defs>
		<clipPath id="SVGID_17_">
			<use xlink:href="#SVGID_2464_"  overflow="visible"/>
		</clipPath>
	</g>
	<g>
		<defs>
			<polygon id="SVGID_2466_" points="222.659,35.691 185.545,193.691 328.786,193.691 363.952,35.691 			"/>
		</defs>
		<clipPath id="SVGID_19_">
			<use xlink:href="#SVGID_2466_"  overflow="visible"/>
		</clipPath>
	</g>
	<g>
		<rect x="269.289" y="166.691" fill="#C2BEBB" width="45" height="8"/>
		<rect x="257.289" y="174.691" fill="#837C7A" width="68" height="7"/>
	</g>
	<g>
		<defs>
			<polygon id="SVGID_2468_" points="222.659,35.691 185.545,193.691 328.786,193.691 363.952,35.691 			"/>
		</defs>
		<clipPath id="SVGID_21_">
			<use xlink:href="#SVGID_2468_"  overflow="visible"/>
		</clipPath>
		<g clip-path="url(#SVGID_21_)">
			<path fill="#837C7A" d="M242.863,83.002c-3.03,2.332-7.377,1.766-9.709-1.264l0,0c-2.333-3.032-1.769-7.377,1.261-9.711
				l21.489-16.541c3.03-2.335,7.378-1.769,9.711,1.262l0,0c2.333,3.03,1.767,7.376-1.264,9.709L242.863,83.002z"/>
			<path fill="#837C7A" d="M259.797,111.188l-66.84,51.458c-4.547,3.502-10.382,3.541-13.883-1.005l0,0
				c-3.5-4.545-1.967-10.176,2.578-13.677l66.844-51.459L259.797,111.188z"/>
			
				<rect x="253.609" y="66.392" transform="matrix(-0.6101 -0.7923 0.7923 -0.6101 351.4769 333.4884)" fill="#98938F" width="8.365" height="27.747"/>
			<path fill="#837C7A" d="M271.311,119.952c-3.03,2.333-3.595,6.679-1.262,9.709l0,0c2.334,3.034,6.68,3.598,9.71,1.264
				l21.489-16.545c3.031-2.332,3.595-6.678,1.261-9.707l0,0c-2.333-3.032-6.679-3.598-9.709-1.264L271.311,119.952z"/>
			
				<rect x="273.586" y="92.344" transform="matrix(0.6103 0.7922 -0.7922 0.6103 192.3938 -178.6497)" fill="#98938F" width="8.367" height="27.746"/>
			
				<rect x="253.914" y="83.826" transform="matrix(-0.7924 0.6101 -0.6101 -0.7924 536.8539 3.7532)" fill="#C2BEBB" width="27.748" height="18.831"/>
		</g>
	</g>
	<g>
		<defs>
			<polygon id="SVGID_2470_" points="84.289,35.691 84.289,193.691 182.705,193.691 219.819,35.691 			"/>
		</defs>
		<clipPath id="SVGID_23_">
			<use xlink:href="#SVGID_2470_"  overflow="visible"/>
		</clipPath>
		<path fill="#847E7C" d="M216.812,127.619L202.93,98.12v-0.534c1.201-0.267,2.136-1.335,2.136-2.67s-0.934-2.403-2.136-2.67v-1.068
			c2.136-0.267,3.871-2.136,3.871-4.405c0-0.801-0.267-1.602-0.667-2.269c-0.667-1.335-2.136-2.269-3.737-2.269
			c-1.602,0-2.937,0.934-3.737,2.136c-0.267,0.534-0.534,1.068-0.667,1.602c-3.604-0.934-6.808-2.803-10.278-4.939
			c-5.74-3.47-12.681-7.742-24.16-8.676c-0.133-0.267-0.267-0.4-0.4-0.667c0.534-1.068,0.801-2.536,0.801-4.538
			c0-3.337-1.869-8.676-3.337-10.411c-0.4-0.4-0.934-0.667-1.468-0.667s-1.068,0.267-1.468,0.667
			c-1.468,1.735-3.337,7.074-3.337,10.411c0,1.869,0.267,3.337,0.801,4.538c-0.133,0.133-0.267,0.4-0.4,0.667
			c-13.615,0.801-20.289,5.339-25.895,9.077c-2.937,2.002-5.473,3.737-8.543,4.538c-0.133-0.534-0.267-1.068-0.667-1.602
			c-0.801-1.335-2.136-2.136-3.737-2.136c-1.602,0-3.07,0.934-3.737,2.269c-0.4,0.667-0.667,1.468-0.667,2.269
			c0,2.269,1.602,4.004,3.737,4.405v1.068c-1.201,0.267-2.136,1.335-2.136,2.67s0.934,2.403,2.136,2.67v0.534l-13.615,29.499H97.08
			c0,5.339,8.543,9.611,19.088,9.611s19.088-4.271,19.088-9.611h-4.939L116.568,98.12v-0.534c1.201-0.267,2.136-1.335,2.136-2.67
			s-0.934-2.403-2.136-2.67v-1.068c0.534,0,1.068-0.133,1.468-0.4c5.606-0.534,9.344-3.07,13.348-5.74
			c5.339-3.604,11.212-7.608,23.626-8.409c0.133,0.4,0.4,0.667,0.667,0.934c-0.801,1.735-1.201,3.871-1.201,6.407
			c0,3.604,0.934,6.674,2.403,8.276v65.741c-1.468,0.801-2.403,2.403-2.403,4.138c0,1.201,0.4,2.403,1.201,3.204
			c-0.801,1.735-1.201,3.871-1.201,6.407c0,0.934,0.133,1.869,0.267,2.803c-8.409,1.068-14.549,4.805-14.549,9.344l0,0
			c-2.67,0-4.805,2.136-4.805,4.805l0,0h-1.201c-2.002,0-3.604,1.068-3.604,2.403l0,0c0,1.335,1.602,2.403,3.604,2.403h6.007h19.088
			h19.221h6.007c2.002,0,3.604-1.068,3.604-2.403l0,0c0-1.335-1.602-2.403-3.604-2.403h-1.201l0,0c0-2.67-2.136-4.805-4.805-4.805
			l0,0c0-4.538-6.274-8.276-14.549-9.344c0.133-0.934,0.267-1.869,0.267-2.803c0-2.403-0.4-4.672-1.201-6.407
			c0.801-0.801,1.201-2.002,1.201-3.204c0-1.735-0.934-3.337-2.403-4.138V92.38c1.468-1.602,2.403-4.805,2.403-8.276
			c0-2.403-0.4-4.672-1.201-6.407c0.267-0.267,0.4-0.534,0.667-0.934c10.278,0.801,16.552,4.672,22.024,8.009
			c4.672,2.803,9.077,5.606,14.95,6.007c0.4,0.267,0.934,0.4,1.335,0.4v1.068c-1.201,0.267-2.136,1.335-2.136,2.67
			s0.934,2.403,2.136,2.67v0.534l-14.015,29.499h-4.805c0,5.339,8.543,9.611,19.088,9.611c10.545,0,19.088-4.271,19.088-9.611
			H216.812L216.812,127.619z M115.5,100.523v27.097h-12.681L115.5,100.523z M129.248,127.619h-12.681v-27.097L129.248,127.619z
			 M117.636,94.916c0,0.667-0.4,1.335-1.068,1.468v-0.267H115.5v0.267c-0.667-0.267-1.068-0.801-1.068-1.468
			c0-0.934,0.667-1.602,1.602-1.602S117.636,94.116,117.636,94.916z M215.61,127.619H202.93v-27.097L215.61,127.619z
			 M200.794,94.916c0-0.934,0.667-1.602,1.602-1.602c0.934,0,1.602,0.667,1.602,1.602c0,0.667-0.4,1.335-1.068,1.468v-0.267h-1.068
			v0.267C201.194,96.251,200.794,95.584,200.794,94.916z M201.862,100.523v27.097h-12.681L201.862,100.523z"/>
	</g>
	<g>
		<defs>
			<polygon id="SVGID_2472_" points="484.289,35.691 366.793,35.691 331.626,193.691 484.289,193.691 			"/>
		</defs>
		<clipPath id="SVGID_25_">
			<use xlink:href="#SVGID_2472_"  overflow="visible"/>
		</clipPath>
		<g clip-path="url(#SVGID_25_)">
			<path fill="#847E7C" d="M374.373,122.37"/>
			<path opacity="0.5" fill="#847E7C" d="M374.457,126.073c0,0,1.052-35.808,25.07-39.205c0,0,24.569-3.863,29.119,18.41
				c0,0,1.164,8.789,6.051,13.946c0,0,3.634,4.067,1.826,12.659c0,0-4.776,14.99-6.012,17.982c0,0-12.694,21.491-23.908,19.236
				c0,0-9.914,0.231-16.806-7.507c0,0-6.704-5.2-8.82-10.888c0.001,0.002-3.557-9.951-4.283-12.865
				C375.921,134.735,375.04,133.618,374.457,126.073z"/>
			<path fill="#4B4749" d="M381.007,115.115c0,0,14.097-9.813,20.073,0.797c0,0,0.287,1.194-2.086,0.408
				c0,0-4.696-4.841-11.074-2.295c0,0-6.72,1.099-6.88,1.381"/>
			<path fill="#4B4749" d="M411.906,116.884c0,0,3.885-4.367,8.842-3.917c4.957,0.45,0.128,0.079,0.128,0.079
				s5.344-0.193,10.746,4.906c0,0-6.158-3.149-8.461-3.125c0,0-7.16-0.307-9.846,2.643
				C413.316,117.47,411.857,118.66,411.906,116.884z"/>
			<g>
				<g>
					<path fill="#4B4749" d="M397.088,135.411c-1.207,1.954,0.17,2.95,2.049,3.099c0.101,0.008,0.231,0.003,0.287-0.095
						c1.001-1.763,3.668,0.994,4.796,1.466c1.989,0.832,3.679,0.442,5.441-0.75c1.144-0.774,1.605-1.014,3.136-1.092
						c0.44-0.022,0.871-0.099,1.3-0.192c2.007-0.432,1.681-1.811,0.481-3.028c-0.185-0.187-1.127-0.299-0.885-0.053
						c2.36,2.394-0.381,2.53-2.138,2.698c-3.024,0.289-4.62,4.019-8.032,1.314c-0.899-0.713-3.125-1.522-4.336-1.127
						c-0.268,0.087-0.561,0.196-0.709,0.456c-0.429,0.755-0.86-1.434-0.735-1.802c0.072-0.212,0.186-0.419,0.304-0.609
						C398.166,135.504,397.259,135.135,397.088,135.411L397.088,135.411z"/>
				</g>
			</g>
			<path fill="none" stroke="#4B4749" stroke-miterlimit="10" d="M396.355,136.995c0,0-3.558,5.445,2.375,6.354
				c0,0,3.857-0.242,2.944-4.346"/>
			<path fill="#4B4749" d="M403.834,139.628c0,0,2.105,3.848,4.456,0.53l0.945-0.592c0,0,0.589,4.417-3.169,4.256
				c0,0-4.222-0.616-3.051-4.511L403.834,139.628z"/>
			<path fill="#4B4749" d="M411.131,138.714c0,0,0.738,3.182,3.809,2.133c0,0,2.766-1.33,1.593-4.51c0,0,0.017-1.357-2.626-1.958
				c0,0,2.821,0.271,3.267,2.035c0,0,0.878,2.288-1.047,4.575c0,0-1.239,1.573-3.882,0.625c0,0-1.836-1.68-1.557-2.986
				c0.279-1.305,0.555-0.223,0.555-0.223L411.131,138.714z"/>
			<path fill="#847E7C" d="M438.694,93.899c0,0,0.063,0.377,0.151,1.026C442.679,106.811,438.694,93.899,438.694,93.899z"/>
			<path fill="#7E6B71" d="M442.685,114.272c-3.118-3.642-3.384-9.012-3.384-9.012c0.279-4.126-0.197-8.422-0.456-10.335
				c-0.149-0.463-0.306-0.951-0.48-1.492c-4.634-14.417-15.727-18.222-15.727-18.222c-13.594-6.333-19.873-1.066-19.873-1.066
				c-11.938-3.439-22.671,12.019-22.671,12.019c-11.371,12.362-5.948,43.111-5.948,43.111l0.614-0.045
				c-0.107-0.915-0.209-1.946-0.303-3.158c0,0,1.052-35.808,25.07-39.205c0,0,24.569-3.863,29.119,18.41
				c0,0,1.164,8.789,6.051,13.946c0,0,1.486,1.679,2.083,5.137c-0.406-5.474,3.321-5.769,3.321-5.769
				c3.276-0.683,2.284-3.931,2.284-3.931S445.804,117.914,442.685,114.272z"/>
			<path fill="#7E6B71" d="M427.685,153.42l-1.063,2.179c-4.622,6.191-12.641,14.986-20.019,13.502c0,0-9.914,0.231-16.806-7.507
				c0,0-2.276-1.771-4.594-4.37c0.763,1.708,2.24,5.717,1.62,10.058c-0.821,5.754,0.721,0.12,0.721,0.12
				s31.665,30.718,31.443,33.674l11.508-24.749C430.497,176.327,423.806,167.622,427.685,153.42z"/>
			<path fill="none" stroke="#4A4749" stroke-miterlimit="10" d="M386.902,164.674c0,0-4.392,6.545,20.234,5.568
				c0,0,24.156,1.357,18.833-5.848"/>
			<g>
				<g>
					<path fill="#4A4749" d="M366.134,119.686c-1.812,2.409-3.035,8.177,1.413,8.398c1.307,0.065,2.699-0.194,3.745-1.017
						c1.983-1.561,1.151-4.721,0.5-6.699c-0.101-0.306-1.07-0.142-0.997,0.079c1.018,3.094,1.216,7.442-3.137,7.226
						c-1.717-0.085-2.367-2.457-2.271-3.865c0.098-1.436,0.858-2.95,1.717-4.092C367.248,119.524,366.317,119.442,366.134,119.686
						L366.134,119.686z"/>
				</g>
			</g>
			<path fill="#7E6B71" d="M373.228,116.816"/>
			<path fill="none" stroke="#4A4749" stroke-width="0.75" stroke-miterlimit="10" d="M439.645,120.497c0,0-4.344,9.417,5.887,7.575
				c0,0,4.265-4.15-1.176-7.573"/>
			<path fill="#7E6B71" d="M419.223,198.844c0,0-17.533-23.221-34.653-32.586c0,0-11.537-1.385-10.938,5.704l24.22,22.625
				L419.223,198.844z"/>
			<path opacity="0.5" fill="#847E7C" d="M373.632,171.962c0.012,0.136,0.019,0.268,0.039,0.41c0,0-0.023,0.005-0.062,0.014
				c4.011,4.636,13.914,15.629,22.844,21.922l1.398,0.279L373.632,171.962z"/>
			<path fill="#837D7A" d="M396.454,193.691c-8.93-6-18.834-16.978-22.844-21.613c-0.426,0.1-3.023,0.605-3.778,1.87l15.372,19.744
				H396.454z"/>
			<path fill="#C2BEBB" d="M369.677,174.724c-0.071,0.248-0.078,0.496,0.019,0.784c0,0-7.511,6.182,3.914,18.182h7.957
				C376.929,188.691,372.145,178.698,369.677,174.724z"/>
			<path fill="#7E6B71" d="M369.832,174.41c-0.067,0.113-0.12,0.23-0.155,0.352c2.468,3.974,7.252,14.385,11.89,19.629l3.637-0.083
				L369.832,174.41z"/>
			<path fill="#7E6B71" d="M443.905,179.227c-6.559-10.615-13.274-2.985-13.274-2.985l-0.186,0.355l-11.778,25.163l18.444,3.538
				C437.022,199.315,442.075,184.418,443.905,179.227z"/>
			<path fill="#7E6B71" d="M477.744,201.232l-5.122-8.654c-15.212-22.251-17.688-10.501-17.688-10.501
				c-7.531-11.044-9.85-0.743-9.85-0.743c-0.112-0.221-0.224-0.421-0.336-0.63c0.264,6.397,0.326,20.268-3.663,25.357l34.501,6.617
				L477.744,201.232z"/>
			<path fill="#C6BFBD" d="M444.748,180.704c-0.28-0.525-0.562-1.021-0.843-1.477c-1.831,5.191-6.884,20.088-6.793,26.071
				l3.974,0.762C445.075,200.972,445.012,187.1,444.748,180.704z"/>
			<path fill="#847C7A" d="M453.772,180.58c0,0,13.73,19.966,8.891,31.804c-4.839,11.838-14.094-32.585-16.736-32.51
				S450.135,171.808,453.772,180.58z"/>
			<path fill="#7E6B71" d="M367.536,125.439"/>
			<g>
				<path fill="none" d="M372.058,126.32l-2.842,2.01C370.358,127.571,371.319,126.875,372.058,126.32z"/>
				<path fill="#7E6B71" d="M376.511,137.171c0,0-2.113-10.059-2.904-12.061c0,0-0.027,0.023-0.042,0.035l-0.711-10.07
					c0,0-8.187-0.17-4.34,11.654l0.702,1.601l2.842-2.01c-0.74,0.555-1.7,1.251-2.842,2.01l1.695,5.384c0,0,1.204,0.7,2.252,3.633
					C373.164,137.347,375.578,143.92,376.511,137.171z"/>
			</g>
			<g>
				<path fill="none" d="M441.713,128.467l-2.047-0.616C440.197,128.127,440.868,128.34,441.713,128.467z"/>
				<path fill="#7E6B71" d="M445.838,127.339c-0.491-8.083-4.584-9.058-4.584-9.058c-1.528-0.925-8.49-0.253-3.188,0.89
					l-1.631,3.088l0.397,4.404c-0.132,1.443-0.566,5.734-1.215,7.862c0,0-1.603,5.285-2.466,7.586c0,0,3.976,3.686,3.932-1.692
					c0,0,8.06-3.615,7.864-10.979l0.011,0.003l-0.01-0.048 M439.666,127.851l2.047,0.616
					C440.868,128.34,440.197,128.127,439.666,127.851z"/>
			</g>
			<path fill="#837D7A" d="M367.8,179.353c0,0-10.654,2.338-6.079,14.338h14.766C376.487,193.691,370.656,194.587,367.8,179.353z"/>
		</g>
	</g>
</g>
</svg>
