<?xml version="1.0" encoding="utf-8"?>
<!-- Generator: Adobe Illustrator 17.0.0, SVG Export Plug-In . SVG Version: 6.00 Build 0)  -->
<!DOCTYPE svg PUBLIC "-//W3C//DTD SVG 1.1//EN" "http://www.w3.org/Graphics/SVG/1.1/DTD/svg11.dtd">
<svg version="1.1" id="Layer_1" xmlns="http://www.w3.org/2000/svg" xmlns:xlink="http://www.w3.org/1999/xlink" x="0px" y="0px"
	 width="600px" height="72px" viewBox="0 0 600 72" enable-background="new 0 0 600 72" xml:space="preserve">
<rect x="0" y="0" fill="#00202E" width="600" height="72"/>
<text transform="matrix(1 0 0 1 428.6143 60.5712)" fill="#D8B244" font-family="'Roboto-Black'" font-size="10">BETA</text>
<g>
	<text transform="matrix(1 0 0 1.1 195.8755 47.5169)" fill="#C1D6E9" font-family="'Roboto-Black'" font-size="30">Open</text>
</g>
<text transform="matrix(1 0 0 1.1 270.071 47.571)" fill="#C1D6E9" font-family="'Roboto-Black'" font-size="30">Budgets</text>
<g>
	<text transform="matrix(1 0 0 1.1 385.2093 47.5709)" fill="#939393" font-family="'Roboto-Black'" font-size="30">India</text>
</g>
<g>
	<g>
		<circle fill="#939393" cx="147.887" cy="20.77" r="2.126"/>
	</g>
	<g>
		<circle fill="#939393" cx="188.145" cy="20.77" r="2.126"/>
	</g>
	<g>
		<circle fill="#939393" cx="155.884" cy="13.786" r="2.126"/>
	</g>
	<g>
		<circle fill="#939393" cx="163.88" cy="11.148" r="2.126"/>
	</g>
	<g>
		<circle fill="#939393" cx="171.876" cy="11.148" r="2.126"/>
	</g>
	<g>
		<circle fill="#939393" cx="179.608" cy="13.786" r="2.126"/>
	</g>
	<g>
		<path fill="#CCCCCC" d="M155.148,18.604c0,11.671,0,23.342,0,35.013c0.476,0.319,0.97,0.614,1.472,0.894
			c0-12.267,0-24.535,0-36.802C156.117,17.99,155.624,18.285,155.148,18.604z"/>
		<g>
			<path fill="#CCCCCC" d="M154.423,18.798c0,6.484,0,12.968,0,19.452c0,3.242,0,6.484,0,9.726c0,2.805-1.018,5.244,1.514,6.782
				c0.267,0.162,1.407-0.048,1.407-0.441c0-12.267,0-24.535,0-36.802c0-0.323-1.167,0.106-1.279,0.173
				c-0.491,0.298-0.982,0.596-1.472,0.894c-0.612,0.372,0.849,0.199,1.109,0.041c0.491-0.298,0.982-0.596,1.472-0.894
				c-0.426,0.058-0.853,0.116-1.279,0.173c0,12.267,0,24.535,0,36.802c0.469-0.147,0.938-0.294,1.407-0.441
				c-2.322-1.411-1.431-6.437-1.431-8.623c0-3.242,0-6.484,0-9.726c0-5.836,0-11.671,0-17.507
				C155.872,18.174,154.423,18.383,154.423,18.798z"/>
		</g>
	</g>
	<g>
		<path fill="#CCCCCC" d="M163.149,15.545c0,13.71,0,27.421,0,41.131c0.48,0.105,0.971,0.179,1.463,0.25c0-13.877,0-27.755,0-41.632
			C164.12,15.366,163.629,15.44,163.149,15.545z"/>
		<g>
			<path fill="#CCCCCC" d="M162.421,15.621c0,13.71,0,27.421,0,41.131c0,0.183,0.102,0.322,0.295,0.355
				c0.488,0.083,0.975,0.167,1.463,0.25c0.305,0.052,1.162-0.039,1.162-0.508c0-13.877,0-27.755,0-41.632
				c0-0.328-0.364-0.425-0.643-0.377c-0.488,0.083-0.975,0.167-1.463,0.25c-0.728,0.124-1.162,1.076-0.17,0.906
				c1.039-0.178,0.819,17.467,0.819,19.198c0,7.269,0,14.538,0,21.807c0.387-0.169,0.774-0.339,1.162-0.508
				c-2.494-0.427-1.168-17.147-1.168-19.481c0-7.182,0-14.363,0-21.545C163.877,14.795,162.421,15.077,162.421,15.621z"/>
		</g>
	</g>
	<g>
		<path fill="#CCCCCC" d="M171.151,15.243c0,13.912,0,27.824,0,41.736c0.488-0.063,0.975-0.126,1.452-0.222
			c0-13.764,0-27.528,0-41.293C172.126,15.369,171.638,15.305,171.151,15.243z"/>
		<g>
			<path fill="#CCCCCC" d="M170.426,15.437c0,13.912,0,27.824,0,41.736c0,0.202,0.513,0.14,0.604,0.126
				c0.484-0.074,0.968-0.148,1.452-0.222c0.248-0.038,0.845-0.179,0.845-0.514c0-13.764,0-27.528,0-41.293
				c0-0.104-0.206-0.131-0.265-0.14c-0.484-0.074-0.968-0.148-1.452-0.222c-0.365-0.056-1.689,0.551-0.919,0.668
				c2.481,0.379,1.187,17.445,1.187,19.745c0,6.554,0,13.109,0,19.663c0-13.312-0.003-26.624-0.003-39.936
				C171.875,14.726,170.426,14.961,170.426,15.437z"/>
		</g>
	</g>
	<g>
		<path fill="#CCCCCC" d="M179.136,17.518c0,12.395,0,24.789,0,37.184c0.506-0.27,0.993-0.567,1.474-0.876
			c0-11.811,0-23.622,0-35.432C180.129,18.086,179.642,17.788,179.136,17.518z"/>
		<g>
			<path fill="#CCCCCC" d="M178.412,17.713c0,12.395,0,24.789,0,37.184c0,0.349,1.037,0.018,1.155-0.052
				c2.145-1.275,1.768-0.573,1.768-3.181c0-3.937,0-7.874,0-11.811s0-7.874,0-11.811c0-3.236,1.463-9.012-1.519-10.785
				c-0.388-0.231-1.633,0.359-1.357,0.522c2.332,1.386,1.428,6.511,1.428,8.683c0,3.281,0,6.562,0,9.842c0,2.625,0,5.249,0,7.874
				c0,2.191,1.108,9.022-1.179,10.382c0.385-0.017,0.77-0.034,1.155-0.052c0-12.395,0-24.789,0-37.184
				C179.86,17.001,178.412,17.237,178.412,17.713z"/>
		</g>
	</g>
	<g>
		<path fill="#CCCCCC" d="M188.594,25.123c-0.43-0.796-0.924,0.449-1.449-0.281c0,8.179,0,15.359,0,23.538
			c0.525-0.731,1.019-1.485,1.449-2.281C188.594,39.44,188.594,31.781,188.594,25.123z"/>
		<g>
			<path fill="#CCCCCC" d="M189.272,24.862c-0.628-0.369-1.013-0.102-1.54-0.328c-0.308-0.132-1.312,0.07-1.312,0.502
				c0,7.846,0,15.692,0,23.538c0,0.392,1.258-0.031,1.387-0.222c1.961-2.879,1.51-5.345,1.51-8.82c0-4.868,0-9.736,0-14.603
				c0-0.321-1.449-0.086-1.449,0.388c0,3.221,0,6.441,0,9.662c0,4.071,1.022,9.891-1.388,13.429
				c0.462-0.074,0.925-0.148,1.387-0.222c0-7.846,0-15.692,0-23.538c-0.437,0.167-0.875,0.334-1.312,0.502
				c0.369,0.159,1.22,0.153,1.358,0.235C188.303,25.612,189.545,25.022,189.272,24.862z"/>
		</g>
	</g>
	<g>
		<path fill="#CCCCCC" d="M147.163,25.123c0.43-0.796,0.924,0.449,1.449-0.281c0,8.179,0,15.359,0,23.538
			c-0.525-0.731-1.019-1.485-1.449-2.281C147.163,39.44,147.163,31.781,147.163,25.123z"/>
		<g>
			<path fill="#CCCCCC" d="M147.593,25.264c-0.278,0.164,1.181-0.163,1.283-0.207c-0.33-0.007-0.659-0.015-0.989-0.022
				c0,7.846,0,15.692,0,23.538c0.483-0.129,0.966-0.259,1.449-0.388c-2.114-3.103-1.449-6.622-1.449-10.294
				c0-4.321,0-8.642,0-12.963c0-0.321-1.449-0.086-1.449,0.388c0,3.771,0,7.542,0,11.314c0,4.042-0.876,8.53,1.449,11.943
				c0.241,0.354,1.449,0.063,1.449-0.388c0-7.846,0-15.692,0-23.538c0-0.303-0.88-0.068-0.989-0.022
				c-0.434,0.187-1.031,0.012-1.614,0.356C145.896,25.473,147.208,25.491,147.593,25.264z"/>
		</g>
	</g>
</g>
</svg>
